<?xml version="1.0" encoding="UTF-8" standalone="no"?>
<svg
   xmlns:dc="http://purl.org/dc/elements/1.1/"
   xmlns:cc="http://creativecommons.org/ns#"
   xmlns:rdf="http://www.w3.org/1999/02/22-rdf-syntax-ns#"
   xmlns:svg="http://www.w3.org/2000/svg"
   xmlns="http://www.w3.org/2000/svg"
   xmlns:sodipodi="http://sodipodi.sourceforge.net/DTD/sodipodi-0.dtd"
   xmlns:inkscape="http://www.inkscape.org/namespaces/inkscape"
   width="3378.5938"
   height="5317.875"
   viewBox="0 0 3378.5938 5317.875"
   id="svg2"
   version="1.1"
   inkscape:version="0.48.1 "
   sodipodi:docname="AJAX.svg">
  <metadata
     id="metadata20">
    <rdf:RDF>
      <cc:Work
         rdf:about="">
        <dc:format>image/svg+xml</dc:format>
        <dc:type
           rdf:resource="http://purl.org/dc/dcmitype/StillImage" />
      </cc:Work>
    </rdf:RDF>
  </metadata>
  <defs
     id="defs18" />
  <sodipodi:namedview
     pagecolor="#ffffff"
     bordercolor="#666666"
     borderopacity="1"
     objecttolerance="10"
     gridtolerance="10"
     guidetolerance="10"
     inkscape:pageopacity="0"
     inkscape:pageshadow="2"
     inkscape:window-width="1280"
     inkscape:window-height="1004"
     id="namedview16"
     showgrid="false"
     fit-margin-top="0"
     fit-margin-left="0"
     fit-margin-right="0"
     fit-margin-bottom="0"
     inkscape:zoom="0.097357373"
     inkscape:cx="3694.1619"
     inkscape:cy="2052.1178"
     inkscape:window-x="-8"
     inkscape:window-y="-8"
     inkscape:window-maximized="1"
     inkscape:current-layer="svg2" />
  <path
	 style="fill:#9FAEC0"
	 stroke="#9FAEC0"
	 stroke-width="10"
	 transform="translate(0, 125)"
     d="m 306.75,0 -0.4375,2.875 2.5,4.9063 0.5,0.9063 10,20.6874 7.0938,9.6876 5.1874,7.125 4.5938,9 3.625,9.5937 4.6875,12.0937 6.5937,11.0938 7.2188,7.5 7.5938,8.5938 8,6.8124 7.99995,4.3126 9.59375,4.875 8.90625,2.5 -1,9.4062 -4.5,42 -2,15.5938 -3,26.2187 -3.40625,32.1875 -15.8125,116.9062 -4.7812,35.9063 -2.0938,13.0937 -7.4062,57 -13.5,103.8126 -2.7188,24.6874 -15.875,140.6876 -2.2188,19.2187 -14.5937,128.71875 2524.6875,0 -1.7812,-11.625 L 2817,803.2813 2790.5937,658.875 l -22.6874,-120.0937 -13.3126,-70.7187 -5.1874,-28.0938 -2.3126,-12 -37.2812,-197.1875 -10.4062,-65.8125 -21.4063,-136.5 -221.1875,-1.9062 -15.8125,0 -407.1875,-1.1876 -7.125,0 -91.7812,1.5938 -273.5938,-1.5 -59,-0.4062 -48.625,0.125 -43.5937,0 -297.6875,-9.5 -11.9063,-0.4063 -4.9062,-0.2187 -348.2813,-7.5938 -9,-0.1875 -142,-2.8125 L 654.09375,3.5626 640.40625,3.2813 503.5,0.5626 l -84.40625,-0.5 -1.78125,-0.063 -110.5625,0 z"
     id="rect4"
     inkscape:connector-curvature="0" />
  <path
	 style="fill:#9FAEC0"
	 stroke="#9FAEC0"
	 stroke-width="10"
	 transform="translate(0, 100)"
     d="m 307.5,888.00005 -1.5,13.28125 -13.5937,115.0938 -4.0938,33.8125 -1.7188,14.375 -22.5,162.7187 -20.1874,165 -0.7188,5.9063 -18.7812,159.5937 -8.5,73.0938 -10.7188,91.0937 -6.0938,54.0625 2789.125,0 -3.9062,-23.1562 -4.625,-27.5938 -5.7812,-32.9062 -31.3126,-176.5938 -2.0937,-12.0937 -35.1875,-204.3125 -11.7188,-66.0938 -13,-74 -12.6874,-72.5937 -10,-55.9063 -23.4063,-131.40625 -1.8125,-8 -0.5,-3.375 -2524.6875,0 z"
     id="rect6"
     inkscape:connector-curvature="0" />
  <path
	 style="fill:#9FAEC0"
	 stroke="#9FAEC0"
	 stroke-width="10"
	 transform="translate(0, 75)"
     d="m 199.0937,1776.0313 -13,114.9375 -1.0937,9.5938 -1.9063,15.125 -2,18.0937 -14.4062,120.6875 -19.5,168.0938 -1.0938,9.2187 -8.5937,70.7813 -10.5,86.3125 -18.5,161.3125 -13.75,113.875 3101.9375,0 -0.1875,-1.375 0.3125,-3.125 0.094,-1.5 -0.4063,-5.5 -1.5,-3.0938 -2.0937,-2.5 -3.0938,-2.7812 -1,-1.8125 -1,-3.5 1.0938,-3.3125 2,-3.0938 1.5,-2.1875 -0.094,-1.4062 -1.4062,-1.5938 -2.5938,-1 -3.3125,0.4063 -2.8125,-0.4063 -2.375,-1.5 -2.2188,-0.5 -1.9062,-0.8125 -2.0938,-1.5 -1.0937,-2 0.5,-2.7812 1.5937,-4 4.5938,-5 6.625,-4.125 -0.3125,-5.7813 -1.1875,-5.5 -2.125,-3.9062 -5.5,-6.4063 -7.7812,-8.1875 -3.4063,-5.0937 -2.3125,-7 -2.375,-9 -1.7188,-6 -0.9062,-3.8125 -0.5,-4.6875 -0.094,-3.5 0.9063,-2.625 1.8125,-1.7813 2,-4 1,-5.0937 -1,-4.5 -2,-3.625 -4.625,-3.5938 -7.2812,-2.2812 -8.7188,-0.7188 -1.1875,-3.5 -0.6875,-2.5 -1.5,-3 -1.625,-3.5 -1,-3.0937 0.5,-3 1.625,-3 2.5,-2.0938 3.5,-2.5937 3.1875,-1.4063 3.8125,-1.9062 2.5,-1.5938 1.5,-2.5937 -0.625,-2.5 -2.5938,-1.5 -3.0937,-1.5 -4.1875,-2.2188 -3.2188,-1.9062 -1.7812,-1.5 -1,-1 -0.5,-4.5 -2.7188,-3.375 -3.0937,-2.4063 -7,-2.8125 -6.0937,-3 -3.7188,-4.1875 -1.5938,-2.5 -1.1874,-3.5 0.2812,-3.5 1.125,-3.5 -0.2188,-3.7187 -0.5937,-3 -1.6875,-2.875 -0.625,-4.125 0.3125,-3 2.3125,-3 1.5938,-2.1875 2.5,-2.0938 3.5,-1.8125 2.5,-3 0.5937,-2 -1,-3.5 -3.0937,-4.5937 -2,-2 -2.5938,-1 -3.125,0.5 -2,1.5 -3.5938,0 -5.0937,-1 -3.1875,-2.5938 -1.9062,-5 -2,-9.0937 -0.3126,-0.9063 -2.4062,-10.5937 -5.5,-32.4063 -10.875,-64.5 -2.4062,-14.3125 -5.5938,-34.2812 -9.7188,-58.125 -0.6874,-5.2813 -5.0938,-27.0937 -3.2188,-16.125 -4.5,-23.5 -26.9062,-146.5 -26.9688,-160.5313 -2789.125,0 z"
     id="rect8"
     inkscape:connector-curvature="0" />
  <path
	 style="fill:#9FAEC0"
	 stroke="#9FAEC0"
	 stroke-width="10"
	 transform="translate(0, 50)"
     d="m 94.75,2664.0626 -3.1563,26 -2.7812,23.625 -19.4062,163.2812 -13.0938,110.8125 -6.2188,51.7813 -4.6874,38.8124 L 29.8125,3204.6876 8.9063,3368.4688 0,3440.375 l 0.1875,9.3126 1.2188,82.1874 0.5937,20.1876 3154.3437,0 0.25,-1.375 0.094,-8 -1,-9.7188 -1,-7 -1,-3.5938 -1.2812,-1.9062 -1.8126,-2.5938 -1,-4.0937 0.5,-5 0.5,-2.5937 1.7188,-2.9063 0.875,-1.5937 0.5,-3.5 -0.5,-2.625 -0.5,-3 0,-4.0938 1,-2.4062 1.5,-3.0938 2.125,-4.5938 1.5938,-4.6874 0.9062,-3.5 -0.2188,-4.125 -0.5937,-3 -1.5937,-2.5 -1.5938,-2.375 -0.625,-3.125 0.9062,-2 2,-1.0938 4.3126,-0.4062 3.9062,-0.375 4.5,-0.2188 3.0938,-0.5938 2,-1.0937 0.7812,-1.2187 0.5,-4.375 0.5,-3.2188 -0.1875,-2.9062 -0.8125,-1.6876 -2,-1.5 -0.875,-1.1874 -0.7188,-1.8126 1,-1.6874 2.0938,-1.3126 2,-2.0937 2.4062,-1.9063 2.5,-2.1874 1.9063,-2.625 0.9063,-2.5 2,-2.375 2.5937,-2.5 2.5937,-2 2.2188,-2.125 2.5,-3.0938 1.875,-2.5938 2.5,-2.9062 0.625,-2.5 0.094,-4.2812 -0.7188,-2.2188 -0.5,-1.5938 -0.2812,-1.3124 -0.8126,-3.875 -0.1874,-4.625 1.2812,-2.7813 3.125,-2.4063 4.5938,-2.1874 3.4062,-3.2188 2.6875,-2.2812 1.1875,-2.9063 -0.6875,-3 -2.0937,-3.4063 -0.9063,-9.9062 0.3125,-4.7812 0.094,-0.8126 0.2812,-3.8124 2.4062,-6.7813 2.5,-4.5937 2.0938,-3 3,-4.625 1.4062,-3.0938 0.9063,-3.0938 -0.094,-2.5 -0.5938,-2.5 -1.125,-3.5 -0.6875,-4.5937 -0.094,-3.5 0.2812,-6.0937 -0.1875,-5.5 -0.3125,-6.125 1.7188,-9.6876 0.5937,-4.8124 0.1875,-1.7813 -0.5938,-2.5 -0.1874,-5 -0.2188,-5.0937 0.4062,-5.125 2.3126,-3.2813 3,-3.5937 1.5,-2.5 0.094,-2.5 -1,-4.4063 -0.1875,-0.9063 -5,-14.9062 -4.625,-17.2812 -1.5,-7 1.625,-3.625 3.5,-2.5 5.5,-4.375 3.875,-3.7188 4.4062,-6 6.9063,-8.5938 3.3125,-5.1874 2,-3.125 1.875,-2.0938 2.8125,-2.7812 3.0937,-3.4063 2.5,-3.7187 1.9063,-3.5938 1.6875,-2.4062 2.2188,-1.7813 4,-2.0937 4.5,-1.125 8.1874,-3.5938 9.7188,-3 7.375,-2.5 3.5,-1.6875 3,-1.5937 2.4062,-1.8126 0.5,-2 0,-1.4062 -1.5,-1.0938 -2.0937,-0.1874 -3.0937,-0.4063 -2.0938,-0.5 -2.9062,-0.5 -1.5,-2 -1.4063,-2.8125 0.9063,-3.7812 1.5,-3 2.9062,-3 4.7812,-2.5 7.0938,-1.625 20.9062,0 8.2188,-1.5 3.6875,-1.0938 0.9063,-2.0938 0.9062,-3 0.094,-3.4062 0.5,-1.7812 0.5937,-2.2188 1,-2.2812 2,-2.8126 2.5937,-3.5 0.5,-2.5 0,-1.5 -1,-1.0937 -3.5937,-0.5 -2,0.5 -1.4063,-0.094 -1.5937,-1 -0.094,-2 1.5,-2.9063 2.5937,-2 4.9063,0 3.0937,0.4063 2.1875,0.094 3.125,-1 2.5,-1.5937 2.5938,-2 0.4062,-1.3126 0.7812,-2.4062 2.8126,-3.9062 1.5,-0.5938 2.0937,-0.094 1.5,1 1.0937,-0.3124 0.9063,-1.2813 0.094,-1.2187 -2.2812,-2.2813 -3.3125,-2.2187 -4.5937,-2.5938 -5.5938,-4 -8.7188,-6.0938 -6.5937,-6.3124 -6.0937,-7.7813 -4.5938,-4.0937 -4.7188,-3.2188 -4,-2.2812 -4.9062,-1.9063 -5.7812,-2.2187 -8.2188,-4 -11.375,-5.0938 -11.9062,-4.5938 -8.3126,-3.6874 -5.1874,-3.8126 -3,-3.5937 -1,-6 -0.5,-5.0937 1.5,-6 3.5,-5.2188 3.9062,-4.6875 1.7812,-1.7187 2.7188,-2.5 2.875,-2.0938 3,-3.1875 1.125,-3.4063 0,-3.5 0.5938,-3.6874 1.5,-2.4063 2.5,-2.5 2.4062,-0.4063 3.5,-1.1874 1.7812,-0.4063 0.2188,-1.7187 -1.2188,-2.375 -3,-1.5 -3.5937,-0.3126 -3.5937,0.5938 -2.0938,-0.2812 -1,-1.625 -0.125,-3.5 0.9062,-2.5938 2,-2.0938 3.8126,-0.3124 4.2812,-0.5 3.625,-0.094 1.5,-1.0938 -0.125,-1.5 -1.5938,-1.8124 -3.5937,-2.0938 -2.5,-3.5 -2.0937,-5.0938 0.5,-4 1.5937,-4 1.3125,-2.5 2.875,-2.6874 4,-2.9063 2.5,-3.5937 1.8125,-3.4063 0.3125,-4.0937 -1.625,-4.125 -2.0938,-3.2813 -2.6874,-3.4063 -3.3126,-2.4062 -4,-1.4062 -4.6874,-2.5938 -3.5938,-3.0938 -4.125,-3.5 -2.5,-4.5 -1.5938,-4.5937 -1,-6.5937 0,-9.625 0.2188,-4.7813 -0.2188,-6.8125 -0.5,-6.5 -0.5,-5.0938 -0.5,-5 -1,-7.9062 -1.0937,-3.6875 -0.5937,-2.3125 -2.4063,-4.7813 -3.0937,-5.125 -2.5,-3 -2.5938,-2.5937 -2.4062,-3.1875 -1.0938,-3 -3.125,-2.9063 -2.6875,-1.4062 -1.0937,-1.5 -0.3126,-2.0938 -0.5,-2 -2.5,-2.9062 -2.5937,-0.9063 -2.5937,-2.375 -3.5,-4.9062 -5.0938,-5.4063 -4.8125,-4.9062 -3.9063,-3.9063 -4.0937,-4 -3.1875,-5.2812 -2.7188,-4 -3.2812,-2.3125 -4.125,-3.0938 -5.2812,-7.3125 -3.4063,-5.7812 -1.6875,-7.0938 -0.625,-4.125 -3101.9375,0 z"
     id="rect10"
     inkscape:connector-curvature="0" />
  <path
	 style="fill:#9FAEC0"
	 stroke="#9FAEC0"
	 stroke-width="10"
	 transform="translate(0, 25)"
     d="m 2,3552.0626 1.8125,63.8124 1.0938,48.5 2.5937,117.5938 4.1875,164.3125 0.3125,9.5937 6,156.4063 5.3125,161 1.1875,39 3.9063,126.5937 0,1.2188 3216.6562,0 51.0312,-1.0312 -0.2812,-8.0938 -1.2188,-6 -2.7812,-7.6875 -2.8125,-6.8125 -0.8125,-6.0938 0,-6.4062 -0.5,-4.5 -0.5,-4.5938 -1,-4 -1.875,-4.1874 -1.7188,-2.4063 -3,-4.0937 -2.2812,-4.4063 -4.3125,-6.9063 -2.3125,-4.5937 -0.375,-0.9063 -0.2188,-2 -0.6874,-3.5937 0.4062,-4.5 0.375,-4.0937 -1.2812,-4.4063 -2,-5.0937 -2.5938,-4.625 -3,-5.2813 -2.125,-3.5 -2.0938,-1.4063 -2.5937,-1.4062 -3.9063,-3.5 -2.5,-3.4062 -2.5937,-2.1876 -2.1875,-3.1874 -2.9062,-5.4063 -2.0938,-5.0937 -2,-5.625 -2.5,-5 -3.7188,-4.7813 -4,-4.9063 -3,-4 -2.0937,-3.4062 -3.5,-2.1875 -4.5937,-0.5 -5.0938,-0.5 -2.7188,-0.3125 -2.0937,-1.4062 -1.6875,-3.5 -1.125,-3.5 1,-3.375 0.2188,-3.8126 -0.2188,-4.4062 -1,-3.0938 -1.6875,-3 -1.9063,-2 -2.2812,-1.4062 -2.125,-3 -0.6875,-2.5938 -0.094,-5.4062 0.094,-4.2812 1,-4.5 1.5,-3 2.4063,-3.125 2.1874,-3.5 0.7188,-2.1876 -0.125,-4.4062 0.7188,-5.6875 -0.2188,-5 -4.5938,-10.5937 -4.5937,-10.125 -2,-6.5938 -1.5937,-4.7812 -1,-3.8126 -0.9063,-5.1874 -1.1875,-3.5 -0.625,-3.5 0.2188,-4 1.0937,-3.7188 2,-2.9062 3.5,-2 3.4063,-1 4.2812,-2 3.625,-3.0938 2.5,-3 1.875,-6.5 1.2188,-7.0938 0.9062,-3.6874 0.875,-3.5 0.9062,-4.125 1.2188,-7.0938 0.2812,-6.0938 -2.6874,-4.4062 -1.5938,-3.0938 0.7812,-4.5 0.8126,-5.5937 -0.094,-5.0937 -0.9062,-3.5 -2,-4.125 -2.0938,-2.875 -2,-2.625 -0.5,-4.0938 1,-3.5 2.0938,-3.0938 1.7812,-4 1.7188,-4.5937 2.0937,-5.0937 2.5,-5.5 2.0937,-5.5 1.5,-6.125 0.2188,-5.375 -1.2188,-4.625 -0.1874,-4 -0.094,-5.0938 1.2812,-4.1875 0.3126,-6 0.7812,-2.0937 1,-2.5 1.5,-3.125 2,-0.5 2.625,-0.5938 1,-0.9062 0.5,-5.0938 -0.4062,-4.1875 -1.3126,-7.5937 -0.7812,-8 -0.7188,-7.125 -0.7812,-6.5938 0,-8.5 1,-4.5 1.5,-5.5938 1.0938,-3.5 2.0937,-2.9062 1.4063,-1.6875 1.5937,-2.5 1.3125,-4.5 2.375,-5.7187 2.4062,-6 2.5938,-4.5938 2.625,-4.4062 0.7812,-2.6876 0.3126,-0.9062 0.4062,-2.5938 -0.625,-2.5 -0.7812,-2.9062 0.9062,-3.6875 1,-2.5 1.2812,-3.5 1.2188,-2.5937 1.0938,-3.625 0.4062,-4.0938 -1.5,-3.4062 -3.5,-5.5938 -3.3125,-6.9062 -3.4063,-5.6876 -1.5,-4.6874 -1.6874,-5 -0.7188,-3.5 0.9062,-3.125 -0.5937,-3.5 -0.5937,-3.5938 -1.3126,-6.5 0.5,-7.0938 -1,-6 -0.5,-3.5937 -1.2812,-3 -0.8125,-2.0937 0,-3 1,-3.5 -0.094,-2.5 -0.5938,-4 -1.125,-3 -1.0938,-2 -2.6874,-0.7188 -2.5,-0.094 -1.5,-0.5 -2.0938,-1.4062 -1.5,-2 -3.625,-4.0938 -0.7812,-0.8124 -2.0938,-1.375 -2.625,-1.5 -1.5938,-1.9063 -0.5937,-3.0937 0.9063,-2.5 2,-3.125 1.9062,-3.0938 0.375,-2.7812 -1.0938,-1.8126 -2.0937,-1.9062 -1.9063,-0.9062 -3.2812,-2 -4.3125,-5.375 -9.1875,-9.8126 -8.2188,-9.5937 -6.0937,-8.5937 -3.8125,-5.4063 -2.1875,-6 -0.5937,-3.8125 -1.0938,-4.5 0,-4.5938 1.0938,-5 1.2812,-5.4062 1,-3.0938 0.7188,-2.0937 1.5937,-4.5937 0.5,-4.5 -2.0937,-7.125 -1.5,-4.5938 -1,-4 -1.5,-3.7812 -0.5938,-3.125 -1.125,-2.375 0.3125,-3.625 -0.1875,-4.2813 -1.125,-4.3125 -2.1875,-4.4062 -1.6875,-3 -2.625,-2 -3.5938,-2 -1.5,-1.5 -0.5,-1.375 -0.5,-1.2188 0.5,-3.5 1.5,-3.5 2.0938,-4.5938 1.5,-6.5937 1.1562,-6.2187 -3154.3437,0 z"
     id="rect12"
     inkscape:connector-curvature="0" />
  <path
	 style="fill:#9FAEC0"
	 stroke="#9FAEC0"
	 stroke-width="10"
     d="m 28.4063,4440.0938 0,1.5938 4.6874,160.7812 3,129.9062 0.8126,35.8126 1.4062,122.5937 0.5,36.5 0,3.5 0.7812,49.6875 0.7188,43.2188 1.0938,71.375 0.4062,23.5 3.5938,0.3124 2.0937,-1 2.5,-1 1.5,0 2.0937,1 2.5,2.5 2.0938,1.5 2.5,0.5 1.5,-0.5 1.125,-1 -0.125,-1 -1.5,-1.5 -2.5,-1.5 -0.5938,-2.0937 1.5938,-0.5 2.5,0.5 1,-1.5 0,-1.5 -1.5,-1.5 -0.5,-2.0937 2,-0.5 1.5,1 1.625,1 1,-0.5 1.5,-0.5 1.5,0 1.0938,1.5 0.5,2.0937 0,1 -1.5,3.5 0.5,2.5937 2,0 1.5,-0.5937 2.0937,-2 2,-3 0.5,-2.0937 0.5,-3.5 0,-2.625 1,-3.5 3.5,-1.5 4.0937,-0.094 1,1.0938 3.0938,2 2.625,0.5 1,0 3,-2.0938 3.0938,0 2,2.5 4.0937,2.0938 3.5937,1.5 3.5,2 2.5938,2.5 2.625,4.625 2,5 2.0938,4.0937 0,3 -1,2.5937 -2.0938,2.5 -1,2 0,3.0938 2.5938,0 3,-0.5 2.5937,-1.0938 1.5,-1.5 1,-3 0.5,-3.0937 1.5,-3.5 3.0937,-4.5937 2,-1.5 2,-1.625 1,-1.5 -0.5,-3 -0.5,-2.0938 1,-2 2.5938,0.5 2.5,1.5 2.125,2 2,3.0938 1.5,2 0,1 -1,1 -2,0.5 -1.5,1.125 1,1.5 4.5938,1.5 6.0937,1 5.5937,2 4.0938,0 2,-1.625 2,-0.5 1.625,0 4.5938,2.5 3,2.125 4.0937,1 3.0937,1 3.5,2.5 3.0938,2.5 4.625,0.5 3.5,0.5 3.5938,1 2.0937,1.5 3.5,3.0937 2.5937,3 4.0938,3 1.5,0 4.625,-1 3.5,-1.5937 3.0938,-0.5 2.5,-1 1.5937,-1 3,-1.5 3.5937,1 3,2 0,1.5 -1,1 -1.5,1 -1,2.5937 -1,2.5 -0.5,4.0937 0,3.5 -1,3.0938 -1,4 -1.5,1.5938 -1,0.5 -3.5937,0 -1,0.5 -1,2 1,2.625 1.5,2 2.0937,1.5 2,1.5 1.5,2 0.094,2.0937 -1.0938,2.5 -1.5,1 -2,0 -1.5,2.5937 -0.5,3.5 2,3.0938 3.5938,-0.094 3,-1.5 4.625,-2.5 6.0938,-2.0937 5.0937,-0.5 7.5937,-1.0937 8.2188,-2 1.5,-1.5 0.5,-3.125 -1.625,-2.5 -2,-1.5 -1,-2 -1.5938,-2.5938 1.0938,-2 2.5,0 2.5,-0.5 1.125,-2.0938 1,-2.5 3,0.5 2.0938,3 -0.5,2.0938 -1.5938,2.5 -0.5,2.5 1.5938,1.5938 2.5,-0.094 1.5937,-1 1.5,-2 1,-2.5 0,-3.0938 1.5,-4.0937 3.5,-0.5 2.0937,1 1,2.5937 0,3 -0.5,2.5 -1,1.5938 -1,1 -2,2.5 -1.5937,2.0938 -2.5,2.5 -2,1 -2.0937,0.5 -1.5,2.625 -0.5,3.5 0.5,3.0937 1.5937,4 1,3.5937 1,2.5 2.0937,1 2,-0.5 2.0938,-2.5 0.4062,-3.5937 1.0938,-3.5 2.5,-6.5937 1.5,-4.625 1.5,-5.0938 2,-3 2.5,-4.5938 5.625,-8.0937 3.5938,-7.2187 2.5,-5.5 2.5,-7.1876 1,-5.5 0.5,-5.5937 0,-6.0937 -0.094,-3.5 1,-8.7188 2,-13.1875 0,-8.0937 1.5,-5 1.5,-8.2188 -0.5,-4.5 -1.125,-6.0938 -0.5,-5.0937 -1,-5.5937 -0.5938,-4.5 -1,-3.625 0.5,-2.5 0,-1.5 1.5,-2.0938 1.5938,-1.5 -1.0938,-1 -2,-1 -1.5,0 -1.0937,-1 0,-1.5 2.0937,-1 2,-0.094 2.5,0.5 2.0938,-1.5 1.5,-2.5 2.5,-4.0937 0,-4.5 -2,-6.0937 -3.0938,-12.7188 -0.5937,-6.5938 0,-6.0937 0.5,-4.5 1,-4.0937 3.5,-5.625 3.5937,-5.0938 2,-3 2,-2.5 0,-1.0938 0.5,-1.5 2.0938,-1.5 2,-1.5 2,-4.0937 2,-10.5937 0,-6.625 -0.5,-7.0938 -1.0938,-3.5938 -3.5937,-6.0937 -3,-3 -2.5937,-2 -3,-1 -3.5938,-1.5 -2,0 -2.125,-1.5 -2,-1.5 -2.0938,-2.5937 -1.5,-4.5 -1.0937,-5.125 -2.5,-3.5 -2.5937,-1 -3.5,0.5 -3.0938,1.5 -3.5,2.625 -3.125,0.5 -1,-1.5 4,-5.625 1.625,-2.5938 0,-3.5 -1.125,-1.5 0,-3.0938 1.5,-2 3.125,-1 1,1 1.5938,3 1,0 1.5,-1 0.5,-2 0,-1.5937 -0.5,-4 0.5,-3.5937 2,-4 3.5,-3.625 4.0937,-1.5 3.5937,0.5 3,1 0.5,2 -0.5,1 -1.5,2.125 -2.5,2 -2,1.5 -1.5937,1.5 -1.5,3.0937 -1.5,3 -0.5,3.5937 1,3.5 2.5937,3.0938 1.5,3.5 2.5938,6.0938 2.625,4 2.5,1.5 2.5938,0 2,1.5 1,2.125 3.0937,1.5 1,1 0.5,1.5 0,2 1.5937,0.5 2,-1 2.5,-3.5 3.0938,-2.125 5.625,-5.5938 5,-6.5938 3.5938,-5 3,-6.0937 2.5,-6.0937 1,-6.625 -1,-8.5938 -0.5938,-10.6875 -1,-8.5937 0,-7.125 -0.125,-4 2.625,-4.0938 1.5,-1.5 2.5,-1.0938 0.5,-2 -0.5,-2 -1,-2 0.5,-2.0937 4.09375,-4 4.5,-2.0937 4.09375,0.5 5.59375,-6.625 2.5,-2.5 -0.5,-2 -1.5,-2.5938 -0.5,-4 0.40625,-11.6875 2.59375,-1.5 2,0.5 1.5,-0.5 2.09375,0.5 2.5,1 2.125,0 13.6875,9.1875 4.09375,2.4062 3.59375,1 11.21875,3 12.1875,2 8.21875,1.5 6.09375,1 11.1875,3 1.09375,1 2,0 3.625,-0.5 3,-1.0937 3.59375,0 2.5,0.5 1.59375,1.5 0,2.5937 -0.5,2.5 -2.09375,1.5 -3,0.5938 -1.5,2.5 2.5,3 2.09375,1.5 1.5,2.0938 0.5,2 2.09375,1.5 3,1 0,1.5 -1,4.125 0,3.5 3.09375,3.0937 2,0 2.125,-1.0937 1.5,1.5937 0,3.5 -2,2 -1.5,2.5937 0,3.5 1.5,2.0938 2.59375,1.5 2,4 0.5,4.5938 0.59375,4 0,5.625 -1,6.5937 -1.5,7.5937 -1,5.0938 0,3.5 1,3.5938 1.59375,3.5 1.5,4.125 2.59375,3.5 2.5,5.0937 1.625,6 0.5,5.0937 1,4.5938 -0.5,5.5938 -0.5,5.5 -2,6.125 -2,4.0937 -2.5,4.5 -2,6.5937 -2.125,4.0938 -3,4.5938 -2,3 -3.09375,4.625 -2,4.0937 -3,5 -1.59375,3.5937 0.0937,3.5 -1,4.0938 -3.09375,3 -2.5,3.5938 -1.5,2 0,2.625 3,1.5 3.09375,2 3.59375,1.5 3,4.0937 2.125,4 0.5,6.0937 0,4 1,4.0938 1.59375,5.5938 1,5 1.59375,7.625 2,8.6874 1.09375,9.0938 0.5,8.5938 1.59375,7.125 2.5,3 3.625,2 4.09375,2.0937 3.59375,4 5.59375,5.5937 6.59375,6 6.71875,5.0938 5.09375,3.5 4.59375,2.5 5.09375,2.5938 8.125,1.5 2.59375,0.5 2,0.5 1.5,0 1.5,-0.5938 1.09375,-1 1,-0.5 0,-3.5 -2.09375,-2.5938 -1.5,-3.5 -2.59375,-4.5937 0,-3.5 2,-4.5937 2.59375,-2.5 2,-3.125 2.5,-2.5 1.5,-2.5938 0.5,-3 1.09375,-1.5 1.5,-2.0938 1,-0.5 2.5,0 1.59375,1.5 0.5,1.5938 2.5,0.5 1.09375,1 -0.5,3 0.5,2.5938 0.5,2.5 0.5,4.625 1,3 2.125,2 2,1.5 1.59375,1.5 0.5,2.5937 0,2 -0.5,0.5 -1,1.5 -1.09375,0.5937 -4,-1.5937 -2.625,-0.5 -3,0.5937 -3.09375,2.5 -1.5,2.5 -0.5,2.5938 0.5,3.5 0,2.5938 -1,1.5 -2,1 -2,1.5 -0.5,2.625 0.5,3 1,3.0937 0.5,1.5 2.09375,3.5 2,3.5937 3.125,4.5 3.59375,5.0938 3.5,4.5 4.59375,7.0938 5.6875,5.625 6.125,4 6.09375,4.5937 5.09375,4.5 4.59375,3 5.59375,3.0937 4.625,3 5.09375,4.5938 2.09375,2.5 2,4 4.59375,7.0938 2.09375,4.125 2,2 1.5,0.5 1.625,-0.5 -0.625,-2 0,-2.125 1,-2 2.625,-2 2.5,-1.0938 2.59375,-0.5 8.09375,0 2.09375,2.5 -0.5,2.5938 -0.59375,1 0.0937,3 1,2.625 0.5,2.5 1,1.5 2.09375,3.0937 1,1 3,1 2.125,1.5 2,2 1.59375,2.5 0,3.0937 -0.5,2.5 -2.59375,3.0938 -4,3 -2.625,2.0938 -2,0.5 -2.5,0.5 -2.09375,-0.5 -1.5,-1 -1,-2.5938 0.5,-3 1,-3.5 1,-3.0938 0,-5.0937 -0.59375,-3 -1,-4.5937 -2,-3.5 -1.09375,-1 -2,-0.5 -2,1 -1,1.5 0,5.5937 -2.09375,1.5 -1.5,1 -1,0.5 -1.5,2.0937 -1,3 -2,2.5938 -2.125,2.5 -3,4.0938 -1.5,2.5 -1.59375,2.625 -1.5,2 -2,2 -4.09375,2.0937 -4,2 -7.1875,2.0937 -9.625,1.5 -8.1875,-0.5 -3,-0.5 -7.1875,-0.5 -6.125,-0.5 -3,0.5938 -2,1.5 -1.59375,1.5 -2.5,1.5 -3.09375,0.5938 -4,0.5 -4.59375,1 -3.59375,1.5 -2.5,2.125 -1.5,1.5 -2.125,1 -4,0.5 -4.09375,0.5937 -2.5,0.5 -3.59375,0.5 -15.8125,0.5 -13.6875,-0.9063 -7.1875,-2.5 -3.5,-2.0937 -2.625,-1.5 -2.5,0 -1.59375,-1 -0.5,-2.5 -1,-2.5 -1,-2.0937 -2.59375,-2.5 -3.59375,-2.5 -3.5,-2.625 -4.59375,-1.5 -3.625,0.125 -4.59375,0.5 -3,1 -3.09375,1 -2.5,2.0937 -1,2 0.5,1.5 1,1.5 0.5,1 -2,1.0937 -2,-0.5 -3.09375,0 -2.5,1 -1.5,1.5 -0.5,1.5 1.5,2.0938 2,1 3.09375,1 2,1.5 0,1.5 -1.5,1.5 -3.5,2.0938 -2.09375,1 -1.5,-0.5 -1,-0.5 0,-2 -0.5,-1.5938 -2.09375,-1 -2,1.5938 -1.5,0.5 -4.125,1.5 -10.6875,0 -5.59375,0.125 -6.09375,1.5 -5.625,0.5 -7.59375,0.5937 -4.09375,0 -3.59375,0.5 -3.5,1.5 -2.09375,1 -1,3.0937 -2.5,3 -1.5,2.0938 -1,1 0,2 0.5,2.5938 2,1.5 3.09375,0 4.09375,-1.0938 6.59375,-1.5 9.09375,-2.0938 10.71875,-3 8.59375,-1.5937 8.6875,-1 5.625,-1.0937 7.09375,0 12.1875,-0.5 12.8125,-0.625 11.1875,0.5 12.21875,0.5 9.59375,0.4062 10.6875,0.5 13.3125,1 12.1875,0.5 2,0 6.59375,-0.5938 5.625,-0.5 8.1875,1 9.6875,1.5 8.125,0 8.09375,-1.0937 8.1875,-1 2,-0.5 6.09375,-0.5 13.8125,-0.5937 7.09375,-0.5 9.09375,-2.125 9.21875,-1.5 11.1875,-2.5938 16.8125,-3.5938 21.28125,-3.0937 5.125,0 8.1875,-1.5 8.09375,-1.5937 9.21875,-1 8.59375,-2.125 7.09375,0.5 6.6875,0.5 5.625,-1.5 5.59375,-2.0938 8.59375,-1.5 9.6875,-2.5938 10.625,-4.0937 8.1875,-2.5 12.6875,-3.5937 15.21875,-4.625 11.6875,-3.0938 1.59375,-2 0.5,-2.5 -1.09375,-1.5938 -2,0 -2.5,1.0938 -2.59375,1.5 -3,0.5 -2.59375,0 -1,-1 1,-3.5938 2,-2 2.59375,-1.5 2.5,0.5 2.09375,0 2,-0.5 1.5,-1.5937 -2,-2 -2.59375,-1.5 0,-2.5 1.59375,-2.0937 3,-1.5 4.09375,-0.5 5.625,-0.5 3,1 2.09375,1.5 2.5,1 3.09375,-2.625 2.5,-2 4.59375,-3 3.5,-1.0938 4.09375,-0.5 4.125,-1 3.5,-2.5938 0.5,-2.5 0,-3 -3,-2 -4.625,-1.0937 -3.09375,0.5937 -2.5,1.5 -2.59375,2.5 -4.5,2.0938 -1.59375,1.5 -5,3.0938 -3.59375,1.5 -3,1.5 -2.625,0 -2,-1 -2.09375,-2.5 -2,-1.5 -2,-1 -2.59375,0 -2.5,1 -3.59375,2 -2,2.625 -2.59375,2 -5.625,2 -4,0.5937 -5.59375,-1 -7.1875,-2.5937 -5.09375,-2 -4.5,0 -2.125,1.0937 -3,0 -1.59375,-1.5937 0,-4 2.09375,-3.125 3.5,-2.5 3.625,-1 2,-1 3.09375,-3.0938 2,-3.5938 1.5,-2.5 1,-3 -1,-1.5937 -1.5,-1 -3.59375,-2 -2.125,-2 -1.5,-2.5 -1,-3.5937 0,-2.5 1.5,-1 0.5,-1.625 -0.5,-2 -2.59375,-0.5 -3,-1 -3.09375,-0.5 -1.5,-2 0.5,-2.0938 1.5,-1 3.09375,-0.5 2,0 2.59375,-0.5 1.5,-1.5 0.5,-2.5938 -1.59375,-2.5 -3,-1 -4.09375,0 -3,-1.5 -0.59375,-4.0937 2.09375,-2.5 2.5,0.5 2.09375,0.5 1,0.5 1,-1 0.5,-3.0937 2,-3 2.59375,-0.5 1.5,2 0.5,3 0.5,3.0937 1.625,2.5 1,2.5 0,7.6875 1,2 1.59375,2 0.5,1 1,1.5 1,2.0938 1,0.5 2.09375,0 2,-3.0938 0,-3.5 0.5,-4.0938 1.5,-3 2,-1.5937 2.59375,0 3,-0.5 1.59375,-0.5 2,2.5 0.5,2.5937 -1.5,2 -2,2.5 -1,2.0938 0,4.5 -2.09375,2.0938 -1.5,2.5 -1,2.5 -1.5,3.125 -1.5,7.5937 0.5,5.0937 3.59375,9.5938 1,2 2.125,1.5 2,0 2,-1.5 0,-4 1,-4.0938 2.59375,-1.5 3,0 2.59375,1.5 2,1.5 1.59375,0.5 1,-1.5 -0.59375,-3.0937 -1,-3 1.5,-4.0937 3.09375,-1 3.5,2 1.59375,3.0937 0,3.5 0.5,4.0937 1.625,2 2,1 2.5,1 2.09375,-0.5 1.5,-1 0.5,-2 -2,-1.5937 -0.59375,-2.5 0.59375,-1 1.5,0 2,-0.5 1,-1 -0.5,-3.5937 -1,-2 1.5,-2.625 3.09375,-1 2.5,0 3.09375,3 2,1.125 1,1 2.59375,0.5 2,-1.125 1,-2 1.5,-3.5 1.625,-7.0938 2,-5.0938 0,-1 -0.5,-2.5937 -2.625,-0.5 -3.59375,1.5937 -3,0.5 -2.09375,-2 0,-3.0937 3.09375,-2 2.5,-1 2.09375,-1.5937 1,-3 -0.59375,-3.125 -1,-3 -0.5,-3.5 2,-3.0938 2.59375,-0.5 2,1 2.625,3 1,3.0938 1,3 0.59375,4.125 0,3.5 -0.5,3.5937 0,2.5 1,1 1,0.5 2,-0.5 2.09375,-1.5 1.5,-2.5937 -0.5,-2.5 -1.09375,-4.5 0.59375,-4.125 -1.59375,-9.5938 0,-4.5938 2,-2 2,-1.0937 2.09375,0.5 1,3.0937 1,3 0,3.0938 0.0937,4 0.5,5.0938 0.5,2.5 0.5,2.625 0,2 0.5,1.5 1.09375,2.5 1,1.0937 1.5,0.5 2,-1.5937 3.125,-3.5 3,-4.125 4.09375,-4.5938 4.09375,-2.5 3.5,-3.0938 2,-1.5 2.09375,-5.0937 1,-2.5 3,-6.0937 2,-4 3.09375,-2.625 2,-2.5 -1,-2.5938 0,-6.5938 0.5,-3 1,-4.0937 2.5,-4.5 4.625,-2.5937 3,-2 2.59375,-4.625 3,-5.0938 2.5,-4 3.09375,-1 4.59375,-1.5938 4.09375,0.5 7.625,0 3,-1.5 2.09375,-2.5937 2.5,-1.5 1.5,0 2.0938,-1 1,-3.0937 1,-3 0.5,-3.625 0.5,-3.5 1,-2.5 2,-2.0938 0,-1 -0.5,-1.5 -1,-1 -2,-0.5 -1.5938,-0.5 -2.5,-1 -3.59375,-3.0938 -2,-1.5 -2.625,-0.5 -4.59375,-1 -2.5,-1.5 -2.09375,-2.5 -2,-2.0937 -2.5,-2.5 -3.09375,-3 -3.59375,-4.0937 -3.125,-5.5 -2.5,-4.625 -1,-4.5938 1,-5 3.5,-4.1875 0.5,-2 1.5,-0.5937 2.125,0.5 2,-1.125 -1.625,-1.5 -1.59375,-1.375 -0.59375,-2.625 0,-2 -0.59375,-2.5 -2.09375,-1.0938 -1.5,-0.7812 -1.125,-1.5 0.40625,-2.5 -2,-2.125 -2.59375,-1 -1.5,-1.5 -0.5,-2 1,-2.5938 -0.5,-2 -1.59375,-1.5 -1,-2 -0.40625,-2.4062 0.90625,-3.1876 0.5,-2 -1,-2.0937 0,-1.5 2,-0.5 2.09375,-1 1,-1 -2.09375,-1.5 -0.5,-1.5937 2.78125,-0.4063 -0.0937,-1.5937 -0.0937,-2 0.5,-2 3.90625,-5.2188 0.90625,-2.5938 1,-3 1.5,-2.5937 2.28125,-1.9063 2,-1.5 1.21875,-0.8124 0.375,-2.1876 0.5,-2.5937 0,-2 1.5,-2 3,-0.5937 2.40625,0 1.5,-1 1.5,-2.625 -0.59375,-2 -1.09375,-2.5 1,-1.0938 1.5,-2 2.5,-1.5938 0.90625,-2.0937 0.5,-2.5 1.09375,-2.9063 2,-3 0.5,-2 0.5,-3.0937 0,-3.5 1,-4.5937 1,-2 0.5,-3.125 -1,-2 -0.5,-1.5 0.1875,-0.875 1.90625,-1.5 2.09375,-1.625 2,-0.5938 1.5,-1.5938 2.4063,-3.5937 0.5,-2 -0.1875,-4.0937 0.375,-3.5 0.9062,-4.125 1.5,-3.0938 0.4063,-3.0938 -1.0938,-3 -0.5937,-4.5 -0.125,-2.9062 -0.094,-3.1875 0.9063,-2 0,-2.0937 -1.0938,-3 0.4063,-2.5 -0.125,-3.625 -0.5938,-2.5 -1.6875,-1.7813 -1.8125,-1.9063 -1.2812,-1.3124 -0.5,-2.875 -1,-2 -1,-3.125 -1.625,-4 -1,-3.0938 -1,-2 -2,-2 -4.09375,-2 -2.59375,-0.5 -3,-2.0938 -2.09375,-2.5 -1.5,-0.5 -2.59375,-2.5 -3,-2 -2.625,-1.5937 -3,0 -4.5,-2.7187 -0.59375,-0.375 -2.59375,-2.4063 -2.09375,-1.9063 -2.59375,-2.4062 -2.40625,-1.7812 -2.09375,-0.5 -3,0.5 -2.625,-1 -2,0 -2.09375,-1 -2,0 -2.5,-0.5 -1.09375,-1.5 -1,-2 -1.3125,-1 -1.59375,0.6874 -2.5,-1 -0.78125,-1 -0.40625,-1.1874 -0.5,-1.625 -2.09375,-1 0,-1.5 0.5,-1.5 0,-1.5 -2,-3.5938 -2.625,-1.5 -1.6875,-0.5 -5,-1.0938 -3.1875,-0.8124 -0.90625,-0.094 -4.71875,-1.5 -0.6875,-0.094 -1.40625,-1 -0.59375,-0.5 -3.09375,-3.0937 -1.59375,-2.3125 -0.40625,-0.6875 -1.8125,-3.2187 -3.09375,-2.2813 -2.40625,-1 -4.28125,-2.2187 -0.71875,-0.375 -5.5,-4 -0.6875,-0.5 -3.40625,-3.5 -0.59375,-0.5 -2,-3.4063 -0.40625,-0.7187 -0.90625,-4 0.0937,-4.2813 0.125,-0.8125 -0.40625,-2.7812 0,-0.8126 -1.8125,-3.9062 -4,-4.5938 -1.78125,-2.5937 -1.5,-3.7187 -0.3125,-0.7813 0,-1.0937 -0.3125,-3 -0.28125,-2.5 -1.5,-2.5 -2,-1 -2.09375,-1.5 -0.71875,-1.9063 -2,-3 -1.40625,-2.2187 -2,-1 -1.875,-1.1876 -2.3125,-2.8124 -2.5,-3.0938 -6.09375,-6.5 -2.8125,-2.9062 -0.90625,-1 -2.875,-3.1876 -2.125,-3.5937 -3.5,-2.5 -5.6875,-2 -4,-2.5 -4.09375,-3.0937 -2.09375,-4.5 -0.90625,-2.7188 -0.3125,-0.6875 -0.90625,-2.5937 -1,-2.625 -2.5,-1.5 -2.59375,-1 -3,-1.5 -1,-1.0938 -1.6875,-1.9062 -0.71875,-0.7813 -1.6875,-2.8125 -2.59375,-1.5 -1.5,-1 -1.59375,-2.1875 -0.40625,-3.9063 -0.59375,-4.5937 -0.625,-3.5 -1.59375,-2.9063 -0.28125,-0.6874 -1.625,-1.4063 -0.59375,-0.5 -3.5,-2.0937 -1.5,-2 0.90625,-2.4063 1.5,-2.8125 0.90625,-1.6875 1.40625,-2.7187 0.875,-4.0938 0.40625,-3.0938 2,-2.5937 2.5,-1.5937 2.5,-2.625 0.90625,-3 -0.59375,-3.5938 -0.0937,-3.5 0.375,-2.7812 1.625,-2.125 3,-2.5 1.5,-2.5 1.59375,-3.5938 1,-3 1,-5.5938 1.78125,-5.5937 2.40625,-5.0937 4.90625,-9.3126 5,-8.4062 3.6875,-6 2.90625,-5.6875 1.3125,-7.0937 0.40625,-5.625 -0.71875,-6.5938 -2.28125,-8 -2.3125,-11.1875 -1.3125,-6 -1.6875,-3.5937 -1.6875,-3.5 13.78125,0.1874 59.59375,0.5 297.7188,1.5938 47.6875,0.094 255,1.7187 39.3125,0.1875 56,0.2188 23,0 67.1875,4.875 12.8125,0 137.5937,0.8124 104.5,0.5 43.5938,-0.094 193.3125,-0.8125 64.2812,-0.1875 80.4063,-0.3125 219.2187,-1.6875 293.5,-5 6.5,-0.094 1.1875,-0.125 2.5937,-0.094 104.8126,-5.0938 193.7812,-3.5 112.875,-2.2812 -3216.6562,0 z m 376.4062,358.2812 -2.625,1.5 -1,3.5938 -0.5,4 0.5,2.5938 0.625,3 0.5,6.625 2.5,1.5 4.59375,-1 3.59375,-5.125 0,-3.5938 -2.09375,-4 -2.59375,-3.5 -2.5,-3.5938 -1,-2 z m -313.625,313.8126 -1.5,0.5 -1.5,2 0,2.0937 2,1.5 3.625,1 3,0.5 2.5938,0.5 2,0.5 2.0937,-0.5 1.5,-1 0,-1.5937 -1.5,-1.5 -1.5937,-1 -2.5,-0.5 -2.0938,-1 -2,-0.5 -2,-1 -2.125,0 z m -37.0938,9.2812 -2,0.5 -1.0937,2 0,2 2.0937,1 2,1 1.5938,0 1.5,-1.5 -1,-1.5 -1.5938,-2 -1.5,-1.5 z m -6.5937,6.5938 -1,0.5 -0.5,1.5 0.5,1.5 1,1 1.5,1.625 1.5937,0.5 1.5,-0.625 1,-2 -0.5,-1 -1.5,-1.5 -2.0937,-1 -1.5,-0.5 z m 90.5937,5.7187 -2,0.5937 -1,1 -2,3 0.5,2.0938 1,0.5 2,-0.094 1.5938,-0.5 1.5,-2 1,-2 -1,-1.5 -0.5,-1.0937 -1.0938,0 z m 35.2188,6.5 -1.5,1 -0.5,2.0937 -0.5,2 0.5,3 0,5.5938 -0.5,4.0938 -0.5,2 -0.5,1.5 -0.5,2.125 0,2 1.5938,2.5 1.5,0 1,2 0,1.5937 -0.5,1.5 0,1 0.5,1.5 0.5,1 -0.5,1 -1,1.0937 -1,2 -0.5,2 0,3.0938 0.5,2.5 1.5937,2.5 3,1 2.5937,-1 1.5,-2.5 1,-3.0938 0.5,-4 0,-4.0937 -1,-3.5 -1.0937,-4.0937 -0.5,-3.5 -1,-3.125 0,-3 -0.094,-3.0938 0.5,-4 0,-3.5938 -1,-3 -1,-3.0937 -1.0938,-2 -2,-1 z m -113.5,5.5 -1,0.5 -1.625,1 -1.5,1.5 -1.5,1.5937 -1,1.5 0,3 1,0.5 1,-0.5 1.625,-1 2,-2 2.5,-2.0937 0.5,-1.5 -0.5,-1.5 -1.5,-1 z m -10.2188,7.0937 -0.5,0.5 -3,0.5 -2.0937,0 -1.5,0.094 0.5937,7.0938 1,-0.5938 2,-1 1.5,-1 1.5,-0.5 1.5938,-2.5938 0.5,-1.5 -0.5,-1 -1.0938,0 z m 116.7188,21.9063 -2,1.5937 0,2.5 0.5,1.5 1,1 1,0.5 1.0938,-0.5 0.5,-1 1,-3 -1.5938,-2.0937 -1.5,-0.5 z m 39.2812,17.5937 -2.0937,1.0938 -1,2 -0.5,2 2.0937,2.0938 5.0938,0.4062 2.5,-3 -0.5,-2.5 -1.5938,-1.5938 -2.5,-0.5 -1.5,0 z m 12.2188,1 -1.5,1 -0.5,2.0938 0.5,2 0.5,2.5 1,0.5 2.0938,0 1.5,-1 0,-2 0.5,-2.5938 -1.5938,-1.5 -1.5,-1 -1,0 z m 724.5,28.9063 -1,0.5 -2.625,1 -2.5,0.5 -4.09375,0.5 -2.59375,0 -4.5,0.5937 -3.09375,1.5 -2.5,1.5 -4.59375,1 -3.625,0.5938 -2.5,0 -3.09375,-1 -2.5,-0.5 -1.5,0 -2.09375,0.5 -1.5,1 -1,2 0,2.0938 -2,1.5 -1.59375,0.5 -3.5,1 -2.09375,0.5 -3,1 -2.625,1.125 -2,0.5 -3,1 -2.09375,1.5 -1,2.5937 1,1.5 3.09375,0 3,-2.0937 6.21875,-2 6,-2 4.09375,-1.125 3.59375,-1 4.09375,0 5.5,-1 5.125,-2.0938 3.09375,-1.5 2.5,-1 2.09375,-0.5 2.5,-0.5 6.59375,-1.0938 2.59375,-0.5 2.5,-1 3.625,-0.5 2.5,-1.5937 1,-1 -0.5,-2 -0.5,-1.5 -1.5,-0.5 z m -652.125,2.2813 -3.0938,0.5 -1,2.125 2.0938,2.5 4,0 1.125,-1 -1.125,-2.625 -2,-1.5 z m 18.4062,20.8124 -2.5937,0.5 -1.5,2 -1.5,2.5938 0,2.5 1,2 1.5937,1.5 1,0.5 1,-1 1.5,-1 0.5,-1 1.5938,0 1.5,1 1,1 1.625,0.5 1,0.5 2.5,1 2.0938,1.5 3,2 4.0937,4.0938 3.0937,1 2,0 1,-1 0,-1.5938 -1.5,-2 -5.0937,-4 -5.0937,-4.0938 -3.5938,-3 -4.625,-3 -3.0938,-2 -2.5,-0.5 z m 562.00005,3.9063 -3.59375,1.5937 -4.09375,-0.5 -4,-0.5 -2.09375,0.5 -2,1.5 -1,2 0,1.5938 1,1.5 6.59375,-1 9.1875,-1.5938 4.09375,-1.0937 -0.6875,-4 -3.40625,0 z m -562.40625,15.7813 -2.0938,1.125 -1.5,1 -1,-0.5 -2.0937,-1 -3,2 0.5,2.5 1.5,1.5937 0,1.5 -1.5,1 -2.5,0 -2.5937,-1 -2,0.5 -2.5,-1 -1.5938,-1.5 -3,0 -5.125,1 -6.5938,0.094 -4.5937,0 -10.6875,-0.5 -10.7188,1.5938 -8.5937,1.5 -9.1875,1.0938 -7.125,1.5 -7.0938,1 -8.1874,1.125 -8.5938,2 -8.2188,1.5937 -8.5937,2 -6.0937,1.0937 -5.5938,1 -6.125,1.5938 -6.0938,1 -7.0937,1 -6.0937,1.5938 -8.7188,1.5 -5.0938,0 -5.0937,0.125 -4.5937,-2 -2.5,-0.5 -1.5,1 0,2.5 2,2.5 3.5937,2.0937 3.5937,0.5 7.5938,-0.094 10.2188,-1.5 16.2812,-4.125 9.625,-1.0938 8.1875,-1 11.0937,-3.5938 10.2188,-2.5937 9.6875,-1.5937 9.5937,-1.5 10.2188,-1.125 13.1875,-1.5 10.1875,-0.094 7.125,0 9.6875,0.5 7.6875,-0.5 6.625,-1.0938 7.5938,0.5 6.5937,2 6.6875,1.5 5.625,2 4,1.5 4.0938,1 9.6874,0 4.0938,1 6.125,-1.5 4.5,-1.5937 4.0938,-2 2.5,-3.5937 -0.5,-3.5 -3.5938,-4.125 -3,-3 -2.625,-0.5 -2,1 -0.5,1.5 -2.0938,0.125 -2.5,-0.5 -2,2 -2.5937,0.5 -2.5,-0.5 -3.5937,-2 -3.0938,-3.625 -2.5,-2 -3.625,-0.5 -4,0 z m 3.125,34 -1.5,1 -0.5,0.5 -0.5,1.625 0.5,2 1,2 1.5938,2.0937 3,4 3.0937,3 2.0937,1.5 1.5,1.0937 2,-0.5937 1,-0.5 0.5,-1.5 -1,-2 -1,-1 -2.0937,-1 -1.5,-1 -1,-1.0937 -0.5,-1 0,-1.5 -1,-1 -2.0937,-1.5 -0.5,-1.5 -0.5,-2.125 -1,-1 -1.5938,-0.5 z"
     id="rect14"
     inkscape:connector-curvature="0" />
</svg>
