<?xml version="1.0" encoding="UTF-8" standalone="no"?>
<svg
   xmlns:dc="http://purl.org/dc/elements/1.1/"
   xmlns:cc="http://creativecommons.org/ns#"
   xmlns:rdf="http://www.w3.org/1999/02/22-rdf-syntax-ns#"
   xmlns:svg="http://www.w3.org/2000/svg"
   xmlns="http://www.w3.org/2000/svg"
   xmlns:sodipodi="http://sodipodi.sourceforge.net/DTD/sodipodi-0.dtd"
   xmlns:inkscape="http://www.inkscape.org/namespaces/inkscape"
   width="3036.0938"
   height="2186.75"
   viewBox="0 0 3036.0938 2186.75"
   id="svg2"
   version="1.1"
   inkscape:version="0.48.1 "
   sodipodi:docname="AJAX.svg">
  <metadata
     id="metadata20">
    <rdf:RDF>
      <cc:Work
         rdf:about="">
        <dc:format>image/svg+xml</dc:format>
        <dc:type
           rdf:resource="http://purl.org/dc/dcmitype/StillImage" />
      </cc:Work>
    </rdf:RDF>
  </metadata>
  <defs
     id="defs18" />
  <sodipodi:namedview
     pagecolor="#ffffff"
     bordercolor="#666666"
     borderopacity="1"
     objecttolerance="10"
     gridtolerance="10"
     guidetolerance="10"
     inkscape:pageopacity="0"
     inkscape:pageshadow="2"
     inkscape:window-width="1280"
     inkscape:window-height="1004"
     id="namedview16"
     showgrid="false"
     fit-margin-top="0"
     fit-margin-left="0"
     fit-margin-right="0"
     fit-margin-bottom="0"
     inkscape:zoom="0.125"
     inkscape:cx="1753.8067"
     inkscape:cy="601.72674"
     inkscape:window-x="-8"
     inkscape:window-y="-8"
     inkscape:window-maximized="1"
     inkscape:current-layer="svg2" />
  <path
	 style="fill:#9FAEC0"
	 stroke="#9FAEC0"
	 stroke-width="10"
	 transform="translate(0, 125)"
     d="M 1513.3437,-1.8006279e-5 1473.4687,43.124982 l -65.6874,2.2813 -14.0938,-11.3438 -16.4062,2.25 -53.9688,29.5312 -39.875,9.0938 -23.4688,-13.625 -53.9687,34.0625 -16.4375,43.124998 -53.9688,49.9687 -61,2.25 -25.8124,-9.0624 -46.9063,0 -42.25,27.25 35.2187,59.0312 42.2188,65.8438 6.5938,30.6562 1163.8749,0 0.3125,-76.0625 -63.3437,-40.875 -70.375,-27.25 -28.1563,11.3437 -30.5,9.0938 -75.0937,-36.3438 -21.0937,13.625 -91.5313,-59.0312 -103.2187,-9.0938 -28.1563,-20.4062 -4.6875,-52.249998 -56.3125,-4.5312 -23.4687,22.7187 -9.375,-15.9063 7.0312,-15.9062 -28.1562,-29.5 -51.625,-34.062500006279 -16.4376,0 z"
     id="rect4"
     inkscape:connector-curvature="0" />
  <path
	 style="fill:#9FAEC0"
	 stroke="#9FAEC0"
	 stroke-width="10"
	 transform="translate(0, 100)"
     d="m 1043.6563,364.43748 5.125,23.8438 -7.0313,22.7187 7.0313,15.9063 49.2812,27.25 -14.0625,11.3437 14.0625,45.4063 32.8438,61.31245 -25.8126,13.625 -72.7187,-24.96875 -39.875,-22.71875 7.0313,-20.4375 21.0937,-29.50005 -21.0937,-15.9062 -37.5626,-4.5312 -56.3124,9.0624 2.375,22.7188 -9.4063,0 -14.0625,-13.625 -30.5,0 -98.5625,6.8125 -7.0313,11.3437 28.1563,52.25005 30.5,24.96875 -9.375,34.0625 -7.0313,54.5 51.5938,52.21875 72.75,2.28125 9.375,4.53125 1281.6875,0 1.4063,-364.46875 -1163.875,0 z m -583.7813,266.8125 -25.8125,34.0625 2.3438,36.34375 35.1874,0 25.8126,20.4375 3.0937,6.8125 50.6875,0 -13.875,-34.0625 -39.9062,-9.09375 -21.0938,-20.4375 -16.4375,-34.0625 z"
     id="rect6"
     inkscape:connector-curvature="0" />
  <path
	 style="fill:#9FAEC0"
	 stroke="#9FAEC0"
	 stroke-width="10"
	 transform="translate(0, 75)"
     d="m 500.5,728.90623 22.7187,49.96875 42.25,4.53125 2.3438,-13.625 -16.625,-40.875 -50.6875,0 z m 423.9375,0 42.25,20.4375 28.1562,6.8125 46.9063,-11.34375 37.5313,-11.375 16.4374,27.25 c 0,0 -4.678,6.8127 -14.0624,13.625 -9.3861,6.8124 -14.0938,47.6875 -14.0938,47.6875 l -11.7188,61.3125 -32.8437,18.1875 -23.4687,0 -14.0938,-9.09375 -23.4688,-9.09375 -46.9062,34.0625 -35.1875,4.5625 -4.7187,-34.0625 -37.5313,-15.90625 -39.875,18.15625 -28.1563,52.25 -37.5312,22.6875 -65.7188,45.43752 -14.0624,70.375 5.3124,12.5 1547.0938,0 1.4375,-364.46877 -1281.6875,0 z m -739.0625,238.4375 0,27.25 30.5,43.12507 16.4063,-11.3438 -16.4063,-22.6875 -16.4375,-36.34377 -14.0625,0 z"
     id="rect8"
     inkscape:connector-curvature="0" />
  <path
	 style="fill:#9FAEC0"
	 stroke="#9FAEC0"
	 stroke-width="10"
	 transform="translate(0, 50)"
     d="m 657.5937,1093.375 11.0938,26.0938 18.7812,-6.8125 11.7188,6.8125 -16.4062,15.9062 -2.3438,29.5313 -30.5,11.3437 0,13.625 30.5,49.9688 9.375,54.5 21.125,18.1562 89.1562,0 11.7188,-20.4375 14.0938,13.625 0,61.3125 9.375,24.9688 -18.7813,2.2812 -21.0937,13.625 9.375,27.25 -4.4063,22.7188 640.2187,0 2.375,-4.5625 25.8126,-36.3125 35.1874,-47.6875 72.75,-38.625 53.9688,4.5625 18.75,36.3125 -39.875,0 -14.0938,-18.1563 -63.3437,31.7813 -2.3437,11.375 0,24.9687 -21.9063,36.3438 240.9687,0 -5.5624,-49.9688 51.625,-20.4375 51.625,-4.5312 36.5624,74.9375 320.1876,0 1.4062,-364.4688 -1547.0938,0 z m -157.8437,71.5313 2.375,38.5937 49.25,49.9688 44.5937,2.25 23.4688,-52.2188 -11.75,-13.625 -53.9688,-13.625 -53.9687,-11.3437 z m 1267,265.6875 -10.9375,27.25 17.2188,0 7.8124,-22.7188 -14.0937,-4.5312 z m 91.5,15.875 -21.5313,11.375 27.9376,0 -6.4063,-11.375 z"
     id="rect10"
     inkscape:connector-curvature="0" />
  <path
	 style="fill:#9FAEC0"
	 stroke="#9FAEC0"
	 stroke-width="10"
	 transform="translate(0, 25)"
     d="m 800.375,1457.8438 -2.625,13.625 -21.125,20.4062 37.5313,4.5625 30.5,-15.9062 58.6562,-2.2813 4.7188,27.25 16.4062,6.8125 18.7812,-18.1562 21.0938,81.75 21.125,2.2812 2.3438,-40.875 14.0937,-13.625 18.75,4.5313 9.4063,34.0625 49.25,-9.0938 23.4687,-18.1562 -4.6875,36.3437 -23.4688,20.4375 -32.8437,63.5625 -28.1563,52.25 -58.6562,20.4375 -18.75,52.2188 -11.75,0 -9.375,-6.8125 -18.7812,4.5312 -49.2813,9.0938 -44.5625,13.625 -18.375,21.5937 175.4375,0 47.0625,-19.3125 77.4375,-15.9062 30.5,-15.9063 112.625,-59.0312 93.8437,-59.0313 39.875,-45.4375 -11.7187,-29.5 -32.8437,-13.625 4.6874,-22.7187 44.5626,-36.3438 61,-20.4375 14.0624,-27.2187 -640.2187,0 z m 707.5,0 -10.9375,18.1562 -14.0938,34.0625 32.875,9.0625 0,18.1875 -53.9687,9.0625 7.0313,29.5313 68.0312,2.2812 49.2812,-29.5312 25.8126,-29.5313 44.5624,-29.5 39.9063,24.9688 18.75,-15.9063 18.7813,11.375 7.0312,27.25 18.7812,4.5313 56.3126,-61.3125 -9.375,-22.6875 -46.9376,38.5937 13.3126,-38.5937 -17.2188,0 -5.4688,13.625 -1.5,-13.625 -240.9687,0 z m 328.8437,0 -4.25,2.25 4.6876,31.7812 35.1874,-20.4062 -7.6874,-13.625 -27.9376,0 z m 46.375,0 3.3126,6.8125 30.5,4.5312 93.875,54.5 9.375,-6.8125 79.7812,0 82.125,34.0625 53.9375,15.875 42.25,-15.875 25.8125,-22.7187 0,22.7187 -18.7812,45.4063 58.6562,36.3437 70.4063,36.3125 37.5312,40.875 49.2813,34.0625 37.5312,-9.0625 7.0313,4.5313 -30.5,18.1562 0,31.8125 23.4687,15.875 9.7813,17.0625 262.25,0 -37.4063,-51.125 -49.2812,-84 -56.3125,-25 -16.4063,-34.0625 -28.1562,-15.875 -9.375,-40.875 -44.5938,-29.5312 -28.1562,20.4375 -16.4375,2.2812 -21.0938,22.6875 -4.6875,43.1563 -9.4062,2.2812 -49.2813,27.25 -7.0312,-36.3437 -100.875,-95.375 -2.3438,-40.875 -37.5625,0 -21.0937,15.9062 -44.5938,-2.2812 -23.4687,-13.625 0.125,-29.5 -320.1876,0 z m -463.5937,179.375 -39.875,27.25 -68.0313,49.9687 -70.4062,40.875 -18.7812,15.875 10.2812,51.125 123.0938,0 61.375,-35.2187 -23.4688,-34.0625 7.0625,-34.0625 -30.5,18.1562 -42.25,-11.3437 23.4687,-15.9063 28.1563,11.375 56.3125,-25 7.0312,-20.4375 -35.1874,-11.3437 11.7187,-27.25 z"
     id="rect12"
     inkscape:connector-curvature="0" />
  <path
	 style="fill:#9FAEC0"
	 stroke="#9FAEC0"
	 stroke-width="10"
     d="m 784.0625,1822.3125 -14.4688,17 -14.0937,4.5625 -23.4375,-18.1875 -39.9062,-2.25 -25.8126,11.3438 -42.2187,9.0937 -30.5,29.5 -63.3437,22.7188 L 438.75,1887 l -44.5625,18.1875 0,27.2188 23.4688,15.9062 14.0624,-13.625 32.8438,-9.0937 37.5625,15.9062 30.5,4.5313 23.4375,-11.3438 30.5,-18.1562 46.9375,0 42.25,-27.25 49.25,18.1562 42.25,-13.625 51.5937,-18.1562 -4.6874,34.0625 14.0937,0 11.7187,-31.7813 46.9376,-2.2812 39.875,13.625 7.0312,-15.9063 21.125,-20.4375 -25.8125,-18.1562 30.375,-12.4688 -175.4375,0 z m 448.625,0 6.1562,30.625 42.2188,11.375 72.75,-40.875 1.9688,-1.125 -123.0938,0 z m 1315.7813,0 13.6875,23.8125 9.375,52.25 30.5,6.8125 51.625,84 21.125,18.1563 0,-15.875 -4.7188,-79.4688 11.75,6.7813 9.375,52.25 14.0938,52.2187 16.4062,-6.8125 11.75,-47.6875 11.7188,0 0,70.4063 21.125,20.4375 -25.8125,27.25 c 0,0 9.3954,15.8959 18.7812,20.4375 9.3846,4.5416 14.0625,-13.625 14.0625,-13.625 l 14.0625,31.7812 c 0,0 23.492,38.6043 30.5313,47.6875 7.039,9.0832 18.75,13.625 18.75,13.625 l 11.75,-11.3437 -18.7813,-25 -7.0312,-22.6875 30.5,18.1562 28.1562,27.25 16.4063,-6.8125 -2.3438,-52.2187 -21.0937,-38.625 11.7187,-11.3438 25.8125,15.9063 39.875,20.4375 21.125,43.125 23.4688,11.375 25.8125,-31.8125 14.0625,-47.6875 -7.0313,-43.125 -14.0937,-61.3125 -75.0625,-29.5313 -72.75,-24.9687 -21.125,-52.2188 -32.8438,-38.625 -2.4687,-3.375 -262.25,0 z m -1804.6875,94.2188 -32.8438,13.625 23.4688,27.25 30.5,-22.7188 -21.125,-18.1562 z m -509.1563,6.8125 -39.875,9.0625 4.6875,22.7187 -28.1562,27.25 -28.1563,-6.8125 -7.0313,-22.7187 -37.5312,-4.5313 -49.2812,13.625 L 0,1993.7188 l 16.4375,9.0937 23.4688,-4.5312 63.3437,-20.4375 53.9687,15.875 39.875,6.8125 63.3438,-15.875 16.4375,-25 -42.25,-36.3125 z m 884.5625,4.5312 -23.4688,18.1563 21.125,25 14.0626,-15.9063 -11.7188,-27.25 z m -349.5938,13.625 -16.4374,31.7813 35.1874,0 11.75,-27.25 -30.5,-4.5313 z"
     id="rect14"
     inkscape:connector-curvature="0" />
</svg>
