<?xml version="1.0" encoding="UTF-8" standalone="no"?>
<svg
   xmlns:dc="http://purl.org/dc/elements/1.1/"
   xmlns:cc="http://creativecommons.org/ns#"
   xmlns:rdf="http://www.w3.org/1999/02/22-rdf-syntax-ns#"
   xmlns:svg="http://www.w3.org/2000/svg"
   xmlns="http://www.w3.org/2000/svg"
   xmlns:sodipodi="http://sodipodi.sourceforge.net/DTD/sodipodi-0.dtd"
   xmlns:inkscape="http://www.inkscape.org/namespaces/inkscape"
   width="817.56335"
   height="1005.0952"
   viewBox="0 0 817.56335 1005.0952"
   id="svg2"
   version="1.1"
   inkscape:version="0.48.1 "
   sodipodi:docname="AJAX.svg">
  <metadata
     id="metadata20">
    <rdf:RDF>
      <cc:Work
         rdf:about="">
        <dc:format>image/svg+xml</dc:format>
        <dc:type
           rdf:resource="http://purl.org/dc/dcmitype/StillImage" />
      </cc:Work>
    </rdf:RDF>
  </metadata>
  <defs
     id="defs18" />
  <sodipodi:namedview
     pagecolor="#ffffff"
     bordercolor="#666666"
     borderopacity="1"
     objecttolerance="10"
     gridtolerance="10"
     guidetolerance="10"
     inkscape:pageopacity="0"
     inkscape:pageshadow="2"
     inkscape:window-width="1280"
     inkscape:window-height="1004"
     id="namedview16"
     showgrid="false"
     showguides="true"
     inkscape:guide-bbox="true"
     fit-margin-top="0"
     fit-margin-left="0"
     fit-margin-right="0"
     fit-margin-bottom="0"
     inkscape:zoom="0.35355339"
     inkscape:cx="313.90019"
     inkscape:cy="487.70618"
     inkscape:window-x="-8"
     inkscape:window-y="-8"
     inkscape:window-maximized="1"
     inkscape:current-layer="svg2" />
  <path
	 style="fill:#9FAEC0"
	 stroke="#9FAEC0"
	 stroke-width="10"
	 transform="translate(0, 125)"
     d="M 488.25085,-4.6605744e-6 C 466.6819,0.19301534 445.10132,0.34374534 423.5321,0.34374534 c -104.7944,0 -209.5823,-0.2235 -314.375,-0.3125 L 108.1258,142.6875 l -0.6562,1.78125 c -0.8154,2.2119 -1.8074,4.4177 -3.3125,6.25 -1.0908,1.3281 -4.7276,4.9656 -5.5,6.3125 -0.5496,0.9583 -0.3189,3.00265 0.1875,3.90625 l -1.625,1.34375 c -0.4765,1.73481 -0.8285,3.53973 -1.125,5.34375 l 720.9375,0 -0.125,-167.6250046605744 -328.65625,0 z M 35.0321,150.53125 c -0.5889,0.043 -5.4758,2.42185 -6.375,2.96875 -1.2869,-0.5974 -4.0693,-0.22875 -5.25,0.34375 L 20.7196,156.75 c -3.6025,1.0142 -8.3017,1.5239 -11.4688,3.5 l -0.7812,2.28125 c 0.8816,1.66651 1.6304,3.4199 2.5,5.09375 l 61.9062,0 c -0.7619,-0.59306 -1.4372,-1.22096 -1.9374,-1.78125 l 0.8124,-2.96875 c -0.1495,-0.3709 -1.5007,-3.84225 -1.5937,-3.96875 l -2.5937,-2.3125 C 63.4604,152.88335 57.3079,148.6577 53.2196,154.75 l -1.2188,-0.0625 -2.2187,-1.65625 c -1.0684,-0.3025 -5.0328,1.07205 -6.3125,1.53125 l -0.6875,-0.375 1.625,-1.53125 -0.3125,-1.4375 -3,-0.21875 -6.0625,-0.46875 z"
     id="rect4"
     inkscape:connector-curvature="0" />
  <path
	 style="fill:#9FAEC0"
	 stroke="#9FAEC0"
	 stroke-width="10"
	 transform="translate(0, 100)"
     d="m 10.9696,167.625 c 0.6516,1.25429 1.3665,2.46286 2.2812,3.5625 l -0.062,1.78125 c -1.2724,0.6739 -1.5799,2.09815 -2.7188,2.90625 0.136,1.1612 -0.1519,2.65595 0.062,3.71875 0.5649,2.7993 2.6165,4.40645 1.8437,7.65625 0.8011,0.9687 2.0891,1.87555 3.2188,2.40625 -0.9205,4.3245 3.3875,8.45575 6.4062,10.84375 -0.7791,0.5732 -2.6643,1.7695 -3.6874,1.8125 -0.7416,0.8274 -1.5098,1.66965 -2.3438,2.40625 0.3411,0.5271 1.4887,2.4239 1.4688,3.0625 -0.5236,1.4104 -1.0926,2.8191 -1.7188,4.1875 l 1.4375,3.5625 c -0.8264,1.1997 0.083,2.68355 0.2187,3.90625 0.3308,2.9678 -0.9473,6.1499 -0.625,9 0.2398,2.1167 1.3452,3.57715 2.5938,5.21875 0.07,0.3101 -1.0985,4.0449 -1.0625,6 1.3762,0.2822 3.2584,4.1016 3.9687,5.25 0.875,1.4146 0.9613,2.78025 0.9063,4.46875 l -0.75,1.375 -2.4687,1.15625 1.1874,0.9375 c 1.2107,2.5303 1.1179,7.17525 0.031,9.71875 l -1.25,1.03125 c -0.093,2.4326 0.7262,7.28905 1.5937,9.40625 0.3148,0.768 1.9661,2.30225 2.3126,3.09375 0.7581,1.732 0.8445,3.93945 1.5312,5.71875 1.2351,3.2002 4.6336,8.00395 5.3125,11.34375 0.7403,3.6426 0.4238,7.64935 1,11.34375 0.6487,4.1587 1.5687,8.32865 2.3437,12.46875 0.9148,4.8843 1.4414,9.8892 -0.3437,14.6875 -1.1612,1.5138 -4.3247,2.12305 -6.0937,1.53125 L 25.6567,334 c -0.1808,0.29414 -0.3444,0.74659 -0.5,1.21875 l 791.96875,0 -0.0937,-167.59375 -720.93755,0 c -0.2375,1.44492 -0.4425,2.88632 -0.625,4.3125 l -1.9688,0.8125 -2.25,-0.4375 c -2.2,1.2502 -6.9479,2.5794 -9.5,2.4375 -1.6527,-0.7949 -4.3117,-3.10355 -4.8437,-4.96875 -1.2603,-0.28094 -2.7613,-1.16782 -4.0313,-2.15625 l -61.9062,0 z"
     id="rect6"
     inkscape:connector-curvature="0" />
  <path
	 style="fill:#9FAEC0"
	 stroke="#9FAEC0"
	 stroke-width="10"
	 transform="translate(0, 75)"
     d="m 25.1571,335.21875 c -0.2076,0.62981 -0.3733,1.30459 -0.2813,1.78125 1.43,0.9649 2.9826,1.9194 4.5626,2.625 l 0.9687,1.8125 -0.4375,1.9375 c -2.707,1.6929 -4.5223,2.6192 -5.1562,5.8125 0.4425,1.4781 0.8427,2.97225 1.2187,4.46875 -0.1575,1.333 -0.4375,2.733 -0.4375,4.0625 0,0.7242 0.013,4.1016 0.094,4.625 0.1442,0.9346 0.6331,1.8794 0.75,2.8125 0.1449,1.1606 -0.3723,2.53175 -0.25,3.65625 0.1009,0.9326 0.7348,2.1104 0.5937,3.0625 -0.3164,2.1358 -1.4692,2.8564 -0.6563,5.3125 0.6376,1.9262 1.2477,1.34915 2.625,2.53125 0.3462,0.2969 3.5444,3.70405 3.8438,4.21875 1.361,2.3408 1.5163,4.9898 2.5,7.25 0.6672,1.5322 1.7637,3.6113 2.6875,5 0.8198,1.2324 5.7757,5.86325 7.1875,5.90625 0.1824,0.4751 1.4998,1.3194 1.9062,1.6875 l 0.2188,1.25 0.6875,0.3125 L 48.251,405 c 1.4933,0.0625 2.3446,3.5831 1.875,4.375 0.4493,0.7544 1.5526,2.80615 1.5626,3.71875 l 0.7812,0.6875 -1.1562,0.59375 -0.375,0.5625 c 1.8478,1.3945 2.1956,4.5019 2.625,6.625 0.9337,0.7544 1.904,2.002 2.3437,3.125 -0.2539,0.9605 -0.5465,1.38325 -1.1563,2.09375 0.6223,2.0449 3.4994,2.91315 5,6.28125 0.9004,2.0205 2.0442,4.6352 2.5,6.75 0.1394,0.6465 0.7588,7.06355 0.7188,7.65625 -0.087,1.2842 -1.0974,2.4907 -1.0312,3.9375 1.3873,2.1357 4.3528,0.37455 6.3437,0.90625 1.7551,1.5742 4.0652,2.86965 5.625,4.28125 0.9507,0.8604 0.6308,2.68455 1.8437,3.84375 0.7124,-0.058 1.4432,-0.0883 2.1563,-0.0312 1.1036,0.5064 6.0789,5.6524 6.5625,6.5625 2.3914,0.6763 5.1087,1.8184 7.1562,3.25 0.8852,1.8658 3.0426,4.63335 3.625,6.03125 0.1931,0.4629 0.7207,7.4902 0.5626,8 -0.061,0.1962 -0.504,0.93655 -0.625,1.15625 -0.7705,0.1401 -2.6829,0.52245 -3.3438,0.96875 -0.4267,0.8071 -2.0754,4.63475 -2.3125,4.90625 -1.1443,1.31 -3.4841,2.5879 -4.8437,4.0625 -1.6576,1.7979 -0.2873,3.58545 -4.125,5.78125 -1.6078,0.9199 -3.8834,1.0044 -5.625,1.5625 -0.082,0.0262 -0.1656,0.0792 -0.25,0.125 l 742.56245,0 -0.125,-167.59375 -791.96875,0 z"
     id="rect8"
     inkscape:connector-curvature="0" />
  <path
	 style="fill:#9FAEC0"
	 stroke="#9FAEC0"
	 stroke-width="10"
	 transform="translate(0, 50)"
     d="m 74.6884,502.8125 c -1.0979,0.59484 -2.4018,2.71248 -3.5938,3.5 l -1.9375,1.28125 c -0.8035,0.3872 -3.0493,0.30565 -3.625,0.90625 -0.4382,0.831 -0.8381,1.7041 -1.2187,2.5625 -3.7313,1.5376 -3.4107,0.77005 -6.8438,1.15625 -5.4857,4.8096 -3.7995,9.83405 -5.4062,16.21875 -1.324,1.4581 -2.6974,1.1182 -3.5938,1.875 0.3329,1.1196 0.3573,2.4697 0.4062,3.625 -1.5317,1.666 -2.9773,3.84715 -4.6562,5.28125 -1.9566,1.6704 -3.1946,0.3369 -4.75,4.375 -0.02,1.1582 2.553,3.7598 3.2188,5 l -0.063,1.03125 -0.7812,0.375 0.1875,0.625 c 1.8061,0.8848 2.0596,2.8667 1.9375,4.6875 l -0.5938,1.03125 -2.875,1.21875 c 1.2554,2.4648 0.2222,5.3213 0.9063,7.75 0.5744,2.0395 2.851,8.3896 2.875,10.125 0.013,0.9634 -0.529,2.07325 -0.5,3.03125 0,0.1079 1.216,4.30565 1.3437,4.78125 l -0.5624,2.0625 c -1.1202,0.691 -2.4482,1.45415 -3.375,2.40625 -0.1383,0.7422 -0.3697,1.5742 -0.7188,2.25 0.6382,0.4121 1.4373,1.4731 1.5312,2.25 -0.2404,0.666 -0.7749,1.4185 -1.3124,1.875 -0.2316,0.4156 0.045,1.45995 0.2187,1.84375 L 40.063,598 l 0.625,2 c -0.7855,1.5976 -2.5701,5.0366 -2.3438,6.8125 0.5786,0.7002 1.1323,1.4673 1.5938,2.25 0.2276,1.0117 -0.1525,2.63525 -0.625,3.53125 -1.8283,1.1391 -4.0288,2.3281 -3.5,4.8125 -0.9493,0.8545 -2.0281,1.6572 -3.125,2.3125 -1.2094,3.1577 -3.4885,5.5737 -4.9376,8.5625 -0.8659,1.7856 -1.1528,4.20655 -2.2187,5.78125 l -1,1.46875 c -2.3161,0.5315 -5.1857,0.87305 -7.5625,0.53125 -3.9282,3.0444 -0.7364,6.74165 -0.1562,10.21875 0.2557,1.5337 -0.073,3.228 0.1562,4.8125 3.0469,2.2885 2.0335,4.83495 2.7812,7.84375 0.068,0.2744 1.6988,3.24025 1.9688,3.71875 -0.3689,1.9683 -1.311,2.4737 -2.25,3.9375 -0.022,1.3233 0.6909,2.3882 0.875,3.625 0.01,0.0621 0.023,0.12484 0.031,0.1875 l 796.9688,0 -0.0937,-167.59375 -742.5625,0 z"
     id="rect10"
     inkscape:connector-curvature="0" />
  <path
	 style="fill:#9FAEC0"
	 stroke="#9FAEC0"
	 stroke-width="10"
	 transform="translate(0, 25)"
     d="m 20.3758,670.40625 c 0.3176,2.51004 -0.4117,5.4367 -0.625,7.90625 -0.051,0.5913 0.099,1.25735 0.031,1.84375 -0.3332,2.8667 -2.2779,4.79485 -3.0625,7.34375 -0.4534,1.4726 -0.6882,3.2305 -1,4.75 L 15.5631,693 c 2.5014,0.6836 2.1692,1.5928 3.2812,3.4375 0.2715,0.4507 0.8267,0.82125 1.0625,1.28125 1.2229,2.3833 -0.4597,3.76315 2.8437,5.59375 0.274,-0.9395 0.7915,-1.9267 1.3126,-2.75 l 0.75,-0.15625 c 0.5839,1.2041 2.6303,3.3076 3.7812,4 1.9892,0.3594 4.5817,-0.5498 6.0938,-1.875 2.4679,0.273 4.9761,1.06105 7.4374,1.46875 1.1377,1.4897 3.0205,4.68065 3.0626,6.65625 1.9656,0.94 3.6077,3.49415 4.4687,5.40625 -0.5036,1.5776 -0.8648,3.0815 -1.9687,4.375 -0.52,2.6865 2.1678,4.29005 2.125,6.59375 l -0.8126,1.1875 c 1.3542,1.7046 0.7902,3.6226 1.0626,5.5625 0.1442,1.0303 0.741,2.00535 0.5624,3.09375 -1.1759,2.5839 -2.9041,2.94475 -5.625,3.21875 -1.3373,1.7778 -2.7194,3.57175 -4.2187,5.21875 -1.7766,5.4551 3.2234,8.53125 -3.1563,13.34375 -2.4688,0.4609 -11.0466,-0.9409 -13.6562,-1.375 -2.5369,-0.4219 -5.3176,-1.423 -7.9062,-1.375 -1.0029,0.5288 -1.9957,2.22855 -2.25,3.28125 -0.6838,1.5459 -2.6217,8.31005 -3.125,9.03125 -0.4688,0.6714 -1.3987,1.1558 -1.9063,1.8125 -0.6098,0.7891 -0.7525,1.9472 -1.5313,2.6875 -1.1521,1.0962 -2.2548,1.70265 -3.0312,3.21875 -0.6018,0.1782 -1.4232,0.19 -2.0312,0.0625 l -0.6563,0.65625 c -0.9942,2.2676 0.9943,4.105 0.6563,6.0625 -0.2912,1.685 -1.7911,3.47075 -1.75,3.84375 l 0.2812,0.46875 0.5312,0.21875 c 0.6119,-0.2802 1.242,-0.855 1.6563,-1.375 0.3971,0.6543 0.3755,1.9473 0.062,2.625 -1.8787,1.2266 -0.9667,2.8584 -2.3438,5.0625 L 1.5626,795.875 1.3438,796.3125 0.375,796.625 0,797.28125 0.063,798.3125 c 1.2734,1.1675 7.3867,2.6621 9.3437,3.4375 5.8823,2.3308 42.1681,16.50458 92.8437,36.25 l 715.2188,0 -0.125,-167.59375 -796.9688,0 z"
     id="rect12"
     inkscape:connector-curvature="0" />
  <path
	 style="fill:#9FAEC0"
	 stroke="#9FAEC0"
	 stroke-width="10"
     d="m 102.2508,838 c 150.4053,58.60441 429.2188,167.0937 429.2188,167.0937 0.2173,0.053 250.99025,-1.2953 286.09375,-0.5312 L 817.46965,838 102.2508,838 z"
     id="rect14"
     inkscape:connector-curvature="0" />
</svg>
