<?xml version="1.0" encoding="UTF-8" standalone="no"?>
<svg
   xmlns:dc="http://purl.org/dc/elements/1.1/"
   xmlns:cc="http://creativecommons.org/ns#"
   xmlns:rdf="http://www.w3.org/1999/02/22-rdf-syntax-ns#"
   xmlns:svg="http://www.w3.org/2000/svg"
   xmlns="http://www.w3.org/2000/svg"
   xmlns:sodipodi="http://sodipodi.sourceforge.net/DTD/sodipodi-0.dtd"
   xmlns:inkscape="http://www.inkscape.org/namespaces/inkscape"
   width="1105.6562"
   height="931.0625"
   viewBox="0 0 1105.6562 931.0625"
   id="svg2"
   version="1.1"
   inkscape:version="0.48.1 "
   sodipodi:docname="AJAX.svg">
  <metadata
     id="metadata20">
    <rdf:RDF>
      <cc:Work
         rdf:about="">
        <dc:format>image/svg+xml</dc:format>
        <dc:type
           rdf:resource="http://purl.org/dc/dcmitype/StillImage" />
      </cc:Work>
    </rdf:RDF>
  </metadata>
  <defs
     id="defs18" />
  <sodipodi:namedview
     pagecolor="#ffffff"
     bordercolor="#666666"
     borderopacity="1"
     objecttolerance="10"
     gridtolerance="10"
     guidetolerance="10"
     inkscape:pageopacity="0"
     inkscape:pageshadow="2"
     inkscape:window-width="1280"
     inkscape:window-height="1004"
     id="namedview16"
     showgrid="false"
     fit-margin-top="0"
     fit-margin-left="0"
     fit-margin-right="0"
     fit-margin-bottom="0"
     inkscape:zoom="0.35355339"
     inkscape:cx="737.91866"
     inkscape:cy="249.0602"
     inkscape:window-x="-8"
     inkscape:window-y="-8"
     inkscape:window-maximized="1"
     inkscape:current-layer="svg2" />
  <path
	 style="fill:#9FAEC0"
	 stroke="#9FAEC0"
	 stroke-width="10"
	 transform="translate(0, 125)"
     d="m 0,0 10.2187,75.875 10.7188,72.96875 0.9062,6.34375 1082.3126,0 -1.125,-2.53125 -6.8125,-5.84375 -2.9063,-1.6875 -3.25,-2.40625 -1.1562,-2.09375 0.125,-4 -2.0625,-2.03125 -1.0313,-1.875 -143.34375,1.3125 3,-4.90625 2.0625,-2.15625 0.75,-1.5625 0.78125,-1.875 1,-2.125 1.53125,-1.15625 -0.1875,-1.5625 0.65625,-2.4375 1.5,-1.65625 2.15625,-2.03125 -0.125,-2.21875 0,-1.5625 1.59375,-1.15625 2.53125,-0.8125 0.46875,-2.5625 1.09375,-1.84375 3.1875,-0.84375 2.75,-0.71875 1.25,-1.90625 2.625,-0.59375 L 972,96.5625 l 2.28125,-0.875 0.84375,-1.9375 -0.28125,-2.5625 0.34375,-1.9375 1.34375,-4 1.53125,-1.625 1.53125,0.4375 1.625,-1.78125 0.59375,-1.6875 2.53125,-1.4375 1.5625,-0.9375 1.59375,-1.5 1.8125,-0.6875 2.71875,-0.1875 2.1875,-1.9375 0.75,-1.6875 2.03125,0.375 1.5,-0.8125 0.375,-1.65625 -1.375,-1.625 1.625,-0.53125 0.28125,-1.5625 L 1000.5,64 l 1.5625,-2.28125 1.6875,-0.5625 1.5,-0.625 2.7812,-0.21875 1.75,-2.375 0.125,-2.5625 1.2813,-2.125 0.5,-2.1875 -0.5625,-1.71875 -2.2813,-2.71875 0.625,-1.96875 -0.2812,-1.5625 0.9062,-1.5625 -0.3437,-1.9375 1.6562,-2.09375 0.4375,-2 0.625,-1.78125 -0.7187,-1.65625 0.2187,-2.5 -1.875,-1.5 -1.0312,-1.6875 -1.6875,-0.71875 -3.3438,0 -1.75,-0.46875 -0.9375,-1.5 -1.74995,-0.375 -1.34375,-1.5625 -1.65625,-0.0312 0.15625,-1.59375 -2.0625,-0.34375 0.125,-1.8125 1.90625,-1.34375 -0.40625,-1.75 0.5,-2.96875 -1.5625,-1.3125 0.125,-1.59375 -1.625,0.34375 -1.78125,-0.0937 0.65625,-1.96875 2.3125,-0.125 -1.65625,-1.375 -2.15625,-1 0.6875,-1.96875 -0.78125,-1.75 1.71875,-0.96875 -6.40625,0.21875 -2.875,-0.21875 -49.09375,-0.0937 -128.09375,0 -92.5,0.3125 -21.25,-0.3125 -156.46875,0 -37.5,0.28125 -21.8125,-0.28125 -36.6875,0 L 406.34375,0.1564 331.8125,1.5e-4 0,1.5e-4 z"
     id="rect4"
     inkscape:connector-curvature="0" />
  <path
	 style="fill:#9FAEC0"
	 stroke="#9FAEC0"
	 stroke-width="10"
	 transform="translate(0, 100)"
     d="m 21.8437,155.1875 10.3438,73.5 5.125,38.03125 4.2812,28.15625 -1.0937,1.6875 0.9063,4.4375 -0.1563,1.53125 -0.2187,7.84375 962.3437,0 -0.625,-2.34375 2.3125,-3.75 2,-1.625 1.7813,-5.84375 -1.75,-1.5 -1.9688,-1.15625 -1.8437,-1.6875 -1.6875,-2.3125 -5.0313,-0.75 -2,2 -0.46875,1.625 0.625,3.15625 1.75,2.90625 -2.09375,0.5625 -4.71875,-0.0312 -2.90625,-2.8125 1.90625,-6.625 0.375,-3.125 8.78125,-5.375 1.28125,-4.5625 1.06255,-2.46875 2.4687,-2.28125 2.0313,-0.4375 3.7187,0.1875 1.75,1.40625 1.3125,1.53125 0.2188,1.5625 -1.5313,7.1875 0.1563,3.8125 1.9375,1.40625 -1.0938,1.9375 3.4063,4.78125 2.2812,-2 -2.8437,-1.90625 2.2812,-2.4375 0.875,-2.1875 2.5938,-3.15625 0.9687,-1.875 0,-2.0625 1,-2.5625 0.2813,-1.71875 0.125,-1.71875 -3,-2.4375 -2.1563,-3.4375 -1.125,-3.1875 -0.4062,-2.9375 0.1875,-1.53125 1.6875,-4.375 0.5312,-2.96875 2.9375,-2 1.9375,0.0312 4.0938,-1.375 2.1562,0.28125 2.3438,1.28125 4.4687,3.5625 0.6875,2.15625 -0.4375,1.78125 2.1563,1.875 3.2187,0.4375 3.1563,1.21875 2.2812,-1.78125 1.1563,-3.625 -0.8125,-2.125 -1.0938,-1.9375 -3.5937,-0.53125 -2.9375,-1.4375 -2.8125,-5.28125 -0.6563,-3.1875 0.8438,-1.625 1.5312,-1.625 3.1563,-1.875 2.9062,-1.1875 1.875,-1.40625 3.7188,0.53125 3.6562,-2.8125 5.3438,-3.25 0.4375,-1.59375 0.1562,-3.53125 -1.5,-2.90625 -1.5,-0.53125 -2.7812,1.125 -1.7188,2.9375 -2.1562,0.96875 -2.125,0.125 -2.5,-0.46875 -1.625,-0.65625 -1.8438,-1.28125 -1.4062,-1.5 -1.1875,-2.53125 -1.6563,-1.9375 -1.25,-2.1875 -0.3437,-3.3125 0.094,-2.3125 -0.4063,-4.25 1.875,-2.875 6.9375,-3.875 2.8125,-1.75 5.0938,3.875 1.5625,1.875 2.4062,-2.28125 4.125,-2.40625 2.2813,0.15625 3.5625,-0.5 2.8125,-2.40625 1.9687,-2.5625 0.5,-1.90625 0.1563,-2.71875 3.375,-3.3125 3.5,-1.59375 1.5625,0.1875 3.3437,1.25 1.9375,-0.0625 2.4063,-0.84375 4.3125,-2.78125 0.7187,-2.75 -1.1562,-1.9375 -5.1563,-2.78125 -4.0625,-1.28125 -4.7812,-2.4375 -0.9375,-2.21875 0.1562,-1.6875 1.5938,-4 5.125,-4.09375 7.3125,0.53125 4.8125,2.03125 2.9062,3.375 6.8125,-2.78125 -0.094,-2.5625 -1.4062,-3.1875 -1082.3126,0 z"
     id="rect6"
     inkscape:connector-curvature="0" />
  <path
	 style="fill:#9FAEC0"
	 stroke="#9FAEC0"
	 stroke-width="10"
	 transform="translate(0, 75)"
     d="m 41.0313,310.375 -0.2813,9.71875 -0.7187,15.375 -1,40.6875 -1.9688,1.25 1.9062,0.5625 -2.5312,87.5625 871.03125,0 0.0312,-0.0937 -1.375,-2.34375 -1.1875,-4 -0.0625,-2.09375 0.78125,-1.75 2.15625,-2.28125 2.53125,-0.6875 1.84375,0.125 2.4375,5.78125 0.59375,2.375 -1,1.75 -3.84375,3.21875 15.53125,0 -0.84375,-2.1875 -3.03125,-5.375 -0.9375,-3.28125 0.5,-2.46875 2.96875,-3.1875 0.5,-2.21875 -1.5625,-3.21875 -4.46875,-7.0625 -0.25,-2.125 0.0937,-1.5625 1.03125,-2.1875 4.03125,-2.28125 2.6875,0.5625 3.375,2.71875 1.21875,3.3125 -0.59375,2.1875 0.5,4.21875 2.21875,2.71875 2,0.21875 6.8125,-3.6875 6.15625,-1.9375 2.625,-1.90625 1.8125,2.09375 2.03125,1.625 2.09375,0.625 2.15625,-1.71875 0.0625,-2.4375 -2.1875,-3.21875 1.53125,-1.53125 6.0625,-3.375 6.5,-4.59375 0.78125,-1.8125 0.40625,-1.84375 0.0625,-4.40625 -0.5,-2.1875 -1.59375,-2.46875 -5.25,-2.59375 -2.15625,-2.0625 -2.0625,-1.03125 -1.34375,-1.53125 -1.15625,-2.59375 -0.53125,-2.4375 0.0625,-2.34375 0.65625,-2.25 3.3125,-6.28125 6.28125,0.59375 1.625,1.34375 7.03125,1.21875 1.90625,1.03125 1.53125,-0.125 3,-3 -0.3125,-2.8125 0.3125,-3.15625 3.21875,-8.34375 1,-5.5 0.71875,-1.59375 1.84375,-1.90625 2.09375,-1.53125 2.90625,-1.09375 7.43755,4.3125 1.9687,0.59375 2.2188,-0.4375 1.5937,-0.90625 4.1875,-5.0625 -1.3125,-3.46875 -4.9062,-1.09375 -2.1563,-1.5 -1.2187,-1.59375 -1.4375,-3.28125 -0.7188,-1.65625 0.2813,-2.8125 1.5625,-0.1875 2.8125,1.15625 1.75,-4.6875 3.1562,0.46875 0.031,-2.0625 -1.9375,-3.59375 -3.3437,-4.84375 -1.5625,-1.15625 -2.5313,-0.375 -5.34375,0.9375 -2.59375,-1 -1.5,-1.75 -1.71875,-3.21875 -0.5,-1.5 1.125,-4.21875 1.625,-1.46875 1.5625,-0.46875 2.34375,1.125 3.375,-1.4375 1.6875,0.28125 1.5625,-0.40625 0.5,-5.25 0.6563,-2.0625 -0.125,-0.53125 -962.3438,0 z"
     id="rect8"
     inkscape:connector-curvature="0" />
  <path
	 style="fill:#9FAEC0"
	 stroke="#9FAEC0"
	 stroke-width="10"
	 transform="translate(0, 50)"
     d="m 36.4375,465.53125 -0.8438,29.21875 -2.9374,125.96875 814.3437,0 -0.1875,-1.40625 -1.75,-1.90625 -2.625,-0.46875 -2.1875,0.25 -3.875,-0.8125 -3.125,1.03125 -1.71875,-0.6875 -2.3125,0.96875 -5.84375,-3.59375 -3.8125,-4.71875 -0.875,-1.5625 -0.40625,-2.4375 0,-1.9375 3.09375,-2.96875 2.375,0.15625 1.8125,1.3125 2.1875,4.4375 3.40625,2.375 2.6875,0.875 2.3125,0.15625 2.625,0.15625 1.0625,-3.21875 -0.0312,-2.84375 0.3125,-2.21875 1.3125,-6.3125 0.71875,-1.78125 1.71875,-1.34375 2.6875,-0.625 1.53125,-0.71875 6.8125,0.6875 1.59375,-0.15625 2.78125,-2.34375 2.53125,-4.34375 0.15625,-2.09375 -1.1875,-3.5625 -1.59375,-1.71875 -3.125,-3.21875 -0.21875,-2.8125 0.875,-2 3.125,-1.21875 1.875,0.1875 3.71875,0.96875 2.84375,-0.0625 8,-1.53125 -1.21875,4.4375 -2.1875,3.8125 -0.5,2.375 0.125,1.90625 1.59375,1.8125 1.75,0.75 1.96875,0 1.75,-0.65625 0.90625,-3.15625 -2.125,-5.6875 0.0312,-1.9375 1.8125,-5.28125 5.25,-2.84375 4.6875,-1.15625 7.375,-5.3125 2.125,-2.59375 1.03125,-2.46875 0.15625,-1.5625 -0.46875,-1.75 -1.1875,-2.375 -2.84375,-3.0625 -0.8125,-4.71875 0.15625,-2.9375 1.21875,-3.46875 0.75,-2.78125 2.40625,-2.75 3.125,-1.65625 2.125,-1.78125 1.09375,-2.75 -1.125,-4.0625 -1.71875,-2.5625 -3.6875,-3.875 -2.5625,-4.46875 L 896.0625,502 l -0.25,-2.875 1.1875,-4.28125 -0.75,-2.40625 -0.46875,-5.15625 3.40625,-4.125 1.28125,-1.875 2.28125,-1.15625 1.625,0.625 2.375,3.21875 -0.0625,3.34375 -2.9375,2.96875 -0.5,2.9375 0.0625,1.75 0.625,1.5 2.40625,2.125 1.96875,0.28125 2.8125,-0.625 2.53125,-1.8125 3.03125,-3.53125 3.28125,-2.6875 3.03125,-3.8125 0.71875,-3.96875 -0.9375,-1.71875 -2.21875,-1.5 -1.84375,-0.0937 -8.1875,1.3125 -3.03125,-0.34375 -2.28125,-1.09375 -4.90625,-6.0625 0.1875,-2.3125 1.625,-1.96875 2.1875,-0.3125 2.25,-0.75 0.90625,-2.0625 -871.03125,0 z m 873.9375,0 -0.375,0.3125 0.0312,3.25 0.9375,1.9375 4.09375,2.0625 2.84375,0.125 4.21875,-0.875 3.5625,-2.625 0.46875,-3.53125 -0.25,-0.65625 -15.53125,0 z"
     id="rect10"
     inkscape:connector-curvature="0" />
  <path
	 style="fill:#9FAEC0"
	 stroke="#9FAEC0"
	 stroke-width="10"
	 transform="translate(0, 25)"
     d="m 32.6563,620.71875 -3.3438,142.0625 2.125,-0.28125 2.7188,0.34375 1.3437,-2.0625 2.5,1.375 -0.3437,1.53125 -3.1876,0.9375 0.5626,1.75 1.6562,0.46875 -0.5,2.03125 -3.2188,2.0625 0.4376,2.25 2.0624,0.0937 1.6563,0.125 2.625,1.1875 2.5313,1.125 0.125,0.1875 52.8124,0 1.25,-1.625 1.6876,0.96875 2.625,0.65625 671.31245,0 2.9375,-2.875 0.15625,-3.0625 -0.78125,-2.28125 -1.40625,-1.96875 -7.53125,-6.0625 -2.40625,-1.0625 -5.75,-1.3125 -1.71875,-0.8125 -2.03125,-2.625 0.0625,-3.125 1.625,-2.625 2.28125,-1.625 2.125,-0.65625 6.25,-0.5625 2.5,-0.96875 6.5,8.40625 6.9375,4.03125 1.53125,0.59375 1.65625,0.28125 1.8125,-0.25 4.28125,-2.1875 3.21875,-0.5625 1.75,-0.71875 1.4375,-2.75 -1.28125,-2 -0.625,-2 -1.75,-2.59375 -2.90625,-2.28125 -1.875,-0.4375 -1.5625,0.5625 -2.84375,1.71875 -1.9375,0.59375 -2.40625,0.28125 -2.15625,-0.15625 -3.25,-2.3125 -2.3125,-2.6875 -0.875,-1.75 -0.0312,-1.59375 0.375,-3.84375 0.90625,-2.34375 -0.96875,-2.03125 1.15625,-2.59375 1.71875,-1.6875 1.9375,0.34375 1.875,1.3125 1.71875,1.75 4.84375,-1.53125 7.03125,-0.625 6.8125,4.1875 2.3125,-0.4375 2.8125,-1.1875 2,-2.0625 0.59375,-2.0625 -0.71875,-2.125 -1.78125,-1.75 -1.78125,-0.9375 -3.875,-0.875 -4.8125,-2.53125 -2.1875,-3.625 -2.40625,-3.0625 -1.15625,-3.84375 0.40625,-3.15625 3.46875,-4.34375 6.4375,-6.65625 3.5625,-5.6875 -2.1875,-2.09375 -3.53125,-1.75 -2.375,-0.96875 -8.3125,-2.34375 -1.15625,-1.875 -0.0937,-1.75 1.4375,-2.6875 1.75,-1 1.96875,-0.34375 5.28125,-0.53125 2,-2.25 3.3125,-2.09375 3.53125,8.59375 2.375,2.375 2,0.46875 1.875,-0.125 1.59375,-0.6875 1.125,-1.90625 0.25,-2.53125 -2.125,-3.21875 -1.96875,-2.15625 -1.78125,-5.0625 3.8125,-0.6875 2.75,0.375 1.8125,0.65625 1.6875,-0.0625 1.71875,-0.34375 2.5,-1.03125 2.59375,0.3125 3.96875,-1.0625 1.5625,-1.96875 -0.4375,-3.46875 0.28125,-2.40625 1.28125,-2.28125 1.6875,-2.15625 0.78125,-3.46875 -2.59375,-3.09375 -2.40625,-0.3125 -1.6875,0.84375 -3.84375,0.4375 -6.71875,-4.875 -1.46875,-2 -0.90625,-3.09375 1.09375,-2.15625 9.84375,-7.21875 1.78125,0.3125 1.71875,0.90625 2.5,2.53125 4.125,2.90625 3.84375,1 2.46875,-0.28125 2.3125,-1.09375 2.1875,-2.09375 1.59375,-2.5625 0.34375,-1.625 -0.15625,-1.34375 -814.3437,0 z"
     id="rect12"
     inkscape:connector-curvature="0" />
  <path
	 style="fill:#9FAEC0"
	 stroke="#9FAEC0"
	 stroke-width="10"
     d="m 42.4063,775.90625 3.3124,5.3125 3.2813,-0.78125 3.9375,-2.40625 0.4375,1.625 -0.5313,1.5 -1.7812,0.90625 -1.5,-0.25 -1.5,1.90625 2.0312,2.1875 1.4063,1.6875 3.625,-0.21875 1.875,0.28125 1.7187,0.15625 1.4063,-2.1875 -1.125,-2.65625 1.875,-1.5 1.875,0.875 0.9687,3.09375 2.1876,1.03125 2.875,-0.96875 0.2812,-1.90625 1.3438,-3.53125 1.375,-1.625 2.5312,-0.71875 0.6562,1.84375 -2.4062,3 0.6875,1.6875 3.625,-1.125 0.8437,-2.09375 1.7188,-3.0625 1.75,-1.40625 3.4688,-0.3125 0.031,1.71875 -1.6562,1.96875 -1.5,2.03125 0.2187,2.4375 2.7813,1.09375 2.5312,-0.0937 1.5312,-0.8125 1.25,-1.875 2.25,-0.90625 1.8126,3.03125 1.2812,-1.78125 -1,-3.125 -2.9688,-0.21875 -1.9374,-0.59375 0.7187,-1.84375 2.0313,1 1.6562,-0.40625 1.5312,-1.96875 -52.8124,0 z m 58.375,0 0.75,0.1875 -0.2188,1.875 2.0938,1.34375 2.125,-0.5 -1.8438,1.6875 1.375,1.71875 2.25,-1.625 0.875,4.78125 1.875,-0.1875 0.4375,-1.78125 -0.031,-1.75 1.7813,0.0312 3.4375,-1.8125 3.3438,-0.53125 2.3124,-0.15625 -0.2187,-2.25 0.5313,2.15625 0.9374,2.125 2.0626,0.1875 0.094,1.875 -2.2187,0 -1.4063,1.6875 2.5625,1.25 2.125,-0.71875 1.875,0.125 0.094,142.125 66.0624,-0.0625 165.7813,0.5 172.9375,2.28125 60.09375,0.4375 100.4375,0.15625 74.125,-0.75 0.96875,-2.6875 2.8125,-1.75 2.71875,-0.65625 1.875,-1.28125 0.84375,-1.5 0.34375,-1.71875 0.75,-2.375 -0.9375,-2.5625 -5.625,-4.65625 -2.40625,-1.0625 -2.40625,-0.59375 -2.0625,-2.8125 -4.59375,-3 -0.0625,-4.15625 1.90625,-3.09375 2.125,-1.3125 3.15625,-0.25 1.53125,0.15625 2.71875,3.03125 5.25,0.4375 4.96875,-0.6875 3.5,-2.8125 0.78125,-4.59375 0.15625,-5.71875 -1.625,-10.65625 2.78125,-1.53125 1.8125,-0.9375 1.625,-2.03125 2.96875,-3.625 1.15625,-3.78125 0.28125,-2.71875 -0.9375,-1.90625 -1.625,-0.9375 -2.59375,-0.25 -2.53125,1.0625 -1.625,2.25 -1.03125,4.8125 -0.96875,1.65625 -1.1875,3.3125 -2.3125,-2.09375 L 778.0008,863 l -2.1875,-1.71875 0.5625,-3.125 -1.625,-2.375 -1.90625,-2.59375 0,-4.3125 -0.5,-3.5625 0.59375,-2.15625 0.1875,-4 4.40625,-3.28125 4.125,-6.15625 1.90625,-1.9375 4,-3.15625 1.5625,-2.15625 1.3125,-1.90625 0.90625,-2 -0.34375,-5.75 -1.75,-1.28125 -2.25,-0.15625 -1.9375,1.09375 -2.28125,3.71875 -0.15625,1.5625 0.46875,1.53125 0.0937,1.96875 -0.4375,2.03125 -3.6875,4.71875 -1.59375,1.25 -4.90625,2.34375 -1.875,0.3125 -4.625,-0.625 -4.28125,-2.3125 -3.75,-3.28125 -0.15625,-1.8125 1.9375,-2.5 1.78125,0.0937 1.6875,-0.46875 1.8125,0.6875 5.0625,-2.3125 1.9375,-0.5625 2.875,-0.625 0.71875,-1.65625 1.6875,-1.9375 0.6875,-2.71875 -1.59375,-5.09375 -2.5625,-2.25 -6.21875,-4.40625 -1.75,0.375 -1.09375,3.84375 0.40625,2.71875 0.84375,2.53125 0.53125,2.59375 -1.75,2.375 -2.15625,1.34375 -4.40625,1.28125 -2.34375,-0.21875 -3.5625,-2.5 0.375,-3.5 1.84375,-1.5 1.75,-0.53125 1.5625,-1.03125 2.84375,-5.28125 2.90625,-3.375 -1.0625,-2.53125 -5.125,-4 -2.46875,-2.5 -2.09375,-3.875 -0.0937,-2.96875 1.625,-1.78125 5.75,-1.28125 4.4375,-2.8125 3.90625,0.34375 1.90625,-0.34375 1.625,-1.59375 -671.31245,0 z"
     id="rect14"
     inkscape:connector-curvature="0" />
</svg>
