<?xml version="1.0" encoding="UTF-8" standalone="no"?>
<svg
   xmlns:dc="http://purl.org/dc/elements/1.1/"
   xmlns:cc="http://creativecommons.org/ns#"
   xmlns:rdf="http://www.w3.org/1999/02/22-rdf-syntax-ns#"
   xmlns:svg="http://www.w3.org/2000/svg"
   xmlns="http://www.w3.org/2000/svg"
   xmlns:sodipodi="http://sodipodi.sourceforge.net/DTD/sodipodi-0.dtd"
   xmlns:inkscape="http://www.inkscape.org/namespaces/inkscape"
   width="9164.375"
   height="10536"
   viewBox="0 0 9164.375 10536"
   id="svg2"
   version="1.1"
   inkscape:version="0.48.1 "
   sodipodi:docname="Aa.svg">
  <metadata
     id="metadata20">
    <rdf:RDF>
      <cc:Work
         rdf:about="">
        <dc:format>image/svg+xml</dc:format>
        <dc:type
           rdf:resource="http://purl.org/dc/dcmitype/StillImage" />
      </cc:Work>
    </rdf:RDF>
  </metadata>
  <defs
     id="defs18" />
  <sodipodi:namedview
     pagecolor="#ffffff"
     bordercolor="#666666"
     borderopacity="1"
     objecttolerance="10"
     gridtolerance="10"
     guidetolerance="10"
     inkscape:pageopacity="0"
     inkscape:pageshadow="2"
     inkscape:window-width="1280"
     inkscape:window-height="1004"
     id="namedview16"
     showgrid="false"
     fit-margin-top="0"
     fit-margin-left="0"
     fit-margin-right="0"
     fit-margin-bottom="0"
     inkscape:zoom="0.03125"
     inkscape:cx="12733.967"
     inkscape:cy="9385.5431"
     inkscape:window-x="-8"
     inkscape:window-y="-8"
     inkscape:window-maximized="1"
     inkscape:current-layer="svg2" />
  <path
	 style="fill:#9FAEC0"
	 stroke="#9FAEC0"
	 stroke-width="10"
	 transform="translate(0, 125)"
     d="m 246.5937,0 -0.094,4.5937 0.5937,3.5 0.5,3 1,2 0.5,1.5 0.094,4.0938 0.5,5.5 0,6.625 -0.375,5 -1,3.5938 -1.625,5 -1,2.5937 -0.5,4 -0.5,3.5 0,1.5 1.125,3.0937 2.5,-0.5937 3.0938,0.5 2.0938,2 1.5,3.0937 1.0937,3 0,1 0.5,1 -1,1.5 -1,0 -0.5937,1.5 0.5937,1.5938 1,1.5 1,4 0.094,2.5 -1.0937,1 -0.5,-1.5 -1,-2 -1,-0.5 -1.5937,0 -0.5,1 -1.5,-1.5 0.5,-3.5 0.5,-4.0938 1,-5 -0.5938,-2.5 -0.5,-1 -1,1.5 -0.5,2 0,4 -0.5,3.0938 -0.5,3.5 -0.5,3 0.094,3.625 -0.5,4.5 -0.5,5.5938 -0.5,4 -0.5,7.0937 -0.5,4.5 0,3.0937 -2.5,9.5 -2,11.2188 -2,9.0938 -2,4.5 -1.5,7.5937 -1.5,7.0937 -2,9 -4,13.2188 -5.0938,13.5938 -2,6.5937 -1.5,4.0937 -3,7 -4.0938,8.0938 -2.5,4.625 -2.125,3 -1.5,2 -1,1.5938 -1.5,1.5 -2.0937,1 -1.5,1.5 -1.5937,1 -1,1.5937 0,1.5 0.5937,2 1,1 1,2.5 2.0937,2.5 1.5,1.5 0.625,1.5 1,0.5 1.5,0 1.5938,-0.5 1.5,0.5 1.5,1 2.0938,2.5 2.5937,2.5 3.5937,3.5 4.625,4.5937 1.0938,2 0.5,1.5 1.5,0.5 2.0938,2 0.5,1.5 1,2 1.0937,1 3,2 3.5937,2 2.625,1 2.0938,0.5 1,-0.5 2,-1.5 1,-1.5 1.5938,-0.5937 1.5,0.5 2.5937,1 2,1 1.5937,1.5 1,1.5 1.625,0.5 0.5,0.5 1,0 1.5,0.5 2.5938,1.5 4.5938,3 3.5937,5.5937 4.2187,6 1,1.5 3.5938,6.5938 2.0938,6 1.0937,5.5 2.0937,10.125 0.5,7.5938 -1,1.5 0.5,3 0.625,5.0937 -1,1 2,3.5 0,3.5 0.5938,3.0937 0,3 -0.5,1.5 -1,2.5 1.5,4 1.5938,5.5938 1.5937,4 1,5.125 1.5937,2 2.5,4 2.625,6 1.5938,3.5 1,2.0938 0.5938,3 2,7.5 1.0937,3.0937 0.5,5 -0.5,2 0.5,2 0.094,1 -0.5,2.0937 0,2.5 2.5,0 1.625,2 1,3 1,1.5 1.0938,2.5 0.5,1 1.5,1.5 1.0938,2.0938 0.5,2.5 -0.5,2.5 -0.5,1.5 -1.5,3 0,1.625 2.0937,2.5 2,5 0.094,2.5 0,1.5 -1.0937,1.5938 -2,1 0,1.5 1,1.5 0.094,1.5 -0.5937,1.5 -0.5,1.5 0,1.5937 0.094,4 1.5,3.5 1.125,3.5 1,2.5937 0.5,4.5 2.5938,2.5 4.1875,4 3,3 2.5937,0.5 2.625,1 1,0.5 2.0938,0.5 1.5,1 2.5938,-0.5 1.5,1 2.0937,0.5 2.5,2.5 2.0937,1 2.625,1.5 2.5,1.5 1.0938,1.5 2,2 0,1.5 0.5,1 -1,1.5 -2,0.5 -1.5938,-2 -1.5,-1 -1.5,-0.5 -3.7187,-3.5 -5.5937,-2.5 -2.5938,-1.5 -1,-1 -1.5,0.5 -1.0938,1.0938 -0.5,2 -1.5,3 -1,-0.5 0,-1 0.5,-1.5 0,-4.5938 -1.125,-1.5 -2,-1 0,9.0938 -0.5,5.625 0.125,2 -1.625,2 1.125,2.5 -1.125,0.5 -1,1.0938 1.125,1.5 1,3 -0.5,1 -0.5,3.5 0,3.0937 1.0938,3 0.5,3.5 1.5,3 1.0938,3 0.5,3.5937 -0.5,5 1.5937,3.5 1.5937,4.5938 0.5,5 1.125,5.625 1.5,5.5 0.5,2 0.094,4 0,2.0938 0,3 -0.5,5.5 -0.5,4.0937 0.094,6.5 1,6.5937 -0.5,7 -0.9063,11.5938 -1,9.625 -1.5,7.0938 -0.5,4.5 -0.5,2.5937 -0.5,3.5 0.094,5 -1,6.0937 -1,3.5 -1,4.0938 -0.5,3 -1,4 0,1 -0.5,5.125 -0.5,6.5 -2.5,6.5938 -1,5.5937 -1,7.5 -2.5,9.5937 -0.5,1 -2,8.0938 -1,5.125 -1,3 -1,1 -1.5937,1.5 2.0937,2 -0.5,3.0938 -2,5 -1,7.0937 -1,3 -1,3.5937 -1,2 -0.5,2 -0.5,2.5 0,6.0938 -1,4.5 -1.5,5.625 -1.5,5 -1,2.5 -1.5,2.5938 -0.5,3.5 -1,2.5 0,6.5937 -1.5,5 -2,7.0937 -2.5,7.0938 -1.5937,3.5 -1,0.5 -0.5,2 0.5,3.125 0.094,2 0,3 -1.5,5.5938 -3.0937,8 -2.5,8.5937 -2.5,6.5937 -1,2.5 -0.5,2 -5.0937,12.7188 -3,10.0938 -3.5,8.0937 -1.5,5.5 -2.5,8.0937 -2.0938,6.0938 -2,5 -2,4.125 -2.5938,3 -1.5,1 -2,0.5 -2.125,-0.5 -2,-1 -1.5937,-0.5 -1.5,0 -1.5937,0.094 -1,1 -1.5,1 -0.5,2 0.5,1.5 0.5,2 -0.5,2 -1,1.5937 -1,1 -0.5,1.5 0.5,2 2.5937,3.5 1.5937,2 0,1.5 -1.5937,2.5937 1.0937,2.5 -0.5,1 0,3.5 -0.5,1.5 -1,2.0938 0,1 0.5,2 0,2 -1.5,1 -0.5,1.5 -1,0.5 0,1.125 2,2 1.125,2.5 0,2.5 1.5,3 0.5938,1 1.5,2 0.5,1.5 0,1 -1,0.5938 -1,0.5 -1.5938,0 -0.5,1.5 1.5938,1 0.5,1 0,4.5 -0.5,2.5937 -1.5,2.5 -0.5,2 0,2.5 0.5,1.5 0.5938,1 0.5,0.5 2,0 1.5937,0.5 1,1 1,2.5 0.5937,2.5937 -0.5,2 -2.0937,3.5 -0.5,1.5 -1,1 0.5,2.0938 1.0937,1.5 0.5,0.5 1.5,-0.5 1,-1.5938 0,-2.5 1.625,-1 1.5,-1.5 2.5,-0.5 1.5938,1.5 4.0938,3 2.5937,2.5 3.5937,3 1,3 0.625,0.5 1.5,2 1,3 1.0938,1.5 0,3.0938 0.5,2 1.0938,2 1,1.5 1.5,1 0.5937,1.5 1,1 0,1.5 -0.5,1.5 0,2.5 -0.5,2.125 0,3 -0.5,2 0,3 -1,4.0938 -0.4063,5 -1,6.0937 -0.5,5 0,3.5 -1.5,3.0937 0,1 -0.5,2.5 -1.5,4.5938 -1.5,9.5 -3,11.125 -3,10.5938 -4,13.1874 -0.5,1.5 -1.5,6.5 -3.0937,9.0938 -3,10.625 -2,6.0938 -3.5,9.5937 -3,9.0937 -3.0937,9.0938 -2,4.5 -1.5,2 -1,2.625 -0.5,2.5 -1,3 -1.5938,3.0938 -3.5,6.5 -6.0938,12.1874 -1.5,3.5 -3,5.5938 -4.125,8.5 -6.0937,11.2188 -6.0937,11.5937 -3.5,5.5937 -4.5938,7.5 -8.0938,13.2188 -2,7.5938 -2.5,4 -3.125,4.5937 -7.0937,12.0937 -3.0937,2.5 1.0937,3 4.5937,3 3.125,0 1.5,-2 1,-3.5 2.5938,-3.0937 1.5,-2.5 6.0938,-4.0937 2,-4 1.5937,-2 2,-1.5 1.5,-1.5938 4.0937,-7.125 0.5,-3.5 -0.094,-6.5 1.5937,-5.5938 2,-2.5 0.5,-4.0937 3,-3 2.625,-3.5 5.5938,-4.0937 3.5,-4.5938 1.5938,-3 1.5,-6 1.5,-6.125 1.5,-3.5 3.5,-5.5938 2.5937,-6.0937 1.5,-2 0.5,-2 2.5,-3.5 1.5937,-4.0937 1,-4 3,0 1.125,2 4.5938,0.4062 4.0938,0 2.0937,2.5 0,1.5 1.5,3.0938 4.0937,-0.094 3.125,4.5938 3.0938,1.5 1,1 4.5938,-3.5938 3.0937,-1.5 3.5937,-2.625 3.625,1.5 4.5938,1.5 0.5,2 0.5938,5.125 0,3 5.0937,0 0.094,11 0,5.0938 -2,5.5 -3.5937,4.0937 -11.6875,8.0937 -2.0938,1.5 -2.5,1.0938 -2.125,0.5 -2.5,1 -1,1 -1.5937,2.5 -2,0.625 -4.0937,2.5 -8.1876,-1 -6.7187,-4 -11.2813,2.0938 1,-3 -1.5,-1 -4.625,1.5 -5.0937,4.5937 -9.6875,3.5937 -5.0938,8.5938 0,2.5 -1,4.5 -3.5,6.625 -2.625,4.5938 -1.5,7.5 -1,4.0937 -1.5,-1 0,-2.0937 -0.5,-1.5 -2.0937,2.0937 0,2 2.0937,10.0937 0.625,3.5 -3.125,6 -2.5,5.5938 -5.0937,2.5 -6.0937,1.625 -2.0938,0.5 0,2.5 1.5938,2.5 2.5,-1 0.5,1 -3,5.0938 -0.5,1.5 -1,2.5 -1,1.5 -0.5,1.5 -1,1.5937 0,1.5 2,4 3.1874,10.0937 1,1.5 1.625,3 -1.5,4 -2.125,0.5 -1,0.5 -3.5937,1.5938 -1,3 -2,1 -2.0937,4.125 2.5937,8.5 -4.5937,-2 -3.5938,-4.5 -0.5,-1.5 -7.7188,-2 -3.0937,-1.5 -4.0937,-1.5 -2.0938,-1 -3.5938,-0.9062 -3.625,-3 -2,-2.5938 0.5,-2 4.5,-3 -1,-2.5 0.5,-3.125 12.7188,-19.1875 7.5938,-11.5937 6.0937,-5.5938 2.0937,0 2.125,0.5 -0.625,-4 -1.5,-1.5 0,-1 -1.5937,-4.125 -3.0937,-3 -1.5,3.625 -1,3.5 -2,5 -7.0938,11.1875 -4.5938,7.5937 -10.2187,16.5938 -8.0937,13.2188 -2,3.5 -5.0938,6.5937 -4.5938,7.0937 -2,4 -4.125,8.5938 -9.5937,17.2188 -2,4.5 -5.5937,9.0937 -3,5.0937 -2.0938,4.5938 -2.5,4 -0.5,2 0.5,1.5 1.5,-1 0.5,-2 1.0938,-2.5 3,-5.0938 2.5,-3.5 2.0937,-4.5937 13.7187,-22.6875 2,2.5 2.5938,0.5 -6.5938,5.5 -6.625,10.1875 -2,6.5 -1.5937,4.0937 -1,1.5 1.5937,1.5 1.5,-0.5 3.125,0.5 2.0938,1.5 3,0.4063 1.5938,1 4.5937,1.5 -2,1.5937 -2.0937,0.5 0,1 -1,2 -5.0938,5.0938 -0.5,3 0,1 -2,0 -2.5938,-1 -1.5,-1 -0.625,-2 -0.5,-1.5 -1,-1 -5.1874,0 -2,-0.5 -2.5938,0 -2,1.125 -1,1 -1,2.5 -1.5938,1.5 -2,2 -1.5,3.0938 -1.625,2.5 -1,4 -2,5.5937 -3.5,6.0937 -3.5937,8 -0.5,1.5938 -2.5,6.5 -3,7.125 -3.5937,6.5938 -2.5,5 -1.5,4.0937 -3.0938,7 -3.5,9.0937 -2.5,6.5938 -5.5938,10.625 -4.125,6.0938 -4,6 -1,3.0937 -1,2 -3.5937,6.5937 0,4 -0.5,1.5 0,1 0.5937,2.5 1.5,3 0.5,1.5938 -0.5,2.5 -1,2 -1.5,6 -2.5,8.125 -2,5.0938 -2,6 -4.0937,9.5937 -4.5,7.5937 -4.5937,9.0938 -3,5.625 -0.5,3 -0.5,2.5 1,1 2.0937,1.5 2,1.5 1.5937,4.5 0.5,2.5938 -0.5,3 0.125,3 1,2.5 0.5,1.5 0,1 1.0938,2.5 2,2.5937 0.25,0.5 3735.1873,0 -0.406,-41.9063 -0.09,-11.5937 -0.312,-22.1875 -0.06,-39.2188 -0.09,-8.5937 -0.313,-22.1875 -0.781,-79.625 -0.5,-72.5 -0.625,-46.2812 0,-9.5938 -0.281,-34.2188 -0.09,-13.5937 -0.906,-97.8125 -0.219,-97.6875 -0.281,-132.1875 0.187,-49.2188 0,-15.2812 -0.09,-45.2188 0.593,-46.9062 -0.187,-96.6875 -0.719,-320 -0.09,-38 -0.187,-25.0937 -1,-101.9063 -0.5,-106.9063 -0.09,-7.0937 0.188,-25.1875 -0.313,-22.2188 -0.5,-50.0937 -21.5,-0.094 -6.875,0 -33.812,0.2812 -16.407,0 -79.406,0.125 -67.281,0.5 -5.719,0.094 -13.5,0 -112,0.094 -48.875,-0.094 -35.312,-0.2188 -49,-0.094 -242.313,-0.7812 -57.281,-0.125 -25.094,0 -16.219,-0.094 -86.593,-5.4062 -1.188,0 -89.125,-0.875 -8.094,-0.125 -14.281,-0.2812 -41.719,-0.8126 -14.593,-0.2812 -2.313,0 -14.094,-0.3125 -2.281,-0.094 -6.406,0 -88.719,-1.0938 -21.594,-0.3125 -112.1875,-3.3125 -9.0938,-0.2812 -22.2188,-0.5 -8.5,-0.7188 -4.6874,-0.2812 -11.8126,-0.5938 -107.5,-3.3125 -55.4062,-1.6875 -2.5938,-0.125 -1,-0.094 -37.9062,-1.6874 -36.875,-1.7188 -55.8125,-2.5938 -55.9063,-2.6874 -7.5937,-0.3126 -14.9063,-0.5 -19,-0.9062 -1.4062,-0.094 -14.375,-0.5937 -13.9062,-0.6875 -1.4063,0 -16.4063,-0.4062 -30.4062,-0.8126 -18.7812,-0.5 -15.4063,-0.4062 -16.9063,-0.5 -32.1874,-1 -3.0938,-0.1875 -142.4062,-1.0937 -48.2188,0.4062 -13.875,0.094 -3,-0.094 -31.7188,-0.625 -33.2812,-0.6875 -27.9062,-0.4063 -14.8126,-0.2812 -141.4062,-2.9062 -93.5,-1.8126 -16.375,-0.2812 -14.625,-0.2188 -1.2812,-0.1874 -16.9063,-2 -53.6875,-6.4063 -35.2188,2 -24.2812,1.1875 -2.3125,0.125 -13.5937,0.375 -26.9063,0.5 -11.8125,0.2188 -48.7812,0.9062 -0.5938,0 -1.3125,0.094 -9.4063,-0.5 -4.4062,-0.3126 -47.875,-1.5937 -41.3125,-1.6875 -49.1875,-2 -87.2188,-3.7188 -26.0937,3.4063 -23.9063,-1.0937 -11,-0.5 -62.9062,-2.9063 -1.5938,-0.094 -11.0937,-0.3126 -25.8125,-1 -53.5938,-2.5937 -62.0937,-2.8125 -2,-0.094 -21.5937,-0.5937 -10.0938,-0.5937 -7.3125,0 -55.8125,-2.8126 -24.0938,-1 -0.5,0 -9.1874,-0.4062 -8.7188,-0.5938 -45.0938,-4 -23.9687,-1.5937 z m -17.4063,1314.8125 -1.5,0.5938 -3.0937,0.5 -1.5,-0.5 -2.5937,0.5 -2,3.5 -2,5.0937 -0.5,1.5 1,0.5 4.5937,-2 4.0937,-3.0937 3,-0.5 2.125,-1 2,-1.5 0.5,-2.0938 -1.5,-1.5 -2.625,0 z"
     id="rect4"
     inkscape:connector-curvature="0" />
  <path
	 style="fill:#9FAEC0"
	 stroke="#9FAEC0"
	 stroke-width="10"
	 transform="translate(0, 100)"
     d="m 11.6562,1756 1.3438,2.5 0.5,2 0.5,1.5 2.0937,3 0.5,1.5 2.5937,1 6.2188,7 5.6875,7 2.5937,11.0937 0.5,3 1.125,5.5938 1.0938,6 0.094,13.125 0,10.0938 0.5937,3.5 0,3.5 0.5,2.5937 1,2 1.0937,2 2.625,3 0.5,2 0.5,3 1.0938,3 0.5,4.5937 1.0938,3 -0.5,4 -0.5,2.5 -1.5938,2.5938 -1,2 -1,2.5 -1,3.5 -0.5,2.125 -0.5,1 -0.5,4 -1,4 -1.5,3.0938 -2.5,6.5 -2,5.5937 0,3 -1,5.5937 1,2.5 -0.5,3.5 0.094,1.5 -1.0938,1 -0.5,1.5 0.5938,1.5 1,2.0938 1.5,2 3.0937,2 0.5937,1.5 0.5,1 1.5,2 1.625,2.5 0.5,1 1.5,2 1.0938,1 1.5,1 3.0938,2 5.1874,2.5 3.625,2.5 2.5,2 1.5938,2.5 1.5938,3 1,2.5 0.5,2.5 1.0937,2 1,1.125 1,1.5 4.2187,3.5 5.0938,5 6.1875,6 2.5937,3.5 2.625,3 3.0938,2.5 2.5,2 2.0938,1.5 3.5937,2.5 3.0937,2.5 3.625,3.5 2.0938,2.5 2.5938,2 1.5,2.5 2.0937,2.5 1.5,2 3.0937,1 3.125,2.5 7.6876,4 6.1874,4.5 3.625,3.5 1.5938,3 3.0938,2.5 3.0937,1.5 2.5,2.5 3.0937,4 2.625,3.5938 2.0938,3 2.0938,4 2,2.5 1.0937,3.5 3.0937,4 3.125,4.5 2.5938,4.0937 2.5938,3.5 4.0937,0.5 2.5937,1.9063 2.5,2.5937 3.125,1.4063 4.0938,1 4.6875,2 3.0937,2 3.625,2 2.5,1.5 2.0938,0.5 3.5938,1 4.5937,2 5.7187,2 4.0938,3 3.0938,2 1,1 1.5937,2 2.5,1 2.5937,2 2.125,0.4062 2,2.5938 1.0938,3 2.0938,4.5 4.0937,5 2.5937,4 2.125,3 0.5,2 0.5,1 1.5938,1 1.5,2 1,2.0937 2.5938,6 2.0937,6.5 1.0937,4.5937 0,1 -0.5,4.5 -1,6 -0.5,4.5938 0.125,4.5 -0.5,2.5 0.5,1.5 -0.5,3.125 2.0938,1 -0.5,2 -1,2.5 -0.5,1 1,2 2.0938,2.5 2,3.5 2.5937,4.5938 1.5937,0.5 1,0 1,-2.5938 1.5,-2 2.125,-0.5 3.0938,0.5 4.0938,1.5 8.6874,6.5 1.125,1 2,1.5 2.0938,3.5 6.1875,7 4.0937,4.5 2.625,3 1.0938,3 0.5,2.5 0.5,1.5 2.5938,2 3.5937,4.0938 2.0937,2.5 2.625,3 3.5938,5 1,2.5 2.0938,3.5 1.5937,2.5 2.5,2.5 1.5937,1 1,0.5 4.125,3.5 4.1876,5.5 2.0937,2.5 1.5,5.0937 1.0937,2 1.5,3 1.625,4 2.0938,4 2.5938,4.5 1.5,2.5 0.5,3.5937 1.0937,3 2.5937,6.5 1.625,2 3.0938,2.5 5.0938,4.5 4.5937,3 3.0937,2 2.625,2 2.5938,2.5 0.5,2.5 1.0938,5.0938 1,5 2.6874,8.5 1,1.625 1,1.5 1.625,4 0.5,1 1.0938,4.5 0,1.5 0.5,2 1,2.5 1.5938,5.0938 0.5937,2.5 2,3 1.0937,2.5 1.5,1 1,0.5 1.625,1.5 0,2 1,1 1.0938,0.5 1.5,0.5 2.0938,1.5 1,1.5 1.5937,1.5 2,3 5.7187,4 6.1876,5 7.6874,3.5 4.125,1.5 3.0938,2.5 2.5938,2 1,2.5 1.5937,3 1,3.5 0.5937,3 0.5,4.5937 1,2 0.125,3 0.5,1.5 -0.5,3 -0.5,1 -0.5,1.0937 0.5,1 1.0938,2 1,2.5 1.0938,6.5 0.5,4 0.5,2.0938 0.5937,5.5 0.5,6 0.094,4.125 0.5,4 0,3.5 -1,5.0938 -1,4 -0.375,3.5 0.5,4 0.5,3.0937 0.5938,3 2,2.5 0.5938,2.5 1,4 0.5,1.5 0,1.5 -1.5,3.0937 -1,1 2.5937,1 1,2 0,2.5 -0.5,1 -0.5,2 -1,2.5 0.5,2.5938 0.5937,2 2,2.5 4.2188,3.5 6.6875,5 3.5937,3.5 2.125,2.5 1,2.5 1,2 0.094,3 0.5,2.5 0,1.5 1.5938,2.125 1.5,1.5 2.5937,3.5 1,2 1.0937,3.5 0.5,4.5 0.625,4.5 1,4.5938 -1,3.5 -0.5,4 0.094,2 1.5,1.5 1,1.5937 1.0938,2 0,3 0.5,3 0.5937,2 0,5.5 1.5937,4.5937 -1,3 -1,3.5 -1,2.5938 0,2.5 1,3.5 1.125,3 -0.5,2 -1.125,1 -0.5,1 0.625,1 0.5,0.625 1,0.375 0,2.625 0.5938,3 -0.5,6 -1,3.5938 -1.5,2 -1.0938,1 -1.5,3 2.1876,11.5937 1,2 2.0937,3.5 2,3 1.5937,2.5 0.5,1.5 -1,3.5937 0,3.5 1.125,2 1,1 1,0.5 1.0938,3.5 0.5,1.5 1.0938,2.5 1.5,2 0.5937,2.5 0,9.5938 -2,5.625 -2,10 -4,14.1875 -3,7 -2.5,5.5937 -3.5937,8.0938 -3.5,6.5 -0.5,3.125 -2,3 -1.5938,3 -2,3.0938 -1,2 -5.0938,0 -1.625,0.5 0,1 1.625,2 0.5,1 -0.5,1.5 -0.5,2.0937 -0.5,2 0,3 -0.5,3.5 0.094,1.5 0,1 -1.0938,1.0937 -2,0.5 -0.5,1.5 0,2 0.5,1.5 0,2 -1.5,1.5 -0.5,1.0938 -0.5,1 0,2.5 -0.5,1.5 -1,1.5 -0.5,2 -1.5,0.5 -0.5,1.5 0.5,1.125 0,2 -1,2 -0.5,2 -0.5,1 0.5,2 1.0938,1.5 0.5,1 -1.5938,1.5938 -1,0 -0.5,1 -1,-0.5 -1.625,0 -0.5,1.5 0.625,1 1,1 0.5,1.5 0,2.5 1.0938,0.5 0.5,1 1,0.5 1.5938,0.5 1,1.5 0.5,1 0,1.5 -1.5,1.0937 -4.0938,0 -1.5,2 0,1 1,1.5 1.5938,1 0.5,2.5 0,3 -0.5,3.5937 -0.5,2 -1,1 -1.5,0.5 -1.5938,1.5 -0.5,1 -0.5,1.0938 0.5938,1.5 0,6 -1,1 0.5,1.5 1.5,1.5 0.5937,1 0.5,1.5 -0.5,1 -1,0 -0.5,1.625 1,1.5 0,1 -0.5,1 -0.5,1.5 -1,1 -1,3 0,1.5 0.5,1 0,1.5938 1,1.5 0.5937,1 -0.5,1.5 -1.0937,0 0,1.5 1.0937,1 -0.5,1 -2.0937,2 -1.5,1 -1,0.5937 -0.5,2.5 1,1 1.5937,1 1.5,1.5 1.125,2 0.5,2 -2.125,0 -1.5,-1.5 -1.0937,-0.5 -0.4063,2 0.5,2.5 0.5,2.5937 0.5,1.5 -1,0.5 -1,1 -1.5,1 -0.5,1 -0.5,1.5 0.5,2.5 2.125,3 2,2.5938 0.5938,1.5 1.5,2.5 1,1.5 0.094,2.5 0.5,1 0,1.5 1,1 1.0937,1 1,1.5 0.5,1 1.0937,1.5 2,-0.5 1,-0.5 1.125,1 0.5,1 0,1 -1,2 -0.5,1.5 1.5,1 1.0938,1 0.5,1 1,2.5 0.5,2.125 -0.5,1.5 -1,1.5 -2.5,0.5 -2.0938,0.5 -2,1 -1,2.0938 -1,3.5 0.5,2.5 2.5938,2 2,1 2.0938,0 1,-0.5 2,-0.5 1.0937,0.5 1,-0.5938 1,-0.5 1.0937,1 0,3.0938 -1.5937,1.5 0.094,1 -0.5,2.5 0.5,2 0.5,1.5 -1,2 -1,-1 -0.5,-1 -1.0937,-0.5 -1,-0.5 -1,0.5937 -1,1.5 0,4 0.5,1 0,1 0.5,1 -1,3 0,2.0937 -0.5,2 0.5937,2.5 1.5,3 1.125,2 1.5,0 1,-1 2.0938,-1 1,0.5 1,1 0.5938,2.5 0,2.5 0.5,2 0.5,1.5 0.094,3 0.5,1 1.5,1 0.5,1 1.0937,0.5 1,1 -0.5,2 -1.5,0.5938 -1,1 0,1 0.5,1 1,0.5 1.625,1.5 1.5,6 1.0938,4 1,1 2.0938,0.5 0.5,1 0,1 -1,1.5 -2,5.125 0,1 1,1 2.5937,1.5 1.5937,1.5 1,1 0,1 -2.0937,1 -2,0 -1,1.0938 -0.5,1 1,2 1,1.5 1.5937,1 1,2.5 1.125,2 0.5,1 -0.5,1 -1.625,0 -1,-0.5 -2,1 0,1.5 1,2.5937 0.625,2 2,5 0.5938,2 0,2 -0.5,1 -1,1 -0.5,1 0.5,2.0937 0.5,1 2.0938,1.5 1.5,0.4063 1.5,0.5 2.0937,1.5 1.5937,2 1,2.5937 1,1 0.625,2.5 0.5,2.5 1,2 1.0938,1 1,1.5 0,3 0.5938,1 0.5,1 2,2 1.5937,2 1.5937,3.5 1,1.5938 1.5,1.5 2.125,0.9062 0.5,2.0938 0,1.5 1.0938,1 1,1 1,0.5 0.094,2.5 -1.0938,1 -1,1.5 -1,0.5 -0.5,2 0.5,1.5 1.0938,1 1,2 -0.5,1.625 -1,0 -0.5,1.5 -0.5,1 1,4 1.5937,0.5 1.5,-0.5 2,0 1.0937,0.5 2,2 2.125,2 3.0938,3 0.5,2 -0.5,2 0.5938,2 1,1.5 1,2.5 -1,1.5 0,1.0938 0.094,2.5 1,2 1.5,2 1.5937,2.5 -1.5,3 0,4.0937 1.125,2 1.5,2.5 2.0938,1 0.5,2.5 -0.5,2 -0.5,1.5 -0.5,2.5 1.0938,3.5 1.5,3.5937 0.5937,2.5 1,4 0,1.5 -0.5,1 0,1.5 1.0937,2.5 0.5,2 0,2.0938 0.625,3.5 1,2 1,2.5 0.5938,2 1,1.5 1,2.5 2.0938,2.5 -0.5,1 -0.5,1.5 -0.5,3.125 1.5937,1.5 1,2 0,3 -0.5,1.5 0,2 0.5937,1.5 -1.0937,0.5 -1,1.5938 -0.5,2 1.0937,1.5 1,2 0.5,2 1.125,2 0,1.5 -1,2 0,1 -0.5,1.5 0,3.0937 -0.5,2 0,3 -1.5,3.5 -1.5,5.5937 -4,10.5938 -3.5,9.125 -5.125,9.0938 -5,12.0937 -4.5937,7.5 -4.5937,6.5937 -4.5,5.0938 -2.0938,1.5 -2,0.5 -1.5938,0 -2.5,-0.5 -1.625,-0.5 -1.5,-0.375 -1,2 1,1.5 2.125,2.5 1.5,3 1.5938,3.5 1,4 1.5938,3 1,1.5 1.5937,1.5 0.5,2.0938 0.5937,2 -0.5,2 -0.5937,1 -1,0.5 -1.5,1 0,1.5 0.5,2 0.5937,2 0,2.5937 0.5,2 0.5,1.5 1.125,1 2,0 1,-0.5 2.5938,-0.094 1.5,0.5 1.5938,2 1.5,0.5 2.5937,1 1.0937,1.5 -0.5,2 -0.5937,1.0937 1.0937,2 1.5,1 1.625,3 2.0938,2.5 4.0938,4.5 4.0937,3.5 2.0937,1.5 2.125,2.5 1.5,2.5 1.5938,3 1.5,3 0.5938,2 0.5,1 2.0937,2 2,0 1,0.5 1.0937,1.5 1,1 1.625,1.5 2,1 1.5938,1 2,1.5 1.5938,2 2.5937,2.5 1.5,2.5 1.0937,3 0.5,2 0.5,4.0937 1.125,3 0.5,2.5 0.6876,1.9063 3294.8756,0 -39.719,-35 -11,-9.6875 -3.687,-3.3125 -27.313,-23.6875 -43.594,-37.8125 -1.281,-74.5937 -0.812,-48.5938 -1,-59.9062 -0.188,-11.7188 0.09,-49.2812 -0.5,-27.5938 -0.719,-42.8125 -0.09,-4.0937 0.09,-14.5 0.313,-16.0938 0.09,-1.125 -0.281,-15 0.188,-17.0938 0.406,-32.2812 0.09,-18.625 0.187,-15.5938 0.125,-14.5937 0.09,-16.6875 0.09,-16.625 0,-1.375 0.406,-14.7188 -0.406,-48.7812 -0.188,-32.7188 -0.125,-15.0937 0.125,-50.3125 0.09,-12.0938 0,-17.0937 0.09,-16.6875 0.06,-50.3125 0,-14.1875 0.09,-16.125 0,-16.5938 -0.09,-15 0,-1.5937 0.406,-13.5 0,-1.5937 0.406,-14 0,-16.0938 -0.06,-3.2188 0.375,-13.9062 0,-2.1875 0.406,-13.5937 0.407,-134.2188 0.06,-11.7812 0.09,-14.9063 0.312,-17.4063 0.188,-13.2812 1,-71.5 0.218,-12.9062 -0.09,-3.2188 0.187,-10.875 -0.09,-16.8125 0.219,-24.1875 0,-4.4062 -0.09,-34.4063 -0.188,-50.1875 0,-32.2188 0.09,-16.0937 0,-18.8125 0.06,-13.5 0.406,-53.875 -0.218,-14.7188 -0.375,-68.9062 0.09,-51.375 0,-5.5 -0.218,-22.2188 -0.282,-31.5937 -3735.1874,0 z"
     id="rect6"
     inkscape:connector-curvature="0" />
  <path
	 style="fill:#9FAEC0"
	 stroke="#9FAEC0"
	 stroke-width="10"
	 transform="translate(0, 75)"
     d="m 577,3512 0.4062,1.0937 1,2 2.0938,4 2.0937,2 1,0.5 1.5,2 3.0937,1 1.625,2.5 1.5,1.5 1.5938,2 1,1 2.5938,3 1.5937,2.5 2,1 1.5937,0.5 0.5,2 1,1 3.125,0.5 2.0938,1 2,1.5 3.0938,3 2.0937,2 0.5,1.5 1.5937,2 0.5,3 1.125,2.5 1,1 0.5,1 -1,1.5938 -2.625,1 0.125,1 1.5,0.5 1,0 2.0938,0.5 2,0 1.5938,1.5 0.5,1.5 2.5937,2.5 3.5937,2 1.5,-0.5938 1,-0.5 1.625,0 1,1 2.5938,2.5 6.1875,6 4.7187,4.5 1,0.5 -0.5,1 -0.5,2 0,2.5938 1,0.5 1,-0.5938 1.5938,-0.5 2,1.5 1.5938,1 2.0937,1.5 1,0.5 0.5,1.5 1,1 1.5937,0.5 1,1 2.125,1 0,1.5 0.5,2 0.5,1 1.5938,1.5 3.0938,2.5 1,1.5 0.5,1 1.0937,3.0938 0.5,3 0,2 1.5937,2 2.625,1.5 1,1 0.5,2 -1,3 0,1 1.0938,1.5 1.5,0.5 1,0 1.5938,1.5 1.5,1.5 2.0937,3.5 2.5937,3 2.125,1 3,-0.5 1.5938,0 3.0938,1 2,1.5 3.5937,2 1.5937,1.5 2.125,2 1,2 0,2 1,1 1.5938,1.5 1.5,2 2.0938,1 1.5,0 1.5937,1 1.5,2 3.0937,1.5 5.2188,3 2.5938,1 1,2 1.5937,2 2,1.5 0.5,1 1.5937,2 1.5,2.5 -0.5,1.5 2.625,2 4.1876,3 2,1.5 1,1 2.0937,3 0.5937,2.5 1.5,4.5 2.125,1.5 1,0.5 0.5,1.5 0.5938,2.5 0.5,1.5 -0.5,2.625 -2,0.5 1,2.5 1.5938,2 2,2 3.5937,1 2.0937,1.5 2,1.5 2.125,2 1.0938,2 1,2 0.5,3 1.5938,1.5 1,1 1.5937,3 2.0937,4.5 -1.5937,1.5 -0.5,1 1.5937,1.5 1,1 1.125,1 3.0938,4.0938 0,1.5 1,2 1,1.5 1.5938,1.5 2.0937,2.5 0.5,1.5 0.5,2 1.5937,1.5 1,1.5 0.5,2.5 0.625,2 1,1.5 1.5938,2.5 3.0938,3.5 3.0937,5 3.0937,3.5937 2.625,0.9063 2.5,1.5 0.5938,2 0,1.5937 -0.5,2 -1,0.5 -1.5938,0.5 -1,1.5 1,1.5 1.5938,1.5 3.0938,1.5 2,2 1.0937,1 1,2 1.0937,1.5 2.5,-1 1.625,0.5 2.5,1 2.5938,2 1.5938,2 1.5,2.5 1.0937,3 1,2 1.0937,2 1.5,2 1.625,1 -1.125,2 -1.5,2.5938 -0.5,1.5 1.125,3 -0.5,1 0.5,1.5 1,2.5 2.0938,3 1,1 4.6875,0 1,1 1.5937,2 0.5,2 1.5,0.5 1.125,1 3.5,0.5 3.0938,2.5 2.0938,1.5 3.0937,0.4062 1.5,1 0.5937,3.5938 -0.5,2.5 0.5,2.5 1.625,0.5 1,0.5 2.5938,0 0.5,1.5 1.5,2 1.5938,1.5 2.5937,2 1.5,0 1.5,1 1.5937,0.5 0.5,1.5 2.125,2.5 1.5,1 1.0938,0.5 0.5,1 1,2.5 2.0938,-0.5 2.5,-0.094 1.5937,1.5 0.5,1 1.5937,1.5 -0.5,1.5937 0.5,3 2.125,1.5 1.5,3 3.5938,3.5 2.0938,1.5 2,-0.5 0.5937,1 -1,2.5 1,1.5 0.5,1.5 1.5937,0.5 0.5,1.5 2,-1 0.5,-1.5 1.125,-0.5 2,0.4063 0.5,1 1.5938,1 1,0.5 2.0938,0 2.5,0.5 0.5937,1.5 0.5,1 1,1.5 1.5937,0.5 -1.0937,1.5 0.5937,2 2.5,0 1.625,1 2,2 4.1876,2 1.5,0.5 1.5937,1 2.5,0.5 1.0937,1 2,0.5 2.125,1 2,0.5 1.0938,1 1.5,1 1.5938,1.5 2.5,1.4062 3.5937,2 3.0937,1.5 4.7188,3.5 6.1875,5.5 2.5937,3 3,1 1.625,1.5 1.5938,2 2.5,3 1.0938,2.5 2.5937,0 1,1 0.5,1 1.5937,2 2,0.5 0,1.5 0.625,1 2.5,1 2.0938,1.5 1,1.5 1.0938,1 0.5,1.5 1.5,0.5 2.0937,0 2,0.5 2.5937,1 2.625,3 1.5,1.5 0.5938,1.5 0.5,2.5 0.5,2 -0.5,3 0,1.5 -0.5,1.5 3.0938,0 1.5937,2 1.0937,6.5938 0,3 1,1 2.125,0.5 0.5,1.5 0.5,2.5 1.0938,2 1.5,2 4.1875,4 2.5,1.5 2.5937,4.5 1.625,4.5 1.0938,3 1,5.5937 0.5938,2 0,2.5 -0.5,1 0.5,2.5 2,0.5 1.0937,0 0.5,-1.5 1.5,1 1.5937,1 2,2.5 1.125,3.5 2.5938,6.5 1.0938,5 2.0937,3.5938 3.5937,5 1.625,4 1.5,6 1.0938,7.625 0.094,7 -1.5,8.5937 -2,9 -0.5,4.0937 -1,2.5 -1,2 -1.5,0 -1.5938,-1 -1,1.5 1.0938,1 1.5,2 1,1.5 1.5937,1.5 1,1 2.0937,1 -1,2.0938 0.5,2.5 1.125,2 0.5,2 1.5,1.5 0.5938,1 0,2 0.5,1.5 1.5,2 0.5938,1 2,1 1.5937,0.5 3,0 1.0937,-0.5 1,-1.5938 0,-2.5 -1.0937,-1 -1,-0.5 -1,0.5 -1.0937,-0.4062 -0.5,-1.0938 -0.5,-2 3.5937,-2 4.0937,-2.5 3,-1.0937 4.125,-1 6.1876,0.5 6.1874,1.4062 4.625,3.5 3.5938,3.5 2.5938,1.5 2.5937,2 2,3 1.5937,2 1.625,1.5 1,0 2.5,0.5 5.2813,15.0938 1.5,0.5 1.9063,1.1875 1.1874,0.7187 0.625,2.0938 0.5,2.5 0,1.5 1.5938,2.5 1,0.5 2.5938,2.5 3.5937,2.5 0,1.5 0.5,1 1.5,2.5 1.0937,2.5 2.625,5.5 1.0938,3 0.5,3 0.5,2.0937 0.094,2.5 -0.5,3.5 -0.5,2.5 -1,3.5 -1,2.5938 -1.5,4 0.8124,1.0937 0.6876,0.9063 1.5937,-1 2,-0.5 2.5937,2 2,-2.5938 2.125,-0.5 1.5,0 2.5938,2.5 1.0938,5.5 0.5,3.0938 -1,3.5 0,1.5 -0.5,3 0.5,2.5 2.0937,-0.5 2.5,-4 2.0937,-1 2,0.9062 1.125,1 2,1.5 1.0938,1.5 2,2.5 2.0938,2 2.0937,-1 1.5,-3 2,-2.5 3.0937,-3.0937 0,1.5 -0.5,1.5937 -1.5,5.5 -0.5,3 0,4 0.5,2.0938 0.625,1 1,2.5 3.1876,12 1.5,1 3.6874,4 4.125,11.5937 1.0938,1 1,1.5 0,1.5 1.5938,3 1,3.5 1.0937,2 2,2 2.0937,1 0.5,1.5 0.625,2 0.5,1 0.5,2.5 1.0938,2.5 2,3 0.5938,2.625 2.5,0.375 1.5937,1 0.5,1.625 0,2 1.0937,1 1.5,1.5 2.125,0.5 1.5,0.875 2.0938,2 0.5,1.625 0.5,1.5 0.5938,3.5 1,2 1.5937,1 2.5,2 1.0937,1 2,3 -0.5,2.5 -1,2 -0.5,2 0.625,1.5 2,2 1.0938,0 1,0.5 2,0 2.0938,1 1,0.5 1.0937,0.5 0,8.5938 3.0937,1.4062 3.125,-1.5 1.5,0.5 0.5938,1.5 0.5,1 2.0938,3.5 5.5937,6 3.2187,5 1,2 -0.5,2.0938 -1.5,1.5 -5.7187,-2 -1.5,0.5 -33.0937,-35.5 -3.5938,-4 -0.5938,-2 -2.625,-3.5 -2,-1.5 -1.0937,-3 -1.5,-1 -2.5937,-0.5 -1,0 -2.0938,-2 0,-3 0.5,-1.5 -0.5,-1.5 -1.0938,-1.5 -2,-3 -1.125,-1 -1.5,-1.5 -0.5937,-1.5 -0.5,-2.5938 -1.5937,-1.5 -2,-1.4062 0,-3.0938 1.5,-2 -1,-0.5 -0.5938,-1.5 -3,-1.5 -1.0938,0 -1,-1.5 -1.625,-5.5 -1,-2.5 -2.0937,-1 -1.5937,-2 -0.5,-1 0,-2 -0.5,-1 -1.0938,-2 -1.5,0 -0.5,-2 -3.7188,-10.625 -1,-1 -1.0937,0 -1.5,-0.5 -1,-2 -0.5937,-1.5 -2,-1.5 -0.5,-1 -1.0938,0.5 -2,0 -1.5938,-0.375 -2.5,0 -0.5,-1 1.5,-1 1.5,-0.625 1.5938,-1 -1.5938,-5.5 -1.625,0 -1,-3 -16.0937,-20 -3.5937,-3.5 -2.0938,-1 -1,-3 -2.5938,-2.5 -1.125,-5.0937 -2,-0.9063 -4.0937,-3 -3.6875,-2 -0.5,-1 -1.5,1 0.5,3 2.0938,2 1.5937,4.5 1,3 1.0937,1 1,2.5 1.625,1 1,0.5 1,1.8125 1.0938,1.6875 0,6.125 1.0938,3 2.3124,2.7813 2.6876,3.3125 1.6874,1.9062 2.125,3 1.5,2.5 0.5938,3 1,3 -0.5,2.5938 0,3.5 0.5938,2 -0.5,1.5 -1,4 0,1.5 1.5937,0.7812 1.5,0.7188 1.5,1 3.0937,2 1.625,2 1.5,1.5 0,2 0.094,2.0937 -0.5938,1 1.5938,1.5 0.5,1.5 0.5938,2.5 1,3.5 0,3.5 0.094,3.5 0.5,5.5938 -1,5 -0.9063,7.0937 -2.5,8.5 -3.5,10.625 -4.5937,11.5938 -1,3.5 -4,13.1875 -5.5,13.5937 -5,13.125 -3.5,10.5938 -4.0937,9.0937 -3.5,9.5938 -3.5,9.5 -2.5,6.0937 -4.0938,8.625 -3,5.5 -2.5,6.0938 -2,6 -2.5938,4.5937 -1,2 -1.5,1.5 -1.125,0.3125 -1.5,0.2813 -1.5,1 -2.5,1 -1.0937,1.5 -1,1 0,1 0.5937,1 1.5,0 2.625,1 3,0 1.5938,-0.5 1,-1 1,-0.5 2.0938,0.4062 0.5,1 2.0937,1 1,0.5 2,0 2.0937,-0.5 3.125,0 2,0.5 1,-0.5 1.5938,0 1,-0.094 1,1 1.5938,0.5 2.5937,0.5 2.5,0 3.5937,-0.5 1,1 1.625,1 1,0.5 1,1 2.5938,-0.5 2.5938,1.4063 0.5,-1 -1.0938,-2.5 -1,-1 -3.0938,-2 -2.625,-1 -2,0.094 -2.0937,-1.5 -1.5,-0.5 -1.5937,-1 -1,-5 1,-5.0938 3,-6.125 4.5937,-6.5 7.0937,-6.0937 8.2188,-3.5938 7.5938,-2.5 3.5937,-0.5937 4.0937,-0.5 1.625,-2 1,-0.5 -0.5,-1.5 -1.125,0 -2,-1.5 -3.6874,-4 -2.5938,-4 -3.5938,-3.5 -4.625,-3.5 -2.0937,-2.5 -1,-1 0,-1.5 1.5,-0.094 2.5937,1.5 3.625,3 1,1 1.5938,-1 0.5,-2 -1.5938,-5 -1.125,-1 -2.5,-1.5 -1.5937,-2 -0.5,-3 -0.5937,-2.5 1.0937,-1.625 0.5,-3 -0.094,-3.5 0,-2.5 1,0 1.0937,1 0.5,2.5 -0.5,2.5 0.5,3 0.094,2.5 0,2.625 0.5,1.5 2.125,0.375 3,0.5 2.5938,0 1.5,-2.5 1,-4 0.5,-3.5938 1.5,-4.5 0,-2.5 -0.5,-1 0.5,-1.5 1,-1.0937 0.5,-2 0,-2 1,0 1,-2 0,-1 -0.5,-1.5 1,-1 1.5,-1.5938 2.0938,-1 1,2 -1,1.5 -2.5938,2.0938 0.094,3 1,1.5 -0.5,3 -1,1.5 -1,2.5937 1.5937,8.5 0,3 0.5,2 3.0937,-1 2.125,-1 1.5,-3 1.5,-2.0937 0,-1.5 2.5938,0 1,2.5 2,-1.5 3.0938,-2.5 1,-1.0938 1.5937,0 1.5,-0.5 1,1.5 -2,1.5 -1.5937,-0.4062 -1,1.5 -2.5,2 -3.0938,1.5 -2,1 0.5,2.5937 -0.5,1 -1,3 -2.5938,0.5 -2,1.5 -2.5,3.0938 -2.125,0.5 -1.5,2 -1,2.5 -1,3.125 -1.5,2 0.5,1.5 2,2 2.625,1 0.5,2.5 0.5938,1 -0.5,1 0,1 0.5,1.5 2.0938,0 2.5,0.5 2.0937,2.5 3.5937,-0.5 1,-1 1.5,0.875 2.125,-1.5 0,-3.5 1,-2.5 0.5,-2 0.5,-1.5 -0.125,-2.0938 0.5,-2.5 0.5,-1.5 1.125,-1 0.5,1 2.5938,2 0,9.5938 -3,3 0,1.5 0.5,1 1.5938,2 2.5,0.5 2.5937,0.5 2.5937,0 2.5,-1.0938 0.5,-1.5 0,-1.5 0.5,-1.5 0.5,1 1.125,2 1,4 -0.5,1 -2,0.5938 -2.625,0 -2,-0.2813 -2.0937,-0.2187 -6.1875,-0.5 -5.0938,0.125 -4.125,0 -5.6874,-3 -2.5,-2 -1.5938,0 0,1.5 2.0938,2.5 3.5937,1 4.0937,0.6875 4.625,0.8125 8.7813,0.375 4.5937,0.5 4.625,1 6.6876,1.4062 6.1874,2 6.7188,2.5 5.0938,2.5 6.6874,3.9063 6.7188,4.5 8.7812,6 4.625,4 2.5938,2.5 2.0938,1 0.5,2.5 5.1874,2.5 1.5,2 2.625,3.5 2.0938,5 1,2 2.0938,1 2,-0.5 1.5937,2 2.0937,3 3.125,2 1.5,2 3.0938,5 3.6875,6.5 2.5937,5.5 2.125,5.0937 1,3.5 0.5938,3.5 -0.5,1 0,2.5 1,1 2.0938,-0.5 1.5,-0.5 1,1.5 0.5937,1 -0.5,2 0.5,1 3.5937,0 1.5,0.5 1.625,1.5 1,2.5 0.5,1 0.5938,1 1.5,1.5 1,0.5 2.0938,0.5 3.5937,0 1.5,0.5 2.0937,1 2.125,2 2,1.9063 4.0938,1.5 2.0938,2 2.5937,2.5 4.0937,4 1.625,4 0.5,2.5937 0,1.5 2.0938,4 -0.5,3 0.5938,3.5 1.5,3 2.0937,1 3.0937,0.5 1,0 3.125,1 1.5,1 1.5938,2 2,1 1.0938,2 2.5937,1.5 1.5,0 1,0.5 1.5937,-0.5937 0,-1 0.5,-1.5 1.5,-1 2.625,-1 4,-3.5938 4.5938,-2 3.5938,-2.0937 3.0937,-0.5 2.5,0 2.5937,0.5 3.625,0.5 5.6876,1.375 5.5937,2.5 5.7187,2.5 2.0938,1 1.5,1.5 1.5938,1.5 2,1.5 3.5937,4 2.5937,3.5 1.625,1.5 1,1.5 0,1.5 0.5938,1.5 0.5,1 0,1.5 1.5,0.5 3.0938,0 1,0.5 0.5937,1 0,1 1,1 1.5937,1 1.5,-0.5 1.5,0 1,-0.5 2.125,0.5 1.5938,0.9062 2.5,0.5 1.0938,1 1.5,0.5 1,1 1.0937,0.5 2,1.5 2.0937,2 2.125,3 2.0938,4 1,3 1.5,0.5 2.0938,1 1,2.5 2.5937,1 2.0937,-1.5 1.5,0 1.5,0.5 1.625,1.5 0.5,1 1.0938,1.5 1.5,1 1,1 1.5938,0 2,0.5 1.0937,1 1,0.5 0.5,1.5 1,1 1.5937,1 0.5,1 0.5,1.5 -0.5,1 1.625,1 0.5,1 1,1 1.0938,0.5 1,1 0.5,1 0.5938,1.5 1.5,3 0,1 1.0937,1.5 3,1 3.7187,2 2.5,1.5 0.5938,1.5 1,1 0.5,1.5 -0.5,2.5 1.0938,2 0,1 2,2 1.0937,5 1,0.5 0,-4.5 0.5,-1.5 2.5937,-1 1.5,-1.0937 0.5,-2.5 2,-0.5 8.2188,1 2.5938,0.4062 4.0937,4.5938 4.0937,-0.5938 3.625,-1.5 2.0938,-1.5 0.5,-2.0937 4.0938,-1.5 2.5,1 1.5937,1 1.5,0.5 2.5937,0 0.5,-2.625 -0.5937,-2 0,-2 0.5,-1.5 1.5937,-0.5 1.5,-0.5 1.5,-3 -0.5,-1.5938 -0.5,-2 -1.5937,-3 -1.5,-2 -0.5937,-2 -1,-2 0.5,-1.5 1,-6.5 -0.094,-2.0937 -1,-2 -3.5938,-0.9063 -4.125,-3 -3.5937,-2.5 -2.0937,-1.5 -2.0938,-2.5 -0.5,-2 -1.5938,-2 -2.5,-1 -1.625,-1 -2,-2 -0.094,-3 1,-1.0937 2.5937,-1 1.5,0.5 2.625,-0.5 0,-3 -1.625,-3 -1.5937,-5.0938 -1,-2.5 1.5,-1.5 2.5937,-1 4.625,-0.5 3.0938,-0.5937 2,0.5 1.0938,1.5 3.5937,3 1.5,1.5 2.0937,1.5 2.625,2.5 1.5,2 1.5938,2.5 -1,3.5937 -1,4 0.5,2.5 1.5938,3 2.0937,3 3.5937,3 2.625,1.5 2,0.5 0,-1.5 -2.125,-3 -2,-1.5 0.5,-1.5 1,-2.0937 2,-0.5 1.625,1 3,-1 3.0938,0.5 3.0938,-2.125 2.5,-2.5 1.5,-3 1.5937,-1.5 2,-0.5938 0.5,-2 -1,-2 -2.5937,-2 -2.5938,-5.5 -2.0938,-2.5 -1,-1 -5.7187,0 -2,-0.4062 -2.5937,-2.5 -2.0938,-1 -2.5,-0.5 -1.5938,-3.5 -2.625,-2 -2.5937,-1.5 -1.5,-2.5 0.5,-1.5 1.5,-1.5938 -1.5,-2.5 -0.5937,-2.5 -1,-3 -2.5938,-2 -2.5938,-3 -3.625,-1 -4.0937,-0.4062 -4.0937,-2.5 -3.0938,-3.5 -2.5938,-5.5 -0.125,-6.5938 0.5,-1.5 -0.5,-2 -2.5937,-2 -0.5,-2 2,-0.5 2.0937,1.5 2.125,2.5 3,0.5 2.0938,3 3.0938,1.4063 2.5937,0 2.5,-2 3.0937,-1 3.125,-1.0938 0.5,-1.5 -0.125,-2 -0.5,-1.5 -4.5937,-1.5 -2.5937,-2 0,-2 -1.0938,-3.5 -1,-3 -1.0938,-3.5 -2,-1 -2.625,0 -1,-1.5 0.5,-3 1,-4 1,-1.5937 1,-1.5 2,-0.5 4.7188,1 3.5,-2.625 2.0938,-1.5 1,0.5 2,0 1.5937,-2 0.5,-3 1,-2.0938 2.5,-3 1.5,-2 3.5937,1 2.625,2.5 2.5938,1.4063 2.5938,0 3.5,-1 1.5937,-1.5 1,-3.5938 -0.094,-3 -1,-3.5 -3.0938,-2 -0.5,-2.5 -1.5938,-2.5 -2.625,-1 -0.5,-2 -5.0937,-1.5 -3.0937,-3.5 -3.5938,-1 -3.5938,-1.9062 -3.125,-1.5 -2.0937,-2 -2.0937,-2.5 -2.5,-1.5 -2.5938,-1.5 -2.0938,-1.5 -1.625,-4 -0.5,-3 -1.0937,-5.0938 -0.5,-3 0.5,-3 1.5,-6 3.5,-7.5937 1.5,-2 0.5,-1.125 -1.5,-2 0,-1.5 0.5,-2 1.5,-5 2.5,-4.5938 2,-4 1.5,-5 1,-4.5937 -0.5,-4 -0.094,-3.5 0,-11.0938 -2.5938,-2.5 -0.5938,-1 0,-8.5937 1,-3 -4.2187,-4 -2.5,-2 0,-1.5 3,-1 4.0937,-1 6.2188,-1.125 5.5938,-1 6.1874,-0.5938 6.125,-1 2,-1 2.0938,-2.5937 2.5,-2.5 1.0938,2 0.5,1.5 -0.5,1.5 1.5,2.5 2.0937,-0.5 4.5937,-2 4.125,-0.5938 4.5938,-2.5 3.5938,-4.0937 4.5937,-2 5.0937,-4.125 3.5,-3.5 3.625,-4.5938 3,-6 1,-2.5937 0.5,-4 -1,-2 1,-2 3.0938,2 7.1875,1.9062 6.0937,1.5 6.7188,3 9.7812,5.5 7.7188,3.4063 6.6875,4 5.7187,4 4.5938,3.5 3.0938,2.5 3.0937,3.5 5.7187,4.5 5.1876,3.5 4.5937,2.375 3.0937,2.5 2.625,3 3.0938,3 3.0938,4 2.0937,2 1,4.125 6.8125,9 3.0938,6 3.5937,4.5 2.0937,2.5 2.625,2 2.5938,3 1.5,2.5 1.5938,3 -0.5,3 4.0937,-0.5 4.0937,-1 1.5,-2.125 1.5,-2.5 1.625,2 2,-0.5 1.5,-4 0,-3.0938 -2.625,-6.5 -1.5937,-2.5 -1.5,-0.5 -2.0937,-2 0,-3.5 -2.0938,-2 -6.2188,-7.5 -5.6874,-9.5 -5.1876,-9 -0.5,-4.0937 -2.625,-7.5 0.9063,-4.5 1.5,-6.5938 -0.5,-5.5 -3.0937,-4.5 -3.6876,-2.5 -4.125,-4 -1.5937,-5.5 0,-2 0.5,-5.0937 1.5,-2.5 0.5,-3 0.5,-2 -0.5,-3.125 -1.5937,-1.5 -4.5938,-0.875 -4.0938,-1.5 -2.125,-1 -3.5937,-6 -1.5937,-2 -3.0938,-0.5 -3.0938,-3 3.5938,0 1.5938,-0.5 0.4062,-4.125 -0.5,-2 1.5,-0.5 1.0938,-1 -0.094,-2.5 -0.5,-3.5 2,-3.5938 1.5938,-2 2,-3.5 1,-4.5937 -2.0938,-5.5 -0.094,-5.5 0.5,-2.5 3.0938,-3.5938 5.0938,-2.5 3.0937,-2.0937 3.5,-2 2.5937,-2 1.5,-3.625 2,-7 1,-2 0.5,-2.0938 2.625,0.5 -1,3.5938 -1.5,4 -0.5,3.5 -1.5,3 -2.625,3.125 -4.5937,2 -3.5937,2.5937 -2,2 -3.0938,2 -2.5,2.0938 -1,4.5 1.5938,4.5 1.5,4 0.094,2.5 -0.5,2.5937 -3.0937,4 -1.5,2.5 -1.5,3.0938 0,4 1.5937,5 1.5937,3 0.5,2 2.625,0.5 2,-1 4.0938,-1 3.5938,0.4062 2.5937,2 1.5,1.5 1.5937,2.5 1,0.5 2.125,0.5 1.5,2.5 -2,3.0938 -1,2 1,2.5 -0.5,2.5 -1.5,0 0,3 -0.5,4.125 -2.5,5 -1,3 1,2 4.6876,1 5.0937,0.5 3.5937,2.5 3.125,1.5 3.0938,4.5 -0.5,2 -2,1 1,2.5 -0.5,2.5 -1.5,2.0937 -1.5,1 0,3.5 -0.5,1.5 -2,3 -0.5,2.0938 -0.5,2.5 -1,2 1,4 2.0938,3 1.5937,5 3.0937,3.5 1.5,3 2.625,4.0937 2.6876,5.5 3.5937,4.5 5.2187,7 1,2.5 2.0938,2 0,1 1.5,1.5 1.5938,1 1,4 1.0937,2 2.0937,3 4.125,2.5 0.5,1.5 2.5938,2.5 4.5938,0 6.1874,-0.094 3,-1 2.625,0.5 1,-1 1.5938,-1 2.5,2.5 2.5938,2.5 2.0937,2.5 2.5937,0 2,-2.5937 1,-3 1,-3.5 2,-0.5938 2.625,0.5 2.0938,2.5 1,3 1.0938,2.5938 3.0937,0.4062 1.5,1 1.0937,2.5 1.5,2 2.125,0 1.5,2 1.5938,1.5 1.5,0.5 1.5938,2 1,2 0.5,2.5 -1,2.5938 1.0937,1.5 2,0.5 5.2187,0.4062 4.5938,1 3.5938,0 5.5937,-0.125 5.5937,-2 0,-1.5 3.125,-3.0937 0,-3 2,-3 7.0938,-12.0938 5.5938,-5.5937 7.0937,-6.5938 3.5937,-3.5 6.125,-6.625 5.0938,-4.0937 5.5938,-5.0938 3.5,-5 4.0937,-3.0937 3.5937,-6 2,-4.0938 0.5,-2.5 0.4063,-3.5 0,-1.5 -1,-0.5 -2,-0.5 -1.0937,-1.5 -1.5,-1.5 1.5,-1.5 2,-0.5 3.5937,-1.125 2.5937,-2 0.5,-3 -0.5937,-5.0937 -0.5,-4 -0.094,-4.5 0,-3 2.5,-5.0938 1.5937,-0.5 5,-8.5937 4.5937,-6.5 3,-5.5938 4.625,-4.125 5.0938,-1.5 4.6875,1.5 4.5937,0.5 4.125,-3.0937 3.5,-3.5 2.0938,-1.0938 2.5,-2.5 3.5938,-2 1.5,-3.0937 2.5937,-3 1.5,1.5 -1,3.5 -1.5,3.5937 -1,2 -1.5,1 -3.0937,0.5 -3.0938,1 -3.0938,1.5938 -2.5,2.5 -4.125,3.0937 -2.5,0.5 -2.5937,0 -2.5937,-0.5 -3.0938,-0.5 -3.5,1.125 -3.5938,4 -3.625,5.0938 -4,7 -4.5937,8.0937 -2,2.5938 -1,3 -0.5,2.5 0.5,2.5 0.5937,2.5 2.5,0.5 3.125,0 3.0938,-1.5 3.5938,-1.0938 2.5,0 4.0937,0.5 3.0937,-1.5937 4.625,0.5 4.6876,0.5 2.5,-1 6.6874,-2.0938 4.125,-1.5 3,0.5 4.1876,0.875 2.5,2.5 2.5937,2.5 4.2187,6 2.5938,4 2.5938,4.125 0.5,3.5 1.0937,3.5 -1,3 -2.0937,0.5 -3.0938,2.0938 -2.5,1.5 -1.5,1.5 -0.5,1.5 0,2.5 -3.0938,1.0937 -2,0.5 -3.125,2.5 -2,0.5 -1.5937,0 -2,0.5938 -3.5937,2.5 -2.5938,1 -2.5,0.5 0,1.5937 2.5938,1.4063 3.0937,1 4.0937,3 4.125,1.5 2.0938,2 2.5,1.5 1.5938,0.5 4.5937,0 2.5937,0.4062 2,3 1.625,1.5 2.0938,1.5 2,1.5 2.0938,3.5 1.5937,1.5 3.5,0 3.0937,-1 3.625,-2 2,-1.5937 4.0938,2 1.0938,1.5 3.5937,-0.5 3.5937,-1 4.625,-1.0938 2,-1.5 2.0938,0 4.5938,-1.125 6.5937,-1.5 3.5937,0 4.125,-0.094 2.0938,1 1,1.5 1.0938,3 1,1.5 -2,2.0937 -0.5,1.5 -1,1.5 -2.0938,0.5 -3.0938,0.5 -1.5,1.625 -1,3 0,2 0.5938,3 0,2 -0.5,1.5 -2.5938,0.094 -5.625,2.5 -3.0937,0.5 -1,0.5 0.5,2.5937 2.0937,0.9063 3.125,1 9.1876,0 8.6874,1.9062 6.2188,0 4.0938,-2.625 2,-2 4.0937,-0.5 4.5937,-0.5937 5.125,-4 4.5938,-2.0938 4.0938,-3.5 1,-3 1,-4.0937 2,-2.5 5.0937,-1 6.2187,-0.5938 6.1876,0.5 8.6874,2.875 5.7188,2 2.5,1.5 7.1875,3 5.7187,1.4063 4.0938,2.5 6.1875,-0.5 6.0937,-3.5938 6.125,-4.5937 3.5938,-3.5 1,0 3.0938,-2 4.5937,-1.5938 5.5937,-4.125 4.125,-2 2.5,-1.5 5.0938,-4.0937 3.0938,-2.5 1.5,-0.5 3.5937,-0.094 29.5937,-28.3125 4,-7.0937 2.5,-5.0938 3.5,-11 3,-8.0937 2,-6.0938 2.125,-6 2.5,-5.125 3,-4 1.5,-2.5 2.5938,-4.0937 6.0938,-4.5938 2.9062,-3.8125 2.7812,-0.6875 3.4376,1.4375 0.062,0.062 0.125,0 3,2 -1.5,2.5 -5.625,1.5 -4.0937,6.0938 -3,7.0937 -4.5937,4.5 -2,4.125 -4.5938,12.0938 -1.9062,13.0937 -2.5,6.5 -3.5938,6.0938 -5,9.0937 -1.5,3.5 -2.5938,5.625 0.094,4.5 0.5,6 -0.9062,5 -3.5938,3.5938 -1.5,2.5 -3.0938,1.0937 -3.125,1 -6.5937,0.5 -6.1875,-0.4062 -4.0938,-2 -1.625,-1 -2,0 -1,1 -5.0937,4.0937 -8.1875,4.125 -4.0938,1.5 -4.625,3.5938 -4.0937,1.5 -5.0937,4 -6.0938,2.5937 -3.0938,2.5 -2.5,3.0938 -0.5,2 2.5,-0.5 1.5938,0 1.5,2.5 -2,3 -1,3.5 0.5938,4.0937 0.5,4 1.5937,2 4.5937,2 4.125,1.9063 4.0938,3.5 5.1875,1 4.0937,1.5 4.625,0.5 9.6876,-2.0938 5.1874,-2.5937 7.125,-5.0938 4.5938,-2.5 7.6875,-4.125 4.0937,-1.5 5.125,-2.5937 4.5938,-2.5 2.5,-4.0938 3.0938,-2 3,-3 3.0937,-4.0937 2,-3 0.5,-4.5 -0.094,-6.0938 -0.5,-4 -1.5938,-4.5 1,-3 2.5,-2.625 1.5938,-3.5 4,-3.5937 7.1874,-4 7.2188,-0.5938 6.0938,2 6.6874,4 4.7188,3.4063 1.5,0.5 2.5938,-1 0,-3 0.4062,-3.5 1.5938,-3.5938 4,-3 5.6874,-1.625 2.5,0 2.625,-1 2,-1.5 2.0938,-0.5 3.0938,-0.5937 4,-0.5 6.1874,2 2.625,2 5.6876,1.4062 5.5937,1.5 5.2187,2 5.5938,2 4.0938,1.9063 -2.5,2.5937 -4.0938,1 2.5938,5 1.0937,3.5 -0.5,2.5938 -0.5,2.5 1,3.5 2.0937,2.5 3.625,2 3.0938,3 1.5938,2.5 1.5,4.5 -1,1 -1,3 1.5937,1.5 2,-1 3.0937,-1.5 2,-1.5 3.625,-2.5938 3,-2 3.0938,0 2.5938,2 0.5,2.5 0.5937,3.5 0,4.5 2.5937,1.5 5.625,0.5 4.6876,-0.094 3.5,1.5 2.5937,0 2.0937,3.5 1.625,2.5 1.5,2 2.5938,0.5 6.6875,3 1.5,4.5 4.2187,1 4,-3.5938 1.5938,-1.5 2,-2 0,-1.5 4.5938,-2.125 7.0937,-5.0937 2.5937,-1.5 5.625,2.5 1.5938,1 1,3.5 1.5938,2.5 1,2 6.1874,0 4.125,0.4062 5.0938,1.5 7.6869,-2.0937 3.094,-0.5 0,2 8.219,1 -0.5,3.5 -5.594,-1 -2.125,-1 -11.1871,1.5937 -5.6876,0.5938 -2.5,2 -4.7187,-1 -2.5,-2 -9.4063,-11 -2,0.094 -2.0937,0.5 -2.5,0.5 -3.0937,3.5 -3,2.625 -3.0938,1 -0.5,1 -3.5938,3.5938 -4.625,2.5 -4.0937,-2 -3.5937,-3.5 -3.5938,-2 -1.5938,-1.5 -1.5,0.5937 0,2 1.5938,2.5 1.5,2.5 -1,1 -2.5,-1 -3.0938,-3 0.875,-5.5 -0.5,-3.5937 -1.5937,-2.5 -2.5,-1.5 -3.0937,-1.4063 -1.5938,1 -2,2 -2,3.5 -2.5938,3.5938 0.5938,2.5 0.5,4.5 1.0938,3 0,6.5937 -1.5,3.5 0.5,2.5 3.5937,0.5 4.0937,-0.5 3.125,-2.5937 3.5938,-1 3.0938,-0.5 0,2 -5.6876,2.5 -2.5,1.5937 -2.625,1.5 -1,1.5 -1,5.5 -0.375,2.625 -2.125,0 0,-2.5 -0.5937,-2.625 0,-4 -1,0 -2.5937,-2 -1.5,-2 0.4062,-3.5 1,-4 -2,-4 -1.0938,-3.5 -1.625,-2.5937 -1.5,-3 -2.0937,-3 -1.5,-1.5 -0.5937,-6 0,-3.5 -5.6876,-2 -6.125,0.5937 -3.5937,-0.5 -4.1875,-2.5 -2.0938,-6 -1,-4.0937 -3.125,-1.9063 -5.6874,-2 -2.5,1 -0.5,3 -2,3.625 -1.5,7.5 -1,10.5938 -2,6 -0.5,2.5937 0.094,3 2,5 -1,3 -3,1.0938 -3.5937,1 -4.0938,2 -4.5938,3.5937 -4.125,4.5 -2,-1.5 -5.6874,-7.5 -3.0938,-5 -4.7188,-3.5 -3.0937,-2.5 -1.5,-4 -2.0937,-1.5 -2.5938,1.125 -1.5,-4.625 -1.0938,-2 3.5938,-2.5 2.5,-3.5 1,-0.094 2.0938,-3.5 1.5,-5 2.5,-3.0938 3.5937,-1 1.0937,4 1,1.5 2.625,0 3.5,-1 3.5938,-2.5937 4.5938,-2 4.5937,-1.5938 6.2187,1.5 3.5938,-0.5 -0.094,-4.5 1,-2.625 4.0938,-2 2.0938,-2 -2.5938,-5 -1.0938,-3.5937 0,-5.5 -0.125,-4.5 -1,-1 -4.5937,-1.5 -5.6875,-2 -3.0938,-3 -4.125,-2.5 -2.5937,-0.4063 -3.5937,-1 -4.5938,1 -6.5938,1.625 -2.125,1 0,4.5 -0.375,3.5 -2.125,3.0938 -4.5937,1 -4.5937,0.5937 -6.0938,1 -7.2188,-3.5 -3.6874,-3 -6.0938,-2.9062 -5.7188,1.5 -2.5,1.5 -4.5937,3.5937 -0.5,5 0.5937,6.125 1.625,6 0,12.0938 1.5938,1.5 -0.5,1 -0.5,1.5 -4.0938,0 -3.125,1 -5.0937,5.5937 -2,1.5 -1.5,2.5938 -2,5 -3.0937,2 -2,2.0937 -3.5938,2.5 -3.0938,2 -3,1.125 -3.625,1 -6.1874,0.5 -1.5,2.0938 -1,3 1.5,1.5 2.5937,1 3.5937,1 3.625,1.9062 2.5938,-1.5 2,-2 4.0938,-2 4.5937,0.875 3.5937,1.5 1.625,2.5 1,3.5 2.0938,2.5 2.5938,2 -2,1.5 -2.5938,0.625 -2,2 -3.0938,4 -1.5,1.5938 -3.125,0.5 -0.5,-2 -1,0 -3.0937,0.5 -0.5,-2 -2.0937,-1.5 -1,0 -1.5938,1.5 -2,2.5937 -3.0938,0 -5.125,-1.5 -4.6874,-3.5 -7.1876,-2.9062 -9.8124,-5.5 -5.0938,-1.5 -1,1 -5.2188,-0.9063 -3.5,1 -2.5937,1.5 -3.5937,1.625 -3,1.5 -4.5938,0.5 -3.5938,0 -13.9062,-2.4062 -15.9062,-3.4063 -4.1876,-3.5 -3,-1 -3.125,-0.5 -3.0937,-0.4062 -2.0937,-1 -4.5938,0 -2,-1 -3.7188,-2 -2,-0.5 -3.5937,-2 -2.5937,0.5937 -2.5,-0.5 -4.6876,-0.5 -5.125,-1 -3.5937,-2.875 -6.1875,-2.5 -3.0938,-2.5 -1.625,-3 -3,-0.5 -5.6874,0.5 -5.0938,0.5938 -5.0938,-0.5 -3.625,-1 -3.5937,-1.5 -6.6875,-1.4063 -7.2188,-1.5 -5.0937,-1.5 -3.0937,-1.4062 -1.5938,-2 -2.5938,-1 -4.125,-0.5 -1,1.5 -6.6874,0 -7.6876,0.094 -4.125,0.5 -3.5937,-0.375 -3,-1 -3.5937,-2.5 -2.5938,-2 -2.5938,-1.5 -2.625,0 -4.5937,0.5 -3.5937,0.094 -5.5938,-2.5 -3.5938,-1.5 -6.7187,-0.9063 -3.5937,-1 -5.6876,0.5 -4.625,2.0938 -4.5937,1 -5.0937,2 -3,2.0937 -3.5938,-0.5 -5.2188,-2 -3.5937,0 -2.5,0.125 -1.5937,-0.5 -1.5,2 -0.5,2.5 -4.0938,1.5 -9.7188,2.5938 -11.7812,4.0937 -8.7188,2.0938 -5.5937,4.0937 -6.0937,5 -4.5938,3.625 -3.0938,1.5 -3,0.5938 -2.625,0.5 -3.0937,2 -4.0937,0 -5.0938,-1.9063 -5.2188,-2.5 -5.5937,-3 -4.6875,-6 -4.7188,-9.5 -3.5937,-5.5 -4.6875,-4.5 -6.5938,-1.5 -7.8124,-2 -6.5938,-2.4062 -8.3125,-1 -8.6875,-0.4063 -7.2188,-1 -5.5937,1.125 -3.0937,2 -3,2 -2.0938,1 -3.0938,1.0938 -2.5,0.5 -2.625,3 -0.375,4.0937 -1,3.5 -2.625,1.5 -3.5937,2 -3,1.0938 -1,4.5 -1.5,4 -2.0937,2.5937 -2,2 -2,3 -2.5938,1.125 -1.5,-0.5 -0.5,2.5 -1,2.5 -2.5938,2 -4.125,3.5938 -3.5,2 -4.0937,0.094 -5.1875,-0.5 -3.5,1 -5.2188,3.0937 -8.0937,5.5938 -6.1875,0 -5.0938,-2 -3.125,-3 -2.0937,-2.5 -4.0937,-0.5 -3.5938,0.125 -2.5938,-2 -1.5,-1.5 -2.125,0.5 -1,1.5 -1,4 1.125,2.5937 0.5,3 1.5938,3 0.5,2 2.0938,1 1.5,1.5 -0.5,4.5 -1,3.5 -2,3.0938 -2,4 -2.0938,2.5 -2,2.5937 -2.5,1.5 -4.7188,-1 -4.5937,-0.5 -2.5,2.5938 0.5,3.5 0,2.5 -1.5,2.5 -2,0.125 -4.5937,3.5 1.5,1.5 -0.5,1.5 -2,1 -2.0938,0.6875 2.5938,1.4062 -1,2.5 -2,0.5 -2.0938,0 -3.0938,-2 -3.125,-1.5 -2.0937,-3.5 -1,-3 -2.5937,-1 -1.5,0 -2.5938,0.5 -1.5,0.094 -2.0938,-0.5 -1,-1.5 -2.125,-0.5 -1.5,0.5 0,2 0.5,1 1.625,1.5 0.5,1.5 0.5,2 2.5938,2 2.0938,2 0,2.5 -1,3.0938 -0.5,1.5 1,0 2.5937,-0.094 2,1 1.0937,2 1.5,2 0.625,2.5937 -1,2.5 -0.5,1.5 0,2 0.5,1.5 1.0938,2.5 2,1.5 3.0938,-0.5 7.1874,2 3.625,0.9063 1.0938,5.5937 2,2 2.5938,2 1.5937,3 0,2 -1,1.5 -2.0937,3.5 -0.5,2 2.0937,0.5 1,-2 1.5,-1.5 2.5937,-1 3.625,2 3.5938,-0.5937 -2,4.5937 3.5938,3 4.0937,-0.094 0.5,-3 -1.0937,-2 -0.5,-1 -1,-4 3,0.5 3.0937,3.5 1.5937,1.5 3.625,-2.5937 -0.125,-2.5 3.625,-1 3.0938,1.5 -0.5,4 -1.5,1.5 2.0938,1 4.5937,-0.5 3.5937,-1 4.625,-0.5938 4.5938,2 4.0938,3.5 1.5937,2.5 -1,3.5 0,1.5 2.5937,0 2.625,1 2.5938,3.5 1,3.5 -2.5938,1.0938 -1.5,-0.5 -2,0.5 0.5,1.5 2.0938,3 1,4 2.0938,3 1.0937,5 0.5,5.0937 -2,1.5 -2.0937,1 -1.5,1 2.5937,3 2.5,1 1.5937,3 2.625,8.0938 1.5938,8 1.0938,5 -0.5,2.5 -1,0.5 -1.5,2.0937 1,1.5 1.5937,1.5 1,4 0,1.5 -1.5,1.5 -6.6875,1.625 -2,0 -2.0938,-0.5 -1.5,-1 -2.125,1 -1,1 -3,1.5938 -3.0937,0.5 -4.5937,2.5 -0.5,1.5 1.5,2.0937 3.5937,-0.094 3.0937,0 1.625,1 2,-1 1,-1.5 2.5938,-0.5938 2.5938,1 1,1 0,1 -3.0938,-0.4062 -1.5,0 -2.5938,3.5 -1.5,3 -2.5,2.0937 -2.625,1 -2.5937,0 -2.5,0.5 -1,0.5 0.5,2 3.5937,1 1,1 2.125,1.5 0.5,1.5 0.5938,2.5 -1,3.5938 0,1 4.5938,0.4062 6.0937,2 7.2187,1 5.6876,0.9063 4.5937,-2.5 5.0937,-0.5 4.125,0.9062 5.1876,2.5 2.5937,3 1.5,1 4.0937,0 2.125,2 2,2 2.0938,1.5 5.0938,-2.625 3.0937,1.5 3.0937,3 1.625,4 1.5938,4.5 3.5938,3.5 4.0937,2.5 3.5937,2.5 3.125,4.5 1.5938,5.625 1,0.5 1.0938,-0.125 1.5,-1 1,-1 1.5937,2.5 0,2.5 2.5937,4 1.5,2 0.625,2.125 1.5,3 1.0938,1.5 -0.5,2.5 -2.0938,-0.5 -2.625,-2.5 -1,-1.5 0,2 1.125,2.5 2.0938,5 2.5,3.5 -1.5,2.5938 -2,-1.5 -2.0938,-5.0938 -2.625,-5 -1.0937,-2.5 -3.0937,-2 -2.5,0.094 -3.0938,-1 -4.0938,0 -2.125,1 -1.5,2 -1,3.5937 -0.5,4 -2,1.5 -3.0937,-1 -3.5937,0.094 -1.5,-2 -0.5938,-2.5938 -1,-1 -1,1.0938 -0.5,1.5 0.5,2.5 2.0938,2.5 3.0937,4 4.5937,2 1,0 3.7188,2.5 3,0.9062 2.5938,0.5 0.5,2.5 -2.5,2.0938 -2,2.5 -1.5938,1 -1.5,0 -2.0938,-0.5 -1,1.5 1.0938,1.5937 1.5,3.5 4.6875,3.5 3.5937,2.4063 3.125,4.5937 3.5938,2.9063 2.0938,2.5 2.5937,1.5 2.5,-0.5 1.5,-3.5 0,-4 0.5,-3.0938 1.5,-2.5 3.5937,-1.5 5.125,-1.0937 1.5938,1 -1.0938,1.5937 -2.5,4 0.5,2 5.1876,4 4.5937,-1 2.0937,7.5 3.125,7 2.0938,5 1.5938,3.5 2.0937,1.5 1.5,0 1.5937,2 1,2 2.625,1.5 1,1 2.0938,5 2.5938,3 1.0937,5.5938 1.5937,6.5 2.625,6.5 0,4 0.5938,4.0937 -0.5,2 1,3.5 1.0938,2.5 0.5,3 -0.5,3.5 -0.5,2.125 1,2 1.0937,1 1.0937,6 0,6 0.5,3.0938 0.125,1.5 0.5,4.5 1,2.5 0.5938,2.5 1.5,2 -0.5,2.5 -2,2.5937 -0.5,3.5 0,2 0.5938,4.5 0.5937,6.0938 3.0937,5 3.625,7 3.0938,6.5 1.5938,4.5 2.0937,0.5 0.5,2 0,1.5 0.5937,3.5 4.125,6.5937 2.5938,4.5 3.0938,5.5 4.1874,14 1.625,5.125 -0.9062,14.5938 0.5938,6 1.5,2.5 2.0937,1 1,0.5 5.2187,0.5 4.5938,-0.094 4.0938,-0.5 2.5,-3.625 2.0937,-0.5 0.5,2 3.5937,3 5.7188,2.5 5.0938,1 4.5937,1 2.5937,0.9063 4.125,2.5 3.0938,2 0.5,1.5 -2,0.5 -1.5,1.5937 0,3 1,3 1.0938,4 0,3 -0.5,1.5 -1,2.125 1.0937,4 0.5,2.5 2.0937,3 4.125,-0.5 4.0938,-2.625 7.6875,0.5 8.2187,0.4063 7.1876,0.5 9.1874,-0.5938 7.7188,0.5 4.0938,2.4063 0.5,4 -3,1.5937 -6.6876,-2.5 -8.7187,0.5938 -4.0937,1 -2.5938,1.5937 -1,1.5 0.5938,7.5 -2.5938,-6.5 -0.5938,-2.5 -4.125,-2 -3.0937,1 -4.5,2.625 -2.0937,4 1.5937,2.5 5.7187,4 -4.125,0 -3.0937,-2.5 -4.0937,2.5938 -4.5938,1.5 -4.0938,0 -3.125,-0.4063 -3.5937,2 -3.0937,1 -2,-1.5 -1.5938,-3 -2,-0.5 -2.0938,0.094 -3.625,0.5 -2.5,-2 -1.0937,-1 -1.5,0 -1.5937,0.5 -1,-0.5 -3.5938,-0.5 -3.0938,-0.9063 -3,-0.5 -0.125,-2.5 -3.0937,-3.5 -2.5937,-2 -4.0938,-2 -6.2188,-3 -3.0937,-4 -3.0937,-2 -1,-3 -2.0938,-5.5 0.4062,-8.0937 -0.5,-7.5 -0.625,-3 -0.5,-3.5938 -0.5,-1.5 -1.5937,-3.5 -3.0937,-4 -1.5938,-1.5 -4.0938,-2 -2.5,1.0938 -3.625,2 -3.0937,2.5 -1.5,1.5937 -1,1 0,1 1,0.5 0.5937,2 -1.5937,1.5 -0.5,2 5.2187,2 1.5,0 0,2 -2,0.5 -3.125,0.5 -2,0.125 -1.5937,-1.5 -1.5937,-3.125 1,-4 -1,-1 -2,0.5 -3.0938,-1 -2.5938,0.125 -1.5,-2 -1.125,-4.125 -2.0937,-1.375 -5.0937,-5 -2.5938,-4.625 -1.0938,-4.5 -1.125,-3.5 -2,0.5 0,1 -1.5,1.625 -2.0937,0 -2,-2 -3.0937,-2.5 -3.5938,-1 -2.5938,1.5 -1.5,2.5 1.5,1.5 4.1876,1.5 3.5937,0 3.0937,3 -4.0937,1 -1.5937,-1 -3.0938,-1.4062 -3.0938,0 -4.125,0.5 -1,1 -3,5.0937 -2.0937,0.5 0,-5 2.5,-5.0937 3.0937,-3.5 0,-2.0938 -0.094,-3 3.0937,0.5 4.125,-3 4.0938,-3.125 0.5,-2.5 -3.2188,-6 -2.5,-2.5 -3.0937,1 -2.5937,-1 -2.5938,-0.5 -4.0938,0.125 -1.5,-1.5 -3.125,-2 -2,1 -1.5937,1 -1.5,3 -2,2.0938 -2.0937,0.5 1.5,-4.0938 2,-5 1.5937,-3 -2.0937,-2.5 -2.5938,-2 -2.5938,-1 -4.125,0.5 -2.5,0 -2.0937,0.094 -1.5,1.5 -3.0937,2.5 -2,3.5 0.5,2.0937 0.5937,2.5 -2.0937,2.5 -2,-0.5 -0.5938,-3 0,-4.5 1,-4.5937 2.5,-2.5 3.5938,-1 0,-5.0938 -1.0938,-2.5 -1.5,-4 -3.0938,-4 -2.125,-2 -4.0937,-3.5 -3.0937,-1.5 -2.0938,-0.5 -2.5,0.5938 -2.5938,1.5 -4.125,0.5 -6.1874,-0.9063 -5.0938,0 -1.5,1 0,2 2.5938,0.5 1.5,1.5 1.0937,1.5 -1.0937,1 -2,1 -0.5,-2 -3.5938,-1.5 -1.0938,-4 -1,-1 -2.625,-1 -2.0937,-2 -2,-2 -3.5937,-1.9062 -2.5938,-2.5 -1.5938,-1 -2,-2 -2.125,-3 -1.0937,-3.5938 -1.5,-3 -2.5937,0.5938 -4.5938,1.5 -4.5938,1 -6.2187,-0.4063 -7.1875,-2 -3.5938,-1.5 -5.7187,-5.5 -4.5937,-5.5 -1.5938,-1 -1,-1 -3.0938,-2.5 -2.125,-2 -1.5,-4.5 1.5,-2.5 2.5,-1.5 2.125,1.5 1.5,-1.0937 1.5,-3 0,-2 -2,-2 0.375,-4 1.125,-1.5 -1.125,-2.0938 -3.0937,-1.4062 -3.0937,-1 -2,-1 -1.5938,-1 -1.5,-3.5 -1.5938,-3 -1.625,-2.5 -3.5937,-0.5 -2.5,1 -1,-1.5 0.5,-1 1.5,-0.5 -1.0937,-3 0,-4.0938 1,-2.5 2.5937,-1 2,0.5 4.0937,-1 1.5,-3.0937 0,-2 -2.5,-0.5 -2.5937,-2 -0.5937,-3 1,-2.5 3.0937,-2 -1,-2 -5.0937,3 -1.0938,-2 2,-3 2.5938,-5.0938 0,-1.5 2,-6 -0.094,-5.125 -1.5938,-7.5 -2.125,-6 -1.0937,-5.5937 -0.5,-7.5 0,-2 2.5,-1.5 1.5,-1.0938 -1,-2 -1.5937,-2.5 2.0937,-2 0,-3 0.5,-1.5 1.5,0 2.5937,-0.094 2.5,-3 1.5,0.5 1.125,1 -0.5,3 -0.5,2.5 2.5938,1.5 1.5,-0.5 2.0938,1 1.5,1 1.5937,0 2,-2.5 0,-4.0938 3,-3 2.5,-3.5 -1,-1 -3.5937,-2.5 -2.0938,-1 -2.5,-0.5 -2.0938,1 -3.625,-0.5 -1,-2.5 -0.5,-2 -0.5937,-3 -1,-2.5 -2.5937,-1.5 -0.5,-2.5 1,-1 -0.5,-1 -3.0938,-1 -0.5,-1 1.5,-1 2.5,-3.125 0,-1 -1.5,-1 1,-2 0,-1 -0.5938,-4.5 0,-2 -1.625,-5.5937 -1.6874,-23.5938 -1.5938,-3 -3.0938,-3.5 -4.625,-7.5 -1.5937,-2 -2.0937,-2 -2,-2.5 -3.5938,-2 -2.5938,-0.5 -4.125,-1 -3.5937,1.5938 -3.0937,1 -2,-0.5 -2.0938,0 -2.5,0.5 -1.5938,0 -1,1.0937 -2.625,-2 -2,0.5 -3.5937,0 -1.5937,-0.5 -8.0938,2.125 -4.0938,0.5 -4.125,0 -2.0937,-1 -3.5937,-3.5 -3.5938,-0.4062 -1.0938,-1.5 -1,0 -1.5,-1 -0.5,2 1,2.5 0,1.5 -2.5,6.0937 -1,3 -1,2.5 -1.5,3 -2,2.5938 -3.125,1.5 -3.5937,1 -2,-0.5 -3.6875,-1.4063 -4.0938,0.5 -2,2.5 -2,0.5 -3.125,2.625 -1,2.5 1.625,6 1.0938,5 0,9.5938 -0.4062,7.0937 1,3 0.5937,4.5 1,4 0.094,5 0,6.0938 1.125,11 0.5938,7.5937 2.0938,7 0,4 0.5937,3.125 0.5,2.5 1.5937,11 1.625,7.0938 0.5938,5.5 0.5,5.5 0.5938,4 0,3.5937 -1,2.5 -0.5,2 0.5937,2.5 1,2.5 0.5937,5.5938 0,6.5 -0.5,5.5 -0.375,11.0937 -0.9062,11.125 -0.5,5 -0.5,1 -1.5,1.5938 -0.5,1 1,2.5 -1,4.5 1.0938,3 0,1.5 -3.0938,1.5937 -1,1 0,1.5 1.0938,3 -1,2.5 -1.5938,1 -1,1 -2,1.0938 -1.5938,0.5 -1.5,0 -1.125,-1 -1,-1 -1.5,1 -0.5,1.5 -1.5937,0.5 -2,0.5 -1.5,2.5937 1.5,2.5 0.5937,2 0,2 -0.5,2.5 0,5.625 0.125,2 -1.125,1 -0.5,1 -0.5,1.5 0,1.5 1.125,1 1,2 0,1 -0.5,1.5 0,1 2.0938,1 0.5,2 0.5,1.0938 -0.5,1.5 0.094,1.5 -0.5,2 0.5,2 0.5,1.5 0,4 -0.5,2.5 -1,3.5937 -0.9063,3.5 -1.0937,1.5 -0.5,1.5 0.094,3.5938 -0.5,1 -1.5937,1.5 0,1.5 0.5937,1 0,1.5 1,1.5 0.5,1.5 0.094,2.5 0.5,1 0,5.5937 1.625,2 2.0938,4.5 2.5938,4 1.5,1.5 2.0937,2 3.0937,3 0.5,2 1.125,2.5 0,5.5 1,1.5 1.0938,0.5 0.5,-1 0,-2.5 1,-1.5 2,-2.5 2,-0.5 3.0938,-1.0937 5.1874,0.5 4.125,2.5 5.5938,2 4.6875,2.9062 4.5937,6.5938 2.625,3.5 4.1876,8 1.5937,4 1,5.5 1.0937,6.5937 1.125,8.5 0.5938,9.125 0.5938,5.5 0,4.5 -0.5,2.5 0,2.5938 1.0937,3 1.5,2 2.0937,3 -1,3 1.625,2.5 1,1 1,2 0.5938,2.5 0.5,4.5 1.0938,3.0937 1,1.5 1.5937,1 1,1 1,2.5 0.5937,3 0,1.5 1.5,2 1.625,1.5 0.5,2.5 0.5938,1.5 0,3.5 -0.5,2.5938 0.5,1.5 0,1.5 1.0938,0.5 1,1 1,1.5 1.5937,1 0,1 0.5,2.5 0.5,1 1.0937,1 0.5,1.5 1,2 1.625,1.5 0.5,2 0.5938,3 -0.5,1.5 1,4.5937 0.5,2.5 1.5938,2.5 1.5937,1.5 1.5,1.5 0.5,2.5 0.5937,1.5 0.5,3.5 -0.5,4 -0.5,3.125 -0.375,3.5 0.5,2.5 0,4.5 -0.5,4.0938 -0.5,2 -0.4062,3.5 -1.5938,2.5 0.094,2.5 0.5,2.5 -1,2.5937 -0.5,2 0.5,4.5 -2,7.0938 -0.9062,5 0,2.4062 4265.7812,0 -40.812,-35.8125 -38.688,-33.3751 -50.625,-44.4063 -9.781,-8.5 -75.406,-65.8125 -1.594,0.094 -105.094,-92.2813 -63.812,-56.0937 -30,-26.4063 -22.094,-19.5937 -25.813,-22.7188 -67.687,-59.0937 -92.906,-81.1875 -62.313,-54.4063 -33.187,-29.0937 -29.313,-25.3125 -38.375,-33.5938 -29.5,-25.7187 -40,-34.7813 -56.125,-48.8125 -98.094,-85.7812 -50.687,-44.3125 -10.813,-9.5 -36.093,-31.5938 -25.188,-22.2187 -46.625,-40.5938 -30.781,-26.6875 -7.313,-6.4062 -34.187,-29.8125 -23.313,-20.2813 -107.781,-94.4999 -10.719,-9.4063 -18.093,-15.6875 -38.5,-33.4062 -18.407,-16.0938 -80.687,-70.5 -104.219,-91.4062 -4.5,-3.9063 -83.687,-73 -2.188,-1.9063 -21.719,-18.9062 -18,-15.6875 -9.687,-8.5 -6.813,-5.9063 -53.781,-46.7812 -22.125,-19 -21.875,-19.7188 -12.719,-11.2812 -7.781,-6.9062 -30.812,-27 -2.313,-1.3126 -28.187,-24.5 -3.313,-2.9062 -18.281,-16.1875 -8.5,-7.5 L 577,3512 z m 1670.6874,877.3125 -5.0937,4.5 -4.5937,4.0937 -10.1876,10.0938 4.6876,2 4.5937,1 3.0937,-1.5 4.125,-2.5938 1.5,-1.5 1,-2.5 1,-3.0937 0.5,-4 -0.625,-6.5 z m -287.2812,3.5 -2.5,1.5 2.5938,4 0,6 7.6874,-2.5 4.125,3 1.0938,5 0,3.5 4.1875,2.5 4.5937,0.5 1,1 2.125,-0.5 1,-1.125 5.5938,0 0.5,-2 1.5,-1.5 -0.5,-3 -1,-3.0938 -4.2188,-1.9062 -6.6874,-3.5 -12.3126,-4 -8.7812,-3.875 z m 174.7812,39.5 2.125,6 0,7.5937 2.0938,7 2.6875,6 3.0937,9.5938 3.625,4 6.6876,4.5 9.8124,-0.094 7.6876,2 6.6874,0.9062 4.625,-1 4,-3.125 -5.125,-5 -2.0937,-1 -3.5937,-0.875 -3.5938,0.5 -2,-0.5 -2.0938,1 -4.625,-1.5 -3.5937,-2.4062 -4.0937,-3 -2.0938,2.5 -3.5938,-1 -1.5,-5 -0.625,-3 4.625,-4.5938 1,-2.5 6.6876,-2.125 2.5,-2.5 2.0937,-0.5 1.5,1.5 1,-2.5 -3.0937,-2.5 -5.0938,-1 -4.5938,-1.5 -3.625,-1 -2.0937,0 -15.4063,-4.875 z m -14.875,1.5937 -1.5,3.5938 -1,8 -2,3.5937 -8.2187,2.5 -9.1875,3.0938 0,2.5 4.6875,4 8.2187,3 7.6876,0.4062 5.0937,1 4.2187,2 3.5938,1 1.5,-2 -2.5938,-5.0937 -1.125,-3 -1.5,-4.5 -0.5937,-4.5 -1,-4 -0.5937,-3 -1.5938,-5.0938 -4.0938,-3.5 z m -509.4062,198.6875 -2,0.094 -3.5938,2.5 -2,2.5 -3.125,2.125 -2.5,3 -1,3.5 -0.5,2.5 0.5,2.0937 2.625,0.9063 2.5,1 2.0938,0 2,1 5.1875,1 1.5,0 2.5937,-0.5 2.5,-3.125 1.5,-4 -2.0937,-6 -2,-2.5 -2.0937,-4.0938 -2.0938,-2 z m 50.0938,45.5 -5.5938,1.5 -2.5,3.5938 5.6875,15 -0.5,4.625 1.5937,1.5 2.125,2 2,2 3.0938,-1.125 2.5938,0 -0.094,-3.5 2.5938,-2.5 -0.5938,-3 -1.5,-0.5 -2.5938,0.5 -2,2 -3.625,0 -0.5,-2.5 7.125,-6.0938 -7.3124,-13.5 z m 32.1874,41.5 0,2.5938 -0.875,13 7.6876,2 4.5937,0.5 2.5937,3 5.625,1.5 1,-5.0938 8.1876,1 0.5937,3 -2.5937,3.5 1.0937,3.5 8.2187,2 L 1737,4749 l 3.0937,2.5 4.7187,8 7.1876,2 7.6874,5 6.2188,2.5 9.1875,2.9062 7.7187,-2.0937 4.0938,-5 -0.5938,-5.5 -4.125,-7.625 -5.6874,-2.875 -5.1876,-4 -3.125,0 -4.0937,-3.5 -4.5937,-2 -1.0938,-2.5 -3,1 -5.7188,-2.9063 -0.5,-3.5937 -3.6874,-3 -4.5938,-1.9063 -2,-1 -5.7188,0.5 -10.6874,0.5938 -29.3126,-6.9063 z"
     id="rect8"
     inkscape:connector-curvature="0" />
  <path
	 style="fill:#9FAEC0"
	 stroke="#9FAEC0"
	 stroke-width="10"
	 transform="translate(0, 50)"
     d="m 1617,5268 0,0.094 -0.5,2 0.5,2.5938 -0.4063,5.5 -1,7 -1,8.125 -1,2.5 -1,3.5937 0.5,1 -0.5,1 -1,2.5 -0.5,1.5 0,2 0.094,3 -2.0937,3.5938 -0.4063,2.5 -1.5,4.5 -0.5,2.0937 -1.5,9 0.5,3 0.125,3.5938 1,4 1.5938,4 1.5,1.5 1.5938,2.5 0.5937,5 1.5,3 0,4.125 -1.5,0.5 -1,-0.5 0,2 1,1.5 0.5937,1 0.5,3 -0.5,3 0,5.0937 0.625,1.5 0.5,1.5 1.5,1.5 1.0938,2.5 3.5938,4 0.5937,3.5 1.5,4 1.0937,2 1.5,1.5 1,0 1.125,-0.5 1,-1 1.5,-1 1,0 2.0938,-0.094 1.5,0 1.0938,1.5 4.5937,2.5 1.5937,2.5 2.5,2 2.125,2 1.0938,2 1.5,2 1.0938,2.5 2,5.5937 0.5937,2.5 0.5,4.5 0.5937,2 -0.5,2 -0.5,1 1,1 1,0.5 1.625,0.5 1.5,2 1.5938,1.5 1,0.5 2.5938,0 2,0.5 2.0937,2 1,2 0,1 1.0937,2 3.125,2.5 1,2.5 0.5938,2 0,6.0938 -0.5,3 -0.5,2 -1,2 0,2.5 0.5938,1 1,1.5 2.5937,0 1.5,1 1,1.5 0.5937,2.5 1.5,0.5 1.125,0.5 2,-1.5 2,-1 1.5938,-1 2,-0.5938 5.0938,-1.5 9.3124,5.5 4.6876,4 4.0937,4 4.5937,4.5 2.125,2.5 2.0938,2 2.5938,3.5 1.5,3 1.0937,3 0.5,1 2.0937,1 1,1 1.625,2 1,0.5 0.5,1.5 -0.5,2 1.0938,3 1.5,1.5 1,0.5 1.5938,1 0.5,1 0.5,1.5 1.0937,4 1.5,1.5 0.5937,1 1,1.5 0,1.5 1.125,2 1,1.5 1,2 2.5938,2.5 2.5938,1.5 1.5,1 1.0937,3 3.0937,4.0938 2.625,3.5 2.5938,2.5 1.5,2 1.5938,1.5 1.5,0.4062 0.5937,2.5938 0.5,2.5 1.0937,3.5 1,2.5 1.125,3 1,2.5 2.5938,1.5 2.5,0 1.0938,1 1,2 1,0.5 3.0937,2.5 1.0937,1 1,2 1.125,1 0,1 1.5,1 1,1 1.0938,0 1.5,1 1,1 2.5938,1 1.0937,1.5 1.5,1 2.0937,2 3.625,3 2.0938,3.5 3.5938,3.5 6.1874,2.9062 3.125,3 2.5938,4 3.5938,1 3.0937,2 1.5,1.5 1.5937,2 1,1.5 0.5,1.5 0.5,1 0.625,2 1,1 1.5938,0.5 3,-1 2.0938,0.5 1.5,1 1.5937,1 2,2 1.5937,2 1.625,2.5 0.5,1.5 1,0.5 1,0 2.0938,0.5 1.5,1 1.5938,1.5 2,0 1.0937,-0.094 1,0.5 1.5,0.5 1.0937,1 1,0.5 1,1 1.125,0 1,0.5 2.0938,1.5 2,1.5 3.0938,2 3.0937,1 4.5937,1 2.625,0.875 3.5938,1 2.5938,0.5 1,1 1.5,0.5 1.5937,-0.5 2,0 1.5937,-0.5 1.5,1 2.125,2 2.5,1.4063 1.5938,0.5 2.5938,0.5 1,0 1.5,0.5 1.5937,-0.5 1,-0.5 2,0 2.0937,0.5 1,0.5 2.125,-0.094 1.5,0 7.1876,-2 2,-1.0938 2.0937,-0.5 1.5,0.5 1.5937,0.5 2,0.5 2.125,-0.5 4.0938,0 1,-1.0937 1,-3 0,-2 2,-4.5 7.0938,-3.625 6.1874,-0.094 2,0.5 2.625,1.5 4.5938,1.5 3.5938,2 4.0937,-0.5 2.0937,-0.5938 1.5,0.5 2.125,3 1,1 3.0938,1.5 2.0938,0.5 2.0937,0 1.5,-1 1.5,-0.5 1,-1.5937 2.0937,-0.5 2.5,-2 2.125,-3 1,-1.5938 2,-2.5 1,-1.5 3.0938,-2 1.5,-0.5 2,-1.125 2.5938,-2 3.0937,-1.5 2,-1.5937 1.5,-1.5 3.0937,-1 2.625,0.5 2.5,0.5 3.0938,1 1,0.5 2.0938,0.4062 2.0937,1 4.0937,2.5 7.2188,3.5 4.5938,3 4.1874,3.5 4.625,4 5.6876,6 6.1874,7.5 3.625,5 9.375,13 4.7188,8 4.5938,8 3.1874,7 2.625,5.5938 2.5938,6 2.5938,5.5 2.5937,3.5 2.5937,4.5 5.2188,11 4.1875,8.0937 1,3 1.5937,3.5 1.625,4 1.5938,4.5 2,4 1.0938,1.5 1,1 1,0.5 1.5937,-1 3.0937,-0.5 0,2 -1.0937,1 -1,2 -0.5,2.125 0.5937,1.5 0.5,3 1.625,3.5 1.5938,5 2.0938,7 2,4.5938 2.5937,4 1.0937,3 2.125,4.5 1,3.5 0.5938,2.5 0,1.5 3.0938,-0.5 2,-1.5 3.0937,-1.5938 5.0937,-1.5 2.5,-0.5 1.625,0.5 0,2.5 -3.125,1 -4.5937,1.0938 -2.5,1.5 -1.5937,0 -2,1.5 -1.5,1 -1.5938,1.5937 -1,2.5 -0.5,3.5 -2,5.5937 -2,6.5001 -1.4062,8.5938 -1,3 -1.5,3.5 -1,5.125 0,5 -0.5,2 0.5,1 -2,3.0938 -0.5,1.5 -0.5,2 0,1.5 0.5937,2.5 0,1 1,2 1.5937,5 0,1.0937 -0.5,1.5 -1.5,0 -1.5937,-5.5937 -1.0937,-2 -2,1.0937 0,3.5 0.094,6 0,5.5937 0.094,6.5 0,5 -0.5,4.5938 -0.375,8 -1.5,7.625 -0.5,5.5 -0.4062,4.0938 -2.5938,6.5 -0.4062,6.5937 -1,4.5 -1,2 -2.5,5.5937 -2,7 -1,2.5938 -3.5,10.5 -2.5938,5.625 -2,3.5 -3.5,5.0938 -4.125,7.5937 -5,9.0937 -1.5937,2 -5,7.5938 -4.5937,5 -3,3.625 -2.5938,1.5 -2,2 -3.5938,2.5938 -3,2 -3.625,2.5937 -2.0937,1 -3.5937,1 -3.5,-0.5 -2.5938,-0.5 -2.0938,-0.4063 -1,-2.5 -1.625,-4.0937 -1,-3.5 -2.0937,-5 -1.5937,-2.5 -1,-1 -5.6876,-5 -3.125,-3 -3.0937,-2 -5.0937,-2 -1.5938,-2.5 -0.5,-1.5 -2.5938,-2 -2.625,-1.5 -4.5937,-1.9063 -3.5937,0 -0.5,1.5 -1.5,2 0,1.5 0.5,2 0,2.5938 -0.5,1 -1,0 -1.5,1.5 -0.5,2 0,2 -0.5,2 -1,3.125 -1,3 -2,3 -1.5938,2.0938 -2,1 -2.0938,0 -2,-1.5 -2.125,0 -0.5,1.5 -1.5,2.5937 -2,5 -1,4 0,3.5937 0.125,1.5 -1,3 -1,2.5 -0.5,3 -0.5,1 -2.125,2.0938 -4.0937,0 -1,0.5 -1.5,0 -1.5937,1.5 -0.5,1.125 0.094,2.5 1,1 2.0937,4 1.5,4 1.125,2 2.5938,1 3,1.5 2.0938,1.5 4.5937,3.5 2.5937,1.5 2.125,0.375 1.5,-3 1,-1 1.5,-1 1.0938,-0.5 1,0.5 1,1 1.5938,0 1,0.5 0.5,1.5 0,1.5 1.0937,1.5 1,-0.5 1,0 1.5937,-0.094 1,1 1.5,1 0.625,2.5938 1.5938,8 -1,2 -1,2.5 -1.0938,1.625 -0.5,1 0.094,2.5 0.5,1.5 0.5,1 2.0938,1 1,2.5 0.5,2 1.0937,3.5 0.5,2.5 -1,3.0938 -1,1 -2.5,0.5 -2.0937,0.5 -1.5,0.5 -2.0938,1 -0.5,1.0937 -2.5,0 -4.2188,-2 -0.5,-1 -1.5,0 -1.5937,0.5 -1.5,0 -1,-1 -1.0937,0 -1,0.5 -0.5,1.5937 0.5937,2 0.5,1 0,1 1.5,1.5 1.0937,0.5 1.5,1.5 1.125,1.5 1,1 1.5,0 1.0938,1 0.5,1.5 0.5,2 0,1 1.5938,2 0.5,1.5 0.5,1 -0.5,2.5 1.0937,3 1,0.5 0,1.5 -1.5,1.5938 -1.5,1.5 -1.5,2 -1.0937,0.5 0,1 0.5937,1 1,1.5 0.5,1.5 0.5,1 1.0937,3 0,1 1.125,3.625 0.5,2 0,5 1.0938,3.5 2.0938,2 1,2.5 2.0937,2.5 2.5937,4 1,4.0938 0,2.5 -1,1 -0.5,1 -1,0.5 -0.5,2 0,2 1.125,1 1,1.5 1,3.5937 2.0938,4.5 1.5938,2.5 1.0937,5 1.5,3.5 1.5937,2 1.5,2.5 0.125,3 -0.5,2.5937 -1,2 -0.5,3 0,1.5 1,3 0.094,2.5 0.5,2.5938 0,1.5 0.5,2.5 0.094,1.5 1,1.5 1,0.5 1,0 1.0937,0.5 2,2 0.5937,1.5 0.5,1.5 1.625,3 0,5 0.5,2 1.0938,3.125 0,1.5 -0.5,3.5 -2.5,5 0,1 -0.5,2.5938 0,1 1,1 1.0938,1 0.5,2 0,3.5 -1.5,3 0,1.5 0.5,1 -0.5,1.5937 -1.5,1.5 0,1 1.5937,4 1,1 3.7187,6 1.5,1.5 1.5938,1.5 1,3 0.5938,3 0,2.5937 -0.5,2 0,3 -0.5,1.5 -1,1.5 0,4.5938 0.5937,2.5 0,4.5 -1,5.5 -2,3.125 -1,3 -4.0937,1 1,1.5 2.0937,2.5938 1.5937,0.4062 1.5,-0.5 2.625,-0.5 2.5,0.5 3.5938,1 1.5938,2 1,2 1.0937,3.5 1.5,1.5 1.0937,1.5 1,0 1.5,1 1.125,1 0,1.5 1,1 0.5,1 4.1876,2 1.5,2 2.0937,2 2,3 3.5937,0 1.125,-0.625 2,1 2.0938,2 1.5,2 2.5938,2.5 1.5937,3 3.5937,8.625 3.2188,6.5 1.5938,4 0.5,1 1,4 0,1 0.5937,1.0938 1.5,0.4062 1,0.5 1.0937,0.5 1,1.5 0.5,2 1.125,1.5 1,0.5 1,0 2.5938,1.5 2.0938,1 1,1 1.5,1 1.0937,2 1,1.5 0.5,1 1.5937,0.5 1,0.5 1.5,0.5 1.125,0 1,0.5 2.0938,-0.5 3,-0.5 1.5938,-0.625 2,1.5 3.0937,0.5 1.5937,1 3,1.5 2.625,2.5 2.5938,1 2.5938,0 2,1.5 2.0937,1.5 2,1 2.5937,1.4062 2.125,2 3.5938,2.5 3.5938,4 3.0937,3 2.5937,2 3.125,0 2.5938,1 1,0.5 2,1.5 2.0938,1.5 1.5937,1.5 0,1 1,1 1,0 1.5937,0.5 1.5,1.5 1.625,1 0,1 1.5,0.5 2.0938,1 1.5,0.4063 1.5938,0 2,1 2.0937,1.5 1,1.5 1.0937,1 2,3 2.125,1 2,1.5 1.0938,2 1.5,2.5 3.6875,3.5 2.0937,5 2,3 7.3126,6.5 2.5937,2 1,0.5 1.5,0.5 1.5937,1 2,1.5 2.625,2.5 1.0938,2 1.5,3 1.5938,2.5 1.5,2 2.5937,3 2.5937,2.5 1.625,1.5 2.5,2.5 2.0938,2.5 2.5938,2.5 1,2.5 1.0937,2 2.0937,3.0937 2,4 1.625,2 1.5938,2.5 4.5938,4.5 3.5937,2 1.5937,1.5 0.5,1.5 0.5,2 0,1 0.625,2 1.5,3.5 1.5938,2.5 1,1 1.0938,2 0.5,1.5 1.5,2.5 0.5937,2 1,4.0938 0.5937,3 1,3 -0.5,1 0.5,1 1.625,4 0,1 1.0938,1 1.5,1.5 1,2 0.5938,2 1,1 2.5937,4 1.5,1 1.0937,2.5 2.125,2 3,0.5 2.0938,2 2.5938,3 2.0937,0.5 0.5,2.5 0,5.125 1.5937,2 0.5,1 0.5,1.5 0,2 -1,0.5 -1,1 0,1 0.5,1.5 1.625,1.5 1.5,1.5 2.0938,2.5 3.0938,4 1.5937,4.5 2.0937,4.0938 1.625,5 1.5,3.5 1.0938,2 2,1.5 1.5938,1.5 2.5,0.5 1.5937,0 2,-0.5 1.5937,0.9062 3.125,0 3.5938,1 3.5,0.5 2.0938,0.5 2.5937,2.5 2,1 4.0937,-0.125 1.625,0 2,0.5 1.5938,1.5 4.0938,3 1.5937,0.5 1,1.5 2.0937,1.5 1.5,1 3.125,0.5 2,0.5 3.5938,1.9062 3.0938,2.5 2.0937,2.5 2.0937,3.5 2.125,4.5938 1,3 1.0938,2.5 2,2 2.5938,4 0.5937,3.5 2.0937,6 1.625,6.125 1,5.5 0.5938,4 0.5,3.5 0.5938,3.0938 0,2.5 0.5,2 1.5937,1.5 0.5,3 0.5,2 1.0937,2.5 1.5,2.5 0.625,1.5 0,2.5 -0.5,1.5937 0,4.5 4.5938,2 1.0938,1.5 0.5,1.5 0,1 -1,1.5 -0.5,1.5 -2,1.5 -1,1.5937 1,3 0.5,2.5 1.0937,2 1.5,3.5 3.0937,3 1.625,1.5 0,1.5 -1,2.5 0,1 0.5,2.0938 1.0938,1.5 1,2 0.5938,2 -1.0938,3 0.094,2 0,1.5 0.5,1.5 0.5,2 0.5937,1.625 3.0937,2.375 1.5,1 2.125,1.5 2.5938,3 1.5,1.5 1.5938,3 1,1 0.5,1 1.5937,0 2,2 0.5,1.5 1.0937,2 1.5,0 2.125,1 2,1 2.0938,3 1.0938,0.5 2,2 2.5937,1 2.5937,0.5 2.5,1 2.125,1 2,1.5 1.0938,2 1.5,1.5 1.0938,2.5 1.5937,2.5 1,2.5 0,1 3.0937,3 0.5,3 2.625,3 3.0938,3.5 2.5938,4.5 2.0932,3 2.094,3.5 2.125,2.125 3.594,2.875 4.594,3 2.593,1.5 0.5,1.5 0,2 1.594,1 2.5,0.5 0.625,1 1.5,1 1,0.5 1.594,0.5 1,1.5 1,0.5 1.594,2 1.5,0.5 1.093,1.5 2.594,1.5 2,2 3.125,4 1.594,2 2,1.5 2.594,3.5 1.093,2 2.094,3 1.5,0.5 2.125,2 0.5,1.5 0.5,2.5 0.5,1.5 1.094,1 1,1.5 2.594,3.5 1.593,3.125 0,7 -1.5,2 -1,1 0.5,1.5 1.094,2.0938 2,0.9062 2.625,0 1,1 1.094,1.5 1,2 0.5,2.5 0,2.0938 -0.5,2 -1.5,3 0,2 2.094,4.5 -0.407,4.5937 0.344,2 5329.906,0 -86.187,-74.9063 -13.375,-12 -52.625,-45.4062 -35,-31 -18.594,-16.375 -2.906,0.094 -35.094,-30.7188 -194.406,-170.375 -21.375,-18.7188 -32,-27.9062 -38.219,-33.375 -52.906,-46.5 -12.594,-10.8125 -38.783,-34.1877 -23.219,-20.4062 -38.781,-34.2188 -2.719,-2.375 -54.187,-47.9062 -48.813,-42.5938 -11.187,-10 -74.313,-64.625 -125.906,-109.7812 -13,-11.4063 -31.687,-27.6875 -14.094,-12.2188 -19,-16.4062 -56.594,-49.7812 -2.406,-2.2188 -16.813,-14.5 -27.406,-23.7812 -77.094,-67.0938 -48.781,-42.625 -2.719,-2.375 -32.593,-28.8125 -9.688,-8.5 -30,-26 -37.219,-32.3125 -12.906,-11.2813 -2.594,-2.0937 -21.687,-18.9063 -146.313,-127.5937 0,-1.2188 -69.093,-60.6875 -12.407,-10.5 -20.093,-17.9062 -8.313,-7 -8.187,-7 -51.188,-44.9063 -141.906,-124.1875 -5.719,-5 -55.187,-47.8125 -6.688,-6 -6.219,-5.5 L 5882.7812,5268 1617,5268 z"
     id="rect10"
     inkscape:connector-curvature="0" />
  <path
	 style="fill:#9FAEC0"
	 stroke="#9FAEC0"
	 stroke-width="10"
	 transform="translate(0, 25)"
     d="m 2563.4372,7024 0.156,1 0.5,1.5 2.594,4 1.125,3 0.5,5 -2,4.5937 1,2 1.094,1 2,2 1.594,0.5 1,2 1.593,3 2.594,4 5.219,4 1.5,2.5 2.594,3.5 1.593,3.5 2.594,5.5938 0,4 0.5,1.5 -1,2 1.625,1 2.094,5 -0.5,3.5 -1,4.125 1,1.5 1.594,-0.5 1,-2 2,-2.125 2.593,1.5 2.5,1 3.094,-0.5 2.125,2 0,1 2.594,1 3,-1.5938 2.094,0.5 4.593,4 3.594,3 3.719,3.5 3,1.5 3.094,1 4.093,0 4.219,1.9063 4.594,-1 9.187,2.4063 4.094,3 1.125,1.5 1,2.5937 1.594,2.5 1,0.5 4.094,-0.5937 1.593,4 4.094,3.5 1.5,0 -1.5,-5 1,-2.5 3.5,-0.5938 2.625,0.5 1.5,0 5.188,1 4.093,2 2.594,2 7.719,6.5 5.687,9 2.594,5 0.625,1 2,2.5 3.094,1 1.094,4.5 0.5,2 2.093,3.5 4.094,3.5 2.625,2.5 2.094,1 5.094,5.5 2.093,3.5 2.594,7.5938 1.625,4.5 4.094,3.5 2.094,5 0.593,3.5 1.5,3 1.594,3.5 2.625,4 2.094,2 -0.5,3.5937 1.594,5.5 5.093,6 5.719,6.5 2.094,2.5 1.5,2.5 1.594,0.5 8.312,9.5 1.5,3 7.281,7.5 2.594,2.5 1,2.5 3.625,4 2.094,0 3.094,4 3.093,1 1.5,3 2.094,3.5 2.625,2 0.5,2 2.594,1 0.5,2 1.594,2.5 3.593,0.5 4.094,5 2.625,1 1,2.5 5.188,6 3.093,4 2.094,3.5 3.125,3.5 1,3.0937 2.594,2.4063 2.594,2 2,0 1.593,-1.5 1.5,-0.5 1.5,-1.5 1.594,-1 2.5,0.4063 1.125,1.5 1.5,1 2.594,1 5.094,0.5 4.093,0.5 6.719,0.4062 1,3 2.594,0.5 2.094,0.5 2.5,1.5 4.093,2 2.094,1 0.5,1 0.625,2 0,1.5 1.5,1 1,-0.5 2.094,-0.5 2.5,-0.125 1.594,1 2,0.5 4.593,-1.5 3.594,0 1.625,-0.094 8.188,0 1.5,-1.5 1,0.5 1,0 1.093,1.5 3.094,-0.5937 5.625,0 2.094,2 5.594,5 5.187,5.5 3.125,6 3.188,6 3.093,6 2.094,3.5937 2,5.5 2.719,5 2,5 2.187,8.0938 1.5,5 0.594,6 0,5.625 -0.5,3 0.125,2 0,2.5 -0.5,1.5 -2.125,0.5 -2.5,1.5938 0,2 1,2 3.625,-2.5 4.594,-3.0938 2.094,1 2.5,2.5 1.593,5.5 0.09,3.5 3,2.5 3.219,11.0938 0.594,3 2,1.5 -1,1.5 -2.094,0 0.594,1.5 2.5,1.5 2.593,0.5 4.094,1 3.125,1 1.594,2 -2.094,1.5 -4,4.0937 -3.125,0.5 -4.094,-1 -2.093,1 0.09,2.5937 1.5,2 2.094,1.5 0,1.5 -2.094,1.5 -5.093,1 -3,2.5938 -4.094,1.5 -4.594,2.125 -2.625,3 -0.5,-2.5 3,-7.625 2.625,-3 -0.625,-8.0938 2.5,-3 -0.5,-6 1.5,-6.5937 -1.187,-10.0937 1.093,-3 1,-2 0.407,-3 -1,-3.0938 -1,-2.5 -1.594,-1 -1.5,1.5938 1.094,6.5 -0.5,1.5 -1,5.5937 -1,7.5 -0.5,4.5937 -0.907,9 -1,4.5938 -1,5 -1.5,6.125 -2,6.5 -1.5,4.0938 -2,6.5 -1.5,4.0937 -4,8.5937 -3.5,8 -2.093,4.0938 -2,4 -0.5,2 1.093,2.625 -1.5,2.5 -2.593,-0.5 -1,1 -0.5,2 0,7.0938 -0.5,3 -1,3 -0.5,1 -2.5,2.0937 3.593,6 0,1.5 -3,3.5937 4.719,6.5 6.188,6 8.187,7.5 3.125,4.5 1.594,5.5 7.187,3 3.094,3.5 0.5,1 0.625,1 1,2 0.5,3 4.094,1 1.094,1 1,1.5 2.093,0.5 2,0 1,1 0.594,1 1.5,1.5 1.625,1 3.594,4 2,1 3.594,-0.5937 2.093,1 1.5,0.5 1.594,1 3.625,2 3.094,2.5 4.594,2.5 2.093,2 1.5,0.5 2.594,0.9063 2,0.5 2.625,1.5 3.094,2.5 2.594,1.5 1,0.5 3.593,1 1.5,1 1.594,2 3.625,2.5 1.594,2.5 1.5,2.5 4.094,2.5 3.687,3.5 1,1 4.125,2 2.594,1 1.5,0.4062 2.594,-0.5 0.5,-1 1,-1.5 -0.5,-2 -0.09,-2 0,-2 -0.5,-3.625 2,-4 1.5,-0.5 3.094,-2.0938 4.093,-0.5 4.094,-1 8.219,0.4063 2.594,1 3.093,3.5 2,0 3.094,-0.5 1.5,1 2.125,-1.5937 3.594,0 11.781,5 2.625,3 4.094,4 1.594,2.5 2.5,2.5 1.593,1 1.5,0.4062 1.094,0.5 2,0.5 1,2 2.625,4.0938 1.594,0.9062 1.5,0 3.594,-0.5 5.593,0 3.094,0.875 4.125,2 2.094,2.5 3.094,3.5 4.187,5.5 3.625,5.625 1.594,5.5 2.594,9 1.093,3.5938 2.094,15.5937 0.625,3.5 0,6 1.094,8.0937 -0.406,8 0.5,5.0938 0.593,4.5 -0.5,9.125 -1,5.5 -0.406,10.0938 -2,11.5937 -0.875,8.5937 -2.5,13.0938 -0.906,7.5 -3,12.7188 -2.5,8.5 -3,11.0937 -3.5,11.6875 -1.5,4 -3.5,13.125 -2.406,12.0938 -2.5,9.0937 -2.094,3.0937 -2.5,5 0,1 1.094,1 1.5,2 0,1.5 -1,6.0938 -3,8.125 -1.5,6 -0.407,2.5 -1,2.5938 0,1 1.5,0 2.094,1 1.5,-0.094 1.5,-0.5 3.125,0 6.094,-0.5 2.594,-0.625 2.593,1.5 2.594,2.5 1,2 1,3.125 1.625,2 1,2 0.09,5 0.5,3 0,2 1.594,2 2,1 2.093,2 2.594,2 3.125,2 3.094,2.5 4.594,4 4.093,4.5 2.094,4.5 1.125,4.0938 0,5 -0.406,6.5 0,2.0937 -0.5,6.5 -1.5,6.0937 -2.406,15.0938 -3,12.125 -1,4.5938 -2.5,8 -2.5,9.5937 -3.5,7.5937 -1.5,4.5938 -2.5,6 -1.5,6.125 -1.5,2.5 -1,5.0938 0,1 0.5,2.5 1.593,2 2.094,1.5 1.5,1.5 0,2.5 0.625,3 0,3 1,3.0937 0.594,2 1,2.5 1,1 2.594,0 2.093,2 2,2 1.594,2.5 2.625,3.5 2.094,4 0.5,1.5 1.5,3.5 0.594,3.5 1,2 1.093,1.5 1.5,2.5937 1.594,2 1,2.5 1.125,3 -0.5,2 -0.5,5.5938 -1,2.5 -1,4 -1.5,5.125 -2.5,10.0938 -2.5,8.5 -2,4.5937 -2.5,8.0937 -4,9.5938 -3,10.125 -2.5,5.5 -3.5,8.5938 -2.125,3.5937 -1.375,6 -2.125,5.0937 -1.5,4.5 -1,2.0938 -2,3 -1.5,1.5 0,2 0.5,2.5 1.125,1.625 0,5.5 -0.5,2 -1,2 -1,1.5938 -2,1 -0.5,1.5 0.5,2.5 0,4.5 -1.5,1.0937 -1,1 -1.625,0.5 -1,1 -0.5,1.5 3.125,0 1.5,-1 1.094,0 1.5,0.5 0.5,2.5 1.594,1 1,2 0.5,1.5 1.093,1 0,2.5 -0.5,2 -0.5,1.5937 0.5,1 1.594,1.5 1,0.5 1.5,-0.094 1.625,0 1,1 1,0.5 2.094,2.5 1,1 1.594,1.5 0.5,1.5 1.5,0.5 1.093,0 3.5,-1 4.219,0.5 2.5,-0.5937 1,-0.5 0.5,-1 1.594,-1 2.5,0 3.594,-0.5 3.593,0.9062 3.594,0.5 6.625,0 4.188,0.375 2,0 4.093,4 1.094,1 3,0.5 2.625,1 2.094,1.5 2.594,2.5 3.593,3.5 3.094,2 6.625,3 5.188,1.9062 6.093,2 7.219,4.5 6.188,3 4.187,4.5 4.625,5 2.094,5 4.094,7 2.593,5 1.594,5.0938 0.625,3 1,1.5 1.5,1.5 1.594,1 2.094,4 1,1.5 2.593,3 2.594,2.5 2.625,3.5 2.594,4.5 2,2.5 0.594,4.625 1.593,6 0,4 1,4.0938 0.594,3 1,2.5 0.625,4 1.5,-0.5 2,0 1.594,0.5 2.594,0.5 1,1 1,1.5 1.593,3 1,0 1,1 1.094,0 1,0.5 1.5,-1 0.5,-3.5938 1,-1.5 3.625,-1.5 3.594,-1.125 4.094,-0.5 5.593,0 3.594,0.9062 2.625,1 3,-1 3.094,-1 4.594,-2.0937 3.593,-1 5.094,-1.5937 7.719,0.5 7.594,-0.094 6.187,-0.5 3.625,-0.625 3.5,-1 6.688,0 4.593,-0.094 4.094,-1 2.625,0 3,0.4063 2.094,0 3.094,-0.5 3,0 2.593,-1 3.094,-1.5937 3.5,-1 1.625,-1 6.594,0.4062 6.687,-2.125 3.594,-1.5 3.5,-1 2.125,-0.5 1.5,0.5 1,-0.094 2.094,-1 1.5,-2.5 1.5,-0.5 2.094,-0.5 2,0.4063 1.093,1 3.594,1.5 4.125,1 2.5,1.5 1.094,0 2,-1 2,0 4.687,-1.0937 2.5,0.5 5.719,1 1,0 4.594,-0.5938 5.594,0.5 6.687,-0.625 4.125,0 4.094,-0.5 4.594,-1.0938 1,-0.5 5.093,-0.5 4.094,0.4063 9.219,0 5.187,0.4063 8.219,0 2,0.5 2.594,-0.094 1.5,0 2.594,-1 5.093,0 3.594,0.375 5.625,0 3.094,-0.5 4.594,-1.0938 4.093,0 4.594,-0.5 7.219,-0.5937 4.094,0.5 8.187,1.4063 8.719,2 3.594,1.5 2.593,1.5 6.719,3.9062 5.594,2.5 1.5,0.5 3.594,0 4.593,0.5 4.719,-0.125 2.5,0.5 2.594,0 3,-1 1.594,-1.5938 2.5,-1 1.593,0 1,0.5 3.594,0.5 3.125,-0.094 3,1 3.094,-0.5 4.594,-0.5 5.093,-1.5937 3.094,0.5 3.125,1 2.594,1.5 2.5,0.5 1.594,1 2.5,0.4062 1.593,0 4,-2 4.719,0 2.5,-0.125 2.094,0.5 2,0 3.094,1 1,1 2.593,0.5 3.094,2 1.5,0.5 2.125,2.5 1.594,2 2,1 1.5,0 1.594,0.4062 3.093,0 1.5,1.5 1,1.5 2.594,1.5 5.719,3 6.094,4 6.187,3 4.625,0.9063 3.594,1 3.094,0 3.593,0.5 2.5,0 2.594,-0.5937 3.125,0 4.094,1.5 2.594,0 3,1 4.187,1.9062 4.625,3 3.594,2.5 3.094,1.5 2,1 1.593,1.5 2,1 3.094,-0.5 3.125,1.5 2.594,2 3,1.5 1.094,1.5 1,3 2.093,3 0.5,1.5 0.5,1 1.594,0.5 1,-0.5 2.625,-0.625 2.5,0 4.094,-0.5 7.187,-0.094 2.594,0.5 2,1 2.625,0.5 4.094,1.5 2,1 2.094,-1.5 0.5,-2.5937 0,-2 3.5,-4.5 2.593,-1.0937 1,0 1.5,-0.5 1,-1 2.594,-0.5 3.625,-0.094 6.094,0.5 3.094,0.5 3.093,0 3.594,-1.125 2.5,-0.5 3.125,0 2,-0.5 2.594,0.4062 9.187,1 4.719,2 2,1 8.188,4.4063 3.593,0.5 2.594,1 3.125,0.5 3.094,2.5 2.5,1 1.094,1.5 1,1 2.593,-0.5937 3.5,0 1.594,1.5 1,0.5 1,1 3.625,1 2.094,2 2.594,1 2.5,1 2.593,1 2.594,-0.5938 8.219,0 2,1 4.094,-0.125 2.093,-0.5 3,-1 2.094,-2.5 1.5,-2.0938 1.5,-1 3.125,-1 2,-0.5 0.5,-1 -0.5,-1.0937 -1,-1.5 0,-2 2.5,-2.5 5.594,-3.0937 8.187,-3.5938 5.594,0.5 3.625,-1 7.188,-0.125 4.593,-1 2.5,-0.094 4.719,0.5 2.5,0 2.094,1 2.5,0.5 1.594,0 2,-0.5937 3.593,-1.5 3.594,-1 2.5,0 3.625,-0.5937 7.188,0 3.593,1 2,0.4062 1.594,-0.5 4.625,0 3.594,2 4.594,2 5.093,1.375 6.219,1 3.094,0 1,-0.5 3.094,-0.094 6.093,0 2.594,2.5 0.5,1 4.125,3.5 3.094,3 3.594,1 1.593,1 2.5,1 1.594,1 1,2 1.625,2.5 2.5,-0.5 2.594,-0.5937 2.5,1 2.094,2 3.093,3 3.594,2 1.625,1 2,2 4.594,1 5.187,1.5 4.094,0.4063 4.625,0 2,-0.5 2.094,1 1,0.5 1.594,1 2,1 1.5,1 0.593,2.5 0.5,2.5 1,1 0.594,1 0.5,1 1.5,0.5 4.125,0 2.594,-0.5938 1.5,0 2.594,-0.5 4.093,2 3.594,1 3.125,3.5 1.5,1.5 2.094,3 2.094,4.5 3.593,3.5 3.094,2 2.5,1 3.125,1 2.594,0 1,0.5 2,-0.625 3.094,2.5 2.593,3.5 4.219,4 3.594,4.625 3.094,4 2,1.5 3.093,1.5 1.594,2 2.625,2.5 2,2.5 2.094,4 3.094,4 2.093,2.5 2.5,1.5 2.594,0.5 1.5,0 1.625,-0.625 3.594,-0.5 3.5,-1 2.094,0 2.593,1 1.5,0.9062 3.594,3 6.719,6 4.594,4 2.593,2.5 3.594,4.0938 2.125,2 3.094,4 2.594,3.5 4.093,3.5 2.594,1.5 3.625,2 3.094,2 4.594,2.4062 3.093,2 4.094,1.5 2,1.5 3.625,0.5 6.188,0.9063 3.093,-0.5 2,-0.5 4.094,0 4.125,2 3.094,1.9063 2.594,4.0937 3.593,5 1.094,2.5 3.125,5.5 1,3.5 2.594,-0.5 1.5,0 4.187,7 0,3 -2.093,0.5937 -1,1.5 -1,-1.5 0,-3 -1.094,-2.0937 0,-1.5 -1,-1 -1.094,-1 -0.406,2.5937 0.5,1 1,7 1.094,3.5 1.093,6.0938 2.594,7.5 3.625,8.625 1.594,5 1.594,2.5 3.093,6.5 3.094,6.5938 2.625,8.5 6.781,14.5937 3.594,9 2.125,3 3.594,7.0937 2.094,-2.0937 0.906,-5.5 1.094,-0.5 1.5,-0.5 1,2 0.09,2 0.5,2.5 -2.624,2.5 -1,1.0937 0,2.5 2.124,3 2,3.9063 8.282,0 0,-1.5 1,-3 1.5,1 1.594,1.5 0.5,2 4381.437,0 1.063,-1.0937 2.312,-2.7188 2.094,0.3125 5.5,0.3125 2.687,-0.5 2.907,-2.3125 6.093,-5.9063 2.219,-4.9062 1.5,-7.1875 -0.219,-7.5937 -0.281,-3 -0.219,-2.5 -2,-6.4063 -1.593,-7 -0.594,-6.8125 0.281,-8.875 1.219,-9.3125 0.281,-2 0.719,-4.5937 0.281,-2.5 2.219,-5.5938 2.187,-3.9062 3.594,-5.4063 3.5,-6.3125 3.406,-3.875 4.219,-4.4062 5.375,-2.3126 2.125,-0.9062 2.094,0.2188 1,0.094 3.5,0.3125 4.781,0 4.906,-2 4.407,-2.9062 7.5,-2.7188 5.406,-2.875 4.781,-5.3125 3.125,-4.5937 2.781,-4.0938 0.407,-0.7188 1.406,-1.5937 4.5,-1.9063 6.187,0.2188 7.219,-2.125 7.188,-2.875 5.593,-4.8125 6.594,-7.5937 7.125,-9.5 5.188,-8.8126 4.812,-5.6874 3.281,-1.9063 3,-2 2.094,-0.5 4.125,0.3125 4.688,-0.125 0.906,-0.094 4.094,-1.1874 6.687,-1.5938 4.406,-1.3125 6.313,-4.3125 2.5,-2.6875 1.281,-1.4063 2.813,-2 4.093,-3.5937 3.219,-1.1875 0.688,-0.3125 2.187,-2.0937 0.906,-2.2188 0.594,-2.7812 -0.5,-3.5938 0.719,-4.125 0.281,-2.875 1.719,-2.5 2.906,-2.625 3.875,-3.875 1.5,-0.9062 4.5,-4.3126 6.906,-8.6874 9.219,-10.2188 7.781,-9 2.313,-3.1875 1.281,-2.6875 2.313,-3.7188 2.406,-2.1874 2.281,-1 1.625,-1.4063 1.375,-2.0937 1,-2.5938 0,-3.625 1.406,-1.0938 0.813,-0.2812 2.687,-1.125 4.094,-0.2812 3.813,-0.7188 3.593,-0.5938 4.594,0.5 3.906,0 2.907,-1.7812 0.906,-2.3125 -0.906,-4.3125 -1.688,-4.1875 -1.5,-3.0937 -1.125,-5 0,-7.0938 -2.594,-6 -0.593,-3.9062 -0.5,-3.7188 -0.907,-4.1875 -0.593,-3.3125 -3.594,-5 -3.594,-6.1875 -6.719,-6.9063 -5.093,-4.2812 -6.688,-6.5 -3.125,-3.8125 -1.687,-2.1875 -4.594,-6.2188 -3.906,-5.4062 -3.313,-4.1875 -4.094,-2.5 -5.593,-1.3125 -8.188,-2.5 -0.812,-0.2812 -8.407,-1.3126 -6.687,-1.9062 -1,-0.2812 -4.094,-0.9063 -0.812,-0.4063 -3.813,-2.9062 -1.594,-1.5 -2.906,-3.5 -4.781,-7.6875 -6.594,-5.5 -1.625,-1.4063 -7.375,-7 -3.906,-3 -4.906,-4.2812 -4.907,-2.7188 -6.187,-0.4062 -5.094,-0.094 -4.625,-0.4062 -3.594,-2.5 -2.687,-4.2812 -1.906,-5.7188 -3.188,-5.5 -3,-4.0938 -5.906,-3.6874 -6.406,-3.5 -7.594,-3.3126 -4.094,-1.9062 -0.719,-0.375 -3.906,-3.125 -2.687,-3.375 -2.5,-4.9062 -2.813,-2.2188 -4.187,-1.1875 -5.594,0.5 -10.094,3.1875 -0.906,0.2188 -6.594,2.4062 -0.906,0.094 -5.406,0.5 -5.594,-2.4063 -4.719,-5.5937 -2,-5.5 0.219,-5.5938 1.781,-8.125 -0.187,-7.6875 0,-2.8125 -0.407,-7.0938 1.407,-13.0937 0.187,-1.4063 1.313,-10.7812 -1,-9 -2.188,-8.4062 -4.125,-10.3126 -4.594,-7.5 -2.593,-6 -4,-4.7812 -2.688,-4.8125 -3.812,-6.5 -3,-5 -2.5,-3.5 -3.594,-2.9063 -4.094,-3.0937 -11.312,-7.5 -5.5,-4.0937 -3,-3.8126 -0.813,-2.9062 0.813,-1.5 0.593,-1.1875 2.813,-2.6875 2.906,-2.3125 2.875,-2.8125 1.813,-2.6875 -0.907,-3.9063 -2.906,-3.7812 -5.375,-3.625 -3.812,-2.6875 -3,-3.8125 -1.594,-6 -2,-6.875 -1.719,-8.5 -2,-4.8125 -5.5,-4.5937 -2.594,-2.5 -1.906,-1.7188 -1.281,-3 -0.719,-1.875 1.813,-3.2188 1.812,-1.9062 1.375,-2.875 -1.281,-2.9062 -3.5,-5.8126 -3.813,-8.2812 -4.781,-7.7188 -2.406,-7.9062 -0.313,-1.5938 -2.187,-6.2812 -3.813,-7.8125 -5.406,-3.5937 -3.687,-0.7188 -0.813,-0.1875 -6.281,-4.6875 -1.219,-2.4062 -1.781,-3 -1.813,-2.8126 -6.906,-3 -6.375,-2 -6.312,-2.4062 -4,-4 -3.094,-5 -5.594,-6 -5.906,-3.1875 -8.719,-5.8125 -7.5,-7.5 -8.875,-10.375 -6.125,-10.7188 -6.687,-12.5937 -3.313,-9.8125 -0.875,-2.6875 -3.312,-10 -0.5,-1.3125 -2.407,-8.375 -5.5,-8.8125 -6.093,-7 -0.5,-0.8125 -10.594,-7.375 -11.313,-6.8125 -0.906,-0.5 -9,-6.1875 -6,-7 -2.875,-7.4062 -0.719,-7.2188 0.407,-7 1,-7.5938 2.093,-6.1874 0.407,-6.7188 -0.688,-3.6875 -1.219,-6.1875 -1,-6.5 0.719,-9 0.875,-7.9062 -1.187,-8.5 -2.407,-7.3126 -1.281,-5.5 -0.5,-2.1874 -1.125,-5.2188 1.719,-9.7812 2.094,-10.5938 -0.5,-2.2188 -0.594,-6.9062 -2.813,-7 -1.281,-2 -25.312,-22.1875 -15.313,-13.5937 -1.781,-1.5 -17.313,-15.5938 -16.687,-14.7188 -9.094,-7.7812 -19.906,-17 -9.906,-9.625 -20.094,-17.5 -52.5,-46.5 -102.406,-90 -13.907,-12 -30.406,-26.5 -43.781,-38.375 -15.906,-14 -27.813,-24 -17,-15 -17.5,-15.5 -44.781,-39.5 -47.906,-41.4062 -3.094,-3 -10.313,-9 -184.406,-161.4063 -11.375,-10 -3.438,-3 -5329.906,0 z"
     id="rect12"
     inkscape:connector-curvature="0" />
  <path
	 style="fill:#9FAEC0"
	 stroke="#9FAEC0"
	 stroke-width="10"
     d="m 4478.5932,8780 0.563,1.0937 2.125,3 2,1 2.094,-1 1,-1 0.5,-3 0,-0.094 -8.282,0 z m 12.876,0 3.124,2 -1,1.5 -4.718,-0.4063 -1,1 -0.5,1 1.094,1 2.5,0 4.124,-0.5937 2.063,0.5 4.125,1.5 3.594,2 4.594,4 5.687,4.5 3.625,3.5 9.812,8 2,2 4.188,3.5 6.594,3.5 4.718,4.5 3.063,2 4.625,2.5 7.688,6.4063 3.124,1.5 6.688,2 4.094,1.5 5.594,1.5 3.124,-1.0938 2.5,-2.5 3.063,-1 1,-0.625 5.125,0 0,-1 -0.5,-1 -2,-0.5 -2.125,0 -1.5,0.5 -1,0 -1.563,0.125 -2,0 -2.124,0.5 -2.5,0.5 -2.094,-1 -3.594,-0.5 -2,-0.9062 -2.125,-1.5 -2,-1 -2.063,0 -2,0.5 -1.624,-1 -1.5,0 -6.688,-2 1.5,-2 4.594,1 1.594,0 0.5,-1 1.5,-1.0938 0.5,-1 0,-2.5 1,-1 1.624,1 1,1 0.5,1 -0.5,1.5 1.063,1.5 2,1 2.125,1.5 3.594,1 4.094,1 3.624,1 2,0.375 1.5,-0.5 1.063,-0.5 1,-3 1,-0.5 1,0.5 1.5,0.5 2.125,-0.094 1,1 0.594,1.5938 1,1 1.5,-0.094 1,0.5 1.594,2 1.5,1 2.124,1 2,1 0.06,2.5 -2.094,0.094 -3.093,-2 -2,-1.5 -1.594,-0.5 0,1 2.094,1 3.093,2.5 4.094,2 3.125,1.5 2.594,1.4062 4.594,1.5 5.093,5 2.594,-0.5 2,0.5 3.125,1.5 1,0.5 3.094,-0.5 6.187,-0.094 4.094,1 3,1 3.625,2.5 4.188,2.5 2.5,2 3.093,3 1.094,1 2.5,1.5 2.625,-0.094 2,1 0.594,1.5 2.5,1 1.094,1 2,0 3.593,0.5 4.094,1 5.125,1.4062 4.188,2 2.5,1.5 3.093,0.5 1.5,0.5 2.594,1 1,0.5 2.625,0.5 1.5,1 6.188,4 5.093,2.375 7.813,4.5 5.094,1.5 4.093,1.5 3.094,0.5 2.5,-0.094 2.625,-1.5 2,-0.5 2.594,-1 3.594,0.5 2.5,1.4063 2.093,1 1,1 2.594,0.5 2,0.5 5.219,0 6.594,1.9063 5.187,1 6.125,0.5 5.094,0.9062 9.781,0 3.125,1 3.5,0.375 3.094,1 2.594,0 3.093,0.5 3,1.5 5.219,2 5.594,4.5 5.187,3.9062 6.219,4 5.094,4.5 5.187,4.5 3.094,4.5938 2.5,3.5 2.125,3 2.094,1.5 1,0 1.5,-1.0938 0,-2.5 1,-1.5 1,0 3.594,-1.5 2.093,-1.5937 1.5,-1.5 1,-2 1,-3.0937 1.5,-3 0.5,-1.5 2.594,-2.5 2,-1.5938 3.125,-1.5 4.594,-1 6.094,-0.625 5.593,-1 3.094,-1.0938 2.625,-0.5 2,-1.5 2,-2.0937 8.188,-2 4.593,-1.0937 4.094,-0.5 10.813,0.4062 6.093,0.5 4.594,0.875 2.625,0 3.094,-0.5 2.5,-0.5 2.594,-1.5938 3.5,-0.5 2.093,-0.5 2.594,0.5 3,1 3.125,1 2.094,-0.094 0.5,-1 1,0 1.5,-3.5 1,-1.5 3.094,-2.0937 2.5,-0.5 3.093,0 4.594,-0.094 4.625,0.5 5.688,0 5.093,-0.125 3.594,0 2,0.5 5.625,0 2.594,-0.5938 3.594,-0.5 3.093,0.5 3,0.5 3.094,0.4063 4.125,0.5 3.594,0 2.594,-1 2.5,-1.5937 1.5,-0.5 7.187,0 8.219,-0.094 3.594,0.5 3.093,-1 1,-0.625 3,-0.5 3.094,-0.5 3.125,0 3.094,0.5 2,0.9062 2.594,1 6.593,0 2.594,-0.5 4.125,0.4063 4.094,1 4.094,1.5 3.093,1.5 6.719,3 2,1 8.781,6 2,1.4063 4.094,4 2.125,2.5937 5.188,5.5 5.093,4.5 4.719,5 2.594,6 5.594,7.5 4.187,5 4.125,4.5 4.094,6.0937 4.187,4.5 1.5,3.5 1.094,3 7.719,12.0938 1.094,1.5 3.593,7.5 5.719,9.5 6.688,13.625 7.312,16.5938 8.281,17.0937 5.219,13.5937 5.188,11 2.093,6.0938 2.594,6 3.625,11.125 0.594,2.5 -0.5,2 2.5,0 0.594,1.5 -1.594,0.5 0.594,2 3,1.5 2.593,7.0938 0.594,8 0.5,2.5 -0.375,8.5937 -0.5,7.0937 -0.5,5 -0.5,3.5938 -4,3.5 -6.719,3.125 -1,1.5 -1,0.5 0,2.5938 0.5,1.5 -0.5,1.5 -2.5,2.5 -3.093,2.0937 -3,2 -3.094,1.5 -2.5,3.0937 -1,2.5 -1.094,2.5 -2,1.5938 0,1 -0.5,1.5 0.5,1 2.094,1 1,0.5 1.594,1.5 0.5,1 0,1 -1,0.5 -0.5,1 1,2.5 0.5,1.625 1.593,1 1,0.5 1,-0.125 1,1.5 0.09,1.625 0.5,1 0.5,2.5 1,1.5 1.125,1.5 0.5,1.5 0,3 0.5,1 0,1.5938 0.594,2 0,3.5 1,2 1.594,0 1,-0.5 2,0.5 1.593,0.5 1,0.5 1.5,2 1.594,0.5 1.5,1 1.625,-0.094 1.5,-1 1.5,-0.5 2.094,-1.5 1,0 1.5,-0.5 1,-0.5 1.594,-0.625 1,-1 2,-0.5 2.093,0 2,0.5 2.094,2 0,2.5 1,0 1.125,-1.5 1.5,-0.5 2,0.4062 1.094,0 1,-0.5 1.5,0 1,-0.5 2.094,0 1,1 2.093,1 1,2 1,0.5 1.594,2 1.5,2 0.625,2 1,1.5 1.5,1 4.094,0 1.594,1 5.093,3 4.594,1.5 4.125,1.9063 3.594,1.5 1.594,0.5 2,1.5 1.593,0 2,2 1,0.5 1.094,0 1.5,-1 1.5,0.5 1.625,1 1.5,1 2.094,1 3.594,1.5 2.5,-0.094 1,0.5 1.593,0.5 0,1 2.094,1.5 0.5,2 0,1.0937 1.5,0.5 1,-0.094 2.125,0 1.5,-0.5 1,-1 1.094,-2 1,-1.5 0.5,-1.0938 -1.594,-4 0,-1.5 1,-1 1.594,-1 1,-1.125 0,-2 -1.094,-3 1,-1.5 1,0 1.594,1 0,1 1,1 0,2 0.594,2 0.5,2 1,1 1,-1.5 -0.5,-1.5 0,-1.5 -0.5,-2 -2.094,-3 -0.5,-2 1,-0.5938 1.594,1.5938 0.5,1.5 0.5,2 1,0.5 1.093,0.5 -0.09,-2.5938 -1.5,-3 -2.094,-3.5 -1.5,-4.5 -1.094,-4 -0.5,-2.5937 0,-2.5 1,-3.5 1,-2.5937 -0.5,-1 -0.125,-1.5 1.125,-2 1.5,-1.5 -0.5,-1.5 -0.125,-1 -1.5,-0.5 -2.5,0 -1.094,0.5 -2.5,0 -1.093,-0.5 -2,0 -1.5,0.5 0,-1.5 1.5,-1 1,0 1.5,-0.5 1.093,0 1,0.5 1.5,-0.5 0.5,-1 1.594,-2.0938 -0.06,-1.5 -0.5,-3.5 -0.5,-2 0,-3.625 -0.09,-2 1.593,1 0.5,3 4.594,-1 -2,8.125 -0.5,3 0.625,1.5 2,1 1,-0.5 0.5,-1.5 -0.5,-1.5 1.5,-4.125 1,-0.5 1.094,0.5 -0.5,1 -0.5,2.125 0,3.5 0.5,3.5 5.094,-7.125 -0.5,-4 -2.094,-3 4.094,-0.5938 1,4.5938 6.093,-9.6875 4.094,-5.5 1,-1.0937 1.5,-0.5 0.625,1 -1.125,2.0937 -1.5,2 -1.5,1.5 -1,2 -1,1.5937 1.5,3.5 6.125,-3.5937 17.375,-5.1875 11.813,-6.125 0.5,2 -9.188,4.125 0.5,2 9.188,-4.125 0.5,2 -6.094,2.625 -4.094,5.0938 3.688,8 7.093,0 1.094,0.5 0,2 -1.5,0.5 -2.094,2 -3.5,3.0937 -0.5,5.5 8.219,5.5 -0.5,-3 -4.219,-4.5 5.594,-4.0937 0.125,6.0937 3.094,0 -0.09,-7.0937 5.688,0.5 0,3.5 3.593,0.5 0.5,3.5 -3,4.5937 -6.187,0 -1.5,2 16.906,-0.094 -5.219,-16.5938 -9.781,-5 -3.125,-3.5 1,-1 3.625,-2 4.094,-0.625 2,0.5 1.594,1 1.5,0.5 4.093,-1 1,-1.0938 4.594,0 5.219,0.5 16.406,2.9063 6.094,2 8.687,1.9063 7.219,4 3.094,2 4.094,3 4.093,2.5 1.094,0.5 1,0 0,-1.5 -1.094,-1.5 -5.593,-4 -1.594,-1 -2.5,-2.5 0,-1.5938 -0.09,-3 1.594,-2 2,-0.5 1,0 0,-1 -1,-1 -1.594,-2.125 -1.5,-0.375 -1.5,-1 -1.125,-3.625 0,-1 1,-0.5 2.125,1.5 5.094,5 4.187,5 3.594,3 1.5,1.5 4.125,2.5 1.094,0.5 -1.594,1 -2,1.125 -2.625,3.5 0.125,3.5 0,3.0938 1.5,2 2.594,1 1.5,0 2.594,1.5 1,1.5 1.593,0.5 1,0.5 1,0.4062 1.594,0.5 1.5,-0.5 1,-0.5 3.625,0 1,0.5 1.594,0 4.594,-1.625 1.5,0.5 4.093,2.5 1.5,-2.5 2.094,-1.5 1,1 -1.5,5.5 -2,1.5 0.5,1 0.5,1.125 5.125,-0.625 1.094,2.5 3.594,5 1,1.625 7.187,5.5 2.125,2.5 -1.625,1.5 -2.5,-1.5 -4.687,-4.5 -4.094,-4.5 -2.594,-2.5 -7.219,-5 -0.5,-1 -2,-3.5 -2.093,-1.5 -8.688,0 1.5,3.5 -1,2.0938 2.094,0.5 1.5,0.9062 1.594,0.5 3.093,3 4.094,4.0938 3.125,4 1.5,1.5 1.594,2 2,2 3.594,2.5 2.593,1.5 1.594,2.5 3.625,4 4.094,5 5.094,6 4.187,5 5.719,7.0937 6.594,6.5 5.687,6 4.125,2.5 3.594,4 5.187,5 5.594,4 5.219,3 3.594,3 5.593,3 5.719,2.5 3.594,2.4063 6.594,4 5.687,5 6.719,3.5 6.187,4 5.594,3 5.125,2.5 4.094,3.5 3.687,3 2.5,4 2.094,3 1,2 0.625,1.5 2,1.5 1,1 2.094,0 4.594,0.5 7.187,2 8.219,2.4062 6.687,1.5 6.094,2 5.625,1.375 -0.5,-2.5 -1.5,-1.5 -2.125,-1 -2,-0.5 -2.594,0.125 -2.593,-1 -2.5,-1 -2.594,-1 -2.594,-1.5 -1,-1 -2,-1 -1.625,1 -2,0 -1.594,-1.5 -2.5,-0.5 -3.593,-0.4062 -2.094,-0.5 -2,0 -2.594,-0.5 -2.5,-1 -1.125,-1 -1,-2 0,-1 1.5,1 1.125,0.5 1,1 0.5,-1 -0.5,-1.5 -1.125,-1.5 -1,-2.5938 0,-3.5 2,0 2.125,1.5 2,1 3.094,1.5 2.594,1.5 2,1.5 3.093,0 1.5,-1.625 1.094,-1.5 1.5,-2.5 1.5,-2.0938 2,-1.5 2.625,-1 1.5,-0.5 3.094,-3.0937 1,-2.5 0,-1.5 -0.5,-2.5 0.406,-3.0937 0.5,-3 0,-3.5 -0.5,-2.5 -0.5,-3.0938 0.5,-2 0.5,-2.5 2,-2.125 2,-1 4.094,0 3.594,1 2.093,2 1,2 -1,1 -2.093,-0.5 -1.5,-1 -2.5,1.625 -0.5,1 -1.594,4 -0.5,1.5 -1,2.0938 1.094,2.5 0,1.5 0.5,2.5 -0.5,1.5 0.5,2 0.5,1 -1.5,1.5937 -1,1 -1.5,1 -1.594,1.5 -1,1.5 -0.5,1.0937 0.5,2 0.594,1.5 0,1.5 -1.594,2 -1,0.5 -0.5,-2 -0.5,-1.5 -0.5,-1 -2.594,-0.5 -1.5,1 -2.125,1.5938 -1.5,2 -1,3 0.5,1.5 1.125,1.5 2,0 2,-0.5 2.594,0 4.094,-0.5 2.593,0.4062 2,1.5 2.594,2.5 1,3.0938 1.125,1 2,3 0.594,1.5 0.5,1.5 0,2 1,2 1.594,3.625 2,-1.625 1.593,0 2,1 1,1.5 2.094,2.5 3.125,1.5 2,1.5 2.094,0.5 2,1.5 1.594,1 2,1.5 1.093,0.5 1.5,1 2.094,1 3,1.5 1.625,1.5 2.594,2 2.5,1.5 2.594,2.5 2.093,2 2,2.5 2.594,2 3.625,1 2.594,1 1.5,3.5 1,1.5 0,1.5 0.594,2 1,0.5 1,-0.5 1,0.5 1.093,1 1,2 1,0 1.594,-1.5 2,0 0.5,1 1.125,1 1,3 1,1.5 1.094,0 1,0.5 4.594,0 1.5,0.5 2.593,0.9062 1,0.5 2.094,1 3.625,0.5 1,1 2.094,1 2,2 1.594,3.5 3.593,4 3.094,4.0938 4.625,4 2.094,2.5 1.5,3 2.594,2.5 1,2 2.093,1 1,1.5 1,0.5 0.5,1 3.094,3 4.719,4.5 1,1 1.594,3 2,1.5 1,1.625 1.093,2 0.5,2.5 0.5,2 0.594,1.5 3,3 1.125,-0.5 0.5,1 0,1.5 1,1 1,0.5 1.594,1 1.5,0.5 2.094,0.5 1,1.5 1,2.5 1.593,3 1.594,2.5938 0.5,2 1.5,1 1.125,3 1,2.5 1.5,2.5 0.09,1.5 0,2.0937 3,0.9063 2.594,0 2.593,-1 0.5,-1.5 2.5,-1.5938 3.094,0 3.125,2 4.094,0 1,-0.5 1,0 3.094,-0.125 2,0 2.093,0.5 1.5,0.5 1,1 1.594,1 2.5,1 3.625,3 5.688,2.5 4.093,2.5 4.594,2.5 3.125,3 3.594,2.5 4.094,3 2.593,2.5 3.094,2 3.625,4 3.594,3.5 2,2 0.594,1 1.5,2 2.093,2 3,2 1.594,3 1,1.5 1.125,1 1,2.125 3.094,2.5 2,1.5 1.594,3 4.093,5 2.094,3 3.125,6 2.594,4.0938 1,2.5 1,1.5 1.094,1 2,1.5 1.593,2 3.094,1.5 1.5,1.5 2,0.5 1.625,0 5.094,2 3.094,0.9062 4.093,2 1.5,1.5 2.094,1.5 5.625,3 5.688,2.5 6.093,4.5 5.719,4.5 3.594,3 5.094,3.5 5.687,5 4.125,3.5 6.188,4.5 5.593,5 8.313,8 4.594,4.5938 5.093,5.5 5.219,6 9.281,10 7.219,10.5937 6.688,9 8.187,10.0937 8.813,11 6.687,9.5 7.219,10.5938 4.687,7 6.219,9.125 6.688,9 7.187,10.5938 1,-1.0938 -0.5,-2 2.5,-2 3.125,5 -1,1 -2,-1 -1.625,1.0938 7.813,10 5.093,7 3.094,4 3.625,4.0937 7.688,10 5.687,7 4.719,7.0937 4.594,5 3.593,6.5 4.094,7.0938 1.625,2.5 2.594,3.5 2.5,2.5 2.094,3.5 1.593,4.625 1.5,4 3.594,5.5 2.125,4 3.594,8.5938 3.594,7.5 4.687,11.5937 6.219,14.5937 2.594,5.5938 1.593,4 4.719,15.125 3.594,8.5938 2.094,6 2,5.5937 1.593,5 1.594,5.5 3.625,6.0937 5.094,8 2.094,4.5001 2.093,6.094 1.594,5 0.5,5.125 1,3.5 1.125,2.5 1.5,3.5 1.094,2.094 1,5.5 2.094,8.093 2.093,8.5 1.594,7.094 -0.5,4 0,4.594 3.125,7 2.094,8.625 2.594,8.594 2.093,8.5 1.094,8.593 2.125,9.594 1.5,6.594 1.594,7 1,3 0.09,5.625 -1,4 0.5,3.594 1.5,2.5 0.593,3.5 1,5.093 -0.5,5 -1,6.594 -0.906,5.594 -2.594,6 -2,3.625 -2.593,2 -2,0.5 -2,0.09 -2.094,-0.5 -1.5,-0.5 -2.094,0.5 -2,1 -1,1 -1.625,2.093 -1.5,2 -1,2 -1,2.094 -0.5,3.5 0,2.5 0.5,3 1.125,2.594 0.5,3.5 0,4 0.594,2.625 0,1 2,1 1.594,0.5 1.5,1.5 0.5,1.5 1,2 1.593,1.5 1.5,2 0.594,2.5 1.5,1 1.5,0.5 2.125,1.5 3.094,3.5 2,4.594 2.594,6.5 2.093,7.093 0.594,7 0.5,10.094 0.125,9.594 0,4.125 2.594,0 2,0.5 1.5,-0.625 1.094,-0.5 -0.594,-1 -1,-0.5 -1,-1 -0.5,-1.5 0,-3 1.5,-2.094 1,2.094 -0.5,1.5 0.5,1 1,0 1.094,-2 0.5,-2.094 1,-2 -0.5,-1 0,-1 -1.594,-0.5 0,-1 0.5,-2.594 -1,-1 -1,0.594 -1.094,1.5 -1,0.5 -1,-1 -1,-1.5 0.5,-1.5 1.5,-1.094 1,-0.406 0.5,-0.594 -1,-0.5 -1,-1 -1.5,0 -0.125,-0.5 0.5,-1.5 1.125,-1 -0.625,-1 -1.5,-1 -1.594,-3.5 0.594,-1.593 1,-1.5 3,-1 2.625,0 2,1 1.594,2 1,2.5 0,5 2.094,1.5 1,0.5 1.593,0 2,-1.5 1,-2.5 0.5,-3.094 0.5,-3 0,-2 1.5,0 1,-0.5 0.5,-2.125 0.594,-1.5 2,-2 2,-1 1.125,0.406 1,1.094 -0.5,1.5 1,1 2.594,0.5 2,-0.594 2,-1.5 -1,-1 -1.5,0 -0.5,-1 1.5,-1 2,0 1.594,1 1,3 0,3 -1,3.094 -0.407,5.5 -1.093,3.125 0.593,2 0.5,2.5 1.5,4 1.094,2.594 -0.5,1.5 -0.5,2 -1,1 -1.594,1 -2,0.09 -3.593,0 -3.594,-0.5 -3.094,-0.5 -2,0 -1.5,0.5 -0.5,-1 -1.125,-1 -1.5,-1.5 -1,0 -1.094,0.5 0,1.093 -1,0.5 -1.5,-0.5 -2,0 -0.593,0.5 -0.5,1.407 0,0.593 0.593,1.5 1.5,0.5 2,0 1.094,0.5 1.5,1 0,1 -0.5,1.5 -2,1.094 -1.594,-1 -1.5,-1 -1.593,0 -1,0.5 -0.5,2.5 0.5,2.5 -1,1.125 -1.5,0.5 -2,0 -1.594,-1.5 -1.5,0.5 -1.5,2.5 -1.594,4.594 -0.406,5.594 -1,6.5 -0.5,5.093 0,7.594 -1,2 0,3 0.594,2.5 1,2.625 1.093,6.5 0.5,6.094 0.5,4.5 -0.5,2.594 0.594,3 1,2 1,2.5 1.125,3.5 2.594,6.093 0.5,6 1.594,5.094 0.5,3 1,4 0.593,2.125 0.5,1 1.5,0.5 1,0.5 2.094,-0.625 1,-1.5 1,-4 0.5,-1.5 -0.5,-2.094 0,-2.5 -0.594,-1.5 0,-4 1,-2.093 2.094,-1.5 0,-2.5 -4.094,-2 -1.093,-3 -0.5,-7.594 3,-6.594 -0.5,-2.5 -0.594,-3.625 9.187,-10.594 8.719,-1.093 3.5,-8.094 6.688,-2.594 13.812,-0.125 11.188,0.5 6.687,5.5 0,8.125 -1.5,5 6.719,3.5 17.5,15 19,9.5 4.594,5.5 7.187,9.594 -5.094,2 4.594,4.094 0,6.5 5.219,13.093 -2,3.594 1.594,5 1,4.125 5.093,0.875 3.094,5.125 5.719,4.5 2.094,13.594 -3.594,5.094 -0.5,1 -4.094,4.593 -2.5,3.5 -2.5,2.594 -9.812,-5 -3.094,-3 -2.5,-4.594 -1.594,-5 -2.125,-7.593 1.5,-10.094 -4.594,0 -6.187,-10 -6.219,-11.094 -8.781,-15.125 -4.594,-9.094 5.594,-3.5 -2.594,-3 -8.125,4.094 -1.094,-5.094 4.594,-9.093 -6.687,-11.094 -7.188,-2.5 -4.125,-1.5 -5.594,-1.906 -9.781,-11.594 -8.219,0.594 -6.593,3.093 -8.188,5.094 -4.125,7.125 -1.375,11.594 1.5,5 2.094,2 1,1 1,0 1.594,-1.5 3,-2 5.093,-1.594 5.719,-1 5.094,-0.125 4.094,0.5 3.5,1 4.687,2 3,1.5 1.625,2.5 1.5,1.5 1.594,2 1,0 2.594,1.5 2,1.5 2.093,2.5 3.594,3.5 2,4.625 1.625,3.5 2.594,3 2.5,2 4.687,8.094 4.594,7 3.125,8.094 3.594,6.5 3.687,7.093 2,7.5 2.094,8.094 1.625,10.625 1.094,11.094 0.06,13.594 0.5,10.687 0,5.5 1.124,4 3.063,10.125 1.625,3.094 1.5,9 1.094,5.094 0.5,2.5 86.906,-11.688 100.188,-14.312 29.624,-3.688 19.876,-2.719 16.406,-2.093 32.718,-4.313 19.376,-2.687 102.187,-14.313 2.125,0 13.812,-2.094 50.563,-6.906 161,-21.781 46,-6.406 82.219,-11.094 30.718,-4.313 64.376,-8.5 63.906,-9 15.906,-2.093 16.312,-2.094 92,-12.813 83.782,-11.093 16.406,-2.094 98.094,-13.813 99.218,-13.281 28.563,-4.219 70.625,-9.593 97.094,-13.188 96.594,-12.812 95.093,-13.188 97.094,-13.312 29.219,-3.688 19.406,-2.625 48.094,-6.875 107.781,-14.312 203,-28.094 13.313,-1.594 4.593,-10.5 3.5,-7.812 3.219,-6.407 0.281,-0.687 2.594,-3.5 3.625,-2.094 2,0.594 1.594,0.406 3.906,2.5 4.281,3 5.094,2 23,1.875 11.813,0.906 14.812,1 13.688,0.813 -0.5,-6 31.093,-2.594 0,-2.625 0.313,-6.094 15.781,-1.281 -0.187,-8.125 9.812,-0.594 6.594,-0.281 7.594,-0.625 0.09,-7.687 4.907,-0.313 4.593,-0.5 -3.593,-12.281 -1.313,-4.5 -0.375,-3.5 -0.5,-5.594 0.188,-4.5 0.312,-2.125 -0.125,-1.5 0.906,-5 2.407,-4.375 3.187,-3.812 3.625,-6 0.594,-0.907 3,-4.781 5,-5 4.687,-4.906 6.594,-3.813 2.406,-2.781 12.313,-13.625 11.781,-12.094 0.813,-32.5 0.312,-11.687 0.281,-8.313 0.407,-8.593 -0.188,-2.5 -0.5,-3.5 -0.406,-2.594 -0.09,-1 -1.219,-4.4063 -3.281,-3.0937 -0.906,-0.8126 -5.094,-3.9062 -6.219,-6.0938 -1.5,-5.5 0.719,-4.5937 0.188,-2.9063 1.406,-2.7812 4.187,-4.8125 3.594,-7.0937 1,-6.0938 -0.594,-7.5 -1,-6.625 -2,-3.2812 -3.781,-3.2188 -1.125,0 -1.5,-0.2812 -3,1.1874 -3.187,4.4063 -3.313,1.3125 -2.875,-0.3125 -3.312,-3.6875 -2,-4.5 -0.594,-5.625 0.09,-7.5 -1.313,-3.5 -1.375,-5.5938 -3.125,-9.0937 -3,-6.9063 -2.781,-5 -1.406,-2.1874 -4.094,-5.5938 -4.719,-3.7188 -2.187,-0.6874 -4.407,-1.5938 -3,-0.625 -5.281,-1.0938 -8.219,-0.7812 -8.281,-0.4062 -10,-0.9063 -8.125,-1.9063 -5.187,1.5 -2.407,1.8126 -1.593,1.2812 -3,2.9062 -0.594,0.7188 -2.313,2.5 -4.281,3 -3.125,0 -4.594,0.094 -9.687,0.5 -6.313,-0.4063 -0.906,0 -6.375,-1.6875 -2,-1.3125 -2.906,-3 -5.594,-4.5 -3,-4.8125 -2.719,-3.2812 -3.406,-2.7188 -3.094,-0.2812 -3.5,1.7812 -1.593,4.7188 -1.594,5.6874 -1.594,4.5938 -3,2 -3.125,0 -5.094,-3 -3.781,-5.6875 -2.406,-2.8125 -1,-5.5938 -0.219,-3.5 0.625,-6.0937 -1.906,-2.9063 -2.719,-2.5937 -4.594,-4.9063 -1,-2.0937 -2.593,-5.0937 -2.688,-7 -0.312,-2 -0.09,-0.8126 -1.594,-2.5937 -3.125,-0.6875 -4.594,-0.125 -3.593,0.8125 -2.688,-1.8125 -1.312,-3.5 0.09,-5.5 -0.281,-9.1875 1.094,-7.9063 2.094,-9.0937 3,-7.5937 0.406,-0.8126 5.687,-11.5937 5.594,-11.4063 2.219,-6.5 0.281,-1.0937 1.719,-5.0937 0.781,-5.5 -0.5,-4.2188 -0.187,-1.375 -0.188,-3.5 -0.125,-1.125 0,-4.5 1.5,-6.5938 0.625,-6.4062 -1,-5.5 -2.5,-4.7812 -0.312,-2.4063 -0.688,-3.3125 0.688,-1.2812 1,-3.2188 1.687,-4.6875 0.719,-4.8125 0.09,-0.7812 -0.188,-5.5938 -1.5,-6 -0.906,-1.625 -1.5,-2.5938 -3.5,-4.4062 -4.406,-3.6875 -1,-1.3125 -2.407,-3.1875 -1,-4.5 0.907,-1.8125 3.093,-4.2812 2.594,-2.2188 1.219,-1 2.906,-1.875 3.094,-2.9062 0.406,-2.2188 0.375,-1.5 0.125,-3.5 -3,-4.7812 -3.5,-4.8126 -5.312,-4.5 -8.688,-3.5 -7.312,-1.2812 -3.407,-0.2188 -7.187,-0.4062 -5.594,-1.375 -4.719,-3.5 -5.406,-8 -2.781,-6.125 0.781,-5.875 2.625,-5.3125 6.281,-5.5937 4.5,-5.0938 7.094,-11.5 3.125,-6.7188 2.094,-8.5 -0.219,-8.6874 -0.09,-0.9063 -0.187,-1 -0.813,-5 -1,-6 -1.5,-4.1875 -0.187,-0.8125 -2.313,-6.3125 -1.906,-3.375 -0.687,-1.125 -0.907,-4.2812 -0.281,-1 -1.406,-3.3126 -3.094,-3.5 -5.906,-5.5 -5.906,-6.0937 -2,-4 0.593,-3.5 0.907,-2.0937 3.5,-1 2.593,0 4.5,0.094 4.094,-0.9063 4,-1.2812 4.313,-2.125 2.093,-2.7812 4.219,-3.0938 4.875,-2.5 6.125,-0.5 5.688,0 4.187,1.1875 9,2.0937 1.625,0.4063 3.094,0.9063 6,-2.8126 3.687,-2.2812 2.907,-2.2188 4.406,-3.2812 4.094,-6.4062 2.906,-5.9063 0.406,-0.6875 1.094,-2.3125 1.5,-5.0937 0.5,-6 0.5,-5.5938 -0.09,-1.3125 -0.406,-3.6875 1,-4 1.687,-4.7188 1.313,-2.5 1.281,-2.2812 4.813,-6.8125 2.5,-3.5 1.406,-2.0937 0.5,-0.7188 2.187,-3.5938 1.407,-2.5937 3.187,-11.8125 3,-5.875 4.125,-4.3125 4.094,-3 3.594,-2 0.812,-0.4063 1.375,-0.5 1.906,-0.7812 0.719,-0.4062 2.781,-2.0938 2,-1.625 0.594,-0.375 3.125,-2.5 1.875,-3.125 0.5,-1.5938 0.625,-1.9062 0.375,-3.6875 0.219,-4.0937 0.187,-3.5 3,-4.2188 0.813,-2.1875 5.094,-4 4.187,-4.4063 6,-3.4062 3.313,-3.875 2.406,-2.8125 2.594,-2.8125 0.593,-0.875 1.719,-2.8125 -0.406,-3.5 -2.594,-2.5 -1.812,-1.6875 -0.594,-0.625 -2.719,-2.1875 -1.094,-4.0937 -0.5,-3.5 -2.281,-2.7188 -1.812,-3.375 -0.813,-2.5 0.219,-4.125 0.5,-2.875 -1,-3.125 -0.719,-2 0.406,-1.5 1.813,-2 4.187,-6.5938 4.907,-7.1874 0.812,-1.2188 2.375,-4.5 0.313,-3 -1.188,-2.5 -1.812,-2.7812 -2,-2.5 -1,-2.5938 -0.313,-3.3125 1.313,-4.1875 0.5,-2.625 1.906,-2.7812 0.594,-0.9063 0.187,-3.0937 -0.687,-3.3126 -2.313,-2.9062 -2.5,-3.875 -0.875,-3.3125 0,-2.5 1.281,-1.9063 3.313,-2.1874 3.094,-1.8126 3,-1.2812 2.5,-1.8125 -0.313,-2 -0.687,-0.6875 -3.094,-2 -4.594,-0.5 -3.719,-0.3125 -2.281,-2.3125 -1.312,-4 0.593,-4.375 1.594,-5.625 2.219,-5 1.5,-1.5938 1.406,-1.0937 0.594,-0.5937 1.187,-0.8126 2.219,-1.5 5.188,-2.5937 4,-1.8125 1.593,-0.7812 3.5,-1.7188 1.719,-0.875 4,-2.5 2.5,-6.625 -0.406,-5.2812 -3.219,-10.3126 -2.781,-5.4062 -2.906,-4.6875 -3.813,-2.4063 -2.875,-2.5937 -1.812,-4.0937 -0.313,-2.9063 1.813,-3.8125 2.093,-5.1875 1.719,-7.6875 -1.719,-8.8125 -1.906,-6.3125 -1.094,-2.5938 -4.5,-9.5 -1.906,-3.9062 -1.781,-3.6875 -5.219,-11 -3.094,-8.5937 -3.187,-6.9063 -1.906,-4.1875 0.406,-5 0.594,-1.5 1.5,-2.125 2.5,-3 0.406,-2.7812 -0.906,-3.8126 -2.407,-5.5 -2.781,-8.0937 -0.312,-0.8125 -2.813,-6.875 -1.5,-4.9062 -0.281,-4 0.781,-2.5938 1.406,-1.125 3.094,0.2188 2.625,0.4062 4.094,0 4,-1.3125 3.594,-2.4063 0.812,-0.5 2.188,-2.0937 2,-3.8125 1.187,-4.6875 -1.094,-5.5 -2.781,-2.8125 -6.906,-5.6875 -6.219,-5.5 -4.094,-4.5 -3.093,-4.5937 0.312,-2.8126 1.5,-1.1874 2.281,0 2.907,1.6874 6.812,-0.2812 1.281,-2.5 1.313,-3.625 -3.719,-6 -4.5,-5.5 -5.687,-4.5 -6.188,-3.2812 -2.719,-1.4063 -1.687,-1.0937 -2.313,-2.3126 -0.5,-2.4062 0.09,-1.6875 1.125,-6.0937 2.875,-8.3126 2,-5.6874 2.813,-4.9063 3.812,-3.1875 3.5,-1.3125 1.594,-0.5 1.406,-0.4063 4.594,-1.0937 2.906,-1.0937 4.5,-1.9063 1.875,-1.9063 4.125,-6.0937 5,-7.5937 2.375,-3.3126 1.219,-1.6874 1.594,-1.5938 0.593,-0.7188 2,-2.4062 2.594,-1.7812 1.313,-2.0938 0.406,-0.8125 1,-1.9063 2.281,-3 2,-2.5 3.625,-2.0937 2.094,-0.5 2.5,-1.5937 0.5,-2 -1.313,-1.4063 -3.781,-2.0937 -3.125,-2.5 -2,-2.2188 -0.594,-2.2812 1.344,-1.4063 -4381.437,0 z m -657.969,83 -1,5.5937 -2.5,4.5 2.5,2 1.593,3 -2,1.5938 -2.593,2 -6.094,-0.5 1.5,3.625 4.094,1.375 7.187,-2.5 4.625,2.4062 3.594,2 3.594,3 2.593,1 2.094,2 2.5,1.5 2.125,1.5 5.688,4.5 1,6.0938 6.687,2.9062 2.125,3 1,2.0938 -0.5,2.5 -0.5,3 0,2 -1.5,6.125 -3,2 -1,4.0938 -3.125,3 -0.375,5.5937 1,0.5 1.594,6 3.094,6 0,1 2.093,3 2.094,3.5937 -0.5,3.5 0,3.5 11.813,2 5.687,4.5 0.5,1 1.5,1.5 3.625,4.5 4.688,2 3,-4.0937 8.687,0.4063 2.625,1.5 3.094,0 5.594,4 3.093,6.5 7.219,-4.5938 12.281,-1.125 4.094,0 4.625,4.5 8.688,-1.5938 3,-2 2.593,0 2.594,0.5 4.625,2.4063 6.094,0.5 1.594,-2 2.5,-0.5 3.593,-2.0937 1.5,1 2.594,-1.5 7.719,2.9062 5.594,0 4.593,1.5 5.219,1 7.094,-5.625 6.594,-5.5938 5.187,2.9063 1.5,-4.5 5.625,-1.5937 6.594,-3.5 2.594,-2.5938 6.093,-0.5 2,-2.625 3.094,-1 5.625,-3.0938 6.594,-4.5 11.281,-0.094 6.125,1.4063 6.188,-2 5.593,-1.0938 9.219,1 7.188,-1.625 5.093,1.5 5.094,-1.5938 6.719,0 4.594,-2.0937 6.593,-3 5.094,-3.0937 4.125,-0.5 7.688,-0.5938 2.5,-1.5 3.093,-0.125 0.5,-2 1,-1.5 2.5,-3.5 1.094,-2.5938 -1.094,-4.5 4.094,-3.0937 -1.594,-4.5 3.5,-5.0937 8.719,-1.5 3.594,-2.0938 2,-3 2.594,-1.5 2,-4.625 -3.594,-2.5 -4.094,-5.5 -9.312,-3 -5.094,0.125 -9.813,-4.5 -3.093,-5.5 -4.094,-2 -4,3.5938 -4.719,-0.5 -1,3.5 -6.094,-0.9063 -4.093,-3.5 -10.188,5.5937 -3.625,4 -3.594,3.5938 -3.5,2 -1,5.125 3.094,6 -12.187,15.1875 -3.594,-0.4063 -4,2 -5.719,2.0938 -4.594,-1 -2.593,-3 -9.188,1.125 -3.125,-4.125 -6.594,2.125 -7.187,1.5938 -4.094,-3 -3.625,-1 -4.094,0 -4.593,-0.4063 -6.688,-10.5937 -4.719,-2 -3.593,-2 -1,-4 -7.188,-6.5 -6.219,0.094 -9.687,-5.5 -5.094,2 -6.719,-3.4063 -2.593,-1.5 -3.094,0 -1,-2 -5.094,-0.5 -1.625,-3.5 -4.594,-2 -5.593,3.0938 -10.813,-0.375 -5.594,-2 -3.593,2 -6.188,-1.4062 -2.5,2.5 -11.812,3.0937 -3,-2.5 -3.594,2.0937 -2.594,-3 -5.219,-5.0937 -6.093,-3.4063 -8.188,-3 -9.312,-3.5 -7.188,-3.4062 -4.125,1 -5.094,-1 -5.687,-1.875 -4.594,0 -1.5,-1 -4.625,0 -4.594,1.5938 -1.593,-2.5 -4.094,1 -4.594,-1 -4.125,-0.9063 -10.187,-1.5 z m -413.813,0.5937 -1.594,1 0.594,6.5 -2,4.0938 -3.594,3.5 -3,3.125 -2.593,2 -3.5,2.0938 -3.094,2 -2.5,2 -4.594,1.5937 -6.219,0.5 -4.593,-2.4063 -4.594,-1 -2.094,-3 -4.625,5 -7.594,3.0938 -9.093,11.2188 -3.594,1 -3.094,0 -4.125,1.0937 0.625,4.5 -3.625,4.0937 7.219,-1.5937 4.594,-0.5 4.593,1.4063 5.094,4 6.219,-0.5 4.094,-4.0938 2.5,-2 2.593,0 4.594,1 9.219,3.875 7.187,2.5 5.094,1.5 6.219,4.5 5.187,3.4062 4.594,2.5 7.219,0.5 2.5,-4.0937 6.094,-1 6.687,-0.5937 8.219,-0.5 6.594,0.9062 8.812,1 6.594,-2.125 5.594,-0.5938 4.593,-0.5 1.594,-2 -9.781,-3 -2.094,-3.5 -1,-4 -1.125,-4.5 -7.687,-5.5 -5.094,-2.5 -3.719,-5 -3.594,-0.5 -8.593,2.0938 -5.688,0 -7.219,-2.5 -3.593,-5 4.593,-5 -1.593,-4.0938 0,-4 -3.094,-2.5 -1.594,-7 -4.125,-2.5 z m 32.313,13.8126 -2,2.5937 -1.5,2 2.093,2.5 2.5,0.5 4.094,-0.5 2.125,-0.5937 0.5,-3 -2.125,-3.5 -5.687,0 z m 257.906,30.4062 -3.594,0.5 -3.125,2.0938 -4,5 -3.094,1.5937 -3,1.5 -2.093,3.5937 -6.594,3 -5.094,1.0938 -8.219,1.5 -6.687,-0.875 -4.594,0.5 -7.125,-0.4062 -4.687,-3 -6.094,0 -7.219,-3.4063 -6.687,0.5 -5.594,2.0937 -3.5,5.5 -13.219,11.7188 -5.187,-0.4062 -2,0 -2.594,1.5 -2.5,0.5 -5.219,-1.4063 -11.687,3.0937 -9.813,-1.5 -11.187,-4.4062 -7.688,0 -4.125,1.625 -5.687,-0.5 -1.5,3.0938 -2.5,2.5 -3.094,1 -3.5,0.5937 2.5,3 5.187,0.4063 2.5,3 1.594,3.5937 3.125,1.4063 5.094,1 3.094,2 2.593,2.5 1.094,6.0937 3.125,3.5 4.594,4 4.594,4.5 1.593,5 1.094,4 3.125,4 2.594,5.5937 1,3.5 2.594,0.5 3.593,2 2.594,3 1,4.5 2.625,4 1.594,5.5 2.594,5.5938 -0.5,4 7.687,4 2.125,2.5 2.094,3 3,1 2.594,-0.5 2.093,1.5 1,2 1.5,2 3.594,-1.0938 2.125,2 3.094,2.5 3.594,2.5 4.093,2 2.594,3 3.625,1 4.094,3 3.094,1 2.593,2.5 2.5,0.5 2.594,0.5 4.625,-1.0937 1.5,-2 -0.5,-4 6.094,-6.0937 5.094,-2.0938 6.093,-1.625 10.813,1.5 5.594,-3.5938 6.093,-1.5 8.219,-0.5937 7.688,-1.5937 1.5,-4 5.093,-2.0938 2.5,-4 9.219,-3.625 5.594,-4.5938 4,-5.0937 9.781,-2.5937 2,-2.5 9.719,-1.5938 10.187,-0.625 6.719,0.5 5.594,0.4062 3.094,-0.5 -2.594,-4.5 0,-6.5937 -2.594,-4.5 -2.625,-1.5 -1.094,-8 -1.093,-6.5937 -0.5,-6.5 1,-5.0938 -0.09,-2.5 -4.094,-0.5 -9.719,1.5938 -10.687,3.0937 -6.219,-2.5 -2,-2 -9.781,-2.9063 -12.813,-7.5 -7.281,-7 -0.5,-7.5937 -1.625,-5 -1.094,-4 1.5,-5.5937 4.094,-7.0938 -0.09,-5.5 0.5,-4 -0.5,-2.125 -3.093,-0.875 -2.5,0.5 -2.594,-1.5 z m 643.281,18.375 -3.594,0.625 -4.593,0.5 -5.594,1.5938 -2.5,2 1.5,2 9.187,-0.5938 3.094,-0.5 2,-0.5 1.625,-1.5 -1.125,-3.625 z m -64.5,1.5 -4.094,1.125 -7.687,1.5 0,1.5 4.687,1.5 3.594,1.5 4.125,3 5.094,2 10.281,-1.125 2,-1 -1.5,-0.5 -4.687,-4 -1,-2 -5.188,-3 -5.625,-0.5 z m 42,5.3125 -4.594,3 -5.093,0.5937 -3.594,0 -1.5,-1 -5.094,2.5938 4.594,3.9062 6.187,1 7.594,-3.0937 2.125,-1.5 1.5,-2 2,-1.5937 0,-1 -4.125,-0.9063 z m 1075,257.4063 -22,5.6874 -7.594,2.5938 -2.593,3.5 -3.5,6.625 -3.594,3.0938 -2,2.5 -3.094,4.0937 -0.5,2.5 -0.5,1.5 6.781,19.5937 2.594,-0.5 -4.687,-16.0937 2.5,-1 3.687,4.5 0.406,-5.0937 4.094,-4 5.125,-3.0938 -1,-2.5 2,-3.625 3,-1.5 4.188,8.5 2.093,2.125 10.719,0.875 9.188,-3.5938 0,-2 -10.688,3.0938 -8.719,-1 -1.093,-1.5 -3.094,-7 11.781,-4.5938 4.5,-1.5937 3.719,5 4,-2 -1,-5.5937 -4.219,-8 -0.5,-1.5 z m -744.281,319.1874 -2.594,1 -1,3 -4.5,3.0938 -7.719,-0.5 1,3.125 3.094,5.5 1.125,6.5 2.094,3.5938 2.5,2 3.094,-1.0938 1.5,-4 1.5,-4.125 2.5,-6.5938 -2,-5 0.906,-3.5 0,-3 -1.5,0 z m 401.406,7.7188 -5.219,1 2.094,6 8.813,11.5938 12.406,13 7.187,2.5 -1.5,7.0937 5.594,2.9063 6.719,6.5937 1.5,0.4063 13.906,-2.0938 6.594,1 6.187,2 7.094,1.375 4.125,1.5 6.688,-3.0938 6.093,-4.5 4.594,-0.094 -6.594,7.5937 5.719,5.5 8.688,0 5.093,5.5 1.594,11.5938 2.125,10.625 4.188,8.5 3.093,5.5938 1,3 -2.5,1.5 -2.593,0.5 -4.5,7.0937 1.5,6.5937 -3.5,5 -3.094,3.0938 0.594,7.625 4.093,5.5 4.719,3 4.094,4.5 1.594,6.5 4.593,4.5 4.594,5.5938 4.719,4.5 5.094,3.5 7.687,-0.5938 10.719,-0.125 8.781,2.5 10.719,-3.0938 8.687,-0.094 12.813,-2.5937 8.187,4 15.313,0.4062 5.094,0.5 6.687,2.375 4.125,6.625 13.875,7.375 8.219,2.5 5.594,-3.0938 5.093,-1 1,-6.5937 6.219,-0.5 1.375,-13.6875 -6.187,-9 -3.094,-10.625 -11.813,-8 -6.781,-14.5938 -20.625,-17 -16,-22.0937 3,-9.5937 1,-4.5 -3.5,0 -8.187,0.094 -7.188,-5.5 -3.125,-4 -10.281,-2 -18.5,-7.9063 -7.094,-0.5 -8.719,1.0938 -8.781,-5.5 -4.625,-1.5 -10.187,-5.5 -3.094,-3.5 -5.719,-0.375 -3.094,-5.625 -5.093,0.625 -5.594,3.5 -5.594,2.0938 -4.625,-0.5 -2.594,-6.5 -4.687,-7 -4.094,-3 -11.812,-5.5 1.5,-3.5 -6.688,-1 -1.5,-3.5 -2.625,-4.5 -5.594,-3.5 -5.187,1.5 -11.719,0.5937 -3.594,0.5 -6.187,-0.4063 -7.594,-1.5 -6.719,1.5938 -4.593,-1 -10.188,-1.875 z M 4194.1872,9741 l -4.594,5.0937 -7.187,0.5938 -5.094,1 -3,6.125 -6.125,3.0938 -7.687,-4 -3.094,-3 -6.219,-2 -0.5,1 2.625,6.0937 4.688,7.5 -1,6.0937 2.593,5 4.094,3.5 5.219,10.0938 7.187,5.5 2.594,3 3.625,2.5 9.688,2.9062 9.312,2 7.594,1.9063 4.687,6.0937 10.813,2.4063 5.594,1.5 4.093,-1.5937 8.719,2.5 8.188,4 9.687,-1.0938 5.719,-0.625 4,-1.5 5.687,-2.0938 7.094,1 2.625,-3.5937 2,-3 0,-2.5 2.5,-0.5 2.594,-0.5937 2.5,-3.5 -6.094,-2.5 -7.219,-4 -3.593,-3.5 -4.688,-8.5 -4.125,-3.5 -4.187,-4.5938 -4.594,-4.5 -5.594,-2.4062 -6.219,-1.5 -2.593,-1.5 -6.094,0 -4.094,-3.5 -8.719,0.094 -4.187,-5 -6.094,-3.5 -6.219,-4.5 -4.593,-2 -3.094,-3 -5.094,-2 -4.125,-1 z m 898.813,269.094 -5.594,4.594 -7.094,1.625 -2.125,-5.5 -8.187,0.5 -5.594,2.093 0.594,7.5 -0.5,7.094 0,4.094 9.187,-0.09 4.125,3.5 3.594,3 3.687,6.5 3.094,12.093 4.125,6.594 0.594,10.125 2.594,7.5 4.187,6.594 6.125,5.5 5.188,6.5 5.687,9 3.625,14.187 1.688,16.594 6.687,13.125 6.125,-1.125 5.188,9.625 6.812,12.594 8.188,5 5.593,6.5 -0.406,8.094 4.625,9 3.188,9.093 6.593,2 0.594,6 12.313,0.407 5.093,4.5 4.094,7.593 6.219,3 8.187,8.5 3.094,3.5 4.125,-1.5 3.594,4.5 5.094,1 4.687,4 4.719,13.594 12.187,-11.187 5.094,-1.094 6.125,-1 -1.625,-8.094 6.125,-3.125 3.594,-4 8.187,-2.094 6.594,2.5 3.625,4.5 7.188,-2.093 6.093,1.5 3.094,4 5.219,1.5 1.5,-4.094 -7.719,-5 -9.781,-14.5 -12.406,-7.5 -12.813,-13.094 -13.375,-11.5 -11.812,-9.5 -16.5,-15 -9.813,-7.5 -6.594,-6 -4.187,-5.625 -4.594,-5 -7.219,-6 -10.781,-5 -9.312,-9.5 -7.688,-7.5 -8.219,-12.594 -9.406,-15.593 -9.187,-7.5 -4.688,-9 -7.719,-5 -5.187,-14.594 -1.594,-6.594 -5.625,-4.5 -4.094,0 -2.593,-9 -4.188,-7.125 3.594,-4.5 -3.094,-3 -2.625,-2 -2.5,-1.5 -4.687,-5.094 z m 1280.406,242.094 -2,1 -1,1.5 -1,3.625 -2.094,3.5 -1,5.093 -1.5,1.5 -0.5,2 -1.5,1.594 -1,0 -0.625,1 1.125,1.5 1.5,0.5 2.594,0.5 1.5,-0.5 0,-2.594 2,0.5 1.094,1 1.5,1 0,1 0.5,1.5 2.093,0.5 1.5,-1 1,-0.5 0,-4 -1.5,-1 -1.593,-1 -2,-1 -1.094,-1.5 -1,-1 0,-1.593 1,0.5 1.594,0.5 1.5,-0.5 -0.5,-1 -1,-1 -0.594,-1.5 0,-2.5 0.5,-1.5 1.094,-1.625 1.5,-2 -0.5,-2 -1.594,-0.5 z"
     id="rect14"
     inkscape:connector-curvature="0" />
</svg>
