<?xml version="1.0" encoding="UTF-8" standalone="no"?>
<svg
   xmlns:dc="http://purl.org/dc/elements/1.1/"
   xmlns:cc="http://creativecommons.org/ns#"
   xmlns:rdf="http://www.w3.org/1999/02/22-rdf-syntax-ns#"
   xmlns:svg="http://www.w3.org/2000/svg"
   xmlns="http://www.w3.org/2000/svg"
   xmlns:sodipodi="http://sodipodi.sourceforge.net/DTD/sodipodi-0.dtd"
   xmlns:inkscape="http://www.inkscape.org/namespaces/inkscape"
   width="6233.5"
   height="4510.3125"
   viewBox="0 0 6233.5 4510.3125"
   id="svg2"
   version="1.1"
   inkscape:version="0.48.1 "
   sodipodi:docname="Aa.svg">
  <metadata
     id="metadata20">
    <rdf:RDF>
      <cc:Work
         rdf:about="">
        <dc:format>image/svg+xml</dc:format>
        <dc:type
           rdf:resource="http://purl.org/dc/dcmitype/StillImage" />
      </cc:Work>
    </rdf:RDF>
  </metadata>
  <defs
     id="defs18" />
  <sodipodi:namedview
     pagecolor="#ffffff"
     bordercolor="#666666"
     borderopacity="1"
     objecttolerance="10"
     gridtolerance="10"
     guidetolerance="10"
     inkscape:pageopacity="0"
     inkscape:pageshadow="2"
     inkscape:window-width="1280"
     inkscape:window-height="1004"
     id="namedview16"
     showgrid="false"
     fit-margin-top="0"
     fit-margin-left="0"
     fit-margin-right="0"
     fit-margin-bottom="0"
     inkscape:zoom="0.084439088"
     inkscape:cx="2239.2366"
     inkscape:cy="1249.8977"
     inkscape:window-x="-8"
     inkscape:window-y="-8"
     inkscape:window-maximized="1"
     inkscape:current-layer="svg2" />
  <path
	 style="fill:#9FAEC0"
	 stroke="#9FAEC0"
	 stroke-width="10"
	 transform="translate(0, 125)"
     d="m 6046.8128,0 -479.407,16.7187 -28,0.9063 -278.812,9.2812 -12.188,0.4062 -323.906,9 -159.687,4 -402.219,10 -73.1875,1.0938 -279.9063,3.5 -12.5937,0.2188 -61.5937,0.6874 -6.125,0 -34.2813,-1.4062 -4,-0.1875 -17,-0.7187 -26.2187,1.3124 -15.875,0.9063 L 3817,56.4062 3708.6876,62 l -3.375,0 -87.8126,0.9062 -3.4062,0.094 -141.6875,1.2187 -139.2187,0.2813 -11.0938,0.7187 -55.1875,0.1875 -442.2187,0 -16.375,-0.1875 -22.125,-0.2187 -10.1876,0 -28.1874,0.8124 -20.5,0.6876 -23.125,0.9062 -4,-0.094 -26.7813,-0.1874 -6.5,-0.125 -15.9063,-0.1876 -91.6874,-1.4062 -0.625,0 -5.5938,-0.094 -95.7812,-1.0937 -3.625,-1.8125 -3.5938,-1.5938 -0.5,-0.1874 -21.5,0 -23,-0.4063 -57.9062,-1.4063 -32.2813,0 -48.0937,-1 -24.125,-0.1874 -8.1876,-0.125 -7.6874,0.3124 -229.5,-3.3124 -116.3126,-2 -20,-0.094 -92.1874,-0.6875 -79.4063,-1.2187 -64,-1 -10.2187,-0.1876 -21.5938,-0.1874 -20,-0.2188 -23,-0.2812 -15.9062,-0.2188 -36.875,-0.4062 -31.2188,-0.5938 -12.2812,-0.1875 -3.625,-0.094 -12.7813,-0.2188 -64,-1.5938 -60.5,-1.3124 -26.0937,-0.5938 -64.5,-1.4062 -24.125,-0.5938 -6.2813,-0.094 -10.0937,-0.3124 -5.5,-0.094 -10.9063,-0.2812 -23.5,-0.625 -6.7187,-0.1876 -23,-0.5937 -42.5938,-0.8125 -29.1875,-0.5 -151.5937,-2.2812 -31.8126,-0.5 -37.3124,-0.7188 -24.6876,-0.5 -16.4062,-0.4062 -52.6875,-1.1876 -3,0 -161.3125,-5.6874 -52.4062,-1.9063 -16.375,-0.5 -79.4063,-2.3125 -16.4063,-0.5938 -123.1874,-4.1874 -16.4063,-0.625 -34.8125,-1.2813 -64,-2.2187 -2,57.9062 -1,23.4062 -0.5,17.9063 -0.4062,7.7813 -0.6876,18.9062 -1.4062,31 -0.6875,14.9062 -0.094,2.1876 -1.125,21.4062 -1.7813,45.0938 -0.5937,15.625 -0.8126,19.5937 -2.5,63 -1.0937,32.0937 -0.5937,12.6876 -0.2188,3.4062 -1.6875,46.5 -0.7187,18.0938 -0.5938,15.5 -0.094,2.2187 -2,50.6875 -1.8124,42.8125 -0.875,18.1875 -0.2188,6 -0.2812,8.5 -0.625,16.0938 -1.2813,33.4062 -0.7187,16.5938 -0.6876,18.5 -1.1874,32.3124 -1,23.4376 5948.9377,0 -1.062,-24.625 -4.282,-100.625 -12.406,-286.5938 -2.406,-56.5 -11.782,-280.4062 z"
     id="rect4"
     inkscape:connector-curvature="0" />
  <path
	 style="fill:#9FAEC0"
	 stroke="#9FAEC0"
	 stroke-width="10"
	 transform="translate(0, 100)"
     d="M 129.8126,748.75 129,767.2187 l -1.3124,31.6875 -0.375,8.4062 -0.4063,10.0938 L 126.3126,833.5 125,875.8124 120.6876,976.5 l -0.094,4.125 -0.4062,12.0937 -1.2813,32.6875 -2,53.4062 -2.5,65 -0.5,14 -6.3125,161.0938 -0.5938,16.7188 -1.3124,32.6874 -2.1876,56.3126 -0.3124,7.0937 -2.1876,58.4063 -0.4374,10.9374 6010.2504,0 -16.813,-393.4374 -15.25,-358.875 -5948.9374,0 z"
     id="rect6"
     inkscape:connector-curvature="0" />
  <path
	 style="fill:#9FAEC0"
	 stroke="#9FAEC0"
	 stroke-width="10"
	 transform="translate(0, 75)"
     d="m 100.5626,1501.0624 -2.75,70.5626 -0.625,16.0937 -2.6876,72 -0.8124,20.9063 -1,24.375 -1.0938,28.2187 -3.5,92.6875 -0.1875,4.5 -3,80.9062 -0.5937,16.0938 -3,80.5938 -0.625,16.125 -0.2813,7.5937 -2.9063,73.4063 -0.5937,15.5937 -3.2187,81 L 73,2217.8124 72.5,2232 l -1.0937,21.375 6071.4375,0 -3.438,-82.375 -4.218,-97.875 -20.594,-482.7188 -0.188,-5.4062 -3.593,-83.9376 -6010.2502,0 z"
     id="rect8"
     inkscape:connector-curvature="0" />
  <path
	 style="fill:#9FAEC0"
	 stroke="#9FAEC0"
	 stroke-width="10"
	 transform="translate(0, 50)"
     d="m 71.4063,2253.375 -0.7187,13.75 -0.2813,9.1874 -0.5,6.8126 -0.5,10.2812 -0.2187,4.8125 -0.6876,14.0937 -14.4062,283.5 -2.5938,70 -0.3124,5.5 -2.1876,48.3126 -0.6874,16.0937 -0.4063,11.5937 -1.4063,41.1876 -0.094,1.125 -1.5,38.1874 -0.3125,9.0938 -1.5938,39.7188 -0.6874,16.0937 -1.125,30.1875 -1.1876,28.5938 -0.8124,24.2187 -1.0626,29.9687 6136.3441,0 -15.156,-355.4687 -3.719,-90.5 -12.75,-306.3437 -6071.4378,0 z"
     id="rect10"
     inkscape:connector-curvature="0" />
  <path
	 style="fill:#9FAEC0"
	 stroke="#9FAEC0"
	 stroke-width="10"
	 transform="translate(0, 25)"
     d="m 38.125,3005.6874 -1.0312,29.4376 12.5938,130 L 49.4063,3173 44,3299.3124 l -0.6874,16.0938 -2.125,48.9062 -0.875,22.5938 L 40,3396.5 l -0.4062,7 -3,72.5 -4.9062,122.625 -0.6876,17.5937 -2.3124,68.0937 -0.375,13.0938 -0.2188,4.9062 L 26,3752.2187 25.7813,3758 l 6179.8745,0 -1.25,-30.5938 -4.406,-106 -24.094,-581.6875 -0.218,-5.4063 -1.219,-28.625 -6136.3438,0 z"
     id="rect12"
     inkscape:connector-curvature="0" />
  <path
	 style="fill:#9FAEC0"
	 stroke="#9FAEC0"
	 stroke-width="10"
     d="m 25.7813,3758 -0.2813,7.2187 -0.5937,14.5937 0,2.5938 -0.5,12.5 -2.9063,71.9062 -0.9062,22.5938 -1.1875,33.4062 -0.2187,7.5 -0.2813,6.9063 -2.5937,69.5 -0.625,15.5937 -1.0938,30.6876 -0.9062,23.8124 -0.5938,16.5938 L 12,4124.125 10.8126,4156.3124 9.5938,4189 0,4453.8125 l 452.6876,15.4062 139,4.1875 114.9062,3.5938 81.5,2.3125 29.3125,1 31.7813,0.9062 47.2187,1.5 32.7813,1 31.8124,0.9063 15.9063,0.094 62.0937,1.1875 15.9063,0.094 138.5,2.625 15.9063,0 145.1874,2.5938 40,0.6875 52.8126,0.7187 3.5937,0 5.6875,0.1875 8.2188,0.4063 24.5937,0 161.0937,3.0937 139,2.1875 30.3126,0.5 17.375,0.125 13.4062,0.1875 16.9062,0.4063 60.5,0.6875 3.0938,4 3.0938,3.5 30.2187,0.094 16.4063,0.125 4.6874,0 174.9063,1.1875 14.9063,0.094 96.375,0.7188 14.9062,0 162.4688,0.1875 99.6874,0 18.4376,-0.094 15.9062,-0.094 13.9062,-0.125 16.4063,-0.094 32.7813,-0.2813 50.3124,-0.4062 13.9063,-0.2188 -6.0937,0.125 117.875,-0.3125 16.9062,0.094 87.2188,0.3125 34.375,0 444.3124,-0.2188 68.1876,-0.094 37.5,-0.094 31.3124,0 21.2813,1.5 64.625,0 568.1875,-6 130.3125,-5.1875 158.5935,-3.7188 819.313,-21.6875 76,-2.4062 181.093,-5.3125 10.094,-0.2813 4.594,0 70.594,0.9063 6.5,-0.2188 16.625,-0.4062 100.5,-4 22.687,-0.875 30,-1 23.094,-0.8125 17.594,-0.4063 57.5,-1.4062 37.5,-0.875 23.406,-0.625 251.406,-6.7813 -4.906,-130.8125 -2.094,-50.9062 -0.594,-16.0938 -1.406,-32.6875 -0.5,-14.0937 -1.5,-34.7188 -0.5,-13.5938 -6,-146.4062 L 6205.6558,3758 25.7813,3758 z"
     id="rect14"
     inkscape:connector-curvature="0" />
</svg>
