<?xml version="1.0" encoding="UTF-8" standalone="no"?>
<svg
   xmlns:dc="http://purl.org/dc/elements/1.1/"
   xmlns:cc="http://creativecommons.org/ns#"
   xmlns:rdf="http://www.w3.org/1999/02/22-rdf-syntax-ns#"
   xmlns:svg="http://www.w3.org/2000/svg"
   xmlns="http://www.w3.org/2000/svg"
   xmlns:sodipodi="http://sodipodi.sourceforge.net/DTD/sodipodi-0.dtd"
   xmlns:inkscape="http://www.inkscape.org/namespaces/inkscape"
   width="1624.1875"
   height="1177.8125"
   viewBox="0 0 1624.1875 1177.8125"
   id="svg2"
   version="1.1"
   inkscape:version="0.48.1 "
   sodipodi:docname="AJAX.svg">
  <metadata
     id="metadata20">
    <rdf:RDF>
      <cc:Work
         rdf:about="">
        <dc:format>image/svg+xml</dc:format>
        <dc:type
           rdf:resource="http://purl.org/dc/dcmitype/StillImage" />
      </cc:Work>
    </rdf:RDF>
  </metadata>
  <defs
     id="defs18" />
  <sodipodi:namedview
     pagecolor="#ffffff"
     bordercolor="#666666"
     borderopacity="1"
     objecttolerance="10"
     gridtolerance="10"
     guidetolerance="10"
     inkscape:pageopacity="0"
     inkscape:pageshadow="2"
     inkscape:window-width="1280"
     inkscape:window-height="1004"
     id="namedview16"
     showgrid="false"
     fit-margin-top="0"
     fit-margin-left="0"
     fit-margin-right="0"
     fit-margin-bottom="0"
     inkscape:zoom="0.38942949"
     inkscape:cx="1188.1028"
     inkscape:cy="308.38928"
     inkscape:window-x="-8"
     inkscape:window-y="-8"
     inkscape:window-maximized="1"
     inkscape:current-layer="svg2" />
  <path
	 style="fill:#9FAEC0"
	 stroke="#9FAEC0"
	 stroke-width="10"
	 transform="translate(0, 125)"
     d="m 210.1875,0 -2.09375,60 -0.40625,10.09375 -8,100.40625 -2.03125,25.25 1417.90625,0 -1.5625,-51.9375 -0.6875,-21.3125 -0.5,-23.59375 -1.3125,-55.59375 -1.0938,-16.625 -71.7187,-0.875 -48,-0.71875 -21.5937,-0.90625 -5.5,-0.28125 -22.0938,-1.3125 -65,0.90625 -17.3125,-0.6875 -27.7813,-1.21875 -0.5,0 -79.3124,0.0937 L 1201,21.4062 l -12.3125,0.1875 -33.7812,-0.90625 -81.7188,-1.59375 -22.1875,0 -29,-0.5 -14,-0.0937 -38.8125,5.5 -9.5,5.90625 -16,-0.40625 -2.5,0 -2,-6.09375 L 914,22.5 880.59375,18.6875 857.8125,16.5 l -41.125,1 0.71875,5.3125 -0.59375,3 -1.90625,3 -3.21875,2.875 -4.28125,21.21875 -41,7.09375 L 767.5,39.5 768.59375,15.90625 699.5,15.5 l -33.8125,-0.0937 -24.09375,-0.71875 -32.90625,-1.1875 -26.375,-1 -6.40625,-0.0937 -2.8125,-0.0937 -2.28125,0 -66,-3.3125 -121.71875,-5.09375 -5.1875,-0.21875 -21.40625,-1 -16.40625,-0.5 -1,0 L 313,0.68765 210.1875,1.5e-4 z"
     id="rect4"
     inkscape:connector-curvature="0" />
  <path
	 style="fill:#9FAEC0"
	 stroke="#9FAEC0"
	 stroke-width="10"
	 transform="translate(0, 100)"
     d="M 197.65625,195.75 197,203.6875 l -5.6875,83.71875 -3.40625,49.6875 -3.84375,55.0625 1438.2187,0 -0.9687,-31.5625 -3.9063,-102.5 -1.8437,-62.34375 -1417.90625,0 z"
     id="rect6"
     inkscape:connector-curvature="0" />
  <path
	 style="fill:#9FAEC0"
	 stroke="#9FAEC0"
	 stroke-width="10"
	 transform="translate(0, 75)"
     d="m 184.0625,392.15625 -2.25,32.03125 -0.21875,5 -1.6875,26.40625 -1.21875,17.90625 -7.875,111.3125 -0.25,3.75 1451.5937,0 1.6563,-56.65625 -0.3125,-16.59375 0.1875,-17.125 0.5,-43.875 0,-1.5 -1.875,-60 -0.031,-0.65625 -1438.2187,0 z"
     id="rect8"
     inkscape:connector-curvature="0" />
  <path
	 style="fill:#9FAEC0"
	 stroke="#9FAEC0"
	 stroke-width="10"
	 transform="translate(0, 50)"
     d="m 170.5625,588.5625 -1.65625,24.25 -10.40625,134.59375 -1.1875,14 -1.90625,23.5625 972.65625,0 -0.25,-1.78125 0,-5 -0.5,-1.5 -0.5,-2.5 -1,-3.09375 -2.625,-3 0,-2.5 -0.5,-2 2.5,-5.09375 2.625,7.59375 2,2.5 1.5938,0.5 2,-1 0,-4 3.0937,-4.59375 2.5,-2.5 -1,8.09375 2.5938,8.5 2.0937,2.5 2,4.09375 3.625,1.5 4.5938,0.90625 3.0937,2.09375 0.3125,0.28125 210.75,0 0.4375,-1.0625 2,-6 0.5,-6.59375 1,-6.5 -2.5938,-14.625 0,-7.59375 -0.5937,-7.09375 4.0937,-7.5 1,2.5 1.5938,3 0.5,1.5 0,12.09375 6.1875,13.09375 0.625,14.625 1.1563,10.15625 88.3437,0 L 1474,779.5 l 9.1875,-1 1.75,6.46875 106.5313,0 0.125,-0.46875 -0.094,-3 -1,-3 -1.4062,-3.1875 -2.2813,-4.3125 -1.125,-4.59375 -1.0937,-3.5 0.5,-3.5 1,-2.5 0.9062,-4.59375 1,-6.125 0.4062,-6 -1.0937,-3 -1,-3 -1.125,-2 -1.7813,-2 -1.8124,-3 -0.094,-3 -0.1875,-2.59375 0,-3 -0.625,-2.5 0.5,-2 1.2187,-2.59375 0.9063,-2 1.5937,-1 2,-1.09375 2,-1 3.0938,-2.09375 3,-2 2,-1.625 2.5938,-2 2.5,-1 14.9062,4.3125 2.0938,-3.1875 0.9062,-35.8125 2.1562,-74.4375 -1451.5937,0 z"
     id="rect10"
     inkscape:connector-curvature="0" />
  <path
	 style="fill:#9FAEC0"
	 stroke="#9FAEC0"
	 stroke-width="10"
	 transform="translate(0, 25)"
     d="M 155.40625,784.96875 151,839.59375 182.90625,890.5 200.5,917.9063 l 7.09375,10.7812 -89.125,52.7188 342.5625,0 -2.4375,-2.8126 0,-3.5 4.59375,-2.0937 3.625,4.5937 5.59375,2 L 477,977 l 1.0625,4.4063 43.78125,0 0.75,-1.9063 5.09375,-2.5937 5.625,-9.0938 7.1875,-9.5 6.59375,-6.125 9.21875,-2.5938 2.59375,-2.5 1,-3 2,-2.5 L 563,938.5 l 2.5,-3 1,-0.5 2.09375,-1 1.5,-0.5 2.09375,2 2.5,1.5 1.625,2.5 4.09375,3.5 2,-3 4.59375,-0.5 7.1875,-1 2.125,3 3.5,-1 2.09375,-1.5937 2,-2 1.59375,-2.5 2,-3.5 2,-4.0938 0.5,-3.5 9.1875,-4 3.625,-6.625 1.5,-5.0938 3.09375,0.5 5.59375,-0.5 4.09375,-4 6.09375,-11.0937 9.21875,-7.09375 14.90625,-5.09375 3,-3 2.59375,-3.5 4.09375,-4.125 1.5,-2.5 -1,-1.5 -10.3125,-2.5 2.125,-6.59375 10.6875,-7 3.09375,-5.09375 3,-4.5 10.21875,-6.09375 7.6875,-2.59375 3.09375,-3 -3.59375,10.59375 -6.59375,3.59375 -1.59375,4.5 -0.40625,5 0.5,8.59375 -0.5,6 1.5,4.09375 2.09375,1 1.5,2.5 2.09375,5 -0.5,3.125 -5.09375,4 -1.5,5.5 6.59375,4.0938 3.09375,2 4.125,-1 8.1875,0.9062 2.59375,-1 4,-1.5 6.21875,-0.5 5.09375,-4.125 6.09375,-8 5.6875,-1.59375 1,3.09375 1.5,4 1.625,2 1,0 2,-1.5 2.09375,-5.09375 1.5,-4.5 1,-4.59375 4.59375,2 8.1875,-1 2.125,1.5 -0.5,3.59375 -2.125,1.5 -4.09375,4 0,3 2.09375,1.5 3.125,-1.5 3,0 3.09375,-6 L 783.5,881 l 3.09375,-1.5 3.09375,-0.5 4,-5.09375 5.21875,-1 6.09375,1 3.59375,-1 6.59375,-1.5 3.125,-1.59375 4.09375,2.59375 0,3.5 1.09375,3 3,1 5.09375,-2 3.09375,1 1.625,5.5 9.1875,-4 3.09375,1.5 3,2 5.09375,-1.59375 4.125,-2.5 1.59375,2.5 -0.5,2.5 -0.5,2.09375 -4.59375,4 3.09375,5.00005 5.59375,-1.5 2,-2.00005 1.59375,1 5.59375,0 1,-1 1.5,-3.59375 2.625,-5 2.59375,1.5 3,-2 0,-2.625 1.5,-6.5 3.09375,-2 3.09375,-1.09375 2,-3 6.71875,4.5 4.09375,0.5 8.1875,-1.5 5.09375,-2 4.125,-1.09375 3.59375,-2 9.1875,0 4.59375,2 5.125,-0.5 8.1875,0.90625 7.1875,-1.5 6.625,0.5 7.1875,3 7.1875,6 5.125,6.09375 4.6875,5 2.5,3.5 4.09375,-1.5 2.59375,-1.5 1,-4.09375 0.5,-3.5 1.5,-3.5 4.125,-2.09375 1.5,-1 2.0937,-1.5 3,-4 2.0938,2.5 -0.5,4.5 0.5,2.5 0.5,2 4.6875,2 3.5,1 2.125,-2 1,-4.5 2,-2.5 3.0938,-2.625 6.0937,-2.5 6.1875,-2.5 7.7188,1.40625 5.0937,2 3,-2.5 4.5938,-5 5.0937,-4.09375 7.2188,-1.5 3.5937,1 6.6875,1.5 5.125,1 3.0938,-0.59375 2.5,-1 4.5937,-1 5.0938,0 5.7187,0.5 4.5938,4.5 1.5937,5 1.5,3 1.5,4.09375 2.0938,2.5 3.5937,-2 5.125,-2.59375 4.0938,1.5 5.0937,-0.5 9.6875,-5.09375 4.625,-0.5 3.0938,-0.5 1.5,0 -1,-4.5 -2.5938,-1.625 -6.625,0.125 -8.1875,2.5 -2.0937,0 -1,-1.5 1,-3.5 2.0937,-4.125 7.0938,1 7.7187,-2.5 0.5,-1.5 -1.5,-3 -3.125,-2.59375 -5.0937,0.0937 -3.5938,1 -2.0937,0 -1,-3.5 1.5,-5.59375 6.1875,1 2.5,-7.59375 0,-10 1.5,-9.59375 -2.5938,-5.59375 -0.5,-4 -1.5937,-4 -4.0938,-6.125 -5.625,-3.5 -8.6875,2.625 -4.0937,-4.5 -0.3438,-2.34375 -972.65625,0 z m 1000.90625,0 6.875,6.21875 2.625,10.125 -2.5,11.59375 -1.5,8.5 1,7.59375 4.0938,4 1.5937,4 3,0.5 2.0938,3 1,1.5 2.0937,1.59375 1,1.5 0.5,2.5 0.5,2 0.625,2.5 0.5,5.59375 2,0.40625 7.1875,0 15.4063,-2.5 16.2812,-5.09375 6.2188,1.5 5.0937,-0.59375 7.1875,-6.5 3.5,-4.59375 0.5,-5 11.3125,-2.125 3.0938,2.5 6.0937,-2.5 4.625,6.5 5.6875,3.5 1,4.625 4.0938,0.375 4.0937,-3 -2.0937,-14.09375 0,-8.59375 0.5,-6 7.0937,-6.09375 5.625,-1 4.0937,1 4.0938,-0.5 4.6875,5.5 1,5.5 4.625,6.09375 3.5937,-2.59375 -0.5,-3.5 3.5938,-4 5.0938,1.5 3.0937,6 3.625,4 2.5,1 4.0937,1.5 5.1876,0 4.5937,-0.5 7.625,-0.0937 8.1875,-3 6.6875,-4.125 3,-4.5 1.5,-7.09375 -0.5,-6.5 -3.0937,-6.59375 -4.5938,-7 0,-5.09375 0.5625,-1.4375 -210.75,0 z m 226.6563,0 0.4374,3.9375 1,7.59375 2.0938,5.5 2.5938,6.5 3.5937,1.5 5.125,4.59375 4.0937,-4.09375 7.5938,-5.59375 1.5938,1 -1,5.59375 2.5,0 2.0937,1 3,0.5 2.625,2.5 4.0937,1.5 3.5938,-0.5 5.5938,-7.09375 -0.5,-3.5 2.5,-4.09375 3.0937,3.5 0,7.09375 2.625,6.5 1.5937,5.59375 4.0938,-0.5 2.5,-3.09375 -0.5,-6.5 2.5,-3.59375 4.0938,-2 4.0937,3 5.125,-10.125 0.5,-4.5 6,-12.21875 -88.3437,0 z m 101.9687,0 1.375,5.03125 3.0937,-1.5 2.5,3 3.5938,0.5 7.1875,-1 3.125,3 3,2 5.1875,4.5 3.5,-1 1,-9.59375 2.5938,-2.5 3.5937,1.5 3.125,11.09375 3,-5.09375 6.6875,-2 7.0938,-7.09375 4.7187,0.5 1.5,5.5 5.0937,-1 6.6876,4 2.5937,10.59375 9.7187,-4.59375 4.0938,-3.125 6.0938,-4.5 3.5,-2.59375 2,-2.59375 0.875,-3.03125 -106.5313,0 z m -4.3437,1.53125 -4.0938,2.09375 -2.5,-1 -0.5,6.5 -2.5938,4.59375 1.5938,3 2.5938,2.5 3.5937,2 1.5,-2.5 0,-4.09375 1.5,-9 -1.0937,-4.09375 z"
     id="rect12"
     inkscape:connector-curvature="0" />
  <path
	 style="fill:#9FAEC0"
	 stroke="#9FAEC0"
	 stroke-width="10"
     d="m 118.46875,981.4063 -40.875,24.1874 L 0,1051.6875 l 44.5,72.625 7.3125,11.7812 8.28125,15.2188 -0.0937,2.375 -1.09375,3.625 -0.59375,1.7812 -0.3125,0.7188 -0.8125,2.5 -0.59375,3 -0.0937,2.5 0,2 0.5,2 -0.1875,3.5938 0,1.0937 -0.125,1.3125 2.96875,0 0.4375,-4.9062 1,-0.5 3,-4.0938 2.59375,-2.5 2.5,-7.625 5.71875,0.5 2,2.125 5.6875,1 3.5,-2.625 1.59375,-4.5 -1.09375,-3.5 9.3125,-0.5938 1.5,1 3.09375,-1.5 2.5,-4.5 2.59375,-1 1,-4.5937 3.59375,-6 3,2.5 1.125,3.5 0,4.5937 1.5,2 2.09375,2 6.09375,-3 2.09375,-6.5937 3,-1 3.09375,3 0,4 1.125,3.5937 -4.625,5 -7.1875,3.5 -2,6.0938 5.09375,0.5 7.09375,-2 4.625,-4.5938 1.59375,-4 2,-3 3.09375,-2.5937 3.59375,-7 7.59375,-3.0937 1.5,-6.5 -1,-5.5938 8.21875,1 2.59375,3.5938 0.5,3 1,3.5 0.5,1.5 2.09375,3 5.59375,-1 0.5,-3.5 1.125,-5 -2.625,-4.0938 -0.5,-5.5 7.125,0 4.59375,0.5 2.09375,-5.625 0,-6.5 -0.0937,-7.0938 3.59375,0 5.1875,3.5 2,6.5938 2.625,5 5.59375,-6.5938 2.59375,9.0938 1,0.5 4.09375,-2.5 4.59375,-11.5938 1,-6.0937 5.625,-0.5 -0.5,6.0937 8.6875,-3.0937 2.09375,-5 4.59375,2 2.125,3.5 2.5,0.5 2.59375,-0.5 -0.0937,-11.0937 3.09375,3 1.59375,-1 2,-2 2.59375,-2.5 1,-5.5938 1.5,-4 2.59375,0.5 6.625,2.5 3.59375,-3.5 -2.09375,-3 0,-4.125 -3,-3 0.5,-6 -1.125,-4.5938 2.625,1 2,-1 2.09375,3.5 0.5,3.0938 2.09375,1.5 1,0.5 0.5,-3 1.5,-1.5938 2.09375,5.0938 -0.5,5.5 3.59375,-2 2.5,-5 5.125,-5.5938 6.6875,-1.5 6.59375,-1.0937 0.5,-4 -3,-0.5 -5.1875,-2.5 1.5,-7.5937 16.5,7.0937 6.09375,-4.5937 2.5,-6 5.1875,1 6.125,2.5 2.59375,0 1.5,-3.0938 6.09375,-3.5 7.6875,0 6.21875,-3.625 2.5,-2 4.59375,-5.5 6.1875,-3.0938 6.125,5.5938 2.59375,2.5 3.59375,2.5 3.59375,1.5 3.5,-0.5 6.21875,-4.5938 3,-2.5 5.6875,-3.5 2.5,-2.5937 1.5,-5.5 3.09375,-7.0937 1.5,-2.5 4.09375,1.5 3.625,-1.5 6.6875,-5.5938 3,-7 11.8125,-7.625 2,-0.5 0,4.5 -4.625,6.125 -2,4 -2,3.5 0,3.5938 1,1.5 2,0 6.21875,-9.5938 6.59375,-6.125 6.6875,-3.5 2.5,-0.5 0.5,-1.5 -0.5,-3.5938 -1.5,-3 -0.15625,-0.1874 -342.5625,0 z m 359.59375,0 0.0312,0.1874 0.5,3 0.5,2.5 3.59375,3.5 5.125,1 3.59375,-2 4.09375,0.5 1.5,4.5 -3.5,2.5938 -4.59375,-1 -1.59375,2 5.6875,5 6.59375,1 7.71875,-0.5 5.09375,-1 4.09375,-1.5938 8.1875,-1.5 3.625,-1.5 1,-2.5 -2,-3.0937 -5.71875,-4 0,-6.5 0.25,-0.5937 -43.78125,0 z"
     id="rect14"
     inkscape:connector-curvature="0" />
</svg>
