<?xml version="1.0" encoding="UTF-8" standalone="no"?>
<svg
   xmlns:dc="http://purl.org/dc/elements/1.1/"
   xmlns:cc="http://creativecommons.org/ns#"
   xmlns:rdf="http://www.w3.org/1999/02/22-rdf-syntax-ns#"
   xmlns:svg="http://www.w3.org/2000/svg"
   xmlns="http://www.w3.org/2000/svg"
   xmlns:sodipodi="http://sodipodi.sourceforge.net/DTD/sodipodi-0.dtd"
   xmlns:inkscape="http://www.inkscape.org/namespaces/inkscape"
   width="6482.9995"
   height="15432"
   viewBox="0 0 6482.9995 15432"
   id="svg2"
   version="1.1"
   inkscape:version="0.48.1 "
   sodipodi:docname="AJAX.svg">
  <metadata
     id="metadata20">
    <rdf:RDF>
      <cc:Work
         rdf:about="">
        <dc:format>image/svg+xml</dc:format>
        <dc:type
           rdf:resource="http://purl.org/dc/dcmitype/StillImage" />
      </cc:Work>
    </rdf:RDF>
  </metadata>
  <defs
     id="defs18" />
  <sodipodi:namedview
     pagecolor="#ffffff"
     bordercolor="#666666"
     borderopacity="1"
     objecttolerance="10"
     gridtolerance="10"
     guidetolerance="10"
     inkscape:pageopacity="0"
     inkscape:pageshadow="2"
     inkscape:window-width="1280"
     inkscape:window-height="1004"
     id="namedview16"
     showgrid="false"
     fit-margin-top="0"
     fit-margin-left="0"
     fit-margin-right="0"
     fit-margin-bottom="0"
     inkscape:zoom="0.03125"
     inkscape:cx="8827.4772"
     inkscape:cy="8873.1179"
     inkscape:window-x="-8"
     inkscape:window-y="-8"
     inkscape:window-maximized="1"
     inkscape:current-layer="svg2" />
  <path
	 style="fill:#9FAEC0"
	 stroke="#9FAEC0"
	 stroke-width="10"
	 transform="translate(0, 125)"
     d="m 1960.9995,0 -149,7 -159,20 -16,3 -148,31 -139,41 -133,48 -5,2 -164,76 -98.00001,49 -131,91 -109,92 -103.9995,87 -54,52 -24,22 -95,106 -84,107 -64,104 -51,91 -44,94 -33,92 -20,88 L 5.9999941,1303 -5.8593751e-6,2113 26.967994,2572.0312 l 1965.375206,0 -15.3437,-65.0312 -16,-69 -5,-50 7,-22 7,-24 10,-30 15,-30 21,-26 25,-20 15,-16 15,-20 21,-20 25,-21 36,-15 30,-21 5,-10 10,-10 15,-20 10,-26 16,-20 15,-25 20,-21 20,-20 20,-25 21,-26 20,-30 15,-31 5,-30 4,-45 5,-25 5,-46 4,-40 5,-40 10,-31 15,-25 21,-17 34,-33 11,-16 18,-37 4,-9 23,-45 5,-21 10,-20 15,-5 10,5 26,5 10,-1 16,0 10,-15 5,-15 4,-20 0,-31 10,-45 5,-30 4,-36 10,-30 20,-40 15,-36 20,-40 20,-46 15,-45 10,-31 15,-30 10,-30 15,-21 20,-20 21,-10 20,-31 30,-30 61,-66 61,-56 36,-36 45,-26 7,-4 44,-27 82,-36 40,-20 -77,-69 -70,-43 -20,-12 -143,-90 -113,-56 -139,-61 -144,-48 -117,-41 -118,-33 -133,-23 -129,-4 -117,0 z"
     id="rect4"
     inkscape:connector-curvature="0" />
  <path
	 style="fill:#9FAEC0"
	 stroke="#9FAEC0"
	 stroke-width="10"
	 transform="translate(0, 100)"
     d="M 26.967994,2572.0312 108.99999,3969 l 76.812,1175.0938 2180.50001,0 -4.3125,-31.0938 -31,-45 -41,-55 -16,-46 -25,-20 -31,5 -41,11 -52,-21 -15,-20 5,-5 41,-15 41,5 36,0 36,-25 -21,-65 -20,-26 -41,-10 -26,-35 -5,-65 -10,-30 -47,-66 -87,-45 -36,-55 -5,-61 82,-55 63,-40 -78,-85 -26,-33 -72,-104 -46,-100 -1,-41 9,-30 17,-65 11,-26 15,-35 66,0 93,-5 94,-6 16,-8 13,-8 17,-9 -10,-27 -11,-34 -6,-10 -5,-25 5,-30 5,-15 10,-25 5,-26 -6,-15 0,-45 9,-40 5,-56 -1,-40 -5,-10 -13,-9 -18,-11 -10,-20 -6,-15 5,-30 15,-20 36,-31 30,-31 20,-25 15,-24 16,-27 15,-30 9,-35 15,-34 10,-22 5,-40 -5,-36 -16,-35 -21,-25 -31,-24 -72,-20 -21,-14 -15,-15 -11,-20 -16,-20 0,-15 -5,-15 -16,-15 -20,-5 -21,-5 -20,-15 -42,-25 -31,-29 -16,-25 -5,-17 -5,-18 -1.6563,-6.9688 -1965.375206,0 z"
     id="rect6"
     inkscape:connector-curvature="0" />
  <path
	 style="fill:#9FAEC0"
	 stroke="#9FAEC0"
	 stroke-width="10"
	 transform="translate(0, 75)"
     d="m 185.81199,5144.0938 0.188,2.9062 33,502 21,393 32,552 44,695 25.968,427.125 2921.43781,0 -11.4063,-27.125 -10,-81 15,-70 21,-76 10,-45 15,-56 46,-90 0,-10 31,-56 25,-75 21,-101 0,-35 -21,-55 -10,-26 -31,-30 -36,-15 -10,-15 -5,-40 20,-20 31,-35 25,-46 -5,-40 -31,-35 -20,-15 -16,-46 5,-105 -92,-156 -118,-161 -36,-96 -16,-35 -36,-80 -20,-71 -11,-65 -51,-35 -62,-10 -30,-30 -16,-51 -41,-60 -92,-20 -36,-30 -31,-30 -26,0 0,35 16,60 -10,46 -31,-5 -31,-61 -26,-20 -71,5 -16,-10 15,-40 16,-40 -10,-15 -11,-41 0,-15 62,5 15,-5 -15,-50 -41,-60 -42,-51 -46,-5 -30,0 -21,-50 36,-75 -0.6875,-4.9062 -2180.50001,0 z"
     id="rect8"
     inkscape:connector-curvature="0" />
  <path
	 style="fill:#9FAEC0"
	 stroke="#9FAEC0"
	 stroke-width="10"
	 transform="translate(0, 50)"
     d="m 341.96799,7716.125 1.032,16.875 36,632 39,615 43,723 35.312,585.188 3738.31251,0 -24.625,-19.188 -26,-41 -36,-105 -21,-56 -10,-45 15,-40 21,-50 0,-66 15,-70 36,-96 -5,-60 -31,-96 -57,-85 -72,-61 -36,-55 -10,-70 10,-86 -41,-55 -46,-61 -36,-75 -93,-85 -82,-91 -118,-90 -82,-55 -67,-36 -36,-40 -15,-20 -16,-40 -26,-136 -5,-116 21,-110 -1,-56 -15,-35 -15,-25 5,-25 20,-25 -5,-36 -31,-50 -20,-25 -16,-25 -5,-56 5,-40 -10,-40 -9.5937,-22.875 -2921.43781,0 z"
     id="rect10"
     inkscape:connector-curvature="0" />
  <path
	 style="fill:#9FAEC0"
	 stroke="#9FAEC0"
	 stroke-width="10"
	 transform="translate(0, 25)"
     d="m 496.31199,10288.188 20.688,342.812 32,593 4,0 61,1093 25.531,543.25 5058.37481,0 -2.9063,-7.25 -36,-30 -25,-11 -31,-10 -20,-10 -16,-20 -10,-15 15,-35 31,-5 31,0 20,-20 16,-5 10,10 0,15 -10,20 10,30 20,0 16,5 46,0 21,10 10,5 10,-20 0,-25 -5,-20 15,-15 26,25 15,15 31,15 21,-20 20,-16 36,-5 26,10 20,26 21,10 20,20 21,-5 10,-21 -15,-35 -11,-25 5,-10 62,5 56,90 -2.4687,74.25 106.3124,0 -20.8437,-84.25 -21,-110 -26,-111 -26,-161 0,-161 -5,-136 -16,-146 0,-90 -5,-106 -26,-95 -10,-81 -16,-40 -36,-30 -26,0 -25,60 -20,76 -26,70 -36,0 -77,-40 -82,20 -61,26 -72,-15 -88,-31 -51,-30 -72,-65 -56,-35 -52,-30 -66,-45 -52,-15 -41,-10 -36,-76 -92,-120 -77,-56 -21,-55 -36,-55 -61,-15 -67,-121 -52,-106 -41,-110 -67,-106 -102,-90 -67,-76 -62,-60 -102,-70 -52.375,-40.812 -3738.31251,0 z"
     id="rect12"
     inkscape:connector-curvature="0" />
  <path
	 style="fill:#9FAEC0"
	 stroke="#9FAEC0"
	 stroke-width="10"
     d="m 639.53099,12860.25 23.469,499.75 21.9995,439 29,206 13,186 36,620 32,523 1077.00001,39 952,25 1068,22 99,6 1783,5 277,1 -8,-9 10,-15 15,-66 -26,-45 0,-45 5,-20 47,20 41,65 46,61 72,30 14,23 187,-2 19,-72 10,-70 -5,-46 -5,-50 -10,-45 -21,-106 5,-121 -5,-80 -11,-101 21,-126 -5,-120 -47,-201 -10,-131 -6,-111 -10,-126 -10,-120 -6,-121 -5,-76 -10,-45 -46,10 -41,25 -41,11 -16,30 31,20 5,40 10,25 1,61 -11,50 21,60 0,41 -41,10 -21,-36 -25,-20 -52,5 1,66 -21,40 -31,5 -5,81 16,65 0,40 -16,21 -15,5 -10,0 -26,-46 -10,-60 -31,-10 -26,20 -10,-20 15,-60 11,-46 0,-15 -36,-5 -21,31 -36,0 -15,-36 15,-75 15,-45 -30,-31 -57,16 -61,-15 -82,5 -36,20 -16,30 -10,10 -36,0 -20,30 -10,56 -41,30 -47,-10 -36,0 -56,30 -26,16 -10,40 -20,45 -67,15 -26,20 -10,26 -5,60 -10,40 -5,71 -21,40 -15,10 -20,0 -11,-15 -5,-50 5,-51 10,-45 11,-45 0,-30 -31,-15 -5,-26 20,-55 21,-20 30,-5 52,15 30,-10 26,-25 -10,-71 -11,-35 -15,-25 -41,5 -36,35 -62,0 -35,-10 -36,10 -31,0 0,-20 -5,-10 -47,-30 -61,15 -72,15 -61,16 -36,-15 -62,-5 -20,30 -26,25 -31,10 -36,-45 -61,-5 -36,-20 -10,-10 -6,-35 -5,-41 31,10 67,20 51,10 46,-15 41,-15 62,20 56,5 31,-15 36,10 41,5 41,-15 82,10 41,-15 46,-26 51,0 26,15 41,10 57,-15 66,-5 31,-10 15,-45 -5,-41 10,-20 57,5 15,20 26,-15 -5,-65 15,-56 21,-10 30,25 41,21 98,-31 46,-15 41,-20 41,5 26,15 36,10 15,-40 15,-10 36,20 21,5 20,-11 0,-20 -15,-25 -5,-20 30,0 26,10 67,-10 -21,-30 -20,-30 -36,-30 -41,-16 -82,-20 -52,26 -10,35 -36,5 5,-45 -10,-10 -46,-5 -16,-20 -30,-10 -62,20 -21,-25 21,-36 0,-10 -36,-10 -21,-25 -5,-35 0,-20 -77,-10 -97,-20 -72,-15 -15,-10 30,-45 5,-15 0,-11 -15,-15 -26,-50 21,-15 31,5 20,35 26,25 46,5 51,25 31,41 36,15 36,10 46,-16 26,-20 15,-5 10,30 -10,36 0,25 11,30 46,10 36,15 15,-5 -10,-50 -21,-31 0,-25 10,-5 26,-20 -21,-30 -35,-20 -21,-25 -10,-40 0,-21 10,-55 -5,-50 -3.0937,-7.75 -5058.37481,0 z m 5534.99981,0 -1.5313,46.75 20,86 5,100 -25,51 -21,40 -15,101 5,50 16,50 41,-10 25,25 6,40 -41,11 -26,10 -5,45 67,0 56,-20 41,-56 0,-80 -26,-101 -10,-105 20,-86 -5,-91 -16,-90 -4.1563,-16.75 -106.3124,0 z"
     id="rect14"
     inkscape:connector-curvature="0" />
</svg>
