<?xml version="1.0" encoding="UTF-8" standalone="no"?>
<!-- Created with Inkscape (http://www.inkscape.org/) -->

<svg
   xmlns:svg="http://www.w3.org/2000/svg"
   xmlns="http://www.w3.org/2000/svg"
   version="1.1"
   width="667.03021"
   height="837.96729"
   id="svg2">
  <defs
     id="defs4" />
  <g
     transform="matrix(1.2155061,0,0,1.2155061,98.325364,48.944)"
     id="g2917">
    <g
       transform="matrix(2593.37,0,0,3361.59,199921,131049)"
       id="dccouncildistricts"
       style="fill:#9FAEC0;fill-opacity:1;stroke:#9FAEC0;stroke-width:0.00084671;stroke-linecap:round;stroke-linejoin:round;stroke-miterlimit:4;stroke-dasharray:none">
      <path
         d="m -77.026651,-38.935258 -0.0063,-0.0017 -0.0039,-9.69e-4 -2e-4,8.1e-5 -0.0041,0.0018 -0.0064,10e-4 -0.0028,0.0016 -5e-4,-10e-5 0.0025,-0.0021 -1.29e-4,-9.52e-4 -0.0022,-5.19e-4 -0.0017,-6.55e-4 0.0024,-0.0061 0.0019,-0.0018 0.0021,-9.51e-4 -0.0016,-0.0033 0.0046,-0.0043 2.79e-4,-0.0062 -9.35e-4,-0.0015 -0.0012,0.0014 -0.003,2.45e-4 -0.0028,-0.0015 -0.0058,7.83e-4 1.64e-4,0.0026 -0.0015,0.0018 -4.19e-4,1.67e-4 -0.0016,-9.21e-4 -0.0056,-8.48e-4 -0.0051,-0.01207 -0.0011,-0.0016 0.01732,-0.01362 c 0,0 0.0016,-0.0012 0.0017,-0.0013 l 3.79e-4,-3.3e-4 0,0 0.01094,-0.0086 0.0047,0.0034 0.0207,0.0158 0.0018,0.0015 0.0055,0.0043 0.0058,0.0047 0.01034,0.0083 -0.0035,5.39e-4 -0.0027,5.13e-4 -0.0017,0.0017 -0.0022,-0.0021 -0.0017,0.0015 -0.0048,0.0012 2.78e-4,0.0072 -5.85e-4,0.0015 -0.0028,0.0023 -0.0041,0.0044 -0.0016,0.0011 -0.0015,3.54e-4 -0.0046,8.74e-4 -0.0014,0.0014 -9.36e-4,-4.75e-4 0,0 -3.78e-4,3.16e-4 -6.9e-5,1.68e-4 -3e-5,2e-5 3.8e-5,-7.6e-5 1e-6,4.8e-5 z"
         id="dccouncildistricts_004"
         style="fill:#9FAEC0;fill-opacity:1;stroke-width:0.00084671;stroke-miterlimit:4;stroke-dasharray:none" />
      <path
         d="m -77.0693,-38.91651 -0.0036,0 -0.0027,-1.5e-4 -5e-5,-7.5e-4 -0.0046,10e-6 8.7e-4,8.9e-4 9.8e-4,0.0023 5.1e-4,0.01005 1.1e-4,0.0027 -0.0045,-4.5e-4 -0.008,-0.0023 -0.0035,-0.0017 -0.0075,-0.0052 -0.0022,-0.0018 -0.0029,-0.0062 -0.0071,-0.0061 -0.0032,-0.0037 -0.0013,-0.0035 -0.002,-0.0019 0.0154,-0.0121 0.0038,-0.0025 0.0092,-0.0076 0.01965,-0.01511 0.0016,0.002 0.005,0.0116 0.0059,9e-4 9e-4,0.001 0.001,-4e-4 0.0013,-0.0017 -2e-4,-0.0026 0.0059,-8e-4 0.0027,0.0015 0.0032,-3e-4 0.001,-9e-4 0.0011,0.0014 -3e-4,0.0056 -0.0049,0.0045 0.0018,0.0032 -0.0026,0.0012 -0.0018,0.0019 -0.0022,0.0058 0.0021,8e-4 0.0018,1e-4 3e-4,0.0017 -0.0025,0.0021 -2e-4,-1e-4 -0.0024,-10e-5 -0.0026,0.0027 0.0058,0.0096 -0.0013,0.0016 -0.0012,-3e-4 -0.0054,0.0022 -0.0013,-8e-4 -0.0044,-2e-4 -0.0032,0.0012 -0.0015,6.7e-4 -9e-4,-0.0011 0,0.0011 0,0 z"
         id="dccouncildistricts_003"
         style="fill:#9FAEC0;fill-opacity:1;stroke-width:0.00084671;stroke-miterlimit:4;stroke-dasharray:none" />
      <path
         d="m -77.0137,-38.90691 -0.0016,-2e-4 -0.0028,-0.0074 0.0013,5e-4 0.0025,-9e-4 -7e-4,-0.0057 0.0028,-6e-4 0,-0.005 -0.0015,0 -0.0039,-0.0018 -0.0015,-0.0055 0,-0.0039 0.0016,-4e-4 0.0013,-10e-4 0.0039,-0.0043 0.0031,-0.0025 5e-4,-10e-4 -3e-4,-0.0078 0.0052,-0.0011 0.0015,-0.001 0.0021,0.0017 0.0015,-0.0017 0.0012,-4e-4 0.0053,-5.1e-4 0.05024,0.03883 -0.0015,0.0018 -0.0027,0.0013 -0.0069,8e-4 -0.0086,0.0146 -6e-5,0.0034 -0.0078,-0.0012 -0.007,-9e-4 -0.0069,-0.0013 -0.0013,-1e-4 -0.0199,-0.0085 -0.0047,0.0012 -0.0045,0.0018 0,-0.0012 0,-1e-5 z"
         id="dccouncildistricts_005"
         style="fill:#9FAEC0;fill-opacity:1;stroke-width:0.00084671;stroke-miterlimit:4;stroke-dasharray:none" />
      <path
         d="m -77.0205,-38.91551 -5e-4,2e-4 0,0.0014 -0.0111,0 0,-0.0029 -0.0087,0 -0.0052,0.0026 -4e-4,-0.0021 -0.0015,-0.0021 -0.0013,-7e-4 -9e-4,-0.0018 -0.0058,-0.0096 0.0026,-0.0027 0.0024,1e-4 2.01e-4,-2e-5 7.91e-4,-6.65e-4 0.0013,-0.0011 9.74e-4,-9.5e-5 0.0064,-10e-4 0.0046,-0.002 7.26e-4,3.26e-4 0.001,2.56e-4 0.002,5.18e-4 0.0034,9.08e-4 0.0032,2.9e-4 8.54e-4,7.02e-4 10e-4,-0.0014 0.0053,-10e-4 0,0.0039 0.0015,0.0055 0.0039,0.0018 0.0015,0 0,0.005 -0.0028,6e-4 7e-4,0.0057 -0.0025,9e-4 -0.0013,-5e-4 -0.0024,-10e-4 0,0 z"
         id="dccouncildistricts_001"
         style="fill:#9FAEC0;fill-opacity:1;stroke-width:0.00084671;stroke-miterlimit:4;stroke-dasharray:none" />
      <path
         d="m -77.00993,-38.89186 7.4e-4,3.5e-4 8e-4,2e-4 3.1e-4,0.0017 -0.0011,0.0018 1e-4,0.0047 1e-4,0.0015 -0.002,-5e-4 -0.0171,10e-5 -0.0026,0.0013 0.0065,0.0044 0.0038,0.0081 1e-4,0.0112 -0.0114,0.0065 -0.0076,-0.0138 4e-4,-0.0015 -2e-4,-0.0023 -0.0015,-0.0031 -0.0027,-0.0028 -0.0021,-0.0012 -0.0012,3e-4 0.001,0.0019 -7e-4,0.0017 -0.0028,6e-4 -0.0022,-0.0025 2e-4,-0.002 -0.003,-0.0039 -0.0011,-9e-4 -0.0031,-6e-5 -0.0052,-0.0085 -0.0038,-0.0106 -9e-4,-6e-4 -0.0019,-9e-4 -0.0076,-7.5e-4 -1.1e-4,-0.0027 -5.1e-4,-0.01005 -9.8e-4,-0.0023 -8.7e-4,-8.9e-4 0.0046,-10e-6 5e-5,7.5e-4 0.0027,1.5e-4 0.0036,0 0,-0.0011 9e-4,0.0011 0.0015,-6.7e-4 0.0032,-0.0012 0.0044,2e-4 0.0013,8e-4 0.0054,-0.0022 0.0012,3e-4 0.0013,-0.0016 9e-4,0.0018 0.0013,7e-4 0.0015,0.0021 4e-4,0.0021 0.0052,-0.0026 0.0087,0 0,0.0029 0.0111,0 0,-0.0014 5e-4,-2e-4 0.0024,10e-4 0.0028,0.0074 -0.001,0 1e-4,0.0022 -0.0037,0.0013 4e-5,0.0077 -0.0042,0 0,0.0021 0.0064,0.0019 0.0078,6e-5 0,0 z"
         id="dccouncildistricts_002"
         style="fill:#9FAEC0;fill-opacity:1;stroke-width:0.00084671;stroke-miterlimit:4;stroke-dasharray:none" />
      <path
         d="m -76.9709,-38.87321 4e-4,-2e-4 -0.004,-0.0018 -0.0037,-0.0016 0.0039,-10e-4 0.0026,-0.0018 0.0081,-0.01008 -0.0048,-2e-5 -0.003,-0.002 -0.0025,0.0015 -3.6e-4,1e-5 -4e-5,-6.1e-4 -0.0021,-0.0026 -0.001,1e-5 0.001,-0.0054 0.007,9e-4 0.0078,0.0012 6e-5,-0.0034 0.0086,-0.0146 0.0069,-8e-4 0.0027,-0.0013 0.0015,-0.0018 0.0068,0.0053 0.0257,0.0205 -0.0014,0.0011 -0.0085,0.0066 -9e-4,7e-4 -0.0295,0.0231 -0.004,0.0028 -0.008,0.0064 -10e-4,-1.1e-4 -0.0031,-0.003 -0.0022,-0.0033 0,-0.0018 -6e-4,-5e-4 -0.0022,-0.0034 -0.0021,0.0011 -0.0061,-0.0024 -0.0056,-10e-4 0.0035,-0.0016 0.01,-10e-6 2e-4,-0.0051 0,1e-5 z"
         id="dccouncildistricts_007"
         style="fill:#9FAEC0;fill-opacity:1;stroke-width:0.00084671;stroke-miterlimit:4;stroke-dasharray:none" />
      <path
         d="m -76.9714,-38.89171 0.003,0.002 0.0048,2e-5 -0.0081,0.01008 -0.0026,0.0018 -0.0039,10e-4 -0.0057,0.0019 -0.0087,0.0048 -0.0109,-6e-4 -0.0022,0.002 -0.0025,0.0046 -0.0121,0.0071 -10e-5,-0.0112 -0.0038,-0.0081 -0.0065,-0.0044 0.0026,-0.0013 0.0171,-10e-5 0.002,5e-4 -1e-4,-0.0015 -1e-4,-0.0047 0.0011,-0.0018 -3.1e-4,-0.0017 -8e-4,-2e-4 -7.4e-4,-3.5e-4 -0.0078,-6e-5 -0.0064,-0.0019 0,-0.0021 0.0042,0 -4e-5,-0.0077 0.0037,-0.0013 -1e-4,-0.0022 0.001,0 0.0016,2e-4 0,0.0012 0.0045,-0.0018 0.0047,-0.0012 0.0199,0.0085 0.0013,10e-5 0.0069,0.0013 -0.001,0.0054 0.001,-1e-5 0.0021,0.0026 4e-5,6.1e-4 3.6e-4,-1e-5 0.0025,-0.0015 0,0 z"
         id="dccouncildistricts_006"
         style="fill:#9FAEC0;fill-opacity:1;stroke-width:0.00084671;stroke-miterlimit:4;stroke-dasharray:none" />
      <path
         d="m -77.0203,-38.85701 0.0121,-0.0071 0.0025,-0.0046 0.0022,-0.002 0.0109,6e-4 0.0087,-0.0048 0.0057,-0.0019 0.0037,0.0016 0.004,0.0018 -4e-4,2e-4 -2e-4,0.0051 -0.01,1e-5 -0.0035,0.0016 0.0056,0.001 0.0061,0.0024 0.0021,-0.0011 0.0022,0.0034 6e-4,5e-4 0,0.0018 0.0022,0.0033 0.0031,0.003 0.001,1.1e-4 -0.01781,0.01429 -0.0132,0.0096 -0.0073,0.0063 -0.0014,4e-4 -0.0372,0.03 -3e-4,-0.0093 0.0031,-0.0141 -0.0023,-7e-4 -10e-4,-0.0058 10e-4,-0.0072 -0.0011,-0.0036 -0.002,-0.0015 -0.0014,-10e-5 -9e-4,6e-4 -0.0014,-0.0015 -1e-4,-0.0038 8e-4,-0.0017 0.0025,0 0.0089,-0.0015 0.0011,-0.0088 0.0114,-0.0065 0,0 z"
         id="dccouncildistricts_008"
         style="fill:#9FAEC0;fill-opacity:1;stroke-width:0.00084671;stroke-miterlimit:4;stroke-dasharray:none" />
    </g>
    <g
       transform="translate(281.155,171.681)"
       id="layer1-0">
      <g
         transform="matrix(2576.67,0,0,3369.17,198354,131170)"
         id="dcboundary"
         style="fill:none;stroke:#9FAEC0;stroke-width:0.00065236;stroke-linecap:round;stroke-linejoin:round;stroke-miterlimit:4;stroke-dasharray:none">
        <path
           d="m -77.041477,-38.994809 0.0013,9.59e-4 0.0012,8.98e-4 0.0022,0.0015 2.42e-4,1.83e-4 0.0095,0.0074 0.0084,0.0064 0.0025,0.0019 0.0018,0.0015 0.0055,0.0043 0.0058,0.0047 0.0033,0.0025 0.0021,0.0016 0.0049,0.0038 0.0028,0.0022 0.0043,0.0033 0.0074,0.0057 0.01154,0.0088 0.0028,0.0023 5e-5,4e-5 1.54e-4,-3.9e-5 0.002,0.0015 0.0018,0.0014 0.0016,0.0012 0.0073,0.0056 0.0084,0.0068 0.0073,0.0052 0.0034,0.0027 0.0082,0.0065 0.0034,0.0027 0.0056,0.0044 0.0014,0.0011 0.0044,0.0035 -0.0017,0.0015 -0.0021,0.0017 -0.0017,0.0013 -0.0039,0.003 -0.0015,0.0012 -0.0016,0.0013 -0.0032,0.0025 -0.0077,0.006 -0.0016,0.0012 -6.43e-4,4.99e-4 -0.0013,9.8e-4 -0.008,0.0062 -0.003,0.0024 -0.0033,0.0025 -0.0035,0.0025 -0.0046,0.0037 -0.0014,0.0011 -0.0018,0.0014 -0.0021,0.0017 -0.0017,0.0014 -1.93e-4,1.53e-4 -0.0013,10e-4 -0.0015,0.0012 -0.0027,0.0021 -0.0022,0.0018 -0.0068,0.0054 -0.0051,0.0037 -0.0039,0.0028 -0.0023,0.0016 -9.87e-4,7.11e-4 -0.0012,9.57e-4 -0.0034,0.0029 -0.0016,0.0014 -0.0021,0.0012 -0.0014,4e-4 -0.0078,0.0063 -0.02937,0.02368 -3e-4,-0.0093 0.0031,-0.0141 -0.0023,-7e-4 -6.7e-4,-0.0039 -3.3e-4,-0.0019 0.001,-0.0072 -0.0011,-0.0036 -0.002,-0.0015 -0.0014,-1e-4 -9e-4,6e-4 -0.0014,-0.0015 -1e-4,-0.0038 8e-4,-0.0017 0.0025,0 0.0089,-0.0015 0.0011,-0.0088 -0.0063,-0.01147 -0.0013,-0.0023 4e-4,-0.0015 -2e-4,-0.0023 -0.0015,-0.0031 -0.0027,-0.0028 -0.0021,-0.0012 -0.0012,3e-4 0.001,0.0019 -7e-4,0.0017 -0.0028,6e-4 -0.0022,-0.0025 2e-4,-0.002 -0.003,-0.0039 -0.0011,-9e-4 -0.0031,-6e-5 -0.0052,-0.0085 -8.9e-4,-0.0025 -0.0029,-0.0081 -9e-4,-6e-4 -0.0019,-9e-4 -0.0052,-5.1e-4 -0.0024,-2.4e-4 -0.0045,-4.5e-4 -0.008,-0.0023 -0.0035,-0.0017 -0.0075,-0.0052 -0.0022,-0.0018 -0.0016,-0.0035 -0.0013,-0.0027 -0.0071,-0.0061 -0.0032,-0.0037 -0.0013,-0.0035 -0.002,-0.0019 0.007,-0.0055 0.0035,-0.0028 0.0049,-0.0038 0.0038,-0.0025 0.0024,-0.002 0.0069,-0.0055 0.0056,-0.0045 0.0054,-0.0042 0.0029,-0.0022 0.0059,-0.0044 0.0043,-0.0034 6.07e-4,-4.73e-4 0.0028,-0.0021 0.0013,-9.85e-4 0.0084,-0.0065 0.0019,-0.0014 0,-2e-5 2.27e-4,-2.12e-4 3.04e-4,-2.48e-4 4.83e-4,-3.72e-4 0.01041,-0.008 z"
           id="dcboundary_District_of_Columbia"
           style="stroke-width:0.00065236;stroke-miterlimit:4;stroke-dasharray:none" />
      </g>
    </g>
  </g>
</svg>
