<?xml version="1.0" encoding="UTF-8" standalone="no"?>
<svg
   xmlns:dc="http://purl.org/dc/elements/1.1/"
   xmlns:cc="http://creativecommons.org/ns#"
   xmlns:rdf="http://www.w3.org/1999/02/22-rdf-syntax-ns#"
   xmlns:svg="http://www.w3.org/2000/svg"
   xmlns="http://www.w3.org/2000/svg"
   xmlns:sodipodi="http://sodipodi.sourceforge.net/DTD/sodipodi-0.dtd"
   xmlns:inkscape="http://www.inkscape.org/namespaces/inkscape"
   width="4437.0938"
   height="5141.8125"
   viewBox="0 0 4437.0938 5141.8125"
   id="svg2"
   version="1.1"
   inkscape:version="0.48.1 "
   sodipodi:docname="AJAX.svg">
  <metadata
     id="metadata20">
    <rdf:RDF>
      <cc:Work
         rdf:about="">
        <dc:format>image/svg+xml</dc:format>
        <dc:type
           rdf:resource="http://purl.org/dc/dcmitype/StillImage" />
      </cc:Work>
    </rdf:RDF>
  </metadata>
  <defs
     id="defs18" />
  <sodipodi:namedview
     pagecolor="#ffffff"
     bordercolor="#666666"
     borderopacity="1"
     objecttolerance="10"
     gridtolerance="10"
     guidetolerance="10"
     inkscape:pageopacity="0"
     inkscape:pageshadow="2"
     inkscape:window-width="1280"
     inkscape:window-height="1004"
     id="namedview16"
     showgrid="false"
     fit-margin-top="0"
     fit-margin-left="0"
     fit-margin-right="0"
     fit-margin-bottom="0"
     inkscape:zoom="0.0625"
     inkscape:cx="3667.6634"
     inkscape:cy="3184.6921"
     inkscape:window-x="-8"
     inkscape:window-y="-8"
     inkscape:window-maximized="1"
     inkscape:current-layer="svg2" />
  <path
	 style="fill:#9FAEC0"
	 stroke="#9FAEC0"
	 stroke-width="10"
	 transform="translate(0, 125)"
     d="m 2283.1875,0 -18.5938,0.90625 -303.9062,8.28125 -23,0.125 -0.6875,0 -59.8125,2 -12.2812,0 -53,1.375 -0.2188,5 -41.1875,-0.28125 -29.5937,-0.3125 -25.0938,-0.28125 -26.125,0.1875 -12.875,-0.3125 -6.7188,0 -31.2812,0.21875 -76.2188,-0.0937 -32.5937,0 -5.8125,-0.3125 -64.875,-0.40625 -70.9062,-0.6875 -41.5938,-0.3125 L 1173,13.18755 l -58.3125,0 -84.1875,-0.5 -37.8125,-0.6875 -94.2812,-2.40625 -10.2188,-0.40625 -1.2812,0 L 884,9.09385 795.9063,8.8126 l -70.2188,0 -79.375,-0.40625 -72.4062,-0.5 -3,0 L 413.5,6.5001 310.0937,7.8126 l -40.5,0.28125 -28.9062,-0.1875 -2,-0.0937 -19,-0.40625 -13.7812,-0.40625 -2.0938,0 -84,-1.90625 L 0,1.68765 l 17.3125,137.125 8.375,66.09375 31.5,198.28125 1.9062,12 4.4063,28.3125 11.1875,71 19.125,120.8125 22.1875,145 11.1875,73.5 0.375,3.21875 2493.5625,0 -0.125,-1.9375 0.5,-3 0.4063,-5.1875 -0.094,-3.40625 -1.7188,-5 -0.2812,-2.09375 -0.5,-2.09375 -1.125,-5 -1.5938,-8.125 -1,-4 -1.5937,-5.59375 -1.5,-4.5 -2.5937,-4 -2.0938,-2.59375 -3.625,-3.40625 -4.0938,-3 -4.0937,-3.5 -3,-3.09375 -1.5,-2.1875 -2.5937,-4 -3.3126,-4.90625 -0.4062,-0.90625 -2.0938,-4.5 -2.5937,-5.5 -1.5937,-3.8125 -0.9063,-2.28125 -2.6875,-8 -0.4062,-1.71875 -1.7188,-8.375 -0.5938,-1.625 -1.2812,-2.78125 -1.9062,-4.40625 -1.9063,-3.3125 -1.6875,-1.59375 -2,-1.59375 -2.4062,-2.1875 -3.2188,-2.625 -5.0938,-4.5 -2,-1.09375 -6.0937,-3.6875 -0.5,-0.40625 -2.0937,-1.59375 -1.4063,-1.3125 -0.8125,-0.90625 -2,-2 -1.0938,-1.6875 -1,-3 -0.1874,-1.40625 -0.4063,-4.5 0,-1.90625 -0.3125,-2.6875 -0.094,-2.59375 -0.094,-0.8125 -0.5,-3.09375 -1.9063,-3.3125 -1.7812,-2.1875 -1.5,-4 -0.2188,-1.09375 -0.2812,-1.90625 -0.625,-5 -1.5,-4.09375 -1.5938,-3.5 -1.0937,-3 -1.0937,-3.40625 -0.5938,-3 -0.625,-3.59375 -0.094,-4 -0.7812,-3.3125 -1.5,-2.78125 -2.7188,-5.40625 -1.0937,-5.5 -1.1875,-4.3125 -1.125,-4.1875 -2.7812,-9.5 -1.5,-3.3125 -1.5,-3.1875 -0.8126,-1.5 -2.0937,-1.40625 -1.8125,-1.59375 -0.5,-0.40625 -2.375,-2.40625 -0.4062,-0.5 -0.8126,-2.09375 -1.0937,-2 -1.5937,-2.90625 -0.5938,-0.90625 -1.5,-2.09375 -1.3125,-1.5 -1.3125,-1.40625 -2.375,-1.78125 -3.125,-1.90625 -7.1875,-3.59375 -5.0937,-1.3125 -4,-0.40625 -1.2188,0 -2,0.40625 -3.875,1.40625 -2.8125,2 -2.5,1.09375 -3,0.5 -2.9063,-0.5 -0.6874,-0.28125 -3.0938,-1.125 -1.7188,-0.6875 -1.1874,-0.0937 -3.5938,-0.40625 -2.3125,0 -1.5,0.1875 -3.5,3.125 -2.5937,1.5 -3.0938,1.5 -2,0 -3.125,-2 -0.375,-0.40625 -1.9062,-1.40625 -0.7188,-0.59375 -1.0938,-0.59375 -0.7812,-0.5 -2.2188,-0.40625 -1.9062,0 -1.5938,0.28125 -1.5,0.71875 -0.6874,0.5 -1.5938,0.78125 -2,0.125 -2.3125,-0.40625 -1.5937,-0.5 -2.5,-0.40625 -2.5938,0.0937 -2.8125,0.90625 -2.6875,1.8125 -1.625,1.5 -1.875,3.09375 -1,1 -0.9062,0.78125 -3.2188,1.90625 -2.5,0.5 -2.5938,-0.90625 -1.4062,-1 -0.5938,-0.5 -1.0937,-0.875 -1.4063,-1.125 -3.7812,-1.28125 -4.2188,-1.90625 -5.0937,-3 -2.1875,-1.40625 -1.7188,-1 -5.0937,-1.40625 -5.6875,-2.5 -4.125,-2.5 -1.5,-1.1875 -1.1875,-1.1875 -2.9063,-3.625 -1.0937,-1.59375 -1,-1.90625 -0.5,-2.5 -1.5937,-2 -0.8126,-0.5 -1,-0.5 -2.5,0 -2.6874,-0.375 -3,0.0937 -1.2188,0 -1.0938,-0.21875 -2.5,-1.5 -1.5,-1.1875 -5.1874,-5.40625 -3.2188,-3.40625 -1,-2 -1,-2.5 0,-0.78125 0.3125,-1.71875 0.8125,-1.375 1.5938,-3.21875 -0.094,-2.40625 -0.125,-1.09375 -2.0938,-2.5 -2.5937,-1.5 -3.0937,-1 -3,0 -3.0938,0.5 -2.625,-0.40625 -2.5938,-1.6875 -0.4062,-0.6875 -0.5938,-1.21875 -1,-2 -1.5937,-3 -0.6875,-1.59375 -0.8125,-1.90625 -1.9063,-2.5 -3.9062,-4.6875 -1.2812,-1.21875 -1.7188,-2.09375 -2,-1 -1.5938,-0.5 -1.5,-0.5 -0.5,-0.5 -0.5,-0.78125 -0.094,-2.21875 -0.5,-2 -2.1875,-1.59375 -3.125,-0.0937 -2,0.0937 -1.5938,-0.5 -2,-0.40625 -2.6874,-3 -0.5938,-3 -1.2188,-3.09375 -1.5937,-2.5 -3.0937,-3.40625 -3.0938,-1.78125 -5.3125,-3 -1.3125,-1.8125 -1.0938,-2 0,-4.5 -1.2812,-1.6875 -2.3125,-1.40625 -2.5937,-0.40625 -2.5,-1 -2,-2 -0.5,-2.5 0.9062,-3 2.5,-2.59375 1.5,-0.5 1.5938,-1.59375 -1.0938,-2 -1.7188,-1.5 -3.0937,-0.8125 -3.5937,-0.90625 -3.4063,-0.6875 -2.5,-0.5 -3.5937,0.0937 -2.8126,0.40625 -3.7812,1.6875 -2.8125,0.90625 -2.4063,-0.5 -3.0937,-2 -3.5937,-1.90625 -1.0938,-0.59375 -3,-1.40625 -5,-1.5 -7.5,-0.5 -4.8125,-0.28125 -2.0937,-0.125 -2.5,-0.28125 -4.0938,-1.90625 -3.2188,-2.90625 -2.0937,-3.90625 -2.1875,-4.5 -3.2188,-4 -3.9062,-4.5 -5.0938,-3.09375 -0.4062,-0.1875 -5.7812,-3.8125 -7.7188,-4.5 -2.5938,-1.5 -4.5937,-3 -6.9063,-4.1875 -2,-1.71875 -3.2812,-3.09375 -3.3125,-4.5 -1,-3.5 -1.6875,-3.40625 -1,-1.1875 -1.4062,-1.40625 -1,-0.40625 -1.3126,-0.5 -3.5937,0.125 -4.5937,-0.3125 -0.5938,-0.1875 -2.8125,-1.125 -2,-2 -2.0937,-2.59375 -2.5938,-2.5 -5.125,-1.90625 -3.7812,0 -1.8126,-0.28125 -1.4062,-0.21875 -1.2812,-0.5 -0.3126,-0.78125 -0.5937,-1.40625 0.4063,-2.5 0.5,-0.90625 0.9062,-1.6875 -0.5,-3.5 -0.4062,-0.71875 -1.0938,-2.09375 -2.3125,-2.09375 -1.5937,-0.8125 -0.5,-0.1875 -3.2188,-1.40625 -1.7812,-1.28125 -0.8126,-1.71875 1,-2.5 2,-2.09375 1,-2.5 -0.5,-2 -1.1874,-2 -0.5,-1 -1.5938,-4 -0.3125,-1 -0.9063,-3.5 -0.6874,-3.5 0.5,-4.09375 0.4062,-2.5 2.0938,-3.59375 2.5,-3.5 2.5937,-3 2.3125,-1.71875 2.2812,-1.40625 1.4063,-1.09375 1.0937,-0.90625 2,-2 0.5938,-1.375 0.9062,-1.625 1.5938,-2.5 2.2188,-1.1875 1.2812,-1.40625 1,-1.5 1.625,-3.09375 0.5938,-0.8125 1.1874,-1.28125 2.3126,-0.5 0.5,-0.3125 1.1874,-1.28125 0.4063,-0.90625 -0.5937,-3 0,-4 0.4062,-4.09375 0,-3.5 -0.5,-4 -0.4062,-2.90625 -0.094,-1.71875 -0.7188,-2.78125 -0.1874,-2.3125 -0.2188,-4.5 0,-2.5 2.9062,-4.09375 1.0938,-1.3125 1.5,-1.59375 3.625,-3.09375 2.7812,-2.3125 3.5938,-2.09375 2.8125,-1.59375 1.5937,-1 0.4063,-2.09375 -1,-2.5 -1.5937,-2 -1.7188,-2.5 -0.875,-2.3125 0.375,-1.6875 1.125,-1.5 0.875,-0.5 0.7188,0.1875 0.5,0.0937 3,1.5 1.5937,0.5 2.5,-0.59375 1.6875,-1.28125 0.8125,-1.21875 1,-2.09375 2.1875,-1.40625 1.5,-0.1875 0.8125,0 2.0937,0.90625 2.0938,2 2.625,1.375 1,0.21875 1.5938,0.1875 2.1874,-0.40625 2,-2.09375 0.8126,-1.59375 0.2812,-1.1875 0.625,-3.3125 -0.125,-2.09375 0.3125,-2.71875 0,-1.09375 -1,-2.6875 -1.5937,-1.5 -0.5,-2.5 0.9062,-2.5 1.1875,-2.5 0.5,-2.5 0.5,-2 1.6875,-2.09375 2.4062,-1 0.5938,0.1875 1.625,0.59375 2.5938,1.40625 2.0937,1.59375 0.5,0.3125 1.8125,0.40625 1.7812,-0.40625 0.2188,-1.90625 0,-0.6875 -0.5,-2.5 -0.4062,-2.5 0.094,-3.3125 3.3125,-3.3125 0.875,-2 -0.5,-2 -0.375,-0.78125 -1,-1.8125 -1.2188,-1.40625 -0.1874,-1.1875 0.5937,-0.3125 1.5,-0.0937 1.8125,0 3.2812,-0.5 1.5938,-0.1875 0.8125,-0.40625 1,-0.90625 0.6875,-1.1875 -0.094,-2.21875 -0.1874,-0.6875 -1,-2 -1.5,-2.09375 -0.094,-1.5 2,-2 0.5,-0.0937 1.5938,-0.125 3.4062,0 1.6875,-0.0937 3.0937,-0.0937 3.5938,-0.59375 2,-1 2,-1.09375 2,-2.125 0.3125,-0.5 0.6875,-1 0.4062,-0.875 0.8126,-1 0.5,-0.5 1.9062,0.375 0.2812,0.71875 0.3126,0.90625 0.7812,1.875 0.3125,0.5 1.4063,1.40625 1.1874,0.21875 1.5,0 1.5938,-0.5 0.9062,-1.625 0.7188,-1.1875 0.1875,-1.1875 -0.6875,-4 0.5,-2.5 0.5,-1 1,-1.21875 2.875,0 1,-2 0.625,-1.5 1.5,-2.09375 1.5,-0.5 1.5,0 1.375,-0.6875 1.2188,-0.8125 0.9062,-0.90625 0.5,-0.78125 2,-2.5 1.5,-3.125 1.1875,-2.1875 2.1875,-2.90625 4,-4.1875 1.3125,-1.40625 0.6875,-0.59375 2.5,-2.09375 1.3125,-0.625 1.1875,-0.5 2.125,0.90625 2.0938,2.5 2,0.5 1.2812,-0.78125 0.3125,-1.3125 0.3125,-2.8125 -0.4062,-3.1875 -0.094,-3.40625 0.2812,-1.5 0.5,-1.78125 2.0938,-1.5 0.9062,-0.21875 0.8126,0 2.0937,1 1.5,1.5 2.5937,2.5 2.2188,0.40625 2.875,0 1.9062,-1 2,-1.59375 2.3126,-1.40625 2,-1.09375 0.4062,-0.8125 0.2812,-1.40625 0.5,-3 0.4063,-2.28125 2.5,-1 1.5,1 1.5937,2.40625 2.5,1.09375 2.0938,-0.5 1.2188,-0.5 1,-0.5 1.9062,-1.5 0.094,-0.59375 -0.094,-1.5 -1.125,-2.5 -2.0938,-2 -2,-1.5 -3.0937,-3 -1.5937,-2 -0.3126,-2.8125 1.5938,-2.09375 0.8125,-0.40625 1,-0.3125 2,0.5 2.0937,1.5 0.5938,0.625 1.125,0.78125 0.6875,-0.5 0.5,-0.40625 0.094,-0.78125 0,-1.71875 -0.4062,-0.5 -1.0938,-1 -0.5937,-0.59375 -1.3125,-0.90625 -1.5938,-1.375 0.2188,-0.625 0.6875,-1 0.5937,-1.5 -0.5937,-2.09375 -1,-2 0,-3.1875 0.8125,-2.3125 0.6875,-1.90625 0.3125,-0.59375 0.5,-0.90625 1,-1.6875 0.6875,-0.6875 1,-0.8125 1,-1.5 1.0937,-1 0.3126,-0.6875 0.6874,-1.3125 1.8126,-2.40625 2.1874,-2.1875 1.9063,-1.8125 1.1875,-1.5 1.5,-2.1875 1,-2.59375 -0.2812,-1.71875 -0.4063,-0.59375 -1.9063,-1.6875 -1,-1 0,-1.5 -0.6874,-1.8125 -0.7188,-2.5 z"
     id="rect4"
     inkscape:connector-curvature="0" />
  <path
	 style="fill:#9FAEC0"
	 stroke="#9FAEC0"
	 stroke-width="10"
	 transform="translate(0, 100)"
     d="m 127.5625,857.03125 1.4375,11.875 1.5937,8.09375 19.5,131.9062 8.3126,56.1876 10.6874,72.9062 10.8126,74.4063 9.6874,66.5 29.3126,205.0937 1.6874,12.1875 26.0938,177.4062 4.9062,33.2188 1,7.25 3144.6563,0 -2.75,-3.75 -1,-1.9062 -1,-2.5 -2.6875,-6.0938 -2.125,-3.4062 -2.5,-2.8126 -0.5938,-0.5 -2.1874,-1.5937 -1.5938,-1 -1.8125,-0.8125 -3.8125,-2.0938 -2.5938,-0.9062 -1.6874,-0.6875 -1.9063,-0.6875 -0.5937,-0.4062 -2.2188,-0.7188 -2,-0.875 -1.0938,-0.625 -3.0937,-2 -4.5937,-2.2812 -2,-0.8126 -4.0938,-1.9062 -3.8125,-1 -4.5,-1.7812 -4.0937,-1 -3.0938,-0.9063 -2.625,-1.4063 -2.5938,-3 -2.0937,-3 -0.6875,-5 -0.125,-4.5 -0.5938,-3.0937 -1.0937,-3 -0.4063,-0.6875 -2.5937,-4.2188 -2.0937,-3.5 -2,-3.0937 -2.5938,-3.5 -2.625,-3 -2,-2 -0.875,-1.0937 -1.2188,-1.4063 -1,-2 0,-2 -0.5937,-0.8125 -1.6875,-1.375 -1.3125,-1 -0.8125,-0.5 -5.1875,-3.9062 -3.1875,-2.5 -0.4062,-0.4063 -2.2188,-2.5937 -1.2812,-1.3126 -1.8126,-3 -6.4062,-7.5 -3.375,-4.1874 -0.7188,-0.8126 -2.6874,-3.4062 -0.9063,-0.875 -1.8125,-2 -2.5938,-2 -4.5937,-2 -4.0937,-1.5 -3.5938,-2 -3.3125,-2.125 -4.4063,-3.375 -2.0937,-1.5 -1.8125,-1 -4.0938,-2.4062 -3.4062,-1.5 -4.375,-1.8126 -3.125,-2 -3.1875,-1.7812 -0.5,-0.8125 -1.5937,-2.1875 -2,-2.5 -2.5938,-2.5 -1.5,-1.625 -2.2188,-2 -2.0937,-0.7812 -2.5937,-0.4063 -2.0938,0 -2.3125,0.1875 -3,1.7188 -3.3125,2.4062 -3,2.0938 -4,1.5937 -3.0938,0.094 -2.5,-0.094 -0.5,-0.094 -3.0937,-1.5 -3.0937,-2 -2.2188,-2.0938 -0.6875,-0.8125 -2.5,-3.1875 -2.0937,-3.4062 -2.0938,-3.5 -2.2188,-3 -2.5937,-1.9063 -3.0937,-1.5 -3.5938,-0.9063 -4.125,-0.9062 -1,-0.1875 -3.5,-1.0937 -4.2812,-2 -1.4063,-1.3126 -4.9063,-4.5937 -5.2812,-5.9063 -1,-1.2812 -1.125,-2 -3.0938,-8.5 -0.7812,-1.9062 -0.5,-2.3126 -1.2188,-5.5 -0.1874,-5.5 0.4062,-5.5937 0,-1 -0.125,-2.5 0,-2.0937 -0.094,-2 -0.5937,-2.5 -0.5937,-3 -0.7188,-1.4063 -0.375,-0.5 -1.9062,-2.3125 -1.7188,-1.6875 -2.6875,-3 -0.1875,-0.5 -1.8125,-3.0937 -1.4063,-2.0938 -0.7812,-0.7188 -2.9062,-3.1874 -2.5938,-2.9063 -4,-3.3125 -3.7188,-3.375 -3.5937,-4.5 -2.5937,-3.5 -2,-5 -0.7188,-2.8125 -0.1875,-1.5937 -0.094,-3.5938 0.4062,-3 0,-0.9062 -0.2188,-3.0938 -0.9062,-2.7187 -1.1875,-3.2813 -0.3125,-1.7187 0,-3.5 -1,-3.0938 -2.0938,-3.8125 -1.1874,-3.5 -1,-3 -0.7188,-1.875 -1.2812,-2.8125 -1.3126,-2.5937 -1.5937,-2.5938 -4.1875,-5 -6.8125,-6.4062 -1.5937,-1.5938 -4.0938,-3.9062 -7.125,-6.0938 -5.1875,-4.5 -3,-2.4062 -3.6875,-1.0938 -3.5,-0.3125 -0.7188,-0.3125 -1.9062,-0.6875 -1.5938,-1.0937 -2,-4.8125 -0.6874,-4 -0.5938,-4 -0.4062,-2.4063 -0.4063,-1.5 -1.5937,-3.375 -2,-3.125 -3.7188,-3.5937 -15.1875,-12.1875 -14.0937,-12.7188 -4.2188,-3.5937 -1.5938,-1.2813 -2.5937,-2 -2.5937,-1.4062 -2.2188,-0.3125 -1.0938,0 -3.2812,-0.094 -3.125,-0.4063 -6.875,-5 -13.5,-11.5937 -5.8125,-5.4063 -3.0937,-1.9062 -1.8126,-0.875 -2,-0.7188 -5.1874,-1.5 -6.0938,-1 -5.125,-1 -5.0938,-1.2812 -3.5937,-1.5 -2.8125,-1.7188 -1.875,-1.4062 -4.7188,-3.5938 -11.6874,-9.5 -15,-11.5 -2.2188,-1.7812 -8.5,-7.2188 -8.7812,-6.5 -5.5938,-5 -2.3125,-3.0937 -4.0937,-5.4063 -1.9063,-2.5937 -1.8125,-2.4063 -1.875,-3.0937 -1.8125,-2.9063 -0.5,-0.4062 -2.1875,-2.5 -1.3125,-2 -3.9063,-5.6875 -0.4062,-0.4063 -2.7812,-1.7812 -2.8126,-1.4063 -1.1874,-0.4062 -3.3126,-1.5938 -4.5937,-0.8125 -4.0937,-0.4062 -1.9063,-0.1875 -1.6875,-0.1875 -4.125,-0.9063 -3.2812,-0.5 -4.0938,-0.9062 -4,-1.8125 -2.625,-2.5 -4.1875,-3.375 -0.4063,-0.625 -0.5937,-1.1875 -3.3125,-3.9063 -1.0938,-3.1875 -0.5937,-3.5937 -1.0937,-3.5 -0.5,-1.3125 -1.0938,-2.5938 -1.625,-3.5 -2.375,-3.9062 -1.4062,-2.5938 -1.0938,-2.3125 -0.3125,-1.2812 -0.6875,-1.8125 -2.9062,-8.6875 -0.8126,-1.8125 -1.9062,-4.8125 -4.5938,-8 -3.0937,-5.5 -0.4063,-1.6875 -1.6874,-5 -1.0938,-3.5 -0.125,-2 0,-1.5 0.4062,-3.5938 -0.1874,-1.0937 -0.5938,-1.8125 -0.9062,-1.4063 -1,-1.0937 -3.0938,-3 -3.2188,-2.4063 -2.6874,-2.5937 -2,-2.9063 -1.5938,-2.9062 -2.2188,-2.375 -2,-1.625 -1.2812,-1.375 -1.4062,-1.5 -1.5938,-3 -1.625,-3.5 -1.5938,-3 -2.6874,-3.4063 -2,-1 -6.2188,-2 -2.6875,-1.8125 -3.0937,-2.9062 -1.0938,-2.2813 -0.8125,-2 -1.0937,-5.0937 0.5,-3.5 1.5,-4.125 0,-2.5 -0.5938,-2.6875 -1.4062,-3.4063 -1.5938,-1.9062 -2.125,-1.6875 -1.2812,-0.9063 -2.7188,-1.90625 -3.5938,-3 -3.1874,-5 -0.9063,-1.5 -2.3125,-3.875 -5,-9.21875 -2.5938,-4.59375 -2.6874,-4 -2.5938,-2.59375 -3,-2.40625 -1.2188,-1.1875 -1,-0.71875 -2.5937,-2.5 -2.0937,-1.90625 -0.5,-0.28125 -2.8126,-0.90625 -2.1874,-0.90625 -1.2188,-0.28125 -3.6875,-1.40625 -2.4063,-1.21875 -0.6874,-0.1875 -3.7188,-2.5 -4.0938,-2.5 -2.0937,-2 -2,-2.5 -0.5937,-1.09375 -1.7188,-4.21875 -1.7812,-5.78125 -3.7188,-7.71875 -1.5938,-3.875 -1.5,-2.90625 -0.7812,-2.09375 -1.8125,-4.5 0,-7.625 -0.094,-4.5 -1,-6 -1.3126,-3.5 -1.0937,-2 -0.9063,-1.375 -0.6874,-1.125 -1.5938,-2.5 -1.625,-2.59375 -1.0938,-2.5 -0.5,-1.90625 0.9063,-3 0.5,-3.1875 -0.094,-2.90625 -1.0938,-2.5 -1.125,-3 -0.062,-1.0625 -2493.5625,0 z"
     id="rect6"
     inkscape:connector-curvature="0" />
  <path
	 style="fill:#9FAEC0"
	 stroke="#9FAEC0"
	 stroke-width="10"
	 transform="translate(0, 75)"
     d="M 252.5937,1714.0625 255.4063,1734.5 281,1919 l 22.5937,147.1875 3.9063,23.625 2.5937,16.1875 4.4063,27.3125 0.5,5.2812 8.0937,58.3126 4.5938,34.5 2,14.2812 9,64.8125 4.625,32.5937 2.0938,10.5938 0.1874,0.9062 1.8126,9.2188 1.6874,5 3.2188,2.6875 5.0938,1.1875 3.5,0.125 2.0937,-1.5 3.0937,-0.4062 2.5,1.0937 2,2 2.9063,4.6875 1,3.5 -0.6875,2.125 -2.625,2.875 -3.5,1.625 -2.5,2.0938 -1.7812,2.0937 -2.3126,3 -0.5,3 0.5938,4 1.5,3.0937 0.625,3 0,3.5938 -1.125,3.5 -0.375,3.5 1.0938,3.5 1.5,2.5 3.5937,4.4062 6,3.2188 6.9063,2.875 3,2.5 2.5937,3.5 0.4063,4.625 1,1 1.7812,1.5 3,2 4.2188,2.2812 3,1.5938 2.5937,1.625 0.5,2.5 -1.5,2.5 -2.5,1.5938 -3.9063,1.7812 -3.2812,1.2188 -3.5,2.5937 -2.625,2 -1.5938,3 -0.5937,3 0.9063,3 1.4062,3.5937 1.5,3.0938 0.5938,2.5 1.0937,3.5 8.6875,1 7.2188,2.4062 4.5,3.9063 1.9062,3.5 0.875,4.5937 -1.1875,5 -2.0937,4 -1.8126,1.7188 -1,2.5938 0,3.5 0.4063,4.7812 0.6875,3.8125 1.625,6 2.0938,9.0937 2.0937,7.0938 3.3125,5.125 7.5938,8.375 1.5312,1.9375 3470.125,0 -0.25,-0.2187 -1.9062,-2 -1,-3 0,-2.5938 2,-2.4062 0.5937,-2.7188 -0.5937,-2.5 -3.5938,-4.5 -1.625,-3 0,-3 -0.5,-2.2812 -0.5,-1.8126 -3.0938,-1.9062 -1.9062,-0.375 -1.6875,-0.2188 -1.8125,-0.1874 -2.0938,-1.5 -1.1874,-1.0938 -1.5,-1.2188 -0.7188,-0.5 -1.875,-1.5 -1,-0.5 -1.625,-2.5 0.625,-3 2,-2.5937 1.1875,-1.1875 1.0937,-0.9062 2.8126,-1 0.4062,-0.3126 1.875,-1.9062 0.8125,-1.6875 -1.5,-2.0937 -0.5,-1.7188 0.5,-1 2.0937,-2.0938 0.5,-0.9062 0.9063,-1.375 -0.094,-1.8125 -0.8126,-0.8125 -0.7812,-0.6875 -0.625,-0.5 -1.2812,-1.1875 -0.5938,-3.125 0.5,-2.5 1.7812,-1.2812 1,-1 0.4063,-0.5938 0.4063,-1.125 0,-1.5938 0.5,-0.7812 0.5,-0.7188 0.6874,-0.5937 2.0938,-2.0937 0.8125,-1.2188 1,-1.5938 0,-2 -0.4063,-0.5937 -0.5937,-1 -1.4063,-0.9063 -0.7812,-0.4062 -4.125,0.125 -2.5,0 -1.5938,0.094 -2.0937,-0.9063 -0.4063,-1.4063 0.7188,-1 0.6875,-0.7812 2.1875,-1.3125 0.7188,-0.4063 1.6874,-0.9062 1.3126,-0.5 1.6874,-0.5938 1.5,-0.5937 0.3126,-0.4063 0,-0.6874 -1.0938,-1 -1.8125,-1.3126 -1.0937,-1 -0.094,-2.1874 -0.5,-1.3126 -2.625,-1.2812 -1.5,-0.625 -0.5938,-0.5 -0.5,-0.7812 -0.4062,-1.7188 -1.6875,-1.5 -2.0937,-0.875 -2.4063,0.094 -2.1875,0 -1,-1.5 0.5938,-1.5938 2.4062,-1.625 3.1875,-1 2.9063,-0.5 2,-0.5938 0.5,-0.7812 0.094,-1.4062 -0.6875,-1.4063 -2.625,-1.4063 -3.1875,-0.5 -1.9063,-0.5 -1.6874,-0.9062 -1.5938,-1.5 0,-1.5 0.5938,-2 2,-2.0938 1.5,-1.5 1,-1.5937 0.9062,-2 0,-1 -2.625,-2.5 -1.375,-2 -0.5,-0.6875 -0.3125,-0.8125 0.5,-1 1,-1.5 0.5,-2 -0.1875,-0.5937 -0.4062,-1.5 -0.5938,-2 0,-2 1.5938,-2.2188 0.9062,-0.7812 2.5938,-2.5938 0.4062,-1.625 -1.125,-1.5 -2.0938,-0.875 -1.5,-1 0.4063,-1.5 0.4063,-0.7188 0.5937,-0.9062 -0.5,-2 -1.6875,-2 -2.125,-1.5 -0.875,-1.6875 0.7812,-1.3125 1.4063,-0.375 1.8125,0.375 2,-0.5938 1,-1.5 0.5,-1.5937 -0.7188,-2.5937 -1.4062,-2.3126 -2.5938,-3 -2,-3.0937 -0.7812,-0.4063 -2.125,-1 -2.5,-0.5 -1.375,0.4063 -1.2188,0.3125 -1.0937,0.5 -1.6875,0.2812 -0.8125,0 -0.9063,-0.1874 -1.2812,-2.8126 0,-2.5 -0.2188,-1 -0.7812,-1.6874 -0.625,-0.9063 -0.5,-0.5 -2.5,-0.094 -2.5,1.5937 -2,2.5937 -1.5,2.5938 -1.6875,0.4062 -1.5,-0.5 -0.9063,-0.7812 0,-2.125 -0.094,-3 0.9063,-2.5938 1.5937,-3.5937 1.3125,-3.5 1.5,-4.0937 0.5,-1.3126 0.1875,-1.1874 0.5,-4 -0.5,-2.0938 -1.5,-2 -2.0937,-0.9062 -2.0938,-1 -3,-1.5938 -0.8125,-0.7188 -0.8125,-1.0937 -0.5,-0.5937 -1.0938,-1.4063 -1.1874,-0.5 -0.8126,-0.1875 -2.5,0.5 -1.5,1.5 -2.6874,0.5 -2,-1 -2.5938,-1.5 -1.4062,-2.5 0.5,-2 0.7812,-2.125 0.9062,-2 1.9063,-3.0938 1.5,-1.4062 2.0937,-0.5938 2.5,-0.094 2.5938,-0.5937 1,-0.5 0.4062,-1.5 -0.094,-1.8126 -0.4063,-1.7812 -1.5937,-1.9062 -1.5937,-1.0938 -1.8126,-0.2188 -0.5937,0 -2.0937,0.5 -0.5,1.5 -1.5938,2 -0.9062,1 -1.5938,0.094 -1,-1 -1.5,-1 -0.625,-2.5938 0,-3 -0.1875,-1.0937 -0.3125,-1.9063 0,-3.5937 -0.5,-2.5 -1.5938,-1.5 -0.5,-0.8125 -0.5,-0.6875 -1.5,-1 -0.5,-2 0.5,-2 1,-1.5 0.4063,-0.9063 -1.0937,-2.5 -0.3126,-0.5937 -1.0937,-1.0937 -1.5,-1.2188 -1.0937,-0.7812 -4.8126,-3.3126 -2.9062,-2.6874 -2,-2 -2,-2.5938 -0.5938,-3 0.5,-2.5 1,-2.625 -0.5937,-2.0938 -1.5937,-2 -2.9063,-1.9062 -2.5937,-4 -1,-3 -0.4063,-1.875 -1.1875,-6.5 -0.125,-3.125 0,-1.5 0.125,-0.5 1,-0.094 1.375,-0.094 0.8125,1.0937 0.9063,1.4063 0.5937,0.9063 0.4063,0.6874 1.5937,1.5 2,-0.5937 1.5,-1.5 0.9063,-2.5937 0.2812,-1.4063 0.3125,-2.5 1.5937,-8.3125 0.9063,-4.5 0,-4 1,-3.5 1.5937,-3 1,-2 0,-3.0938 -1.5937,-2.5 -3,-1 -2.0937,-0.5 -1,-1.6874 0,-1.3126 1,-1.0937 2.5,-1.0937 1.6874,-1 0.9063,-0.5 2,-1.5938 0,-1 -1.0937,-2.3125 -0.7188,-0.1875 -1.2812,-0.3125 -2,-0.4063 -1.9063,-1.4062 -1.6875,-1.1875 -1.5,-1 -1.8125,0.4063 -1,0.1874 -1.8125,0.9063 -1.0938,2 -1.4062,1.0937 -1.5938,-1.5 0,-2.0937 0.3126,-1.0937 0.1874,-0.9063 0,-2 -0.5,-1.5 -3.0937,-1.5 -1.0937,-0.9063 -0.5,-2.0937 0.5937,-1.8125 0.6875,-0.7812 0.8125,-0.5 1.5937,-0.9063 0.3126,-1 -0.4063,-1.4063 -2.0937,-1.5 -3.0938,0.094 -0.9062,-0.5938 -0.7188,-0.4062 -1.5,-0.5 -4.0938,-2.375 -0.4062,-0.4062 -1.1875,-1.5938 -0.5937,-2 -0.5,-0.9062 -0.5938,-1.0938 -2.2188,-1.4062 -1.5937,0 -1.8125,0.094 -1.7812,-0.094 -1.3126,-0.8126 -1.1874,-0.6874 -2.5938,-3 -0.5,-1.0938 -0.4062,-1.2188 -1.5938,-1.5 -1.8125,-0.2812 -0.8125,0 -2.5,2.5 -2,1.5 -2.5,1.5 -0.6875,-0.125 -4,-1.1875 -2.0937,-0.5 -2.5938,-1.5937 -0.5,-2.3126 0.5,-0.5 1,-0.6874 2.0938,-1 0.5,-0.4063 1,-0.6875 0.5,-1.5 0.4062,-1 -0.125,-0.9062 -0.2812,-0.5938 -1.8126,-2.9062 -1.2812,-1.5938 -1.8125,-1.125 -0.5,-0.2812 -1.8125,0.5937 -0.5,1.8125 0,0.875 0.3125,0.9062 0.094,1.2188 -0.4062,1.5 -1.5,0.5938 -0.875,-0.3126 -0.8125,-0.4062 -2.0937,-2 -1.5938,-2 -1.125,-1.5938 -0.6875,-1.2812 -0.3125,-1.625 -0.1875,-0.875 -1,-1.5 -1.4063,-0.625 -1.6874,-0.875 -2.0938,-2 -2,-3 -2.125,-0.9062 -2,-0.5 -2.0938,0.094 -1.1874,0 -1.3126,0.094 -3,-0.094 -1.0937,-0.6875 -1.6875,-0.9062 -0.9062,-1.5938 0.5,-1.5 2.0937,-1.625 0.5,-1.875 0.5,-1.625 -0.3125,-1.1875 -0.5,-1 -1.0938,-1.4063 -0.5,-0.6874 -0.6874,-0.7188 -2,-0.5 -1.5938,1 -1.5,3 -2,1.625 -1.625,1 -1.1875,-0.4062 -1.0937,-1.5 0,-2 1.5,-3.0938 1.7812,-3.625 0,-2.5938 -2,-2 -3.0938,-1.4062 -4.1874,0.2188 -5,0.7812 -2.5938,0.5 -5.125,1.5 -3.5938,0.625 -3,0.094 -3.0937,-0.4063 -3.5937,-0.9063 -2.7188,-1.4062 -3.5,-2.5 -0.375,-0.5 -3.125,-3.375 -4.0938,-3.625 -0.9062,-0.5938 -4.5938,-2.6874 -7.7812,-2.8126 -9.3125,-3.9062 -10.3125,-2.6875 -3,-0.5 -2.0938,-0.4063 -0.7812,-0.1874 -2.7188,-1.0938 -2.0937,-0.625 -2.0937,-2 -2.7188,-1.875 -3.375,-2 -2.5,-1 -2.125,-0.5 -2.2812,-2.3125 -2.7188,-2.4063 -3.0938,-3.5 -5.1874,-3.9062 -5.3126,-4.375 -1.9062,-1.7188 -4.875,-4.1874 -6.3125,-5.9063 -4.1875,-4.4063 -3.125,-4.5 -2.5938,-5.5 -2.0937,-6.5937 -0.3125,-0.9063 -1.6875,-4.5937 -1,-2.0937 -0.094,-2 1.0937,-1.4063 1.4063,-1.0937 0.5,-1.4063 0,-1 -0.5,-2.6875 1.0937,-1.5 0.5937,-0.5 1.7188,-1.5 1.5,-1 0.375,-0.5 0.625,-0.625 1.875,-2.0938 1,-2 0.3125,-2.5 -0.1875,-1.1874 -0.2188,-1.3126 -1.0937,-2.5 -1.5,-2 -1.5937,-2.0937 -0.7188,-0.9063 -1.5,-2.5 -0.5938,-1.0937 -0.4062,-0.9063 -1.0938,-3 -1.2812,-3.0937 -2.625,-2.5 -1.6875,-1.6875 -0.8125,-0.625 -2.5938,-1.375 -1.5,-0.3125 -1,0 -2,2.0937 -0.094,1.5 0.8125,2.2188 0.2812,0.7812 0.5938,1.5 0.625,1.8126 -0.4062,2.0937 -2,1.5 -4.0938,1.1875 -7.625,-1 -4.7812,-1.7812 -1.5,-0.5 -1,-0.4063 -2.0938,-0.5 -1.625,-0.9063 -1.5,-1.5 -1.1875,-3.9062 -0.094,-2.5938 -1.5,-3 -2.5938,-2 -3,-1.5937 -3.8125,-1.1875 -5.0937,-0.9062 -0.8126,-0.5 -2.0937,-1.8126 -3.4063,-4.1874 -4.2812,-3.3126 -5.125,-2.5 -3.6875,-2.9062 -0.5937,-0.5938 -1.9063,-1.7812 -0.8125,-0.9062 -0.7812,-1.3126 -0.7188,-1.4062 -0.375,-0.875 -0.4062,-2.3125 0,-0.5937 0.2812,-0.5938 1.5,-1.2188 2,0.094 2.3125,0.3125 2.0937,0 1.3126,-0.9063 0.1874,-0.9062 0,-0.6875 -0.5,-1.5937 -1.5,-1 -2.1874,-2.0938 -1.5,-1.9062 -0.7188,-1.5 -0.1875,-0.8126 0.5,-1.5 0.9063,-1.5937 2.5,0 2.0937,0.9063 1.5937,2 1.5,2 2.2188,1.4062 1.5938,0.7812 3,0.2188 1.5937,-1.125 0.4063,-1.0938 -0.094,-2.2812 -1.5,-1 -2.125,-1 -2.0938,-1.125 -1.5,-1.5 0.4063,-2 0.5,-2 -0.1875,-2.375 -0.7188,-1.125 -1.7812,-1.0938 -1.8125,-0.9062 -2,-1.5 -1.5937,-2.375 -1,-3.125 -2.5938,-1.5 -0.9062,-0.1875 -2.0938,-0.5937 -4.125,-0.4063 -1.375,-0.6875 -2.3125,-1.625 -2,-1.5 -0.5,-3 0,-2.5 -0.094,-2.5938 0.2812,-1.0937 1,-2 1,-0.5 2.625,-0.094 5.5938,1.4062 1.2812,-0.2188 0.5,-0.5937 0.5,-1.5 0.5,-2.5 1,-1.5937 -0.6875,-2.7188 -1.9063,-2.2812 -1.6874,-0.5 -1.3126,-0.2188 -2.0937,0.625 -1.8125,1.5 -0.6875,0.6875 -1.5937,1.5 -1.4063,0.5 -2.0937,-1 -1,-2 -0.094,-2 -0.5,-2.5 -2,-1 -2.7188,0.5937 -2.4062,1.4063 -2.0938,2.6875 -0.7812,1.2188 -0.7188,0.6874 -1.1874,0.5 -1.3126,0.3126 -2.5937,-0.5 -0.5,-1 -0.5,-1.3126 0,-2.5 0.4063,-3.0937 0,-2.5 -1,-1 -0.8126,-0.094 -1.4062,0 -3.0938,1.0937 -1.9062,0 -1,-1.5 1,-2.5 -0.2812,-0.9063 -0.2188,-0.6874 -2.2812,-0.9063 -0.5938,-0.094 -2,-0.8126 -1.625,-1 -0.5938,-2.5937 0.5,-2.5 0.4063,-3 -0.5937,-2.5 -1.4063,-1.5937 -1.6875,0 -1,0.1874 -2,3.5938 -0.4062,3.8125 -0.4063,2.8125 -0.3125,1.5938 -0.2812,0.6874 -1.4063,2.2188 -1.9063,0.5938 -1.0937,-1.0938 0.1875,-1.2188 0.625,-1.5 1,-2.0937 0,-2.1875 -1.5,-1.4062 -1.625,-2 -2.5938,-0.9063 -2.5,-2 -1.5937,-2 0.5,-2 0.5937,-0.9063 1.3126,-1.6874 0.7812,-0.9063 1.4062,-1.0937 2.2188,-1.7188 2,-1.5938 0.5,-1.1874 -0.8125,-0.8126 -0.6875,-0.4062 -3.3125,0.125 -2.5,1.5938 -2,1 -1.3125,0.5937 -1.7812,-0.5937 -1.3126,-0.9063 -4.5937,0.6875 -2.8125,0.7188 -1.2812,0.4062 -2.5938,-0.5 -1.7188,-0.8125 -1,-1.5 1,-2.6875 1,-2.5 0.5,-3.9062 0,-2.5 -0.094,-0.7188 -3.1875,-4 -2.9062,-2.375 -2.5938,-2.5 -0.7188,-2.3125 -0.1874,-0.6875 1,-3 2.0937,-1.8125 0.4063,-0.3125 2,-0.094 2.0937,1 1.3125,0.9063 0.7812,0.5937 1.4063,0.8126 1.5937,0.7812 1.3126,0.3125 1.4062,-0.094 0.875,-0.2188 1,-0.5 1.5,-2 0.5,-1.2812 0.5,-1.4063 -0.5938,-1.4063 -0.5,-0.7812 -2.0937,-3 -2.5937,-3.5 -1.9063,-4.3125 -0.4063,-2.5937 0,-1.0938 0.3126,-4.5 -1.0938,-3 -0.3125,-0.625 -1.1875,-1.375 -2.625,-1.9062 -2.5938,-1.5 -2.5,-2 -1,-3 0.5,-2.5 2,-1.5938 1.8126,-0.4062 0.5937,-0.094 3,0.375 1.5,-0.094 2,0 1.4063,-0.2812 2.0937,-1 2,-2 1.5,-3 -0.094,-3 -0.4063,-2.125 -2.0937,-3 -1.3126,-2.2812 -0.6874,-1.3126 -0.5,-1.0937 -0.3126,-1.5937 0,-1 0.3126,-1.4063 0.5937,-0.6875 2.4063,-1.7188 2.6874,-0.9062 3.5,-1.1875 0.9063,-0.3125 1.6875,-0.6875 2.5,-2.0937 1.4062,-2.5938 0,-2.5 -0.5937,-3 -1.5,-2.9062 -0.25,-0.3438 -3144.6563,0 z"
     id="rect8"
     inkscape:connector-curvature="0" />
  <path
	 style="fill:#9FAEC0"
	 stroke="#9FAEC0"
	 stroke-width="10"
	 transform="translate(0, 50)"
     d="m 425.4375,2571.125 3.75,4.6875 1.9062,4 1.0938,5.5 0.125,5.7812 -6.7188,3.9063 -4.7812,4.8125 -1.7188,4 -0.5937,2.7812 1.0937,2.0938 2,1.5 1.9063,0.8125 2.1875,0.5937 2.4062,1.5938 2.8126,0.4062 3.2812,-0.2812 2.5,1.0938 1.3125,1.6874 0.1875,1.4063 -1.6875,2.0937 -2,3.0938 -1.1875,3.3125 0.875,3.5 0.9062,1.8125 3.0938,2.875 2,2.625 1.4062,3 0.3126,5.5938 -0.2188,1.5 -0.375,3 0.5938,5.5937 1.5937,7.0937 3.0937,6 5.2188,7.4063 4,3.1875 3.1875,2.4062 2.5937,4 3.0938,5.4063 3.9062,4.1875 3.8126,4 4.6874,5 4.9063,5.5 3.3125,5 2.5938,2.625 2.5937,0.875 2.4063,3 0.5,2 0.1874,2.125 1,1.5 2.7188,1.5938 3,2.9062 1,3 2.375,3.2812 2.5,2.5938 2.4062,3.2188 2.9063,5.0937 2.1875,4.9063 0.625,2.2812 1,3.8125 0.7812,7.8125 0.4063,5.0938 0.3125,5.0937 0.2812,6.5 0,6.8125 -0.2812,4.7812 -0.125,5.0938 -0.1875,4.5 0.9063,6.625 1.4062,4.5938 2.375,4.5937 4,3.6875 3.4062,3.125 4.7188,2.7812 3.875,1.5 3.3125,2.5 2.5,3.5 2.0937,3.3126 1.4063,4.0937 -0.3125,4.1875 -1.875,3.3125 -2.7188,3.5 -4,2.9063 -3,2.5 -1.4062,2.5 -1.6875,4 -0.5937,4 1.9062,5.0937 2.5,3.5937 3.5,2.0938 1.5938,1.9062 0,1.5 -1.5,1 -3.5938,0.094 -4.3125,0.4062 -3.9063,0.094 -2,2.125 -1,2.5 0,3.5 1,1.6875 2.0938,0.3125 3.625,-0.5 3.5,0.5 3,1.5938 1.1875,2.4062 -0.3125,1.5938 -1.7812,0.4062 -3.5,1.0938 -2.4063,0.2812 -2.6875,2.5 -1.5,2.3125 -0.7188,3.6875 -0.094,3.5 -1.1875,3.4062 -3,3.0938 -3.125,2 -2.6875,2.4062 -1.8125,1.7188 -4.0938,4.5938 -3.5937,5 -1.6875,6 0.2812,5.0937 0.9063,6.0937 2.9063,3.5938 5,3.9062 8.1874,4 11.8126,5 11.2812,5.3126 8,4.2812 5.8125,2.3125 4.8125,2.0937 4,2.4063 4.5,3.4063 4.5,4.0937 5.875,8.0937 6.5,6.5 8.5,6.3126 5.5,4.1874 4.5,2.5938 3.3125,2.4062 2.1875,2.3126 -0.1875,1.1874 -0.9063,1.3126 -1.0937,0.1874 -1.5,-0.9062 -2.0937,0 -1.5,0.5 -2.9063,3.8125 -0.9063,2.4063 -0.4062,1.2812 -2.6875,2 -2.5937,1.4062 -3.0938,0.9063 -2.125,-0.094 -3.0938,-0.5 -2.4062,-0.094 -2.5,-0.125 -2.6875,2 -1.5937,2.8125 0.094,2.0937 1.5,1 1.4063,0.2188 2.0937,-0.5 3.5,0.6875 1,1 0,1.5 -0.5937,2.5 -2.7188,3.5 -2,2.6875 -1.1875,2.2188 -0.5937,2.1874 -0.5,1.9063 -0.2188,3.3125 -1,3 -1,2.0938 -3.6875,1 -8.1875,1.2812 -11.8125,-0.375 -9.1875,-0.2188 -7.125,1.3126 -4.875,2.4062 -3,2.875 -1.625,3 -1,3.7188 1.3125,2.9062 1.5,2.0938 2.9063,0.5 2.0937,0.5 3,0.5 2.1875,0.2812 1.4062,1.2188 0,1.2812 -0.5,2 -2.5,1.8125 -3.0937,1.5 -3.5,1.5937 -7.5,2.2188 -9.8125,2.7812 -8.1875,3.3126 -4.5937,1 -4,2 -2.3126,1.6874 -1.7812,2.4063 -2,3.5937 -2.5,3.5 -3.3125,3.4063 -2.8125,2.6875 -2,2.125 -2.0938,3 -3.5,5.0938 -7.0937,8.4062 -4.5,5.7812 -4.0937,3.5938 -5.5,4.3125 -3.5938,2.4063 -1.7188,3.5 1.3126,7.0937 4.0937,17.4063 4.5937,15.0937 0.094,0.8125 0.8125,4.375 0,2.625 -1.5937,2.5 -3.2188,3.375 -2.375,3.3125 -0.4062,5.0937 0,10.0938 0.5937,2.5 -0.3125,1.7188 -0.6875,4.9062 -2,9.5938 0.094,6.0937 0,5.5 -0.4062,6.0937 0,3.5 0.625,4.5938 1,3.5 0.5,2.5 0.094,2.625 -1,3 -1.5,3.0938 -3.2188,4.5 -2.0938,3 -2.6874,4.4062 -2.5938,6.7812 -0.4062,3.8126 -0.094,0.7812 -0.5,4.7188 0.5938,10 2.0937,3.5 0.5,3 -1.1875,2.7812 -2.8125,2.3125 -3.4063,3.0937 -4.6874,2 -3.0938,2.3126 -1.5,2.7812 0.094,4.625 0.6874,3.875 0.3126,1.4062 0.4062,1.5 0.6875,2.3126 -0.3125,4.2812 -0.5938,2.5 -2.5937,2.8125 -2,2.5 -2.5937,3.0937 -2.3126,1.9063 -2.5937,2 -2.5937,2.4063 -2.0938,2.4062 -1,2.5 -2,2.5 -2.5,2.0938 -2.4062,1.9062 -2.0938,1.875 -2.125,1.3125 -1.0938,1.6875 0.5938,1.8125 0.9062,1.3125 2,1.5 0.7188,1.7812 0.094,2.8126 -0.2188,1.25 3729.3438,0 -0.8438,-2.4688 -3.5938,-6.5938 -7.0937,-0.9062 -6.0937,1 -9.2188,-2 -7.1875,5.125 -6.0937,3 -6.5938,-0.9062 0,-4.5938 1,-6.125 5.5938,-4 5.0937,-4.0938 3,-5.5937 1,-3.5 -3.5937,-3 -5.5938,4 -5.625,7.5937 -4.5,8.2188 -4.5938,6 -5.0937,5.0938 -5.0937,2.0937 -5.0938,-3.5937 -1,-7.5 -0.625,-8.5938 -6.0938,-1 -7.1874,0.5 -9.0938,-2 0.375,-6.625 1.625,-6 -0.625,-4.0938 -2.5,-1.5 -3.5938,-0.5 -4.5937,-0.5 -0.5,-5.5 -1.0937,-7.0937 -5.0938,-3.5 -3.125,-3 0.5,-2.5937 7.2188,-0.5 7.0937,2 1.5937,6.5937 0.5,7 5.0938,2 6.2188,2.5 2.5,5.0937 0.094,4 -4.5937,6.0938 3,2 6.1874,0.5 5.5938,1 4.125,2 1.5,3 0.5,3.625 0.5938,3 2.5,0.5 5.0937,-5.125 6.5937,-7.0938 0.5,-0.5 7.7188,-7.5937 4.5,-6.5937 4.5938,-1.5 1.5,-0.5 4.0937,3 3.5937,5.5 -1,4.5937 -3.5,7.0937 -4.5937,6.5938 -2,2.5 1,2 3.5937,-2 6.5938,-3.0938 8.125,-4 7.6875,1.4063 10.6875,6.0937 6.7188,8 2.625,5.5626 26.875,0 -7,-4.5626 -4.7188,-9.0937 0,-7.5937 -1.5,-8.5938 -2.5938,-5 -13.2812,-2 -10.7188,0 -7.1874,-1.5 -5.0938,-1.5 -4.125,-3.5 -0.5,-4.5 5.125,0.375 7.1875,1 8.5937,3 6.7188,-0.5 2,-1 -4.625,-1.5 -5.0938,-2.5 -4.0937,-4.5938 -4.0937,-5 -4.0938,-4 -3.625,-3.0937 -2,-5.5 3,-1.5 4.125,1.5 3.5938,-0.094 4.5937,-1.5 3.0937,6.5937 1,3.5 2.5938,6.0937 3.5,0 7.2188,1.4063 5.0937,2 1,4.5937 0.5937,3.5 1.5,4.0938 3.5938,4 4.125,6.125 1.5,4.5 1.5938,3.5 4.0937,6.5938 5.0938,4.5 3.5937,2.5937 4.625,2 7.0938,-0.094 4.0937,-2.5 -1.5,-6.0938 -0.5937,-6.5 -7.2188,-14.2188 -2.5,-4 -3.5937,-7.0937 -3.0938,-4 -7.1875,-0.5 -7.625,-4 -4.5938,-6.5937 2,-8.0938 3.5001,-6.625 4.5937,-4.5 5.625,-3.0938 -1.5,8.0938 -4,6.625 -1.625,2.5 0.625,6.0938 5.5938,1.5 6.0937,0.5 5.5938,2 1.0937,4.5 2,6.0937 2.625,2 4.0938,3 5.5937,1.5 -3.5937,4.0937 1.5937,5 2.5,6.5938 2.5938,7.125 5.0937,6 5.2188,3 3,5.0938 3.8437,3.75 111.875,0 0.1875,-0.1563 2,-1 4.5938,-4.0937 6.0937,-5 7.0938,-7.7188 8.7187,-11.0938 -1.5,-1.5 -8.7187,-3 -9.6875,0.5 -6.7188,1.5 -9.6875,-4.5 -5.5937,-5.5 -3.0938,-4.5937 -5.625,-2.5 -5.0937,-3 2.5,-5.5937 -6.0938,-7.5 -7.1875,-4 -6.625,-3.5938 -5.6875,-5 -2.5,-3 -2.0937,-5.625 -1,-10.5938 1.5,-7.0937 2,-5.5 4.0937,-4.5937 1,-6.5938 -0.5,-5 -4.0937,-2.625 -2.5938,-2.5 -4.625,4.125 -2,-1 1,-11.7188 -2.5937,-5 -5.5938,-2 -6.1875,-4.5 10.1875,-1.0937 7.1875,5 5.625,5.5937 4.5938,4.5 2.0937,0.5 2,1.5 0,4.5938 2.5938,4 0.5,3.625 0.5937,6 1,4.0938 -3,9.5937 -2.0937,6.0937 -1,4 1.5937,7.5938 1.5,4 3.125,2.625 4.0938,1.5 4.0937,1 4.5938,0.875 3,1.625 3.0937,3 5.125,7 3.5938,1.5 4.0937,-4.5 3.5,-3.125 2.0938,-4 5.0937,-3.0938 4,-4.5 0,-4.0937 -11.6875,-5 -3.0937,-3.5 2,-2.5937 4.5937,1.5 2.5938,2.5937 5.0937,1.5 6.625,1.4063 5.0938,-2.5 3.0937,-4.5938 2.5,-5 -2,-6.625 -2.0937,-10.5938 0,-7.0937 1.5,-4 -0.5,-6.0937 -2.0938,-3.5 -6.125,-1 -6.6875,-4.0938 0.5,-4 1,-5.625 -4.5937,-3 -7.5938,-4 -4.625,-3.5 -6.6875,-12.0938 7.6875,4.5 4.625,5 6.5938,3.5 5.5937,1.5 3.0938,3.5938 2.5937,5.5 4.625,3 4.5938,1.5 4.0937,2 2,5.125 -0.5,3 -0.5,7.5938 0.5938,6.0937 0.5,2.5 1.5,7.5937 0.5937,5.0938 0.5,4 0,5.625 -2.5937,4 -2,2.5 -2.5,2.5938 -2.5938,4.5 3.5938,3.5937 1.5937,1.5 4.625,4 -2.125,3.0937 -2.5,4.5 0,3.0938 4.125,1.5 8.0938,-4.5938 4.5937,-5.0937 2.5938,0 7.0937,-2.0937 4.125,1.5 4.5938,-1.5 7.5937,-3.5938 7.6875,-7.625 5.125,-3 6.0938,-3.5938 2.5,-3 3.0937,-3.0937 0.5,-3 1.5,-5.0937 -3.0937,-7 -2.0938,-6.5938 -2,-5.125 -0.5,-3.5 7.0938,0.5 1.0937,7.625 2,4.5 4.0938,-4.5 2.5,-8.125 0.5,-10.6875 -1.0938,-14.0937 -3.5,-3.5938 -4.5937,-0.4062 -4.5938,2 -5.125,2.5 -4.0937,1.5937 -6.5938,2.5 -9.6875,0.094 -0.625,-4.5937 -1.5,-8.0937 -3.0937,-8.5938 -3.5938,-7 -3.0937,1 -6.0938,2 -9.2187,-0.4062 -4.0938,-2.5 -3,-3.5938 -0.5,-1 -1.5937,0 -6.0938,-1 -2.7187,-0.8125 -2.5,-0.9063 -2.5938,-0.7812 -3.5937,-2.125 -3.4063,-2.875 -5.0937,-5.125 -4.4063,-4.0938 -1.3125,-0.9062 -3.0937,-3 -4.5,-2 -8.6875,-2.5 -6.3125,-2.2812 -6,-3.8126 -0.5938,-0.6874 -2.5,-2.8126 -2,-4.5 -2,-3.0937 -2.0937,-4 -3.2188,-3 -4,-2 -1.1875,-0.1875 -5.4062,-0.8125 -8.6875,0 -3.7188,-0.1875 -2.5937,-0.2188 -7.0938,2.2188 -3.5937,1.375 -3.4063,1.5 -6.1875,2.5 -3,2.625 -3.625,2.5 -2.5,0.5 -3.0937,1 -1.4063,-0.2188 -1.5,-0.4062 -2.5937,-0.5 -3.5938,-1.375 -2.0937,-1.5 -4.5938,-2.5 -4.125,-3 -5.0937,-4.625 -2.5938,-2.875 -0.5,-0.5 -1.5,-1.625 -1.5937,-2.5 -2,-2 -2.0938,-2 -3,-0.5 -6.2187,0 -3.5938,-0.6875 -1.4062,-0.5 -3.0938,-1 -2.6875,-1.3125 -2,-2.0938 -0.5,-2.4062 0,-3.5938 0.1875,-1.5937 0.3125,-1.9063 -1,-3.5 0,-1.0937 -1,-2 -1.125,-4 -2,-2.5 0,-2.0937 0.5,-3 2,-2.5 2.4063,-2.2188 2.2187,-2.2812 -0.5,-2.0938 -1.125,-1.5 -1.875,-1.2188 -1.125,-0.4062 -1.5937,-0.875 -1.5,-2.625 -1,-2 -1.0938,-2 -0.5,-2 -2,-1.0938 -0.6875,-0.5 -0.9062,-0.9062 -0.5,-1.5 1.4062,-3.375 1.875,-1.625 3.9063,-2.0938 3.5,0.5 2.5937,0.4063 2.7188,-0.094 1.5937,-1.2188 0.8125,-1.1875 -0.3125,-1.0937 -1.1875,-2.0938 -1,-1.5 -1.625,-1 -1.5937,-2.5 -0.5,-1.5 -1.0938,-2.5 -2.0937,-2 -1.4063,-2.4062 0,-1.5938 2.0938,-1.4062 0.5937,-0.3126 3.125,-1 0.7813,-0.7812 0,-1.5 -1.5,-1.125 -2.4063,-0.5 -1.7812,0 -1.4063,-0.5 -1.5,-1.875 -0.5937,-1.625 -1.5,-3 -2.7188,-3.375 -1.5937,-2.5 -1.9063,-1.7188 -2,-1.5 -2.0938,-1.5 -2.0937,-1.9062 -0.5,-1.5 -0.5,-1.0938 -1.5,-1.5 -2,-1.5937 -2.5937,-0.5 -2,-0.4063 -2.0938,-1 -1.5,-1.5 1.5,-2.0937 1,-0.5 2.5,-1 1.0938,-1.5 0.5,-2 -0.094,-2.1875 -1,-0.9062 -2.5,-2.5 -3.625,-3.5 -1.5,-1.5938 -2,-2 -0.5938,-2.3125 0,-1.3125 1,-1.875 2.0938,-3 2,-1.625 2.5,-1.5 0.9062,-2 0,-1 -1.5937,-2 0.3125,-3.5938 1,-3 1.375,-3.0937 2.125,-0.5 2.5938,-0.5937 2,-1.5938 -0.094,-1.5 -1,-2.3125 0.5,-1.5937 1.5938,-1 1.5,0 1.2812,-0.3126 1.3125,-0.1874 0.8125,-1.3126 0.1875,-0.5 0.5,-0.5937 2,-1.0937 2,-0.5938 1.4063,-0.9062 0.4062,-2 -1.125,-2 0.5,-2.5938 1.5,-1 1.4063,-1.125 1.0937,-1.5 0.4063,-2 -0.5,-3.0938 -1.5938,-8 -0.5,-3.5937 -0.3125,-1.5937 0,-0.9063 -0.1875,-2 -1.5937,-2 -2,-0.5 -1.3126,-0.1875 -1.1874,-1.2188 -0.5,-1.6874 0.4062,-2 -0.125,-2.5 -0.094,-6.4063 -0.094,-1.5 -0.1875,-1.6875 -1,-2.5 -1.2188,-1.625 -1.9062,-0.7812 -1,-0.9063 0,-2 1,-1.9063 1,-1.6874 1.4062,-2.5 1.5,-2.0938 1,-2.625 -0.4062,-1.0938 -1,-1.5 -3.0938,-1.5 -3.0937,-2 -0.5,-0.5937 -1.9063,-2.0937 -1,-2 -2.0937,-2 -2.0937,-0.9063 -0.5,0.1875 -1.5,0.8125 -1,2.5937 -0.9063,2.5 -1.6875,2.5 -1.8125,1.4063 -0.5,0.1875 -2,0.625 -1,0 -0.5937,-0.125 -0.5,-1.875 0.4062,-1.5 1,-1.5 0.375,-1.7188 -0.875,-1.9062 -2.125,-0.375 -1.5938,-1 -1,-2 -0.094,-2.2188 -0.3125,-0.6874 -0.6875,-1.5 -1.6875,-1.5 -1.5,-1 -2,-1.5938 -1.4062,-1.8125 -0.3126,-0.6875 0.2188,-1.3125 0.2812,-0.5937 0.5938,-1.3126 0.2188,-0.6874 0,-2 -0.5,-0.5938 -0.5938,-0.9062 -3.625,-4.5938 -2,-1.5 -2.5938,-3 -1.5937,-3.125 0.4063,-0.7812 0.6874,-1.5938 1,-3.125 0.5,-4 -0.5,-2.0938 -1.0937,-3.5 -10.1875,-13.5937 -8.125,-9.0937 -4.2812,-5.9063 -0.9063,-1.9063 -1.5937,-3.6874 -1.5,-5.5938 -1,-4 0.4062,-3.625 1.5938,-2.875 2.5,-2.2188 1.5,-1 0.9062,-2 -0.9062,-1.5 -2,-1.5 -1.0938,-2 -0.2188,-0.7812 0,-0.625 0.9063,-2.0938 1.0937,-1.0937 1.3126,-1 2.1874,-0.5937 0.5,-0.2188 1.9063,-0.6875 1.5937,-0.5937 1.4063,-1 0,-1.5938 -0.5,-2 0.5,-2.4062 1.5,-0.7188 1.5,-1 0.5,-1.5 -1.5937,-2 -2.0938,-1 -2.5,0.125 -2.625,-1 -3.875,-4 -12.3125,-11.625 -6,-5.875 -4.5,-4.625 -7.5,-7.5938 -2,-2.5 -1.0937,-2.5 -0.4063,-2.2812 0.4063,-2.8125 0.4062,-0.9063 0.6875,-1.5937 0.8125,-2.8125 -0.625,-2.5938 -1.5938,-2.5 -1.2812,-0.4062 -1.5,-0.2812 -6.4062,0 -2.2188,-0.5 -3.5938,-1.5 -5.0937,-2.8126 -8.3125,-5.2812 -5.0938,-4 -2.6874,-3.4062 -1.5938,-2 -1.125,-2.5 -0.5938,-2 0.5,-2.0938 0.9063,-3.125 -0.5,-2 -1.5937,-2 -1.0938,-1.5 -0.5,-1.875 -0.125,-2 -0.1875,-1.125 -0.3125,-1.375 -2.5938,-1 -2.5,1.5938 -1.4062,0.7812 -0.6875,0 -0.9063,-0.1875 -0.4062,-1.3125 0,-4.0938 -0.875,-1.6874 -1,-0.7188 -1.2188,-0.5938 -1.4062,1.4063 -0.5938,3.1875 -0.2812,0.8125 -0.5,1.1875 -1.625,-0.5 -0.5,-1.5938 0,-3 -0.6875,-2.5 -0.6875,-0.1874 -0.9062,-0.2188 -1.8126,0.7188 -0.6874,0.2812 -2.0938,1 -4.5,1.625 -8.2188,-0.125 -5.6874,-0.5 -8.5,-1.7812 -6.7188,-1.8126 -8.2812,-4.9062 -3.5938,-2.375 -1.625,-1 -1.1875,-1.5 -0.3125,-0.625 0.4062,-1.375 0.3126,-4.4062 -0.2188,-0.7188 -2.2812,-0.5 -2.2188,1 -2.0938,2.5 -1.5,0 -1.5937,-1.375 0,-2.125 0.5,-3.5938 -1.5,-1 -1.5937,-1.4062 -0.5938,-1 -0.9062,-1.0938 -1.5,-2 -2.0938,-0.5937 -1.5,1.0937 -2,1.0938 -1.5,0.5 -2.125,0 -2.375,-1.875 -3.2188,-3.2188 -1.0937,-1.5 -1.6875,-1.6874 -2.625,-3.5 -2.375,-3.3126 -3.9062,-4.5937 -3.7188,-4.5 -5.1875,-6 -1.1875,-1.5 -1.3125,-1.5937 -2.3125,-3.8126 -1.7812,-2.1874 -0.5,-0.7188 -1.0938,-1.7812 -1,-1.7188 -0.5,-1.0938 0.5,-4 1,-1.7812 2.5938,-3.5 4.4062,-2.5 3.5938,-1.7188 1,-0.6874 2.5937,-2.3126 2.0937,-2.5 2.0938,-2.1874 1.5,-2.4063 -0.5,-2.5937 -1.5938,-2.4063 -0.5,-0.1875 -2.0937,-0.4062 -3.1875,-0.9063 -3,-0.9063 -0.5,-1.1874 -0.5,-1.4063 2,-2.0937 2.5938,0 1.5,1.5 2.2812,0.4062 0.7188,-0.8125 -0.4063,-1.5937 -1.9375,-1.7813 -3470.125,0 z"
     id="rect10"
     inkscape:connector-curvature="0" />
  <path
	 style="fill:#9FAEC0"
	 stroke="#9FAEC0"
	 stroke-width="10"
	 transform="translate(0, 25)"
     d="m 400.1875,3428.1563 -0.375,1.9374 -0.625,4.4063 -0.7812,1.1875 -2.0938,1 -3,0.625 -4.625,0 -3.875,0.2812 -4.3125,0.3126 -2,1 -1,2 0.5,3.0937 1.5937,2.5 1.5,2.5 0.5938,3 0,4.0937 -1,3.5 -1.7812,4.7188 -2.2188,4.375 -1.5,3.125 -1.0938,2.375 -0.1874,4.125 0.5,3 0.4062,2.5938 -0.625,3.5 -0.875,1.5937 -1.8125,2.9063 -0.5937,2.5 -0.5938,5 0.875,4.0937 1.7188,2.6875 1.1874,1.9062 0.9063,3.5938 0.4063,3.625 0.4062,3.5 0.7812,9.5938 -0.4062,8.0937 -1.5938,7.5937 -1.6874,6.5 -2.2188,4.5 -1.5938,3.5 -0.5937,3.5 0.4063,1.2188 0.5,1.375 1.5,1.5 3.5,2.2188 2.5,2 1.6874,3 2.0938,4.5937 1,4.1875 0.125,4.4062 -0.5,3.5 1,2.5 0.5938,3.0938 1.2812,3.8125 0.9062,4.0937 1.5,4.5938 1.8126,7.125 -0.7188,4.5 -1.5938,4.5938 -0.7812,2.0937 -1.125,3 -1.5,5.4063 -1.0938,5 -0.1874,4.5937 0.9062,4.5 0.5,3.8125 2.0938,6.0938 3.5937,5.5 5.9063,8.7812 7.9062,9.8125 8.875,10.0937 4.2188,5.5 3.1874,2.0938 1.9063,0.9062 2,2 1.0937,1.8126 -0.5,2.7812 -2,3 -2,3.125 -1,2.5 0.5,3 1.5,2 2.5938,1.5 2.125,1.5 0.6875,0.875 3.5,4.125 1.5,2.0938 2,1.5 1.5,0.5 2.5,0.1874 2.5937,0.7188 1.0938,2.0938 1,3 0.625,4 0,2.5 -1.125,3.5 -0.094,3 0.7188,2.1874 1.1875,3 0.4063,3.5 0.7812,6.0938 -0.6875,7.125 1.0937,6.5938 0.5,3.5 0.5938,3.5 -1,3.0937 0.5,3.5 1.625,5.0937 1.375,4.7188 3.3125,5.7812 3,7 3.4063,5.7188 1.4062,3.5 -0.5,4 -1.2188,3.5938 -1.2812,2.5 -1.4062,3.5 -1.0938,2.5 -1,3.6874 0.7812,2.9063 0.4063,2.5 -0.4063,2.5937 -1.1874,3.5938 -2.7188,4.3125 -2.6875,4.5 -2.5937,5.9063 -2.5938,5.5937 -1.4062,4.5 -1.5938,2.5 -1.5,1.6875 -2.2188,2.8125 -1.0937,3.5 -1.6875,5.5 -1.2188,4.5 -0.1874,8.5 0.5937,6.5937 0.5,7.0938 0.5937,8.125 1.0938,7.5 0.3125,4.2812 -0.6875,5.0938 -1,0.8125 -2.625,0.5 -2,0.5 -1.5938,3 -1.0937,2.5 -0.8125,2.0937 -0.5,6 -1.5,4.2188 0.125,5 0,4.0938 1.0938,4.5 -0.4063,5.5 -1.6875,6 -2.2188,5.5 -2.6874,5.4062 -2.2188,5.0938 -1.7812,4.5 -2,4 -2.0938,3 -1.125,3.5 0.4062,4 1.9063,2.7812 2,2.9062 1.9063,4.0938 0.7812,3.5 0,5.125 -1,5.5938 -0.875,4.5 1.5,3.0937 2.5938,4.5 -0.5,6.0937 -1.4063,7.0938 -1,4 -1,3.625 -1,3.5 -1.5,7.0938 -2,6.5 -2.5937,2.9062 -3.7188,3 -4.2812,1.875 -3.4063,0.9062 -3.5937,1.9063 -2.0938,2.9063 -1.2188,3.5937 -0.2812,4 0.5938,3.5 1,3.5 0.7812,5.3125 0.8125,3.7812 1.5,4.9063 1.9063,6.5937 4.2812,10.2188 4.2188,10.7812 0.1874,4.9063 -1,5.6875 0,4.4062 -0.6874,2.2188 -2.3126,3.375 -2.5,3.125 -1.5937,2.875 -1.0937,4.5 -0.3126,4.3125 0,5.4063 0.5938,2.6874 2.125,3 2.1875,1.5 1.9063,2 1.5,3 1,3.2188 0.094,4.375 -0.4063,3.7188 -1.0937,3.4062 1.0937,3.5 1.5938,3.5938 2,1.5 2.7188,0.4062 5.0937,0.5938 4.5937,0.5937 3.4063,2.3125 2,3.5 2.9063,4.0938 3.9062,5 3.5,4.7812 2.375,5.2188 1.9062,5.5937 1,2.6875 3380.1563,0 -2.9375,-2 -3.625,-3.5 -5.5938,-2.5 -5.5937,-2 -4.0937,-1.5 -0.5,-1.5 -1.5,-1.5 -5.0938,-5.5938 -4.125,-4 -1.5938,-3.5937 0.3126,-4.0937 2.7812,1.5937 5.125,4 3.5938,2 4.5937,1 1,-6.0937 -0.5937,-6.5 0,-12.2188 1,-7.5938 -2.0938,-6.0937 0.5,-3.5 -3.625,-3.5 -3.5,-2 -4.5938,-1.5937 -3.0937,-3 -3.0937,-3.5 -2,-4.5938 -2.0938,-8.625 -1,-5 -3.125,-3 -3.5938,0.5 -5.0937,0 -8.0937,3.625 -6.5938,1.5 -8.2188,3.0938 -9.6874,1.5 -8.0938,-0.4063 -3.625,-3 1,-3.5937 4.625,0 7.5938,-2.0938 5.0937,-1 3.5937,-3.125 2.5,-3.5 3.5938,-0.5 2.5,0 1.625,-1.0938 3,-1.5 2.5938,-0.5 5.0937,0 2,0.5 5.0937,-1.0937 4.0938,-2 3,-1 2.625,1.5 1.5,3.5 1.5938,5.0937 0.5,5 0.5,4.5938 7.6874,8.125 3.0938,2 3.5,2.5 5.125,3 3.0938,1.5 2.5937,2 1.5,4.5938 0.5,6.5937 0.5937,5 1.5,6.0937 2.0938,11.0938 1.5,5.125 3.125,2 10.1875,1.5 4.0937,1 3,2 2.0938,6.5938 0.5,5 1.125,5.5937 2.5,3 7.1875,6.5937 2.5937,2.5 0.9063,0.5938 31.625,0 1.5625,-1.6875 4.625,-8.1875 1,-9.125 -2.125,-6.5938 -3.0938,-2 -5.0937,-2.5 -1,-2.5 -0.5,-6.0937 -1.0937,-7.0937 -3.0938,-4.5 -2.5,-3.5938 -3.625,-4 -1.5938,-6.125 0,-4.5 1.5,-5.5938 1,-6.0937 4.5938,-4.5937 5.625,-6.0938 3.0938,-2.5 3.5,-4.125 2.5937,-3.5 5,-8.5938 2.5937,-3.5937 1.5,1.5 2.5,1.5 3.0938,5.0937 3.125,6.5 3.0938,5.5938 0.5,4.625 -0.5,3 -0.5,2 0,3.0938 2.5937,6 2,3.5937 1.0937,2.5 0.5,12.1875 -3.5,4 -2.5937,5.125 -1.5,4 1,7.0938 1.0937,4.5937 1,3 2.5938,2.5 2.5,3.5937 3.625,2 3.0938,1 4.5937,1 3.5,2 7.1875,-2.0937 3.5,-0.5 7.7188,-5.5937 7.0937,-6.5938 2.5,-5.625 -1.5937,-8.0938 -3.5,-7.5 1.5,-7.0937 3,1.5 1.5937,5.5 3,4.0937 4.5937,-5.5937 5.5938,-9.0937 6.125,-9.2188 6.0938,-7.5938 8.0937,-8.5937 7.5937,-6.6875 2.5938,-5.5 6.625,-5.125 -4.625,-5.5938 -6.1875,-5 -5.0937,-11.0937 -1.5,-5.5937 -3.5938,-4.5 -5.125,-3.5938 3,-17.7188 0.5,-3 2.5,-1.5937 2,-1.5 5.125,-1.5 8.6875,-0.094 -10.6875,6.0937 -4,7.6875 -0.5,7.625 5.0938,5.5 3.5937,6.0938 3.0937,5 3,4.5937 2.5938,6 2.625,3.0937 4,1.5 2.5938,-1.5937 1,-0.5 2.5937,1 2.5,2.5937 4.0937,-1.5937 1,-6.0937 1.5,-7.5938 1,-2 2.5,-3 2.0938,-4.125 1,-2 0,-2.5938 -0.5938,-5.5 0.5,-5.0937 3.0938,-3 3,-2.0937 2.125,-1 10.6875,-6.5938 -1.5937,-4.125 -2,-2 -3.0938,0 -1.5,1.625 -2,4 -2.625,2 -4.5938,2.5938 0.5,-7.5938 -6.5937,-0.5 -0.5,-8.625 1,-7.5938 3.5,-2 1,-2.0937 3.0937,-2.5 -0.5,-3 -7.1874,2.5 -6.0938,-1 -10.2188,-0.9063 -4.0937,-3.0937 -5.0937,-5 -4.0938,-5.0937 -7.125,-1.4063 -4.5938,-0.5 -5.5937,0 -4.5937,-4.5937 -4.5938,-0.9063 -6.125,-1 -6.1875,-1 -7.5937,-0.5 -7.7188,0 -3,-0.5 -4.0938,0 -5.0937,1.0937 -4.0937,5.5938 -2,6.625 -2.5,7 2,5.0938 6.1874,5.5 1.5,3.0937 1.5938,5 1.5,6.0937 -1,6.5938 -3,4.625 -1,0 -3.0938,1.5 -3.5937,-1 -1,-2.5 2,-7.125 0,-7.5938 -1,-6.0937 -4.0937,-5 -4.5938,-3.0937 -4.125,0.5937 -3.0938,-1 -2,-0.5 -1.0937,-3.0937 3.0937,-5.5938 5.0938,-10 15.2188,-9.8125 5.5937,-3 5.0937,-2.0937 -3.0937,-7.5938 -4.5937,-3.5 -5.5938,0 -5.125,1.0938 -5.5938,1.5 -7.5937,2.5937 -5.0937,-2 -4.0938,-1 -5.625,-1.5 -8.1875,-3 -3.0937,-1 -2.5,-1.5 -8.2188,1 -5.0938,-3 -3.0937,-4.0937 1.5937,-5 -1.5937,-3.0938 -14.6875,6.1875 -5.125,1 -3.5938,-4 -1.5937,-3.5937 -0.5,-7 0,-4.0938 2.5,-3 3.0937,-1.125 1,-7.5938 5.0938,-3 5.125,2 5.0938,6 5.0937,2 4.0937,6.5938 2.5938,1.5 4,-1.5 3.625,2 2.0938,5 0,3.625 -1,6.5938 3,2 10.1874,-1.0938 7.2188,-0.5 8.5938,0 10.6874,-0.125 7.7188,0.5 8.1875,0.5 6.5937,0 7.0938,1.4062 8.2188,1 4.0937,0 4.5937,2 5.5938,1.5 5.125,0 2.5,1 3.0938,-0.5 1.5,-5.0937 3.0937,-2.5 5.5937,8 2.5938,2.5937 1.5,1 4.125,3 3,2 6.1875,2 5.0937,0 2,-1 1.5,0 3.0938,1.5 2.5,0.5 3.625,-0.5 1.5,-2.5937 0.5,-3 -0.5,-4.5937 -1,-6.5938 0.375,-12.625 -0.5,-10.5938 -2,-4.5937 -3.5938,-1.5 -2.5937,-2.5 -1.5,-1 -1,-4.0937 -0.5937,-3 -4.0938,-2.5 -4,-1 -4.125,-5.5938 0.5,-1.5 3,-2 -1.5,-9.125 -11.2812,-12.0938 -2.5,-2.5937 -0.094,-4.5 -2.5,-6.5937 -3.625,-6 -4.0938,-6.5938 -4.0937,0.5 -10.3125,-14.125 1.125,-2.5938 -4.125,-2.5 5,-6.0937 3.125,2 0.5,3.0937 4.0938,8.0938 5.1874,5 6.0938,2 6.125,-1.5 1.5,-2.0938 2.5938,-4 1.5,-1.5 3.0937,2 2,8.5938 -0.5,4.5 -0.5,6.125 1.5937,4 2,2.5938 3.0938,0.5 -1.5,4 2,4.0937 5.7188,7 2,3.5937 3.0937,6 2.5,4.5938 2.5937,3 2.5938,2.5 2,0.5 4.625,1.5 3.0938,-2.5 4.5,-5.5938 3.0937,-11.6874 4,-8.5938 5.5937,-12.2188 6.0938,-9.0937 5,-6.5937 3.625,-5.5938 4.0938,-3.5 1,-2.625 -1.5938,-4 -1,-5.5938 1,-3 4.0938,1.5 4.5937,-3.5937 2,-4 1,-2.5937 8.6875,-9.0938 6,-10.125 2.625,-5.0938 2.5,-5.5937 4.0938,-11.5937 1,-4.5938 3.5,-6.625 3.0937,-5.5938 3.5,-2.5 4.0937,-2.5937 2.5,-3.5 -4.0937,-3.5 -3.5,-4.0937 -6.6875,-6 -4.125,-3.0938 -4.5938,-2 -4.0937,0.5938 -5,5.5 -1.5937,0.094 -5.0938,4.5 -2,3.5937 0.5,3.5 1.5938,3.5938 0,2 -1.5,1 -1.5938,0 -2.5,-0.5 -3.625,0 -2.5938,-1.5 4.5938,-7.0938 1.5,-3 -5.5938,1 -4.0937,-1 -2,-1.5 -2.5937,-1 -4.5,2 -3.0938,7.0938 -2,6.625 -5.625,7.5938 -2.5,6.0937 -8.6875,8.0937 -12.1875,2.5938 -6.125,3.125 -12.1875,4.0938 -2.0937,0 -1,-1 3.0937,-4.0938 0.5,-3.5 1.5,-3.125 4.5,-3 4.5937,-3.0938 3.0938,-3 1.5,-3.0937 3.125,-2 5,-4.0937 5.5938,-3 3.5937,-8.2188 0.5,-5.5 -7.1875,-3.5 -3.625,1.4062 -3,1.0938 -1.5,5.625 -5.5938,3.5938 -4,1.2812 -8.1874,2.8125 -2.5938,-5.0937 -1.5,-1.5 -3.125,-4 -5.5938,-6.0938 -3.0937,-2.5 -8.6875,-3.5 -2.5,1 -4.125,2 1.5,-4 -1,-2 -3.0938,-2.125 -3.5937,-1 -4.5937,0.125 -3.5,3.5 -5.5938,9.1875 -2,4.5 -4.625,0.5 -4.5938,-1 -2.0937,-2.5 -1,-2.5 -2,-2.5 -1.5937,-4.0937 0.5,-3.5 0.5,-2 2.5937,-1.0938 4.5937,2.5 2.5,0 4.0938,-1 4.625,-3 3.5,-3.125 4.0938,-1.5 5.0937,0 4.5937,0.4062 5.0938,2 0.5,-11.0937 -1.5938,-7.5937 2.0938,-6.0938 4,-3.5 3.625,1 1.5,3.5 0.5938,7.5938 -0.5,4.5937 0,3 1,2.5 1.5937,2.0937 4.5,-1.5937 4.5937,-3 11.7188,-7.1875 7.1875,1.5 4.5937,1.5 2,4.0938 1.5938,3 6.125,4 4.5938,-1 -1.0938,-7.5938 -1,-4.5 -1.5,-5.625 -0.5,-2.5 0.5,-1.5938 3.5,-1 2.5938,5.0938 1.5,5.5 2.5937,7.125 5.0937,2 11.7188,-0.5 -2.5,-8.625 0.5,-0.5 1.5,-2.0938 2.0938,1 2.5,2.0938 4.0937,0.9062 5.5937,1.5 4.5938,-1 2.5,-2.5 4.125,-5.0937 5.0938,-6.0937 1.5,-5.0938 2,-3 -2,-11.125 2,-2.5938 0.5,-5.5 -2.5938,-7.0937 -13.8125,-11.0937 -3.5937,-3.5 -5.0938,-2 0.5,-5.0938 -2.125,-4 -5.0938,-5.125 -10.1874,-2 -1.5,-5 0.5,-3 5.5937,0.4062 10.1875,6.0938 4.125,3 4.0938,5 3.0937,4.125 2.5,4 3.0937,1 2.5938,1 2,-1.5 1.5,-2.5 1.5,-1.125 2.625,1.5 3.0938,2.625 2,2.5 3.0937,4.5 2,4.0938 2.0937,4.5 1,4.0937 1.5938,5.5 1,5.0937 -2,6.5938 -3.0938,5 0.094,8.125 2,5.0938 1.125,4.5 5.5938,9.0937 3.5937,1 6.5937,-5.5937 6.0938,-10.0938 2,-6.625 3,-6.0938 2.625,-5.5937 2,-9.5937 4.5,-8.0938 3.5938,-6.125 3.5937,-6.5938 3,-7.0937 2.5,-6.5 0.5,-6.0937 -3.0937,-2 -4,0 -3.0938,-3.5938 -1.5,-4 2.5,-1.5 5.5938,-0.5 0.5,-3.625 1,-6.0938 1,-6.5937 -1,-6 -1.0938,-7.0937 -1.5,-6.0938 -2.125,-7 0.5,-6.125 2.5,-10.0938 -1.5,-3.5937 -4.5937,-2 -6.6875,-1 -5.0938,1.0937 -5,3.5 -1,5.0938 -7.7188,0.5 -7.5937,2.125 -4.5937,3 -7.7188,5.5938 -1,0.5 -2,1.5 -4.0938,6.0937 2.5938,3.5937 7.125,0.4063 8.1875,0 4.5937,-1 2,0 1.5,1.5 -3.5,4.0937 -4.0937,2 -6.5937,-1 -5.0938,0 -3.625,1.0938 -5.0938,3.5 -3.5,2.625 -0.5,0.5 -8.1874,0 -7.2188,-1.5 -1.5,0.5 -2.5,-0.5 -8.6875,0.094 -5.0937,2 -4.0938,0 -7.625,-0.5 -6.1875,-0.5 -4.5937,-1.5 -4.5938,-3 -4.125,-3.5 -1.5,-6.5938 -0.5,-3 5.625,-4.125 12.1875,-0.5 3.5937,-2.0938 5.0938,-4 4,-1.5937 6.2188,-1 4,2 7.6874,2.5 1,0 8.2188,4 5.5938,-2 4.0937,-4.5937 4.5937,-5.0938 2.5,-4.5 3,-6.625 0.5,-7.0938 -2.5,-3.5 -5.1874,-5.0937 -11.2188,-7 -6.6875,-4.5 -5.0937,-2.5937 -3,-3 0,-4.5 -2.5938,-2.5 -5.625,-5.0938 -4.0938,-2.5 -6.6874,-2 -3.5,-2 -5.0938,0.5 -4.125,-0.5 -5.6875,-2 -5.5937,-3.5 -3,-1 -4.5938,-3 -1.625,-6.125 -1,-6 1.5,-7.5938 0.5,-6.5937 -1.0938,-6.0937 -4.0937,-3.5 -7.5937,0 -8.7188,1.0937 -7.6875,-1 -5.5937,-1.5 -4.5938,-4 -5.125,-12.6875 1,-5.5 5.125,-4.125 -1,5.125 1.5,5.5 4.5938,6.5938 2.0937,2.5 9.6875,1.5 14.8125,-2.5938 6.0937,1.5 6.5938,4 4.125,4.5 1.0938,5.5938 -1.5,14.6874 2,2 4.5937,4 3.5937,6.5938 5.2188,1.5 5.5938,1 5.0937,1.5 4.5937,1 10.2188,3 1,1 2.0938,1.5 6.0937,4 10.1875,7.625 11.8125,4.5 15.3125,5 7.0938,-1.625 1.5,-5.5 1,-6.0938 -1.5,-5.5937 -6.2188,-6.5 -5.0938,-11.6875 1.5,-11.625 -2,-3.5 4,-1.5938 2.5938,-4.5 -2.5938,-5.5937 -2.5937,-3 -2,-3 -1.5937,-4.5937 2.5937,-4.5 5.5937,5.5 1,2 1.0938,2 2.5,1 2.125,3.5937 0.5,4 1,4.5937 -1.5,4 -2.5,5.5938 -1.5,4.625 -1,6 2,2.5938 3.0938,5 5.0937,2 1,0.5 3.5937,2 4.0938,8.0937 3.625,6.0937 2,5.5 4.6875,10.0938 5.0938,1 3.5,-2.5 8.2187,-7.6875 7.5938,-8.5937 6.5937,-7.0938 7.0938,-6.625 5.5937,-6.5938 6.7188,-3 3.5,-2.0937 9.1875,-4.5937 7.0937,-4 5.625,-8.2188 3.5938,-8.5938 3,-7.5937 2,-7.5937 3.5937,-7.0938 3.5,-7.625 3.0938,-5 0,-3.0938 -3.0938,-2.5 -4.0937,-4 -5.0938,0 -2.5,5.0938 -4.125,-0.5 -4.5937,-2 -3.5938,-3.5938 -2.5937,-3.5 -4.0938,-1.5 -5.125,-1.5 -4.0937,-3 -1,-2 -1,-1 -1,-1.5 -2.5938,-3.0937 -1.5,-2 -1.5937,-1.5 -2.5,-2 -2.0938,-1.5 -5.625,-2.5 -12.1875,-1.5 -10.8125,0 -7.0937,-0.4063 -5.5938,-0.5 -1.5937,-1 -2.5,-1 -3.0938,-3.5937 -5.625,-3 -4.5938,-1.5 -5.5937,-5 -1.5937,-5.0937 -0.5,-4.5 -2.0938,-6.0938 -2.7812,-8.1562 -3729.3438,0 z m 3740.3438,0 0.9687,2.0312 6.6875,13.625 5.125,6.0938 6.0938,4.5 6.1874,3 7.5938,0.5 7.2187,-3.0938 4.5,-3 5.5938,-2 8.6875,4.5 5.625,-0.625 4.0937,-9.0938 -2.5937,-8.0937 -5.625,-6 -6.5938,-1.5 -6.6875,0.5 -7.5937,2.0937 -10.2188,-2 -2.1875,-1.4374 -26.8749,0 z m 76.7187,0 0.75,0.75 3.5937,4.0937 2.5938,6.5 6.125,-0.5 5.0937,-1 3.0938,0.5 2.5,-0.094 15.4062,2 6.0938,2.5 9.1875,6.5937 5.625,-0.094 6.0937,-2.5 4.0938,-1 4.5937,1 0.5,3.5 0.5,6.0937 6.2188,1 4.0937,-2.0937 4.5,-5.5938 6.0938,-8.125 6.0937,-6.5938 6.0938,-4.5 2.9375,-2.4374 -111.875,0 z m -0.6563,27.0312 -2,2.125 -1,3 3.5,4 3.0938,2 2.125,1.5 3,1.5938 1.5937,0.5 2,2.5 1,1 1,0.5 2.5938,-0.5 1.5,-1 2.5937,-4.5938 2.5,-6.125 0,-3 -2.0937,-1 -3.5,0.5 -2.5938,1 -7.5937,0 -2.625,-1 -2.5,-1.5 -2.5938,-1.5 z m -143.2812,203.4062 -3,2.5938 -1.5,3 -2.125,2.5 -3.5,0.625 -4.0938,0 -6.0937,-1.5 -3.0937,0 -4.5938,-1.5 -2,1.5 -0.5,2.5 0,1.0938 1,2 4.5938,1.5 4.5937,0.5 3,0.5 4.5937,-0.094 4.5938,0 2.625,0.5 3.5,-1 4.0938,-1.5 2.5937,-1.125 10.1875,0 4.125,1.5 4,1 2.5938,0 2,-5.5938 -1.5,-1.5 -3.5938,-1 -5.625,-1 -2,0 -2.5938,-0.5 -3.0937,-1 -3.5,-1.5 -2.0937,-2 -3.5938,-0.5 z M 4034,3794.4063 l -6.5937,2 -2.5938,2.5937 -3,1 -3.625,1 -3.0938,1 -2,1.5937 -2.5937,1 -8.5937,1.5 -1,1.5938 2.5,2.5 7.6874,6 5.5938,3 4.625,0 5.0938,-4.5938 3.0937,-3 5,-5.5937 2.0937,-3 1.5,-3.0937 -1,-3 -3.0937,-2.5 z m -174.6875,216.2812 -3.125,1 -1.5,5.125 -3.5938,4 1.0938,7.5938 0.5,2 3,-0.5 6.2188,-3.5938 3.5,-1.5 5.5937,0 3.5937,3 1.5,3 0.094,3.5938 0,3 2.5,1.5 2.625,-1.5 0.5,-3.5 1.5,-5.5938 -2.125,-2.5 -3,-0.5 -2.5938,-1.5 -3.5937,-3.125 -2,-2.5 -1,-1 -3.5937,-1 -3.5938,-2.5 -2.5,-3 z m 51.5938,33.2188 -1.5938,1.5 2.0938,3 5.5937,2 3.0937,-1.5 1.5,-2.5 -2.5937,-1.5938 -5.0937,-0.9062 -3,0 z m 47.4062,4.2812 -2,0.625 -4.625,1.5 -1.5,2 0,5.0938 3,0.5 4.625,1.5 5.5938,-0.5 1.0937,0 2,-1.0938 1.5,-1 1.5937,-1.5 -2.5937,-4.125 -4.0937,-1.5 -4.5938,-1.5 z m 40.2812,4.4062 -2.5,2.0938 -1.5937,2.5 -2.5,2.125 0,3 5.0937,-1.5 1.5,-2.125 1.5,-4 -1.5,-2.0938 z m 18.9063,15.7188 -3,1 0,4 2,6.5938 4.0937,4.0937 3.0938,2.5 3.625,0.5 1.5,0 0.5,-4.0937 -11.8125,-14.5938 z m 16.1875,111.2812 -2.5938,0.5 -3,1 -2.5937,2.5938 0,3 1.5937,1.5 2.5,-0.5 1.5,-1.5 2.5938,-1.5 1,-4.0938 -1,-1 z M 3890,4196.9063 l -4.0937,3 -1.5,3.5937 -2,5 -5.0938,3.5937 -2.625,2.5 -1,4.0938 2.125,3.5 0.5,3.625 4.0938,1 4.5937,4.5 2.5937,8.0938 2,2.5 2.5,-3 -0.5,-6.0938 2,-4.125 2.5938,-3 2,-5.0938 0.5,-5.5937 -2.0938,-10.0937 -3.0937,-6 -3.5,-2 z m 19.9063,26.6874 -1.5,0.5 -2.5,1.5938 -1.5,4 -2.0938,4.125 0,1.5 1.0938,2.5 2.5,-1 1,-2 0,-6.125 3.5937,-1 1.5,-2.5938 -2.0937,-1.5 z m -95.2188,29.2188 -2,0.094 -2.5938,1.5 0.5938,6.5937 1.5,3 1.5,2 2.125,2 4.5938,5.0937 8.0937,3.5 2.0937,2 3,-0.5 0,-5.0937 -2.5,-8.0937 -3.0937,-4.5 -3.5937,-2.5 -6.0938,-2.5 -3.625,-2.5938 z m 102.625,30 -3.3125,2.375 8.5313,0 -0.125,-0.375 -2.5938,-1.5 -2.5,-0.5 z"
     id="rect12"
     inkscape:connector-curvature="0" />
  <path
	 style="fill:#9FAEC0"
	 stroke="#9FAEC0"
	 stroke-width="10"
     d="m 438.0937,4285.1875 0.9063,2.4062 2.8125,5.5 2,3.3126 2.5938,2.2812 2.4062,3.4062 3.7812,3.5938 2.5,1.5 2.0938,1.5 2.125,3.5 2.7812,5.5 2.4063,4.625 1.9063,5.0938 1.1874,4.5 -0.5,4.0937 -0.5,4.4063 0.5938,3.6874 0.125,2 0.375,0.9063 2.125,4.6875 4.0938,7 2.1874,4.5 2.9063,4.125 1.5937,2.5 1.8126,4.1875 0.9062,4.0937 0.375,4.5 0.4062,4.5938 -0.1874,6.4062 0.5937,6 2.5937,6.9063 2.5938,7.8125 1.125,6 0,8.1875 1.5938,6 0.5937,5.0937 -1,5.5938 -1.5,5.125 0,5 1.0937,3.0938 2,2.5 7.7188,1.9062 4.5938,1.5 3.0937,2.5 3.0937,3.375 1,3 0.5,4.625 -1,4.5 -1,3 -1.5937,6.0938 -0.5,6.5937 1,5.5937 2.5937,2 4.4063,2.2188 2.1875,1.375 2,3 1,3.125 3.125,5.5 9.0938,14.2812 6.7812,9.5 4.125,4.5 2.5938,3 3.7812,3.3126 0.8125,1.1874 0.5937,2.5938 0,5 -1.5,4.125 -1,3.2812 -0.5,3.5 1.5938,2.3126 3,2.7812 0,3 -0.5,2.625 -1.5938,3 0.2188,2.7812 1.0938,3.5 2.2812,2.3126 3.9062,4.7812 0.5938,2.3125 -0.5,2.0937 -1.5938,1.2188 -2.5,3 -2.5,2.7812 -2.0937,3.3126 -0.5,3.0937 -0.4063,3.5 0.5,3.5937 0.5,4 1.5938,3.0938 2.125,4 1.7812,4.3125 0.5,4.0937 -1,5 -0.094,6.0938 1.0937,2 2,6.125 3.0938,4.7812 3.5,7.4063 0.5,4.0937 -0.5,3 -0.094,4.0938 4.0938,15.2188 2,3.5 2.625,0.5 2.375,-0.4063 6.625,-1.5937 3.0938,0.5 2.0937,1.5 3,3 2.0937,4 0.5938,4.0937 2,5.5 3.125,3.5937 8.6875,8 2.9063,3.4063 6.0937,12.0937 2.9063,0.3126 3.1874,0.2812 55.4063,3.3125 221.6875,13.3125 166.625,9.6875 15.2812,0.8125 95.5938,5.375 96.5,5.9062 92.8125,5.5 73,4.3126 52.9063,3 13.2812,1 186.4062,13.4062 32.5938,2.2812 93.625,6.5938 145.375,9.625 99.9062,6.375 46,3.2188 6.5,0.4062 2.7188,-0.125 2,0.625 2,0 151.1875,9.2812 139.0937,8.5 286.0938,16.7188 4.125,0.1875 100.5938,6.1875 75.9062,4.625 31.5938,1.875 12.2812,0.625 39.625,2.1875 113.0938,7.0937 76.4062,4.7188 -2,2 -5.625,4.5938 -2,3 -1.6875,3.0937 -1.5,4.5 -1.0937,4.0937 -2.0938,5.5 -1,3.5938 -0.5,3 1,3.625 1.5,3 1,1.5938 2.5,2 2,3 1.5938,1.5937 1,3 0.094,7.0937 2,4.5938 3.0937,4 3.5938,3 3.5,3 4.625,4.625 4.5938,5 4.6874,11.6875 1,3.8125 -0.094,5.5938 -1.5,4.0937 -1.0937,4 -0.5,3.5937 0,5 0.7812,5.3126 0.625,6.9062 0,4.5938 -1.125,5 -1.5,5.5937 -1.0938,4.5937 -0.5,4.5 0.2188,5.3126 0.5,6.5937 1.6875,4.4063 0.5,3 0.9063,4.7812 1.0937,1.8125 0.5,1.5 1.5,3.0937 1.5,2.5 1,2.5938 0.5,3 0.094,2.2188 1.9063,1.4062 1.5937,0.5 2,1.5 1,3.0938 0,1.5 0.5,3.5 1,1.5937 1.5,0.5 2,0 1.5938,1 1,2.5937 1,1.5 2.3125,3 2,1 0.5937,2 0,2.0938 0.5,1.5 1.5,0 2.0938,0.5 2,2 1.625,1.2188 2,0.7812 2,0.5 4.0938,0.7188 3.5937,-1 2.0937,-1 3.5,-1 3.0938,-0.4063 2.5,-0.5 2.125,-2.0937 2,-1 2.0938,0.094 5,1 2.5,-1 2,-0.5 2,-1.0937 4.5937,0 4.0937,1.5 2.2188,-0.3126 2.375,-0.6874 2,-1.5 1.9062,0.1874 2.2188,0.2188 3.1875,-0.2188 3,1.0938 1.5937,1.8125 1,0.6875 5,3.125 9.7188,0 1.5,0.5938 2.5,0.4062 2,0 3.0938,-1 2,-0.5 1.5,0 1.5937,2 0.5937,0.6875 0.9063,1.3125 2,-0.5 1.5937,-0.8125 1.5938,-0.5 1,-0.5 4.625,0 5.5938,-3 1,-0.5 2.0937,-2 2,-2.5 4.5937,-4.5937 1.5938,-2 2,-5.0938 0.125,-3.5 -0.5,-3 -1.5,-5.125 -1,-4.5938 -2,-5.0937 -1,-4.5937 -0.5,-0.5 -1,-4 -1,-3.0938 0,-3 -0.5,-2 0.5938,-3.125 1.2812,-1.875 2.2188,-1.625 2.0937,-2 1.5,-3.0938 0,-1.5 0.5937,-3 -1.5,-6.5937 -2.5,-4.5937 0,-3 4.0938,-4.0938 2.125,-2.5 0.375,-2.5 1,-2.625 0,-2 0.5,-2 2,-5.5938 1,-2 2,-2.5937 1,-6.0937 1.5,-3 1.125,-1.5 1,-1.0938 1,-2.5 0.5,-3 0,-1.625 -0.5,-1.5 0,-2 1,-2 0,-2.0938 0.5,-2.5 -0.125,-2.5 -0.375,-3.5 -0.125,-6.1874 0.5,-3 0,-6.5938 1.5,-6.125 -0.5,-2.5 -1.5938,-2.5938 -1,-2 -1.0937,-6.0937 1,-9.0937 3.5937,-10.2188 0.4063,-2.5 1.8125,-6.375 0.6875,-6.3125 1.0937,-3 1,-2.5937 0.5,-2.5 -0.094,-9.0938 -1,-5.125 -0.5937,-7.5938 -2.5,-6.0937 -3.5938,-11.0937 -4.625,-5.5938 -2.0938,-1 -2,-1.5 -1.0937,-1.5 -1,-3 -0.5,-2.625 -0.5,-4.5 -3,-3.0938 -1.5,-2.5 -1,-2.0937 -0.5,-2.5 -0.5,-3 -1,-1.5937 -3.0937,-3 -1,-2.5938 -1,-4 0.094,-4.125 -3.0937,-6.0938 -5.5,-6.5937 -1.5,-4.0937 1,-5 0,-2.5938 0.5937,-2 -0.6875,-2.8125 -2.8125,-6.8125 1.5,-5.5938 7.1875,-12.5937 0.625,-1.5 -1,-2.0937 -1,-1.5 -0.5,-1.3126 2.5,-5.0937 2.0938,-2.1875 1.5,-2.5 0.5937,-2.625 -1.5,-9.0938 -1,-4.5937 -1.5,-3.5 -2.5,-3.5937 0,-3 0.5,-4.5938 2.0937,-6 0.094,-12.7188 1.5,-2.5 1.625,-1.5 1.5,0 2.5,2.5 1.5938,0.5 1.2812,-0.6874 3.3125,-1.8126 3.4063,0 2,-1.5 1,-1.5 1.0937,-2.5937 3.5,-4.5 1,-2.5937 0.5,-3 -1,-2.5 -2.5937,-3.5938 -2.5,-2.5 -2.0938,-3.5 -1.5,-4.625 0,-2.5 1.5,-2.0938 3,-3 4.0938,-2.0937 3.5,-1 3.0937,0 3.5937,1 3,1 2.5938,2.5 2.5,1.8125 3.125,3.5938 4.5,4.0937 5.0938,1.5 3.0937,0 3.5937,-0.4063 3.0938,-2.5937 1.5,-2 1.5,-3.0937 0.5,-3.5 1.5,-3.0938 1.625,-3.5 4,-5.625 -1,-5.0938 -1.625,-2.5 0,-5.5937 1,-5.5937 1,-2.5 2.5,-3 3.625,-3.5938 3.5,-2.3125 3.0938,-1 3,0 2.5937,-0.5 2,-1 2.5937,0 1.5,1.5 0.5,2.0937 0.5938,2.0938 1.9062,1.9062 5.5938,1.5938 7.625,1.625 8.2812,0.875 3.0938,-0.5 2,-1 1,-1.0938 0,-2 -1,-2.5 -1,-1.5 -0.5938,-2.5937 2.5938,-2.5 2,0 2.125,1 1.5,2 3,0.8125 2.0938,1.6875 1,1.3125 0.5,2.5938 0.5937,3.1874 1.4063,2.4063 1.5,1.5 2,1 1,2.0937 0.5,2.5 2.7812,7.7188 1.2188,0.875 2.0937,0.625 1,-0.5 2,1 4.5937,4.5938 1.4063,0.9062 2.5,0 2,-1 3.0937,-0.5 4.0938,0.5 7.625,4 1.6875,0.2812 1.5,-0.5 1.5,-1 3.0937,1.5 0.5,1 1.4063,1.7188 2.0937,0.5 3.0938,-2.125 1.5,-1.5938 2.625,-0.4062 1.5,1.5 1,1.5 1.5,0.5 1.5,0 1.5,-1.5 2.0938,-1 4.5,0 5.0937,0.5 3.0937,1.5 3.0938,3 2.5,3.5 1,1 1.625,-0.6875 1,-1 2.5,0 2.5938,2 4,5.0937 1.5,3.0938 0.5,3 0,3.125 1.5,2.5 0.5,2 1,2.0938 2,1.5 2.5937,-0.5 2,-1 1.5937,-3 1.2188,-3.5938 0.5,-3.5 1,-2.625 2,-1 2.5938,-0.5 2,1 2.0937,0.5 2.5,3 5.0937,3.625 3.0938,1 2,1 3.9062,0.1875 2.2188,1.3125 0.875,1.2812 -0.094,1.5 0.3126,2.2188 5.2812,3.375 2.5,2.625 2,3 2.125,2.5938 2,1.5 6.0938,2.0937 4.5,-0.5937 3,-1 2.5937,1 4.0937,0.5 2.5938,-0.3126 1.4062,-0.6874 1.3126,-0.5938 1.2812,-0.5 3.625,1 2.5938,1.2812 4,3.0938 2.0937,0 2,0.5 5.5937,2.625 3.0938,0.5 2.5,-0.4062 1.5,-1.0938 1,-1.5 0,-1.5 -1,-2 -0.875,-1.5 -2.125,-0.625 -2.5,1 -1.5938,1 -1.5,0.5 -1.5,0 -1.5,-0.5 -0.5,-1.5 0.5,-2 2.5938,-2.0938 3,-1 2.4062,-0.4062 3,-1.5938 3.5938,-1.5 2.625,0 3,1 1,2 -1,2.5938 -3,5 1.5,1.625 2.0938,0.5 2,-1.125 1.5,-1 2.5937,-0.5 2,1.5 0,2 -1,3.125 -0.5,3.5 0,2.0938 1.5937,3.5 5.5938,3 2.4062,-1.2188 2.0938,-2 2,-1.5 2.625,0 1,1 2,0 1,-0.5 2.0938,-1 0.5,-2 1,-1 2.5937,-1.5 1.5,0.5 1,1.5 0.5,2.5 0,5.625 2,2.5938 5.0937,2.5 1.5,2.0937 1.7188,1.9063 1.2812,1.5937 2.3126,0.9063 1.5,-0.5 1.5,-1.5 0.4062,-2.0938 -5.5,-3.5 1.5,-6.5 4.0938,-2.625 10.1874,1.5 -0.5,5.625 1.5,2.5 4.5938,-3.125 8.2188,0 7.0937,1 4.0937,-1 -5.5937,-1.5 -0.5937,-4.5938 -4,-1 1.5,-3 5.0937,0.4063 0.5,5.5937 6.5937,2 -0.5,6.5938 3.0938,1.5 1,4.625 1.625,0.5 2,-2.125 4.5938,-2 6.0937,1 5.0937,6 3.0938,-1.5 -1.0938,-3 1.5,-5.5938 3.0938,-3.0937 2,-6.5937 4.625,-3.5 -0.625,-5.5938 -2.5,-6.125 -8.6875,-1.5 -0.5,-4.5 3,1.5 9.6875,2.5 1.125,5.125 1.5,6.5 -2.5,6.0938 -3.625,3.0937 1.125,2.5 5.5938,-1.5 7.5937,-0.5937 5.5937,-1 8.0938,-1.5 2.125,-0.5938 1.5,-3.5 -0.5,-8.125 -2.125,-7.5938 -0.5,-6.5937 2,-1.5 2.625,1.5 2,0.5 3,-2.0937 0.5,-8.5938 -3.625,-13.125 -1,-7.0938 -0.5938,-6.0937 -2.5,-4.0937 -5.0937,-3.5 -7.1875,-2 -6.125,-6 -4.0938,-5.0938 -5.5937,-5.5 0.5,-8.2188 2,-5.5 5.0937,-4.0937 7.5938,-1.0937 0.5,-5.5 -3.0938,-4.0938 -7.0937,-1 -4.5937,0.5938 -4.0938,2 -5.625,1 -4.5,-2 -1.5938,-4.5 -0.5,-5.0938 -1.5937,-3.5 -11.1875,1.5 -5.125,-0.4062 -2,0 -6.1875,-14.2188 2.5,-12.6875 -6.5937,-0.5 -4.5938,3.0937 -0.5,4.0938 0.094,2.5 -1.5,9.125 -4.0938,-2 -2.125,-2.5 -1,-5.625 0.5,-4 2,-5.5938 18.8125,-5.6874 5.5937,2 -0.4062,7.5937 -2.5938,8.6875 1.5938,8.625 2.625,3 3.5,-1 4.0938,-1.125 6.0937,-1 4.5937,-6.0938 8.5938,0.5 5.2188,7 3.5,2.0938 4.5937,2.5 3.0937,0 5.5938,-0.5938 3.625,-0.5 2,2.5 6.5938,4.5938 3.5937,-1.0938 2,-1.5 0.5,-1 -1,-5.5937 -2.5937,-3 -4,-4 -6.7188,-8.0937 -7.1875,-8.0938 -6.0937,-7.625 -2.0938,-6.5 1.5938,-7.0938 2,-4.0937 5.0937,-4.0937 5,-2 2.0937,-5.0938 4.5,-5.625 8.2188,-2.5938 4.5938,-4 4,-6.0937 3.5937,-4.0937 -0.5937,-5.0938 6.6874,-2 6,-6.625 4.5938,-5.5938 9.125,-12.6874 -2,-3.5 -1,-2.5938 -0.5,-2 -1.125,-2.5 -1.5,-7.625 -3.0938,1.5 -1,-0.5 -4.0937,-3 -4.5937,-2 -6.0938,-0.5 -4.125,2 -3,7.125 -4.0938,5.5938 -8.0937,2.0937 -9.1875,-2.5 -6.625,-2 -2.0938,-0.5 -3.5,-0.5 -4.5937,0 -2.5937,-4 0,-3.5937 -2.0938,-5 -2.5,-2 -12.2188,0 -4.0937,2 -2.5,2.5937 -3.5937,2.5 -3.5938,3.5937 -2.5,3 -3.125,-2.5 -5.5938,2.0938 -7.0937,-0.5 -6.5937,-1.5 -3.0938,-1.5 -4.125,-3 -3,-2.5938 -5.0938,-0.4062 -4.5937,-1 -4.5937,-0.5 -3.5938,-1.5 -3.125,-2.5938 -3.5,-5 -2.5938,-4.5937 -7.0937,-0.9063 -6.6875,-1 -4.625,0 -3,2.5 -0.5,5.0938 -3.5938,5.125 -4,-0.5 0.5,-4.125 1.5,-5 0,-4.0938 2.5,-2.5 4.0938,-3.0937 6.625,-0.5 5.0938,1 6.0937,0 5.0937,0.4063 3.0938,0.5 2.5,1 4.125,5.0937 3.5938,4 2.5,2 5.0937,1 4.0937,-1.5 3.5938,-0.5 4.125,-0.5 3.5,-0.5937 4.0938,-2.5 3,-1.5 2.0937,-2.5938 3,-2 3.5937,-1.625 2.5,0.5 6.7188,1 5.5938,0 4.5937,-1.5 6.5937,-2.5938 7.0938,1.5 5.125,3.5 3.5938,3.5938 5.5937,6.5 4.5937,4.125 8.7188,0.875 1.5,-2 1.5,-4.5938 -1,-7.5937 0.5,-6.5 4.0938,1.5 0.5,3 1,3 0.5,3.5937 2.5937,0 3.5,-3.5937 1.5937,-2 2,-1.5937 3,-2.5 3.0938,-3 3.625,0.4062 5.5,-5.625 1.5938,-3.5 1.5,-3.5938 2,-3.5 1,-4.0937 -2,-2 -12.8126,7.6875 -4,0 -3.0937,-1 -2.5,-2.5 -2.0937,-3.5938 0.5,-6.5937 0,-7.0937 -2.5938,-6.5 -6.125,-3 -4.5938,-2.0938 -4.5937,-3 -5.1875,-7.625 -2.5,-4.5 -5.125,-2.5 -3.5938,-2.5 -3.5937,-1.5 -4,-1 -4.0937,-1 -2.0938,-2.5938 -2.5,-3.5 -1.125,-5.0937 1,-4.5 0.5,-3.0937 4.125,2.0937 3.0938,4.5 4.0937,4.5 2,0.5 12.3125,0 9.0938,1.5 6.1874,4 2.5,4.5937 1.5938,7 1.5,4.5938 0.5,3.5 2.125,2.625 5.5938,1.5 6.0937,-2.625 4.5937,-4.0938 -4.0937,-7 -6.1875,-5.5937 -8.125,-5 -3.0938,-3.0937 -1.5,-2 -1.5937,-3 -3,-4 -9.6875,0 -3.625,-6.0938 -4.0938,-3 -3.5937,-2 -2.5,-3 0.5,-3.625 0,-4 -0.094,-3.0938 -1,-4 4.5937,-0.5 5.0937,-3.0937 0.5,-5.5937 0.5,-2.5 -1.5937,-6.0938 -4.5937,-6.5 -1.6563,-1.125 -3380.1563,0 z m 3416.4063,0 5.1875,3.4062 4.625,3.5938 5.5938,1.5 6.0937,-1.5938 5.0937,-1.5 5.0313,-5.4062 -31.625,0 z m 59.5,0 -0.3125,0.2188 -2,4.5 -2,4.0937 -0.5,4.0937 -0.5,0.5 -1.0938,2.5 -1.5,2 -2,1.5938 -3.5937,1.5 -3.5,1.5 -2.0937,2.125 -1,2.5 0,4.5938 5.1874,15.0937 3.5938,9.0937 2.625,8.5938 2,4.625 1,5.5938 0.094,6 -2.5938,5.5937 -0.5,3.0937 -2,6 -1,2.5938 -1.5,4 -2.5,5.125 -0.5,4.5938 1.5,4.5 2.5938,0.5 6.5937,0 1.5,-2.5 1,-3.0938 3,-6.625 2.0937,-9.5938 5,-12.6874 3,-10.5938 2,-7.625 2.0938,-8.1875 1,-8.5937 0.9062,-9.5938 -0.5,-9.625 -1.5937,-11.1875 -2.5,-8.0937 -2.9687,-8.7188 -8.5313,0 z m -77.8125,5 -3,1.125 2,5.5 0.625,4.5938 0,2.5 1,4.5937 -0.5,4.5 -4.125,2.5937 -4,1.5 -1.5,2 2.5,1 2.625,1.0938 2,2.5 0,9.125 3.0938,0.5 4.0937,-1.625 2.5,-1.5 4.0937,0.5 0,3 1.5,2.625 4.0938,1 4.625,0 1,2.5 5.6875,4 2.5,3 1,1.5938 -0.5,4.5 -1,4.0937 2.0937,3 1.5,4.0937 3.0938,3 3.125,0.5 6.0938,3.5 3.5937,1.5 1.5,1 2,1 2.0937,1.5 2,0.5 3.0938,0 2.5,-2.5 0.5,-2.0937 0.5,-8.5937 -1.5938,-12.5938 -2.5,-9.125 -3.5937,-9.0938 -1.5937,-2.0937 -4.0938,0.094 -3,3 -3.125,-2.5 -2,-6.0937 -3.5938,-5 -3.5937,-3.0937 -3.5937,-1 -3.5,-0.4063 -4.5938,-0.5 -3.125,-6.5937 -4.0938,-6.5938 -1,-1 -6.1874,-5.5 -5.5938,-2.5 -3.625,-2.625 z m 38.625,95.125 -4.625,0.5 -4.5938,0.5938 -6.5937,1.5 1.5,3 -2,13.1874 2.5937,1.5 19.3126,-11.6874 -1,-6.0938 -4.5938,-2.5 z m -96.7188,52.0938 -5.0937,0.5 -2,2 -2.5,1.5 -1.5937,3.5937 -0.5,4 2.0937,3.0937 2,2 3.0937,-0.5 2.5,-1.5 2.5938,-2.0937 2,-4.5937 1.5,-2 1,-2.5 -5.0938,-3.5 z m 145.8126,5.5 -5.5938,1 -4.625,3.5937 -3,4 -3.5,17.3125 -1,7.5938 -2.5,8.5937 -1.5938,3 -3.5,4.5937 -5.5937,2.5938 -7.0937,3 -5.0938,5.125 -4.625,6.5938 -1.5,4.5937 -0.5,3.5 2.625,4.5937 11.6875,5 1,3.5938 0.5937,4 0,4.125 -1.5937,2.5 -3,0.5 -2.5937,-0.5 1.5937,-2 1,-2.625 0.5,-3 -2.0937,-3.5 -8.5938,-5.0938 -4.125,-1.5 -2.5938,0.5 -3,3.5938 -5.5937,-2.5 -6.6875,0.5 -4.5,2.625 -3.625,7.0938 -3,5.5937 -2.5,4.3125 -3.0938,5.2812 1,4.0938 1.3126,4.9062 4.7812,5.4063 3.8125,4.1875 3.4063,4.3125 3.5937,4 2.6875,2.8125 3.125,3.875 1.1875,2.4062 -0.8125,6 1.5,2 3.125,4 1,4.0938 -1,3 -1.5,2.125 0.5,2 3.5938,12.0938 1.0937,5.0937 0.5,3.5 -2,6.5937 -0.5,4.5938 -1,5.125 1,3.5 1,5.5938 1.5937,5 1.5,5.5937 0.5,6.5937 -0.4062,10.5938 -1,5.625 -2,5.5938 -1.5938,5.5937 -2,5.5937 -2,6.0938 0.5,6 5.0938,3.125 2.125,0.5 2,3 0,4.5938 1.5938,1 4.0937,0.5 3,1 4.5937,2.5 2,-1.5938 1,-3 -2,-10.125 -3.0937,-10.0938 -4.0937,-11.1874 -2.0938,-15.2188 1.5,-12.0938 2.5,-10.6874 3,-11.2188 3,-10.5938 7.0938,-12.6874 5.0937,-11.2188 3.5,-7.0938 4.5937,-10.5937 4,-11.1875 4.0938,-10.2188 0,-2 6,-21.2812 2.5,-18.2188 2,-10.1874 2,-15.7188 1.5,-8.5938 1,-8.5937 0.5,-5.5937 -2.0938,-5.0938 -2,2.0938 -2.5937,1 3.0937,-9.0938 -0.5937,-5.125 -1,-6.5938 0.5,-14.6874 -2.5937,-5.5 z m -79.5,8.4062 -2,0.5 -1.5,1.5 -2.0938,5.0938 3.5938,1 1,0.5 2.0937,-0.5 2.5,-0.5 2.5937,-2.0938 0.5,-2.5 -1.5937,-1.5 -2.5,-1 -2.5937,-0.5 z m -33.7188,131.2812 -3.5,0.5 -2.0938,4.5938 3.5938,13.2188 3.625,1 7.0938,-3.5938 0.5,-5.625 -9.2188,-10.0938 z m 21,10.0938 -3.0938,1 10.2188,17.7188 3.0938,3 3.0937,-2 2,-10.7188 -15.3125,-9 z m 21.9062,24.2188 -2.5,3.0937 -0.5,4.5 0,5.5937 0.5,3.5 6.7188,9.0938 2,-0.5 2,-9.5938 1.5,-10.6874 -1,-2.5 -8.7188,-2.5 z m -15.1874,0.5937 -4.0938,0.5 -5.125,0.5 -3.5938,4.5937 -1,5.5938 1.0938,4 2,6.125 6.2188,5 6.5937,3.0938 3.5937,-0.5938 0.9063,-10.125 0,-5.5938 -2,-8.5937 -1.0937,-3.5 -3.5,-1 z m 18.5,48.5937 -1.0938,1.5 1.0938,7.5938 2.0937,12.625 1.5,1.5938 1,-1.5938 -1,-7.625 1,-5.5 -1.0937,-4.5938 -3.5,-4 z"
     id="rect14"
     inkscape:connector-curvature="0" />
</svg>
