<?xml version="1.0" encoding="UTF-8" standalone="no"?>
<svg
   xmlns:dc="http://purl.org/dc/elements/1.1/"
   xmlns:cc="http://creativecommons.org/ns#"
   xmlns:rdf="http://www.w3.org/1999/02/22-rdf-syntax-ns#"
   xmlns:svg="http://www.w3.org/2000/svg"
   xmlns="http://www.w3.org/2000/svg"
   xmlns:sodipodi="http://sodipodi.sourceforge.net/DTD/sodipodi-0.dtd"
   xmlns:inkscape="http://www.inkscape.org/namespaces/inkscape"
   width="1039.4688"
   height="678.96875"
   viewBox="0 0 1039.4688 678.96875"
   id="svg2"
   version="1.1"
   inkscape:version="0.48.1 "
   sodipodi:docname="AJAX.svg">
  <metadata
     id="metadata20">
    <rdf:RDF>
      <cc:Work
         rdf:about="">
        <dc:format>image/svg+xml</dc:format>
        <dc:type
           rdf:resource="http://purl.org/dc/dcmitype/StillImage" />
      </cc:Work>
    </rdf:RDF>
  </metadata>
  <defs
     id="defs18" />
  <sodipodi:namedview
     pagecolor="#ffffff"
     bordercolor="#666666"
     borderopacity="1"
     objecttolerance="10"
     gridtolerance="10"
     guidetolerance="10"
     inkscape:pageopacity="0"
     inkscape:pageshadow="2"
     inkscape:window-width="1280"
     inkscape:window-height="1004"
     id="namedview16"
     showgrid="false"
     fit-margin-top="0"
     fit-margin-left="0"
     fit-margin-right="0"
     fit-margin-bottom="0"
     inkscape:zoom="0.35355339"
     inkscape:cx="1165.3585"
     inkscape:cy="-68.350355"
     inkscape:window-x="-8"
     inkscape:window-y="-8"
     inkscape:window-maximized="1"
     inkscape:current-layer="svg2" />
  <path
	 style="fill:#9FAEC0"
	 stroke="#9FAEC0"
	 stroke-width="10"
	 transform="translate(0, 125)"
     d="m 161.3126,0 -1.125,0.125 -0.875,1 -1.75,0.1875 -0.5938,0.46875 -0.7812,0.875 -1.3438,-1.03125 -3.125,-0.40625 -2.4688,0.25 -2.1874,-0.625 -2.0313,0.0937 -1.5313,0.78125 -0.5624,0.625 -0.25,1.03125 -0.1876,1.375 -0.6874,0.5625 -1.3126,0.0937 -0.9062,-0.40625 -1.0312,-1.625 -1.3126,0.0625 -0.75,-0.59375 -0.75,0.3125 -0.9374,0.78125 -0.75,-0.34375 -0.3126,-1.5625 -0.5312,-0.5625 -0.9062,-0.3125 -1.3126,0.125 -1.5,0.875 -1.75,-0.53125 -0.625,-0.1875 -0.9687,0.5 -2.5,2.15625 -4.6563,2.75 -1.8124,0.96875 -2.0313,1.78125 -1.3125,0.71875 -0.094,0.0625 -0.5624,0.71875 -0.7188,0.75 -1.5938,0.40625 -1.3437,1.03125 -1.7187,0.125 -0.875,0.59375 -2.125,0.0937 -1.0626,0.15625 -3.6874,2.4375 -1.7813,1.84375 -1.4687,4.5 -0.7188,2.96875 -0.375,0.8125 -1.625,1.875 -1.625,1.0625 -2.0312,2.15625 -1.7813,1.15625 -0.4063,1.84375 -0.625,7.59375 0.5,1.375 2.4688,3.1875 0.9062,2.8125 1.0626,1.25 2.5312,1.09375 2.3438,0.375 0.5312,0.4375 0.4375,0.40625 2.9375,0.71875 1.8438,1 8.0312,1.5625 -0.2188,0.8125 0.6876,1.1875 1.6874,0.875 1.7813,2.4375 2.9063,3.59375 0.8124,0.21875 2.2188,1.5625 1.2812,1.5625 1.2188,-0.0312 1.0312,-1.21875 1.0313,-0.125 1.0313,0.8125 1.1562,0.125 0.5312,0.46875 4.125,1.375 2.3438,0.0312 1.4688,-0.0312 1.375,0.625 0.75,-0.375 3.0624,-0.4375 1.2188,0.71875 2.5,-0.25 2.8125,1.40625 3.7187,1.34375 0.9063,-0.0312 1.0625,-0.90625 0.9375,-0.15625 0.8125,-0.78125 1.3125,-0.40625 0.8437,-1 0.875,-0.1875 0.8438,-0.96875 0.8438,-0.28125 0.9062,-1.40625 2.1875,-0.28125 0.2187,-0.65625 -0.4374,-1.34375 1.1874,-0.34375 0.9063,-1.46875 1.8125,-0.75 0.5625,-0.625 0.094,-0.0937 1.5626,-0.46875 0.8437,-1.21875 1.0625,-0.25 -0.2188,-1.84375 -1.2812,-0.0625 -4.3438,0.59375 -0.4062,-0.40625 1.4062,-0.6875 1.875,0.15625 0.75,-0.78125 0.9688,-0.1875 0.625,-0.9375 1.2188,0.34375 1.6874,-0.3125 0.4376,0.25 0.4374,-0.9375 0.1876,-2.40625 -0.5938,-1.90625 0.3438,-1 0.4062,-1.09375 -1.875,0.28125 -0.1562,-0.375 0.8437,-2.0625 L 172.7189,42 l 0.2188,-1.71875 0.8437,-2.34375 2.25,-2.4375 1.6563,-4.625 1.2812,-1.59375 0.5938,-1.46875 1.625,-2.75 0.1874,-2.5 0.625,-1.5 0.063,-2.53125 -0.3126,-1.3125 -0.4687,-0.125 -1.0313,0.34375 -0.5312,-0.78125 -0.125,-1.5 -0.5625,-0.90625 0.2187,-1.0625 -1.1562,-1.53125 0.125,-1.59375 -0.3125,-0.71875 -3.1563,-2.03125 -0.8124,-1.59375 -2.125,-1.5625 -1,-0.34375 -3.3438,-0.25 -2.375,-0.96875 -0.1875,-0.4375 -0.125,-0.84375 -1.9687,0.0312 -1.5,-1.34375 z M 29.6563,46.40625 26.5,48.46875 25.8438,50.25 l -0.375,2.65625 -2.9062,4.375 L 20.4376,58.5 16.2813,59.9375 15.3438,61.03125 14.5,61.75 l -1.5937,0.59375 -1.4375,0.5 L 7.5313,67.3125 3.9376,70.59375 2.6876,73.375 2.2813,75.75 0,79.53125 l 0.4376,0.5625 0.1562,1.53125 -0.2188,1.34375 -0.2187,1.3125 1.0625,2.6875 0.8438,0.625 0.6874,1.21875 -0.094,1 0.5313,0.6875 1.25,-0.1875 0.7187,0.28125 1.1563,1.21875 1.5,-0.25 0.6562,0.21875 0.8125,-2.9375 1.0313,-1.125 0.2812,-2.1875 2.2188,-3.96875 3.4062,-6 1.5938,-1.59375 L 19.156,73.1875 21.4685,73 l 0.9688,-0.6875 0.8437,-0.125 0.875,0 1,-0.46875 1.7187,0.125 1.2188,-1.125 1.3125,0.21875 0.5,-0.4375 1.5937,-0.1875 1.8438,-1.5625 0,-0.84375 -0.031,-0.1875 -1.2813,-3.0625 -0.375,-1.625 0.7813,-4.53125 1.1874,-3.3125 1.5938,-2.15625 1.625,-1.0625 L 37.2812,50.25 37.0625,49 36.4687,48.0625 33.9062,46.71875 33.1249,47.15625 32.4687,47.5 31.6249,47.625 29.6562,46.40625 z M 432.5,106.3125 l -1.0624,0.90625 -2.5,0.4375 -0.9688,0.6875 -1.9688,0.71875 -2.2187,1.8125 -1.5937,1.75 -0.4376,0.4375 18.5,0 -0.6874,-0.90625 -1.1876,-2.40625 -3,-2.96875 -2.875,-0.46875 z"
     id="rect4"
     inkscape:connector-curvature="0" />
  <path
	 style="fill:#9FAEC0"
	 stroke="#9FAEC0"
	 stroke-width="10"
	 transform="translate(0, 100)"
     d="m 421.75,113.0625 -4.8437,4.6875 -0.2187,2.46875 -2.1563,3.21875 -5.3437,4.65625 -0.25,1.46875 -2.8126,2.03125 -1.4374,1.15625 -0.8438,0.0937 -1.2812,-0.5 -2.3126,0.5625 -3.5,0.1875 -0.125,0 -5.0937,-0.0312 -2,0 -1.3437,0 -0.8438,0.0312 -0.625,0.0312 -4.2812,0.21875 -3.6563,0.40625 -2.9375,0.3125 -0.2812,0.46875 3.2187,2.125 0.4375,0.375 2.9062,2.625 1.5,1.8125 1.0626,2.1875 0.4687,1.6875 0.062,4.875 -0.4062,2.875 0.4374,1.125 0.875,0.375 1.4063,1.8125 0.6563,1.6875 1.3124,0.3125 2.2813,2.15625 2.1875,3.875 0.5312,1.59375 0.3438,2.8125 0.625,0.875 0.125,0.15625 4.3438,2.9375 1.625,1.90625 1.4374,2 1.4376,4.90625 0.25,1.3125 0.5312,1.3125 0.3125,0.15625 1.2813,4.875 0.8124,1.1875 1.0313,0.875 1.7187,0.46875 10.5938,-1.34375 4.125,-1.1875 5.6875,-0.78125 1.9687,-0.84375 1.2188,-1.28125 0.5625,-2 -0.5625,-1.59375 -1.1562,-1 -3.375,-1.8125 -3.9688,-1.03125 -0.6562,-0.75 0.4687,-0.9375 -0.031,-0.875 0,-0.4375 1.7188,-1.28125 0.625,1.125 0.8125,-0.0937 0.2187,0.71875 -0.2187,1.28125 0.625,1.15625 0.5625,0.1875 1.5625,-0.5 0.3125,0.34375 -0.125,0.75 2.5625,1.6875 0.5,-0.28125 0.125,-2.25 -0.7813,-1.34375 -0.9374,-0.0312 -1.375,-1.3125 -0.5313,-1.0625 0.6563,-2.1875 0.5,0.0937 0.5312,0.5625 1.625,2.21875 0.7812,0.28125 0.5626,-1.375 -0.5,-0.96875 0.1874,-0.53125 1,-0.28125 1.1563,0.46875 3.0313,1.6875 0.6874,-0.0937 0.2188,0.65625 -1.1562,2.34375 -0.4063,0.90625 0.4687,0.78125 -0.2187,0.5 -2.7187,-0.5 -1.5,0.78125 -0.4063,0.96875 0.375,1.125 -0.25,1.4375 -0.062,0.21875 0.7812,1.875 0.8438,0.875 2.1562,0.59375 2.5313,0.15625 1.0625,0.875 0.75,0.125 1.9062,-1.6875 3.9063,-2.53125 0.5,0.5 -0.4063,0.8125 0.063,0.6875 0.75,0.78125 1.5624,-0.15625 1.125,0.75 1.0626,0.0937 0.625,0.46875 0.3124,2.125 0.5313,1 1.0313,0.75 1.9687,0.375 0.8125,0.9375 0.6562,1.125 1.5,0.65625 1.0626,0.96875 0.5,2.53125 0.875,0.84375 3.25,-0.1875 0.9687,0.375 0.9375,-0.1875 2.8438,-2.65625 1.4374,-0.8125 3.2813,-0.84375 5.6563,-0.9375 1.2187,0.3125 0.625,0.65625 0.3125,0.875 -0.1562,1.03125 0.25,1.125 0.5937,0.375 1.9687,-0.0937 0.625,-2.03125 1.125,-0.0937 1,-0.5625 1.9063,-1.8125 3.4687,-3.25 1.375,-1.71875 0,-0.59375 -0.6874,-0.75 -1.6876,0.1875 -2.9062,-2.40625 -2.1875,-0.5 -1.1563,-0.84375 -1.5937,-1.625 -1.0625,-2.125 -0.875,-3.9375 0.5938,-2.46875 -0.25,-0.5625 -1.4688,-1.8125 -1,-0.6875 -1.9375,-0.65625 -0.6875,-0.6875 -0.375,-0.375 -1.25,-2.375 0.062,-0.46875 0.062,-0.46875 1.2812,-1.75 0.25,-3.15625 1.4688,-0.9375 0.9062,-1.53125 -0.25,-0.5625 -0.9374,-0.1875 -2.2188,1.1875 -1.2188,0.1875 -2.9687,-1.21875 -0.9063,-0.0625 -1.0624,1.28125 -0.7813,0.15625 -0.1563,0.8125 0.9063,1.1875 2.0313,0.78125 -0.7813,5.28125 -0.9687,0.46875 -1.2813,0.21875 -1.1875,-0.3125 -0.7812,-1.125 -0.2188,-1.1875 -0.4688,-0.84375 -0.4374,-0.1875 -0.625,0.65625 -1.375,-1.0625 -1.4376,-1.875 0.5,-0.59375 -1.4687,-2.65625 -1.125,-0.1875 -0.6563,-0.59375 -1.25,-0.3125 -0.094,-0.25 -0.7813,0.25 -0.6562,-0.875 -0.3125,-1.125 0.4063,-1.875 -0.25,-1.03125 -0.9376,-0.6875 -0.2812,-0.65625 0.3125,-0.4375 -0.875,-1.6875 0.1875,-0.75 0.5625,0.0937 1.9063,-2.21875 0.5312,-1.75 -1.5312,-4.78125 -0.4688,-0.125 0.125,-0.625 -0.4688,-0.6875 -2.0937,-1.21875 -1.4063,-0.4375 -0.6874,1.1875 -1.2188,-0.1875 -0.25,-0.84375 0.4062,-1.84375 -0.4374,-1.03125 -0.9376,-0.625 -3.5937,-5.125 -1.3437,-1.34375 -1.2813,-2.15625 -1.1875,-2.15625 0.7188,-1.84375 -0.5938,-2.15625 -1.25,-0.71875 -0.5938,-1.21875 -1.625,-2.46875 -0.062,-0.5625 -0.6876,-0.90625 -18.5,0 z m 150.625,93.125 -0.6874,0.0937 -0.4688,0.84375 0.1562,0.75 1.125,0.78125 0.8126,1.3125 0,0.3125 0.062,2.28125 -0.125,1.5 -0.3437,0.625 -0.875,1.46875 -2.125,1.78125 -0.9375,0.75 -1.2188,0.21875 -2.1562,2.96875 -0.4375,1.03125 -0.3125,1 -0.9688,0.6875 -0.3124,0.90625 -0.125,0.75 109.1562,0 3.3438,-4.53125 0.625,-2.03125 -0.625,-0.625 -2.75,0.9375 -2.6876,-1.28125 0.7813,-1.5625 -0.5,-0.75 -1.1875,-0.46875 -2.375,0.28125 -5.1875,-0.0937 -1.3125,0.96875 -0.2812,-0.1875 -2.1563,-0.78125 -0.1875,0.0312 -1.5625,0.375 -2.3125,1.625 -1.0938,0 -3.0312,-0.21875 -1.3438,0.96875 -2.4062,-0.0312 -1.5938,-0.96875 -1.2187,0.8125 -2.1563,-1.65625 -0.375,1.375 -1.5624,-0.0312 -0.625,-0.65625 -1.0938,-0.0312 -0.6875,-0.65625 -1.1563,0.46875 -0.75,-0.15625 -0.5937,-0.5 -1,0.28125 -2,-1.125 -0.8437,-1.28125 -0.375,-1.75 -1.75,-3.9375 -1.6563,-1.21875 -1.0313,-0.0937 -1.3437,1.9375 -0.8125,2.78125 -0.375,1.375 -0.9375,1.125 -2.8125,0 -5.9375,-1.5 -3.9375,0.4375 -6.4688,-2.0625 -2.0312,-0.0312 -3.3125,-0.0312 -1.4687,-0.46875 -2.7188,0.0312 -0.9688,0.46875 -1.7812,-0.6875 -0.1562,-0.28125 -5.75,-0.71875 -0.8438,-0.5 -1.625,-1.875 -2.3438,-0.53125 -1.8124,0.46875 -4.3126,-0.71875 -1.75,-0.78125 z"
     id="rect6"
     inkscape:connector-curvature="0" />
  <path
	 style="fill:#9FAEC0"
	 stroke="#9FAEC0"
	 stroke-width="10"
	 transform="translate(0, 75)"
     d="m 563.4376,226.25 -0.2813,1.875 -0.5313,0.8125 -1.0624,1.5625 -0.063,0.75 0.8438,0.78125 0.8438,0.4375 0.9687,0.0937 4.9687,0.5625 6.5,0.46875 7.7813,-0.625 3.1563,-0.21875 0.9374,-0.3125 1.6876,0.34375 0.6562,0.1875 1.3125,-0.375 1.9375,0.1875 3.5938,-1.25 5,-0.75 0.8437,-0.59375 1.7813,0.59375 0.375,-0.15625 0.2187,0.0312 4.8125,0.28125 2.2188,0.8125 2.1562,0.5625 1.7812,1.3125 3.2813,1 2.4063,1.21875 3.6874,1.28125 0.094,-0.1875 4.5,1.5 7.5,1.375 3.6562,0.6875 1.125,1 1.4376,0.0937 1.9687,0.0312 0.9375,-0.375 0.5938,-0.59375 1.375,-0.40625 1.25,0.25 -0.1876,0.96875 1.6563,-0.9375 0.7813,0.0312 0.3124,-0.28125 0.4376,-0.53125 0.8437,-0.125 1.0313,-1.09375 0.6874,-0.0625 0.5938,-0.46875 1.875,0.1875 0.8125,-0.375 2.125,-1.1875 1,-0.84375 1.75,-0.90625 1.6875,-1.5 1.9688,-1.25 3.9062,-3.65625 1.625,-2.21875 -109.1562,0 z m 135.9062,19.375 -2.4688,0.21875 -1.0937,1 -1.4375,-0.75 -1.5,0.71875 -1.5312,-0.5625 -1.0938,0.0937 -0.75,0.8125 0.625,0.78125 -2.4062,2.5625 -1.1876,-0.625 -0.875,0.1875 -0.9062,0.9375 -1.0625,3.59375 -0.094,0.3125 -0.6563,1 -1.5313,1.96875 -1.4374,4.0625 0,0.0937 -0.625,3.09375 -0.5,1.1875 0.125,1.25 0.625,1.28125 0.5937,0.5 1,2.34375 -0.094,1.6875 0.7187,1.5625 0.5625,3.125 1.0312,1.65625 3,2.65625 1.25,1.875 0.4063,0.8125 1.3125,0.59375 1.0938,1 1.7187,2.9375 0.625,1.125 2.5,-0.25 1.5625,0.5625 2.8438,2.21875 1.6562,0.65625 3.3438,0.53125 4.7812,3.09375 0.6875,0.15625 0.9375,-0.34375 3.125,-2.84375 0.8438,-0.375 1.7812,-0.5625 1.0625,0.15625 2.4375,0.9375 2,1.28125 1.1875,1.65625 0.4063,1.78125 -0.031,2.0625 -0.094,0.8125 0.6562,3.125 1.8438,4.5625 0.7187,4.21875 0.1875,0.53125 -0.2812,2.4375 0.6562,3.25 -0.1875,2.71875 -0.4063,1.03125 -1.3437,1.84375 1.0313,1.0625 1.0624,2.15625 0.25,1.03125 -0.1874,1 -0.125,0.625 1.5,2.1875 1.0624,0.625 2.1563,-0.3125 0.6875,1.375 -0.125,1 0.4688,0.65625 0.9687,0.0937 0.9375,0.5625 3.7188,0.0312 1.375,0.875 1.0937,-0.0937 2.125,-0.75 1.4687,-0.0937 1.0938,-0.5625 1.3438,0.28125 0.6874,-0.375 1.0938,-0.5625 1.6562,-0.15625 2.25,0.375 2.1876,-0.0625 1.1562,-0.375 1.6875,-1.25 1.4375,-0.375 1.125,-0.8125 1.7812,-0.25 1.7188,-1 0.375,-0.21875 2.9688,-1.15625 2.8437,-1.84375 2.2813,-0.9375 2.3437,-0.5625 2.1875,-0.0937 1.6875,1.0625 0.8437,-0.1875 1.3438,0.1875 0.8125,-0.5625 1.8125,-0.21875 0.9688,0.1875 1.125,1.0625 0.6562,-0.1875 0.5,-0.75 0.6875,-0.0625 0.3125,-0.0312 1.0625,-1.125 1.125,-0.28125 2.4063,-1.6875 1.5,-0.15625 1.9687,-1.3125 1.1563,-0.78125 0.5624,0 1.0313,0.78125 0.9375,0 2.9688,-0.875 0.9062,-0.625 0.094,-0.15625 1,-1.65625 2.3124,-3.0625 1.0938,-0.75 1.6875,-0.625 0.75,-0.28125 1.125,-0.9375 2.2813,-3.3125 0.9374,-1.375 -0.2187,-1 0.6875,-1.875 -0.1875,-0.875 0.75,-3.25 -0.2813,-1.75 0.125,-0.78125 0.3438,-1.65625 -4.1562,-5.125 -3.125,-1.78125 -2.25,-0.6875 -4.1876,-0.8125 -0.8124,-0.15625 -2.7188,-2.46875 -2.2188,-0.8125 -0.9062,-0.59375 -1.4062,-0.0625 -1.5626,0.5625 -1.0937,0 -0.2187,-0.0937 -0.5626,-0.21875 -1.4687,-1.78125 -0.7187,-0.4375 -0.9063,-3 -0.875,-1.125 -1.5625,-0.1875 -0.9375,-0.9375 -2.5625,0.59375 -0.875,-0.1875 -1.0312,-1.875 -2.1876,-1.59375 -1.9374,-2.6875 -2.7188,-2.28125 -0.875,-0.46875 -1.6562,-2.59375 -1.125,-0.65625 -1.2188,-1.90625 -1.5312,-0.65625 -1.9688,-0.90625 -1.3125,0.1875 -0.2813,0.0937 -0.7812,-0.5625 -0.1875,-0.125 -2.5625,0.40625 -1.5,-1.4375 -0.9062,-0.0625 -2.125,0.84375 -1.75,0.15625 -1.2188,-1.09375 -1.7812,-0.125 -1.6563,0.5625 -1.4063,1.5 -1.6874,-0.3125 -2.0938,0.65625 -1.9375,1.03125 -2.2813,2.5 -1.1562,0.5625 -1.4375,0.15625 -1.75,0.125 -1.5313,0.71875 -2.5312,-0.0937 -2.3125,1.59375 -1.9375,0.875 -0.5,0.0312 -3.6875,0.25 -0.75,-0.0625 -0.8125,-0.5625 -2.4375,-3.21875 -0.8437,-2.3125 -1.9688,-2.09375 -1.2188,-2.0625 -0.2812,-0.65625 -0.8125,-0.4375 -1.6875,-2.625 0.062,-2.5 0,-0.0312 -0.375,-1.03125 -1.0937,-0.46875 -0.2188,-0.0937 -2.5,-2.5625 -1.375,-1 -0.9688,-1.5 -1.3124,-0.46875 -1.2188,-1.03125 -1.7812,-0.65625 -1.5938,-1.65625 z m 13,12.40625 0,0.75 1.875,2.28125 0.4062,0 -1.4062,-2.34375 -0.875,-0.6875 z m -88.2812,7.90625 -2.5626,0.15625 -3.6874,0.40625 -1.9376,0.1875 -1.5312,0.65625 -1.375,1.4375 -0.375,-0.1875 -1.375,0.25 -0.9062,0.6875 -0.5626,1.6875 -0.2812,2.40625 0.7812,1.96875 1.8438,2.28125 5.6875,3 1.4687,1 3.3126,4.5625 0.75,2.0625 0.094,1.8125 -0.3437,2.28125 0.062,2.65625 0.094,2.40625 1.3438,3.875 0.5937,1.09375 1.3125,1.25 1.6875,1.46875 0.625,0.5 0.875,0.125 1.4063,-0.3125 2.25,-0.0312 2.9687,-0.4375 2.5625,0.0312 1.5625,-0.90625 0.5,0.1875 1.2187,-0.1875 1.2188,-0.78125 1.5625,-0.125 3.9063,-2.375 3.4374,-0.15625 0.9063,-1.125 1.75,-3.8125 3.125,-4.46875 0.4063,-1.375 -0.2813,-1.6875 -1.2813,-2.8125 -3.2812,-4.59375 -2.8125,-3.25 -1.5,-1.28125 -3.5,-2.96875 -2.2813,-2.21875 -3,-2.09375 -3.25,-1.03125 -5.0937,-1.46875 -1.3125,0.28125 -1.2188,-0.0625 -2.4374,-0.3125 -1.75,-0.34375 -1.375,-0.3125 z m 80.1874,67.1875 -2.375,0.0312 -2.4062,0.6875 -2.1875,1.59375 -1.4063,0.15625 -1.3124,1.59375 -3.0626,2.25 17.7188,0 0.25,-1.375 -0.5625,-0.875 -1.2187,-1 -0.625,-1.125 -0.5626,-0.6875 -2.25,-1.25 z"
     id="rect8"
     inkscape:connector-curvature="0" />
  <path
	 style="fill:#9FAEC0"
	 stroke="#9FAEC0"
	 stroke-width="10"
	 transform="translate(0, 50)"
     d="m 691.5,339.4375 -0.125,0.0937 -1.1874,0.46875 -1.25,1.1875 -1.4376,1.125 -1.625,-0.0625 -1.1562,0.375 -1.5938,0.46875 -1.6562,2.03125 -1.2188,0.6875 -1.7812,1.8125 -0.062,0.5625 0.9687,1.625 2.0938,1.40625 0.3438,1.5 2,1 1.3124,0.21875 1.0313,-0.375 2.5,-2.46875 0.625,1.65625 0.6563,0.28125 3.9062,-2.125 1.1562,-0.0937 1.3126,0.46875 1.0624,-1.4375 0.9688,0.5625 0.625,1.46875 0.9375,0.6875 1.8125,-0.21875 1.8125,-0.96875 0.9687,0.0625 0.5626,-0.375 1.5937,0.46875 1.2187,-0.0625 0.6563,-0.34375 0.625,-1.0625 1.4063,-1.3125 0.375,-0.84375 -0.063,-0.6875 -0.9062,0.3125 -0.6562,-0.84375 -0.4688,-0.0625 -1.2188,0.75 -0.9687,-0.0937 0.3437,-0.65625 0,-1.15625 0.5626,-1.65625 1.5312,-3.65625 0.125,-0.71875 -17.7188,0 z m 146.3126,62.34375 0,0.0312 -2.5,1.21875 -0.125,0.0625 -3.2813,5.5 -0.062,0.125 -1.0938,4.59375 0,1.84375 -0.375,0.96875 -0.25,0.65625 0.5313,1.9375 0.2813,5 0.2187,0.625 1.1563,3.5625 0.3437,1.0625 0.1875,1.9375 1.0312,1.875 0.375,1.59375 0.3126,1.6875 0.75,1.1875 1.8124,1.90625 0.4688,0.46875 2.7812,3.34375 1.8438,2.875 2.0938,2.625 0.9374,1.15625 0.2188,0.65625 0.062,1.875 -0.125,0.46875 102.2813,0 -1.4063,-0.65625 -5.5625,-2.65625 -0.625,-0.28125 -0.8125,-0.34375 -3.3125,-2.5625 -0.4062,-0.0312 -2,-0.1875 -3.375,-2.625 -0.9376,-0.40625 -0.875,0.0937 -1.25,-1.09375 -1.6874,-0.90625 -3.0626,-1.65625 -1.5312,-0.375 -1.0625,-0.75 -1.8437,-1.09375 -1.9063,-0.375 -2.25,-1.09375 -3.1563,-0.71875 -3.1562,-1.375 -1.9375,-0.1875 -1.0937,0.0937 -2.9063,-1.625 -1.5313,-0.0937 -3.1562,-1.28125 -1.5312,0 -5.2188,1.71875 -1.25,-0.5625 -1.7188,-2.59375 -0.75,-0.53125 -1.2187,-0.21875 -1.2813,-0.8125 -1.3124,-0.0625 -1.125,-0.875 -1.5313,-2.125 -0.031,-0.0312 -0.75,-0.5 -6.4062,-4.3125 -1.2188,-0.15625 -0.6874,-0.0937 -7.1876,-4.46875 -0.375,-0.96875 0.031,-1.8125 -0.9375,-0.0937 -0.5,-0.375 -0.4688,-1.21875 -2.0312,-1.65625 -3.4375,-2.3125 -1.5313,0.375 -1.9062,-0.9375 -1.8125,-0.25 -3.1875,-2.125 -1.25,-0.21875 -2.9375,-1.15625 -0.6563,-0.0312 -4.8124,-0.25 z"
     id="rect10"
     inkscape:connector-curvature="0" />
  <path
	 style="fill:#9FAEC0"
	 stroke="#9FAEC0"
	 stroke-width="10"
	 transform="translate(0, 25)"
     d="m 845.4063,452.625 -0.7187,2.96875 -0.063,0.25 0.094,1.03125 0.094,0.78125 -0.6563,3.09375 -3.625,1.875 -0.6563,0.46875 -1.8124,2.4375 -1.0938,1.4375 0,0.96875 -2,-0.28125 0.094,1.0625 -0.6563,0.53125 -1.1563,0.3125 -0.7187,1.28125 -0.2813,1.3125 1.2188,1.34375 -2.5938,1.59375 -0.1874,1.09375 -0.7188,0.6875 -0.3125,1.8125 -0.1563,0.125 -1.1874,1 -0.375,0.875 -1.125,1.1875 -0.4688,0.875 0.5312,1.78125 -0.094,0.5625 -1.1563,0.28125 -1.2187,0.90625 -0.8437,0.0937 -1.7188,-0.46875 -0.9688,0.0625 -1.4062,0.0937 -1.75,0.75 -1.4062,1.09375 -1.375,2.03125 -3.0313,3 -0.375,0.375 -2.0313,2.75 -3.4374,3.40625 -2.5,1.875 -0.9688,1.40625 -0.2812,1.4375 0.3124,2 -1.0937,2.28125 0.094,0.78125 0.031,0.28125 -1.8125,2.34375 0.25,0.5625 1.1562,0.75 0.875,0.5625 0.4376,0.90625 0.3124,2.84375 0.4688,1.1875 2.1875,1.65625 0.4063,1.4375 0.9374,1.03125 0.2188,1.21875 -0.875,2.03125 0,0.0937 0.375,1.28125 0.5312,0.5625 2.4688,0.9375 1.5938,1.4375 1.9687,0.4375 1.0625,0.9375 -0.125,0.65625 0.5,2.0625 1.2188,1.625 0.4687,1.59375 0.5625,0.75 0.4375,0.59375 0.6563,3.03125 -0.094,2.1875 0.875,0.65625 0.1562,0.4375 -0.6562,1.3125 2.0312,3.8125 0.1876,0.875 -0.4063,2.8125 1.4375,3.15625 0.3125,1.5625 -0.125,1.71875 0.6875,1.28125 0.375,0.0937 0.8125,0.1875 0.9687,0.84375 1.0313,-0.3125 0.8437,0.0937 0.7813,0.78125 0.125,0.84375 -0.8125,1.375 207.3125,0 0.062,-0.0937 2.8438,-2.75 0.031,-0.21875 0.875,-3.40625 1.25,-2.15625 0.625,-2.28125 -0.8125,-2.1875 -2.2187,-1.75 -2.3126,-0.34375 -2.4374,-1.53125 -2.4063,-0.46875 -1.8125,-1.15625 -1.625,-0.5625 -0.4375,-0.375 -0.5937,-0.53125 -3.8126,-2.1875 -4.6874,-4.875 -2.2188,-1.53125 -0.4375,-0.96875 0.094,-2.3125 -0.4687,-0.6875 -2.1563,-0.6875 -1.875,-0.1875 -1.1874,-1.375 -0.3126,-0.75 -0.5937,-1.3125 -0.25,-3.09375 -0.094,-2.65625 0.6562,-1.78125 0.094,-1.40625 -1.8438,-4.9375 -2.3438,-4.5625 -0.2187,-0.1875 -0.4687,-0.4375 -0.9063,0.125 -1.3437,-0.5625 -0.875,0.65625 -0.4376,-0.0312 -1.4687,-0.0312 -0.031,0.6875 -0.625,0 -1.25,-1.21875 -0.7187,0 -1.125,1.0625 -1.2813,0.125 -0.1562,0 -0.1875,0.21875 -0.75,0.8125 -0.5,-0.0312 -0.7187,-0.0625 -0.7188,-0.375 -0.5312,0.21875 -0.5,0.90625 -1.8126,-0.5 -0.5624,-0.5 -0.5938,-1.46875 0,-0.84375 0,-4.09375 0.6562,-4.09375 0.25,-1.40625 -0.5937,-0.96875 0.3125,-2.0625 -0.7188,-2 0.2813,-1.78125 1.5,-4.34375 -0.375,-2.03125 -1.5,-2.25 -1.75,-1.65625 -1.1875,-0.5 -1.1562,-1.59375 -0.8438,-0.625 -1.8438,-3.375 -0.5312,-0.6875 -0.4688,-0.59375 -5.375,-5.25 -1.7187,-1.5625 -1.6563,-0.8125 -1.9374,-1.6875 -1.7813,-0.8125 -1.8437,-2.59375 -1.2813,-1 -1.8437,-1.375 -1.9688,-0.625 -2.625,-1.96875 -0.5312,-0.625 -0.9376,-1.1875 -2,-1.125 -1.3437,-0.90625 -2.375,-0.65625 -0.7187,-0.34375 -102.2813,0 z"
     id="rect12"
     inkscape:connector-curvature="0" />
  <path
	 style="fill:#9FAEC0"
	 stroke="#9FAEC0"
	 stroke-width="10"
     d="m 826.4688,565.78125 -0.625,1.09375 0.75,4.3125 0.5,1.40625 1.125,1.5 0.375,1.28125 1,1.65625 -0.5625,2.5625 0.3437,1.40625 1.125,1.4375 0.8126,1 2.1562,8.9375 -0.875,3.5 0.2188,4.53125 -1.375,7.03125 -0.4376,2.15625 0.063,1.71875 -0.5938,4.3125 0.1562,2.96875 -0.6874,1.4375 0.1562,0.75 -1.1562,3.09375 0.125,1.75 -0.5,1.5625 -0.9688,1.5 0.031,0.78125 1.0313,1.875 -0.4375,0.65625 -0.8125,1.25 -0.094,2.625 0.7187,4.875 0.9687,2.59375 2.3126,2.875 1.5312,2.75 1.5,4.34375 1.3125,1.21875 0.6875,0.1875 6.7812,2.3125 3.375,1.5625 3.5,0.71875 1.3126,0.625 4.6874,4.125 2.125,1.46875 0.6876,0.28125 2.0937,0.78125 3.0313,0.46875 1.9062,1.15625 2.375,2.625 4.3125,2.75 0.4063,0.875 -0.4376,3.28125 0.375,1.03125 0.6876,0.1875 1.5624,-0.375 1.4063,-0.9375 2.4063,-1.65625 4.8437,-5.65625 1.6875,-3.25 2.25,0.375 0.7812,-0.5625 1.5313,-4.40625 1.4375,-2.5625 0.1875,-0.75 0.4375,-1.65625 3.0312,-3.09375 1.3126,-2.53125 0.6562,-2.59375 -0.2812,-4.21875 0.5624,-1.03125 1.8126,-1.59375 3.5312,-4.40625 0.6562,-0.1875 1.375,-0.40625 0.6563,-2.0625 0.031,-1.09375 0.5624,-0.5625 2.6563,-1.125 2.8125,-0.96875 3.125,-0.375 2.4375,-1.0625 1.375,-1.125 1.3125,-1.75 1.3438,-1.21875 1.7187,-2.40625 5.5937,-2.8125 1.6876,-0.375 0.3124,-0.0625 4.4688,-2.15625 1.25,-1.15625 1.9375,-3.84375 0.5937,-0.5625 3.8438,-1.875 3.4375,-3.03125 3.4687,-0.90625 0.9063,-0.46875 0.8125,-0.375 1.9062,-0.0937 1.5938,0.71875 2.5625,0.1875 2.1563,1.0625 2.7187,0.53125 4.1875,-0.3125 3.3125,-1.3125 1.875,-0.125 3.4063,-1 3.0312,-0.875 3.5625,-3 4.2813,-2.09375 2.6874,-2.125 8.0938,-2.875 0.8438,-0.34375 5.8437,-2.5 0.875,-0.40625 1.9063,-1.375 2.4374,-2.53125 4.4688,-3.25 4,-4.4375 0.75,-0.5 5.6562,-3.6875 2.75,-2.8125 2.0938,-1.25 2.9062,-2.46875 2.7813,-3.4375 -207.3125,0 z"
     id="rect14"
     inkscape:connector-curvature="0" />
</svg>
