<?xml version="1.0" encoding="UTF-8" standalone="no"?>
<svg
   xmlns:dc="http://purl.org/dc/elements/1.1/"
   xmlns:cc="http://creativecommons.org/ns#"
   xmlns:rdf="http://www.w3.org/1999/02/22-rdf-syntax-ns#"
   xmlns:svg="http://www.w3.org/2000/svg"
   xmlns="http://www.w3.org/2000/svg"
   xmlns:sodipodi="http://sodipodi.sourceforge.net/DTD/sodipodi-0.dtd"
   xmlns:inkscape="http://www.inkscape.org/namespaces/inkscape"
   width="5060.6875"
   height="7804.6875"
   viewBox="0 0 5060.6875 7804.6875"
   id="svg2"
   version="1.1"
   inkscape:version="0.48.1 "
   sodipodi:docname="AJAX.svg">
  <metadata
     id="metadata20">
    <rdf:RDF>
      <cc:Work
         rdf:about="">
        <dc:format>image/svg+xml</dc:format>
        <dc:type
           rdf:resource="http://purl.org/dc/dcmitype/StillImage" />
      </cc:Work>
    </rdf:RDF>
  </metadata>
  <defs
     id="defs18" />
  <sodipodi:namedview
     pagecolor="#ffffff"
     bordercolor="#666666"
     borderopacity="1"
     objecttolerance="10"
     gridtolerance="10"
     guidetolerance="10"
     inkscape:pageopacity="0"
     inkscape:pageshadow="2"
     inkscape:window-width="1280"
     inkscape:window-height="1004"
     id="namedview16"
     showgrid="false"
     fit-margin-top="0"
     fit-margin-left="0"
     fit-margin-right="0"
     fit-margin-bottom="0"
     inkscape:zoom="0.0625"
     inkscape:cx="4863.92"
     inkscape:cy="205.49537"
     inkscape:window-x="-8"
     inkscape:window-y="-8"
     inkscape:window-maximized="1"
     inkscape:current-layer="svg2" />
  <path
	 style="fill:#9FAEC0"
	 stroke="#9FAEC0"
	 stroke-width="10"
	 transform="translate(0, 125)"
     d="m 297.3125,0 -2.625,64.09375 -4.5937,106.59375 -0.1876,5.90625 -7.3124,175.71875 -0.5938,14.875 -3.5938,88.3125 -0.094,2.5 -10.625,374.18755 -0.375,12.7187 -7.2187,215.90635 -2,76.1874 -4.1876,163.8126 855.0626,0 -0.6563,-1.3126 -0.9063,-2 -0.5,-0.8124 -3.8124,-3.7813 -3.6876,-2.7187 -3.8124,-6.0938 -3.6876,-6 -1.0937,-1.6875 -3.5,-6.0937 -4.5,-7.9063 -3.625,-6.3125 -5.375,-5 -6,-6.0938 -3,-3.0937 -0.125,-0.5937 -2.0937,-8.5 -0.7813,-2.9063 -0.2187,-0.7187 -7.2813,-7.2813 -0.9063,-0.5937 -2.9062,-1.7188 -1.0938,-0.5938 -1.5,-1.5937 -2.2187,-2.9063 -3.0937,-4.1875 -2.5,-3.3125 -2.5,-6 -1.5938,-3.6875 -0.5,-1.5 -2.1875,-5.125 -2.625,-6.1875 -0.5,-1.1875 -1.7813,-5.5 -4.5,-7.2188 -2.7187,-4.1875 -0.5,-0.8125 -0.6875,-0.5 -3.1875,-2.0938 -4.3125,-0.5937 -6.5938,-2.7187 -1.5937,-1 -1.125,-1 -1.5,-1.7813 0,-1.7187 0.625,-71.2813 0.2813,-28.4063 0.2187,-25.0937 0.094,-8.0937 0.1876,-32.40625 0.4062,-33.3125 0.8125,-69.2812 0.7813,-85.3126 0.3124,-32.8124 1.5938,-200.87505 2.1875,-121.71875 0.4063,-36.5 0.4062,-31.28125 0.6875,-63.71875 0.2187,-14.40625 0.4063,-33.875 1.375,-103.5 -0.2813,-24 1.6876,-125.5 -86.4063,-1.71875 -16.0937,0 -168.7813,-3 -110,-1.6875 L 297.3125,0 z m 825.2813,1297 -4.5,0.6875 -0.5938,0.4062 -3,2.3125 -0.6875,0.4063 12.375,0 -0.2813,-0.7188 -0.4062,-0.2812 -2.9062,-2.8125 z"
     id="rect4"
     inkscape:connector-curvature="0" />
  <path
	 style="fill:#9FAEC0"
	 stroke="#9FAEC0"
	 stroke-width="10"
	 transform="translate(0, 100)"
     d="M 253.9062,1300.8126 248.5,1513.5 245.1875,1643.6876 241,1816 l -2.8125,119.9063 -3.375,144.6875 -0.625,27.0938 -6,271.625 -4.875,222.3437 1834.5,0 -0.4063,-2.3437 0.6876,-2.8126 0.4062,-0.4062 1.1875,-1 3.2187,-1.5938 1.7813,-0.5937 1.7187,-0.7187 1.9063,-2.6876 1.0937,-1.5 1.1876,-3 0.4062,-1.0937 0.094,-2.3125 0.2187,-2.7812 0.094,-0.7188 -0.094,-2.7812 -0.2187,-2.3126 -0.5938,-6.5937 -0.5938,-2 -2.2187,-3.9063 -1.1875,-1.4062 -2.1875,-2.5 -6.2187,-7.0938 -2.5,-2.8124 -2,-2.375 -3.1876,-4.4063 -0.4062,-0.5 -3.8125,-3.4063 -7.7813,-4.1874 -1.3124,-0.3126 -0.6876,-0.1874 -3.0937,0.5 -1.5,0.1874 -6.8125,1.1876 -3.6875,-0.5938 -3.2187,-0.4062 -4.4063,2.4062 -0.875,1.5 -1.2187,2.5 -0.1876,0.5938 -0.9062,3.5 -0.8125,2.4062 -0.1875,1.4062 -0.094,0.5 -0.8124,3.5 -0.094,0.6876 -1.5938,1.8124 -3,3.3126 -3.5937,0.5937 -0.7187,0.094 -3.2813,0.1876 -0.8125,0.125 -1,0.094 -3,0.4063 -0.6875,0.2812 -3.125,1.2188 -1.1875,0.375 -3.8125,3.9062 -1,1 -1.7813,2.3125 -1.5,1.9063 -2.0937,2.875 -3.3125,4.625 -0.4062,0.375 -1.5,0.8124 -2.5,1.3126 -0.4063,-0.125 -3.2813,-0.2813 -2,-1.8125 -0.2187,-2.5 -0.1875,-2.7812 0.5,-3 -1.5938,-0.8126 -1.9062,-0.9062 -3.0938,0.5 -1.5,-0.094 -0.9062,0 -2.5938,-0.8124 -2.2187,-0.5938 -1.5937,-3 -0.1876,-0.9062 0.5,-4.6876 0.094,-1 3.1875,-8.0937 6.4063,-8.8125 0.4062,-0.5938 0.5938,-1 2.7187,-4.9062 1.875,-7.6875 0.2187,-1.9063 0.2813,-4.6874 -1.1875,-5.9063 -0.6875,-2.5937 -0.2187,-0.9063 -2.5,-3.8125 -1.6876,-1.4062 -6,-4.6876 -2.5937,-3.5 -1.2187,-1.5937 -0.6876,-1 -3.5937,-3.7187 -0.7187,0 -1.5,0.125 -2,0.094 -3.0938,0.1875 -1.5938,0.094 -1.4062,-1 -1.0938,-0.6876 -2.7187,-1.9062 -0.5937,-0.2812 -0.5,-0.4063 -2.4063,-0.2187 -2.5,-0.1876 -2.5937,-0.1874 -2,0.094 -1.6876,0 -3,-2 -2.5,-2.9063 -1.7187,-1.9062 -2.375,-2.7812 -2.5,-2.4063 -2.625,-2.5 -0.5,-0.4063 -2.7813,-1.5 -2.3124,-1.3124 -1.9063,-2.375 -1.6875,-2.22 -2.6875,-5.7812 -1.4063,-2.8126 -2.2187,-1.3124 -3.2813,-0.875 -1.4062,-0.4063 -2.6875,0.1875 -3.625,0.4062 -3.5,0.8126 -0.6875,0.375 -2.5,1.4062 -1.1875,2.8125 -0.5,1.0937 -0.3125,1.5938 -0.4062,0.3125 -1.0938,1.4063 -0.4062,0.375 -2.2813,0.4062 -2.125,-1.5 -0.5937,-2.9062 0.2187,-5.1876 1.375,-3.6874 -0.1875,-2.8126 -1.4062,-2.9062 -0.5,-0.9062 -2,-1.5 -1.5938,-1.375 -3.5938,-1.8126 -2.5,-1.0937 -1.5,-0.4063 -5,-3 -1,-0.9062 -1.9062,-2.6875 -0.8125,-1.2187 -1.2813,-4.875 -0.094,-0.625 0.875,-4.0938 0.9063,-3.0938 1.3124,-5.5937 -0.2187,-1.3125 -0.875,-3.0938 -3.3125,-2.8124 -4,-1.875 -1,-0.125 -4.5,-2.2813 -0.8125,-0.9063 -0.375,-0.8124 -1.125,-1.5 0.3125,-2.875 2,-2.8126 5.3125,-4.5937 0.875,-0.9063 1,-0.9062 3.125,-5 0.2813,-2 -1.4063,-6.9062 -0.375,-1.5 -1,-4.1876 -0.125,-5.5937 0.5,-2.5937 1,-2 0.5,-3.625 0.7187,-1.5938 0.7813,-2 0.8125,-1.2812 0.5938,-0.9063 1.3124,-1.8125 1.2813,-2.0938 0,-3.5937 -7.0937,-5.7187 -3.5938,-2 -4,-2.375 -3.1875,-1.5 -3,-1.4063 -2,-1 -3.7187,-3.5937 -0.5938,-1.625 -0.4062,-0.7813 -2.7813,-4.7187 -2.2187,-0.5938 -2.0938,-0.9062 -0.8125,-0.375 -2.375,-2.125 -1.7187,-1.6876 -2.0938,-2.1874 -1.4062,-1.5 -0.9063,-0.7188 -1.7813,-1.9062 -0.4062,-0.5938 -1.3125,-2 -1.375,-3 -1.5,-4.2812 -1,-2.625 -4.625,-6.6876 -0.7813,-1.1874 -7.4062,-6.625 -2.3125,-1.5938 -3.0937,-1.4062 -3.0938,-0.2813 -0.4062,0.094 -2.9063,0.6876 -1.1875,0.3124 -4.0938,2.5 -5.2187,2.0938 -1.375,0.094 -3.7187,0.2187 -2.5,0.094 -2.4063,-0.8124 -0.094,-0.875 -0.7813,-4.3126 0.1875,-2.5 -0.5,-3.5 -0.4062,-1 -1.4063,-1.8124 -2.6875,-3 -3.5938,-4.0938 -2.2187,-4.5 -0.1875,-4.0938 -0.1875,-4.4062 -1.3125,-4.2812 -0.1875,-0.4063 -0.7187,-3.9063 -0.7813,-4.6874 0,-4.125 -0.8125,-8.5938 -1.5,-2.0938 -3.6875,-4.1874 -0.4063,-0.8126 -1.3124,-4.1874 -0.5,-5.125 -1.1876,-2.5 -1.2187,-2.375 -3.375,-1.7188 -2.9063,-1 -0.8124,-0.2812 -3,-1.2188 -1.6876,-0.6875 -0.5937,-0.2187 -6.5,-5.0938 -0.4063,-0.2812 -4.3124,-4.8126 -1.0938,-1.3124 -1.9062,-2.2813 -5.7813,-6.4063 -4.2187,-6.5 -1.0938,-1.5 -2.8125,-5.5 -1.375,-2.6874 -0.8125,-1.4063 -0.5938,-2.3125 -0.9062,-5.4062 0.6875,-2.0938 0.625,-3.9062 0.1875,-0.6876 1.1875,-3.4062 -0.375,-1.2812 -0.3125,-0.9063 -0.6875,-0.9063 -0.4063,-0.6874 -5.5937,-1.8126 -2.625,-0.4062 -3.0937,-0.4062 -0.5,-0.094 -2,-0.2812 -3.5,-1.3126 -2.5938,-1 -0.6875,-1 -4.9063,-8.5 -0.5,-0.8124 -1.7187,-3.0938 -3.2813,-6.5 -1.8124,-3.4062 -0.1876,-0.5 -3.3124,-4.2813 -1.7813,-2.2187 -0.7187,-0.6876 -2.6876,-2.4062 -1.9062,-1.6875 -1.1875,-0.7187 -2.5,-1.6876 -3.625,-2.4062 -0.6875,-0.5 -2.3125,-1.2812 -2.1875,-1.625 -1.1875,-0.875 -2.125,-1.7188 -3.0937,-2.5 -2,-1.5938 -0.5938,-0.4062 -1.5,-0.2812 -3.0938,-0.625 -3,-0.5 -2.3124,-0.5 -6.5938,-4 -3.1875,-3.1876 -1.5,-2.3124 -0.9063,-2 -0.4062,-1.6876 -0.1875,-1.8124 -0.125,-5.0938 -0.094,-2.6875 -0.094,-0.8125 -1.1875,-3 -1.7187,-2.1875 -0.4063,-0.5 -6.5,-3.8125 -0.6875,-0.094 -6.0938,-1.4062 -5.0937,-1.0938 -2.3125,-0.5 -1.1875,-0.5 -4.8125,-2.4062 -2.1875,-3.5 -0.9063,-2.5938 0.1876,-4.3124 0.5937,-1.375 0.625,-1 2.375,-4.2188 1.8125,-3.1875 0.3125,-2.8125 0.7813,-1.5938 0.094,-1.1874 -0.2813,-3.3126 0.094,-1.6874 -1,-4.8126 -2.4062,-4 -0.2813,-0.5937 -2.7187,-2.4063 -0.5938,-0.6874 -6.3125,-3.9063 -0.5937,-0.3125 -5.9063,-7.4062 -0.6875,-0.7813 -1.8125,-4.9063 -0.5937,-1.6874 -0.7813,-3.2188 0.5937,-1.6875 0.5,-1.0937 1.5,-3.125 0.4063,-0.7813 0.5937,-2.2187 -1.2187,-2.875 -4.375,-2.2188 -0.7187,-0.1875 -3.0938,-0.9063 -0.8125,-0.1874 -4.2813,-0.9063 -3.5937,-0.5937 -1.7187,-0.2188 -0.2813,0.094 -3.5,0.9062 -1.7187,0.094 -1.7813,-0.094 -3,-0.094 -3.3125,-0.4062 -4.5,-1.9062 -2.1875,-1 -2.4063,-1.0938 -1.5,-1 -1.7187,-0.1875 -4.5,-0.7187 -0.875,0.2187 -2.3125,0.2813 -1.3125,0.4062 -2.5,0.7188 -4.5,1.2812 -0.5,-0.094 -3.0937,-0.1874 -2.5,-0.3126 -0.5,-0.094 -2.5,-1.5 -0.6876,-0.4063 -2.5,-2.9062 -1.5937,-3 -1.7187,-3 -0.2813,-0.5938 -2.625,-4.6874 -2.0937,-0.4063 -1.5,-0.2187 -1.1876,0.125 -0.9062,0.094 -4.8125,2.1875 -1,0.7188 -2.5937,0.5 -3.9063,0.7812 -3.5937,-0.5938 -1.9063,-0.4062 -1.7813,-1.5 -2.5937,-2.4062 -0.7187,-0.5938 -1.4063,-0.9062 -2.5937,-1.5 -1.0938,-0.375 -1.4062,0.094 -4.0938,0 -1,0.094 -4,0 -1.0938,0.094 -1.9062,-0.5938 -3.1875,-1.0937 -4.125,-1.3125 -3.875,-1.1875 -0.8125,-0.3125 -5.0938,-3.5938 -4,-4.3124 -4.3124,-5.375 -3,-3.8126 -1.2813,-2 -2.9063,-5.4062 -0.7187,-1.4062 -4.2813,-8.375 -0.7187,-1.125 -5,-10 -0.5,-1.5 -3,-7.7813 -0.6875,-2.0937 -2.5938,-8.5 -0.3124,-1.125 -4,-4.375 -1.2813,-0.7188 -3.625,-1.5938 -2.5937,-1.5 -2.5,-1.5 -0.5938,-0.1874 -2.1875,-1.125 -1.4063,-2.5938 -2.0937,-3.5938 -3,-4.1874 -0.625,-0.9063 -2.0937,-2.5 -4.9063,-5.8125 -1.5,-0.9062 -4.1875,-3.375 -1,-0.7188 -3.5,-1.5 -3.0938,-1.2812 -2.2187,-1.125 -2.2813,-0.875 -2.8124,-0.7188 -6.5,-1.2812 -9.0938,1.375 -2.5,0.4062 -0.8125,0.2188 -0.5937,-0.3126 -2.5,-1.3124 -0.2813,-1.6876 -0.2187,-1.4062 -0.1876,-1.5 -0.5937,-4.1875 -2.4063,-5.0937 -3.5,-3.9063 -4,-2.3125 -3.0937,-1.6875 -5.125,-3 -0.6875,-0.4063 -0.8125,-1.0937 -1.2813,-2 -1.7187,-2.0937 -5.7813,-3.3126 -2.2187,-1.1874 -2.875,-1.125 -3.5,-1.6876 -3.5,0.5938 -0.5,0.094 -3.625,0.3124 -0.7813,0.094 -1.4062,-1 -1.8125,-2.9062 -1.2813,-2.1876 -3.5,-4.0937 -2.7187,0.4063 -1.375,0.1874 -2.2187,0.3126 -1.2813,0.2812 -3.625,1.0938 -3.5,0.7187 -4.0937,0.9063 -1.4063,-0.125 -1.5,-0.094 -2.5,-0.9062 -0.5,-0.2813 -1.5937,-2.5 2,-7 2.5,-3.3125 1.5,-2 4,-3 4.2187,-2.7812 5.375,-3.9063 1.5,-0.9063 2.125,-1.5 7,-3.8124 1.0937,-0.5938 10.5,-2.9062 9.5938,-1.5938 0.5,0 5.5,-0.094 1.5,0.4063 3.5938,0.9063 6.5937,1.7812 3,-0.5 2.625,-0.4062 1.875,-0.6876 5,-2 4.5,-2.3124 0.5,-0.2813 1.5,-1.5937 1.7187,-2.3126 0.5938,-1.4062 0.8125,-2.1875 3.375,-9 0.125,-0.7187 -0.4063,-3.0938 -1.0937,-1.1875 -3.5,0.5 -4.5,0.6875 -3.125,0 -2.5,-0.094 -0.875,-0.094 -1,-0.3125 -1.5,-1.4062 -0.5,-0.5 -2.2187,-4.375 -2,-3.625 -1.4063,-1.5 -0.5937,0.2187 -3.5,1.5 -4.5,1.2813 -1.5,0.5 -0.5938,-0.094 -1.9062,0 -1.6876,-0.1875 -1.9062,-2.3125 -0.4062,-0.5 -0.5,-2.5 -0.4063,-4 -0.1875,-2.5 -0.094,-1 -1.5,-4.1875 -1.2187,-1.5 -1.375,-2.0937 -0.9063,-1.3126 -1.5,-1.4062 -2.5,-3.2812 -1.4062,-1.9063 -0.6875,-2 -1.8125,-4.5 -0.5,-1.2187 0.4062,-4 0.2813,-0.875 2.9063,-3.4063 2,-3.0937 1.5937,-2.4063 -0.5937,-2.7187 -3.5,-2 -4.0938,0 -5.5938,0.5 -0.4062,0 -1.6875,-0.094 -3.4063,-0.2812 -4.3124,-2.4063 -1.7813,-1 -1.8125,-0.9063 -5.0938,-2.0937 -3.5937,-1.4063 -1.5,-0.5937 -2.8125,-4.5 -0.1875,-3.9063 0,-0.6874 1.0937,-4.625 0.2813,-0.375 1.5,-2.4063 0.7187,-1 3.9063,-4.2187 5.375,-5.7813 0.625,-0.7187 2.2813,-1.7813 2.2187,-1.4063 0.5937,-0.3124 3.0938,-1.0938 1.5938,-1.5938 2.0937,-3.5937 1.125,-1.7187 2.375,-1.7813 0.625,-0.4063 1.7813,-0.5 2.5,-0.9062 2.8124,-1.0938 0.1876,-0.6874 0.9062,-2.625 0.9062,-2.7813 2.4063,-2.5 2.5,-1.4063 1.0937,-0.5937 1.7813,-0.5937 2.3125,-1.125 0.3125,-3.2813 -0.9063,-3.5937 -0.4054,-2.2189 -0.9062,-1.2812 -0.6876,-1.8126 -0.8124,-1.6874 -0.4063,-1.625 -0.375,-3.375 0,-2.625 0.094,-2.5938 0,-6.0938 -0.5937,-4.0937 -0.4063,-2.8125 -0.2187,-1 -3,-4.2812 -6.0937,-4.625 -6.7813,-3.375 -2.7187,-2 -4.2813,-3.4063 -2.2187,-5 -0.9063,-2.3125 -0.6875,-7.4062 -0.3125,-2.5 0,-1.875 0.5,-2.5 1.125,-3.8126 2.0937,-5.4062 0.2813,-0.7812 1.5,-5.8126 0.4063,-1.9062 1,-5.5 0.5937,-4.1875 0.125,-1.9063 0,-8.8124 -1,-4.0938 -2.5,-3.0938 -3.125,-4 -7.375,-5.8124 -0.7187,-0.5 -7.0938,-3.375 -1.1875,-0.9063 -1.3125,-1.0937 -0.5938,0 -2.5,0.094 -2.4062,0.094 -1.5938,0 -3,0.094 -0.5,0 -3.0937,-1.7812 -2.7187,-3.3126 -2.5938,-4.0937 -0.3125,-0.4063 -1.1875,-3.5 -0.5,-5.0937 -0.094,-1.4063 0.7813,-2.0937 0.4063,-4.0937 0.3124,-4.2188 -1.7187,-3.5 -1,-1.5938 -9.0937,-8.4062 -5.0938,-1.1875 -1.5,0 -4.9062,0.9063 -3.1876,0.6874 -3.0937,2.6876 -0.5,0.2187 -3.125,1.5 -3,-1.8125 -0.6875,-2.5938 -0.6875,-2 -1,-5.5937 -0.7187,-4 -0.4063,-2.7187 -1.2813,-4.875 -0.2187,-0.7188 -3.375,-6 -0.4063,-0.5938 -1.9062,-4.3124 -1.1875,-4.5938 0.2813,-8 -0.2813,-8.6875 0.1875,-3.2187 -0.094,-7.1876 0,-4.5 -0.094,-0.5937 -1.3125,-6.0937 -2.5938,-5 -7.5,-6.3126 -3.2187,-2.6874 -4,-3.3126 -1.7813,-4.4062 -1.2187,-2.9062 -0.5,-1.375 -12.375,0 -0.8125,0.5 -1.4062,0.7812 -1.9063,0.2188 -0.7187,-1.5 -855.0626,0 z"
     id="rect6"
     inkscape:connector-curvature="0" />
  <path
	 style="fill:#9FAEC0"
	 stroke="#9FAEC0"
	 stroke-width="10"
	 transform="translate(0, 75)"
     d="M 223.3125,2601.6563 220.5,2730.5938 217.6875,2858.3126 221,2862 l 0.5938,4.0938 0,9.7188 -3,13.1874 -3,11 -4.1876,10.4063 L 209,2914 l -3.5938,4.1876 -4,7.5 -2.9062,5.4062 -0.4062,6.0938 2.3124,6.9062 2.5938,4.0938 4,2.5 7.4062,2.3124 4.9063,2.3126 3.5,2.5 3.6875,4.5937 1.9062,6.0937 0,6.0938 1,5.0938 2.4063,4.5 L 236,2989 l 2.5,3.4063 5.6875,4.2813 3.5,2.3124 2.7187,3.6876 2.9063,4.4062 1.1875,4.5 -0.1875,3.5 -1.125,4.2188 -1.1875,4.5 -0.094,1.1874 -0.094,2.6876 0.1875,0.625 2.5938,4.5 2.5,2.375 3.5937,4.625 1.2187,1.375 3.1876,3.625 0.7187,1.1874 2.0937,3.6876 0.5,1.3124 2.5,5.5938 0.9063,3.0938 1.6875,10.3124 0.094,0.6876 0.5,7.4062 -0.094,0.7188 -0.6875,7.375 -0.625,3.125 -1.5937,3.7812 -0.7813,4.7188 -1.5,9 0,1.0937 0.375,2.5 0.9063,2.5937 5.0937,5.5938 4.625,4.8125 3,3.2813 3,7.2187 2.6875,3.9063 0.4062,0.5937 4.5938,4.0937 2.1875,0.6876 2.4063,1.625 2.0937,2 0.125,3.2812 -0.5,4 -0.125,0.7188 -1.6875,2.2812 -0.6875,1 -3.3125,5.0938 -0.9062,2 -0.5938,1.2187 -1.5938,5.0937 0,0.9063 0.094,2.6875 -0.4062,5.5 -0.1876,0.5 -1.4062,2.5938 -1.8125,3.8124 -0.375,0.5 -3.3125,4.4063 -2.0938,3 -3.5,8.1875 -3.2187,8.3125 -0.2813,0.9063 -0.8124,4.5937 -0.4063,1.4063 -3.2813,5.7812 -0.7187,0.5 -1.5,0.5 -1,0.3125 -2,0.4063 -0.5937,0.1874 -4.0938,0.6876 -3.0938,1.9062 -2.2187,1.8125 -0.2813,0.2813 -1.0937,2.7187 -0.2187,0.5937 -1,4.1876 0.8124,2.4062 0.2813,1.0938 1.4063,3.2187 0.5,1.0937 0.4062,0.5938 1.3125,0.9062 1.2813,1.0938 5.5937,0.5938 2.125,0.2187 1.375,0.5937 3.3125,2.0938 1.0938,0.9062 3.7187,3.3126 1.375,1.7812 2.625,3.8125 0.2813,0.6875 0.8124,1.7188 0.5,1.5 0.7813,3.5937 0.5,2.5 0.3125,4 0.094,1 1.5,6.5937 2.8124,3.3126 1.6876,2 0.4062,0.875 1.5,3.125 1.6875,3.375 -0.094,4.3124 0.094,2.5 -0.094,0.8126 0.7187,5.5937 1.1875,3.2813 0.3125,0.8124 1.5937,2.8126 0.2813,0.7812 1.3125,3.0938 1.1875,5.2187 0.7187,4.5937 1.7813,5 1.3125,3.9063 0.3125,0.7813 1.5937,7.8124 14.4063,14.5 -2.5,6.8126 1.5,8 1.5937,4.7812 4.7813,1.5938 2.8125,1.4062 2.6875,3.9062 1.8125,6 1.0938,8.8126 -0.094,6.2812 2.4062,12.3125 1.7813,9.7813 9.625,16 11.5,13.125 15.5,10.375 5.5,4.7187 2.375,5.9063 3,5.7812 5.2187,3.5 5.6876,4.8125 -0.9063,10.0937 1.7187,7.3126 -0.4062,5.7812 0.1875,6.4062 3,5.6876 5.3125,2.2187 3.5,3.1875 4.0938,3 3.9062,3.4062 5.6875,-0.4062 10.8125,-7.4062 5.3125,-2.875 7,-0.125 4.5937,0.4062 7.2813,1.2188 7.9063,4.1874 4.2187,4.6876 3.875,10.4062 4.9063,14 14.5937,16.9062 5.125,1.5938 6.2813,-0.7812 12.7187,-4 5,2.5 10.2813,1.5937 14.9062,2.2813 6.6875,6.125 8.125,7 9.5,10.875 3.5937,3.5 7.0938,3.4062 9.0938,19.3125 -2.5,18.9063 0.2187,6 0.7813,12.1874 0.9062,10 3.5,6.3126 5.5938,11 4.0937,1.1874 3.8125,7.9063 8.5,10.7813 11.3125,11.625 0.375,0.6874 1.625,5.6876 0.5937,4.3124 1.0938,3.8126 2.0938,2.5 2.5,0.875 1.2187,1.625 0.2813,0.5937 1,4 3,4.5 0.7187,1 1.0937,1.6875 1,3 1.1876,4.2188 0.2187,0.5937 0,5.5937 -0.2187,0.5 -2.9063,5.4063 -2.6875,6.4063 -0.3125,0.375 -3.5,4.4062 -0.875,1.0937 -1.7187,1.625 -1.5938,2.0938 -0.1875,0.7812 -0.625,2.5 0.3125,2.9063 0.4062,3 -0.5937,1.3125 -0.3125,0.9062 -0.9062,2.0938 -0.5938,0.5 -2,1.2812 -3,1.8124 -2.5,1.1876 -1.1875,0.8124 -2.3125,1.5 -2.4062,2.8126 -0.9063,1 -1,1.5938 -2.375,3.0937 -0.3125,0.4063 -2,3.2812 -1.3125,0.625 -0.875,0.2813 -2.7187,1 -1.7813,0.2187 -0.8125,0.094 -1.3125,0.5 -1.6875,1.7813 -0.1875,0.625 -0.3125,1.5937 -0.8125,3.2813 -0.6875,2.125 -0.1875,0.5 -1.3125,4 -1.3125,3.7812 -1.875,7.0938 -0.125,0.625 -1.375,5.1874 -2.4063,3.5 -2.9062,3.8126 -0.4062,1 -1.4063,3.2812 -1.5,3.7188 -0.7813,1.0937 -4.9062,3.4063 -0.5,0.5 -1.4062,1.6874 -0.5,0.8126 -0.5938,1.5937 -0.4062,1.4063 -0.094,5 -0.094,1.0937 -0.3124,3.5 -0.031,0.5938 1682.25,0 -2.5,-1.0938 -4.125,-1.4062 -1,-0.4063 -2.5937,-0.5937 -3,-0.094 -1.0938,-0.094 -3.6875,-2.5 -2.8125,-2.9063 -1.5938,-6 -0.094,-0.5937 -0.3125,-3.4063 -0.1875,-1.2187 -0.9063,-3.375 -2.3124,-4 -0.7813,-1.2188 -2.2187,-2.4062 -2.5,-3.5 -1.5938,-2 -1.9062,-1.875 -2.2813,-2 -0.9063,-0.7188 -2.8124,-2 -1.5938,-1 -1.5,-0.125 -0.5938,-0.3125 -2.0937,-0.7813 -1.2187,-3 -0.6876,-1.7812 1.4063,-3.8125 0.375,-3.5 0.5,-4.625 -1.6875,-1.2813 -0.4062,-0.2812 -2.5938,-1.3125 -1.9062,-0.625 -1.1876,0.3125 -3.5,1.125 -0.4062,0.094 -4.5,1.625 -4.0938,0.875 -0.7187,0.2187 -1.6875,1.7813 -1.6875,0.9062 -2.8125,1.7188 -1.1875,0.2812 -3.4063,0.7188 -4.5,-0.2188 -3.5937,-2.5 -1.8125,-4.9062 -2,-4.0938 -2.1875,-1.7812 -1.4063,-0.9063 -5.0937,-1.5 -0.5,-0.125 -3,2.0937 -5.8125,3.2188 -0.6875,0.5625 -2.4063,1.9375 -3.9062,3.2812 -3.5,2.5 -0.4062,0.2813 -3.9063,0 -3.1875,-1.6875 -2.5938,-1.8125 0.7813,-3.7813 0.4063,-0.7812 2.0937,-1.7188 2.4063,-4.0937 1.2187,-5.5 0.094,-0.625 1.0938,-4.2813 -0.1875,-11.7812 2.0937,-5.625 3.0938,-4.1875 1,-1.3125 2.4062,-3.3125 1.6876,-2.0625 1.5,-1.9375 0.8124,-1 -0.5,-2.875 -0.3124,-1.6875 -0.4063,-0.4375 -2,-2.0625 -1.375,-1.625 -1.7187,-1.5 -3.6876,-3.5938 -0.5937,-0.5937 -2.125,-2.6875 -3,-4.3125 -0.5,-1.125 -2.5937,-10.1875 -0.2813,-1.1875 1.5937,-1.9063 0.5938,-0.5 2.1875,-0.5 2.3125,-0.2812 1.6875,-0.2188 3.9063,-0.5937 1.5937,-1 1.9063,-0.9063 0.7187,-0.5 1.875,-1.9062 1.125,-1 1.7813,-1.5938 3.4062,-2.7187 3.8125,-0.7813 4,-1.5937 4.1875,-1.8125 1.3125,-0.5938 2.6875,-1.5 2.9062,-3.9062 1,-1.3125 2.1876,-5.2813 1.5,-6.2812 0.5937,-4.625 0.2187,-1.1875 -2.5937,-7.625 -4.3125,-2 -0.4062,-1.5 1.0937,-4.0625 3.4063,-3.8125 2.5,-2.6875 0.8124,-0.8125 1.9063,-3.9063 0.5,-1.0937 -0.8125,-7.4063 -1.3125,-4.5937 -2.5,-6.4063 -0.2813,-0.5937 -1.0937,-1.625 -3.8125,-4.0625 -3.9062,-2 -1.1876,-0.625 -2.3124,-0.3125 -3.5,-1.1875 -3.6876,-2.375 -1.7187,-0.7188 -0.2813,-0.5937 -1.7187,-3.1875 -0.5937,-1.2188 -2.1876,-2.0937 -2.8124,-2.6875 -1.5,-1.5 -0.7813,-0.5 -2.8125,-3.8125 -0.3125,-0.4063 -1.5937,-3.4062 -0.4063,-2.8125 0.625,-3.875 0.875,-7.125 -1.375,-1.7813 -0.7187,-0.5937 -0.7813,-0.625 -2.625,-0.5625 -1.875,-0.625 -2.125,-0.5 -3.6875,-1 -1.6875,-2.5938 -2.125,-3.2812 -0.375,-2.2188 0.375,-1.5 1.2187,-3.5937 0.9063,-1.3125 5.1875,-7.8125 1.5,-2.0625 2.9062,-2 1.2813,-0.9375 3.625,-3.875 2.1875,-9.125 0.3125,-1.375 3.2813,-4.8125 3.3124,-5.3125 2.0938,-4.875 1,-2.5 1.3125,-2.125 0.6875,-1.2813 1.5938,-1.4062 1.7187,-1.5938 1.0937,-1 0.9063,-1 3.7813,-6.7812 0.4062,-2.625 1.1875,-9.375 0.9063,-1.2188 1.5,-1.2812 2,-1.9375 1.7187,-1.2813 2.875,-2.4062 3.125,-1.375 2.5,-0.7188 0.5937,0.125 0.7813,-0.125 1,0.4063 2.125,0.875 3.1875,1.3125 3.0938,1.1875 0.8124,-0.094 2.1876,-0.5 2.4062,-1.0938 0.5938,-0.3125 2.5,-1.375 1,-0.625 6.4062,-3.5937 5.1875,-2.7813 2.8125,-1.7813 4.3125,-2.5937 3.0937,-0.8125 3.4063,-0.5 4.6875,2.3125 3,1.5 3.1875,2.6875 2.4063,2 3.0937,1.7188 3.2187,1.6874 0.5938,-0.1874 2,-2.4063 0.3125,-0.7187 0.094,-3.5938 0.9063,-5.0938 1.375,-3.0937 1.625,-4.4063 2.5937,-4.9062 1.7813,-3.4062 0.4063,-0.5 2.5937,-3.2813 2.9063,-3.5 1.5,-3.0937 -0.1876,-2.5 -0.2187,-3 -2.7813,-2 -1.7187,-1.2188 -2.7813,-4.5 -4,-7 -3,-2.1875 -1.0937,-0.9063 -2,-2.8124 -2.125,-2.5 -0.6875,-1.375 -1,-2.125 -1.0938,-4 -1.5,-5 -1.5937,-2.375 -2.8125,-3.9063 -3.5,-3.2187 -3,-2.875 -0.6875,-3.8126 -0.125,-1.9062 5.3125,-5.6875 4,-3.5 6.6875,-5 2.5,-3.3125 1,-1.6875 0.625,-1.3125 0.7813,-4.5938 -1.2813,-4.5 -0.7187,-2.5937 -4.5938,-9.7187 -2,-2.0938 -4.8125,-3.6875 -2,-1.5 -2.1875,-1.5 -4.0938,-1.9063 -3,-0.8124 -2.8124,-0.5 -1.4063,-0.2813 -3.375,-0.5937 -4.3125,-4.125 -1.1875,-1.0938 -0.7187,-0.5 -2.5938,-1.5 -0.4062,-0.2812 -1.5,0.094 -2.0938,-0.5937 -3.4062,1.1874 -2.0938,0.6876 -1.5,0.7187 -1.5,0.4063 -2.0938,0.1874 -0.4062,0.094 -1.5,-0.7812 -1.1875,-0.5 -1.625,-1.7188 -3.6875,-5.5 -0.3125,-0.7812 -0.1875,-1.5 0.094,-0.9063 0.3124,-2.2187 0.094,-0.6876 1,-2.9062 2.4062,-3.1875 1.7813,-1.4063 0.5,-0.4062 4.3125,-3.5 0.9062,-2.0938 -0.094,-2.8124 -0.5,-1.2813 -1.625,-3.8125 -1.0937,-1.5938 -0.2813,-0.4062 -2.4063,-2.1875 -8.9062,-1.7187 -5.1875,0.9062 -0.9063,-0.094 -1.2187,-0.1874 -2.0937,-0.625 -1.4063,-1.375 -0.375,-3.625 0.2813,-0.5938 1.7187,-3 1.0937,-2.9062 2.0938,-3.7813 3.9062,-7 0.9063,-1.2187 1.875,-1.5938 2.9063,-2.5938 3.3124,-3 0.5938,-0.5 1.3125,-1.0937 5,-2.5 0.5,-0.2187 2,-1.7813 1,-1.0937 0.6875,-2.5 -0.4062,-1.8126 -0.2813,-1.5 -2.4063,-4.6874 1.7813,-4.4063 2.125,-1.8125 2,-1.6875 0.2813,-0.4063 1.3124,-3 1,-3.3124 0.1876,-1.875 0.3124,-2.8126 0,-2.6874 -4.2187,-8.625 -1.875,-4.375 -1.9063,-2.8126 -1.0937,-3 -1.2187,-1.4062 -2.5938,-3.0938 -3.6875,-2.0937 -3.8125,-2.0937 -4.4062,-0.5 -4.5938,0.5 -4.5938,-0.7188 -3.2187,-0.5 -1,-0.094 -3,-2.6874 -3.5,-1.7188 -0.1875,-0.9062 -1,-3.2813 0.3125,-6.2187 0.094,-2.375 -2.3124,-6.3126 -2.1876,-5.9062 0.1876,-1.1875 1.2187,-5.4063 1.5937,-2.0937 1.2813,-1.8125 0.8125,-1 0.5938,-1 0.5,-2.5 0.7187,-2.9062 0.5937,-2.5938 2.5,-2 2,-1.0938 1.0938,-0.5937 1.4062,-0.4063 0.9063,-0.3124 3.0937,0.4062 3.5,0.4062 0.5,0 5.0938,0.4063 2.0938,0.1875 2,0.8125 3.2187,1.2813 0.875,0.2187 2.7187,0.094 3.0938,0.3126 1.4062,-1.125 3.5,-1.5938 2.5,-1.5 0.4063,-0.2812 3,-0.3126 3.0937,-0.4062 2.5938,-1.4062 1.5938,-2.7813 0.5,-4.2187 0,-0.6876 0.5,-3.4062 0.5,-10.1875 0.3124,-5.7187 0.094,-1.375 -0.3125,-3.7188 -0.7813,-2.7812 -0.5937,-2.8126 -1.125,-4.9062 -0.094,-0.5938 -1.6876,-6.1874 -0.094,-1.8126 0.7813,-6.5 -0.094,-2.6874 -0.6875,-7.2188 -0.625,-2.5 -0.1875,-1.5 -0.8125,-3 -0.1875,-0.6875 -2,-2.5937 -2.8125,-3.4063 -0.2813,-0.3125 -2.2187,-1.7812 -2.6875,-2.125 -3.5938,-6.5938 -0.7187,-3.1875 -0.2813,-2.3125 2.4063,-9.2812 0.375,-1.7188 0.3125,-0.7812 1.0938,-1.2188 2.3124,-1.5938 1.9063,-1.0937 0.7813,-0.4063 2.2187,-0.6874 5,-1.125 2.2813,-0.5 1.8124,-0.375 5.1876,-2.625 1.0937,-1 2.8125,-3.875 1.5938,-2.3126 0.8124,-3.1874 0.4063,-5.5 -1.5,-3.5 -1.625,-3.7188 -0.094,-1.1875 -0.5,-10 3.5,-7.0937 3.9062,-9 1.5938,-3.8126 3.4062,-9.6874 1,-3 0,-8.7188 0.4062,-13.6875 -0.2187,-7.3125 -0.1875,-4.9062 -2.0938,-5.1876 -2,-5.6874 -1.3124,-3.625 -0.094,-1.375 -0.094,-1.3126 1.4063,-7 1,-1.5 0.6875,-0.6874 8.1875,-8.3126 7.2187,-7.4062 2.2813,-2.4062 0.5,-0.375 1.4063,-1.5 1.2187,-1.4063 0.375,-0.8125 2.4063,-4.1875 0.3124,-0.9063 0.5938,-4.0937 0.4062,-3 0,-2.0937 0.4063,-0.8126 2.1875,-5.8124 0.4062,-1.1876 0.6876,-1.0937 1.9062,-1.5 1.5,-1.2187 0.6875,-0.7813 1,-2.4063 -1.0937,-2.3124 -0.5938,-1 -0.4062,-0.5938 -1,-1 -2.0938,-1.5 -2.4062,-1.6875 -0.4063,-1.5937 -0.6875,-2.5 1.0938,-4.7188 0.5937,-2.6875 0.8125,-3.8125 -0.3125,-1.7812 -0.5,-0.9063 -0.875,-1.8125 -1.5,-1.7812 -1.4063,-1.2188 -2.9062,-1.5938 -1.6875,-1 -3.5,-5.5937 -0.4063,-0.9063 -1.3124,-3.4062 -0.1876,-0.5 -0.5937,-4.5 -1.7187,-5 -0.094,-5.0938 0,-7.5937 3,-5.5937 6.1875,-2.3126 0.9063,-0.3124 3.0937,0.3124 2.4063,-0.094 4.4062,0 1.8125,0.094 4.0937,0 5.0938,-1 1.8125,-0.9062 2.6875,-0.7812 5.4062,-3.625 1.9063,-2.1876 0.5,-0.5 1.5937,-3.9062 -1.0937,-3.9062 -0.8125,-2.875 -0.1875,-0.9063 -1.625,-5.9063 -0.2813,-0.9062 1.6876,-5.5938 0.9062,-4.8124 -0.5938,-2.7813 -0.2187,-1 -0.5,-2.2187 0,-9.0938 2.4063,-8.2812 2.0937,-4 1.7187,-3.4063 1.5938,-3.3125 1.5938,-4.9062 0.3124,-3.5938 -1.0937,-4.0938 -0.5,-1.6874 -0.8125,-1.8126 -0.4062,-0.5 -1.7813,-2.4062 -1.125,-2.5 0.2187,-2.4062 1.2813,-2 1.4063,-2.0938 0.7187,-0.9062 0.7813,-0.6876 0.094,-0.5937 0.625,-1.8125 2,-2.2812 0.375,-0.4063 1.7187,-3.4063 0.9063,-1.3124 1.1875,-2.5 1.5,-3.5 0,-1.0938 0.1875,-2.1875 -0.1875,-1.8125 -0.4062,-1.2812 -0.2813,-1.8126 -0.125,-1.6874 1.125,-4.9063 0.1875,-0.8125 1.0938,-8.9062 0.094,-0.7813 -0.1875,-3.3125 0,-3.5938 -0.094,-5.3124 -0.8124,-4.7813 -0.1876,-0.7187 -1,-3.1876 -4,-6.0937 -0.4062,-0.5 -2.5938,-1.3125 -4.0937,-2.1875 -1.125,-0.5 -0.7813,-0.4063 -4.8124,-2.1874 -2.9063,-1.5 -1.7813,-0.8126 -5.5937,-1.9062 -0.7187,-0.2812 -2,-0.625 -4,-0.2813 -5.5,1.2813 -3.0938,1.3124 -1,0.9063 -5.9062,0.9063 -3.2813,0.5937 -2.7187,0.5937 -4.7813,0.6876 -1.125,0.625 -2.5937,1.5 -2.6876,2.1874 -5.3124,0.4063 -4.0938,-0.8125 -5,0.8125 -6.5,2.7813 -5.0938,3.125 -1.0937,1.1874 -2.4063,2.5938 -2.5,2.9062 -1,4.3126 -1.3124,5.2812 -0.094,0.5938 -4.0938,5.2187 -2.5,2.0937 -0.5937,0.1876 -4,-0.1876 -3.625,0.4063 -0.375,0 -3.125,-1.4063 -3.875,-1.4062 -2.3125,-0.6875 -4.5938,-3.2187 -1.4062,-0.7813 -3.5,-3.5 -0.8125,0 -3.7813,1 -0.7187,0.2813 -0.7813,0 -2,0.125 -2.8124,0.094 -2.7813,0.4063 -3,0 -1.8125,-0.7188 -1.8125,-1.0938 -2.0937,-3.5 -0.6876,-2 -1.3124,-3.0937 -4.7813,-1.3125 -0.8125,-0.1875 -3.5938,3.4063 -2.9062,2.6874 -0.5938,0.4063 -2.4062,1 -1.5938,0.7813 -1.4062,0.3124 -2.5938,0.6876 -5.9062,0.625 -3.6875,1 -4.2187,2.0937 -3,1.5937 -3.5938,1.6876 -0.8125,0.7187 -0.5,0.1875 -0.5937,0.3125 -1.5,0.1875 -0.5938,0.094 -2,-0.6876 -1.9062,-0.6874 -5.6876,-0.125 -1.3124,-0.094 -0.6876,0 -2.4062,-0.094 -0.6875,0 -1.9063,-1.8124 -0.5,-1.2813 1.0938,-11.8125 -2.8125,-6.0938 -7.375,-2.5 -4.4063,-2.5937 -0.094,-0.7187 -3.125,-2.375 -1.1875,-0.7188 -1.6875,-1.1875 -0.4063,-1.5 0,-6.5 -0.5,-3.0937 -0.094,-0.6563 -1834.5,0 z m 2351.1875,1075.75 -5.8125,2.1875 -2.875,4.4062 -0.7187,0.3126 -1.6876,1.5937 -1.8124,0.9063 -2.9063,0.2812 -2.0937,0.2188 -1,0 -2.5,0.5 -0.9063,0.375 -1.1875,1.2187 -1,2.5937 0.3125,2.0938 0.875,1.8125 0.125,0.6875 0.1875,2.5938 -0.4062,1.9062 -2.1876,1.8125 -2.8124,2.2813 -1.5938,1.9062 -0.6875,0.9062 0.2813,3.8126 2,3.6874 2.5937,5 1.125,2.0938 1,1.9062 1.375,3.5938 0.3125,0.5938 -0.5,4.2187 -0.6875,2.1875 -0.625,1.0938 -1.5937,2.2187 -3.5938,2 -0.6875,0.1875 -0.8125,0.2188 -5.5,1.7812 -6.3125,4.9062 -0.5,0.5938 -4.875,5.7188 -1.4063,0.5937 -4.4062,3.2813 -2,0.8124 -0.9062,0.6876 -4.0938,3.3124 -0.5938,1 -3.3124,5.3126 -1.0938,1.7812 -0.5,1 -2.1875,4.3125 -1.5,3.0937 -0.5,0.5 -2.5,2.5938 -1.4063,9.8125 -0.094,0.9062 -0.625,5.0938 -2.875,4.4062 -1.7187,3.2813 -0.7813,0.7187 -3.8125,3 -3.0938,1.2813 -0.5,0.094 -4,0.3123 -5,0.3127 -1.0937,0.375 -1.3125,0.4062 -1.0938,0.5 -2.7187,1.2188 -0.6875,0.5 -2.9062,2.1873 -1,1.1877 -2.2813,2.5 -1.2187,3.5 0,1 -0.094,3.125 0.094,1.875 0.094,3.7187 -1.875,3.5 -2.3125,4.1875 -4,2.3125 -3.5,0.094 -1.4062,0.3126 -1.2813,0.2812 -0.8125,0.2188 -2.5,0.875 -2.5,1.125 -2.0938,0.5937 -1,0.2813 -3.5,0.7187 -2.9062,1 -1.1875,0.2813 -4,0.9062 -0.9063,0.4062 -2.2187,0.5 -3.6875,2.0938 -2.3125,3.4062 -1,1.5938 -1.5,2.9062 -0.7813,1.4063 -1.5,2.7813 -2.5,1.125 -4.3124,1.0937 -2.1876,-1.4063 -6.4062,-3.8124 -13.0938,-7.7813 -6.4062,-1.0937 -4.5,0.5 -0.8125,0.2812 -2.2813,1.2188 -0.4062,0.5937 -1.1875,1.9063 -0.125,1 0.3125,4 0.3125,5.2812 0.1875,3.8125 0.5938,4.7813 -0.4063,3.8124 -0.2813,0.5938 -1.0937,2.5 -0.2187,0.5938 -1.5,3.7187 -1.7813,3.5 -2.2187,4.2813 -1.5938,2.8124 -0.9062,4 386.8437,0 -1.0313,-3.5 -0.4062,-1.0937 -0.4062,-3.9063 -0.5938,-4.5 -0.6875,-4.5 -0.125,-0.5937 -1.1875,-3.2188 -1.4062,-2.7812 -3.7813,-1.8125 -0.4063,-0.094 -2.7187,-0.4063 -3,-0.094 -0.875,0 -4,0.6876 -6.625,0.8124 -1.5937,0 -7.6876,0.4063 -0.8124,0.094 -5.2813,0.9063 -4.3125,1.5937 -3.9062,2.8126 -2.4063,-1.8126 0.8125,-2 0.5,-1.1874 2.1875,-5.125 0.8125,-6.375 0.5938,-5.7187 2.5937,-6.0938 0.3125,-0.5937 2.0938,-6 0.5,-1.5 0.4062,-1.0938 3.5,-10.2187 0,-2.2813 -0.5,-8.3126 0.9062,-1.3124 1.2813,-1.875 0.7187,-0.9062 1.7813,-1.0938 1.8125,-1 0.6875,-0.4062 1.625,-1 2.2813,-3.4063 1.7187,-1.9062 0.7813,-1.5938 0.094,-2 -1.2813,-3.4062 -1.4062,-3.5938 -2,-3.9062 -2.6875,-5.1875 -0.9063,-1.2187 -1.2187,-1.6877 -2.5,-3.1873 -3.375,-3.7188 -1.7187,-1.7812 -2.0938,-0.7188 -3.5,-1.1875 -2.5,0.5936 -3.0938,0.5939 -0.4062,0 -6.1875,0.3125 -3,-3.5937 -0.7187,-0.8127 -6,-7.1873 -6,-1.8127 -0.5938,0 -1.0938,0.094 -0.5,0.094 -0.5,0 -1.4062,0.4061 -2.5938,0.8125 -3.4062,1.6875 -2.6875,1.0939 -1.3125,0.8123 -3.6875,2.0938 -3.3125,-0.1875 -2.0938,-0.2186 -1.2187,0 -1.875,-0.1877 -3.125,-1 -2.6875,-0.9062 -1.9062,-2.5938 -0.4063,-0.6873 -1,-2.7189 0.5,-1.9061 0.2187,-0.6877 1.0938,-1.3123 1.0938,-1.1877 1.4062,-1.5937 0.6875,-1.9063 1.2187,-3.6873 1.6876,-6.3127 0.7187,-2.5937 0.1875,-2.8125 -1.5938,-2.4061 -1.0937,-1.5939 -1.3125,-1.1875 -3.5938,-3.2186 -1.4062,-1.2814 -1.8125,-1.7186 -1.5,-1 -1.5,-1.5 -1.375,-0.875 -2.2187,-2 -1.5,-1.4064 -1.5938,-1.5936 -1.0938,-1.3127 -1.4062,-1.8123 -1.8125,-2.5939 -2.6875,-4.5938 -0.5,-0.9062 -1.0938,-4.5938 -0.7187,-3 -0.375,-1.8123 -0.2187,-3.5939 0,-3.6875 0.094,-1.4063 -0.5,-3.9062 -5.6875,-1.5 -2.5938,1 -0.8124,0.5939 -2.4063,1.7186 -0.875,0.5937 -3.2187,1.8127 -2.4063,1.6873 -0.375,0.094 -3.625,1 -1.7813,0.4062 -1.2187,-0.094 -0.5,-0.094 -2.0937,-2.125 -0.5,-2.7813 -0.5,-2 -0.2813,-1.5937 -0.4063,-1.4063 -2.9062,-5.8125 -0.4062,-0.6875 -3.6876,-1.3125 -2,-0.5938 -1.5937,-0.094 -0.8125,0 z"
     id="rect8"
     inkscape:connector-curvature="0" />
  <path
	 style="fill:#9FAEC0"
	 stroke="#9FAEC0"
	 stroke-width="10"
	 transform="translate(0, 50)"
     d="m 571.0625,3902.5 -0.062,1.5 -0.1875,1.9063 -0.5,7.5937 -0.2187,4.0938 0.9062,4.5 0.9062,4.0937 0,0.625 0.094,3.0938 0.094,2.5 -1.6876,3.4062 -1,1.5938 -0.7187,0.7812 -3.5937,4.2188 -0.6876,0.4062 -1.9062,1.5938 -5.5938,4.7812 -2.2187,1.7188 -4.375,4.4062 -5.8125,8 -2.1875,7.6874 -0.3125,1.0938 -0.094,4.3125 -0.2187,7.4063 -1.5,6.2812 -3,6.4062 -3.7813,3.5938 -3.2187,3.0938 -1.0937,0.8124 -3,2.4063 -0.5,0.7813 -4.2813,5.4062 -1.5,2.7188 -3.4063,6.0937 -3.5937,7.0937 -2.8125,6.0938 -1.4062,2.3125 -5.2813,8.4063 -1.5,2.1874 -4.2187,6.4063 -2.5938,4.2813 -2.3125,4 -1.0937,1.9062 -3.5,6.0938 -4.4063,8.3124 -2.7813,4.9063 -3.2187,5.6875 -1.375,4.5 -1.125,4 -0.7813,8.0938 -0.2187,1.2187 0.3125,3.5 1.8125,12.5937 0,1.5938 -0.4063,7.5938 -0.5937,6.125 -1.9063,5 -1.0937,1.875 -0.7187,0.9062 -1.1876,1.3125 -2.9062,3.9063 -1.4062,0.6874 -6.5,7.6876 -1.1876,1.4062 -2.9062,10.4062 -0.5938,2.1876 -1.8124,5.625 -3.4063,14 -2.375,11.0937 -1.5,6.6875 -0.9063,4.3125 -1.5937,6.7813 -0.625,3 -1.0937,5.4062 -0.5938,2.4062 -5,13.3126 -0.6875,2.1874 -2.625,7.9063 -0.2813,1 -0.9062,4.5937 -0.3125,2 -0.094,3 -0.5,6.0938 -1.5,7 -0.5,2 -3.2813,8.3125 -4.2187,4.5 -2.4063,2.5 -0.5937,1.0937 -1.9063,2.8126 -0.2813,0.5 -1.4062,3.875 -1.1875,3.625 -0.4063,0.6874 -3.5,6 -0.3124,0.4063 -4.5,6.1875 -0.5938,0.4062 -5,3.5 -3.6875,1.6876 -2.125,1.5 -1.7813,1.5 -5.8124,7.125 -0.2813,0.5 -2.3125,4.0937 -0.1875,6.0937 0.094,0.8126 0.6876,2.6874 0.3124,3 0.1876,1.1876 -1.0938,3.5 0.3125,1.3124 -3,5.1876 -0.9063,1.2187 -2.5937,3.9063 -1.625,2.5 -0.6875,1.1874 -1.9062,3.3126 -2.2813,4.1874 -0.5,0.6876 -3.9063,4.625 -2.8124,2.875 -1,1.125 -1.6876,1.5937 -2,1.9063 -3,2.875 -2,2 -0.4062,0.3124 -3.1875,3.1876 -2.2187,2.125 -3.1876,2.5 -1.7187,1.0937 -0.5,0.2813 -2.5,2.125 -6,5.375 -1.5,4.5 -0.1875,1.5 -0.3125,2.9062 0.4063,11.8125 0.3124,6.5 -0.094,0.5937 -1.5,5.9063 -0.9063,3 -3.4062,6.1875 -1.8125,5.9062 -1.5,5.9063 1.5,2.9063 0.4063,0.1874 2.4062,1.3126 3.0938,-2.5 3.0937,-5.2188 2.7187,-4.5 3.0938,-0.7812 0.8125,0.1874 3,1.9063 0.2813,0.5 -0.094,5.4063 -2.0938,4 -0.7187,0.6874 -0.5,0.4063 -3.875,3.1875 -4.5,3.8125 -3.2187,2.5937 -1.7813,3.1876 2.2813,7.7187 0.5937,0.9063 3.2187,5.6874 2.5938,7.8126 2.4062,6.1874 0.1876,0.5938 0.094,0.9062 -0.1875,4.0938 -0.4062,2.4062 -0.9063,4.5938 -2.2813,8.0938 -0.5937,1 -2.5,7.9062 -0.7187,1.5938 -2.2813,5.3124 -0.5,1.0938 -1,2.5 -1.125,4.0938 -1.5937,4.9062 -2.2813,6.2188 -2.8125,7.5937 -0.5,0.7813 -1.9062,3.2187 -1.5938,2.1875 -0.5,0.5938 -4.5,6.4062 -3,2.5938 -1.0938,0.7187 -1.5937,1.4063 -1,0.875 -0.7187,0.8124 -3.2813,3.5938 -4.3125,5.5938 -2.8125,3 -0.2813,0.8124 -2,5.4063 -1.9062,4.9063 -4.5,5.7812 -2.9062,4.4062 -2.5,4.8126 -3,5.0937 -0.5938,0.9063 -4,5.2812 -0.5938,0.5 -3.3124,3.9062 -3.2813,3.8126 -2.125,3.0937 -0.875,0.6875 -1.4063,4.2188 -1.7187,4.375 0.125,0.9062 0,4.5938 -0.3125,3.625 0.1875,0.7812 -1,2.7188 -0.094,1.5 -2.9063,4.1874 -0.5,0.3126 -4.1875,2.0937 -1.4062,0.5 -8.5,2.9063 -1.5,0.5937 -8.7813,3.0937 -1.125,0.4063 -0.6875,0.6875 -3,2.5938 -1.8125,1.5 -1.875,2 -5.625,5.625 -1.1875,0.7812 -3.6875,2.0938 -3.9063,2.125 -0.7187,0.1874 -4.0937,0.5 -5.6876,0.8126 -5.2187,0.875 -0.875,0.3124 -7.3125,2.5938 -3,1.0938 -1.1875,0.7187 -4.4063,2.9063 -0.9062,0.6874 -4.4062,3.0938 -1.6876,1.2188 -0.4062,0.6874 -1,2.1876 -0.6875,1.7187 -1.2187,2.6875 -2.2813,3.4062 -3.2187,2.3126 -2,1 -0.2813,0.6874 -1.2187,2 -0.5938,2 -0.094,1.1876 -0.5937,5.5 -0.9063,7.5 -0.094,1.125 -0.3125,4.5 -2,2.6874 -3.5,4.8126 -1.8125,2.875 -1.1875,1.7187 -3.0938,4.0937 -0.5,1 -2,4.1876 -0.5,4.5 -0.094,4.2187 -0.125,3.0937 -1.7813,3.9063 -2.5,4 -5,4.0937 -0.5937,0.5938 -2.125,3.5 -1.5,3.4062 0,11.8126 -1.375,6.375 -3.3125,7.9062 -1.4062,2.8125 -1.0938,1.2813 -1.4062,1.7187 -2.4063,2.7813 -1.6875,1.9062 -1.1875,1.8125 -2.3125,3.2813 -2.3125,5.5 -1.0937,2.7187 -0.2813,1.5937 -0.7187,4.3126 0,1.2812 0.2187,4.0938 -0.2187,2.3124 -0.094,2.1876 -1,6.125 -0.5938,6.0937 -0.7187,2.1875 -2.5,7.0938 -0.5,0.8124 -2.2813,2.9063 -3,2.6875 -0.5,0.4062 -4.0937,3.1876 -1.125,0.7187 -1,0.6875 -0.6875,0.5938 -2,6.9062 0.094,1 0.4062,2.5938 0.1875,1.5 0.4063,5.5 0.094,1.2187 -0.1875,0.7813 -1,4.7187 -2.0938,8 -1.5,5.5 -0.2187,0.7813 -0.875,1.5 -1.8125,2.4062 -0.4062,0.5 -3,4.0938 -0.9063,0.625 -2.2813,1.0937 -2.9062,1.0937 -0.5,0.094 -4.0938,0.8125 -1,0.1875 -3.0937,0.5 -1,0.5 -3.5,1.8125 -1.2187,0.9063 -2.4063,2.0937 -3.7813,6.4063 -0.8124,2.5 -1.5,5.2812 -1.6876,4 -1.4062,3 -1.8125,4.0938 -0.875,1.125 -2.2187,2.6874 -1,0.6876 -2.2813,1.3124 -2.4063,0.9063 -3.0937,1.2813 -1.5,0.3124 -4.125,0.4063 -3,2.5 -2,5.0937 0.125,2 0.375,4.5938 1.3125,4.2188 0.4062,1.0937 1.0938,4.4063 0.3125,0.5937 1.7813,4.5 0.8124,1.9063 0.4063,1 0.7813,8.5937 0,1.0937 -0.1876,4.5 0,4.5938 -0.094,3.5 -0.125,5.2188 0.2187,3.375 0,2.5 -0.4062,0.5 -0.4062,0.4062 -1.5,5.5938 -2.7813,7.7187 -2.625,4.4063 -0.5,0.5937 -2.375,3.1875 -4.9063,4.7188 -1.9062,2.5937 -0.9062,1.4063 -2,3.375 -0.1876,0.5 -2.0937,6.7187 -0.3125,0.9063 0.6875,3.6874 0.5,1 6.2187,12.5 0.7813,1.5938 4.625,4.5 1.7813,1.5938 4.9062,4.3124 2.4062,2.4063 2.2813,2.1875 4.9063,4.7188 0.4062,0.5937 3.6875,5.9063 3.8125,6.1874 0.1875,0.5 1.5,5.3126 0.7187,4.5937 -0.8124,4.4063 -0.2813,1 -1.125,3.2812 -0.6875,1.5938 -2.5,4.3124 -1.4062,2.1876 -3.2188,4.6562 4909.5312,0 -11.7187,-233.1562 -0.875,-0.094 -10,-1.9062 -0.5,-0.094 -11.4063,-3.7812 -8.5937,-1.625 -5.8125,-1.1876 -6.9063,-2 -6.9062,-2.0937 -3.875,-3.3125 -0.5,-0.2812 -3.7188,-2.9063 -0.5937,-0.5 -2.5938,-3 -0.5,-0.9063 -2.5,-4.4062 -0.5,-0.9062 -2.0937,-4.0938 -0.5,-0.9062 -1.625,-8.7813 -0.094,-4.5 0.3124,-1.2187 1.5,-6.1876 -0.5,-2.1874 -0.2187,-0.7188 -1,-2.0938 -1.6875,-1 -1.5938,-0.4062 -1.4062,-0.6875 -1.0938,-0.125 -2.0937,0 -0.9063,-0.2187 -2.3124,-0.2813 -2.2813,-3.5 -1.7187,-2.4063 -1.0938,-1.5937 -0.1875,-0.625 -4.8125,-2.7813 -1.0938,0 -3.5,-0.3124 -2.5,-0.5 -2.7187,-0.5 -1.5937,-1.5 -2.5,-4.7813 -0.9063,-3.8125 -0.5,-1.5938 -0.2813,-1.8124 -0.8124,-2 -0.7813,-1.7813 -0.625,-1.3125 -1.6875,-3 -4.1875,-3.5 -1.8125,-0.6875 -8,-4.125 -2.9062,-0.2813 -2.6876,-0.094 -2.9062,-0.125 -5.0938,1.2187 -0.4062,0 -1.8125,0.1876 -4.5,-1.4063 -0.875,-0.5 -2.3125,-2.1875 -1.5,-5.0938 -0.5,-1.4062 -1.0938,-13.1875 -0.5,-1.4063 -1.5,-4.8124 -1.2187,-3.0938 -0.5937,-1.4062 -3.6876,-3.1876 -0.7187,-1.8124 0.4063,-1.9063 1.3124,-2.1875 3.9063,-1.8125 0.7813,-0.375 1.9062,-0.7187 0.8125,-0.2813 3.5,-0.5 2.1875,-0.3125 0.6875,-0.1875 1.625,-1.4063 0.7813,-1.7187 -4,-4 -4.1876,-4.5 -3.9062,-5.1875 -5.1875,-7 -2.9063,-2.0938 -0.9062,-0.5 -3.0938,-1 -1.4062,-0.5 -2.0938,-0.5937 -1.3124,-3.3125 -2.0938,-1.9062 -3,1 -2,0.8124 -4.4062,2.4063 -5.0938,-0.2187 -0.5,-0.2813 -2.0938,-2.625 -0.5937,-0.7813 -0.3125,-4.9062 1,-1.9062 1.1875,-2.7813 3.3125,-4.7813 1.5938,-2.6874 -0.4063,-1.4063 -0.5,-2 -2.0937,-3.3125 -0.2813,-0.4062 -5,-5 -1.7187,-3.1876 -0.9063,-1.6874 -0.6875,-1.3126 -0.6875,-1 -1.3125,-1.1874 -2.1875,-2 -4.8116,-4.2183 -1.5938,-4.5937 -1.0937,-3.3124 -1.2187,-3.5 -0.2813,-0.2813 -5.5,-4.5937 -3.125,-2.5 -1.1875,-1 -2.9062,-2.5 L 4704,4718 l -1.4062,-0.9063 -0.5938,-0.4062 -0.5938,-0.5 -2.9062,-3.1876 -0.3125,-1.6874 -0.5937,-3.5 -0.094,-0.625 -1.6875,-3.5938 -0.2187,-0.5937 -1.7813,-1.6874 -2.3125,-1.7188 -1.4062,-0.7812 -3.5,-1 -1.1876,0.1874 -4.5,2.5 -0.9062,0.4062 -3.8125,1.5938 -0.5937,0.3126 -3.5938,-0.7188 -3.3125,-0.5938 -0.7813,-1.3124 -6.5937,-10.875 -0.3125,-0.5 -2.6875,-4.4063 -2.8125,-4.2187 -3.3125,-4.875 -3.6875,0.094 -1.4062,0.2813 -3.0938,0.7187 -3.6875,2.5 -1.5,2.6875 -0.4063,2.5 -0.7187,1.9062 -0.1875,0.6876 -0.1875,7.2187 -0.125,3.5 0.125,2.4063 -0.125,2.1874 0,4.5 -1.1875,3 -1.8125,4.5938 -0.375,0.5 -2.9063,3.7188 -0.7187,0.7812 -2.5,2.7188 -4.5937,0.875 -0.5,0.125 -2.5938,-1.125 -0.8125,-0.7813 -2.2813,-2.5 -0.4062,-0.5 -3,-2.8125 -1.6875,-1.5938 -0.4063,-0.3124 -1.406,-0.5941 -0.8125,-0.1875 -0.875,-0.2187 -2.625,0.5 -0.875,0.4062 -2,0.8125 -4.625,2.5937 -6.7813,3.5 -2.5,1 -5,1.9063 -1,0.5 -7.5,3.0937 -1,0.8126 -3.3124,2.6874 -2.7813,4.1876 -0.8125,1.125 0.4062,3.375 0.2813,1.5 1.625,7.2187 0.2813,0.7813 1.5937,3.5 3.9063,4.125 2.4062,3.375 1.5,2.9062 0.3125,0.9062 0.875,2.9063 0.7187,4.5937 0.4063,3.1876 -1.4063,3.8124 -1.4062,2.9063 -2.0938,4.4063 -2.3124,4.6874 -3.0938,5.4063 -1.9062,2.5937 -1.6876,3.4063 -2.2187,1.5937 -2.5,-0.5 -3.0937,-0.5 -4.7813,-0.8124 -2.9063,0 -1.3124,0.125 -1.6876,0.375 -1.0937,2.8124 0.5937,2.6876 2.4063,2.5 2.5937,3.7187 2.1876,2.4063 1.2187,2.375 -1.3125,3.8124 -2.9062,4.4063 -1.1876,1.2813 -4.9062,5 -1.8125,2.4062 -1.2813,7.8125 0.4063,3.6875 0.5937,8.0938 1.1876,5.7187 0.7187,1.5937 2,5.1876 2.6875,4.625 2.8125,2.6874 3.0937,3 2.2813,2.1876 0.2187,0.7187 0.094,1.4063 0.3125,2.5 -1.2187,2.1874 -1.1876,2.4063 -0.8124,1.5 0.7187,1.6875 0.6875,0.8125 4.5,0.9063 2,-0.3126 2,-0.4062 3.0938,0.4062 1.0937,0.3126 1.4063,0.875 3.3124,1.9062 6.5,3.7188 1.7813,-0.5 1.2187,-0.2188 2.2813,-0.5 0.8125,0 1.3125,-0.094 0.5937,0.5 0.5,0.5 1.0938,2 0.1875,1.4063 0.8125,4 0.094,0.9063 0.5,1.5937 1.2187,3.4063 -1.8125,2.1874 -2.5938,0.5938 -0.7187,-0.094 -4.5937,-0.6874 -5.0938,-0.8126 -2.5938,-0.5 -1.0937,0.3126 -1.5,-0.3126 -3.125,0.1876 -1.875,0.625 -1.625,0.5937 -3,1 -0.5,0.1875 -2.375,2.2188 -2.625,2.5 -3.2813,1.2812 -2.0937,-0.5 -2.125,-1.0938 -0.6875,-0.4062 -2.5,-3.6875 -1.3125,-1.8125 -1.1875,-1.9062 -2.3125,-2.6876 -0.7813,-0.8124 -4.9062,-3.375 -2,-1.4063 -1.9062,-0.8125 -3.2813,-1.2812 -2,-1 -1.125,-0.5 -4.5937,-0.3126 -1.7813,1 -2.625,0.5 -3,0.5937 -3.1875,-1.2812 -1.9062,-0.7188 -1.7813,-1 -3.3125,-2 -1.9062,-1.0937 -2.1876,-0.5 -1.5937,-0.3124 -4,0.2187 -1,0.2813 -5.7187,1.4062 -0.5938,0.5938 -2.5,1.8124 -0.5938,0.5937 -6.8124,6.0938 -1.5938,1.2187 -2.5,1.4063 -1.8125,1 -0.6875,0.375 -8.1875,-2.375 -3.5,-0.4063 -4.125,0.5 -1.375,-0.2187 -0.625,-0.094 -1,-0.094 -2.7813,-0.5937 -3.5,-1.4063 -0.4062,0.094 -2.5938,0.4062 -3.5,0 -3.2187,0.3126 -5.6875,-0.7187 -3.5938,-1.9063 -6.3124,-3.2812 -4.5,0.5937 -4.5938,0.4063 -5.3125,0.9062 -2.7813,0 -0.5937,0.375 -3.2187,2.2188 -2.5938,3.5937 -0.1875,0.5938 -1,3.3125 -0.3125,0.5 -2,3.1875 -0.4062,0.2187 -4.5938,2.6874 -0.4062,0.094 -7.6876,2 -1,0.2188 -5.5,1.2812 -5.0937,2.5 -3,1.5 -1.2187,1 -3.4063,3.0938 -0.5,0.5 -1.375,1.7187 -1.125,1.2813 -1.5,1.5 -0.7813,2.5 -1.2187,0.125 -0.875,0.094 -0.9063,0 -1.2187,-0.2187 -1.5937,-0.5938 -2.5,-0.9062 -0.5,0.4062 -1.9063,1.4062 -4.5,2.5938 -3,1.2188 -2.7813,0.2812 -2.8124,-0.5 -2.2813,-0.4062 -1.5,0.3124 -2.3125,0.5 -3.4062,0.8126 -2.5,4 -1.2813,6.1874 -0.8125,1.5 -3.4062,3.3126 -0.5,0.094 -3.0938,0.2813 -1.6875,0.2187 -3.2187,-2.5937 -0.5,-0.4063 -1.1876,-1.9063 -2.2187,-3.6874 -1.375,-1.9062 -1.7187,-1.5938 -1.5938,-1.625 -3.4062,-2.5937 -3,-3 -1.5938,-2.7813 -1.8125,-4 -1.6875,-4 -1.4062,-2.7187 -0.7813,-1.4063 -0.4063,-0.5 -1.7187,-2.2812 -2.5937,-3.5938 -0.7813,-0.8126 -2.125,-2.5 -0.375,-0.4062 -1.9063,-3.4062 -0.3124,-0.5 -1.4063,-4 -0.7813,-2.5 -0.5,-2.875 -0.094,-0.7188 -1.2187,-1.4062 -2.5,0.5 -0.4063,0.125 -1.875,1.1874 -2.625,1.5938 -1,0.5938 -1.1875,0.4062 -0.4062,0.094 -1.4063,-0.5938 -4.7813,-1.7812 -3.3124,2.7812 -2.0938,2.0938 -0.9062,0.8124 -4,2 -3.2813,0.5938 -2.7187,0.4062 -7.5,0.9063 -2.1876,0.1875 -0.8124,0 -6.6876,-0.094 -4.2187,-0.094 -2.7813,-0.3125 -0.8124,0.094 -4,0.7187 -0.6876,0.4063 -3.2187,5.875 -1.1875,1.5 -0.9062,0.625 -1.1876,0.6874 -1.9062,1.0938 -2.9062,1.7188 -2.6876,2.5937 -2.2187,2 -2.2813,2.2813 -2.7187,2.3124 -0.6875,0.3126 -4.8125,1.5937 -3.875,0.7813 -2.7187,0.2187 -6.9063,0.4063 -3.2813,-1.2188 -0.9062,-0.4062 -2.1875,-1.2813 -2.3125,-2.0937 -1,-0.7188 -1,-0.1875 -2.5,0 -3.5938,0.094 -1,0.094 -2.0937,-0.6875 -2.625,-1.3125 -1.5,-0.1875 -1.0937,0.094 -3.7813,0.5 -0.5,0.4063 -1.625,1.9063 -0.6875,1.6874 1.4062,1.5 2.4063,2.4063 2.375,2.5 4,4 -1.2813,3.2813 -2.8124,0.4062 -1.6876,-0.5 -1.4062,-0.4062 -0.5938,-0.2813 -3.0937,-1.5 -1.625,-1.0937 -4.2813,-2.9063 -4.2187,-2.7187 -2.2813,-0.5938 -1,-0.094 -3.3124,0 -2.2813,0.094 -4.125,1.3125 -9.0937,3.2813 -1,0.4062 -1.5,0.7188 -1.9063,0.875 -4.375,1.625 -1,1.1874 -1.2187,1.5 -3.1876,3.8126 -0.7187,0.375 -2.875,1.2187 -0.5,0.094 -4.125,-0.1874 -3.5,-1.125 -2.0937,-1.0938 -2.1876,-1.5938 -1,-0.5937 -2.9062,-1.9063 -3.8125,-3.0937 -5.5,-4.5 -1.1875,-0.3125 -3.3125,0.2188 -1.5937,0.1874 -3.5,0.5938 -1.1876,0.2188 -4.9062,-1.2188 -1.1875,-0.2812 -0.5,-0.125 -11.7187,-2.875 -0.4063,0 -3.5937,1.6874 -1.2813,0.8126 -5.625,3.375 -3.875,0 -3.4063,-0.7813 -2.2187,-0.5 -8,-1.9063 -1.5,-0.5 -0.375,-0.094 -3.125,-1 -3.0937,-1.3125 -2.0938,-0.9062 -2.5,-1.0938 -1,-2 -0.5938,-1.5 -0.4062,-1.2812 -1,-3.4063 -0.3125,-1.0937 -0.5,-3.5 -1.1875,-3 -0.4062,-0.8126 -1.5,-2.5937 -0.5,-0.5937 -2.5,-1.9063 -3.1876,-2.3125 -6,-1.0938 -6.2187,-0.5 -5.5,1.4063 -2.5937,0.6875 -3.1876,1.5 -13.8124,-3.2812 -2.4063,1.875 -0.7813,5.4062 -10.5,3.7188 -7.9062,8.875 1.0938,11.5 -3.1876,2.7187 -10.7187,1.2813 -2,-0.2813 -5.5937,-0.8125 -0.7813,0.3125 -3.2187,1.0937 -0.7813,0.3126 -4.7187,2.375 -2.4063,3.625 -0.1875,0.6874 -1.0938,4.8126 -0.9062,4.0937 0,1.2813 -0.3125,5.9062 0.2187,1 1,4.5938 0.6876,5.125 0.4062,6.5937 0,5.0937 -0.3125,3.5 -0.1875,2 -0.9062,3 -0.5938,2.8126 -1.0938,4.1874 -0.4062,1.4063 -1,4.5 -0.4062,2.6875 -0.5,2.0938 -1.1876,3.8124 -2,6.9063 -0.3124,0.9063 -1.1876,2.6874 -0.4062,0.8126 -0.4062,0.6874 -4.7813,7.6876 -2.8125,4.3124 -0.3125,0.5 -3.0937,0.4063 -4,-1 -4.1876,-3.5937 -2.0937,-1.7188 -2.9063,-1.1875 -3,-0.5 -2.5937,0.9063 -0.5,0.1874 -4.5,0.6876 -2.625,0.625 -1.875,0.094 -3.5,0.094 -3,-1.1874 -2.2187,-2.4063 -1,-1.5 -1.6876,-3.3125 -1.5937,-2 -2,-1 -4.125,-2 -0.5,-0.094 -2.5,0 -2.0937,-0.4062 -1,-0.9062 -2.0938,-2.0938 -0.6875,-0.2812 -0.2187,-1 -0.6876,-3.2188 -1.2187,-1.9062 -0.2813,-0.5938 -2.5937,-1.2812 -3,-0.625 -2.625,0.5 -2,0.4062 -3.5,1 -0.5937,0.4062 -3.2813,1.9063 -3.3125,2 -1.0938,1 -3.8124,3.4063 -3.1876,2.6874 -0.5937,0.3126 -1,0.875 -1.9063,1.9062 -2.5,0.5 -1.9062,-1.2812 -1.0938,-0.9063 -1,-1 -0.5,-0.4063 -1.7187,-3 -0.2813,-0.5 -2.5937,-4.8124 -1.8125,-1 -0.8125,-0.5 -2.6875,-0.7813 -2.5938,-0.8125 -1,-0.1875 -3.5937,-1.5937 -3.2187,-1.8126 -0.4063,-0.3124 -2.2813,-1.5 -3.3124,-2.0938 -2,-0.2812 -1.0938,0 -0.8125,0.094 -0.6875,-0.094 -4.4062,-0.2188 -0.6876,0.4062 -3.3124,1.8126 -0.7813,0.2812 -4.125,1.7188 -3.5937,1.6874 -0.4063,0.1876 -3.0937,-0.875 -2.5,-0.4063 -0.6876,0.094 -2.5,-0.1874 -3.4062,-0.625 -0.6875,-0.094 -1.9063,-1.0938 -2,-1 -3,-2 -1.7187,-1.0937 -2.5,-1.2187 -2,-0.5938 -0.5,0.094 -2.1875,0.4062 -1.4062,0.3125 -4.5,1.5 -0.5,0.1875 -4,1.5 -3.4063,1.3125 -0.6875,-0.094 -0.5,-0.2188 -0.3125,-0.4062 -1.7813,-1.5938 -1.7187,-2.6875 -2.0937,-1.4063 -5,0 -5.5938,0.8126 -5,2 -2.5938,0.6874 -4.5,0.9063 -3.0937,0.2813 -0.4063,0 -3.2187,-2.2813 -3.0937,-2.2187 -0.5938,-0.375 -5.8125,-1.9063 -1.0937,-0.3125 -1.6876,-0.094 -3.2187,-3 -1.375,-1.0937 -1,-0.8125 -1.625,-0.5938 -3,-0.9062 -2.5937,-0.7812 -2.5938,-1 -1.5938,-0.5 -4.0937,-1.3126 -2.9063,-0.9062 -0.7187,-0.1875 -4.5937,0.1875 -3.2813,1 -0.625,0.5 -7.375,4.9062 -0.5,0.5938 -0.9063,1.4062 -2.4062,3.6876 -1.9062,2.8124 -0.6876,0.5 -2.9062,2.0938 -1.5,0.5938 -0.8125,0.3124 -2.1875,-0.3124 -4.0938,-0.5 -4.5,1 -3.0937,1.625 -2.5,1.2812 -0.5,-0.094 -0.8125,0.4063 -3.5,1.2813 -1.5938,1.2187 -2.9062,2.0937 -3.1875,4.4063 -1.8125,2.5937 -3.5,5.5938 -0.6875,1.8125 -2.625,4.5 -2.0937,4.4063 -1.5938,2.5 -1.0938,1.0937 -3.2187,3.0937 -0.6875,0.3126 -1.3125,0.875 -4.6875,3 -2.4062,2.4062 -4.7813,4.9062 -1.5,2.8126 -0.4063,3.6874 -0.2187,3 -0.375,1.9063 -0.4063,1.0937 -1.3124,2.1876 -0.9063,2.625 -0.7813,2.2812 -1.9062,2.5938 -0.1875,1.4062 -0.3125,2.7188 3.1875,4.375 0.5,0.4062 2.3125,1.8125 1.6875,2.5 0.625,0.9063 5.0937,7.5937 1.9063,4 3,6.1875 1.0937,3.0938 0.5,5.9062 0.094,3.5 0.094,1 -0.5938,4.7188 -1,4.0937 -1.8125,5.6875 -1.875,2.0938 -1.8125,2 -0.6875,0.5 -1.125,0.5 -2.7813,1.4062 -2.9062,2.4062 -1.8125,1.8126 -1.0937,1.1874 -2.0938,1.9063 -1.3125,1.2813 -3.5937,1.8124 -1.5938,-0.1874 -2.5,-0.125 -4.5,-3.7813 -3.4062,-3.3125 -2.5,-2.4062 -10.7813,-11.6876 -0.8125,-0.9062 -2.0938,-4.2812 -0.8124,-1.5 -1.6876,-4.9063 -0.4062,-1.7187 -0.3125,-1.7813 -0.7813,-5 -0.5,-3.4063 -0.094,-0.6874 -1.9063,-4 -2,-1.3126 -0.5,0.1876 -1,0.625 -3.5,2.375 -2.9062,1.9062 -0.6875,0.4062 -0.9063,0.3126 -1.9062,0.5937 -2.0938,-1.2187 -3.3124,-0.7813 -1.2813,-1.0937 -1.125,-0.9063 -5.2813,-6.8125 -3.5,-1.5938 -2.0937,-1 -0.4063,-0.094 -5.2187,0.094 -0.5,0 -3,-1.3124 -2.5937,-0.7813 -3.1876,-1.5 -1.2187,-1.0937 -1.2813,-1.2188 -2.2187,-3.0938 -0.5,-0.6874 -0.5,-1.3126 -0.5,-0.9062 -4,-1.4062 -2.5,-0.5938 -2.6875,-0.5938 -1.3125,-0.6874 -2.7813,-1.5 -1.3124,-0.9063 -5.5,-4.4062 -2.2813,-3.3124 -2.9063,-4.2813 -0.5937,-1 -1.3125,-1.5937 -1.1875,-1.5 -0.9063,-0.8126 -1.8124,-1.6874 -3.1876,-2.2188 -3.5937,-2.5 -0.5,-0.4062 -1.9063,-2.1876 -0.5,-0.5938 -1.0937,-1.9062 -1.7187,-2.5 -1.0938,-3.4063 -0.4062,-3.5937 -0.1876,-5.1874 -0.2187,-3.5 -0.7813,-4.3126 -1.5,-2.0938 -0.8124,-1.4062 -6.5,-10.1874 -1.6876,-4 -1.0937,-2.8126 -0.2187,-0.5 0.094,-1.1874 0.3125,-7.3126 1.9062,-2.0938 3.2813,-4.9062 0.8125,-2 0.8125,-5.8124 2.1875,-5.0938 2,-4.4062 0.1875,-2.1876 -0.5,-1.8124 -0.1875,-0.5 -4.0938,-2.1876 -9.0937,-5.1874 -3.5,-2.4063 -2.3125,-1.8125 -2.3125,-1.5 -3.6875,-2.2812 -0.9062,-0.625 -5.4063,-5.6876 0.2187,-1 1.1876,-8.1874 5.3124,-5.7188 1.2813,-1.4062 -0.5,-3.5 -4.2813,-3.5 -4.5,-3.2813 -1.3124,-1 -2.0938,-1.0937 -1.1875,-0.625 -2,-1.0938 -1.625,-1.4062 -1.5937,-1.5 -0.7813,-0.6876 -1.2187,-1.0938 -0.4063,-0.7187 -1.5937,-3.0938 0.5937,-7 -2.875,-2.1875 -0.5,-0.5 -2.2187,-2.0937 -3.6876,-2.7188 -3.9062,-2.5937 -2.6875,-3.3124 -0.7187,-2 -0.2813,-1.1876 1.5937,-4.0938 1.5938,-1.4062 5.9062,-7.6874 1.4063,-1.9063 0.875,-1 3.125,-2.0937 2.7813,-2 2.9062,-2 0.9062,-0.625 0.5,-0.5 1.5938,-1.375 2.5,-3.625 0.8125,-4.7813 0.1875,-1.0937 -0.5,-2.9063 -2,-4.2187 -4.1875,-4.875 -3.4063,-3.9063 -2.5937,-9.8125 -1.3125,-4.7812 -0.1875,-1 -1.125,-3.9063 -1.0937,-3.0937 0.9062,-3.5 0.5938,-2.7188 0,-2.9062 -0.4063,-0.375 -2.6875,-2.625 -2,-1.875 -0.4062,-0.3126 -3.6876,-3.3124 -0.5,-3.375 -0.4062,-2.5 -1.5938,-2 -1.7187,-0.9063 -4.0937,-2.2187 -3.5,-1.875 -1,-0.5 -4.1876,-3.2188 0.094,-7.1875 0.094,-3.5 0.094,-2.2187 -0.1875,-5 -0.3125,-4.375 0,-1.2188 -0.875,-4 -1,-3.1875 -1.3125,-2.5937 -0.4062,-0.4063 -4,-2.3125 -2.4063,-1.4062 -2,-1.1876 -1.875,-1.0938 -1,-2.9062 -1.4063,-4.4063 -0.5937,-1.5937 -4.4063,-5.6874 -0.3124,-0.4063 -2.9063,-2.2187 -3.5937,-3.7813 -2.2813,-4 0.1875,-3.5937 3.5938,-7.9063 0.094,-2.8125 -2.0937,-3.5 -4.2813,-2.0938 -14.5,-5.4062 -2.7187,-0.5 -6.5938,-1.5938 -0.8125,-0.1874 -2.375,-1.8126 -4.125,-2.9062 -1.0937,-1.0938 -4.2813,-4.8124 -5.125,-6.0938 -4.0937,-5 -7.5,-3.5 -4.2813,-2 -2.5,-1 -4.7187,-2 -1.5,-0.5938 -6.0938,-1.1874 -5.0938,-1.125 -1,-0.5 -1.5,-1.375 -5.8124,-5.7188 -0.4063,-0.1875 -5.375,1.7813 -1.7187,0.7187 -2.2813,1.0937 -2.125,1.0938 -1.6875,0.5 -3.8125,1.0938 -1.875,0.625 -2.4063,0.7812 -3.0937,1.5 -0.625,0.3125 -1.375,1.9063 -2.5,3.2812 -0.8125,1 -7.8125,5.7188 -1.875,1.1874 -16.3125,10.8126 -2.9062,2.375 -0.6876,0.5 -4.0937,2.9062 -0.8125,0.2188 -5.1875,1.5937 -6.5,-0.7187 -3.5,-1.5 -0.625,-0.375 -1.5937,-2 -0.2813,-0.4063 -0.9063,-2.4063 -0.4062,-2.4062 0.5,-2.2812 2.0938,-2.4063 0.8124,-0.9063 1.6876,-1.5937 0.3124,-1.3125 -0.5,-3.9062 -2.2187,-7.5 -0.1875,-0.5938 -3.5,-3.9062 -0.9062,-1 -1.2813,-1.2813 -3.2187,-2.4063 -2.0938,-1.5937 -1.5,-1.0937 -4.8125,-3.8126 -1.1875,-0.8124 -1.3125,-1.0938 -1.1875,-1.2812 -3.4062,-3.7188 -0.9063,-1 -1.7813,-1.1875 -3,-1.8125 -3,0.3125 -4.4062,0.094 -4.3125,-0.6874 -5.375,-0.8126 -0.8125,0 -3.5,0.1876 -3.5938,0.125 -3.2187,-0.625 -0.5,-0.094 -1.0937,-1.5 0.094,-2.5938 0.125,-3.0937 0.094,-3.5937 0.094,-0.625 -1,-2 -1.0938,-0.875 -1.4062,-0.625 -2.0938,-1.0938 -2.5,-0.5938 -2.0937,-1.0937 -0.5,-0.3125 -2.625,-1.6875 -2.2813,-1.8125 -5.3124,-5.4062 -4.2813,-4.5 -0.5,-0.7813 -3.125,-9.5937 -0.5937,-1.8126 -1.5,-3.4062 -1.1876,-2.7812 -1.0937,-3.125 -0.3125,-0.2813 -2.5938,-2.5 -2,-1.7187 -1.5937,-1.5 -2.3125,-1.875 -0.5938,-0.625 -0.7187,-1.375 0.8125,-3.2188 0.094,-0.5938 1.0937,-2.3124 1.2187,-4.7813 -1.5937,-5.5937 -0.9063,-1.2188 -2.3124,-3.4062 -0.4063,-0.5938 -2.0937,-1.4062 -3,-2.1876 -1.7813,-1.3124 -2.9063,-4.5 -1.5937,-5.5 -1.125,-5 -0.7813,-3.875 -0.9062,-4.2188 0.6875,-2.6875 1,-2 3,-2.5937 2.2187,-0.3126 9.5938,-1.3124 2.4062,-0.2813 2.6876,0.094 3.9062,-0.4062 2.3125,-0.1875 4.6875,-1.5937 5.0938,-3.625 1.5937,-2.7813 0.4063,-0.5937 0.5,-3.4063 -0.094,-2 -0.1875,-3.5 -1.125,-9.2187 -0.375,-2.5938 -0.5,-4.4062 -0.3125,-6.0938 1.0938,-5.5938 0.094,-5.1874 0.9063,-3.4063 2.0937,-2.0937 1.9063,-2.3126 1,-5 -1.7813,-4.4062 -2.125,-4.5938 -1.7813,-3.9062 -1.3124,-2.6875 -0.1876,-4 -0.094,-0.5937 -0.5,-8.3126 -0.625,-1 -2.1898,-1.9076 -1.5,-1.2812 -1.0938,-0.8126 -1.7187,-2.3124 -0.094,-0.5938 -0.094,-1.4062 0.6875,-3.875 0.3125,-0.4063 2.0938,-5.4062 1.0937,-2.4063 -0.1875,-2.6875 -2.8125,-5.0937 -3.6875,-1 -2.8125,-0.8126 -0.6875,-0.094 -6.0938,0.4063 -7.0937,0.094 -0.5,0 -2,-1.0937 -1.625,-0.9063 -2.375,-1.4063 -0.2187,-1.5937 0,-3 1,-3.5 -1,-2.4063 -0.4063,-1.1874 -2,-2.2188 -4.2813,-2.2812 -0.4062,-0.125 -9.3125,-3.1876 -4,-1.4062 -0.5937,-0.094 -5.0938,-3.6874 -0.3125,-5.4063 0.3125,-1.0937 0.9062,-1.625 0.5938,-1 1.3125,-2.0938 2,-3 1.2813,-1.9062 0.5937,-0.6876 2.3125,-2.9062 1.3125,-1.5 1.5,-3.6875 -1.7187,-2.5 -6.2813,-3 -1,-0.3125 -5.625,-1.1875 -4.0937,0.9063 -0.4063,0.094 -1.5937,1 -4,2.4063 -2,1.2812 -2.9063,0.3125 -1.1875,0.1875 -2.4062,-0.5 -2.7813,-1.6875 -1.9063,-1.9063 -0.7187,-0.5937 -2.0937,-2 -0.9063,-0.8125 -2.2813,-1.5 -4.8124,-3 -2.9063,-3.2812 -1.2813,-1.2188 -1.5,-5.5938 1.1876,-3.9062 0.3124,-0.7812 1.4063,-2.5 2.5937,-5.125 -2.0937,-3.1876 -0.4063,-0.5937 -3.0937,-1.5937 -4.125,-2.625 -0.5937,-0.375 -4.5,-3.2188 -0.4063,-0.2812 -3.0937,-3.5 -1.4063,-2.5 -0.5,-0.9063 -0.7813,-4.9063 0.1876,-1 1,-5.6874 0.2187,-1.4063 1.1875,-3 0.5,-1.4063 -0.9062,-5.5937 -0.1876,-0.7187 -2,-3 -0.8124,-1.2813 -2.7813,-2.9063 -2.8125,-2.6874 -2.4062,-2.4063 -2.6876,-2.5937 -2.0937,-2 -1.8125,-1.8126 -6.4062,-5.3124 -3.1876,-2.6876 -6,-5 -5.0937,-4.8124 -7.4063,-12.0938 -1.3124,-3.0938 -1.5,-4.5937 -1.7813,-5.5 -2.9063,-3.7187 -4.7187,-5.5938 -5.2813,-3.2812 -5.0937,-1.3126 -2.3125,-1.0937 -6.5938,-7.3125 -0.5,-0.5938 -2.0937,-5.0937 -0.2187,-0.5937 -1.2813,-5.125 -0.625,-2.7813 1.7187,-2.5937 0.2813,-0.5 5.7187,0 1.9063,-2.125 -1.4063,-4.2813 -0.3124,-1.0937 -0.7813,-1.4063 -3.7187,-4.9063 -2.6876,-2.4062 -5.3124,-4.9062 -3.7813,-3.5938 -3.4063,-3.1875 -3.5,-3.3125 -0.5,-0.6875 -1.7187,-8 -0.6875,-3.0937 -4.9062,-3.125 -4.6876,-3 -1.7187,-0.7813 -3.375,-4.2187 -0.5,-0.875 -2.4063,-5.4063 -1.4062,-3.2187 -0.1875,-3.1876 -0.3125,-4.5 0.9062,-7.0937 0.9063,-2.0937 1.0937,-2.9063 1,-2.5937 -0.094,-2.8126 1.375,-3.5937 -0.375,-2.9063 -1.4063,-3.1874 -0.3124,-0.625 -0.5938,-1.5938 -1.3125,-2.0938 0.4063,-3.0937 0.094,-0.9063 1.3125,-2.0937 0.6875,-1.2187 0.3125,-3.1876 0,-0.5937 -0.3125,-2 -0.5,-2.5 -0.375,-1.5937 0.094,-1.8126 0.2813,-3.0937 0.125,-3.0937 0,-1.5 -1.9063,-2.625 -1,-1.375 -2.5,-2.3126 -2.5,-2 -1.2187,-0.9062 -3.0937,-2.5938 -2.2813,-2 -2.2187,-1.8124 -0.4063,-0.2813 -4.5937,-1.2187 -1.1876,0 -0.8124,0.2187 -0.5,0 -1.5938,-0.094 -3,-0.4063 -3,-2.2187 -0.5938,-0.6876 -0.3124,-8.1874 0.4062,-0.4063 3.9062,-4.0937 3.6876,-2.125 2.2187,-1.2813 0.5,-0.4063 1.1875,-2.3124 -2.4062,-4.7813 -0.5,-0.2187 -2.7813,-1.0938 -4.5,-2.4062 -1.2187,-1.7813 -0.4063,-0.8125 -0.094,-7.1875 0,-3.5 -3,-4.5937 -1.5938,-2.5 -0.3125,-0.4063 0,-5 0.2187,-0.8125 1.1876,-1.5 1.4062,-1.7812 0.9062,-1.2188 0.4063,-2.5 0.7813,-5.4062 0.5,-0.875 0.5937,-1 3.7187,-3.125 2,-1.7813 2.0938,-3.3125 1.3125,-2 0.375,-0.7812 0.125,-0.8126 0.7813,-4 -0.4063,-1.9062 -1.375,-4.2812 -1.2187,-2.7188 -0.5938,-2.1875 -2.3125,-5.5 -0.25,-0.9063 -386.8437,0 -0.1876,0.9063 -0.094,1.7813 -0.5,2.2187 -1.7187,7.5 -2.5,4 -2.1876,4.5 -0.8124,1.6875 -3.7813,2.3125 -3.625,1 -3.2813,-0.2187 -1.2187,0.125 -2.2813,0.375 -1.2187,0.4062 -1.2813,0.5 -2.2187,1 -6.875,7.3125 -2.3125,2.2813 -3.5,0.7187 -3.4062,0.5937 -0.5938,0.3126 -3.4062,1.2812 -0.5,0.5 -3,3.0938 -2.0938,3.7187 -0.4062,0.5937 -4.2813,2.6876 -3.8125,-0.7813 -0.6875,-0.094 -2.7187,-2.4063 -0.5938,-0.5937 -2.9062,-4.8126 -1.9063,-2.0937 -0.7813,-0.7187 -4.3124,-3 -2.5,-6.1876 -0.5938,-1.6874 -5.6875,-14.2188 -3,-3.2812 -0.5,-0.5 -4.7187,-3.2188 -1.5938,-1 -3.9062,-1.9062 -3.4063,-1.5 -1.1875,-0.5938 -4.5938,-1.6875 -2.0937,-0.9063 -1682.25,0 z"
     id="rect10"
     inkscape:connector-curvature="0" />
  <path
	 style="fill:#9FAEC0"
	 stroke="#9FAEC0"
	 stroke-width="10"
	 transform="translate(0, 25)"
     d="m 29.375,5203.3437 -1.2812,1.8438 -1.0938,1.2187 -3.6875,3.5 -4.2187,2.5938 -0.9063,0.9062 -2.2813,2.6875 -0.5937,1.2188 -0.3125,0.6874 0,3.0938 1.5938,4.3125 1.0937,2.6875 5.8125,5.5 3.6875,5.4062 0.9063,2.5 1.2187,3.8126 4.7813,6.1874 0.8124,1 8.5938,7.9063 6.6875,3.1875 1.125,0.3125 5.375,1.2813 5.3125,1.4062 4.0938,2.3125 3.5,0 1.5937,-0.094 1,-0.2188 2.4063,-1.2812 1,-0.625 2.7187,-4.1876 4.5937,-6.8124 0.5,-0.7813 1.6876,-4.2187 3.9062,-5.2813 4.5938,-2.2187 0.7187,-0.2813 2.1875,0.1875 1.3125,0.3125 1.1875,0.2813 1.9062,0.625 6.7813,4.375 1.4063,1.125 5.3124,4.0937 1.5938,5 3,8.5937 2.4062,7.4063 1.5,2.2813 1.4063,1.9062 3.6875,5 1.0938,0.8125 5.3124,3.6875 2.5,1.7188 5.6876,5.0937 3,2.5 0.4062,-0.094 2.9062,-0.4063 2.2813,-3.2187 1,-1.375 1.5,-5.125 3.2187,-4.875 1.1876,-1.125 1.3124,-1 0.4063,-0.1876 4.0937,-1.0937 4.1876,0.5 1.9062,0.4063 5.1875,1.0937 5.5,1.0937 0.625,0 5.5,0.1876 6.5937,0.3124 2.4063,0.094 1.1875,0.094 1.4062,0.7187 4.7813,2.1875 2.8125,3.0938 2.5938,2.9062 0.4062,0.4062 1.4062,4.9063 0.4063,6.1875 -0.4063,1.9062 -0.5,2.4063 -0.094,0.5937 -0.4063,9.5 -0.5,4.1876 -0.094,1 0.1875,2.5 0.6875,4.5 0.625,3.625 2.375,5.7813 0.4063,0.5937 0.4062,0.2188 1.5,0.5937 3.0938,1.3126 4.4062,-0.2188 5.3125,-0.2812 4.375,0.5937 2.7187,0.4063 4.7813,2.5 2.8125,1.7812 3.5,2.2188 1.5938,1 4.2187,2.5937 11.1875,8.0937 3.5,3.6876 0.6875,0.8124 3.4063,5.0938 0.4062,6.0938 -0.094,1.9062 -0.3124,4.0938 -1.6876,4.625 -0.8124,0 -3.5,8.2812 -0.6876,1.0938 -1,1.2187 -2.5937,3.5937 -0.8125,1 -2.0938,2.8126 -0.5,1 -0.2187,1.1874 -0.2813,1.4063 -1.4062,3.6875 -0.5,1.7188 -0.5,2.375 -0.4062,2.625 -0.2813,2 -0.4063,2.375 -0.2187,1.125 -1.0937,5.0937 -1,3.2813 -0.6876,2 -1.7187,4.5 -0.5,0.625 -3.5,4.0937 -2,2 -0.5937,0.5 -4.4063,3.5937 -2.1875,1.1876 -2.5,1 -4.6875,1.8124 -1.8125,0.5 -4.5938,1.3126 -4.4062,1.375 -3.6875,1.5 -1.625,0.625 -3.5,1.5 -0.5,0.5937 -2.0937,2.5 -0.7813,5.6875 -0.3125,1.9062 0.5938,4.5 0,6.0938 0.2187,3.0938 0.5937,10.7187 0.6876,2 1.2187,3.5937 0.2813,0.6876 3,2.9062 2.8124,1.9062 4,2.6876 4.1876,2.7187 2.0937,1.9063 2.4063,2.1874 4.5,3.9063 1.5937,4.5937 1.3125,3.5938 0.5938,4.0938 0.094,3.7187 0.2187,5.4063 -2,5 -2.0937,1.5937 -0.9063,1.0937 -1.3124,1.6876 -0.9063,1.7187 -0.2813,0.5 0.2813,1.5937 0.625,4 1.7813,4.1876 1.0937,2.625 0.8125,1.875 -1.0938,3.4062 -1,1.5 -0.8124,0.5 -1.9063,0.5938 -0.5,0.2187 -3.5937,1.1875 -1,0.4062 -1.5,1.9063 -1.7813,2.2813 -2.125,2.8124 -2.0937,2.6876 -0.5938,0.5 -2.5,2 -1.0938,0.625 -2.9062,1.5937 -2.6875,1.6875 -2.9063,1.9062 -2.5937,2.0938 -1,2 0.094,2 2.5,3 3.5,1.0938 3.0938,1.125 0.8125,0.5937 1.7813,1 0.5,0.7813 0.8124,1.625 0,0.5937 -0.3124,3.2813 -1.5938,2.9062 -0.5,0.5 -3.5,6.2188 -0.9062,4 1.5,2.875 1.5,2.7187 0.8124,0.7813 1.6876,2.5 1.0937,1.5 0.2187,2.7187 -0.2187,4 0,3.6875 -0.5937,4 -1.5,3.9062 -0.6876,0.8126 -2,2.375 -1.7187,1.7187 -1.0937,1.5 -2.9063,3.7813 -1.0937,1.8124 -2.0938,5.4063 -0.8125,2.6875 -1.7813,5.5 -1.2187,4 -1.2813,4.0938 -0.2187,5.3124 0.125,7.5938 -1,3.8125 -5.5,3.1875 -6.5,-1.1875 -9.7187,1.6875 -8.6876,3.9062 0.6876,3.9063 5.4062,3.5 1.9062,2.6875 0.2813,4.7188 0.7187,3.6874 -2.0937,2.4063 -5.2187,0.2813 -3.4063,-3 -6.375,5.7187 -2.4063,8.7813 5.4063,4.7187 3.5,3.2813 -0.4063,1.3124 -1.9062,5.5 -0.5,1.3126 -2.3125,6.875 -0.1875,1 0,1.5 -0.8125,31.4062 -2.7813,107.8125 -3.4062,130.0937 -8.8125,366.0938 -0.5,16.2188 -2,80.875 4868.8438,0 -2.5313,-50.6876 -0.1875,-3.5 -1.3125,-28.8124 -1.5,-30.875 -3.9062,-92.9063 -1.5,-35.5 -10.1875,-206.7187 -0.8125,-0.6876 -0.4063,-6.3124 -2.2812,-49 -0.3125,-5.5938 -1,-15.6875 -4.4063,-89.5 -4.1875,-85.9063 -8.8125,-171.5937 -5.875,-114.9063 -0.2187,-3.3124 -2.5936,-49.0937 -4.6875,-86 -1.625,-27.5937 -5,-101.9063 -0.875,-16.5 -1.4063,-28.25 -4909.5312,0 z"
     id="rect12"
     inkscape:connector-curvature="0" />
  <path
	 style="fill:#9FAEC0"
	 stroke="#9FAEC0"
	 stroke-width="10"
     d="m 135.6875,6504.1875 -0.094,3.8124 -0.2813,11.9063 -0.8125,19 -0.3125,12.7813 -1.0937,49.125 -0.7813,32.2812 -0.3125,8.4062 -0.094,8.3126 -1.8124,70 -0.7813,32.2812 -1.2187,48.5 -0.6876,31.3125 -0.2187,11.5 -0.1875,16.5938 -0.3125,19.9062 -2.1875,59.5938 -1.4062,61.0937 -0.5938,24.8125 -1,55.4063 -2,70.6874 -1.5938,67.8126 -2.2187,75.6874 -0.2813,9.5 -0.3124,13.6876 -0.4063,19.7187 -0.375,16.6875 -0.7187,36.8125 -0.5,22.6875 -1.4063,51.5 -3.875,148.9063 -0.4063,16.0937 -2.0937,80.8125 -0.2187,7 -0.1876,9.5938 -1.0937,49.5 0,0.6876 9.7813,0.3124 252.2187,6.6876 70.5937,1.8124 5.0938,-0.094 154.5,4 34.9062,0.5938 14.1876,0.1876 2.2187,0 163.0937,2.3124 15.5,0.1876 11.5938,0.3124 94.6875,2.6876 30.4063,0.8124 6.9062,0.094 50.9062,0.5938 11.0938,0.125 118.6875,1.375 92.625,0.9062 133.5937,1.0938 16.4063,0.125 13,0.094 36.5937,0.4062 13.9063,0.1874 16.2813,0.1876 28.7187,0.3124 89,1.0938 7.375,0.094 4.4063,-0.2813 75.9067,-0.8129 75.3125,-0.4062 43.875,-0.6876 14.4063,-0.1874 32.8124,-1.5 14.2813,-0.5 15.3125,-0.8126 2.0938,-0.094 14.9062,-0.5 12.1875,-0.5 2.7187,0 17.9063,0.1875 16.875,0.2188 46.4063,0.7812 37,0.8125 30.7187,0.6875 17.875,0.4062 14.2187,0.5938 16.4063,0.5 14.875,0.4062 1,0 49.2187,0.1876 113.0938,-0.1876 16.4062,-0.094 33.2813,-0.094 46.5,-0.9063 3,0.094 29.8125,-0.094 16.4062,-0.125 55.2813,-0.2187 91.4063,-0.2813 6.4062,0.125 0.6875,0 22,0.1875 19.5,0.3125 15.4063,0.1875 16.4062,0.3125 19.4062,0 15.4063,0.094 30.1875,0.3126 2.5,0 14.9062,0.5 0.5,0 16.4063,-0.9062 56.6875,-2.0938 16.9062,-0.7187 7.6876,-0.2813 9.2187,-0.125 17.375,-0.5937 37.3125,-1.2813 30.6875,-1.125 9.8125,-0.375 8.5938,-0.5 26.2187,-0.3126 47.0937,-1.4062 33.6876,-1.0938 4,-0.094 11.4062,-0.3125 20.3125,-0.6875 204.7813,-5.9063 15.9062,-0.4062 3.4062,0 2.6876,0.094 59.4062,-2.375 15.8125,-0.625 48.0937,-1.875 30.6876,-1.3126 6.4062,-0.3124 8.4062,-0.1876 68.0938,-1.6874 76.6875,-2.5 12.8125,-0.4062 81.9062,-2.8125 79.2813,-2.6875 13,-0.5 50.125,-1.5938 53.5,-1.9062 73.2813,-2.9063 8.2187,-0.3124 12.6875,-0.5 20,-0.6876 41.9062,-1.8124 27.0938,-0.7813 8.6875,-0.094 1.125,-0.125 14.2813,-0.7813 6.5,-0.125 6.8124,3.6875 10.1876,-0.4062 15.5,-0.5938 13.0937,-0.4062 11.3125,-0.2813 122.8125,-5.625 186.1875,-10.5 114,-6.7813 0.9062,0 53.1876,-0.5937 5.5937,-0.125 4.4063,-0.375 49,-0.3125 9.0937,-0.4062 323.5,-13.9063 -0.094,-1.0937 -0.4063,-9.6876 -5.0937,-98.8124 -1.9063,-45.2813 -1.5,-33.4063 -2.1875,-45.375 -3.6875,-73.0937 -0.9062,-18.2187 -7.3125,-147.2813 -0.5,-14.0937 -1,-9.125 -3.4063,-74 0.5,-0.1876 -5.0937,-109.0937 -1.7813,-43.9063 -2.4062,-60.0937 -1.2188,-32.8125 -2.0937,-59.6875 -1.5,-32.2188 -1.1875,-25.875 -0.3125,-6.4062 -4.1875,-88 -4.5,-102 -0.094,-2 -1.9063,-35.4063 -1.7187,-35.3124 -0.6563,-13 -4868.8437,0 z"
     id="rect14"
     inkscape:connector-curvature="0" />
</svg>
