<?xml version="1.0" encoding="UTF-8" standalone="no"?>
<svg
   xmlns:dc="http://purl.org/dc/elements/1.1/"
   xmlns:cc="http://creativecommons.org/ns#"
   xmlns:rdf="http://www.w3.org/1999/02/22-rdf-syntax-ns#"
   xmlns:svg="http://www.w3.org/2000/svg"
   xmlns="http://www.w3.org/2000/svg"
   xmlns:sodipodi="http://sodipodi.sourceforge.net/DTD/sodipodi-0.dtd"
   xmlns:inkscape="http://www.inkscape.org/namespaces/inkscape"
   width="3453.4062"
   height="6156.5938"
   viewBox="0 0 3453.4062 6156.5938"
   id="svg2"
   version="1.1"
   inkscape:version="0.48.1 "
   sodipodi:docname="AJAX.svg">
  <metadata
     id="metadata20">
    <rdf:RDF>
      <cc:Work
         rdf:about="">
        <dc:format>image/svg+xml</dc:format>
        <dc:type
           rdf:resource="http://purl.org/dc/dcmitype/StillImage" />
      </cc:Work>
    </rdf:RDF>
  </metadata>
  <defs
     id="defs18" />
  <sodipodi:namedview
     pagecolor="#ffffff"
     bordercolor="#666666"
     borderopacity="1"
     objecttolerance="10"
     gridtolerance="10"
     guidetolerance="10"
     inkscape:pageopacity="0"
     inkscape:pageshadow="2"
     inkscape:window-width="1280"
     inkscape:window-height="1004"
     id="namedview16"
     showgrid="false"
     fit-margin-top="0"
     fit-margin-left="0"
     fit-margin-right="0"
     fit-margin-bottom="0"
     inkscape:zoom="0.097357373"
     inkscape:cx="2774.0989"
     inkscape:cy="3184.8697"
     inkscape:window-x="-8"
     inkscape:window-y="-8"
     inkscape:window-maximized="1"
     inkscape:current-layer="svg2" />
  <path
	 style="fill:#9FAEC0"
	 stroke="#9FAEC0"
	 stroke-width="10"
	 transform="translate(0, 125)"
     d="m 784.5,0 -4.5937,0.094 -4.3126,5.9063 -4,6.4062 -1.1874,5 -0.8126,7.5 0.094,4.0938 0,3.5 3.9062,6.1874 6.7188,7 9,7.4063 10.875,7 8,4.4063 6.3125,2.5 1.5,1 7.8125,3.3124 5.5,2.2813 7.0938,2.8125 4.9062,3.1875 3,3.2187 1.7812,4.5 0.5,6 1.5,5.0938 3.9063,4.9062 1.5,1.0938 5.0937,4.0938 0.8126,0.6874 8.0937,4.4063 9.1875,4.0937 7.3125,3.8126 0.4063,0.1874 6.0937,3.5 5.9063,5.3126 6.4062,6.4062 3.375,2.1875 4.2188,1.4063 3.5937,2.5 1.3125,1.3124 1.7812,1.6876 5.0938,7.0937 8.125,10.5937 7.1875,8.125 3.8125,5.6876 3.7812,6.9062 4.8126,7.5938 4.2812,6.3124 3.125,2.2813 0.875,0.3125 0.7188,0.1875 1.7812,0.5 2,2.0937 0.8125,2.5 0.5,3.125 0,3.5 -0.5937,6.5 -1,5.0938 -2.0938,4.5 -2.625,5.4062 -2.2812,5.875 -1.8126,6.3126 -0.094,2.0937 -0.1875,3.7187 0.2812,2 0.5,3.7813 1.3126,5.9063 2,7.6874 1.5,3.5 3.2812,7.8126 4.125,9 3.5,4.4062 4.7812,7.2812 6.5,9 6,8.7188 4.3126,4.5 0.9062,1 6.5938,5.6875 5.1874,3.9063 5.2188,2.5937 7.5938,2.5 6.0937,1.5 6.0937,2 3.4063,1.5937 5.8125,3.125 1.1875,0.7813 8,4.7187 7.5,4 9.4063,7 8.0937,4.6876 8.1875,3.5 6.2188,1.5 7.1874,2.3124 2.5,0.7813 6.0938,2.3125 0.4062,0.2812 8.5,5.3126 8.5938,4.5937 5.5,2.2187 3.9062,3.0938 2.7188,3.5 2.0938,5 1.2812,4.4062 0.8125,5.0938 0.4063,6.6875 3.1874,4 3.4063,2 4.1875,0.9063 0.4062,0.1874 6.7188,1.625 4.0938,-0.3124 4,1.6874 2.9062,2.625 2.7812,4.5 0.7188,3.375 0.1875,1.4063 -0.1875,5 0.7812,2.3125 -0.1874,7.7812 -1.5,9.625 -1.4063,10.7813 -1.3125,8.7187 -0.2812,1.875 0.1874,8.2188 0.7188,8.5938 0.094,0.9062 1,6.5 3,10.0938 4.4062,7.1874 0.7812,2.125 1.5,3.875 1.8126,5.8126 2.7812,4.8124 2.5,6.5 2.7188,4.1876 0.9062,2.9062 -0.2188,4.6875 -1.4062,3.9063 -2,4 -2.1875,3.4062 -1.8125,4 -0.5938,4 -0.5937,4.6875 -0.5,4.0937 -2.5937,5.2188 -2.8126,4.4062 -4.9062,7 -3.0938,4.5 -0.5,6.5938 0.7188,6.7812 2.2812,6.8126 2.8126,5.5 2.0937,6.3124 2.3125,7.375 1,6 0.094,6.8126 -1.7188,5.8124 -0.2812,0.6876 -2.0938,4.5 -1.5,3.5937 -1.2188,2.8125 -4.0937,7.9062 -4.0937,9.7813 -2.0938,9 -1.625,9.5937 -1.5,6.125 -1.0938,4.375 -2,4.125 -1.4062,2.2813 -1.6875,2.8125 -1,5 -0.4063,4.1875 -1.4062,8.5 0.7188,2.7187 1,3.7813 0.6874,7.8125 -0.6874,5.7812 -2.3126,5.2188 -2.7812,3.4062 -4.625,3 -5.1875,1.7813 -0.5,0.094 -6.9063,1.9063 -6.1874,1.7187 -4.8126,2.5 -4.6874,2.7813 -0.4063,0.4063 -6.9063,5.4062 -1.7812,1.4062 -0.4062,0.2813 -2.7188,1.9063 -4.2812,2.5937 -8.5,5.3125 -9.8126,5 -4.6874,2.4062 -1.4063,0.5938 -6.1875,4 -3.625,3 -3.5938,3.0938 -5.9062,6.3124 -6.5,8.2813 -4.5,6.5 -2.6875,4.7187 -1.4063,4.375 0,6.5 0.5938,7.8126 1.7188,7.5937 0,9.5937 -0.8126,5.8126 -1.0937,4.5 -4.3125,4.0937 -5.875,5.3125 -3.3125,4.9062 -1.9063,4.875 -0.6874,3 -0.8126,3.5 -0.5,6.125 -1.0937,6.5 -1.9063,5 -1.6874,5.5938 0.5,5.5 -0.7188,8.4062 0.8125,14.6876 0.094,9.5937 0.5938,10.5937 0.125,7.125 -0.5312,4.125 2349.3124,0 -1.5937,-120.3437 -0.5,-21.5 -1.5,-5.1875 -1.5938,-13.0938 -0.5,-4.125 -0.5,-2.5 -1.5,-12.0937 -1.0937,-1.5 -2,-1.5 -2.125,-1.5 -1.5,-1.5 -1.5,0 -1,-1.0937 -0.094,-2 1.0938,-1.5 -0.5,-2 -1.0938,-1 -3,-0.5 -1.0937,0.5 -1.5,0 -2,-0.5 -2.0938,-0.5 -4.0937,-5.0938 0,-2 -1.5,-2 -0.5,-0.5 -0.5,-1.5 -0.625,-1.5 -4,-5.0938 -0.5938,-1 -1,-1.5 -3.0937,1 -1,0.5 -1,-0.5 -0.5,-1.5 0,-1 1,-1 1.5,-0.5 2.0937,0 1,-1 -1.5,-1 -2.0937,-0.5 -1.5,-1 -0.5,-1 0,-3.125 -0.5,-1.5 -1.0938,-2.5 -0.5,-2.5 2.0938,-2 1,-1.0937 -0.5,-1 -0.5,-0.5 -1.5,-0.5 -2.0938,-3.5 -1,-3.5 -1.5937,-3.0937 -2.5,-4 -4.625,-6.5 -5.0938,-9.0938 -3.5937,-6.5938 -3.0938,-7 -2.5937,-8.125 -2.5,-9.0937 2,-1.5 2.0937,-1 0,-2 0.5,-5.5937 0,-5 -5.0937,0 -1.625,-1.5 -1.5,-1 -0.5,-9.0938 0.5,-4.5 1,-3.0938 1,-3 -0.5,-1.5 1.625,-2 1.5,-1 6.6875,0 1,-0.5 0,-1.125 -1,-0.5 -9.3125,-1 -1,-1.5 -2,-4 -1.5938,-1.5 -1,-1 -2,-1.5937 -1.5937,-0.5 -0.5,-2.5 -0.5,-2 0.5,-2.5 2.0937,-2 1.5,-1.5 -1,-1.0937 -1.5937,0.5 -1,-1 -2,-4.5 -2.0938,-6.5938 0,-4 -0.5,-3 -1,-1.5 0.5,-4.0938 -1.5,-1.5 -1.0937,-2.5 0,-4 -0.5,-2 -1.5,-2.625 -3.125,-6.5 -1.5,-5.0937 0.5,-1.5 2.625,0.5 3.5,-2 1.0937,-2 -1.0937,-1.5 -2.5,-1 -3.125,-0.5 -2,-2.0937 -1.5938,-2.5 -2,-3 0,-5.0938 -2.0937,-1.5 -0.5,-1 -1.5,-2 -2.5938,-2 -1,-5.0938 1,-10 -1,-3.625 -1.5,-3 -1.0937,-3 -3.5,-5.0937 -1.125,-3 -2.5,-10.0937 -2.5938,-9.0938 -1,-4.5 -1,-2.5 -1.0937,-4.0938 0.5937,-3.5 -2.5937,-2 -2.5938,-15.625 0,-7.0937 -1,-1 -0.5,-3.5 -2,-4.0937 -3.0937,-4 -3.625,-2 -1,-3.0938 -2.0938,-2.5 -2.5,-3 -5.0937,-5.0938 -8.6875,-8 -10.3125,-11.625 -5.0938,-7.0937 -1,-4.5 -1.5937,-2 -1,-0.5 -4.125,-3.5937 -3.5,-5 -0.5938,-2.5 -4,-5.5938 -7.1875,-14.5938 -3.5937,-5.125 -12.8125,-22.6874 -6.5938,-5.5 -8.7187,-11.5938 -8.6875,-17.2188 3.5,0 -2.5,-4.5 -2.5938,-10.5937 -3,-6.0937 -1.0937,-2.5 -5.625,0 -0.5,-4 -5.5938,-16.1876 -3.0937,-13.125 -2,-13.5937 -2.0938,-7.0937 -2.5,-8.0938 -0.5937,-2 -0.5,-12.5938 -1.5,-9.625 3.0937,0 0,-1 -0.5,-3 2,-3.5 0,-4.5937 -0.5,-5 -1,-4.0937 0.5,-3.5 0.5,-5.0938 2.5938,-6 -0.094,-8.5938 2.0938,-8.625 1,-10.0937 0.5,-4.5 1,-0.5 0.5937,0.5 0.5,2 1,1.5 1,0 1,-1 0,-3 -0.5,-3 0.5,-5.0937 1.5938,-4 2,-4.5938 -0.5,-3 1.5,-1.5 2.625,-2 1,-12.0938 1,-19.2187 0,-24.2813 4.0937,-22.7187 -0.5,-8.0937 -2.5,-18.0938 -3.7187,-15.5938 -67.7813,0.5938 -90.0937,0.9062 -57.4063,0.5938 -42.4062,0.5938 -49.5938,0 -14.7187,0.1874 -2.1875,0 -85.9063,1.3126 -88.9062,1.1874 -78,0.5 -102,0.5 -37,1.125 -26.5,0.875 -54.1875,1.9063 -1.5,0 -135.5,-2.0937 -34,-0.4063 -55,-0.6875 -88.1875,-1.2188 -66.2188,-0.7812 -29.5937,-0.2188 -39.5,-0.375 -37.8125,-0.5 -30.6875,-0.125 -1,0 -41.6875,-0.875 -28.4062,-0.7187 -66.5938,-1.5 -91.9062,-2.2813 -100.2188,-0.7187 -28.6875,0 -30,-0.094 -42.0937,-0.3126 -26,0 -14.0938,-0.875 -19.2188,-1.2187 -35,-0.6875 L 1248.3132,5.1877 1119.407,4.9065 958.3132,4.0003 955.8132,3.6877 797.1882,0.594 785.0007,3e-4 l -0.5,0 z"
     id="rect4"
     inkscape:connector-curvature="0" />
  <path
	 style="fill:#9FAEC0"
	 stroke="#9FAEC0"
	 stroke-width="10"
	 transform="translate(0, 100)"
     d="m 1014.2813,1017.4374 -0.1876,1.5626 -1.9062,3.4062 -4.0938,3.6875 -4.5937,3.9063 -4.9063,2.3124 -5.1874,2.2813 -6.3126,1.9063 -6.6874,1 -8.5938,2 -9.3125,4.5 -6.0937,4.0937 -4.0938,4.4063 -3.625,5.5937 -3.2812,5.7187 -3.4063,2.2813 -4.5937,3.5 -3.0938,3.8125 -4.625,5.2812 -4.0938,5.5 -3.7812,4.8126 -4.9062,4.8124 -5.2188,3.5 -5.2812,3.0938 -4.9063,1.4062 -6.1875,1 -8,-0.2187 -11.7188,-1.5 -7.9062,-1.4063 -7.1875,-2 -4.0937,-1.5 -4.5938,-1.5937 -4.625,-0.7813 -3.375,-0.2187 -1.2188,0 -4.5937,0.3125 -6.8125,3.1875 -4.6875,2.8125 -5.3125,2.7812 -4.1875,0.9063 -5.0937,0.7187 -4.0938,1.2813 -4.125,2 -4.375,2.7187 -4.3125,4.375 -1.5937,2.5 -0.7188,4.4063 -1.0938,4.5 -1.7812,3.7187 -1.7188,2.6876 -3.4062,2.3124 -6.6875,5 -9,7 -5.3125,4.7813 -5.375,5.4063 -4.9062,4.4062 -3.5938,2.1875 -3.625,1.9063 -4.5938,-0.094 -6.6874,-0.5 -0.5,0 -6.3126,1.4062 -4.9062,2.0938 -5,1.4062 -7.1875,1.6876 -7.3125,0.9062 -6.0938,0.5 -4.6874,0.9062 -5.0938,0.6876 -6.7188,0.9062 -5.6874,-0.094 -0.4063,0.094 -6.1875,0.2812 -6.125,-0.7812 -7.6875,-0.8125 -6.5937,-0.9063 -7.7188,-1.5 -2.5,-0.5 -0.5,0 -6.6875,-0.5 -0.4063,0 -7.1874,-0.5 -6.5938,-0.7812 -6.2188,-0.3125 -5.0937,0.3125 -7.8125,-0.3125 -0.375,0 -8.3125,0.5 -5.5937,1.3125 -4.7188,2.4062 -0.375,0.2813 -4.9062,2.9063 -4.2188,3.4062 -5.875,3.7812 -5.625,3.4063 -5.375,3.5937 -8.9062,3.9063 -7.8126,3 -4.1874,1.3125 -7.3126,2.6875 -3.5937,0.8125 -3.0937,-0.094 -10.4063,-1.7187 -5.9063,-1 -5.4062,-2.0937 -6.1875,-2.5 -4,-1.6876 -4.5,-1.2187 -5.1875,-0.1875 -4.625,0.2812 -4.0938,1.2188 -4.0937,1.5 -5.5937,1.5 -5.4063,1.5 -11,2 -5.6875,1.5 -4,1.5938 -4.2188,2.4062 -2.6874,2.9062 -2.3126,3.875 -1.1874,4.5 -1.2188,4 -0.1875,4.5 -0.3125,6 -0.375,4.9063 -0.5,5 -1.7188,3.2187 -2.9062,3.875 -3.1875,4.9063 -2.8125,5.9063 -2.7812,7.3124 -1.5,8.0938 -1.5938,9.5 -0.9062,11.0938 0.1874,4 -0.094,1.5 -0.3125,2.0937 0.5,6 -1.5,6.0937 -0.5,6.5 -1.1875,4 -2.1875,4.4063 -5.625,8.8125 -2.375,4 -4.625,7 -3.0938,5 -2,4.5938 -2.0937,6.5 -1,3.5 -2.5937,7.0937 -3.0938,4.8125 -3.2188,4.4062 -1.9062,3.375 -1.0938,4.5 0,5 1.5,4.125 2.0938,3 4.625,6.0938 4.0938,5.0938 3,5.5 2,5 2,4.9062 0.6874,6.5938 0.9063,3.5937 1.5,5.0937 4.0937,6 3.5938,3.625 0.4062,0.1876 3.7188,1.8124 3,1.5 3.0938,2.0938 3.0937,3 1.4063,4 0.9062,2.5938 0.7812,3.5 1.4063,4 3.0937,4.0937 3.3126,1.8125 5,2.2812 6.5,1.4063 5.1874,0.094 4.2188,-0.375 0.375,0 4.625,-1.625 3.0938,-0.5937 2,-0.4063 4.5937,1.5 5.6875,3.125 5,5.5 2.7188,4.375 2.9062,5.7188 4.5938,9.0938 5.0937,10.0937 3.5,6.0937 2.6875,6.7188 5,7.9062 4.125,6.0938 3.0938,6 1.5937,4.2812 0.9063,4.3126 0,5 -0.5938,6.4062 -0.5,6.1875 -0.5,3.8125 -0.125,4 0.3125,4.5938 0.1875,6.0937 1.7188,8.0937 0.6874,7.625 -0.4062,8.5938 -0.5,11 -0.5,10.0938 -0.7812,7.5 -0.8126,6.6874 -1,6 -1.5937,8.125 -1.5,6 -1.6875,4.1876 -0.9062,2.4062 -1.5,3 -0.5938,4 0.5,4.0938 0.5,5 1.5938,3.5 1,4.0937 0,3.5 -0.5,3.5 -1,3.5937 -1.5,5.625 -2.2188,8.875 -2.5938,9.125 -3,7.7813 -2.5,3.0937 -3.6874,3.2188 -3.5938,2 -4.125,2.4062 -0.5,0.375 -3.5938,2.7188 -3.5937,2 -3.8125,1.2812 -3.375,1.2188 -2.625,1.5 -2.5,2 -2.5938,2.7812 -7.6874,9.3126 -4.8126,6.3124 -5.5,5.1876 -6.6874,8.0937 -6.2188,7.0937 -2.5,6 -3.7812,7.8126 -3.8126,6.4062 -3.2812,4.4062 -4.5,4 -3,2.6876 -3.7188,2.3124 -3.5937,3.5 -1.8125,2.375 -2.0938,3.3126 -3.4062,4 -4.5,3.4062 -2.5,5.4062 -1.7812,5.5 -0.4063,4.6876 1.5,5.9062 2.0937,10.1875 0.5,7.0937 -0.5937,9 -1.4063,4.5 -1.2812,5.5 -1.8125,6.5 -1.6875,4.4063 -2.5,4.3125 -2.125,4 -3.0938,4.5 -1.7812,3.4062 -1.8125,3.6876 -1.0937,4.8124 -1.5,5.1876 -1.0938,5.3124 -0.7188,4 0.2188,7.375 1.1875,6.7188 0.9063,5.4062 -0.5938,8 -0.625,6.2813 -0.875,8 -1.625,6.4063 -4.1875,9 -3.3125,4.4062 -3.7812,3.7812 -3.5938,2.9063 -4.625,3.5 -4.5,2.7187 -5.2188,2.6563 3063.5625,0 -1.125,-44.5625 -1,-47.3125 -0.094,-3.5937 -2.4063,-108.8126 -3.0937,-157.5937 0,-2.5 -1,-34.4063 -2.5,-120.875 -0.9063,-47.8124 -2.2187,-112 -1,-34.8126 -3.0938,-122.5 -1,-69.5 -1,-89.2812 -0.5,-37.9688 -2349.3124,0 z"
     id="rect6"
     inkscape:connector-curvature="0" />
  <path
	 style="fill:#9FAEC0"
	 stroke="#9FAEC0"
	 stroke-width="10"
	 transform="translate(0, 75)"
     d="m 320.9687,2050.9687 -4.1562,2.125 -5.125,4 -6.6875,4 -8.3125,5 -5.5,3.0937 -1.875,1.125 -4.3125,0.7813 -6.0937,0 -4.5,0.094 -5.8126,-0.5937 -5.9062,-1.5 -2.1875,-0.2813 -2.9063,-0.4062 -5.5937,-0.2188 -5.6875,0.2188 -5.7188,0.7812 -6.2812,0.8126 -7.2188,1.5 -8.6874,2.9062 -10.5,3.9062 -8.4063,3.0938 -18,7 -13.4063,5.5 -8.6874,3.5 -5.3126,2.6875 -5.5,4.3125 -5.6874,4.7812 -5.0938,3.8126 -5.125,5.8124 -7.1875,5.6876 -7.1875,6.5 -7.2188,5.5937 -6.5937,5.5937 -3.0937,2.9063 -3.0938,5.5 -2.7188,5.9063 -0.9062,5.6874 -0.094,4.8126 2.4063,4.6874 3.9063,3.7188 2.9062,2.5938 4.0938,0.9062 5,2.5 3.6874,3.5 4.7188,4.5 3.5,4.5938 2.5938,4.0937 2.5,5.3125 3.5937,11.1875 1.3125,5.5937 0.094,8.625 -0.8126,5.5 -1.4062,8 -2.5,9.5 -3.5,8.6876 -2.0938,5.5937 -2,7.5 -2.0937,6 0,5.5 -0.8125,7.0937 1.2188,6.625 2.7812,6.5938 4.4062,9 2.0938,5 1.3125,6.5938 -0.3125,6 -1.7812,5.5 -3.2188,3.8124 -4.7812,3.375 -3.5938,2.2188 -1.7188,1.0938 -7.0937,1.0937 -8.6875,1.5 -7.2188,1 -3.9062,1.2187 -5.1875,1.7813 -5.9063,4.5 -6,5 -4.5937,3.5 -4.0937,4.5 -3.5938,3.5 -3.5,5.4063 -2.2188,3.6874 -3.6874,5.2188 -3.5,6.7812 -2.5938,6.625 -1.8125,6 -1.0937,4.5 -1.9063,8 -1.6875,4.375 -2.7188,5.5 -2.0937,3.8126 -1.6875,3.0937 -1.9062,3.9063 -1.5938,5.5 -2.125,7.0937 -2.1875,5.4063 -0.1875,0.5 -1.7188,4.5937 -1.6874,4.9063 0.094,4.1874 1.1875,2.9063 0.9062,3.5 -0.094,3 -0.5937,3 -2.2188,4 -2.1875,5 -1.0937,1.4063 -3.0938,3.9062 -2.625,3 -1.5938,4.4062 0.094,3.5938 -0.1875,5 -0.1875,5.0938 -0.625,4.5 -0.6875,4.5 -0.6875,5.5 -0.125,3 -0.094,3.5937 0.4063,3.5 -0.094,3 0.094,3.0937 -0.3125,3 -1.1875,3.4063 -1.6875,3.5 -0.625,5 -1.875,4.7187 -0.5,4.2813 0.5,5.3125 1.1875,5.9062 0.8125,4.5 0,5.1876 -0.8125,4.9062 -1.3125,5.1875 -0.5938,3.8125 0.3126,6 -0.094,4.5938 -0.3125,6.5 1.3125,8.5937 1.375,12.3125 2.9062,10.5 1.0938,10.0937 1.7188,11.6875 2.9062,12 2.375,7.2188 1.125,4.6875 0.2812,5.5 -0.094,4.5937 -0.6875,4.7188 -0.5,5.5937 -0.9062,3.6875 -0.094,4.5 0.375,3.8125 0.9062,2.3125 1.7188,3.2813 5.0938,8.5 6.7812,10.4062 2.8125,7.5938 2.3125,7.5937 2.1875,9.625 2.9063,7.1875 4.4062,6.0938 3.5,7 2.5938,6.5937 3.4062,7.5 5.875,8.3125 1.125,1.1875 8.1875,10.2188 3.4063,6.0937 2,5 1,5.0938 0,4 -0.5,3.5 -2.5938,4.5 -2.625,3.5937 -2.875,2.9063 -2.7188,3.4062 -3.7812,3.8125 -0.3125,0.375 -3.9063,4.625 -3.2812,6.375 -1.2188,5.5 -0.6874,5.5 -0.8126,7.125 0.9063,5 0.8125,5.0938 2.7812,8.1875 3.2188,7.5 3,7.3125 3.875,6.1875 3.5,3.0937 4.625,2.9063 7,3.7187 7.375,5.5938 4.8125,3.5 5.6875,4 6,6.1875 7.9062,9.3125 4,4.6875 2.8126,5.5937 1.7812,4.5 1,5.125 0,5.5 -0.875,4.6875 -1.7188,4.9063 -0.6874,4 -0.4063,3.5 0,8.0937 -0.1875,1.4063 -0.4062,2.5937 -1.5,3.5 -1.5,4 -1,5.0938 0.2812,4.4062 0.4062,4.5938 1.2188,4.9062 1,4.6875 3.6875,4 2.6563,3.8125 3281.1562,0 -3.4062,-136.9062 -0.4063,-15.6875 -0.5937,-22.5938 -2.5,-118.2187 -3.5,-158.0937 -0.094,-21.5938 -0.8125,-137.0938 -0.8125,-156.125 -0.7812,-72.0937 -0.094,-13.0937 -0.8125,-65.9063 -2.9687,-116.125 -3063.5626,0 z"
     id="rect8"
     inkscape:connector-curvature="0" />
  <path
	 style="fill:#9FAEC0"
	 stroke="#9FAEC0"
	 stroke-width="10"
	 transform="translate(0, 50)"
     d="m 120.1563,3084.4999 1.9374,2.8125 5,5 4.4063,5.1875 4.9063,3.9063 3.0937,2.9062 5.5937,5.1875 7.2188,5.5938 6.6875,5.5 3,3 1,1.0937 2,3.5 2.8125,3.2188 3.6875,2.6875 4.8125,2.7187 6.0938,4.5 8,6 3.2812,4.5938 3.3125,4.9062 3.3125,5.1875 3.0938,3.5938 3.5937,4.5 2.4063,4.0937 2.6874,4.5 2.7188,4.2188 2.875,4.4062 4.5,4.875 4.4062,4.2188 4.7188,3.2812 5.375,4.2188 4.5,2.5937 4.2188,2 4.5937,2 5.3125,2.5 5.5,3.1875 7,5.2188 1.5,1.2812 1.0938,0.9063 1.9062,3.5937 1.875,4.125 1.3125,5 0.5937,5 0.5,4 0,5.1875 0.5,2.4063 0.9063,2.6875 1.8125,7.0937 3.875,7.8125 3.8125,5 5,5.1875 5.5,2.9063 8.6875,1.5937 0.5,0 12.9062,1.5 7.0938,0.2188 6,3.2812 5,4.2188 4.4062,5 1.5,4 4.5938,13 4.8125,9.1875 4.9063,7.5 3.9062,5.9062 3.2812,5.1875 1.5,4 0.9063,5.125 0.3125,5.5 0.7812,4.0938 1.5,4.5 2.0938,4 2.5,4.0937 5.2188,5.4063 5.4062,6.6875 6.2812,7 10.0938,8.7187 7.4062,6.7813 5.5,2.8125 4.5938,4.0937 5.2188,3.4063 3.7812,1.9062 4.4062,1.5938 3.5938,1.0937 2.5,1.5 3.7188,1.8125 4.5,2.1875 3.5937,2.0938 3.0937,1.5 6,2.4062 4.5,1.0938 3.8126,2.5 2.6874,2.3125 1.5,3.0937 0.9063,2.6875 0.5,1.3125 1.9063,3.5938 2.1874,2.7187 3.0938,3.5 4.625,4.5 8,6.5 5.5,4.2813 5.1875,2.7187 6.4063,5.1875 5.0937,4.5938 4.8125,3.8125 6,4.1875 4,2.2187 4.1875,1.5 0.4063,0.094 3.6874,1.2813 3.9063,2.5 2.4063,2.3125 5,4.5 3.5,3.4062 3.0937,2.5 0.4063,0.5 4.1874,4.5 4.0938,4.0938 3.625,4 5.0938,5.5 4.7812,4.1875 3.4062,1.9062 3.0938,2 3,2.4063 5.5,4.3125 1.2188,1.375 3.0937,3.5 5.0937,7.5 6.9063,8.2187 4.8125,6.5 2.375,3.5 1.7188,2.5938 5.2812,7.0937 5,6 2.9062,2.2188 1.7188,1.2812 3.2812,2.5 5.5,3.7188 3.5,3.0937 2.5,2.0938 1.9063,4.0937 2.9063,5.5938 1.4062,5.125 0.375,4.0937 1.625,6.5 0.7812,5.5938 0.2188,1.5 0.5,2.5 0.5,5 1.5,4.5 1,4.5937 0.875,4.7188 -0.6875,5.5937 -0.1875,5.2813 0,5.5 1,4.5 2.0938,5.125 1.5,4.5 1.0937,5.1875 0.9063,5.4062 -0.7188,7 0.3125,6.5 0.3125,7.0938 1.2812,6.0937 1.3126,6.5 1.5937,4.5 3.5,6.5938 3.0937,4.8125 2.9063,4.6875 2.9063,5.625 2.4062,5.5937 2.5,5 0.7812,4.1875 0.2188,2.8125 0,5.0938 -1.7188,4.5937 -1.9062,4.9063 -2.5,4 -3.0938,4.0937 -2.7812,3.3125 -3.4062,3.1875 -1.5,2.5 -1.5938,3.5 -2.625,4.5 -3,6.0938 -2.0938,4.4062 -1.5937,3 -0.6875,4 1.5,3.5 2.7812,3.7188 2.0938,3 2,3.5 1.5,3.5937 3.625,9 1.875,4.9063 0.3125,5 -0.094,4.0937 0.4062,3.5 2.0938,4.1875 3.2812,3.5 2.8125,3 1.5937,2.5938 3,3.7187 2.5938,6.7813 1,5.625 -0.1875,5.875 -0.1875,7 -0.7188,8.2187 0.8126,4.9063 -0.2188,4 3.4062,6.6875 2.3126,6.5937 1.9062,6 1.5,5 1.1875,5.3125 0.9063,4.5 2.5,4.7813 1.7812,3.4062 2.8125,2.7188 1.6875,2.5 3.4062,3 3.0938,3.0937 3.3125,2.9063 1.8125,2.5937 2.2812,2.5 1.4063,4.0938 1.4063,3 3.5937,5.5 3.8125,3.8125 5.875,3.7812 6.125,4.2188 8.7812,5.875 6.8126,3.2187 5,1.9063 5.5937,2.5 4.5937,1.0937 5.7188,-0.8125 6.0938,-1.2812 5.2812,-1.9063 5.8125,-3.8125 3.8125,-2.7812 4.0938,-4 4.7812,-4.8125 4.3125,-4.9063 5.3125,-5.4062 4.0938,-4.5 5.4062,-2.6875 3.5938,-2.4063 2.2812,-2.9062 5.2188,-6 2.7812,-5.375 5.4062,-7.4063 4.0938,-7.3125 1.625,-5.0937 0.5,-4 1,-5 1.375,-5.5 1.7188,-3.0938 0.2812,-0.4062 2.9062,-4.9063 3.2188,-4.9062 3.875,-2.7813 4.625,-2.5 4.5938,-1.3125 4.6874,-1 1.5,-0.2812 2.4063,0.2812 2.1875,0.4063 4.625,0.4062 4.0938,1 5.0937,1 7.0937,0.7813 9.4063,0.8125 7,1.6875 6.5,2.3125 7.6875,2.1875 7,3.9062 8.125,4.2188 6.6875,4.875 10.9063,6.2187 7.0937,4.9063 5.9063,4.0937 5.2812,3.5 7.3125,2.5 6.1875,2.4063 6,1.1875 9.8125,0 6.0937,0.5 4.5938,0.5 0.5,0 6.7188,0.6875 7.1874,1.4062 4.5938,1.5 5.625,3 4.375,1.9063 5,3.1875 10.625,6 6.1875,5.125 6.0937,5.5 5.0938,4.375 4.5,4.2187 4,4.1875 5.9062,3.4063 4.2188,2 4,2.0937 5.0938,2.4063 4.5,2.4062 5,3.1875 5.9062,3.5 10.1875,7.0938 8.6875,6 8.8125,5.7187 4.5937,2.4063 3.5,2.875 1.9063,4.125 1.9063,5.0937 0.7812,5 -0.5,5.0938 -0.875,5.5 -1.7188,7.5 -2.2812,6.9062 -1.2188,5.5 -2.2812,5 -0.3125,0.5938 -0.031,0.031 2273.0938,0 -2.25,-2.8438 -0.8125,-1 -7.0937,-8.6875 -4.3125,-5.4062 -2.0938,-3.5 -2.1875,-3.9063 -1.9062,-2.1875 -0.5,-1.0937 -0.3125,-1.0938 0.5937,-3.5 1.3125,-2.125 1.5938,-1.875 0.8125,-1.8125 -0.5938,-2.9061 -1.4062,-3.1875 -0.5,-0.8125 -0.5,-0.6875 -1.5,-3 -0.5,-3.3125 -0.094,-2 0,-0.6875 -0.4062,-2 -0.3125,-1.8125 -0.5,-2 -0.7813,-2.2813 -0.5,-1 -1,-1 -1,-1 -4.7187,-3 -0.5,-0.125 -7.2813,-1.6875 -2.125,-0.6875 -1.7812,-1 -1.5938,-2.125 -1,-2 0,-1 0.1875,-0.5 0.4063,-1.0937 1,-0.5 1.5937,-0.5 1.6875,-0.1875 0.7188,-0.7188 1.0937,-1 1,-1.5 -0.1875,-1.7812 -0.8125,-1.2188 -0.3125,-1 -0.1875,-0.5 0,-1.5937 0.5,-1.9063 0.3125,-0.5937 0.6875,-1 1.5,-1 2.1875,-0.9063 1.5,-0.5937 2.125,-1.6875 -0.125,-1.3125 -0.094,-2.0938 -2.0938,-1.9062 -2.5937,-2.4063 -0.5938,-0.5937 -1.8125,-2.0938 -0.5937,-1.5 -0.3125,-1.3125 0.4062,-3 1,-1 1.0938,-0.5937 1.5,0.9062 1.5,0.5 1.5937,0.5 1.125,0 1,-0.5937 0.375,-1.5 0.5,-1.5 2.625,-2.4063 1,-0.8125 1.6875,-1.2812 2.4063,-1 4.1875,-1 0.7187,-0.5 0.5,0 0,-1.3125 -0.125,-1.1875 -1,-1.5 -2.1875,-0.9063 -2,-0.5937 -2,-1.0938 -0.6875,-0.7187 -0.4062,-2 -0.094,-2.7813 0.5,-2 1.0938,-2 1.7812,-2.8125 0.9063,-0.8125 0.9062,-0.875 2.0938,-2.5 1,-3 0.3125,-2.8125 0,-1.3125 -0.094,-3.5 -1.7187,-4 -1.5938,-1.875 -0.5937,-1.5 0,-1 0.5,-2.625 0.9062,-2 0.5938,-1.0937 0.6875,-1 1.7187,-1.5938 1.375,-2 1,-2 -0.1875,-1.3125 -0.9062,-1.1875 -1.5938,-2 -3.5,-3 -1.6875,-1.4062 -0.625,-0.4063 -1.1875,-1.6875 -2.0937,-2 -1.0938,-2.5 -1,-2.1875 -2.125,-2.4062 -3,-2.5 -1.1875,-0.8125 -1,-0.5938 -5.6875,-1.9062 -7.4062,-2.7813 -6.7188,-1.8125 -7.7812,-3.1875 -3.5938,-1.5 -2.4062,-1.5 -1.8125,-0.8125 -0.5,-1.0937 -0.2813,-1.0938 0.094,-1.125 1,-0.5937 0.5937,-0.2813 1.5,0.094 2.0938,0.4063 2.5937,0.5 1.625,-0.2188 1.5,-1.5 0.375,-1.5 0,-1 -0.875,-1.2812 -0.7187,-0.7188 -2.5938,-1.4062 -2.5937,-0.875 -1.5,-1 -0.5,-0.5 -1.2188,-1.5 -0.094,-2.5 1.3125,-2.625 2.0937,-5.5 1.9063,-4.0938 1.4062,-3.0937 0.2813,-0.6875 0.9062,-3.2188 0,-3 -1,-4.0937 -5.0937,-8.5 -2,-2.5938 -1,-1.8125 -0.5938,-2.0937 0,-2 1.5938,-3.5938 1,-2.5 1.5,-2.5 0.5,-1.5 0.5937,-1.5 0.5,-2.5937 -0.5937,-3 -1,-2 -2.5,-2.5 -3.0938,-4.5 -1.5,-1.9063 -0.5,-0.5937 -2.2187,-3.2188 -2.0938,-2.5 -3,-2.7812 -3.5,-3.625 -3.0937,-1.875 -2.5,-0.9063 -1,-0.2187 -3.7188,0 -3.5937,0.5 -4.0938,-1.5 -3,-2 -0.3125,-0.5 -0.875,-2.2813 -0.8125,-1.8125 -0.094,-3 0.2813,-1.0937 0.4062,-1.1875 0.9063,-2 1.5,-1.625 2,-2 1,-2.5938 -0.1875,-2.1875 -1,-1.3125 -1.5,-0.9062 -0.7188,-0.1875 -1.5937,0 -1.5,-0.1875 -1.4063,0 -6.2812,0.1875 -7.5,0.1875 -1.4063,0.125 -1.9062,-0.3125 -2.9063,-0.094 -1.6875,-0.5 -1.5937,-0.3125 -2,-1.6875 -1.5,-2.8125 -0.125,-2.5938 0.5,-2.5937 1.125,-1 2,-0.5 1.875,-0.4063 2.7187,0.4063 2.4063,0.2812 2.5937,0 2.0938,-0.094 1.6875,-0.5937 0.8125,-0.5 0.1875,-0.5938 0,-1 -0.5,-1.5 -1.0938,-0.5 -0.5937,-0.5937 -0.6875,-0.2188 -1.7188,-0.7812 -0.5,-0.2188 -1.0937,-0.6875 -1.5,-1 -0.5,-1.2187 -0.094,-1.2813 -0.5,-2.2187 -1.0938,-1.5 -1.625,-1.375 -5.0937,-1.5 -0.6875,-0.125 -2.4063,-0.6875 -1.0937,-1.5 -0.2188,-0.8125 0,-0.875 0.5,-3.5 0.5,-2.5 1.5,-2.125 1.125,-2.875 1.1875,-4 1,-1.625 1.4063,-2.0938 1.5,-1.5 2,-1.4062 0.6875,-0.1875 1.4062,0 1.0938,-0.094 0.9062,0.2813 1.3125,0 0.7813,0.125 0.5937,0.1875 1.5,0.3125 2.5,0.875 1.625,0 1.5,-0.5938 1,-1 0,-0.9062 0,-0.5938 -1,-1 -3.125,-2.0937 -0.875,-0.1875 -1.625,-0.7188 -2.5937,-0.5 -2.0938,-0.5 -1.1875,-1.1875 -0.125,-1.5 0.5,-1 2,-2.5937 3.5,-2.625 5.625,-2.6875 2.1875,-0.5 2.3125,-1.6875 0.2813,-0.4063 0.7187,-1.0937 0.375,-2.5 0,-2 -0.094,-1.125 -0.094,-3 1,-2.6875 1,-1.5 1.5,-0.5 1.5,0.4062 2.6875,0.5 2.7188,-0.094 1.406,-0.9063 1.0938,-1.0938 0.2812,-0.5 0.625,-0.9062 1,-2 1.5938,-2 0.9062,-1.5938 0.7813,-0.7187 2,-0.5938 2.9062,-1.1875 2.0938,-0.9062 2.0937,-2.0938 1,-1.9062 0.9063,-2.7188 0.9062,-2.5937 1.5,-2.5938 2,-1.5 0.9063,-1 1.5,-1.6875 0.6875,-1.625 0.8125,-2.875 0.4062,-3 0.1875,-2.7187 0.094,-2.4063 -0.094,-2.6875 -0.094,-3.8125 -1.3125,-9.5 -0.1875,-3.5937 -1,-3.0938 0.4062,-1.9062 0.5,-2 1.1875,-1.5938 0.8125,-1.0937 0.375,-0.9063 1,-1 0,-1 -0.094,-2.0937 -1.5938,-2 -1.5937,-1 -3.8125,0.1875 -0.7813,0.3125 -2.4062,2.4062 -1.2188,2.1875 -1.5937,2.4063 -1.2813,1.0937 -0.9062,0.5 -2,0.4063 -1.0938,-0.3125 -0.7187,-0.9063 -0.5938,-1.1875 -3.5937,-6 -1.5938,-3.3125 -0.625,-1 -0.5,-1 -1,-1.5 -0.875,-1.2812 0,-3.5 0.094,-2.7188 1,-3.375 0.4063,-2.2187 -0.7188,-2.5938 -1.2812,-1.6875 -2,-3 -0.5,-3.125 -0.5,-1.5 0,-2.5 1.5,-3 1.5,-2.5 2.0937,-2.5 1.5,-2.5937 0.5,-2.5 -0.5937,-2.1875 -0.125,-0.5938 -0.875,-1.9062 -2.125,-1.4063 -2.0938,-0.5 -3.5,0.5938 -2.5937,0.5937 -2.5938,0.125 -1,-0.3125 -0.9062,-0.4062 -1,-1.5 0,-2 1,-1 1.8125,-0.7813 0.6875,-0.3125 2.8125,-0.9062 2.5,-1.0938 1.5,-1.5 2,-3 3.5937,-7 3.5938,-5.5937 0.8125,-1.5 1.2812,-2.5 2,-3.5 2.0938,-3 2.2187,-2.7188 2,-2 0.5,-0.375 1.5,-0.7187 3,-1.5938 3.5938,-0.6875 5.0937,0.5 1.9063,0.1875 4.3125,0.3125 0.5937,0 2,-0.4062 1.5,-0.5 2.5,-1.0938 1.5,-1.625 1.5,-2.5 0.9063,-2.0937 0.5,-1.9063 0.7812,-1.5 0.5,-0.6875 0.7188,-0.5 2,-1.0937 0.5937,-0.2188 0.7813,0 1,0.5 1.7187,1.125 2,1.2813 2.1875,1 1.5,-0.9063 -1.7812,-73.5 -0.4063,-23.2812 -1,-42.0938 -2,-94.125 -0.9062,-41.5 -0.3125,-11.375 -2.375,-107.2187 -0.5,-20.5938 -3281.1563,0 z"
     id="rect10"
     inkscape:connector-curvature="0" />
  <path
	 style="fill:#9FAEC0"
	 stroke="#9FAEC0"
	 stroke-width="10"
	 transform="translate(0, 25)"
     d="m 1174.4687,4118.0312 -2.1562,3.9687 -0.4062,0.6875 -4.0938,4.5 -9.3125,8.5 -7.5,4.125 -5.8125,3.875 -4.1875,2.3125 -3.1875,2.9063 -2.9062,2.9062 -2.3126,2.5938 -0.7812,0.9062 -0.3125,0.5 -2.3125,3 -3.0938,4.2813 -1.6874,4 -1.7188,3.9062 -1.5938,3.5 -3.2812,3.9063 -3,3 -2.5,2 -3.625,3 -2.5938,2 -3.5937,3.0937 -2.5937,3 -2.2188,2.9063 -2.6875,4.9062 -2.3125,6 -0.6875,6.5 0.1875,6 0.4062,5.0938 2.9063,6.6875 2.4063,4.0937 2.9062,4.125 3.1875,3.5 4.0937,5 3.0938,5.375 3.5,7.7188 2.625,8.0937 1.5,6.5 0.1875,1.5 0.9063,7.1875 1.4062,8.9063 -0.5,9.0937 -0.2188,6.2188 -1.2812,6.5 -1.625,4.9062 -2.0938,6.5 -3.0937,6.0938 -3.8125,8.9062 -5.375,8.1875 -5.7188,6 -11.2812,9.1875 -6.7188,5.3125 -3.9062,4.4063 -3.2812,4.6875 -2.9063,3.8125 -5.3125,7.6875 -4.0938,7.0937 -2.7812,4.8125 -2.7188,5.9063 -5.1874,9.4062 -0.2188,0.5938 -2.5,6.4062 -2.0938,5.375 -0.2812,1.2188 -1.5,4.7812 -3.3125,10.7188 -3.0937,8.0937 -1.5938,6.5 -1.5,5.5 -1.625,8.0938 -1,8 -1,7.0937 -2,13.5 -2.875,10 -2.8125,7.4063 -4.1875,8.3125 -3.625,7.5 -5.6875,6.5937 -4.3125,3.6875 -4.375,3.3125 -4.125,4.5 -6.375,8.3125 -6.4062,5.7813 -4.7188,5 -3.7812,4.8125 -2.9063,4.6875 -3.5937,6.0937 -2.5,6 -2.5938,5.5 -0.2188,5.5 -1.1874,5.5 -1.7188,6 -1.6875,5 -2.8125,5.4063 -2.1875,5.5 -2.3125,6 -1.2812,4.9063 -1.0938,5.5 0,5 -0.5,7.0937 -0.125,5.0937 0.125,6.4063 -0.625,14.5937 0,11.125 2.625,10.0938 1.5,7.5 1.5,8.0938 1.5938,7 1.6874,6.9062 1.8126,7.5938 3.1874,10.1874 3.5,7.5 2.2188,6.3126 3.875,6.8124 3.4062,5.5 3.4063,4.6876 3.4063,4.4062 3.5937,5.0938 6.1875,6.5 3.2188,2.5937 4.5,2 3.5,2 5.5937,2 5.0937,2.2187 5.7188,2.875 5.6875,4 4.0937,4.2188 4.0938,5.4062 3,5 3.125,6.5 3.375,6.6876 6.3125,12 4.9063,8.8124 0.9062,1.6876 0.375,0.5 7.9062,11.4062 8,9.2812 5.9063,5.2188 8,6.2812 7.8125,6.3126 0.6875,0.5 10.9063,8 8.6874,4.8124 6.5,3.1876 8.0938,3.8124 6.125,2.1876 11.5938,2.6874 6.1874,1.9063 5.5938,2.7187 4.625,2.375 3.5938,5.125 2.0937,5 1.4063,5.5 1.4062,4.5938 2.6875,6 4.0937,7.0938 6.2188,5.5 9.1875,6.3124 10.1875,5.2813 8.3125,2.5937 9.4063,3.625 5.9062,2.375 4.5938,4.125 3.5,3.5 4.1874,5 2.5938,2.5 4.625,4.5 3.5,4.0938 2.5938,5 4.0937,5.0938 6.6875,7 5.125,3.8124 5.1875,4.5938 3.5937,2.2812 10.9063,1.4063 24.9063,-5.6875 12.5937,-4.7188 4.5,12.8126 8.9063,-0.6876 0,6.6876 -7.5938,8.1874 -11.7188,7.125 -12,-0.625 -2,7.625 -10.9062,6.875 0.9062,10.9063 10.4063,19.2187 1.5,3.1876 4.3125,7.6874 4.875,8.7188 5.4062,5.4062 3.2813,2.25 44.3125,0 2.2188,-1.375 4.7812,-4.375 4.3125,-4.8124 4.1875,-4.9063 4.3125,-4.9063 4.9063,-3.375 3.5,-2.9062 4.1874,-3.4062 2.7188,-1.3126 3,-0.5 0.5,0 3.0938,0.125 4.0937,2.5938 3.5937,2.9062 10.7188,8.0938 6.6875,4.5 0.5937,0.6875 9.3126,6.0937 3.1874,1.4063 0.4063,4.0937 0.031,1.375 1521.2812,0 -2.625,-4.4687 -1.5938,-3.5 -2.5937,-4.0937 -2,-4 -2.5938,-4 -1.0937,-1.6876 -0.9063,-1.3124 -2.0937,-3 -1.625,-3.8126 -1.375,-3.2812 0,-3.5 0.1875,-1.5938 0.4062,-1.125 1,-2.0937 2,-1 0.7813,-0.1875 1.7187,0 2.5,0.9062 2.6875,1.5 3.7188,2.875 2.5,2.125 3,2.0938 5.0937,3.5 3,0.5 4.1875,0.5938 3.0938,0 3.125,0.094 3.5,-0.5937 0.5,-0.094 1.7812,-0.5938 2.9063,-0.9062 0.6875,-0.094 1.2187,-0.125 2.5938,0.5 1.0937,0.4063 1.5938,0.9063 1.7187,1.1874 2.9063,1.3126 2,0.5 0.5,-0.1876 2.0937,-0.8124 1.1875,-0.9063 0.8125,-0.9063 1.5,-2.7812 0.4063,-2.8125 -0.125,-1.7813 -0.1875,-1.9062 -0.1875,-1.4062 -0.8125,-2.9063 -2.1875,-4.4063 -2.125,-2.875 -3.0938,-1 -5.1875,-0.8124 -12,-1.1876 -0.5937,-0.125 -4.9063,-0.6874 -1.7187,0 -2.375,0.094 -3.625,0.094 -2.1875,-0.5 -2.5938,-0.375 -2.0937,-1.5 -2.7188,-2.7187 -0.2812,-0.5937 -1.125,-2.5 0.2187,-2.6876 1.5938,-3.4062 1.5,-2.0938 2,-1.5 2.5,-1.125 2,-0.094 2.0937,1.0937 3.5,3 2.0938,1.5 2.625,2 1.875,1 2.2187,0 3.0938,-0.5 2.3125,-0.6874 2.2812,-1.3126 2.2188,-2.2812 1.375,-2.2188 0,-3 -0.5938,-3.5 -1.5,-5.0937 -1,-5 -1.0937,-5 0.094,-4.0937 0,-1.1876 0.2187,-1.5 0.1875,-0.7187 0.8125,-1.1875 2,-1.7188 1.875,-1.1874 2.7188,-1 2,-1.0938 2.5,-1.4062 2.5,-1.6876 2.1875,-2.3124 1.3125,-2.3126 0.4062,-2.0937 0.2813,-2.1875 0.5,-3.5 -1,-4.5 -0.5938,-2.2188 -0.5937,-1.5937 -2.4063,-5.7813 -0.6875,-1.2187 -5.5,-9.4063 -1.5,-3 -0.7187,-2.5 -0.1875,-1.5 -0.5938,-3.5 1,-3.5937 1.5938,-3.5 2.5937,-4.0937 0.4063,-0.4063 2.0937,-3 2.0938,-1.5 2.5937,-2.1875 0.9063,-1.4062 0.4062,-0.8126 -0.094,-3.0937 -1.7187,-2.2813 -0.6875,-0.5 -1.3125,-0.625 -1.875,-0.1874 -1.3125,0 -4.6875,0.5 -3.5,0.5 -3.5,0.1874 -3.625,-0.375 -2.5938,-1.4062 -2.6875,-2.5938 -2,-2.8124 0,-3.0938 0.7813,-1.7188 1,-1.7812 2,-3.0938 3,-2.125 2,-1.0937 2,-0.6875 5.7187,-0.5 7.6875,1 3.5938,0.5 3.125,0.094 2.5,-1.0938 3.5937,-1 7.1875,-3 2.3125,-1.3125 3.0938,-1.7813 8.5,-5.8124 5.5937,-3.0938 3.0938,-2.5938 4.125,-3.5 2.1875,-3.4062 1.9062,-3.7188 1.0938,-3.7812 0.094,-1 0.3125,-3.7188 0,-1.6874 -0.2188,-1.1876 -0.6875,-2.3124 -0.5937,-1.4063 -1.0938,-2.4063 -0.5,-0.875 -0.9062,-1.4062 -0.2188,-2.5 0,-2.5938 -1.5937,-1.4062 -1.7813,-0.4062 -2.2187,0.5 -2.0938,1.0937 -2.9062,1.5 -7.1875,4.3125 -12.5938,6.9062 -2.5,1.375 -2.9062,1.4063 -1,0.5 -3.5938,1.5937 -2,0.5 -1.625,-0.5 -1.6875,-1 -0.5,-0.2812 -0.9062,-1.3125 -1,-2 -0.7813,-1.2813 -0.625,-1.4062 -0.5937,-3.5 0.5,-3.8125 1,-2.0937 3.0937,-3.5938 2.125,-1.4062 3.5938,-2.5 3.5,-1 2.1875,-0.1876 4,-0.125 1.0937,0 2,-0.094 3.125,0 0.5,-0.1875 3.0938,-1 2.5,-1.0938 2,-1.625 0.4062,-0.5937 1.0938,-1.9063 0.9062,-3.5937 0.2813,-4.5 0.5,-3.9063 1,-3.2812 2.4062,-2.7188 0.9063,-0.875 5.0937,-1.5 2.9063,-1 2.5937,0.5 3,1 3.0938,1 1.9062,0 1.4063,-0.5 2.7812,-3 2.2188,-3.2187 1.5,-2.7813 0.5,-1.125 3.5,-4.5 2.0937,-1.875 2.1875,-1.7187 2.625,-2 1.875,-2.4063 0.9063,-1.375 0.5937,-1.125 0.625,-2 1.5,-2 1.5,-1.5 1.5938,-2.5 0,-2.5937 -1.5,-3.5 -0.5938,-2 -1.4062,-2.0937 -1.5938,-0.9063 -1.125,0 -1.0937,0.3125 -1.2813,1.0938 -1.125,1.0937 -0.375,0.5937 -0.7187,0.9063 -2,3 -1.9063,2.0937 -2.0937,0.5 -1,-0.5 -0.2813,-0.5937 -0.4062,-1.5 -0.5,-3.5 -0.2188,-0.5937 -1.2812,-3.4063 -0.5,-2.5 -1.3125,-3.2813 -3.2813,-3.3124 -3.625,-1.5 -2.0937,0 -3.5938,-0.5 -1.3125,-0.5 -3.375,-1.6876 -5.2187,-3.9062 -0.4063,-0.4062 -3,-3.5938 -6.2812,-9.8125 -0.3125,-0.6875 -3,-6.7188 -1.4063,-4.7812 -0.7812,-3.0938 -0.4063,-2.4062 -0.4062,-2.7188 0.3125,-5.5 0,-1.6874 0.094,-5.3126 0.1875,-1.0937 0.5,-2.5937 -0.094,-1.5 0.9062,-4.9063 0.5,-3.6875 -0.8125,-4.5 -0.2812,-1.9062 -0.4063,-1.5 -2,-3.5 -1.0937,-2.5 -1.7188,-3.5938 0.2188,-0.7188 0.2812,-1.1874 1,-1.0938 0.9063,-0.9062 1.5937,0.4062 2.125,0.9062 0.7813,1.0938 2.5,3.5938 4.7187,7.5 2.1875,3.0937 1,1.0937 1.0938,1.3126 2.2187,2.0937 2.0938,0 0.7812,-0.2813 0.625,-0.4062 2,-2.5938 0.5,-1.3124 0.1875,-1.5 0,-2 0.094,-3 0.5,-1.8126 1.0937,-2.7812 1.4063,-0.9062 2.0937,-1.0938 2.3125,-1.5 0.5938,-0.4062 1.2187,-1.5 1.5,-2.0938 0,-2 -0.5,-2.5 -1.625,-2.0938 -2.5937,-2.4062 -0.4063,-0.5938 -0.5,-0.9062 -0.375,-1.0938 -0.4062,-1.4062 1,-3 2,-2.0938 2.4062,-1.5 1.5,-1.4062 0.7813,-1 0.8125,-1.5938 0.9062,-3.2187 0.5938,-1.7813 1.1875,-3.8124 1.0937,-1.9063 1.9063,-2.4063 2.5,-2.5 3.5937,-2 2.625,-1.5 1.375,-0.1874 2,-0.094 3.625,0.4062 3.0938,0.875 2.1875,1.7188 1,0.7812 1,1.4063 0.5937,3 -0.875,2.5937 -1.5,2.5 -1.5,2.9063 -0.4062,0.7187 -0.3125,0.5 -1.5938,3.5938 -1.9062,3.5938 -0.5,3.5 0.4062,1.9062 0.4063,1.4062 1.5,2.1876 1.2812,0.9062 0.8125,0.5 3.0938,-0.5938 1.0937,-0.625 2,-1.2812 2,-3.5938 2.2188,-4.8124 1,-2 1,-1 2.4062,-2.5938 1.5,-1.5938 1,-0.9062 1.6875,-1.5938 2.0938,-3 2,-5.125 2.5937,-5 1.8125,-3.875 1.9063,-5.125 1.5,-3 1.9062,-2.5937 3.0938,-1 2,0.4063 2.1875,1.5937 1.0937,1.4063 0.9063,1.1874 1.0937,5 0,2.8126 -0.1875,1.9062 -0.6875,2.9062 -0.625,2.5 -0.875,5.6876 1.6875,4.5 0.5938,1.8124 0.5,1 2.5937,3.5 2.125,2.5 1.2813,1.0938 0.7187,0.4062 2.5938,0.5 2.1875,-0.125 2.5937,-1.0937 3,-2.5937 3.8125,-7.1876 2.5,-4.125 1.8125,-4.5 1,-4.5 0.1875,-1.0937 0.4063,-2.9063 0,-4 -0.094,-5.6874 -0.625,-4 0,-2.4063 -0.094,-1.6875 0.3125,-6.3125 1.5,-8.5938 1,-4 0.5,-3.8125 1.5938,-3.2812 1.4062,-2.8125 0.6875,-1.6875 1,-1.5 1.5938,-2.7188 0.625,-0.7812 2,-2.5938 1.375,-3.125 2.125,-2.875 2.5937,-3.5 2.1875,-2.3125 3.5,-2.6875 9.2188,-3.3125 6.0937,-2.3125 3.5938,-1.5 1.6875,-1.2812 0.9062,-0.7188 3,-2.5937 2.3125,-2.5938 1,-1.5937 0.9063,-1.8125 1.5,-3.2813 0.1875,-0.5 1.3125,-2.2187 3.0937,-4.5 3.1875,-4.6875 3,-4.5938 4.5938,-6.8125 3.7187,-5.5 1.4063,-3.0937 0.5937,-1.5 0,-0.5 0.4063,-1.5 0.375,-3 0.125,-2.7188 0.1875,-4.375 0.3125,-5 0.094,-1.3125 0.2812,-3.3125 0,-1.0937 0.2188,-1.2813 0.5937,-3.7187 1,-2.5 2.5938,-2.4063 2,-2 2.0937,-2.5 0.5,-2 0,-1.2812 -0.375,-1.5938 -0.3125,-0.625 -0.9062,-1.0937 -1.1875,-1.4063 -0.8125,-0.7812 -1.2813,-0.5938 -0.8125,-0.2187 -2.5937,-0.5 -2.5,0 -3.5938,-0.4063 -1.7187,-0.2812 -0.7813,-0.3125 -0.625,-0.094 -1.0937,-0.6875 -1,-0.9063 -0.4063,-0.8125 -0.5,-3.5 0,-1 0.2188,-0.7812 0.9062,-4 1.5,-3.2188 2.0938,-3.0937 0.2812,-0.4063 2.7188,-3.0937 2.6875,-2.5938 3,-2 1.7187,-0.3125 2.875,-0.5 3.125,-0.094 0.375,0 2.7188,-0.1875 4.5,-0.4062 2.9062,-0.2188 3.7813,-0.2812 3.5937,-0.4063 6.125,-2.6875 1.875,-1.125 4.7188,-2.5937 4.0937,-2.5938 1.9063,-1.0937 3.5,-3.2188 0.6875,-1.0937 1.7187,-2.7813 2.5938,-4 1.2812,-3.3125 1.5,-3.0937 1.3125,-2.2188 1,-1 1.8125,0 0.875,0.125 0.5,0.1875 1.125,0.5938 1.875,1.7187 2,1 1.4063,0.5 1.4062,0.1875 1.9063,-0.094 1,-0.094 2.5,-1.125 2.1875,-1 1.5,-2.0937 1,-2.5 0.5,-2.5 -0.6875,-3 -0.5938,-2.5 -0.7187,-1.0938 -1.0938,-1.3125 -2,-2.5937 -2.0937,-1.5 -1.5,-1.7813 -1.5,-2.7187 -1.0938,-1.7813 -2,-3.7187 -2.125,-4.5938 -3.0937,-4.5937 -2.1875,-3.4063 -0.3125,-1.1875 0,-0.8125 0.7187,-2 0.5,-0.5937 2.5,-2.5938 3,-2.625 2,-1 2.5938,-1.5937 2.5,-3.2813 0.2812,-0.7187 0.8125,-2.1875 0,-3.5 0.5,-2.5938 0.5,-2 0,-1 0.5938,-1.2187 0.9062,-1.2813 0.5938,-0.7187 0.4062,-0.4063 1,-0.5 2,-1.5937 1.8125,-1.4063 0.875,-1.875 1.125,-3.125 0,-2 -0.125,-2.7812 -0.375,-2.7188 0,-1.5937 0.1875,-2.1875 0.1875,-1.2188 0.5,-1.5937 0.625,-0.5938 1.0938,-1.1875 0.5937,-0.2187 1.4063,0 1.5,0.5 2.2812,2 0.4063,0.4062 1.9062,1.1875 2.8125,0.9063 2.0938,0.3125 3.0937,0.4062 2.3125,0 1.2813,-1 0.5,-1.9062 0.3125,-1.3125 -0.5938,-3 -1.5,-2.4063 -0.4062,-0.2812 -1.5938,-0.8125 -1.3125,-0.5938 -0.8125,-0.4062 -3.375,-1.2813 -1.7187,-2.2187 -0.5,-1.2813 -0.2813,-1.4062 0.375,-3.5 1,-3.5 0.9063,-2.0938 0.9062,-2 0.5,-2.125 -0.094,-2 0,-2 -0.094,-2.5 1,-2 1,-2.1875 1.2812,-2.5 0.2188,-0.5937 0,-4.5 -1,-2.5938 -0.5,-2.5 0,-2 0.094,-0.625 0.2813,-1.375 1.625,-2 0.375,-0.4062 1.7187,-1.5938 2.5,-0.625 1.7813,-1 2,-1.5937 1.4062,-2.0938 1,-2.8125 1,-4 0.5,-3 1.5938,-3.5 1.4062,-3.1875 0.7188,-1.1875 4.5,-3.7187 3.0937,-2 2.1875,-1.0938 2.8125,-1.1875 6.5938,-2.7187 5.5937,-1.6875 7.0938,-1.2188 6.5,-1.6875 0.5,-0.094 8.2187,-2.9062 6.1875,-2.5 4.0938,-4 3.625,-3.5938 3.1875,-4.3125 2.4062,-6.1875 1.0938,-6.0937 0.3125,-2.3125 0.1875,-1.1875 0.5,-3.5 0.094,-0.625 0.4063,-2.875 0.1875,-1 0.625,-2.625 1,-2 1.375,-2.6875 1.5,-3 1.5,-2 1.5,-2.3125 1,-2.5938 1.125,-2 1.7812,-3.2812 1.9063,-3.125 1.4062,-2.0938 1.5,-1.5937 1,-2.5 -0.5937,-2.5 -1.125,-1.5 -1.5938,-1.4063 -1.0937,-2 0,-2 -0.094,-2.5937 0.9066,-3.0939 0.1875,-0.7188 0.6875,-2.7812 1,-3 0.2188,-1.2188 0.1875,-1.2812 -0.094,-3 -1.5937,-1.5 -2.5,-0.5 -2.5938,0.5 -1.5,0.2812 -1.125,0.2188 -1.375,0 -1.125,-0.2188 -0.5,-0.094 -1.0937,-0.6875 -1,-1.4062 0.4062,-1.8125 0.4063,-0.5938 0.7812,-0.6875 1.125,-0.5 1.375,-0.5937 2.125,-1 2.5,-1 2.0938,-1.2188 0.6875,-0.2812 1.5,-1 0.9062,-1.3125 0.5938,-1.1875 -0.094,-2.125 -0.5,-3.375 -1.0937,-3.125 -0.7188,-1.6875 -1.0937,-1.6875 -1.0313,-1.2813 -2273.0938,0 z"
     id="rect12"
     inkscape:connector-curvature="0" />
  <path
	 style="fill:#9FAEC0"
	 stroke="#9FAEC0"
	 stroke-width="10"
     d="m 1323.875,5151.5624 1.9375,1.3438 8,2.1875 9.1875,2.3125 6.8125,0.5 8.6875,-1.5 5.0937,-2 4.5938,-2.8438 -44.3125,0 z m 124.6563,0 0.062,2.8438 -0.2812,0.5 -1.9062,4.5 3.5937,11.1875 8.4063,8.4063 4.0937,-4.0938 14.8125,3.5938 7.875,5.8124 14.3125,0 14.5,18.5938 11.4063,10.4062 32,20 2.0937,2.875 4.0937,6.125 3.5938,6 1.5,4.5 -0.1875,5.0938 -0.5937,5 -2.3126,5.9062 -2.7812,6 -1.8125,4.6876 -1,4 1.5,4.0937 2.4063,2.8125 4,2.6875 4,2.3125 0.4062,0.094 3.6875,0.9062 4,0.1875 7.1875,1.5 6.625,1.0937 6.1875,1.5 5,2.7188 3.6875,2.2812 3.3125,2.9063 2.4063,4.0937 3,4.625 1.5,4.5938 1,2.5 3.0937,3 3.1875,2.6875 0.4062,0.3125 4.0938,2.5 7.2188,3.0938 8.6874,2 8.7188,2.5 11,2.5937 8.5,2.5 7.2812,2.4063 0.4063,0.1874 6.1875,3.5 3.9062,3.3126 4.3126,4.6874 1.5937,3.625 0.4063,4 0,4 -1,3 -0.5,3.5 -0.5938,4 -0.7188,5.0938 0.4063,5.5 -0.1875,4 0.2812,6.5938 -0.094,4 -0.5937,3 -0.094,2.5 0.375,3 2,3.0937 1.7188,2 1.5,2 1,2 3.0937,4.8125 5.0937,6.2812 7.3126,6.7188 5.4062,7.1875 3.875,6.2187 2.4062,5.0938 1.5,5 0,4.5 -0.1874,0.5938 -2.3126,5.3124 -4.4062,2.6876 -3.2812,2 -4.7188,0.094 -5.875,-1.5937 -0.3125,0 -5.9063,-2.1876 -4.2812,-1.125 -3.2188,-0.1874 -2.4062,1 -2.0938,2.1874 -0.6874,5.2188 0.2812,4.5 -0.1875,0.5938 -0.4063,6.9062 -0.094,0.5938 -0.4063,8 1.9063,5.5937 1.6875,10.5937 4.2188,11.7188 4.9062,9.4062 2.7812,6 3.8126,8.0938 2.4062,7.1875 2.1875,6.9063 2.0937,6.5937 4.2188,7.9063 4.6875,5.9062 3.5937,6.9062 3.3126,6 5.1874,5 5.0938,6 8.2188,6.5938 4.5937,5 3.8125,5.0938 2.7812,5.5 4.8126,10.9062 2.2812,9.0938 3.2188,11.1874 2.1874,10.625 2.4063,8.5 0.5,5.0938 0.5,7 -0.6875,6.1875 -0.9062,6.4063 -1,7 -1.5938,6.0937 -2.625,9.5 -2.1875,4.5 -4.1875,3.4063 -4.2188,2.3124 -7.2812,1.875 -8.2188,1.2188 -8.2812,1.1875 -6.125,0.8125 -3.6875,1.9062 -0.9063,0 -2.6874,1.375 -3.5,3 -4.5,4.3126 -3.2188,3.6874 -3.0938,3 -3.0937,4.125 -5,5.7813 -1.1875,5 -1.5,5.8125 -1.5,7 -1.8125,6.1875 -1.9063,6.4063 0,5 0.5,5 2.0938,5.0937 3.125,5.3125 2.375,4.0938 4.9062,6.6874 4.4063,4.5 3.5937,1.5 5.2188,1 4.5,0.125 4.1875,-0.8124 5.0937,-0.1876 1.5938,-0.125 5.625,-0.375 0.5938,0.375 2.5,1.625 1.4062,2.6876 0.5938,4.8124 -0.5,5.0938 -1.5938,4.1875 -1.7188,4.4063 -1.6874,4 -1.7188,5 -0.5,3.5 0,4 2,7.5937 3.125,10 2.5,8.5937 1.5938,7 3.5937,6.5 2.8125,6.7188 4.7812,7 4.0938,7 3.7188,8 2.4062,6.5938 3.7812,7.6874 3.4063,5.625 3.9063,6.1876 4.7812,4.6874 3.7188,3.625 4.5,3.5 3.5,1.7813 2.5,2.0937 3,3.7188 2.7812,3.4062 3.625,4.5938 2.375,3.7812 3.9062,5.7188 3.3126,4.7812 1.1874,3.3126 1,4 0.094,4.6874 -0.094,4.9063 -0.5,4.0937 -0.7812,4 -2.8125,6 -2.5937,6 -1.5938,6.5 -1,5.4063 1.5,5.2187 3.7812,4.0938 3.4063,2.5 5.5937,4.5 6.0938,4 8.5,5.2812 8.625,3.3126 5.5,3.5 6.5938,3.5 8.0937,4.1874 6,4.3126 4,3.5937 3.5,3.5937 3.5937,4.5 3.8126,3.9063 2.9062,3.2187 3.5938,4 2.5,1 3.0937,0.5 4.5,0.375 3.6875,-1.375 3.125,-3 4.0938,-4.5 4.5,-4.8124 2.1874,-3.3126 1.0938,-3.0937 1,-4.4063 -0.1875,-4.5937 -0.9063,-5.5937 -1.9062,-4.0938 -3.6875,-4.3125 -3.6875,-4 -3.5,-2.5937 -2.5,-1.5938 -3.625,-0.9062 -5.5938,-3 -3.5,-2 -5.5,-2.6876 -4,-3.2187 -3,-2.5937 -3.1874,-3.9063 -1.7188,-3.2813 -0.2812,-6.125 0.6874,-3.875 2.5,-2 49.8126,1 3.0937,4.0938 3.6875,9.7812 4,11.3126 5.125,6.0937 5.5938,4 6.1874,3.5 3.3126,1.5937 4.4062,3 2.1875,1.2188 3.8125,3.9062 1.6875,2.2813 0.3125,0.5937 1.6875,4 0.9063,3 0,0.625 1.0937,6 1,8.0938 0,8.5938 1.0937,7.5 2.0938,6.1874 3.9062,4.125 4.0938,2.1876 3.7188,0.5937 7,-0.2813 6.2812,-1.7187 4.7188,-2.4063 6.0937,-3.1874 9.5,-3.9063 7.3125,-2.7813 -10,-7.4062 -8.4062,-6.5 -14,-15.5938 -8.7188,-18.625 -0.7812,-2.5937 -0.2188,-1.0937 -0.5,-11.5 1.5,-10.9063 0.8125,-3.0937 1.5937,-6 5.7188,-10.0938 2,-3.5 3.0938,-5.5 0.2812,-0.5 25.4062,-27.5938 1.3126,-1.4062 15.4062,-16.8125 2.7812,-3.5 1.4063,-2.0937 11.3125,-22.5 10.6875,-21.3126 6.9063,-10.5 40.2812,-40.1874 24,-17.0938 1.625,-0.5938 16,-5.625 24.5938,-1.5 22.6874,2.5 5.9063,1.3126 10.8125,3.0937 6.2812,2.4063 3.9063,1.5937 11.8125,5 25.1875,11.5937 14.3125,5.625 20.0938,8.5 25,10.875 31.2812,23 0.5,0.4063 23.125,19.5 1.0938,0.5937 6,2.3126 13.6874,-0.4063 4.2188,-0.1875 3.2812,0.4062 5,0.6876 13.9063,4.4062 6.6875,4.5 18.4062,7.5938 14.8125,4 11.5,4.5 4.9063,2.5937 4.1875,2.5 9.8125,7.8125 1,0.6875 31,26.2187 1.1875,0.875 11,9.2188 4.5,2.2812 4.5937,2.2188 2.5938,0.7812 9.2187,2.4063 9.2813,1.2187 2.625,0.2813 18.1875,-1.1875 2.6875,-0.4062 3.125,-0.9063 5.5937,-2.1875 7.1875,-4.5 7.7188,-7.2188 9.7812,-13.375 2.0938,-3.5 3.3125,-5.625 8,-15.5 0.3125,-0.6874 9.875,-23.5938 2.5,-13.2188 -0.375,-10.5937 -8.8125,-24.2813 -6.5,-18.125 -7.6875,-15 -8,-10.375 -1.7188,-1.9062 -5.0937,-4 -0.5938,-0.4062 -3.9062,-2.6876 -4.3125,-7.3124 -11.0938,-19.1876 -9.2812,-8.7187 -5.2188,-4.9063 -5.1875,-7.5937 -0.9062,-2 -1,-6.5937 -0.5,-4.5 0.3125,-2.9063 1.375,-7.7813 2.7187,-9.625 1.2813,-3.875 3.625,-8 6.2812,-13.9062 11.2188,-28.5938 0.375,-1.7187 3.4062,-13.2813 1,-3.8124 0.9063,-11.6876 1.0937,-15.125 4.7188,-9.2812 7.7812,-10.4062 2.3125,-1.9063 11.5938,-10.1875 14.0937,-5.7188 6.2188,-3.1874 3.5937,-1.5 2,-0.5 2.5938,-1 4.5937,-0.5 1.7188,0.5 5.875,2.1874 10.5,8.2188 5.4062,4.1875 6.3125,4.5937 1.5,1 4.5938,0.625 3.0937,0.2813 2.7188,-0.5937 8.5937,-3.9063 8.6875,-11.5937 5.2188,-6.9063 10.5937,-10.6875 13.5938,-9.7188 3,-1.6874 6.0937,-3.0938 2.8125,-1.0938 29.5938,-8.3124 16.1875,-1.0938 1.2187,-0.094 29.4063,-2 8.0937,-0.9062 3.5938,-0.5 5.0937,-1.4062 22.0938,-5.9063 2.9062,-0.6875 7.7188,-2.0938 1.5,-0.4062 3.7812,-0.7188 7.2188,-1.2812 2.875,-0.5 3.8125,-0.5938 4,-0.3124 11.5937,-0.4063 7.7188,-0.2813 15.0937,-5.2187 6.9063,-7.2813 3.375,-5.7187 2.8125,-7.1875 2.0937,-11.5938 -0.2812,-6.625 -0.5,-9.0937 -0.5,-1.2813 -4.625,-11.3124 -3,-2.5938 -3.0938,-2.5 -8.1875,-6.5938 -0.5,-0.4062 -2.5937,-3 -2.5,-3.5938 -2.125,-3.5 -2.5,-4 -1.6875,-2 -15.0938,-13.3124 -3.2187,-2.3126 -6.1875,-8.0937 -3,-5 -3.4063,-13.9063 -4,-16 -1,-2.7812 -9.4062,-25 -0.5938,-2.5 -3.0937,-11.5 0,-8.8125 0.094,-3 1.0937,-6.0937 0.9063,-3 1,-3.0938 4.3125,-8.5 14,-22.7188 11.6875,-14.0937 12.7187,-8.9063 7.2813,-5 8.5937,-5 1.7188,-1 16.6875,-9.6874 9.8125,-9 9.9062,-18.0938 0.6875,-1.4062 4.8125,-8.8126 1.6875,-11.875 0.4063,-2.7187 0.7812,-5.7813 0.625,-4.2187 0.6875,-3.5 2.5938,-4.5 -0.6875,-3.5 -0.3125,-2 -1.0938,-3.5 -0.6875,-1.5 -0.9062,-1.2813 -2.0938,-1.5 -1.625,-0.5 -1.2812,-0.3124 -4.0938,0.094 -0.7187,0.2187 -4,1.1876 -2.0938,1.0937 -0.9062,0.4063 -2.5938,2.0937 -3.0937,1.5 -4.0938,1 -4.125,-0.5 -4.5937,-2 -4.6875,-3.1875 -0.7188,-1.3125 -2.0937,-4.0937 -2.1875,-5.5 -0.2188,-0.5938 -1.375,-4.5 -0.125,-1.0938 -0.094,-3.2187 0.4063,-3.0937 1,-2 2.5,-1.5938 3,-0.5938 3.0937,0.5938 4.0938,1.6875 2.2187,0.9063 5.6875,2.4062 5.7188,2.7812 1.7812,0.625 2.5,0.5938 5,0.5 3.5938,-0.5938 4.125,-1.125 0.375,-0.1874 2.9062,-1.5938 1.4063,-0.7188 0.9062,-0.5937 0.2813,-0.5 0.9062,-1.1875 1.0938,-4.5 0,-0.5938 -0.094,-2.9062 -1,-3.2188 -2.5,-2.875 -2.2813,-1.5 -2.2187,-1.2187 -7.1875,-2.7813 -7.9063,-3.8124 -5.1875,-2.9063 -5.9062,-4.5 -3.7188,-5.9063 -2.1875,-4.2812 -0.1875,-0.3438 -1521.2812,0 z"
     id="rect14"
     inkscape:connector-curvature="0" />
</svg>
