<?xml version="1.0" encoding="UTF-8" standalone="no"?>
<svg
   xmlns:dc="http://purl.org/dc/elements/1.1/"
   xmlns:cc="http://creativecommons.org/ns#"
   xmlns:rdf="http://www.w3.org/1999/02/22-rdf-syntax-ns#"
   xmlns:svg="http://www.w3.org/2000/svg"
   xmlns="http://www.w3.org/2000/svg"
   xmlns:sodipodi="http://sodipodi.sourceforge.net/DTD/sodipodi-0.dtd"
   xmlns:inkscape="http://www.inkscape.org/namespaces/inkscape"
   width="620.90625"
   height="972.65625"
   viewBox="0 0 620.90625 972.65625"
   id="svg2"
   version="1.1"
   inkscape:version="0.48.1 "
   sodipodi:docname="Aa.svg">
  <metadata
     id="metadata20">
    <rdf:RDF>
      <cc:Work
         rdf:about="">
        <dc:format>image/svg+xml</dc:format>
        <dc:type
           rdf:resource="http://purl.org/dc/dcmitype/StillImage" />
      </cc:Work>
    </rdf:RDF>
  </metadata>
  <defs
     id="defs18" />
  <sodipodi:namedview
     pagecolor="#ffffff"
     bordercolor="#666666"
     borderopacity="1"
     objecttolerance="10"
     gridtolerance="10"
     guidetolerance="10"
     inkscape:pageopacity="0"
     inkscape:pageshadow="2"
     inkscape:window-width="1280"
     inkscape:window-height="1004"
     id="namedview16"
     showgrid="false"
     fit-margin-top="0"
     fit-margin-left="0"
     fit-margin-right="0"
     fit-margin-bottom="0"
     inkscape:zoom="0.76897862"
     inkscape:cx="425.02181"
     inkscape:cy="495.64049"
     inkscape:window-x="-8"
     inkscape:window-y="-8"
     inkscape:window-maximized="1"
     inkscape:current-layer="svg2" />
  <path
	 style="fill:#9FAEC0"
	 stroke="#9FAEC0"
	 stroke-width="10"
	 transform="translate(0, 125)"
     d="m 241.8125,0 -0.125,0.0937 -3.1875,1.8125 -3.96875,1.5625 -5.3125,3.65625 -3.40625,1.15625 -2.0625,1.34375 -2.21875,2.84375 -4,1.4375 -12.21875,5.59375 -9.6875,4.9375 -2.78125,1.375 -11.1875,3.3125 -1.0625,0.625 -0.90625,2.375 -1.0625,-1.625 -0.96875,2.8125 -0.6875,-2.59375 -3.125,1.375 -3.375,1 -6.34375,1.125 -14.25,0.5 -2.09375,-0.15625 -1.5,-1.25 -1.9375,-0.375 -6.03125,-0.5 -4.3125,-1.8125 -2.78125,-0.65625 -1.3125,-1.28125 -3,-0.875 -1.40625,-0.96875 0.5625,-1.625 4.34375,-2.0625 -0.25,-1.875 -2.21875,-1.34375 -1.34375,-0.78125 -1.53125,1.9375 0.21875,1.46875 -1.21875,-0.375 -0.4375,-2.8125 -1.625,1.125 -2.1875,0.875 -5.0625,-3.625 -1.6875,-0.6875 -1.5,-1.5625 -1.0625,-2.375 -1.125,-0.875 -0.0937,-1.53125 -0.0312,-1.3125 -0.96875,-1.8125 -0.75,-3.84375 -0.1875,9.53125 -0.0937,29.25 0.1875,4.9375 -0.25,12.71875 0.15625,1.3125 -0.3125,48.71875 0.0937,51.9375 510.21875,0 -0.0626,-77.0937 -0.4375,-64.15625 0.0625,-20.875 L 444.0625,0.3125 389.21875,0 342.625,0 282.28125,0.1875 251.96875,0 241.8125,0 z"
     id="rect4"
     inkscape:connector-curvature="0" />
  <path
	 style="fill:#9FAEC0"
	 stroke="#9FAEC0"
	 stroke-width="10"
	 transform="translate(0, 100)"
     d="m 107.125,162.15625 0.0937,63.21875 -0.0937,80.5625 -0.21875,18.34375 510.3125,0 0.40625,-63.625 -0.28125,-74.84375 0,-23.65625 -510.21875,0 z"
     id="rect6"
     inkscape:connector-curvature="0" />
  <path
	 style="fill:#9FAEC0"
	 stroke="#9FAEC0"
	 stroke-width="10"
	 transform="translate(0, 75)"
     d="m 106.90625,324.28125 -0.8125,69.8125 -0.28125,87.375 0.0312,4.96875 509.46875,0 0.0312,-11.75 0.5625,-44.3125 1.40625,-74.96875 -0.125,-24.5 0.0312,-6.625 -510.3125,0 z"
     id="rect8"
     inkscape:connector-curvature="0" />
  <path
	 style="fill:#9FAEC0"
	 stroke="#9FAEC0"
	 stroke-width="10"
	 transform="translate(0, 50)"
     d="m 105.84375,486.4375 0.3125,80 2.59375,-0.53125 -2.59375,0.59375 -0.0312,21.78125 -1.0625,-1.03125 -2.0625,0.5625 -1.15625,2.3125 -1.53125,0.34375 -2.15625,-0.59375 -2.84375,1.84375 -2.125,3.71875 -1,1.8125 -1.25,0.625 -1.4375,0.3125 -0.0312,1.09375 1.1875,0.46875 1.625,-0.5625 1.46875,1.6875 -2.09375,2.34375 -0.25,1.09375 0.28125,1.21875 1.34375,0.6875 -0.78125,3.21875 1.40625,1.75 1.8125,1.3125 1.125,-1.53125 2.03125,0.5625 -0.15625,1.03125 -1.28125,1.28125 0.84375,4.6875 -0.4375,3.125 -1.5,1.4375 -0.125,1.15625 -1.59375,1.34375 -1.40625,0.59375 -0.84375,1.8125 -1.28125,0.21875 -1.59375,0.5625 -0.65625,3.0625 -2.875,0.625 -0.1875,1.53125 2.5625,1.34375 -1.03125,0.46875 -1.6875,-1 -1.96875,1.875 -0.0937,1.34375 -0.9375,1.375 0.5625,1.46875 2.28125,0.90625 0.15625,1.3125 1.34375,0.28125 -1.0625,1.875 -2.125,-0.28125 -0.125,2.125 1.09375,0.59375 1.5625,-0.375 4.28125,0.625 0.125,0.625 521.4375,0 0.28125,-0.28125 2.0625,-0.875 0,-35.59375 0.96875,-77.0625 0.0937,-48.3125 -509.46875,0 z"
     id="rect10"
     inkscape:connector-curvature="0" />
  <path
	 style="fill:#9FAEC0"
	 stroke="#9FAEC0"
	 stroke-width="10"
	 transform="translate(0, 25)"
     d="m 90.46875,648.5625 0.125,0.71875 -1.125,1.53125 0.0312,1.21875 1.125,1.15625 3.375,0.5 0.875,1.59375 1.5,1.3125 0.90625,1.5 1.15625,1.09375 0.0312,1.625 -1.3125,2.9375 0.8125,1.0625 1,3.59375 -0.75,2.625 -1.03125,1.71875 0.5,1.125 1.5625,0.8125 1.15625,-0.15625 -0.34375,1.3125 -2.65625,-0.4375 0.46875,1.09375 5.15625,1.875 1.03125,0.71875 2.4375,0.90625 0.96875,2.15625 2.28125,2.09375 -0.25,1.375 -1.4375,2.40625 0.84375,1.3125 -0.375,1.25 -0.34375,1.625 -1.34375,0.625 0.3125,1.375 0.3125,2.03125 1.1875,0.625 -2.9375,0.40625 -0.53125,1.3125 0.40625,1.03125 -0.28125,1.0625 -1.5625,-1.96875 0,1.5 1.09375,0.75 0.28125,2.0625 -2,1.1875 0.8125,1.125 -0.46875,1.1875 -1.1875,0.6875 2.21875,1.34375 2.6875,1.4375 -0.15625,2.5 0.9375,2.90625 -1.0625,2.09375 1.53125,1.84375 2.0625,3.625 1.3125,1.03125 1.0625,1.65625 -0.59375,2 -1.0625,0.65625 -1.65625,0.125 0.53125,1.46875 2.53125,0.0937 -0.9375,3.0625 -0.40625,1.40625 1.21875,2.4375 -1.625,1.15625 -0.4375,1.9375 -1.53125,2.3125 -0.53125,1.4375 -0.46875,4.15625 -1.75,2.28125 -2.65625,1.5625 -6.34375,1.25 -2.65625,1.25 -1.25,1.21875 -0.5,1.46875 -0.0312,1.25 -1.28125,1.71875 -1.9375,1.125 0,1.28125 0.8125,1.5625 -0.21875,1.375 -1.0625,1.28125 0.4375,1.1875 -1.28125,1.625 1.46875,2.59375 1.59375,0.53125 -0.6875,1.25 -2.375,-0.0312 -2.09375,-1.09375 -0.34375,1.53125 -0.1875,3.15625 -1.84375,0.9375 -0.3125,1.125 0.375,2 -2.75,1.5625 -0.625,2.125 1.46875,2.1875 0.25,1.34375 0.65625,1.21875 2,1.90625 -0.25,1.5 -1.0625,1.09375 -1.09375,0.375 -1.03125,-0.3125 -1.53125,-1.15625 -1.9375,3.1875 -2.0625,1.59375 -3.90625,2 -2.96875,-0.0937 -2.75,0.71875 -1,1.4375 -1.28125,3.15625 1,1.03125 2.0625,-0.125 1.59375,0.96875 0.25,1.9375 -1.90625,1.71875 399.34375,0 0.8125,-1.15625 2.28125,-1.65625 1.6875,-0.90625 1.65625,-0.5 4.46875,-0.28125 3.96875,-0.65625 2.5625,-1 3.34375,-1.75 1.40625,-1.5625 1.59375,-2.6875 0.96875,-3.09375 1.03125,-1.9375 1.8125,-1.53125 5.375,-2.65625 2,-2 0.78125,-1.53125 0.59375,-2.09375 -0.0312,-4.1875 -0.75,-2.4375 -2.8125,-5.59375 -0.5625,-1.71875 -0.25,-1.65625 -0.0312,-3.0625 0.375,-6.5 -0.21875,-2.34375 -1.125,-2.625 -2.03125,-2.90625 -0.28125,-1.75 0.9375,-4.90625 3.15625,-4.71875 2.46875,-1.5 2.09375,-0.53125 6.5,1.4375 2.3125,0.15625 5.40625,-1.34375 5.4375,-1.375 3.125,-0.1875 2.59375,0.28125 3.125,0.84375 2.375,1.5 1.625,2.4375 0.75,1.75 1.375,2.15625 2.40625,2.46875 1.65625,0.9375 2.8125,1 3.0625,-0.125 3.1875,-1.03125 3.25,-1.6875 5.96875,-5.28125 1.09375,-1.46875 3.53125,-2.09375 1.9375,-1.5 2.15625,-0.8125 2.625,-1 2.625,-2.0625 3.875,-2.25 3.53125,-2.90625 2.625,-0.21875 6.8125,1.03125 1.8125,-0.53125 3.3125,-1.59375 4,-2.375 1.21875,-0.25 2.09375,0.59375 3.625,0.53125 5.28125,1.6875 1.625,-0.0312 1.1875,-0.46875 0.40625,-1.65625 -0.46875,-2 -1.25,-2.6875 -1.1875,-1.8125 -0.53125,-1.65625 -0.0312,-1.25 1.21875,-2.09375 3.78125,-2.8125 2.28125,-2.40625 0.9375,-2.1875 0.2813,-1.40635 -0.15625,-1.25 -1.46875,-1.6875 -1.71875,-1.125 -1.9375,-0.75 -3.34375,-0.53125 -4.5625,-0.0312 -2.9375,-0.84375 -1.21875,-1.96875 -0.40625,-1.75 0.40625,-1.34375 2.15625,-3.0625 1.71875,-1.5625 1.34375,-1.90625 L 610,684.875 l 1.625,-1.71875 0.75,-3.5 -0.65625,-2 -0.90625,-2.0625 -1.78125,-2 -0.5625,-1.46875 -3.0625,-4.5625 -1.09375,-1.21875 -1.84375,-1.5 -0.9375,-1.3125 -1.8125,-4.09375 0.4375,-1.1875 1.21875,-1.3125 5.28125,-2.84375 2.0625,-2.5 3.1875,-3.03125 -521.4375,0 z"
     id="rect12"
     inkscape:connector-curvature="0" />
  <path
	 style="fill:#9FAEC0"
	 stroke="#9FAEC0"
	 stroke-width="10"
     d="m 66.90625,810.71875 -0.0625,0.0625 -0.3125,2 -0.46875,4.46875 -4.5625,6.90625 -1.9375,2.40625 -1.15625,0.78125 -3.71875,1.09375 -1.46875,2.28125 -1.6875,1.6875 -0.6875,2.5 -1.15625,2.875 -0.125,2.25 0.5,3.0625 -0.15625,1.53125 -0.9375,2.75 -0.84375,1.3125 -1.875,1.21875 -2.03125,-0.84375 -0.84375,-2.78125 0.28125,-1.3125 0.8125,-2.4375 -0.6875,-1.3125 -1.1875,-0.34375 -1.65625,1.375 -1.5625,5.1875 -1.75,1.25 -2.4375,2.9375 -1.3125,-0.40625 -0.46875,-1.15625 0.34375,-1.1875 1.84375,-3.375 -1.28125,-1.40625 -1.25,-0.0937 -2.53125,1.03125 -0.625,1.15625 -1.0625,2.875 -1.5625,1.15625 0.1875,1.25 1.625,1.3125 -0.65625,1.9375 -1.46875,0.5625 -0.9375,1.5625 0.1875,1.59375 -1.1875,0.9375 -1.15625,-0.6875 -0.34375,-1.9375 -1.78125,-2.28125 -1.125,0.3125 0.875,1.21875 0.625,2.0625 -0.0937,1.34375 -0.84375,1.8125 -0.15625,2.625 0.3125,2.15625 1.1875,2.28125 1.4375,1.9375 1.96875,1.8125 2.65625,1.65625 1.53125,1.3125 0.625,1.90625 0.46875,1.96875 1.28125,-1.375 -0.15625,-2.09375 1.5,-0.875 1.21875,1.59375 -0.0312,1.21875 -1.28125,1.625 -1.53125,2 -0.65625,1.71875 -1.09375,0.3125 -1.90625,3.125 -1.78125,-1.46875 -2.71875,0.46875 -0.9375,2.40625 -0.3125,2.75 -1.3125,0.59375 -2.84375,-0.375 -3.15625,1.78125 -0.3125,1.375 1,2.6875 1.65625,0.0625 6.3125,-2.78125 1.53125,-1.0625 0.78125,3.4375 -2,4.625 -2.15625,1.78125 -4.25,2.03125 -5.34375,-0.15625 -2.28125,1.40625 0.125,2.21875 1.375,1.28125 1.1875,0.0625 2.9375,-0.5 0.65625,1.53125 -1.5625,0.84375 -0.78125,1.15625 -0.625,1.53125 -0.25,1.4375 0.5625,2.25 1.90625,5.09375 -0.0312,2.5625 -1.53125,1.75 -2.96875,0.625 0.125,3.4375 1.09375,2.84375 -0.6875,1.1875 -1.0625,0.46875 -1.84375,-0.71875 -1.4375,-1.6875 -1.96875,0.9375 -0.34375,1.09375 0.8125,1.5 1.09375,0.59375 4.9375,0.875 2.4375,0.15625 0.40625,2.5 0.8125,2.15625 -0.6564,1.1562 -1.46875,0.0625 -1.1875,-1 -2.59375,0.40625 -1.9375,0 -1.28125,-0.625 -1.75,-0.46875 L 2.1875,940 0.40625,939.9688 0,941.0313 l 0.8125,2.3125 1.6875,1.5625 1.125,1.5625 1.875,5.15625 0.65625,1.1875 1.0625,1.0625 1.09375,0.59375 4.71875,1.90625 0.4375,1.40625 -1.03125,1.875 -2.3125,0.875 -3.21875,-0.375 L 3,958.2813 l -1.6875,1.53125 0.125,1.875 2.46875,2.875 1.5,0.96875 1.75,-0.0625 2.59375,-1.65625 1.9375,-0.34375 1.28125,1.125 0.0937,1.34375 2.03125,-0.625 2.5625,0.5 5.125,2.875 3.21875,3.75 1.21875,0.21875 1.53125,-0.84375 1.8125,-4.0625 0.8438,-1.7188 4.3125,-2 0.65625,-2.21875 -0.75,-5.21875 -0.46875,-1.40625 -0.875,-1.5 -2.3125,-2.25 -2.0625,-2.90625 -0.53125,-2.0625 0.1875,-2.09375 1.28125,-2.125 1.15625,-1.1875 4.40625,-5.9375 1.46875,-0.5625 2.90625,0.625 1.4375,1.09375 L 44,938.5 l 0.8125,2.21875 1.125,1.90625 2.0625,2 0.0937,1.0625 2,1.4375 4.21875,0.3125 3.21875,-0.125 1.34375,-0.5 2.375,-2.0625 2.28125,-1.34375 4,-0.8125 2.21875,0.53125 1.53125,-0.0312 3.9375,-1.4375 2.59375,-1.28125 1.5,0.5 1.8125,2.15625 0.0312,2.15625 0.28125,1.21875 -0.5625,1.28125 -1.71875,2 -1.15625,2.46875 -0.0625,2.3125 0.28125,1.65625 0.5,1.34375 1.53125,1.5 3.1875,0.53125 3.15625,-0.3125 3.28125,-0.96875 1.09375,-0.71875 2.71875,-3.28125 1.71875,-3.34375 0.0625,-1.875 -0.6875,-3.625 -0.5625,-1.6875 -4.8125,-4.0625 -1.09375,-2.46875 -0.375,-1.4375 0.0312,-1.1875 0.78125,-1.59375 3.375,-3.71875 0.4375,-2.1875 -0.15625,-1.46875 1.4375,-2.4375 1.65625,-0.28125 1.40625,0.6875 1.03125,1.1875 0.34375,1.875 -0.0312,2.21875 0.9375,2.46875 1.40625,2.15625 1.90625,1.8125 3.625,2.1875 2.09375,0.875 2.25,1.4375 1.1875,-0.65625 4.8125,-4.3125 2.5625,-2.03125 2.65625,-1.65625 1.84375,-0.5 4.28125,-0.34375 2.375,0.59375 3.84375,1.4375 1.90625,1.78125 2.625,2.3125 2.53125,2.28125 2.46875,0.71875 2.6875,0.78125 3.375,1.8125 4.65625,3.375 3.34375,3.625 6.6875,4.65625 3.25,1.21875 3.96875,0.6875 2.5625,-0.21875 1.375,0.59375 1.375,1.46875 2.71875,4.84375 0.6875,1.875 0.625,3.65625 0.5,1.1875 2.34375,1.03125 1.8125,-0.0625 2.25,-0.59375 1.40625,-0.8125 1.84375,-1.46875 2.125,-2.71875 1.09375,-3.65625 0.8125,-1.71875 1.34375,-6.34375 1.0625,-2.8125 0.15625,-2.875 -0.5,-2.5 0,-1.03125 0.6875,-1.53125 1.65625,-2.0625 2.90625,-2.125 7.1875,-3.65625 2.21875,-0.59375 4.3125,-0.1875 4.75,-0.78125 3.15625,-2.3125 2.34375,-2.8125 0.8125,-1.46875 1.875,-1.8125 2.875,-3.3125 1.4375,-0.96875 6.125,-2.59375 1.1875,0.25 1.9375,1.4375 1.5625,0.8125 0.875,2.28125 0.59375,2.65625 1.375,2.21875 0,1.09375 1.15625,1.875 0.6875,1.84375 3.625,6.6875 3.65625,4.53125 2.6875,0.15625 1.78125,-1.15625 3.5,-2.875 1.53125,-1.25 1.46875,0.0312 4.9375,1.78125 0.34375,1.0625 0,1.625 -0.8125,2.59375 -1.78125,3.90625 -0.5625,1.75 -0.25,1.4375 0.0937,1.0625 1.34375,2.4375 1.3125,0.25 1.84375,-0.28125 2.3125,-1.125 3.875,-2.59375 1.46875,-3 -0.40625,-1.125 0.21875,-2.375 -0.34375,-5.125 0.375,-1.53125 1.75,-2.28125 1.0625,-0.34375 3.15625,0.0937 3.3125,1.0625 2.6875,0.1875 4.125,-2.0625 0.9375,-1.0625 0,-1.59375 -0.43735,-1.4687 -2.0625,-2.90625 -0.90625,-3.375 0.125,-4.5625 -0.21875,-2.78125 0.28125,-4.9375 -0.125,-2.25 0.59375,-2.59375 0.84375,-1.03125 1.03125,-0.4375 2.21875,-0.3125 6.21875,-0.21875 2.71875,-0.9375 2.65625,-2.40625 1.15625,-2.3125 0.34375,-2.125 -0.71875,-2 -1.3125,-0.875 -1.84375,-0.5625 -1.5,-0.90625 -0.9375,-1.15625 -0.46875,-1.375 -0.0937,-1.21875 0.65625,-1.84375 1.15625,-1.28125 1.375,-0.625 3,0.125 3.125,2.375 2.90625,2.8125 1.375,-1.15625 0.46875,-1.9375 0.84375,-1.625 2.25,-1.4375 4.28125,0.53125 2.65625,-0.0625 1.40625,-0.625 1.0625,-1.375 0.6875,-2.375 -0.84375,-1.875 -2.84375,-1.1875 -4.625,-0.71875 -1.09375,-0.6875 -1.15625,-1.90625 -0.15625,-1.84375 0.5,-2.59375 0.9375,-1.125 2.75,-0.71875 1.9375,1.09375 5.15625,5.09375 3.15625,1.71875 2.3125,1.6875 3.25,5.1875 0.125,1.875 -1.40625,7.71875 0.0937,3.625 1.0625,4.40625 1.0625,2.0625 1.0625,1.09375 2.96875,1.90625 2.125,1.5 1.5625,1.34375 1,1.28125 7.71875,4.03125 2.21875,0.375 4.90625,-1.375 2.53125,-0.125 3.65625,0.625 2.3125,1.09375 3.4375,2.84375 2.5625,5.65625 1.5625,2.25 1.3125,1.34375 2.0625,-0.1875 0.59375,-1.09375 0.15625,-1.40625 -0.3125,-3.5 1.03125,-1.9375 1.65625,-0.84375 2.1875,-0.5625 11.21875,-2.09375 2.40625,-1.625 2.09375,-2.59375 0.65625,-1.65625 0.28125,-1.375 0.78125,-7.21875 1.96875,-6.78125 0.0937,-3.15625 -0.84375,-8.53125 0.1875,-4.21875 0.40625,-2.25 1.34375,-3.28125 2.5625,-4 1.65625,-2.0625 4.90625,-4.3125 1.53125,-2.5625 0.65625,-2.03125 0.21875,-4.90625 1.625,-3.3125 2,-1.34375 3.5,-0.6875 1.375,-0.8125 2.125,0.0937 1.40625,0.5625 1.28125,2.0625 1.03125,1.25 1.875,1.15625 1.15625,0.15625 11.46875,-6.90625 1.625,-1.40625 0.84375,-1.84375 2.25,-2.875 0.90625,-1.59375 2.78125,-8.375 0.0625,-4.5625 1.25,-4.8125 1.5625,-3.53125 0.5,-2.21875 2.0625,-3 -399.34375,0 z"
     id="rect14"
     inkscape:connector-curvature="0" />
</svg>
