<?xml version="1.0" encoding="UTF-8" standalone="no"?>
<svg
   xmlns:dc="http://purl.org/dc/elements/1.1/"
   xmlns:cc="http://creativecommons.org/ns#"
   xmlns:rdf="http://www.w3.org/1999/02/22-rdf-syntax-ns#"
   xmlns:svg="http://www.w3.org/2000/svg"
   xmlns="http://www.w3.org/2000/svg"
   xmlns:sodipodi="http://sodipodi.sourceforge.net/DTD/sodipodi-0.dtd"
   xmlns:inkscape="http://www.inkscape.org/namespaces/inkscape"
   width="795.86847"
   height="519.84711"
   viewBox="0 0 795.86847 519.84711"
   id="svg2"
   version="1.1"
   inkscape:version="0.48.1 "
   sodipodi:docname="AJAX.svg">
  <metadata
     id="metadata20">
    <rdf:RDF>
      <cc:Work
         rdf:about="">
        <dc:format>image/svg+xml</dc:format>
        <dc:type
           rdf:resource="http://purl.org/dc/dcmitype/StillImage" />
      </cc:Work>
    </rdf:RDF>
  </metadata>
  <defs
     id="defs18" />
  <sodipodi:namedview
     pagecolor="#ffffff"
     bordercolor="#666666"
     borderopacity="1"
     objecttolerance="10"
     gridtolerance="10"
     guidetolerance="10"
     inkscape:pageopacity="0"
     inkscape:pageshadow="2"
     inkscape:window-width="1280"
     inkscape:window-height="1004"
     id="namedview16"
     showgrid="false"
     showguides="true"
     inkscape:guide-bbox="true"
     fit-margin-top="0"
     fit-margin-left="0"
     fit-margin-right="0"
     fit-margin-bottom="0"
     inkscape:zoom="0.55073647"
     inkscape:cx="655.57312"
     inkscape:cy="2.2290712"
     inkscape:window-x="-8"
     inkscape:window-y="-8"
     inkscape:window-maximized="1"
     inkscape:current-layer="svg2" />
  <path
	 style="fill:#9FAEC0"
	 stroke="#9FAEC0"
	 stroke-width="10"
	 transform="translate(0, 125)"
     d="m 9.523631,0 c 0.037,0.298 -0.15475,0.67925 0.0312,0.90625 0.113,0.139 0.35525,0.3085 0.53125,0.3125 0.109,0.002 0.221,-0.26875 0.375,-0.21875 0.242,0.078 0.056,0.27975 0.125,0.34375 10e-4,0.002 0.23,0.105 0.25,0.125 0.125,0.123 0.394,0.27 0.375,0.5 -0.015,0.18 -0.2545,0.135 -0.3125,0.25 0.032,-0.063 0.003,0.53175 -0.0312,0.46875 0.133,0.252 0.28375,0.07575 0.46875,0.21875 0.621,0.477 -0.23025,0.356 -0.40625,0.75 -0.138,0.308 0.173,0.274 0.25,0.5 0.092,0.266 -0.092,0.39625 -0.125,0.65625 -0.059,0.471 0.42225,0.62875 0.0312,0.96875 -0.483,0.419 -0.476,-0.15725 -0.5,-0.15625 -0.248,0.016 -0.1105,0.24275 -0.1875,0.34375 -0.079,0.105 0.004,0.16325 -0.125,0.28125 -0.055,0.05 -0.2475,-0.10525 -0.3125,-0.03125 -0.221,0.25 0.0652,0.45275 -0.21875,0.71875 -0.039,0.037 -0.5345,0.1535 -0.5625,0.1875 -0.328,0.402 0.058,0.515 0,0.875 -0.108,0.671 -0.55875,-0.26275 -0.34375,0.53125 0.058,0.213 0.317,0.43625 0.375,0.65625 0.042,0.159 -0.115,0.2135 0,0.4375 0.07,0.135 0.2195,-0.10775 0.3125,0.03125 0.082,0.122 -0.17425,0.183 -0.15625,0.25 0.02,0.075 0.104,0.09125 0.125,0.15625 0.049,0.152 0.19775,0.2495 0.21875,0.3125 0.154,0.468 -0.16925,0.644 0.46875,0.875 0.419,0.152 0.544,0.05975 1,0.09375 0.562,0.042 0.68825,0.1275 1.03125,0.4375 0.252,0.228 0.39625,0.1745 0.40625,0.5625 0.008,0.32 -0.281,0.56475 -0.375,0.84375 -0.196,0.581 0.10425,0.352 0.53125,0.75 0.248,0.231 0.33175,0.52575 0.59375,0.71875 0.071,0.053 0.19625,-0.06075 0.28125,0.03125 0.133,0.143 0.0438,0.31075 0.0937,0.46875 0.135,0.427 0.373,0.594 0.625,0.75 0.008,0.005 -0.004,0.1335 0.0937,0.1875 0.131,0.072 0.3585,-0.01175 0.4375,0.03125 0.198,0.106 0.279,0.29225 0.375,0.53125 0.057,0.141 0.1465,0.10325 0.1875,0.28125 0.031,0.136 -0.17575,0.26925 -0.0937,0.40625 0.233,0.391 0.3615,-0.10275 0.4375,-0.09375 0.347,0.041 0.32275,0.35675 0.59375,0.46875 0.345,0.142 0.6365,-0.21525 0.8125,-0.28125 0.079,-0.029 -0.10125,-0.12625 0.0937,-0.15625 0.006,-0.001 0.39625,0.21075 0.40625,0.21875 0.342,0.333 0.0743,0.489 0.15625,0.875 0.073,0.344 0.41525,0.602 0.28125,1 -0.077,0.23 -0.31175,0.30825 -0.34375,0.53125 -0.027,0.182 0.28125,-0.04725 0.28125,0.09375 -0.003,0.144 -0.282,0.09825 -0.25,0.40625 0.02,0.197 0.2805,0.325 0.3125,0.5 0.034,0.185 -0.11875,0.8485 -0.34375,0.5625 -0.175,-0.223 -0.1185,0.56925 -0.3125,0.65625 -0.253,0.113 -0.1755,-0.2305 -0.3125,-0.1875 -0.315,0.099 -0.26775,0.32525 -0.21875,0.65625 0.073,0.486 0.317,0.3785 0.375,0.8125 0.043,0.322 -0.07,0.555 0,0.875 0.025,0.112 0.21875,0.15825 0.21875,0.28125 0.002,0.12 -0.1675,0.153 -0.1875,0.25 -0.026,0.125 -0.21825,0.503 -0.15625,0.625 0.117,0.233 0.292,-0.155 0.375,0 0.11,0.206 -0.152,0.37825 -0.25,0.53125 -0.177,0.276 -0.11475,0.39675 -0.46875,0.46875 -0.195,0.039 -0.1755,-0.352 -0.3125,-0.125 -0.097,0.162 0.149,0.2735 0.125,0.4375 -0.04,0.271 -0.4175,0.42075 -0.4375,0.59375 -0.033,0.286 0.2455,0.2825 0.3125,0.4375 0.165,0.379 -0.108,0.4845 -0.125,0.8125 -0.011,0.224 0.24625,0.492 0.40625,0.625 0.221,0.186 -2.5e-4,0.404 -0.0312,0.625 -0.016,0.121 -0.26375,0.10075 0.0312,0.34375 0.061,0.049 0.17775,0.088 0.21875,0.125 0.109,0.098 0.13675,-0.2015 0.21875,0.0625 0.074,0.24 -0.15875,0.32725 -0.21875,0.40625 -0.015,0.02 -0.33625,-0.29825 -0.15625,0.21875 0.077,0.223 0.41975,0.28025 0.46875,0.40625 0.172,0.442 -0.416,0.2855 -0.5,0.4375 -0.173,0.312 0.40325,0.49425 0.0312,0.78125 -0.137,0.106 -0.401,-0.1415 -0.5,0.1875 -0.08,0.266 0.3005,0.39175 0.1875,0.59375 -0.144,0.259 -0.843,0.0895 -1,0.1875 -0.167,0.104 -0.1435,0.379 -0.3125,0.5 -0.109,0.078 -0.56775,0.1605 -0.71875,0.1875 -0.13,0.024 -0.21175,-0.06525 -0.34375,-0.03125 -0.056,0.014 -0.11,0.15625 -0.125,0.15625 -0.206,0.006 -0.32075,0.098 -0.46875,-0.125 -0.112,-0.173 0.057,-0.3855 0,-0.4375 -0.105,-0.096 -0.751,0.07275 -0.875,0.09375 -0.087,0.014 -0.119,0.1815 -0.25,0.1875 -0.122,0.005 -0.13075,-0.20175 -0.21875,-0.21875 -0.265,-0.052 -0.16775,0.15575 -0.46875,-0.03125 -0.262,-0.164 -0.1695,-0.55425 -0.5625,-0.53125 -0.478,0.029 -1.02725,0.13 -1.40625,0.375 -0.217,0.139 -0.38275,0.005 -0.34375,0.375 0.03,0.294 0.077,0.299 0.375,0.25 0.409,-0.067 0.56525,-0.7655 0.78125,-0.3125 0.161,0.339 -0.1075,0.50625 -0.1875,0.78125 -0.14,0.485 0.0525,0.5285 0.1875,0.9375 0.074,0.223 0.207,0.764 0.125,1 -0.014,0.04 -0.458,0.622 -0.5,0.625 -0.363,0.024 -0.0267,-0.355 -0.21875,-0.375 -0.086,-0.009 -0.359,0.3335 -0.375,0.4375 -0.026,0.164 0.114,0.93925 0.25,1.03125 0.152,0.103 0.439,-0.04425 0.625,-0.03125 0.341,0.024 0.35475,0.09275 0.59375,0.34375 0.322,0.338 0.623,0.66325 1,0.90625 0.219,0.142 0.5145,0.34475 0.8125,0.34375 0.138,0 0.3665,-0.17725 0.4375,-0.15625 0.24,0.071 0.24625,0.30725 0.28125,0.53125 0.07,0.452 -0.0783,0.74725 0.0937,1.15625 0.047,0.11 0.36,0.337 0.25,0.5 -0.095,0.14 -0.22575,-0.12075 -0.34375,-0.09375 -0.341,0.079 -0.676,0.3335 -1,0.4375 -0.05,0.016 -0.0957,0.103 -0.21875,0.125 -0.135,0.025 -0.249,-0.18825 -0.375,-0.15625 -0.148,0.037 -0.77125,0.756 -0.78125,0.875 -0.012,0.22 0.183,0.23175 0.25,0.46875 0.087,0.324 -0.18825,0.48075 0.0937,0.84375 0.082,0.105 0.25575,0.0825 0.34375,0.1875 0.127,0.151 0.0935,0.342 0.1875,0.5 0.048,0.081 0.479,0.747 0.5,0.75 0.279,0.041 0.267,-0.4745 0.375,-0.5625 0.231,-0.187 0.612,-0.09575 0.875,-0.09375 0.312,0.002 0.528,0.2005 0.875,0.1875 0.208,-0.008 0.3855,-0.12425 0.5625,-0.15625 0.358,-0.064 0.638,0.30325 1,0.53125 0.23,0.145 0.3395,0.1375 0.5625,0.4375 0.067,0.091 0.22625,0.34225 0.28125,0.40625 0.139,0.164 0.0182,0.245 0.40625,0.25 0.146,0.002 0.25725,-0.16025 0.40625,-0.15625 0.189,0.005 0.27425,0.13525 0.40625,0.15625 0.35,0.055 0.4485,0.1885 0.3125,-0.3125 -0.109,-0.404 0.46325,-0.23175 0.65625,-0.21875 0.124,0.008 0.1625,0.156 0.3125,0.125 0.22,-0.045 0.2655,-0.3665 0.4375,-0.4375 0.144,-0.059 0.43275,0.0555 0.59375,0.0625 0.705,0.032 1.564,-0.219 2,0.5 0.271,0.447 -0.2075,0.964 -0.0625,1.375 0.162,0.46 0.64325,0.5845 0.53125,1.0625 -0.081,0.342 -0.4175,0.40125 -0.4375,0.78125 -0.025,0.465 0.24125,0.70425 0.15625,1.15625 -0.0915,0.48104 -0.19114,1.026705 0.0312,1.40625 0.006,-0.07842 0.39913,0.127 0.3125,0.09375 0.067,0.026 0.2705,0.082 0.3125,0.125 0.32,0.324 0.16975,0.92825 0.0937,1.28125 -0.041,0.187 -0.0838,0.37325 -0.0937,0.53125 -0.005,0.134 0.147,0.25175 0,0.46875 -0.134,0.199 -0.2745,-0.13375 -0.3125,0.28125 -0.011,0.111 0.19975,0.01275 0.21875,0.09375 0.036,0.157 -0.0322,0.31675 -0.0312,0.46875 0,0.157 -0.01,0.26525 0,0.40625 0.012,0.201 0.1445,0.17425 0.0625,0.40625 -0.049,0.138 -0.24225,0.16825 -0.28125,0.28125 -0.083,0.238 -0.0575,-0.0025 0.0625,0.1875 0.111,0.177 0.38525,0.18675 0.40625,0.21875 0.056,0.087 0.119,0.38725 0,0.53125 -0.144,0.176 -0.465,0.0705 -0.5,0.1875 0.014,-0.05 0.38675,0.779 0.34375,0.75 0.256,0.171 0.3295,-0.15625 0.3125,-0.15625 0.249,-0.005 0.055,-0.078 0.25,0.125 0.284,0.295 0.0725,0.04325 0.0625,0.28125 -0.021,0.674 0.10525,0.27525 0.65625,0.40625 -0.002,0 0.11025,0.22 0.15625,0.25 0.078,0.05 0.21625,-0.08625 0.28125,-0.03125 0.139,0.116 0.42875,0.6275 0.46875,0.8125 0.036,0.164 -0.24,0.0955 -0.125,0.3125 0.05,0.094 0.21875,-0.09075 0.21875,-0.09375 0.049,0.04 0.0912,0.1225 0.15625,0.1875 0.198,0.196 0.18325,0.365 0.15625,0.625 -0.032,0.315 0.0923,0.39325 0.15625,0.53125 0.007,0.014 0.12325,-0.14025 0.15625,-0.03125 0.059,0.196 -0.0625,0.22275 -0.0625,0.34375 -10e-4,0.25 -0.1525,0.38125 0.0625,0.65625 0.144,0.183 0.56125,0.20825 0.40625,0.53125 -0.145,0.301 -0.23225,0.748 -0.40625,1 -0.182,0.264 -0.585,0.32725 -0.75,0.53125 -0.146,0.18 -0.1085,0.456 -0.1875,0.625 -0.049,0.107 -0.28375,0.23875 -0.34375,0.34375 -0.101,0.177 -0.024,0.3525 -0.125,0.5625 -0.023,0.048 -0.16625,-0.0072 -0.15625,-0.03125 0.001,-0.003 -0.126,0.3135 -0.125,0.3125 -0.003,0.003 0.1325,0.055 0.0625,0.125 -0.082,0.083 -0.212,0.06475 -0.25,0.09375 -0.056,0.042 -0.18225,-0.08325 -0.28125,-0.03125 -0.091,0.048 0.052,0.25025 0,0.28125 -0.14,0.084 -0.3005,0.023 -0.4375,0.125 -0.122,0.091 -0.26125,0.4185 -0.28125,0.5625 -0.062,0.447 0.0177,0.30975 0.46875,0.46875 0.676,0.239 0.49,0.6665 0.375,1.1875 -0.125,0.565 -0.0125,1.02425 -0.3125,1.53125 -0.087,0.147 -0.23525,0.38925 -0.28125,0.53125 -0.026,0.081 0.162,0.1825 0.125,0.3125 -0.026,0.092 -0.23225,0.07625 -0.28125,0.15625 -0.149,0.243 0.035,0.35125 -0.375,0.53125 -0.166,0.073 -0.39675,0.18725 -0.59375,0.15625 -0.295,-0.047 -0.38625,-0.27725 -0.65625,-0.28125 -0.293,-0.003 -0.4965,0.2745 -0.6875,0.4375 -0.344,0.293 -0.8115,0.5525 -1.0625,0.9375 -0.072,0.11 -0.077,0.33925 -0.125,0.40625 -0.198,0.277 -0.42425,0.2805 -0.78125,0.3125 -0.18,0.016 -0.35725,-0.0098 -0.53125,0.03125 -0.093,0.022 -0.0683,0.1695 -0.15625,0.1875 -0.424,0.084 -0.7265,-0.3 -1.0625,-0.25 -0.223,0.033 -0.571,0.50075 -0.625,0.71875 -0.08,0.322 0.12475,0.468 0.21875,0.75 -0.263,0.031 -1.09375,-0.04525 -1.09375,0.34375 -0.004,0.497 0.78875,-0.1255 0.96875,-0.1875 0.609,-0.211 0.5045,1.08275 0.3125,1.34375 -0.176,0.238 -0.35925,0.07725 -0.40625,0.40625 -0.047,0.323 0.296,0.77075 0.5,0.96875 0.384,0.374 1.011,0.655 1.25,1 0.025,0.037 -0.17475,0.17025 -0.0937,0.28125 0.089,0.122 0.28075,-0.02375 0.34375,0.03125 0.257,0.225 0.25475,0.5085 0.34375,0.8125 0.101,0.345 0.17475,0.35525 0.0937,0.78125 -0.02,0.111 -0.203,0.63775 -0.25,0.71875 -0.217,0.373 -0.3165,0.5385 -0.6875,0.6875 -0.62,0.249 -1.434,0.136 -1.625,1 -0.018,0.08 0.1875,0.09425 0.1875,0.15625 -0.003,0.052 -0.0937,0.21075 -0.0937,0.21875 0.024,0.308 0.032,0.548 -0.25,0.75 -0.27,0.193 -0.4305,-0.2195 -0.5625,-0.0625 -0.226,0.268 0.35625,0.4005 0.15625,0.6875 -0.16,0.231 -0.35475,-0.0945 -0.46875,0.0625 -0.10573,0.145546 -0.0448,0.304404 0.0625,0.4375 l 650.124999,0 c -0.31025,-1.391913 -0.79561,-2.844933 -1.3125,-4.125 -0.28,-0.62 -0.40625,-1.24325 -0.53125,-1.90625 -0.14,-0.739 -0.404,-1.40725 -0.5,-2.15625 -0.122,-0.963 -0.249,-1.94425 -0.375,-2.90625 -0.049,-0.371 -0.17575,-0.67725 -0.21875,-1.03125 -0.043,-0.357 0.193,-0.6155 0.25,-0.9375 0.135,-0.767 -0.005,-1.709 0.0312,-2.5 0.038,-0.838 0.1145,-1.75675 0.0625,-2.59375 -0.053,-0.847 -0.299,-1.68225 -0.375,-2.53125 -0.071,-0.79 -0.28325,-1.8715 0.21875,-2.5625 0.543,-0.749 1.7355,-0.73175 2.3125,-1.46875 0.465,-0.595 0.94625,-1.196 1.28125,-1.875 0.251,-0.509 0.29225,-1.072 0.40625,-1.625 0.342,-1.658 1.8565,-2.913 1.9375,-4.625 0.043,-0.924 0.459,-1.31875 1.125,-1.84375 0.608,-0.48 1.107,-1.053 1.625,-1.625 0.563,-0.621 1.16375,-1.21675 1.71875,-1.84375 0.66404,-0.749 1.23325,-1.60875 1.90625,-2.34375 0.708,-0.774 2.396,-3.753 0.375,-3.875 -1.394,-0.084 -0.5625,-0.8225 -0.8125,-1.8125 -0.223,-0.886 -1.00721,-1.687 -1.40625,-2.5 -0.774,-1.575 -1.97925,-2.87225 -3.03125,-4.28125 -0.388,-0.52 -1.1675,-0.852 -1.6875,-1.25 -0.697,-0.535 -1.31425,-1.09525 -2.15625,-1.40625 -1.772,-0.654 -3.39025,-1.42675 -5.03125,-2.34375 -0.655,-0.365 -1.3285,-0.44225 -2.0625,-0.53125 -0.895,-0.109 -1.134,-0.33025 -1.5,-1.15625 -0.247,-0.558 -0.86175,-1.3265 -0.84375,-1.9375 0.016,-0.584 0.79525,-0.75175 1.03125,-1.21875 0.146,-0.289 0.15825,-0.687 0.28125,-1 0.163,-0.412 0.35475,-0.821 0.46875,-1.25 0.17,-0.636 0.27275,-1.32375 0.0937,-1.96875 -0.215,-0.783 -0.207,-1.56775 -0.375,-2.34375 -0.165,-0.76 -0.5805,-1.4615 -1.0625,-2.0625 -0.99,-1.234 -2.44225,-2.47225 -2.90625,-4.03125 -0.179,-0.601 -0.178,-1.4015 0.375,-1.8125 0.863,-0.641 1.085,-1.6995 1.375,-2.6875 0.358,-1.216 -0.3575,-2.3155 -0.1875,-3.5625 -0.374,0.007 -0.751,0.02625 -1.125,0.03125 -1.787,0.121 -3.55575,0.04375 -5.34375,0.09375 -2.858,0.083 -5.7045,0.181 -8.5625,0.25 -5.462,0.132 -10.9575,0.37725 -16.4375,0.40625 -5.831,0.105 -11.679,0.18625 -17.5,0.40625 -5.315,0.201 -10.7515,0.3395 -16.0625,0.3125 -0.814,-0.008 -1.6355,0.0715 -2.4375,0.0625 -2.832,0.213 -5.664,0.0805 -8.5,0.1875 -3.624,0.108 -7.32525,0.1655 -10.90625,0.1875 -2.827,0.024 -5.668,0.09925 -8.5,0.15625 -1.914,0.021 -3.835,0.06875 -5.75,0.09375 -2.393,0.011 -4.76025,0.138 -7.15625,0.125 -1.233,0.093 -2.48475,-0.0025 -3.71875,0.0625 -0.883,0.046 -1.83775,0.09525 -2.71875,0.03125 -4.708,0.134 -9.426,0.208 -14.125,0.25 -0.211,0.006 -0.44525,-0.003 -0.65625,0 -3.038,0.047 -6.089,0.20425 -9.125,0.15625 -5.126,-0.081 -10.27825,0.40775 -15.40625,0.21875 -1.14,0.246 -2.55375,0.0525 -3.71875,0.0625 -1.278,0.01 -2.5375,0.01525 -3.8125,0.03125 -2.641,0.034 -5.2965,0.12675 -7.9375,0.09375 -3.143,0.057 -6.2925,0.14 -9.4375,0.125 -0.299,0.004 -0.60725,-0.002 -0.90625,0 -5.766,0.046 -11.86225,0.1395 -17.28125,0.1875 -4.979,0.044 -9.78625,0.143 -14.90625,0.125 -5.734,-0.02 -11.48275,0.04675 -17.21875,0.09375 -1.475,0.008 -2.93125,0.03125 -4.40625,0.03125 -4.84,0.005 -9.69325,0.0625 -14.53125,0.0625 -1.287,0.012 -2.55675,0 -3.84375,0 -0.655,-0.002 -1.31375,0 -1.96875,0 -0.397,-0.001 -0.7905,0.03325 -1.1875,0.03125 -1.43,-0.009 -2.8825,-0.002 -4.3125,0 -0.165,-0.001 -0.335,0 -0.5,0 -2.359,-0.02 -4.7035,0.023 -7.0625,0 -1.778,0.002 -3.56675,-0.018 -5.34375,0 -1.317,-0.039 -2.6205,-0.01825 -3.9375,-0.03125 -4.638,-0.047 -9.26825,0.007 -13.90625,0 -6.489,-0.009 -12.98075,-0.1345 -19.46875,-0.0625 -7.181,0.079 -14.3845,-0.083 -21.5625,-0.125 -6.038,-0.036 -12.0555,-0.05825 -18.0625,-0.15625 -5.782,-0.094 -11.593,-0.08325 -17.375,-0.15625 -5.41,-0.067 -10.85475,-0.1255 -16.21875,-0.1875 -6.017,-0.069 -12.01325,-0.207 -18.03125,-0.25 -5.655,-0.063 -11.191,-0.155 -16.875,-0.25 -5.678,-0.095 -11.35425,-0.25225 -17.03125,-0.28125 -3.197,-0.046 -6.44525,0.08275 -9.65625,-0.15625 -0.77509,-0.05197 -1.5671,-0.03125 -2.34375,-0.03125 -5.441,0.003 -10.90275,-0.1985 -16.34375,-0.3125 -4.431,-0.093 -8.76475,-0.184 -13.21875,-0.25 -5.77,-0.085 -11.487,-0.103 -17.25,-0.25 -2.609,-0.067 -5.23675,-0.10425 -7.84375,-0.15625 -1.47,-0.029 -2.93625,-0.0335 -4.40625,-0.0625 -1.178,-0.023 -2.35825,-0.22525 -3.53125,-0.15625 -0.551,0 -1.10525,-0.02525 -1.65625,-0.03125 -0.27,-0.003 -0.844,-0.08875 -1.125,0.03125 -0.41,0.175 -1.25075,-0.0315 -1.71875,-0.0625 -0.602,-0.039 -1.23875,0.006 -1.84375,0 -1.49,-0.015 -2.9445,-0.05975 -4.4375,-0.09375 -2.979,-0.067 -5.98975,-0.13775 -8.96875,-0.21875 -5.146,-0.139 -10.2915,-0.26425 -15.4375,-0.40625 -5.256,-0.144 -10.488,-0.49775 -15.749999,-0.46875 -0.093,-0.003 -0.18825,10e-4 -0.28125,0 -1.588,-0.025 -3.19425,-0.092 -4.78125,-0.125 -1.608,-0.043 -3.2045,-0.13025 -4.8125,-0.15625 -3.109,-0.107 -6.23575,-0.15925 -9.34375,-0.28125 -2.951,-0.073 -5.917,-0.17825 -8.875,-0.28125 -4.31,-0.149 -8.59625,-0.29225 -12.90625,-0.40625 -4.91,-0.13 -9.841,-0.414 -14.75,-0.5 -5.207,-0.092 -10.413,-0.3805 -15.625,-0.5625 -5.085,-0.178 -10.167,-0.36225 -15.25,-0.53125 z"
     id="rect4"
     inkscape:connector-curvature="0" />
  <path
	 style="fill:#9FAEC0"
	 stroke="#9FAEC0"
	 stroke-width="10"
	 transform="translate(0, 100)"
     d="m 15.929881,86.625 c 0.1271,0.157702 0.31914,0.283892 0.375,0.375 0.205,0.337 0.0365,0.40175 0.4375,0.59375 0.238,0.114 0.57,0.054 0.75,0.125 0.305,0.119 0.46225,0.40625 0.53125,0.78125 0.054,0.289 -0.0657,0.62525 0.0312,0.90625 0.04,0.116 0.3125,0.3695 0.3125,0.4375 0.017,0.365 -0.11775,0.077 -0.34375,0.25 -0.223,0.172 -0.36275,0.327 -0.59375,0.5 -0.321,0.242 -0.287,-0.0065 -0.25,0.5625 0.021,0.321 0.0432,0.316 -0.0937,0.625 -0.157,0.357 -0.0282,0.17775 -0.40625,0.34375 -0.062,0.027 -0.147,-0.051 -0.25,0 -0.001,0 -0.094,0.224 -0.125,0.25 -0.269,0.228 -0.76125,0.463 -0.53125,0.875 0.12,0.215 0.6375,0.49675 0.3125,0.84375 -0.431,0.461 -0.48125,-0.92575 -1.28125,-0.34375 -0.344,0.25 -0.83625,0.818 -0.90625,1.25 -0.043,0.237 0.46675,0.34425 -0.0312,0.53125 -0.386,0.145 -0.954,-0.7775 -0.875,0.3125 0.032,0.433 0.39075,0.35225 0.46875,0.65625 0.058,0.23 -0.3485,0.618 -0.3125,0.875 0.018,0.132 0.25,0.12425 0.25,0.15625 0.013,0.114 -0.11775,0.30425 -0.0937,0.40625 0.037,0.16 0.35625,0.508 0.15625,0.625 -0.237,0.139 -0.59475,-0.1595 -0.71875,0.0625 -0.028,0.05 0.34825,0.723 0.40625,0.75 0.166,0.078 0.36275,-0.09925 0.59375,-0.03125 0.251,0.074 0.66875,0.34275 0.71875,0.59375 0.022,0.111 -0.2925,0.12325 -0.1875,0.40625 0.095,0.258 0.54325,0.1655 0.53125,0.4375 -0.01,0.218 -0.32475,0.1715 -0.46875,0.1875 -0.415,0.047 -0.659,0.0713 -1,0.15625 -0.083,0.021 -0.24175,-0.18525 -0.34375,-0.0312 -0.119,0.18 0.15625,0.19525 0.15625,0.28125 0.002,0.077 0.12975,0.0678 0.0937,0.21875 -0.035,0.152 -0.48475,0.30175 -0.59375,0.34375 -0.344,0.132 0.285,0.511 0.375,0.625 0.335,0.424 0.15425,0.225 -0.0937,0.5 -0.33,0.365 -1.10925,0.545 -1.15625,1.125 -0.029,0.354 0.32,0.3425 0.375,0.6875 0.109,0.679 -0.31525,0.276 -0.40625,0.375 -0.152,0.165 -0.16875,0.11225 0.0312,0.40625 0.059,0.086 0.23025,-0.0667 0.28125,0.0312 0.048,0.104 -0.026,0.168 0,0.25 0.074,0.232 -0.27325,0.54725 0.21875,0.40625 0.145,-0.041 0.17775,-0.533 0.34375,-0.25 0.183,0.312 -0.28525,1.5335 -0.65625,1.5625 -0.204,0.016 -0.2115,-0.53125 -0.4375,-0.15625 -0.113,0.187 0.26025,0.34875 0.0312,0.46875 -0.273,0.143 -0.5005,-0.47875 -0.6875,-0.34375 -0.087,0.063 0.0557,0.65625 0.0937,0.78125 0.049,0.161 0.0918,0.3165 0.21875,0.4375 0.083,0.079 0.43075,0.14975 0.46875,0.21875 0.072,0.129 -0.18575,0.69025 -0.34375,0.78125 -0.663,0.383 -0.586,-0.82325 -1.125,-0.53125 -0.193,0.104 -0.219,0.5185 -0.25,0.6875 -0.019,0.104 -0.0725,0.43025 -0.0625,0.53125 0.004,0.058 0.1775,0.36675 0.1875,0.34375 -0.088,0.246 -0.23925,0.26125 -0.40625,0.15625 0.003,0.002 -0.53225,-0.91225 -0.53125,-0.90625 -0.048,-0.225 0.2665,-0.4165 0.1875,-0.5625 -10e-4,-0.003 -0.75875,-0.0455 -0.71875,-0.0625 -0.165,0.069 -0.1595,0.3745 -0.4375,0.4375 -0.509,0.117 -0.114,-0.25725 -0.125,-0.28125 -0.051,-0.107 -0.009,-0.4155 -0.34375,-0.1875 -0.071,0.048 -0.14,0.5845 -0.125,0.6875 0.012,0.082 0.29275,0.4195 0.34375,0.5625 0.108,0.301 0.2945,0.479 -0.0625,0.75 -0.21,0.159 -0.53275,0.0238 -0.71875,0.21875 -0.303,0.317 0.125,0.4615 0.125,0.6875 -0.003,0.261 -0.14975,0.24775 -0.34375,0.34375 -0.124,0.061 -0.17725,-0.15975 -0.28125,-0.0937 -0.131,0.084 -0.0243,0.3555 -0.15625,0.4375 -0.267,0.164 -0.5015,-0.245 -0.6875,0.125 -0.005,0.01 0.0312,0.77625 0.0312,0.78125 0.119,0.179 0.48775,-0.0945 0.59375,0.3125 0.077,0.291 -0.312,0.71675 -0.375,0.96875 -0.049,0.197 0.19475,0.51975 -0.15625,0.71875 -0.456,0.259 -0.24975,-0.34175 -0.46875,-0.34375 -0.545,-0.006 0.36075,0.9795 0.34375,1.0625 -0.142,0.695 -1.24175,-0.20425 -1.21875,0.46875 0.009,0.265 0.467,0.24375 0.25,0.59375 -0.105,0.17 -0.0477,0.551 -0.21875,0.625 -0.146,0.062 -0.3985,-0.16525 -0.5625,-0.15625 -0.07,0.004 0.0607,0.24975 -0.15625,0.21875 -0.116,-0.017 -0.246,-0.569 -0.375,-0.25 -0.192,0.476 -0.074,0.17475 -0.25,0.0937 -0.079,-0.037 0.0113,-0.517 -0.46875,-0.125 -0.188,0.153 -0.22925,0.4625 -0.28125,0.6875 -0.056,0.242 -0.0298,0.43175 -0.21875,0.59375 -0.305,0.261 -0.354,-0.15825 -0.5,0.34375 -0.029,0.103 0.20875,0.27525 0.0937,0.40625 -0.121,0.138 -0.2515,-0.1015 -0.3125,-0.0625 -0.058,0.037 -0.27875,0.32675 -0.34375,0.34375 -0.14,0.035 -0.0585,-0.281 -0.31249997,-0.25 -0.547,0.068 -0.1815,0.393 -0.0625,0.5 -0.051,-0.047 0.69774997,-0.0355 0.34374997,0.4375 -0.17799997,0.237 -0.42574997,-0.20975 -0.59374997,0.0312 -0.123,0.177 0.45149997,0.63025 0.56249997,0.78125 0.163,0.222 0.2925,0.75225 0.4375,0.90625 0.509,0.54 0.255,-0.89625 0.875,-0.40625 0.089,0.071 0.159,0.49275 0.125,0.59375 -0.074,0.218 -0.49825,0.14675 -0.65625,0.21875 -0.193,0.087 -0.1705,0.2245 -0.3125,0.3125 -0.191,0.117 -0.28025,-0.0902 -0.40625,0.0937 -0.076,0.109 0.0845,0.28275 0.0625,0.34375 10e-4,-0.004 -0.16625,0.28275 -0.15625,0.21875 -0.008,0.065 -0.13499997,0.15725 -0.12499997,0.28125 0.007,0.106 0.28124997,0.098 0.28124997,0.125 -0.075,0.485 -1.04374997,-0.0168 -0.59374997,0.78125 0.167,0.296 0.77099997,0.7625 0.125,0.6875 -0.188,-0.022 -0.54,-0.5715 -0.75,-0.3125 -0.117,0.144 0.23275,0.6045 0.34375,0.6875 0.425,0.318 0.90949997,0.25975 0.4375,0.84375 -0.302,0.372 -0.4565,0.66 0.1875,0.5 0.27099997,-0.068 0.59924997,-0.263 0.78124997,0 -0.072,-0.105 -0.0412,0.7145 -0.0312,0.6875 -0.047,0.207 -0.47875,0.37225 -0.46875,0.53125 0.003,0.065 0.36025,0.21475 0.40625,0.34375 0.207,0.58 -0.5175,0.897 -0.68749997,1.25 -0.127,0.261 -0.008,0.601 0.31249997,0.625 0.426,0.032 0.0628,-0.1185 0.21875,-0.3125 0.192,-0.238 0.0987,-0.2945 0.34375,0.0625 0.163,0.237 0.1665,0.55725 0.3125,0.78125 0.041,0.063 -0.0265,0.181 0.0625,0.25 0.091,0.071 0.23425,-0.12975 0.28125,-0.0937 0.036,0.028 0.21925,0.3235 0.15625,0.3125 0.427,0.072 0.7935,-1.1455 1.3125,-0.4375 0.136,0.185 0.0928,0.54675 -0.15625,0.59375 -0.361,0.07 -0.33025,-0.23625 -0.65625,0.0937 -0.312,0.316 0.1105,0.37525 0.3125,0.40625 0.481,0.075 0.29,-0.12225 0.5,-0.28125 0.022,-0.016 0.46725,-0.29525 0.40625,-0.28125 0.206,-0.047 0.0572,-0.1645 0.28125,0.0625 0.05,0.052 0.0652,0.30825 0.15625,0.40625 0.044,0.047 0.39625,0.1685 0.40625,0.1875 0.097,0.285 -0.26625,0.13625 -0.28125,0.40625 -0.014,0.257 0.4475,0.14075 0.3125,0.46875 -0.087,0.211 -0.48725,0.0425 -0.53125,0.0625 -0.689,0.302 0.5355,0.58825 0.8125,0.15625 0.169,-0.262 -0.271,-0.45975 0.25,-0.46875 0.282,-0.005 0.308,0.2695 0.375,0.4375 0.1,0.248 -0.11625,0.71175 -0.0312,0.84375 0.089,0.14 0.6725,0.11075 0.8125,0.0937 1.294,-0.157 0.0317,0.6265 0.0937,0.8125 0.097,0.293 1.35725,-0.568 0.65625,0.5 -0.1,0.152 -0.6875,0.4075 -0.6875,0.4375 -0.032,0.18 0.609,0.33625 0.75,0.28125 0.529,-0.205 0.4165,-1.5285 0.8125,-0.4375 0.126,0.346 0.29325,0.4395 0.53125,0.6875 0.224,0.233 0.31425,0.51 0.53125,0.75 0.341,0.377 -0.215,0.1355 -0.375,0.3125 -0.059,0.065 -0.0773,0.78975 -0.0312,0.84375 0.382,0.444 1.4015,-0.683 1.9375,-0.5 0.555,0.19 0.799,1.15325 0.75,1.65625 -0.089,0.923 -0.019,1.14175 0.875,1.59375 0.396,0.2 0.427,0.2125 0.5,0.6875 0.064,0.417 -0.0575,0.38775 0.1875,0.59375 -0.03,-0.026 0.29975,0.0658 0.34375,0.0937 0.109,0.071 0.2165,0.278 0.3125,0.375 0.316,0.322 0.35225,0.53575 0.28125,0.96875 -0.072,0.436 -0.2405,1.1145 -0.6875,1.3125 -0.419,0.186 -0.8405,-0.30875 -1.1875,0.0312 -0.24,0.236 -0.13975,0.91325 0.0312,1.15625 0.383,0.543 0.69975,0.025 0.96875,-0.375 0.326,-0.486 0.4475,-0.785 1.0625,-0.375 0.569,0.379 0.82325,1.16225 1.03125,1.78125 0.175,0.517 0.50675,1.309 0.46875,1.875 -0.018,0.269 -0.28975,0.52525 -0.0937,0.78125 0.195,0.255 1.076,-0.0488 1.125,0.40625 0.03,0.276 -0.53575,0.4935 -0.59375,0.8125 -0.057,0.313 0.0733,0.441 0.28125,0.625 0.273,0.241 0.9515,0.197 0.9375,0.625 -0.007,0.23 -0.237,0.42675 -0.375,0.59375 -0.425,0.513 -0.85525,1.01825 -1.28125,1.53125 -0.78,0.939 1.578,0.75325 1.875,0.78125 0.645,0.061 0.74275,0.121 0.71875,0.75 -0.011,0.343 0.042,0.79175 0,1.09375 -0.076,0.549 -0.1395,1.073 -0.1875,1.625 -0.047,0.546 -0.30175,0.90675 -0.21875,1.46875 0.105,0.706 -1.16175,0.83125 -1.59375,1.15625 -0.758,0.571 0.3015,1.54775 0.9375,1.59375 0.736,0.054 0.6905,-0.0505 1.0625,0.8125 0.182,0.422 -0.0177,0.59725 -0.21875,1.03125 -0.162,0.35 -0.3085,0.83175 -0.1875,1.21875 0.107,0.342 0.38725,0.5915 0.78125,0.4375 0.163,-0.064 0.0738,-0.2765 0.21875,-0.3125 0.184,-0.045 0.4875,0.16825 0.6875,0.15625 0.256,-0.015 0.491,-0.25425 0.75,-0.28125 0.294,-0.031 0.479,0.12275 0.75,0.21875 0.853,0.3 1.8885,0.3385 2.8125,0.4375 0.969,0.104 3.2765,0.187 3.9375,1 1.04593,1.2838 1.72634,2.93442 1.75,4.625 l 704.593749,0 c -1.62016,-0.87208 -3.15652,-1.88995 -4.375,-3.28125 -0.397,-0.452 -0.91775,-1.89475 -0.46875,-2.46875 0.602,-0.769 1.049,-1.47675 1.5,-2.34375 0.322,-0.619 0.71225,-1.13875 0.65625,-1.84375 -0.068,-0.852 -0.533,-1.7215 -0.75,-2.5625 -0.135,-0.524 -0.1505,-1.281 -0.4375,-1.75 -0.24,-0.391 -0.74075,-0.72725 -1.09375,-1.03125 -0.288,-0.248 -0.47925,-0.93125 -0.65625,-1.28125 -0.354,-0.701 -0.14775,-1.43725 -0.71875,-2.03125 -1.017,-1.057 -2.53625,-2.0295 -2.90625,-3.5625 -0.242,-1 -0.37975,-1.97275 -0.71875,-2.96875 -0.29,-0.848 -0.915,-1.512 -1.125,-2.375 -0.481,-1.974 -2.32525,-2.574 -4.15625,-3 -0.91,-0.212 -1.85325,-0.43325 -2.78125,-0.53125 -0.663,-0.07 -1.433,-0.52625 -2.125,-0.65625 -1.543,-0.29 -3.10525,-0.5215 -4.65625,-0.8125 -1.759,-0.331 -3.694,-0.496 -5.375,-1.125 -1.634,-0.612 -3.41125,-0.711 -5.03125,-1.375 -0.583,-0.239 -1.08575,-0.5675 -1.59375,-0.9375 -0.892,-0.649 -1.52025,-0.7165 -2.53125,-0.4375 -1.721,0.475 -2.866,-0.53775 -4.25,-1.34375 -0.792,-0.461 -1.50975,-0.25175 -2.09375,-1.09375 -0.485,-0.698 -0.87425,-1.437 -1.53125,-2 -0.553,-0.476 -1.515,-1.2525 -2.25,-1.1875 -0.341,0.03 -0.417,0.14625 -0.75,0.0312 -0.297,-0.103 -0.619,-0.3835 -0.875,-0.5625 -0.418,-0.292 -0.637,-0.482 -0.75,-1 -0.089,-0.405 -0.0433,-0.79275 -0.40625,-1.09375 -0.252,-0.209 -0.4795,-0.31275 -0.8125,-0.34375 -0.436,-0.04 -0.46225,0.157 -0.78125,0.25 -1.005,0.293 -0.854,-0.60575 -1,-1.21875 -0.057,-0.239 -0.18775,-0.436 -0.34375,-0.625 -0.104,-0.127 -0.378,-0.18075 -0.25,-0.21875 -0.142,-0.15 -0.437,-0.004 -0.625,-0.15625 -0.235,-0.189 -0.112,-0.624 -0.125,-0.875 -0.013,-0.27 0.38025,-0.14 0.53125,-0.375 0.293,-0.454 -0.0495,-0.63225 -0.3125,-0.90625 -0.219,-0.228 -0.61,-0.56675 -0.75,-0.84375 -0.12,-0.239 -0.0633,-0.58775 -0.15625,-0.84375 -0.123,-0.337 -0.0277,-0.769 -0.0937,-1.125 -0.041,-0.22 -0.15625,-0.43225 -0.15625,-0.65625 0,-0.544 -0.32075,-1.13125 -0.46875,-1.65625 -0.209,-0.741 -0.2975,-1.52825 -0.4375,-2.28125 -0.133,-0.72 -0.22325,-1.648 -0.15625,-2.375 0.039,-0.426 0.0705,-0.89725 -0.4375,-1.03125 -0.438,-0.116 -0.7655,0.253 -1.1875,0 -0.496,-0.297 -0.29275,-1.146 -0.21875,-1.625 0.085,-0.547 0.3655,-1.339 0.1875,-1.875 -0.163,-0.49 -0.58796,-0.88425 -0.75,-1.40625 -0.481,-1.546 0.37554,-3.41475 -1.1875,-4.46875 -0.496,-0.334 -0.7485,-0.897 -1.1875,-1.25 -0.379,-0.304 -0.805,-0.4985 -1.25,-0.6875 -0.459,-0.195 -0.94225,-0.48225 -1.40625,-0.65625 -0.213,-0.08 -0.43125,-0.11025 -0.65625,-0.15625 -0.301,-0.062 -0.4055,-0.6855 -0.4375,-0.9375 -0.092,-0.72 0.24875,-1.3495 0.21875,-2.0625 -0.029,-0.707 -0.28125,-1.44075 -0.53125,-2.09375 -0.344,-0.9 -0.2785,-1.5095 -0.0625,-2.4375 0.177,-0.763 0.3765,-1.492 0.0625,-2.25 -0.309,-0.747 -0.9335,-1.381 -1.1875,-2.125 -0.212,-0.622 -0.0462,-1.27725 -0.15625,-1.90625 -0.0462,-0.262049 -0.0962,-0.542904 -0.15625,-0.8125 l -650.124999,0 z"
     id="rect6"
     inkscape:connector-curvature="0" />
  <path
	 style="fill:#9FAEC0"
	 stroke="#9FAEC0"
	 stroke-width="10"
	 transform="translate(0, 75)"
     d="m 29.992381,173.28125 c 0.004,0.27813 0.003,0.56544 -0.0312,0.84375 -0.229,1.897 -1.112,3.3805 -2.5,4.6875 -1.358,1.279 -2.8095,3.1845 -1.9375,5.1875 0.265,0.608 0.5365,1.331 0.5625,2 0.029,0.763 -0.509,1.59 -0.875,2.25 -0.786,1.419 -0.473,3.45475 0.75,4.59375 0.72,0.671 1.534,1.1805 2.375,1.6875 0.829,0.501 1.3195,1.34225 1.8125,2.15625 0.893,1.477 -0.13275,3.32875 0.65625,4.84375 0.318,0.61 0.66375,1.2 1.21875,1.625 0.603,0.462 1.31675,0.86725 1.84375,1.40625 1.237,1.264 1.4455,2.6505 1.1875,4.3125 -0.046,0.296 -0.20875,0.25125 0.0312,0.53125 0.181,0.211 0.291,0.433 0.5,0.625 0.234,0.214 0.231,0.69925 0,0.90625 -0.543,0.487 -0.8375,1.314 -1.4375,1.75 -0.664,0.482 -2.0015,0.0325 -2.6875,0.5625 -0.516,0.399 -0.3615,0.99175 -0.0625,1.46875 0.716,1.14 1.4585,2.058 1.0625,3.5 -0.216,0.788 -0.47375,1.3425 -0.34375,2.1875 0.117,0.76 0.4555,1.50375 0.9375,2.09375 0.551,0.674 1.40625,0.8695 2.03125,1.4375 0.493,0.448 0.78875,0.987 0.96875,1.625 0.26,0.921 0.629,1.62575 1.5,2.09375 0.611,0.328 1.2785,0.35625 1.9375,0.53125 2.43,0.646 2.9565,3.731 1.9375,5.75 -0.56,1.11 -1.147,2.085 -1.25,3.375 -0.11,1.386 0.13475,3.0905 0.84375,4.3125 0.312,0.536 0.7515,0.80425 1.3125,1.03125 0.486,0.196 0.574,0.0447 1,-0.15625 0.857,-0.405 1.90325,-0.20425 2.65625,0.34375 0.975,0.709 1.424,1.835 0.625,2.875 -0.776,1.009 -1.9385,1.14325 -2.1875,2.53125 -0.167,0.934 0.65625,1.91625 1.65625,1.90625 1.078,-0.011 1.0955,-1.5775 1.8125,-2.0625 0.854,-0.579 2.04225,-0.3195 2.90625,0.0625 0.569,0.251 0.64675,0.30375 0.71875,0.84375 0.067,0.508 0.0645,0.86875 -0.1875,1.34375 -0.281,0.529 -0.58975,0.87075 -0.71875,1.46875 -0.21,0.972 0.646,1.46375 1.5,1.59375 0.499,0.076 0.76975,-0.35775 1.21875,-0.46875 0.27,-0.067 0.56775,-0.12225 0.84375,-0.15625 0.642,-0.08 1.27925,0.0877 1.90625,0.21875 1.011,0.211 2.13675,0.74825 2.09375,1.90625 -0.031,0.833 -0.49875,2.0085 -0.96875,2.6875 -0.57974,0.83633 -1.3417,1.21837 -0.9375,2.34375 l 738.624999,0 c -0.008,-0.34879 -0.0117,-0.69884 0,-1.03125 0.012,-0.341 0.0305,-0.662 0.0625,-1 0.026,-0.271 -0.359,-0.646 -0.5,-0.875 -0.558,-0.911 -1.298,-1.26875 -1.25,-2.46875 0.04,-1.01 0.31125,-1.89525 0.78125,-2.78125 0.224,-0.422 0.342,-0.89625 0.625,-1.28125 0.204,-0.277 0.7145,-0.611 0.6875,-1 -0.04,-0.585 -0.0908,-1.0195 0.15625,-1.5625 0.258,-0.569 0.42225,-0.8115 0.40625,-1.4375 -0.018,-0.707 -0.0312,-1.34925 -0.28125,-2.03125 -0.269,-0.731 -0.7575,-1.19275 -0.9375,-1.96875 -0.168,-0.727 -0.39775,-1.14775 -0.84375,-1.71875 -0.395,-0.507 -1.02125,-0.71275 -1.15625,-1.34375 -0.152,-0.712 -0.36475,-1.63975 -0.34375,-2.34375 0.022,-0.7 0.0567,-1.2495 -0.15625,-1.9375 -0.421,-1.364 0.40625,-2.38575 0.40625,-3.71875 0,-1.234 0.2145,-2.4595 -0.0625,-3.6875 -0.136,-0.599 -0.54175,-1.21325 -0.96875,-1.65625 -0.458,-0.475 -1.70075,-0.0762 -2.34375,-0.15625 -2.169,-0.27 -1.98675,-2.42825 -2.59375,-4.03125 -0.325,-0.858 -1.4795,-1.1355 -2.1875,-1.5625 -0.827,-0.5 -1.645,-0.95925 -2.5,-1.40625 -0.816,-0.426 -1.86525,-0.50125 -2.78125,-0.65625 -0.985,-0.167 -1.937,-0.7655 -2.75,-1.3125 -0.741,-0.499 -1.4515,-0.981 -2.3125,-1.25 -0.925,-0.287 -1.42225,-0.615 -2.15625,-1.25 -0.847,-0.733 -1.91275,-0.65125 -2.96875,-0.78125 -1.06,-0.131 -1.5405,-0.6995 -2.4375,-1.1875 -0.788,-0.429 -1.43075,-0.91925 -2.09375,-1.53125 -0.332,-0.307 -0.76825,-0.498 -1.03125,-0.875 -0.223,-0.32 -0.20725,-0.71725 -0.40625,-1.03125 -0.524,-0.824 -1.082,-1.50375 -1.75,-2.21875 -0.408,-0.437 -0.946,-0.68775 -1.25,-1.21875 -0.369,-0.641 -0.4025,-1.36425 -0.6875,-2.03125 -0.239,-0.558 -0.7595,-1.2215 -0.8125,-1.8125 -0.068,-0.757 0.12825,-1.5255 0.53125,-2.1875 0.361,-0.592 0.3865,-1.438 0.5625,-2.125 0.093,-0.367 0.189,-0.5695 0.125,-0.9375 -0.063,-0.364 -0.34975,-0.6665 -0.21875,-1.0625 0.117,-0.355 0.5205,-0.50525 0.5625,-0.90625 0.043,-0.405 -0.231,-0.835 -0.5,-1.125 -0.552,-0.595 -1.208,-0.92525 -1.625,-1.65625 -0.426,-0.746 -0.89825,-1.44775 -1.28125,-2.21875 -0.233,-0.469 -0.522,-0.67375 -1,-0.84375 -0.469,-0.167 -0.69325,-0.57325 -1.03125,-0.90625 -0.586,-0.578 -0.85175,-1.02 -1.21875,-1.75 -0.284,-0.566 -0.716,-1.0855 -1.25,-1.4375 -0.281,-0.185 -0.6375,-0.0245 -0.9375,-0.0625 -0.259,-0.033 -0.54475,-0.28875 -0.71875,-0.46875 -0.463,-0.477 -0.7535,-0.993 -1.3125,-1.375 -0.63,-0.431 -1.415,-0.81675 -2.125,-1.09375 -0.838,-0.327 -1.64575,-0.7005 -2.46875,-1.0625 -0.681,-0.3 -1.63525,-0.443 -2.15625,-1 -0.537,-0.574 -0.318,-1.39475 -0.5,-2.09375 -0.19,-0.729 -0.64625,-1.44375 -1.28125,-1.84375 -0.415,-0.262 -0.905,-0.34775 -1.375,-0.46875 -0.455,-0.118 -0.8775,-0.35825 -1.3125,-0.53125 -0.893,-0.356 -1.762,-0.52975 -2.625,-0.96875 -0.23856,-0.12144 -0.48271,-0.24795 -0.71875,-0.375 l -704.593749,0 z"
     id="rect8"
     inkscape:connector-curvature="0" />
  <path
	 style="fill:#9FAEC0"
	 stroke="#9FAEC0"
	 stroke-width="10"
	 transform="translate(0, 50)"
     d="m 56.273631,259.9375 c 0.0148,0.0413 0.0132,0.0817 0.0312,0.125 0.431,1.034 1.20725,1.9725 0.40625,3.0625 -0.685,0.934 -2.161,0.44525 -2.75,1.53125 -0.508,0.938 0.173,1.7455 0.75,2.4375 0.714,0.857 0.7605,1.40575 0.8125,2.46875 0.079,1.606 1.28825,2.5385 2.53125,3.3125 0.977,0.562 1.78025,1.21 2.03125,2.375 0.051,0.2 0.0625,0.418 0.0625,0.625 0.011,0.206 -0.0227,0.40075 -0.0937,0.59375 -0.92,2.19 0.3815,3.9615 2.5625,4.4375 0.263,0.073 0.52625,0.149 0.78125,0.25 1.103,0.561 2.064,1.95475 1.75,3.21875 -0.312,0.714 -1.06625,1.14 -1.40625,1.875 -0.137,0.101 -0.193,0.218 -0.125,0.375 -0.529,0.18 -0.219,2.15625 -0.375,2.65625 -0.414,1.328 -1.324,1.382 -2.375,1.875 -1.101,0.516 -1.44325,2.3315 -0.78125,3.3125 0.488,0.722 1.6145,0.888 2.3125,1.375 1.21,0.875 2.2055,2.8995 0.3125,3.6875 -0.063,0.029 -0.1205,0.0435 -0.1875,0.0625 -0.247,0.082 -0.492,0.134 -0.75,0.125 -0.05,-0.004 -0.10625,-0.0302 -0.15625,-0.0312 -0.086,-0.014 -0.165,-0.0163 -0.25,-0.0312 -0.029,-0.01 -0.0638,-0.0273 -0.0937,-0.0312 -0.215,-0.074 -0.43025,-0.1385 -0.65625,-0.1875 -0.085,-0.024 -0.19625,-0.0425 -0.28125,-0.0625 -0.08,-0.023 -0.16,-0.0242 -0.25,-0.0312 -1.541,-0.168 -2.7225,1.1795 -2.5625,2.6875 0.098,0.926 0.43825,1.4175 1.03125,2.1875 0.628,0.814 1.63175,1.1425 1.96875,2.1875 0.322,0.996 0.14475,1.775 -0.15625,2.75 -0.266,0.861 -1.1225,1.373 -1.6875,2 -1.39,1.545 -1.07775,3.2575 -0.0937,4.9375 0.823,1.404 3.04925,1.26975 3.40625,2.96875 0.218,1.036 -0.1155,1.734 -0.8125,2.5 -0.645,0.708 -0.74975,1.43125 -1.09375,2.28125 -0.047,0.85 0.0495,1.52775 0.3125,2.34375 0.2,0.622 0.769,1.80675 1.5,1.84375 0.988,0.05 1.048,1.11375 1.75,1.46875 0.691,0.35 0.9445,1.2495 1.6875,1.5625 0.753,0.318 1.5945,0.49475 2.0625,-0.28125 0.321,-0.534 0.0548,-1.69125 0.46875,-1.90625 0.532,-0.276 0.63575,-2.11325 0.71875,-2.65625 0.161,-1.064 1.29025,-1.26975 2.15625,-0.96875 1.138,0.395 1.27425,1.05825 1.53125,2.15625 0.206,0.879 0.64675,2.0305 0.46875,2.9375 -0.194,0.988 -0.7955,1.68025 -1.5625,2.28125 -0.476,0.373 -0.9565,0.759 -1.4375,1.125 -0.344,0.262 -0.4175,0.126 -0.4375,0.625 -0.03,0.749 0.4895,1.52975 0.9375,2.09375 0.816,1.031 1.72275,0.687 2.84375,0.875 1.362,0.227 2.0545,1.45 3.4375,1.5 0.708,0.027 1.27975,-0.485 1.96875,-0.5 0.625,-0.013 1.264,0.3275 1.75,0.6875 0.921,0.682 1.377,1.5465 1.25,2.6875 -0.121,1.08 -1.32525,1.4665 -1.65625,2.4375 -0.28077,0.82511 0.11066,1.62157 0.25,2.4375 l 607.343749,0 c 0.18516,-0.22246 0.42,-0.43375 0.71875,-0.625 0.52,-0.333 1.145,-0.66 1.75,-0.75 0.697,-0.105 1.466,-0.1 2.125,-0.375 0.917,-0.384 1.8335,-1.23025 2.8125,-1.40625 1.005,-0.18 1.279,0.382 2.125,0.625 0.729,0.21 1.35175,0.77125 2.09375,0.90625 0.448,0.08 0.89775,0.0462 1.34375,0.15625 0.512,0.125 0.9335,0.28875 1.4375,0.0937 0.475,-0.183 0.82325,-0.55525 1.28125,-0.78125 0.556,-0.274 1.1295,-0.40125 1.6875,-0.65625 0.925,-0.423 1.85925,-1.15925 2.65625,-1.78125 1.695,-1.322 3.17475,-2.67825 5.46875,-2.65625 1.068,0.009 2.08325,0.0985 3.15625,0.0625 1.186,-0.04 2.336,0.15225 3.5,0.28125 1.225,0.135 2.4515,0.22125 3.6875,0.28125 1.491,0.071 2.8585,-0.395 4.3125,-0.625 1.511,-0.239 2.99725,-0.5735 4.40625,-1.1875 1.324,-0.577 3.05375,-0.0482 4.09375,-1.28125 1.044,-1.238 2.022,-2.1895 3.375,-3.0625 1.107,-0.714 1.97125,-1.699 2.15625,-3 0.115,-0.803 0.40575,-1.23375 1.09375,-1.71875 0.374,-0.264 0.814,-0.4305 1.25,-0.5625 0.701,-0.212 1.55125,-0.188 2.15625,-0.625 0.076,-0.075 0.167,-0.13975 0.25,-0.21875 0.66,-0.623 0.98075,-0.84125 1.84375,-1.03125 0.655,-0.145 1.12625,-0.1835 1.78125,-0.0625 1.41,0.262 2.665,0.96925 4.125,1.03125 1.052,0.044 2.234,-0.115 3.25,-0.375 1.565,-0.4 2.5935,-1.514 3.5625,-2.75 0.36,-0.46 0.55025,-1.042 0.90625,-1.5 0.446,-0.574 0.7055,-0.83175 1.3125,-1.21875 0.818,-0.522 0.9425,-1.4875 1.5625,-2.1875 0.47,-0.531 1.5255,-1.21075 2.1875,-1.46875 0.673,-0.261 1.34025,-0.541 2.03125,-0.75 0.59,-0.178 1.2415,-0.271 1.8125,-0.5 0.539,-0.216 1.02525,-0.588 1.53125,-0.875 l 0.15625,0 c 0.774,-0.446 1.14925,-0.617 1.28125,-1.5 0.102,-0.585 0.1255,-1.1045 0.0625,-1.6875 -0.144,-1.334 -0.31725,-2.664 -0.40625,-4 -0.108,-1.611 -0.42675,-2.95725 0.0312,-4.53125 0.337,-1.157 0.42825,-2.2375 0.53125,-3.4375 0.115,-1.328 1.0395,-1.49025 1.8125,-2.40625 0.773,-0.914 0.9415,-2.0165 0.6875,-3.1875 -0.131,-0.606 -0.55,-1.115 -0.625,-1.75 -0.056,-0.475 0.0648,-1.093 0.0937,-1.5 0.098,-1.375 0.644,-2.40875 1.5,-3.46875 0.526,-0.65 1.19025,-1.2325 1.78125,-1.8125 0.339,-0.333 0.54825,-0.703 0.90625,-1 0.447,-0.37 1.0015,-0.64775 1.5625,-0.84375 0.678,-0.237 1.153,-0.82175 1.75,-1.21875 1.27,-0.846 2.44875,-1.8385 3.71875,-2.6875 1.138,-0.76 2.49075,-1.061 3.71875,-1.625 0.676,-0.31 1.2665,-0.75725 1.3125,-1.53125 0.046,-0.79 -0.21875,-1.583 -0.21875,-2.375 0,-0.594 -0.3265,-1.0645 -0.3125,-1.6875 0.007,-0.377 0.1005,-0.886 0.1875,-1.25 0.15,-0.624 0.55025,-1.2085 0.78125,-1.8125 0.253,-0.663 0.0873,-1.12025 0.15625,-1.78125 0.082,-0.775 0.2445,-1.7485 0.5625,-2.4375 0.636,-1.377 1.3815,-3.0415 1.5625,-4.5625 0.0748,-0.62869 0.0474,-1.30288 0.0312,-1.96875 l -738.624999,0 z"
     id="rect10"
     inkscape:connector-curvature="0" />
  <path
	 style="fill:#9FAEC0"
	 stroke="#9FAEC0"
	 stroke-width="10"
	 transform="translate(0, 25)"
     d="m 80.086131,346.59375 c 0.0388,0.22733 0.0498,0.45608 0.0312,0.6875 -0.105,1.322 -1.206,2.24375 -1.125,3.59375 0.072,1.193 1.11325,2.08225 1.03125,3.28125 -0.073,1.067 -0.881,2.15325 -2,2.28125 -1.23,0.14 -1.985,1.0865 -1.5,2.3125 0.443,1.119 1.47025,2.049 2.40625,2.75 0.997,0.747 1.93275,1.283 3.21875,1.125 0.982,-0.121 1.76025,-0.22175 2.65625,0.28125 1.627,0.912 2.48925,3.11125 1.78125,4.90625 -0.465,0.975 -1.537,1.52025 -2.5,1.90625 -0.355,0.128 -0.9585,0.538 -1.3125,0.5 -0.389,-0.042 -0.9345,-0.67 -1.1875,-0.875 0.235,-0.296 0.50675,-0.59825 0.71875,-0.90625 0.069,-0.182 0.12625,-0.3695 0.15625,-0.5625 -10e-4,-0.275 0.23575,-0.61125 0.0937,-0.78125 0.163,-0.037 0.082,-0.092 0.125,-0.25 l 0.0312,-0.375 c 0.029,-0.235 -0.0395,-0.47625 -0.1875,-0.65625 -0.144,-0.007 -0.2935,-0.0183 -0.4375,-0.0312 l -0.0312,0 c -0.552,-0.049 -1.06775,-0.1185 -1.59375,0.0625 -0.631,0.216 -0.68675,0.40175 -0.84375,0.96875 -0.242,0.648 -0.253,1.7735 0.125,2.3125 0.282,0.402 1.104,1.311 1.625,1.375 -0.943,0.427 -1.138,1.137 -1,2.125 0.005,0.051 0.0213,0.10325 0.0312,0.15625 0.222,0.884 0.5325,1.66775 0.9375,2.46875 0.298,0.818 0.28525,1.531 0.15625,2.375 -0.136,0.888 -0.89825,1.43475 -1.40625,2.09375 -0.694,0.686 -0.868,1.92975 -0.75,2.84375 0.101,0.777 0.4665,1.395 0.9375,2 0.42,0.541 1.407,0.48475 2,0.46875 2.187,-0.058 4.46025,-1.1185 6.53125,0.0625 0.776,0.442 1.3695,1.42775 1.0625,2.34375 -0.604,1.803 -2.33875,0.25375 -3.46875,0.46875 -1.199,0.227 -1.584,1.72075 -1.75,2.71875 -0.148,0.885 0.2925,1.83375 0.6875,2.59375 0.495,0.954 1.154,1.748 1.25,2.875 0.069,0.801 -0.2185,1.54575 -0.0625,2.34375 0.114,0.578 0.29,1.175 0.375,1.75 0.339,1.378 -0.5185,2.45075 -1.4375,3.34375 -0.79,0.757 -1.60575,2.11425 -0.96875,3.15625 0.167,0.274 0.556,0.49725 0.75,0.78125 0.251,0.366 0.51175,0.61725 0.84375,0.90625 1.112,0.966 1.3495,2.4075 0.5625,3.6875 -0.638,1.039 -1.29475,2.0895 -0.71875,3.3125 0.684,1.453 2.24375,1.52875 3.34375,2.46875 1.573,1.345 1.65575,3.0405 0.71875,4.8125 -0.898,1.7 -1.034,3.27625 -0.75,5.15625 0.318,2.102 2.37,3.0005 3.25,4.8125 0.10168,0.20935 0.151,0.42008 0.1875,0.625 l 600.531249,0 c 0.29483,-0.64856 0.59208,-1.28455 1.09375,-1.8125 0.743,-0.781 1.3515,-1.14375 2.3125,-1.59375 0.472,-0.221 0.82625,-0.5815 1.28125,-0.8125 0.368,-0.187 0.953,-0.37325 1.25,-0.65625 0.839,-0.8 0.7855,-1.69925 0.9375,-2.78125 0.123,-0.868 0.5975,-1.656 0.8125,-2.5 0.528,-2.065 -1.391,-3.9805 -0.375,-5.9375 0.501,-0.966 0.6665,-1.8965 0.9375,-2.9375 0.265,-1.015 0.0535,-2.0305 0.1875,-3.0625 0.125,-0.976 0.30575,-1.93625 0.0937,-2.90625 -0.099,-0.452 -0.028,-0.941 -0.125,-1.375 -0.104,-0.469 -0.2815,-0.93225 -0.3125,-1.40625 -0.036,-0.543 -0.0397,-0.88225 -0.21875,-1.40625 -0.126,-0.37 -0.25525,-0.70275 -0.28125,-1.09375 -0.049,-0.715 0.0415,-1.4685 0.0625,-2.1875 0.024,-0.825 0.32625,-1.4295 -0.0937,-2.1875 -0.334,-0.604 -0.6965,-1.166 -1.0625,-1.75 -0.346,-0.552 -1.021,-1.06025 -1.25,-1.65625 -0.256,-0.66 -0.46675,-1.3365 -0.84375,-1.9375 -0.44,-0.701 -0.94975,-1.3345 -1.34375,-2.0625 -0.327,-0.604 -0.53175,-1.30475 -0.96875,-1.84375 -0.778,-0.96 -1.84,-1.7925 -3.125,-1.4375 -0.685,0.189 -1.37775,0.4885 -2.09375,0.3125 -0.323,-0.081 -0.64475,-0.18 -0.96875,-0.25 -0.468,-0.102 -0.5995,-0.56775 -0.8125,-0.96875 -0.779,-1.471 -1.63325,-2.88225 -2.53125,-4.28125 -0.476,-0.742 -1.023,-1.44975 -1.625,-2.09375 -0.636,-0.68 -1.5225,-1.21775 -2.0625,-1.96875 -0.488,-0.677 -1.01325,-1.2745 -1.65625,-1.8125 -0.558,-0.468 -0.905,-0.74 -1,-1.5 -0.217,-1.737 1.1785,-2.8575 1.6875,-4.4375 0.296,-0.917 0.49075,-1.88425 0.84375,-2.78125 0.363,-0.923 0.88525,-1.522 1.53125,-2.25 1.062,-1.2 0.75,-3.4405 0.75,-4.9375 0,-1.316 0.0772,-2.6325 0.28125,-3.9375 0.121,-0.773 0.093,-1.7035 0.375,-2.4375 0.235,-0.608 0.646,-1.208 1,-1.75 0.41,-0.628 0.6595,-0.998 0.6875,-1.75 0.026,-0.663 -0.0105,-1.336 0.0625,-2 0.11025,-0.993 0.22578,-1.80137 0.78125,-2.46875 l -607.343749,0 z"
     id="rect12"
     inkscape:connector-curvature="0" />
  <path
	 style="fill:#9FAEC0"
	 stroke="#9FAEC0"
	 stroke-width="10"
     d="m 92.679881,433.25 c 0.28653,1.60885 -1.28997,3.02285 -2.75,3.375 -0.911,0.22 -1.67575,0.38875 -2.09375,1.34375 -0.305,0.698 -0.2285,1.432 0.0625,2.125 0.634,1.511 1.45,2.87625 0.75,4.53125 -0.285,0.676 -0.7375,1.245 -0.8125,2 -0.075,0.759 0.1345,1.53075 0.4375,2.21875 0.746,1.691 1.28775,3.06825 -0.15625,4.53125 -1.2,1.215 -2.96675,1.3315 -4.21875,2.4375 -1.458,1.288 -2.15375,3.13525 -1.71875,5.03125 0.099,0.434 0.18175,1.018 0.46875,1.375 0.3,0.375 0.8095,0.521 1.1875,0.75 0.596,0.359 1.29975,0.537 1.84375,1 1.315,1.12 1.1605,2.53625 1.4375,4.03125 0.24,1.291 1.68625,2.14775 2.78125,2.71875 1.42,0.74 3.0645,0.239 4.3125,1.5 1.023,1.033 2.22875,2.5225 2.21875,4.0625 -0.003,0.665 -0.12625,1.5815 0.0937,2.1875 0.319,0.878 1.3435,1.19775 1.9375,1.84375 0.597,0.65 0.743,1.45125 0.375,2.28125 -0.408,0.922 -1.29625,1.28525 -2.03125,1.90625 4.518999,0.137 9.040499,0.409 13.562499,0.5 5.536,0.112 11.096,0.509 16.625,0.75 2.375,0.032 4.754,0.18725 7.125,0.28125 3.937,0.156 7.90975,0.2115 11.84375,0.4375 3.327,0.19 6.63675,0.26 9.96875,0.375 3.607,0.124 7.282,0.375 10.875,0.375 5.751,0 11.506,0.449 17.25,0.625 3.72,0.113 7.43525,0.33625 11.15625,0.40625 3.655,0.07 7.354,0.10975 11,0.34375 0.367,0.004 0.72775,0.0172 1.09375,0.0312 5.084,0.185 10.13875,0.304 15.21875,0.5 1.265,0.075 2.5445,0.066 3.8125,0.125 2.985,0.073 5.9545,0.20025 8.9375,0.28125 5.585,0.153 11.164,0.353 16.75,0.375 5.366,0.021 10.63825,-0.0102 16.03125,0.0937 3.177,-0.056 6.34025,0.0455 9.53125,0.0625 6.468,0.034 12.9475,0.0582 19.4375,0.0312 7.038,-0.029 14.05775,-0.016 21.09375,-0.125 4.509,-0.071 9.02025,-0.15075 13.53125,-0.21875 5.479,-0.083 10.9625,-0.30475 16.4375,-0.21875 0.29,0.008 0.585,0.005 0.875,0 0.85,0.005 1.68225,-0.0158 2.53125,0.0312 0.713,-0.061 1.4645,-0.0113 2.1875,-0.0312 1.756,-0.05 3.52425,-0.0585 5.28125,-0.0625 0.901,-0.022 1.81875,0.01 2.71875,-0.0312 2.748,-0.043 5.47075,-0.1355 8.21875,-0.1875 0.992,-0.046 2.006,-0.0365 3,-0.0625 0.236,-0.007 0.4505,-0.0222 0.6875,-0.0312 0.058,-0.003 0.1295,-0.003 0.1875,0 l 0.0312,0 c 1.948,0.075 3.924,-0.0625 5.875,-0.0625 3.654,0 7.31475,0.12675 10.96875,0.0937 2.428,-0.023 4.92675,-0.2085 7.34375,-0.0625 0.047,0.004 0.078,10e-4 0.125,0 0.123,0.017 0.272,0.007 0.375,-0.0312 0.011,0.01 0.0182,-0.005 0.0312,0 0.007,0.003 0.0213,10e-4 0.0312,0 0,10e-4 -0.001,0.0303 0,0.0312 0.009,0 0.0213,-0.003 0.0312,0 0.257,-0.006 0.52425,0 0.78125,0 0.105,-0.003 0.2085,-0.0292 0.3125,-0.0312 0.144,0.003 0.2935,0.006 0.4375,0 0.132,0.002 0.27325,0.005 0.40625,0 0.217,-0.004 0.43825,0.005 0.65625,0 l 0.0937,0 0.0937,0 c 0.031,-0.011 0.0425,-0.009 0.0625,0 0.021,0 0.0415,0.003 0.0625,0 0.019,-0.006 0.0425,-0.0312 0.0625,-0.0312 1.176,0.024 2.36125,-0.0342 3.53125,-0.0312 0.293,0 0.61425,-0.004 0.90625,0 0.042,0.003 0.084,0.006 0.125,0 0.1,-0.005 0.18125,-0.002 0.28125,0 0.16,0.003 0.30975,0.006 0.46875,0 0.072,-0.002 0.14675,-0.004 0.21875,0 0.195,0.001 0.39775,0.002 0.59375,0 l 0.0625,0 c 0.046,0.006 0.08,0.008 0.125,0 0.126,-10e-4 0.28025,-0.004 0.40625,0 l 0.1875,0 c 0.026,-10e-4 0.0678,0.001 0.0937,0 0.03,-0.002 0.0638,0.001 0.0937,0 l 0,-0.0312 c 0.284,0.008 0.588,0.0312 0.875,0.0312 0.164,-10e-4 0.336,-0.0292 0.5,-0.0312 0.206,0 0.38775,0.005 0.59375,0 l 0.21875,0 c 0.106,-0.003 0.23775,-10e-4 0.34375,0 l 0.25,0 c 0.154,-10e-4 0.31475,0.003 0.46875,0 l 0.0625,0 c 0.077,-0.004 0.173,-10e-4 0.25,0 0.07,0.003 0.14675,0.003 0.21875,0 1.105,-0.021 2.2085,-0.0758 3.3125,-0.0937 1.805,-0.029 3.6335,-0.056 5.4375,-0.125 0.479,-0.011 0.9585,-0.0213 1.4375,-0.0312 0.833,-0.022 1.67,-0.0125 2.5,-0.0625 0.414,-0.005 0.836,-0.0192 1.25,-0.0312 0.638,-0.013 1.26925,-0.0285 1.90625,-0.0625 0.54,-0.025 1.084,-0.0465 1.625,-0.0625 0.08,-0.002 0.17,0.003 0.25,0 0.681,-0.058 1.3745,-0.097 2.0625,-0.125 2.811,-0.122 5.6245,-0.31375 8.4375,-0.34375 2.051,-0.056 4.10325,-0.18275 6.15625,-0.21875 5.22,-0.169 10.401,-0.24875 15.625,-0.34375 l 0.5,0 c 0.036,0.01 0.0625,0.031 0.0625,0 1.146,-0.007 2.6225,0.13725 3.6875,-0.0937 2.969,0 5.93725,-0.069 8.90625,-0.125 5.593,-0.127 11.19425,-0.201 16.78125,-0.5 3.066,-0.166 6.1215,-0.3035 9.1875,-0.4375 1.612,-0.07 3.23275,-0.14075 4.84375,-0.21875 1.257,-0.062 2.623,-0.3285 3.875,-0.1875 0.013,-0.002 0.0183,0.002 0.0312,0 1.398,-0.046 2.7945,-0.101 4.1875,-0.125 5.465,-0.122 10.918,-0.48525 16.375,-0.65625 l 0.0625,0 c 1.014,-0.035 2.01725,-0.09 3.03125,-0.125 0.977,-0.031 1.9645,-0.0278 2.9375,-0.0937 l 0.0312,0 c 0.091,-0.004 0.18925,-0.0303 0.28125,-0.0312 0.066,-0.005 0.1215,10e-4 0.1875,0 1.634,-0.077 3.3125,-0.0125 4.9375,-0.1875 0.911,-0.029 1.80675,-0.0788 2.71875,-0.0937 0.415,-0.007 0.841,-0.0405 1.25,-0.0625 2.964,-0.106 5.911,-0.25775 8.875,-0.34375 1.748,-0.12 3.48275,-0.0797 5.21875,-0.21875 0.552,0.029 1.1305,-0.0487 1.6875,-0.0937 0.694,0.078 1.46025,-0.077 2.15625,-0.125 3.82,-0.017 7.682,-0.35825 11.5,-0.53125 6.774,-0.308 13.5735,-0.79175 20.3125,-1.34375 1.566,-0.128 3.176,-0.2075 4.75,-0.3125 1.055,-0.071 2.10225,-0.13875 3.15625,-0.21875 0.301,-0.024 0.8925,-0.2215 1.0625,0.0625 l 1.03125,1.6875 c 0.843,1.411 2.49775,1.81725 3.71875,2.78125 0.758,0.599 0.8875,1.0615 0.5625,1.9375 -0.259,0.696 -0.697,1.47175 -0.375,2.21875 0.539,1.249 2.23,1.40125 3.375,1.53125 1.346,0.152 2.67,0.501 4,0.75 0.493,0.092 1.367,0.233 1.625,0.75 0.33,0.659 0.34525,1.69225 0.15625,2.40625 -0.463,1.74601 -0.50775,2.94725 1.15625,4.03125 0.494,0.322 1.0385,0.493 1.5625,0.75 0.897,0.44 1.30125,1.04575 1.65625,1.96875 0.301,0.781 0.35,1.705 0.875,2.375 0.412,0.527 0.79725,0.8895 1.40625,1.1875 1.31,0.64 2.74725,0.664 4.15625,0.5 0.486,-0.057 1.056,-0.196 1.375,0.25 0.339,0.474 0.25425,1.2735 -0.0937,1.6875 -0.417,0.495 -1.309,0.9085 -0.875,1.6875 0.407,0.732 1.468,0.181 1.75,0.625 0.21,0.331 -0.2935,1.114 -0.4375,1.375 -0.381,0.693 -0.80725,1.347 -0.28125,2.125 0.378,0.558 1.0045,0.4155 1.5625,0.5625 0.557,0.149 0.758,0.6355 1.25,0.8125 0.541,0.194 1.0915,0.20875 1.5625,-0.15625 0.472,-0.367 0.3875,0.295 0.3125,0.625 -0.104,0.461 -0.36075,0.81225 -0.21875,1.28125 0.101,0.331 0.35725,0.589 0.53125,0.875 0.148,0.242 0.2785,0.65725 0.5625,0.78125 0.454,0.199 1.342,-0.204 1.75,-0.375 0.494,-0.207 0.96225,-0.41275 0.53125,0.40625 -0.488,0.93 0.208,0.99075 1,0.96875 0.932,-0.026 1.04775,-0.877 1.59375,-1.5 0.384,-0.44 0.5225,-0.231 1.0625,-0.125 0.824,0.24 1.45825,0.4355 2.03125,1.0625 1.017,-1.349 3.10475,-0.52125 4.46875,-1.53125 0.577,-0.427 0.946,-0.71325 1.125,-1.40625 0.218,-0.848 0.2185,-1.59475 0.1875,-2.46875 -0.07,-1.887 -1.3795,-3.49325 -1.3125,-5.40625 0.069,-1.941 1.06375,-3.47225 1.59375,-5.28125 0.58,-1.978 0.58375,-3.7355 -0.0312,-5.6875 -0.291,-0.923 -1.0415,-1.72025 -1.5625,-2.53125 -0.3,-0.467 -0.549,-0.917 -1,-1.25 -0.361,-0.265 -0.86625,-0.28675 -1.28125,-0.46875 -1.028,-0.448 -1.34625,-1.23875 -1.28125,-2.34375 0.071,-1.178 0.819,-1.83075 1.625,-2.59375 0.643,-0.609 1.45575,-1.16575 1.84375,-1.96875 0.468,-0.97 0.95975,-1.926 1.46875,-2.875 0.946,-1.762 2.03725,-2.676 3.78125,-3.625 1.741,-0.947 3.30575,-1.84675 5.21875,-2.34375 0.945,-0.245 1.8505,-0.61325 2.8125,-0.78125 0.743,-0.129 1.21225,-0.54225 1.90625,-0.78125 0.879,-0.303 1.86825,-0.1845 2.78125,-0.1875 0.937,-0.002 1.8705,-0.18325 2.8125,-0.0312 0.999,0.162 2.04425,0.378 3.03125,0 0.94,-0.36 1.89475,-1.293 2.71875,-1.875 1.652,-1.169 3.40625,-2.15625 4.90625,-3.53125 0.714,-0.656 0.66875,-1.54775 0.84375,-2.46875 0.205,-1.075 0.646,-2.02175 0.75,-3.09375 0.085,-0.879 -0.11575,-2.1425 -0.46875,-2.9375 -0.403,-0.912 -0.035,-1.95925 0.125,-2.90625 0.165,-0.974 0.2525,-1.8595 0.8125,-2.6875 0.545,-0.806 0.99375,-1.70825 1.21875,-2.65625 0.442,-1.865 0.5375,-3.16175 -0.1875,-4.96875 -0.652,-1.627 -0.0415,-3.54975 1.1875,-4.71875 0.768,-0.729 1.44025,-1.5345 2.15625,-2.3125 0.351,-0.382 0.8635,-0.56375 1.1875,-0.96875 0.272,-0.341 0.465,-0.81275 0.625,-1.21875 0.374,-0.945 0.6065,-1.87375 1.1875,-2.71875 0.483,-0.703 1.2085,-0.9025 1.8125,-1.4375 0.60734,-0.53893 0.92775,-1.25988 1.25,-1.96875 l -600.531249,0 z"
     id="rect14"
     inkscape:connector-curvature="0" />
</svg>
