<?xml version="1.0" encoding="UTF-8" standalone="no"?>
<svg
   xmlns:dc="http://purl.org/dc/elements/1.1/"
   xmlns:cc="http://creativecommons.org/ns#"
   xmlns:rdf="http://www.w3.org/1999/02/22-rdf-syntax-ns#"
   xmlns:svg="http://www.w3.org/2000/svg"
   xmlns="http://www.w3.org/2000/svg"
   xmlns:sodipodi="http://sodipodi.sourceforge.net/DTD/sodipodi-0.dtd"
   xmlns:inkscape="http://www.inkscape.org/namespaces/inkscape"
   width="830.375"
   height="446.25"
   viewBox="0 0 830.375 446.25"
   id="svg2"
   version="1.1"
   inkscape:version="0.48.1 "
   sodipodi:docname="AJAX.svg">
  <metadata
     id="metadata20">
    <rdf:RDF>
      <cc:Work
         rdf:about="">
        <dc:format>image/svg+xml</dc:format>
        <dc:type
           rdf:resource="http://purl.org/dc/dcmitype/StillImage" />
      </cc:Work>
    </rdf:RDF>
  </metadata>
  <defs
     id="defs18" />
  <sodipodi:namedview
     pagecolor="#ffffff"
     bordercolor="#666666"
     borderopacity="1"
     objecttolerance="10"
     gridtolerance="10"
     guidetolerance="10"
     inkscape:pageopacity="0"
     inkscape:pageshadow="2"
     inkscape:window-width="1280"
     inkscape:window-height="1004"
     id="namedview16"
     showgrid="false"
     fit-margin-top="0"
     fit-margin-left="0"
     fit-margin-right="0"
     fit-margin-bottom="0"
     inkscape:zoom="0.55073647"
     inkscape:cx="713.14022"
     inkscape:cy="130.28297"
     inkscape:window-x="-8"
     inkscape:window-y="-8"
     inkscape:window-maximized="1"
     inkscape:current-layer="svg2" />
  <path
     style="fill:#9FAEC0"
 	 stroke="#9FAEC0"
 	 stroke-width="10"
     d="m 26.5625,0 -4.34375,69 759.21875,0 9.375,-8.15625 0,-19.0625 L 782,35.9375 l -14.625,-1.5 -19.78125,-17.59375 -38.875,0 L 425.875,13.9375 166.53125,5.15625 26.5625,0 z"
     id="rect4"
     inkscape:connector-curvature="0" />
  <path
     style="fill:#9FAEC0"
 	 stroke="#9FAEC0"
 	 stroke-width="10"
     d="m 22.21875,69 -4.75,75.46875 804.8125,0 -0.71875,-6 L 805.46875,126.75 789.3125,107.6875 776.09375,85.71875 779.0625,71.0625 781.4375,69 22.21875,69 z"
     id="rect6"
     inkscape:connector-curvature="0" />
  <path
     style="fill:#9FAEC0"
 	 stroke="#9FAEC0"
 	 stroke-width="10"
     d="m 17.46875,144.46875 -4.75,75.46875 817.53125,0 0.125,-6.71875 -8.09375,-68.75 -804.8125,0 z"
     id="rect8"
     inkscape:connector-curvature="0" />
  <path
      style="fill:#9FAEC0"
 	 stroke="#9FAEC0"
 	 stroke-width="10"
     d="m 12.71875,219.9375 -4.75,75.46875 820.84375,0 1.4375,-75.46875 -817.53125,0 z"
     id="rect10"
     inkscape:connector-curvature="0" />
  <path
      style="fill:#9FAEC0"
 	 stroke="#9FAEC0"
 	 stroke-width="10"
     d="m 7.96875,295.40625 -4.75,75.4375 824.15625,0 1.4375,-75.4375 -820.84375,0 z"
     id="rect12"
     inkscape:connector-curvature="0" />
  <path
     style="fill:#9FAEC0"
 	 stroke="#9FAEC0"
 	 stroke-width="10"
     d="M 3.21875,370.84375 0,422.09375 l 154.78125,8.03125 288.6875,13.15625 297.5,2.96875 85.03125,-4.34375 1.375,-71.0625 -824.15625,0 z"
     id="rect14"
     inkscape:connector-curvature="0" />
</svg>
