<?xml version="1.0" encoding="UTF-8" standalone="no"?>
<svg
   xmlns:dc="http://purl.org/dc/elements/1.1/"
   xmlns:cc="http://creativecommons.org/ns#"
   xmlns:rdf="http://www.w3.org/1999/02/22-rdf-syntax-ns#"
   xmlns:svg="http://www.w3.org/2000/svg"
   xmlns="http://www.w3.org/2000/svg"
   xmlns:sodipodi="http://sodipodi.sourceforge.net/DTD/sodipodi-0.dtd"
   xmlns:inkscape="http://www.inkscape.org/namespaces/inkscape"
   width="6769.5"
   height="2915.6875"
   viewBox="0 0 6769.5 2915.6875"
   id="svg2"
   version="1.1"
   inkscape:version="0.48.1 "
   sodipodi:docname="Aa.svg">
  <metadata
     id="metadata20">
    <rdf:RDF>
      <cc:Work
         rdf:about="">
        <dc:format>image/svg+xml</dc:format>
        <dc:type
           rdf:resource="http://purl.org/dc/dcmitype/StillImage" />
      </cc:Work>
    </rdf:RDF>
  </metadata>
  <defs
     id="defs18" />
  <sodipodi:namedview
     pagecolor="#ffffff"
     bordercolor="#666666"
     borderopacity="1"
     objecttolerance="10"
     gridtolerance="10"
     guidetolerance="10"
     inkscape:pageopacity="0"
     inkscape:pageshadow="2"
     inkscape:window-width="1280"
     inkscape:window-height="1004"
     id="namedview16"
     showgrid="false"
     fit-margin-top="0"
     fit-margin-left="0"
     fit-margin-right="0"
     fit-margin-bottom="0"
     inkscape:zoom="0.068842059"
     inkscape:cx="3376.87"
     inkscape:cy="1931.1914"
     inkscape:window-x="-8"
     inkscape:window-y="-8"
     inkscape:window-maximized="1"
     inkscape:current-layer="svg2" />
  <path
	 style="fill:#9FAEC0"
	 stroke="#9FAEC0"
	 stroke-width="10"
	 transform="translate(0, 125)"
     d="m 4296.6875,0 -4.5,1.1875 -1.2813,0.5 -6.5,4.9062 -6.3125,9.5 -4.4062,6.7188 -3.5938,5.375 -3.9062,3.5 -2.375,2 -0.9063,0.625 -15.7187,7.375 -13.7813,3.625 L 4233,45.5 l -0.8125,0.5937 -11.7813,8.8126 -19.5,19.6874 -9.0937,5.9063 -18.125,11.6875 -1.5938,1.9062 -1.1875,1.8126 -0.5,1.5 -0.5937,5.4062 -0.125,1.6875 4.5,8.9063 4.8125,5.9062 5.8125,7.1875 0.5937,0.8125 15.5,19.1875 4.7813,8.0937 5.625,9.5938 7.1875,12.4062 0.8125,1.8126 0.5,1.1874 3.1875,13.2188 0.5,8.5 -0.3125,2.2812 -2.0938,4 -4.6875,5.3126 -14.5,16.0937 -0.5,0.5 -4.2187,4.5937 -7.1875,8 -2.5938,3.4063 -0.8125,1.3125 -2.2812,6.7812 -0.125,1 0.9062,4.5 2.5938,5.0938 7.625,7.5 4.0937,1.625 4.0938,0.5 29.9062,1.5 20,7.7812 1.7813,0.8126 4.125,3 1.5937,3.2812 0.2813,0.8125 1.4062,3.4063 -0.5,17.0937 -3.9062,8.6875 -0.2813,0.4062 -11.3125,8.0938 -7.5,5.5 -9,12.2188 -1.6875,2.6874 -1.8125,4.5938 -0.2812,0.9062 0.094,0.9063 1.7813,7 13,23 0.5,10 -2.0938,5 -4.7812,2.8125 -1.3125,0.5938 -1.0938,0.1874 -4.5937,0 -2,-0.1874 -2.625,-0.5938 -8.5938,-2.625 -1.2812,-0.375 -10.625,-3.2188 -7.0938,-1 -15,-2 -11.5937,1.8126 -1.0938,0.4062 -4.0937,2 -4.4063,1.7812 -8.5,4.0938 -14.3125,6.8125 -1.6875,0.5937 -2.2187,0.4063 -10.5,1.3125 -13.7813,-1.9062 -8.3125,-1.2188 -14.4062,1.625 -12.2813,6.5938 -3.3125,2.0937 -7.5937,6 -4.0938,2.5 -0.3125,-0.5937 -23.5937,16.0937 -1.5,0.8125 -2.3125,1.2812 -5.2813,2.3126 -8.5,3.7812 -0.9062,0.4062 -22.5,15.5938 -1.1875,1.125 -13,11.7812 -4.4375,4.0626 1157.875,0 L 5128.1875,482 5116,478.4063 l -13,-3.8126 -12,-8.4062 -3.8125,-4.875 -0.7813,-2.7188 -3.4062,-13.2812 -0.9063,-3.5 -1.2812,-5 -0.3125,-0.625 -7.5938,-11.875 -0.8125,-0.8125 -1.9062,-1.3125 -7.5938,-3.875 -1.4062,-0.5 -5.6875,-1.2188 -1.3125,-0.2812 -16.2813,-3.2188 -6.8125,-1.2812 -17.5,-5.5 -12.7812,-9 -3,-2.125 -14.9063,-4.5 -7.5937,1.125 -0.7188,0.094 -8.0937,1.2812 -13.3125,4.5 -21.375,3.625 -23.7188,6.5 -2.1875,0.375 -3.5937,0.2188 -21.5,0 -36.9063,-12.3126 -29.3125,-9.7812 -20,-2.9062 -3.1875,-0.9063 -21.5937,-5.5937 -1.125,-0.5938 -11,-7 -5.1875,-5.5 -1.0938,-1.4062 -3.5,-8.2188 -1,-4 -0.5,-2.375 -2.5937,-11.2188 0.5,-34.9062 0,-3.2812 0,-6.0938 -5.2188,-17.125 -2.2812,-3.6875 -11.125,-18 -8,-11.4063 -25.2813,-36.1874 -5.0937,-13.5938 -1.125,-12.625 -0.7813,-3.5 -3.9062,-16.5938 -0.6875,-1.5937 -8,-15.5937 -5.9063,-7.9063 -7.9062,-6.8125 -7.6875,-4.875 -14.9063,-6.9062 -20.9062,-4.9063 -2.8125,-0.4063 -13.875,-0.5937 -8.7188,-0.6875 -15.2812,-8 -5.625,-9.8125 -0.7813,-1.5937 -1.8125,-6.5 0,-18.0938 -0.2812,-7.125 0,-1.6875 -2.3125,-11 -3.0938,-6.5 -11.5,-10.5 -1.5,-0.9063 -6,-1.5937 -0.5,-0.094 -3.3125,0.6874 -3.0937,0.9063 -3.1875,2.0937 -3.2188,2.3126 -8,10.1874 -7,8.9063 -0.7812,0.9063 -1.625,1.1874 -6.0938,4.0938 -11.5937,2.9062 -1,-0.1874 -11.5,-3.8126 -10.3125,-3.5 -7.1875,3.5938 -1.8125,2.125 -7.375,9 -5.625,2.6875 -7.7813,3.8125 -13.5937,5.1875 -3.8125,1.5 -14,1.4063 -6.8125,-1.0938 -12.5,-7 -5.1875,-4.7188 -9.6875,-8.9062 -4.5,-2.2812 -5.2188,-1.8126 -3.5937,-0.9062 -6.1875,-1.2812 -2.625,-1.2188 -3.5938,-2.0938 -2.6875,-2 -4.5937,-5.6874 -1.3125,-1.5938 -8.5938,-11.8125 -7.5,-10.4063 -4.8125,-5.2812 -4.7812,-4.9062 -4.9063,-3.4063 -3.7187,-2.0937 -4.5,-2.2188 -4.7813,-1.0938 -0.7187,-0.094 z m 1613.5,405.9063 -27.5,8.5 -13.375,6.4062 -1.7188,1 -2.7812,2.0938 -13.7188,10.5937 -3.5,2.5937 -1.6874,0.8126 -7.3126,2.7812 -15,-2.0938 -15.7812,-2.1874 -1.3125,-0.094 -13.5937,7 -5.5,5.375 -9.5938,20.8125 -0.7188,1 -7.7812,8 -14.0625,7.1563 174.7813,0 -1.4376,-2.3438 -1,-2 -2.2812,-5.5 0.094,-1.5 1.9062,-19.7188 1.6875,-8.0937 0.3125,-1.1875 2.5938,-12.3125 -0.5938,-6.1875 -4.4062,-10.4062 -1,-1.5 -2.5,-2.5938 -2.5938,-2.4062 -2.3125,-1.8126 -2.5937,-0.9062 -5.7188,-1.2812 z m -2090.5937,48.4062 -18.5938,2.5 -0.4062,0.094 -10.7813,3.5 -2.5,0.5 -21.625,4.5 -16.375,-1 -1.3125,-0.3126 -12.3125,-2.9062 -8,-1.7812 -10.0937,0.5 -0.5938,0 -14.9062,7.5937 -3.7813,3.5937 -1.3125,1.5 -6.8437,13.0626 187.3125,0 -6.2813,-9.75 -5.0937,-7.5 -4.5,-5.0938 -0.5938,-0.3125 -10.1875,-5.6875 -16.5,-2.625 -3,-0.1875 -11.7187,-0.1875 z m 1545.0937,23.0938 -14.375,1.7812 -13.4063,4.8125 -4.6562,1.6563 55.5937,0 -0.6562,-0.4688 -5.0938,-3.5 -14.4062,-4.0938 -1.1875,-0.1874 -1.8125,0 z"
     id="rect4"
     inkscape:connector-curvature="0" />
  <path
	 style="fill:#9FAEC0"
	 stroke="#9FAEC0"
	 stroke-width="10"
	 transform="translate(0, 100)"
     d="m 3690.1563,485.6563 -4.9688,9.4374 -0.5,1.0938 -1.0937,7 0.7187,9 0.6875,4.3125 2.3125,4.9063 0.2813,0.5937 7.0937,13 0.4063,0.6875 4.4062,12.3125 -0.094,11.59375 -0.2187,27 -0.094,11.21875 2.5937,16.09375 5.2188,10.90625 0.5937,1.09375 1.5,3.09375 3.0938,6.5 4.5,9.59375 1.9062,7.59375 0.5,9 -0.3125,3 -1.5937,10.90625 -5.5938,11.21875 -8.1875,8.09375 -5.5,3.90625 -2.3125,1.375 -1.5,0.90625 -5.9062,2.8125 -14,6.28125 -1.2813,0.90625 -0.9062,0.90625 -4.5,7 -1.5938,3.5 -11.3125,24.90625 -0.5,0.6875 -1.1875,1.5 -8,8.21875 -4.125,3.1875 -0.5,0.3125 -23.5937,8.28125 -1,0.21875 -30.7813,3.09375 -4.8125,1.1875 -5.8125,1.5 -1,0.3125 -14,7.59375 -10.1875,11.09375 -8.3125,13 -11.6875,31.8125 -3.4063,15.1875 -0.1874,0.90625 -0.3126,5.59375 -1.1874,22.59375 -10,25.8125 -1.5938,3.3125 -1.7188,2.78125 -17.5,23.90625 -15.5,14.3125 -0.5937,0.375 -5.1875,3 -24.5,14 -3.625,1.90625 2731.75,0 0.062,-1.09375 4.0937,-7 13.4063,-1.09375 1,-0.5 4.0937,-2 0.5,-0.59375 2.8126,-3.125 0.9062,-1.1875 3.5,-9.6875 0,-14.125 -3.7188,-12.375 -1.2812,-4.90625 -0.3125,-1.21875 -0.8125,-9.375 4.5,-14.8125 1.5,-5.59375 -1.0938,-8.3125 -3,-7.6875 -2.6874,-2.8125 -3.8126,-3.90625 -6.5937,-6.59375 -3.8125,-3.90625 -1.5938,-7 1.5938,-18.09375 1,-11.59375 -3,-10 -1.5,-5.90625 1.7188,-3.5 0.5937,-1.40625 0.6875,-2.375 0.2188,-1.3125 -1.8126,-9.1875 0.5,-5.625 0.2188,-1.5 0.094,-3 -0.9063,-2.6875 -5.0937,-12.40625 -3.7188,-20.09375 -2,-10.6875 -6.5,-12.71875 -4.7812,-3.78125 -5.7188,-2.8125 -8.375,-3.8125 -8.8125,-4.1875 -8.4063,-5.6875 -5.4062,-6.90625 -1.1875,-1.5 -5.6875,-7.21875 -8.2188,-8.5 -8.4062,-16 -1.375,-2.59375 -7.625,-10.78125 -2,-2.21875 -6.7812,-4.28125 -7.3126,-4.3125 -6.2812,-4.90625 -1.2188,-0.78125 -3.6874,-2.40625 -13.8126,-0.90625 -5.1874,0.1875 -17.8126,0.8125 -12.2812,0.40625 -7.8125,-1.8125 -2.9063,-1 -19.2812,-9.59375 -0.7188,0.3125 -6.7812,-3.8125 -6.8125,-5.40625 -6.3125,-4.78125 -8.5,-10.5 -0.2812,-0.625 -7.5,-19.59375 -0.2188,-0.90625 -0.5,-3 -0.7812,-5 -0.8126,-10.59375 -0.9062,-10.5 -0.2812,-9.59375 -0.8126,-9 -1.1874,-5.5 -1.4063,-5.5 -8.8125,-14.3125 -2.1562,-3.5312 -174.7813,0 -5.9375,3.0312 -1.125,0.5 -13.6875,7 -2.0937,1 -8.7188,6.7188 -0.5938,0.6874 -8.0937,15.3126 -2.5,7.18745 -5.5937,16.21875 -1,1.59375 -5.2188,7.1875 -8.875,7.09375 -2.3125,1.3125 -1.5937,0.5 -11.2188,1.90625 -25.0938,4.1875 -1.1874,0.0937 -1,0 -4.5938,-0.375 -5.9062,-1.125 -7.4063,-3.78125 -12.9063,-6.59375 -0.5,0 -5.2812,-0.8125 -6.125,0.1875 -8.0938,5.3125 -7.5,4.8125 -2.5,3.09375 -4.9062,5.6875 -3.1875,3.8125 -8,9.1875 -7.6875,4 -9.9062,-2.90625 -6.3126,-4.5 -4.4062,-5.59375 -1.875,-7.90625 -4.2188,-16.78125 -4.1875,-8.5 -0.8125,-0.59375 -26.2812,-17 -8.3125,-3.99995 -8.4063,-2.125 -9.4062,-2.1875 -7,-1.0937 -39.875,-4.9063 -0.625,0 -13.6875,-1.6875 -2.5,-1.3125 -4.0938,-2.1875 -10.3125,-11.125 -14.75,-10.5312 -55.5937,0 -18.1563,6.4374 -0.7812,0.2188 -13.4063,3.5 -12.2187,3.0938 -8.6875,4 -5.0938,5.5937 -2.9062,5.1875 -1.8125,3.625 -2.1875,8.18745 -0.6875,10 -0.3125,4 -0.5,5.59375 -1,2.5 -2.3125,5.71875 -0.5938,0.5 -5,5.875 -7.2812,4.71875 -6.7188,0.59375 -2.4062,-0.40625 -23.7813,-7.6875 -9.0937,-5.40625 -11.4063,-6.6875 -12.4062,-1.625 -19.5,-2.6875 -4.4063,-1 -6.7812,-3.8125 -0.8125,-1.09375 -5.4063,-8.28125 -0.7812,-1.49995 -2.4063,-8.9062 -3.8125,-15.4063 -0.7812,-2.5937 -0.7188,-1.9063 -4.7812,-9.9063 -0.5625,-0.4374 -1157.875,0 -7.7813,7.1562 -2.9062,2.5938 -11.7813,8.0937 -6.2187,2.9063 -6.6875,3 -2.6875,0.7812 -6.5,1.625 -2.625,0.5 -2.5938,0.094 -15.7812,-0.9063 -5.7188,-1.5 0,-1.1875 -10.0937,-4.8125 -0.9063,-0.9063 -14.5937,-16.5937 -0.5313,-0.8437 -187.3125,0 z M 3397.5,956 l -5.1875,0.40625 -3.125,1 -0.5,0.5 -5.5938,1.5 -5.6874,0.90625 -5.0938,1.5 -4.5,1.375 -4.3125,2 -5.8125,6.625 -0.5625,1.28125 61.625,0 -4.5625,-4.90625 -3.5,-5.59375 -5.0938,-4 -3.5,-1.59375 -4.5937,-1 z"
     id="rect6"
     inkscape:connector-curvature="0" />
  <path
	 style="fill:#9FAEC0"
	 stroke="#9FAEC0"
	 stroke-width="10"
	 transform="translate(0, 75)"
     d="m 3357.125,973.09375 -3.4375,7.71875 -2.875,15.59375 -2.7188,14.90625 -5.6874,13.2813 -5.5938,7.0937 -8.8125,8 -18,16.2188 -0.4063,0.5 -7.1874,10.7812 -6.0938,9.3125 -0.625,1.4063 -0.7812,1.7812 -4.3126,10.4063 -1.5,27.4062 2.4063,31.0938 0.6875,9.4062 -0.5,15.3125 -3.0938,11.1875 -3.2812,11.9063 -2.2188,8.5 -0.9062,4.5937 -0.7812,4.6875 -4.5,26.3125 -2.5938,7 -14,17 -1.4062,1.5 -3.9063,1.5 -3.6875,1.1875 -7.2188,2.5 -8.0937,1.5 -1.3125,0.2188 -25.7812,4.5937 -1.3126,0.1875 -14.2812,2.625 -13.4062,5 -4.0938,5.375 -0.8125,1.2188 -0.1875,0.7812 0,12.5 0.094,7.625 -1.5938,3.6875 -2.625,3 -5.6875,2 -9.1875,-7.0937 -6.125,-8.4063 -14.875,-29.1875 -10.3125,-10.125 -0.4063,-0.1875 -15.5,-6.8125 -11,-1.5937 -2.7812,-0.1875 -4.5,0.4062 -14.2188,1.875 -8,2 -5.0937,1.4063 -4.6875,1 -1.7188,-0.1875 -7,-1.5938 -24,-11.125 -1,-0.6875 -24.6874,-19.4062 -17.3126,-10.5938 -3.2812,-2.5 -1.5,-1.1875 -10.8125,-12.3125 -0.4063,-0.6875 -3,-7.125 -0.7812,-3.2812 -3.125,-18.0938 0.2188,-10.8125 2.0937,-11.8125 5.5,-27.6875 -2.5,-10.0937 -4.0937,-7.3125 -1.5938,-1.9063 -8.625,-9.7812 -3.5,-3.5 -3.6875,-2.2188 -6.3125,-3.375 -12.2812,-6.625 -8.3126,-6.5937 -1.5,-1.5938 -5.5937,-6 -8.8125,-9.3125 -0.375,-0.2812 -7.8125,-2.9063 -7.1875,2.4063 -0.7188,0.5 -4.2812,5.9062 -0.5,1.2813 -1.625,5.7187 1,10.375 2.125,4.5 6.875,6.3125 0.5,0.3125 10.3125,2.2813 1.5,0.3125 12.5937,2.9062 8.0938,4.1875 1.8125,1.1875 3.4063,9.2188 -3.0938,9 -4.125,5.0937 -9.6875,5 -26.6875,0 -6.2188,1.5 -8.4062,6.5 -0.5,0.4063 -0.5938,0.9062 -3.5,8.1875 -2.0937,4 -2.4063,3.0938 -2.2812,1.9062 -0.8125,-0.094 -5.5,-1.0937 -4.6875,-3.2188 -5.3125,-4.9062 -0.4063,-0.2813 -10.2812,-9.4062 -6.125,-3.4063 -11.5,-0.5 -1.375,0.3125 -1.8125,1.1875 -7.5,7.8125 -1,3.1875 -1.0937,4.7188 1.5,5.0937 1.1874,1.6875 6,6.3125 0.9063,0.5938 4.5937,1.5937 5.0938,2 4.5,4.5938 1.625,2 0.6875,1.125 2.5937,7.0937 0.2188,0.9063 0,2.2812 -0.625,5.5938 -0.5,2.7187 -1.375,2.9063 -4.9062,8.0937 -11.9063,12.1875 -12.3125,4 -17.5,0.9063 -2.5,0.094 -8.2812,-0.2813 -3.9063,0.2813 -6.4063,2 -1.5,0.8125 -1.7812,1.1875 -3.2188,3.5937 -3.5937,9.625 -0.3125,3.5 -0.6875,7.2813 -0.5,5.3125 -1.4063,15.4062 -0.1874,1.6875 0.094,2.9063 0,24.6875 4.0937,14.0937 7.5938,15.3125 0.3125,0.5938 2.5937,5.5 0.8126,3.0937 0.5,2.7188 -2,9 -7.2188,7.5937 -10.7812,4.5 -17.4063,-0.5 -3.0937,-0.3125 -26.2188,-3.1875 -10.1875,4.5 -3.8125,4.5 -0.875,2.6875 -1.5,6.9063 0.7812,15 0.7188,15.2187 0.094,1 -2.0938,10.5938 -1.3125,2.7812 -1.5,2.625 -1.1875,1.5 -10.9062,9.875 -0.8126,0.625 -15,8.2813 -8.1874,3 -10.9063,-1.5938 -4.6875,-3.4062 -0.7188,-0.6875 -3.0937,-5.0938 -0.9063,-6.5 0.9063,-3.4062 8.0937,-26 5.5938,-17.7188 -0.5,-8.5937 -1.1875,-1.5938 -1.1875,-1.5 -11,-5.4062 -9.7188,0 -2.9062,0.8125 -2.375,0.9062 -4.7188,2.875 -23.1874,16.4063 -3.5938,0.9062 -5.125,1 -3.0938,-0.3125 -1.6874,-0.375 -11.9063,-11.8125 -1.0937,-1.1875 -10.0938,-12.2187 -9.3125,-19.5938 -4.9063,-10.6875 -3.1874,-8.125 -4.7188,-12.6875 -10.7812,-29.4062 -9.7188,-7.5 -11.375,-5.0938 -4.2188,0.9063 -5.0937,2 -5.1875,3 -6.7188,2.9062 -4.4062,1.5938 -9.1875,4.1875 -19.5,18.7187 -8.5,10.1875 -8.9063,10.9063 -10,8.4062 -0.5937,0.1875 -20.1875,6 -7.5,0.3125 -10.2188,0.5 -5.6874,0.375 -3.9063,0.7188 -10.5937,2.5937 -6.0938,1.5 -8.8125,4.4063 -9.1875,5 -9.3125,4.4062 -8.4063,5.6875 -7.1874,6.6875 -5.5938,5.5 -1.5,2.2188 -1.9062,3.4062 -1.5,5 1.4062,9.6875 1.0938,7.9063 -0.9063,7.0937 -2.3125,9.0938 -8.5,34.0937 -1.6875,4 -0.1563,0.3438 4145.0313,0 -3.375,-3.4375 -4,-1.6875 -5,-2.4063 -3.9063,-4.8125 -5.2812,-1.1875 -4.8125,-7.5 -3.5,-5.3125 -0.3125,-0.5 -1.2812,-1.5 -3.2188,0.9063 -7.1875,7.0937 -3,-0.7812 -0.5,-0.3125 -1.0937,-2.2813 1.7812,-17 -4.5,-6.625 -5.5938,-8.375 -0.5,-0.8125 -4,-2.6875 -1.2812,-1.2187 -1.3125,-1.4063 0.4063,-2 0.2812,-2 0.7188,-4.7812 -1.5938,-1.7188 -4.5,-4.7812 7.875,-4.5938 3.9062,-2.8125 -2.6874,-1.5937 -4,-2.5 -0.9063,-0.9063 -0.6875,-3.5 -0.125,-2.5 -0.1875,-3 -0.6875,-2.5 -0.8125,-1.5 -0.3125,-0.5 -2.2812,-2 -5.4063,-3.6875 -1.5937,-1 -0.4063,-0.8125 -1.0937,-0.9062 -2.3126,-3.9063 -1.1874,-1.875 -0.3126,-0.5 -0.6874,-1.2187 -12.8126,-8.5 -2.1874,-1 -2.5938,-0.4063 -2.125,-0.2812 -1.5,-0.5 -1.6875,-1.9063 -1.1875,-1.9062 -3.5,1 -0.4062,2.2187 -0.3126,2.0938 -0.6874,4.0937 -0.5,1.5 -0.7188,1 -0.5,0.094 -1.875,-0.4062 -0.3125,-1 -0.1875,-1.7813 -0.7188,-7.9062 -3.5937,-2.9063 -2.6875,0 -2.625,-0.5 -1,-0.1875 -1.5,-1.4062 5.7188,-5.0938 -0.5,-4.4062 -0.3126,-0.5 -2.6874,-0.3125 -7.8126,-0.7813 -1.9062,-0.8125 -5.2812,-2.5937 0.1874,-4.0938 0.9063,-0.5937 4.5937,-0.5 3.5,-0.4063 1,-1.5937 -1.0937,-3 -0.5,-0.2188 -3.6875,-2.0937 -0.125,-0.6875 0.125,-1 4.2812,-1.625 5.7188,-2.2813 3.2812,-3.3125 6.8126,-6.5937 0.5,-1.0938 -2.4063,-4.2187 -7.1875,-3.875 -1,-5.625 3.0938,-4 2.2812,-0.875 8.9062,-3.2188 0.8126,-0.5937 1.2812,-1.3125 0.125,-1 0.1875,-1.6875 -0.094,-1.9063 -0.4063,-0.5 -4.3125,-3.1875 -1.1875,-0.5 -2.0937,-0.2187 -3.4063,0.3125 -6.3125,0.5937 -1.6875,-2.9062 -0.094,-1 -0.094,-2 -0.4062,-3.375 -3.9063,-3.3125 -6.5937,-0.4063 -1.9063,-0.7812 -0.5937,-0.3125 -7.3126,-3 -0.9062,0.094 -7.2812,0.9062 -1,-1.5 1.7812,-3.5 0.4062,-1.4062 -0.2812,-1 -1.125,-1.4063 -5.5,-7.1875 -0.5938,-4.5937 -1.0937,-5.8125 -4.1875,-4.9063 -3.7188,-4.1875 -0.5937,-0.6875 -1.5937,-7.9062 -1,-4.7188 -0.5,-0.875 -4.0938,-6.625 -0.125,-1.2812 -0.375,-4.2188 -4.8125,-7.2812 -0.4063,-1 -0.7812,-2.5 -0.625,-4.5 -1.6875,-0.8125 -5.3125,-1.7813 -0.875,-0.5 -5,-6.8125 -0.625,-0.8125 -0.375,-0.6875 -7.7188,-2 -1.2812,-1 -5,-4 -2.2188,-2 -1.7812,-3.9062 -0.3125,-6.0938 -0.1875,-4.0937 -0.2188,-0.7188 -0.9062,-2.7812 -0.7812,-1.3125 -2.5938,-3.1875 -8.3125,-8.5938 -1,-0.2187 -8.5,-2 -5.4063,-1.2813 -3,-6.625 -3.1874,-6.875 -4.9063,-2 -6.3125,-2.4062 -1.5,-1 -0.094,-0.5938 0,-14.125 -1.5937,-4 -2.5,-6.5937 1,-6.5 4.8125,-2 13.5938,-0.094 1.0937,0 5.5937,-3 3,-4.5938 0.3126,-0.8125 1.1874,-5.5937 2.0938,-7.6875 2.7188,-11.4063 2.2812,-9.7187 0.2188,-1 0,-8.0938 -2.5938,-4 -5.2188,-4.1875 -2.5,-2.09375 -1.5,-1.5 -1.1874,-3.90625 -0.2188,-3 0.25,-3.3125 -2731.75,0 -0.7812,0.40625 -1.5938,0.90625 -7.5,3.1875 -1.7188,0.3125 -1.4062,0 -9.875,-2.59375 -2.0625,-2.21875 -61.625,0 z m -1297.4375,404.09375 -18.8438,83.3438 151.4688,0 -0.5,-1.125 -14.125,-15.7188 -6.5938,-2.2812 -2,-0.5 -4.1874,-0.7188 -18.3126,-2.1875 -17.9062,-6.3125 -1.5938,-0.7812 -6.0937,-3.5938 -1.8125,-1.2187 -6.2812,-4.4063 -5,-4.1875 -7.8126,-6.6875 -7.5937,-6.9062 -3,-2.5938 -7.1875,-6.625 -10.125,-8.5937 -10.1875,-7.6875 -2.3125,-1.2188 z"
     id="rect8"
     inkscape:connector-curvature="0" />
  <path
	 style="fill:#9FAEC0"
	 stroke="#9FAEC0"
	 stroke-width="10"
	 transform="translate(0, 50)"
     d="m 2040.8437,1460.5313 -0.5312,2.2812 12.7812,5.0938 4.0938,3 0.5,2 -4.5938,6.5 -1,7.0937 2,3 6.7188,1 0,7.5 2.0938,3.5938 19.5,0.5 2.5,2 0,1.5 -12.8126,13.5937 -4.0937,9 -15.4063,12.125 -17.4062,10.0938 -9.6875,1.5 -11.3125,0 -17.5,0.5 -11.7812,6 -9.7188,10.0937 0.5,13.0938 -2.5,11.5937 -10.7812,19.125 -3.5938,9 -5.125,4.5938 -21,-0.5 -22.5938,4 -8.1874,5 L 1884.5,1650 l -210.8125,6.0938 -77.375,78 -4.125,4 -74.875,66.4062 -23.5,23.1875 -3.125,-0.5 -6.6875,2.5 -5.0937,-2 -4.5938,0 -8.2188,9.5 -6.1874,0.5 -4.0938,-0.5 -6.125,-4 1,-3 5.625,-0.5 8.6875,-10.0937 -6.6875,-16.0938 -2.5,0 -5.125,8.0938 -5.1875,-3.0938 -2.5,-7 -4.6875,-5.5 -2.5,-9.0937 0.5,-11.5938 0.5,-20.125 -2.625,-3 -12.7812,-0.5 -3.0938,2.5 -2.625,6.5 2.625,5.625 0.5,4.5 -8.7188,9.5938 -1.5,5 -2.5937,2.5 -4.0937,0.5 -2.5938,-4.5 -4.125,-1.5 -5.0938,11 -4.0937,1 -10.1875,1 -2.625,11.5937 -3.0938,7.0938 -3.5937,5.5 -7.0937,7 -15.4063,4.5937 -19.1875,0 -4.125,0.125 -3.7812,0.375 -2.9063,0.4063 -7.3125,1.0937 -3.7812,0.5 -1.5,0.3125 -7.8126,1.8125 -2.9062,0.5938 -22.2812,5 -5.2188,1.0937 -3.5938,0.4063 -8.0937,0.5937 -29.4063,0.8125 -1.2812,0 -16.2188,0.375 -29.9062,7.125 -2.7812,1.0938 -6.3126,2.6875 -3,1.5937 -14,9.2188 -11,10.2812 -5.4062,6.625 -9.1875,11.2813 -8.6875,3.5 -2.8125,0.5 -3.0937,-0.4063 -4.5938,-0.7812 -1.4062,-1.0938 -6.0938,-4.8125 -5.3125,-4.4062 -10.0937,-8.5938 -5.8126,-2.5 -1.6874,-0.5 -4.5938,0.3125 -2.625,0.875 -2.0938,0.4063 -3.5937,1.4062 -6.3125,2.8125 -14.375,5.0938 -12,9.7812 -2.3125,1.8125 -8.1875,10.0938 -5.125,9.0937 -1.6875,15 -1.4063,11.7188 -1.0937,3.6875 -0.125,0.375 5527.3437,0 124.375,-117.0625 L 6767,1729.5 l 2,-4.0937 0.5,-1.5 0,-2.0938 -0.5937,-1.9062 -0.5,-0.5938 -1.3126,-1.125 -1.6874,-0.375 -2.5938,-0.125 L 6762,1718 l -2.8125,0.8125 -4.0938,3.0938 -1.5,0.4062 -2.5,0.5938 -1.5,0.6875 -0.5,0.3125 -2,2.1875 -0.9062,0.7187 -2.6875,-1.4062 -1.6875,-0.9063 -3.625,0.4063 -2.6875,3.9062 -1.5937,2.5 -0.8126,0.7813 -1.2812,0.7187 -3.125,1 -0.5938,0.094 -0.5,-0.5 -1.6874,-1.4062 -0.5938,-2 -2,-1.5 -3.625,0 -1.2812,0.5937 -2.8126,1.4063 -5.6874,-1.0938 -1.7188,-2.4062 -1.7812,-2.5938 -1,-2.5 -2.0938,-1.5 -2.625,0 -1.0938,1.5938 0.094,1.5 0.625,2.5 1.5,6 0.1875,2.9062 0.094,2.5 -0.1874,0.5938 -0.5938,0.5937 -1.625,0.5 -2,-1 -1.2812,-0.7812 -1.2188,-1.8125 -1.0938,-2 -2.0937,-1.5 -4.5937,0.094 -3.2188,-1.0938 -1.5,-0.5 -0.375,-1 -0.5,-1.1875 -0.4062,-1.2187 0,-1.5938 -0.7188,-2.5 -3.375,-4.1875 -1.625,-2 -2.7812,-3.4062 -0.7188,-0.4063 -2.1875,-1.5 -4.4063,-0.5 -1,-0.094 -7.1874,0.9063 -3,1.6875 -2,1.0937 -0.9063,0.3125 -1.0937,0.4063 -0.7188,-0.2188 -1.2812,-0.5937 -0.094,-0.5938 -0.9062,-3.9062 -1.5938,-1.5 -1.5,-0.5 -4,1.3125 -3.125,0.1875 -2,1.0937 -1,1.3125 -3.1875,5.5 -4.5937,1.1875 -1.5938,-0.2812 -1.5,-0.4063 -0.5,-0.5 -2.625,-3.9062 -0.2812,-2.3125 -0.2188,-1.1875 -0.5,-2.5 -1.1875,-1.9063 -2.4063,-2 -2.5937,-1.0937 -1.4063,-1.1875 -1.0937,-0.8125 1,-2 5.5937,-2.5 2.5938,-0.1875 0.625,-0.125 5.5,-2.2813 1.0938,-2.5 0.1874,-1.0937 0.094,-1.4063 -1.375,-6.0937 -2.3125,-5.3125 -1.6875,-2.9063 -0.7188,-0.7812 -1.9062,-1.5 -1.6875,-1.7188 -1.1875,-0.7812 -2.3125,0 -2.6875,0.875 -6,3.625 -1.625,0.2812 -0.875,0.094 -2.7188,-0.875 -0.5,-0.625 -1.5,-1.5 0.5,-6.375 0.9063,-3 -0.1875,-2 -0.2188,-3.625 -2.0937,-1.2812 -2.4063,0.5 -0.6874,0.1875 -3.7188,1 -0.875,-0.5 -0.4062,-0.4063 -0.5,-1 0,-1.5 0.6874,-2.6875 1.4063,-3.0937 1,-1.8125 0.1875,-1 -0.1875,-2 -1.4063,-0.5 -2.5937,0.2187 -3.5,1.1875 -2.8125,0.1875 -2.5,-2.0937 -0.1875,-0.5938 -0.1875,-1.8125 0.7812,-1.5937 0.9063,-1.1875 3.1875,-4.4063 -0.094,-2.1875 -0.9062,-2.2187 -1.5,-2.0938 -2.0938,-3 0.5,-2.5 0.8126,-1.9062 1.2812,-2.5938 -0.5,-2.5 -1.1875,-2 -2.5937,-0.8125 -3.2188,-0.375 -2.875,0.7813 -2.625,2.0937 -1.2812,2.8125 -0.094,5 0.875,1.4063 1.7188,2.4062 0.5,0.6875 1.5,3.5938 0.5,3.5 -1.3126,2.7187 -1.6874,1.2813 -3.2188,0.9062 -4,-0.4062 -3.5,0.5 -1.2812,0.9062 -1.9063,1.1875 -3.0937,0 -1.8126,-0.6875 -1.9062,-0.9062 -1.5,-1.0938 -0.875,-0.8125 -1.5,-2.0937 -0.625,-1.7813 -0.5,-1.7187 0.3125,-2.2813 0.5937,-5.4062 -2.4062,-3.3125 -3.5938,-5.0938 -1,-3.8125 -0.5937,-2.1875 -4,-2.1875 -2.8125,-1.4062 -0.3751,-0.5937 -0.5,-0.5 -3,-3.3125 -3.9062,-0.6875 -1.7188,0.094 -3,1.6875 -2.5,1.5937 -4,0.8125 -2.875,0.094 -10.5,-5.6875 -0.9062,-0.7188 -5.5,-4.7812 -2.7188,-3.7188 -3.5,-4.7812 -1.375,0 -2.9062,3.1875 -0.4063,2 -0.8125,1.9062 -2.375,0.5938 -4.4062,-6.7813 -1.5,-2.4062 -5,1.4062 5.1874,-8.9062 0.3126,-0.5 -2.8126,-4.3125 -2.2812,-3.9063 1.5,-4.375 2,-5.9062 -0.625,-0.8125 -2.6875,-3 -2.8125,-1.4063 -3.5938,-1.375 -4.0937,-10.625 -1.8125,-2 -0.2812,-0.375 -1,-1 -0.3126,-0.5 -0.6874,-2.5 -2,-10.5 -0.7188,-0.625 -7.5,-4.875 -0.5938,-0.4062 -3.5937,-2.3125 0.3125,-2.7813 0.375,-1.5 4,-3.9062 2,-1.9063 0.5,-0.5 1,-3 1.5,-4.1875 6,-3.4062 1.5,-1.0938 0.125,-0.625 -0.2188,-1.7812 -0.6874,-1.0938 -0.4063,-0.4062 -1.0937,-0.5 -4.9063,0.094 -10.5,0.3125 -0.4063,-1.8125 0.2188,-0.8125 0.375,-0.1875 2.7188,-1.5 3.1874,-1.6875 0.5,-3 -4.0937,-2.5 -2.1875,-0.125 -5.625,-0.7812 -0.7812,-2.9063 -1.9063,-6.6875 -0.5937,-1.125 -6.8126,-1.375 -2.2187,-2.2812 -4145.0313,0 -7.8437,18.375 -4.5937,7.5 -11.3126,10.5937 -5.1874,3 -7.0938,4 -7.8125,1.9063 -0.6875,0.094 -15.125,-0.5 -3.5938,-1.8125 -0.5,-0.2812 -3.5937,-2.3125 -0.5,-0.5938 -4.5937,-9.5 -1.4063,-6 -1.5,-6.0937 -1.5,-6 -1.1875,-3.3125 -4,-9.0625 -151.4688,0 z"
     id="rect10"
     inkscape:connector-curvature="0" />
  <path
	 style="fill:#9FAEC0"
	 stroke="#9FAEC0"
	 stroke-width="10"
	 transform="translate(0, 25)"
     d="m 1007.875,1947.9688 -3.875,12.8437 -0.4063,1.6875 -12.4062,28.1875 -6.875,13.5 -3.9062,7.9063 -1.4063,3.8125 -3.0937,9.5 -1.7188,7.7812 -0.375,2.8125 0.2812,4.5938 0.7188,6.5937 0.7812,2 4.9063,7.9063 5,5.0937 8.9063,9 10.4062,19.625 4,7.5938 3.6875,2.7812 0.5937,0.5 5,4.2188 1.5938,1.9062 7.625,10.6875 7,15.3125 5.7812,18.375 7.8126,24.625 0,10.5938 -3.0938,13.0937 -10.8125,23.1875 -0.3125,0.7188 -8.5938,15.1875 -3.5937,5.4062 -2.0937,3.4063 -10.4063,13 -8,6.9062 -7.4063,4.1875 -5.5937,2 -3.1875,0.8125 -2.625,0.2813 -18.2812,0.4062 -2.5938,-0.4062 -9.2188,-1.5938 -9.0937,-2.6875 -2.5937,-0.9062 -4.5,-2.4063 -4.3126,-2.5937 -10.6874,-9.5 -1.2188,-1 -29.875,-27.4063 -0.9062,-0.8125 -9.5,-8.1875 -4.2188,-2.5937 -4.6875,-2.8125 -11.3125,-5 -14.5938,-4.5938 -18.0937,-8.4062 -6.5,-4.6875 -13.6875,-5 -5,-0.9063 -3.2188,-0.5 -4.1874,0 -13.8126,-0.094 -5.9062,-2.5 -1,-0.8125 -22.2812,-20.4062 -0.5,-0.2813 -30.3126,-24.3125 -24.5937,-11.9062 -19.6875,-9.2813 -14.125,-6.2187 -24.5938,-12.5938 -11.5937,-5.5 -3.9063,-1.6875 -6.1874,-2.7187 -10.5938,-3.5 -5.9062,-1.5 -22.5,-3.5 -24.5938,0.5 -16.2188,4.9062 -1.6874,0.5938 -24.7188,16.125 -41.7812,38.5937 -7.4063,10.1875 -11.5,20.8125 -12.1875,22.0938 -1.4062,2 -3,3.4062 -16,16.1875 -1.4063,1.3125 -26.5,26.5938 -0.3125,0.4062 -3.2812,5.4063 -2.2188,3.5 -6,9.7812 -1.875,6 -0.9062,3 -1.9063,10.9063 0,11.5 0.1875,1.0937 0.7188,2.5938 7.7812,19 13.4062,16.125 8.0938,6.7812 9.7188,7.9063 6.7812,0.4062 7.7188,3.5 7.1874,6.0938 5.3126,12 0.9062,2.0937 0.5,10 -1,6.7188 -0.3125,4 -0.1875,0.5 -4.125,8.7812 -3.0938,6.4063 -3.2812,7.5 -3.625,7 -4.2812,12.9062 -0.875,2.9688 5577.75,0 1.2187,-3.2813 0.3125,-7.4062 -2.5,-6 1.875,-9.1875 3.3125,-5.4063 -1.5937,-2 -2.7188,-1.9062 -2.5938,-2.1875 -1.4062,-2.5 -1.6875,-3 -0.5937,-2.9063 -1.4063,-3.1875 0,-4.5 0,-1.5 0.9063,-1.7187 1.5937,-2.875 1.0937,-0.5 1.9063,-1 2.6875,0 3.2188,-1.7188 1.6874,-2.1875 1.2188,-0.5937 2.5938,0.094 8.5,-3.2188 4,-4.5 2.0937,-2.0937 2.3125,-4.4063 0.2812,-3 0.8126,-2.0937 0.2812,-2.5 1.7188,-2 2,-2 2.5937,-0.5 2.1875,-0.094 5.125,-0.3125 3.5,-0.5938 4.0938,-2.0937 2.5,0 2.5,-0.094 1.5937,0.9062 2.0937,0.6875 2.5938,0.5 2,-0.8125 3,-1.2812 3.2188,-1.4063 2.5937,-3.9062 1.5,-2.0938 1.5,-1 2.5937,-1.5937 4.5938,-4.9063 5.9062,-5.4062 8.0938,-1.5 2.4062,0.2187 1.7188,-0.5 1.5,-1.125 1.375,-3.375 0.5,-4.2187 0.5,-3.9063 1.125,-3 2.0938,-2 3,-1 3.5937,-1 2.5,0.5 2.5937,-0.1875 2.0938,-0.8125 2,-3.5937 -0.5,-4 -1.1875,-8.4063 -0.9063,-6.1875 -0.9062,-4.3125 -0.5938,-2.6875 1,-3.5937 1.3126,-1.9063 2.2812,-1.0937 2.125,-2.2188 0.375,-2.5 -1.5,-2.7812 -1.5,-2.5 -1.5,-2.5938 -1.0938,-3 0.5938,-3.5 -0.2812,-5 -0.3126,-5.625 -2,-6.5 -1,-4 0,-3.0937 0.9063,-1.6875 1.5937,-2.8125 3.2188,-2 4.875,-3 11.4062,-7.0938 8.2188,-5 3.0938,-2.5937 3.5937,-0.094 2.5937,-0.125 4.5,-1.7812 2.0938,-1 2.9062,-2.2188 2.4063,-1.7812 4.5,-2.0938 1.8125,-2.9062 2.2812,-2.0938 4.5938,-2.5 4,-1.7187 4.2188,-1.9063 2.2812,-1.375 3.8125,-1.625 2.5937,-2 2.9063,-2.6875 3.4063,-3.1875 5,-4.7187 5.5937,-4.5 5,-2.9063 2.5937,-1.5 3.7188,-2.1875 2,-3 2,-1.9062 2.5,-2.1875 1.6875,-1.5 3.6875,-2.4063 4,-3.0937 3.3125,-1.9063 4.4063,-3.8125 3.5,-2.5 2.9062,-2 6.875,-5.375 2.4062,-1.3125 2,-1 3.8126,-1.3125 4.0937,-2 6.1875,0 1.625,-1.1875 2,-1.3125 3,-3 2.0938,-1.5937 2.6874,-0.4063 3.5,-0.5937 3,-2 2,-1.4063 3.4063,-3.6875 1.3125,-2.4062 2,-1.5938 2.5,-1.4062 2.6875,-0.5938 2.4063,-0.3125 1.6874,-0.1875 0.8126,-0.1875 1.6874,-0.3125 2.4063,-2 2.4063,-2.1875 2.2812,-2 2.2188,-1.9062 6.2812,-2.0938 7,-2.4062 6,-3.8125 4.3125,-2.6875 0.5937,-0.4063 4.5938,-2 4,-1.6875 4.5,-1.8125 2.625,-1 6.375,-1.8125 8.625,-2.875 5,-1.625 5,-1.6875 7.375,-1.4062 10.8125,-4 10.5,-4 17.6875,-6.5938 3.8125,-2.4062 3.5,-2.1875 1.9063,-2.5 0.094,-3.2188 0.094,-2.5 0.8126,-1.7812 1.0937,-0.7188 2,-1.2812 3.0937,-1.0938 2.5,0 3.0938,-1 2.7188,-1.9062 3.5,-2.5938 2.4062,-3 0.6875,-2.125 2,-3.5 3,-2.6875 10.5937,-9.9062 6.9063,-6.5 44.2187,-41.625 -5527.3437,0 z"
     id="rect12"
     inkscape:connector-curvature="0" />
  <path
	 style="fill:#9FAEC0"
	 stroke="#9FAEC0"
	 stroke-width="10"
     d="m 419.0313,2435.375 -1.9376,6.4375 -1.0937,8 -2.6875,19.375 -2.3125,7 -2.3125,7.125 -7.2812,7.5938 -0.4063,0.4062 -6.6875,4.0938 -7,2.2812 -6.2188,0.3125 -4.6874,0.1875 -4.5938,0.2188 -6.2188,5.5937 -1.4062,6.0938 -1.0938,23.5937 6.7188,15.125 4.375,4 4.9062,4.5 18,3.1875 4.5,0.9063 5,1.7812 2.9063,3.2188 0.6875,1.1874 1.4062,2.7188 2.9063,5.6875 0.5,13.1875 -1.5,6.3125 -5.6875,5.5937 -7.125,0.5 -5,-1.9062 -6,-2.2812 -8.5,-3.3126 -0.6875,-0.094 -5.4063,-0.3125 -9.1874,-0.6875 -5.3126,2.1875 -10.1874,7.4062 -2.0938,3.5938 -3.2188,5.2188 -2.9062,4.7812 -1,6.9062 -1,6.2188 1.2188,9.375 4.5,8.9062 6.7812,9 9.125,12 3.0938,9 0.2812,5.8126 0.2188,5.2812 4.0937,6.125 -0.094,4 -1.9063,2.0938 -4.5937,5.1874 -4.8126,5.4063 -0.9062,0.9063 -3.5938,3.7812 -5.6874,6.125 -7.5,8.0938 -1.0938,1.0937 -1.9062,5.4063 -3.8126,10.5937 -0.4062,1.0937 -0.7812,6.5938 -1.3126,10.4062 -1.6874,14.0938 -0.3126,2.125 -4.0937,5.875 -4,5.7188 -9.9063,8 -1.9062,1.5937 -6.2812,1.0937 -7.2188,1.4063 -5.5,1 -7.6875,-1 -6,-3.5937 -8.4063,-5 -15.9062,-21.0938 -6.7812,-11.5 -5.7188,-9.7188 -4.1875,-7.1874 -4.9063,-8.2188 -4.5937,-5.1875 -5,-3.5937 -2,-1.0938 -4.5,-1.9062 -6.5937,-1 -9.8126,0.2812 -5.0937,2.625 -6.5,3.1875 -7.5,8.8125 -0.6875,0.7812 -3,11.2188 -0.9062,3.375 -2.5938,9.9062 -3.2188,12.2188 -4.9062,11.5938 -4.6875,11.0937 -3.6875,8.9063 -3,7.1874 -4.4062,14.4063 -6.3126,20.9063 -0.5937,2 -5.5937,18.5937 64.0937,-4.0937 41.5937,-2.5 2.5,0 177.2188,9.4062 131.0938,6.7812 106.0937,3 4.0937,0.2188 13.4063,0.5938 268.0937,10.2812 25.2188,1 277.2812,10.9062 83.5938,5.5938 20.7188,0.8125 5.0937,0.1875 2.3125,-1.375 2.5938,-1.625 8.7812,-7 1.7188,-6.0938 3.1874,-11.5 0.5,-2 3.9063,-14.1874 -6.8125,-58.3126 -9.5938,-40.7812 -2,-14.2188 -7.0937,-16.0937 -3.5937,-14.0937 -0.8126,-15.5 18.3126,1.5 117.5937,12.5937 14.4063,1.5 46.0937,5 -3.4063,33.0937 43.0938,0.2188 21,0 78.4062,0.375 46.2188,0.125 141.0938,0.2812 44.5937,0 88.5937,0.8126 197.5938,1.7812 48.625,0.4062 33.375,-0.4062 232.7188,-2.6875 153.5,-2.5 24.5937,21.8125 8.1875,-4.5 4.625,-8 3.6875,1.375 1.9063,3.2188 20.6874,-8.5938 9.5,-4 87.2188,3.375 64.1875,2.4062 118.4063,10.5938 0.5937,0 185.0937,12.9062 23.5938,1.5938 108.125,5.625 58,2.0938 250.7812,8.6874 63.5938,-5 35.4062,-2.7812 20,-1.625 2.5938,0.2188 3,-0.3126 11.8125,-1.2812 2.5937,-0.5 5.7188,-0.4062 6.0937,-0.5 16.4063,-0.5 3.0937,-0.094 13.2813,-0.3125 6.2187,-0.4063 4.5938,-0.1874 9.1875,-0.5 3.625,-0.2188 11.7812,-0.5938 10.8125,0.5 11.1875,0.5938 5.7188,0.125 6.0937,0 11.2813,0.5 15.9062,0.5 3.0938,0 14.9062,0.5 1.5,0 74.9063,2.875 78.4062,3.5 11.2813,0.9062 9.8125,0.094 88.1875,7.7188 44,3.5 41,0.5937 5.8125,0.1875 44.0937,1.2188 113.2191,2.9065 64.5937,1.2812 12.2813,0.3126 2.2187,0 5.9063,0.094 201.1875,1.4063 18.9062,0.094 28.9063,0.1875 85.1875,-0.5938 92.5937,-0.6874 18,0.5 70.9063,2.0937 90.5937,2.6875 82,-0.2812 40.8125,-0.2188 2,0 5.0938,-10.5938 8.3125,-8.9062 5.0937,-6.6875 5.0938,-5.5 6.0937,-4.4063 4.0938,-4.1874 3.125,-3.8126 5.6875,-2.6874 5.0937,-1.0938 5.8125,-1.4062 2.4063,-0.5938 4.5937,-2 3.5,-2 3.1875,-3 3.0938,-3.4062 3,-1.7188 5.2187,-2 1.6875,0 6.2188,-3.5 11,0.5 12.1875,-6.7812 11.3125,-4.9063 14.1875,-7.0937 6.6875,-7 26.9062,-7.4063 1.2188,-0.1875 3.6875,0.1875 4.0937,0.8125 4.7188,0.6875 4.7812,1 0.9063,0.094 6.8125,0.8126 4.5937,0.5937 4.0938,-0.094 4.5,-1.0938 6.3125,-1.5 7.5937,-1 5.6875,0.2812 0.9063,-0.094 3.5937,-0.094 3,-0.7188 2.5938,-0.1875 6.5,-1.9063 5.9062,-2.4062 4.0938,-2.2812 5.7187,-3.7188 3,-3.875 4.1875,-3.7188 4.0938,-4 5,-2.1874 6.8125,-2.8126 6.0937,-1.5937 11.7188,-5.0937 13.375,-6 15.125,-5 0.7812,-0.3126 20.0938,-6.2812 20.4062,-6.7188 5.7188,-1.9062 15.875,-5.5 14.125,-5.2812 0.7812,-0.3126 17.9063,-6.5937 7.6875,-2.5 5.3125,-1.6875 5,-0.9062 7.5937,-1.5 10.8126,-0.2188 9.7812,-0.2812 8.2188,-0.5 4,-0.5 3.1874,-0.5 3.4063,-2 1.6875,-2 2.4062,-3.9063 2.2188,-3.6875 1.5,-5 0.094,-0.9062 -1.2188,-6.8126 -1.375,-9.1874 -0.5,-7 0,-0.2188 -2,-3.875 -0.2188,-1.8125 0.094,-0.8125 7.2188,-2.5938 2.2812,-1.7812 5.4062,-4.3125 3.5938,-4.5 1.5,-3 1.9062,-2.5937 1.7188,-3.5 2.375,-3.4063 1.5,-2.0937 1.7188,-1.5 1.0937,-3.5938 0.4063,-1.125 0.2812,-3.0938 0.3125,-3 -0.5,-2.7812 -0.1875,-2.2188 -0.4062,-4 0.094,-3.4062 1.5937,-1.7812 1.4063,-1.7188 5.6875,-5 3.7188,-2 3,-1.0938 2.5,-0.5 2.0937,-0.4062 1.4063,-2.0938 0.2812,-2.5937 -0.094,-2.5 0.3126,-3 2.1874,-2 2,-1.5 2.5938,0.5 4.3125,0.1875 7,0.3125 3.3125,-0.6875 3.875,-0.8125 5.125,-1.5 5.0938,-0.5 4.0937,0.5 1.5,0.5937 0.094,1.2188 1.5,2.6875 3.9063,1.4062 6.6875,2.2813 5.4062,0.2188 2.0938,-3.9063 0.2188,-0.094 0.5,-0.3125 3.9062,-5.6875 12.0938,-3.9063 4.1874,0.4063 6,-0.5 4,-0.8125 6.9063,-1.7813 9.0937,-5.3125 16.5,-6.3125 7.0938,-2.1875 4.625,-1.3125 3.5,-1.0937 2.5,-0.7813 2.7812,-1.2187 1.7188,-1.5938 2,-1.9062 0.094,-0.094 10.0937,-2.5938 7.3125,-7.7187 1.1875,-0.5938 3.3125,-2.5937 2,-2 2,-1.9063 1.375,-1.6875 1.9062,-2.5937 1.4063,-2.625 -0.1875,-3 -1.125,-1.5 -1.1875,-2.875 -0.3125,-3.5 0.9062,-2.625 1.9063,-2.375 1.8125,-3.9063 2.375,-3.2187 2.3125,-3.5938 0.2813,-0.7187 -5577.75,0 z m -383.2188,341.4375 -5.4062,0.875 -6.4063,1.4062 -0.4063,0.2188 -12.9062,7 -7.6875,10.0938 -2.5,9.4062 -0.5,1.875 0.4063,6.625 L 2.5,2821 l 2.3125,7.1875 3.875,12.5 8.125,11.9062 6.1875,9 3.1875,4.8126 25.9062,1.2812 22.8126,1.2188 9.1874,-19.5 4.0938,-8.8126 2.625,-5.4062 0.6875,-4.0938 1.1875,-7.1874 -4.5938,-20.9063 -4.6874,-8.1875 -3.9063,-6.7188 -5.1875,-3.7812 -6.2188,-2.5 -7.0937,-1.125 -8.1875,-1.2812 -5.125,-0.8126 -6,-0.9062 -5.875,-0.875 z"
     id="rect14"
     inkscape:connector-curvature="0" />
</svg>
