<?xml version="1.0" encoding="UTF-8" standalone="no"?>
<svg
   xmlns:dc="http://purl.org/dc/elements/1.1/"
   xmlns:cc="http://creativecommons.org/ns#"
   xmlns:rdf="http://www.w3.org/1999/02/22-rdf-syntax-ns#"
   xmlns:svg="http://www.w3.org/2000/svg"
   xmlns="http://www.w3.org/2000/svg"
   xmlns:sodipodi="http://sodipodi.sourceforge.net/DTD/sodipodi-0.dtd"
   xmlns:inkscape="http://www.inkscape.org/namespaces/inkscape"
   width="3252.3125"
   height="4876.3125"
   viewBox="0 0 3252.3125 4876.3125"
   id="svg2"
   version="1.1"
   inkscape:version="0.48.1 "
   sodipodi:docname="Aa.svg">
  <metadata
     id="metadata20">
    <rdf:RDF>
      <cc:Work
         rdf:about="">
        <dc:format>image/svg+xml</dc:format>
        <dc:type
           rdf:resource="http://purl.org/dc/dcmitype/StillImage" />
      </cc:Work>
    </rdf:RDF>
  </metadata>
  <defs
     id="defs18" />
  <sodipodi:namedview
     pagecolor="#ffffff"
     bordercolor="#666666"
     borderopacity="1"
     objecttolerance="10"
     gridtolerance="10"
     guidetolerance="10"
     inkscape:pageopacity="0"
     inkscape:pageshadow="2"
     inkscape:window-width="1280"
     inkscape:window-height="1004"
     id="namedview16"
     showgrid="false"
     showguides="true"
     inkscape:guide-bbox="true"
     fit-margin-top="0"
     fit-margin-left="0"
     fit-margin-right="0"
     fit-margin-bottom="0"
     inkscape:zoom="0.088388348"
     inkscape:cx="3509.0831"
     inkscape:cy="3168.7029"
     inkscape:window-x="-8"
     inkscape:window-y="-8"
     inkscape:window-maximized="1"
     inkscape:current-layer="svg2" />
  <path
	 style="fill:#9FAEC0"
	 stroke="#9FAEC0"
	 stroke-width="10"
	 transform="translate(0, 125)"
     d="M 1455.9062,0 1410,64 1350.0938,151.5 1319.9062,196.0938 1228.6875,328 1140.4062,454.8125 1087.5,532.5 l -35.9062,53.0938 -25.6876,36.8124 -65.2187,92.9063 -68.5,97.4063 1661.8438,0 -1.7188,-78.125 -0.625,-7.0938 -1.375,-78.0938 -1.5,-78 L 2545.5,429.5 l -2.5,-2 -3.5937,-1.5938 -3,-1.5 -3.5938,-3 -2.5,-2.5937 -3.625,-3.5 -3.5,-3.125 -2.5937,-1.5 -2,-0.5 -2.5,-0.5 -2,0 -3.5938,-1 -1,-0.5 -4.5937,-2.5 -3.5,-3 -3.0938,-2.5937 -3.5,-2.5 -3.125,-2 -5,-1.5 -4.5937,-1 -4,-2.5938 -3.0938,-2.5 -3,-4.0938 -1.5937,-4.0937 -1,-4 -0.5,-2.625 -0.094,-3.5937 -0.5,-3 -1,-2.5938 -1.5,-2.5 -1.625,-2 -3,-3.5938 -3.5938,-4.5937 -1.5,-3.5 -1.5937,-2.625 -1,-2 -1.5,-2.0937 -1.5,-1 -2,-1 -1.5938,-0.5 -2,-1 -4.5937,-4.5938 -2,-3 -3.125,-5.5938 -3,-5.5937 -1.5938,-3.125 -2.5,-4.5937 -2.5937,-5.5938 -1,-4.5938 -1.5,-4.5937 -2.0938,-4.5 -2,-4.125 -4.0937,-3.5937 -4.125,-3.5 -4.5,-2.5938 -4.5938,-2 -6.0937,-2 -3.5,-1.5 -4.0938,-3.5938 -4.5,-5.0937 -5.5937,-7.625 -5.7188,-8.5937 -4.5,-5.0938 -5.5937,-3.5938 -3,-2 -4.0938,-2.5 -3,-2.5937 -3.0937,-2.5 -3,-3.125 -3.625,-2 -2.5,-1.5 -4.0938,-2 -3,-0.5 -2,-1.0937 -2.5937,-1.5 -2.5,-1.5 -1.5,-2.5 -1.5938,-1.5938 -2,-3.5 -2,-2.0938 -1.5937,-1.5 -3,-2.5 -2.5,-2.0937 -3.125,-1.5 -3.5,-2 -4.0938,-2 -4,-3.125 -3.5937,-3 -2.5,-3.0937 -3.0938,-3.5 -4,-3.0938 -3.5937,-1.5 -4,-2.5 -5.625,-5.5938 -2.5938,-3.5937 -1,-3.625 -0.5,-2.5 0,-7.6875 -0.5937,-2.5 -2.5,-2.5938 -3,-1.5 -3.5938,-1 -4,-1 -5.0937,-2 -2.5,-1 -4.125,-1.5937 -4,-3 -5.0938,-3.125 -4.5,-1 -3.5937,-0.375 -2,0 -3.5,-1 -2.0938,-1.625 -2,-1.5 -1.5,-2 -1.5,-3.0937 -0.094,-2.5 -1,-2.0938 -1.5,-2 -2.5,-0.5 -4.625,0 -4.5,1 -7.0937,1.0938 -6.5938,0 -3,-1 -5.0937,-3 -5.5,-3.0938 -3.5938,-1 -3.5,0 -4,1.0938 -2.625,1.5 -3,1.0937 -2.5,1.5 -4.5937,0 -5.5,-2 -4.5938,-1.5 -5.5,-0.5 -9.5937,2.125 -8.0938,2.5937 -5,1.5 -5.125,2.5938 -2,2.0938 -2.5,3.5 -2.5,4.5937 -1.5,5.2187 -0.5,3.5 0,3.0938 -0.5,4.0938 -0.375,4.0937 0.5,3.125 1,3.5 0.5,4.5937 0.5,3.5938 -0.4062,3.5938 -1,3 -0.5,2.5937 0.5,2.625 2,3.5 1.5,2.5937 1.0937,4 0,1.5938 -1,2 -2,1.0938 -3.0937,0.5 -4,0.5 -8.5938,0 -8.125,-0.4063 -4.5,1 -3.5937,1.625 -4.5,1.5 -2,1 -2,0 -3.0938,0.094 -2.5,-0.5 -2,0 -3,-0.5 -3.0937,-0.5 -2,-1 -2,-1.5937 -2.0938,-1.5 -1.5,-2 -2,-2.125 -2.125,-2.5 -2,-2.0937 -2,-1 -2,-0.5 -2.5937,0.5937 -3,0.5 -2,0 -7.0938,0.5 -3.5,0 -5.0937,-0.5 -3,0.125 -4,-0.5 -3.0938,0.5 -3,1 -4,2.5937 -2.5,2 -2.625,2.5938 -3.5,3.5938 -4,2.5937 -3,1 -2.5937,0 -4,-0.5 -2.5,-1 -3.5938,-1 -5,-2 -4.5937,0 -2.5,0.5 -3.5,2.125 -2.0938,1.5 -2,2 -0.5,3.0937 -1,3.0938 -0.5,2.5 -1.5,2.5938 -0.5,3.5937 0.094,2.5 0.5,3.125 0.5,2 0,3.0937 -1,2 -2,3.0938 -2.5,2.5938 -6.5937,6.0937 -7,3.125 -6.125,1.0937 -5,1 -4.5938,0.5 -4.5,1.5938 -4.5937,1.5 -3.5,1.0938 -2,0.5 -2.0938,-0.5 -2,-1.5 -2,-1.0938 -3,-1.5 -2.5937,-1 -3.5,-0.5 -5.625,0 -3.5,1.0938 -4,2 -1.5938,0.5 -3,0.5937 -4,-1 -1.5937,-1.0937 -2.5,0 -2.5,0.094 -2.5,1 -4.0938,2 -8.5,4.7187 -11.0937,6.5938 -8.625,4.6875 -4,1.5 -5.0938,1.625 -4.5,0.5 -6.5937,2.0937 -9.0938,3.0938 -5.5,1.5 -5.5937,3.0938 -5.5,4.0937 -5.625,4.125 -4,3.0937 -4.5938,2.5 -4.5,3.5938 -3,2.0938 -3.5,2 -3.0937,1.5937 -2.5,1 -3.5,1 -3.5938,1.125 -1.5,1 -2.5,1.5 -1.5,1.5937 -2,2 -1.5,1.0938 -7.0937,6.0938 -8.625,-9.1876 -3.0938,-2.5 -2,-2 -1.5,-2.0937 -1,-2 -1,-2.625 -1.0937,-1.5 -2,-1 -2.5,-1.5 -3,-2.0937 -3.0938,-2 -2.5,-2 -3.0937,-2.5938 -1.5,0 -1,1.5938 -0.5,0.5 -1.5,0.5 -1.5,-0.5 -1.5,-1.5 -2.125,-0.5938 -2,0.094 -2,0.5 -1,-1 -1.5,-1.5938 -1.5938,-2.5 -1,-1.5938 -2,-2 -6.5937,-4.5937 -5.5938,-3 -6.5,-4.625 -5.0937,-4.5937 -4.625,-3.5 -3.5,-2.5938 -6.5938,-3 -6.0937,-3.0938 -5,-2.5 -2.5938,-2 -2.5,-2.5937 -2,-2.5 -1.5,-4.125 -1.5937,-4.0937 -2,-4.5938 0,-2.5938 0.5,-4.5937 0,-5.625 -1.125,-5.0937 0,-17.9063 -1,-3 -0.5937,-2.5937 0,-2.5 1,-3.5938 0,-1.5 -1.5,-9.1875 0,-1.625 -0.5,-11.1875 -0.094,-7.6875 0.5,-13.8125 0,-12.1875 -0.094,-9.7187 0,-8.6876 -0.5,-5.5937 1,-3.625 1.5,-3.5937 1.5,-1.5 2,-1.0938 1.5,-0.5 1.5,-1.5 0,-1.5938 -1,-1.5 -1.5,-2.5 0,-2.5937 0.5,-3.625 1,-3 0.5,-3.0937 1.5,-1.5 2,-1.0938 2,-0.5 1,-1.5 0.5,-2.0938 -1,-2.5 -1,-2.0937 -2,-3 -1.5,-1.625 -1.0937,-1.5 0,-6.0937 -0.5,-4.0938 -0.5,-1.5 -0.5,-0.5938 -1,0 -0.5,1.0938 0,4.0938 -0.5,1.5 -1.5,0 -1.5,-1 -0.125,-2.5938 -0.5,-2.5 -1.5,-2.0938 -2,-2.5 -1,-1 -2.0937,-1 -2,0.5 -1,1 -2,3.0938 -1.5,2 -3,1.5938 -3,1 -2.0938,0 -2.5,0.5 -1.5,0 -4.0939,-1 -4,-1.5 -1.5,-1 -1,-1.5938 -1,-0.5 -1.0936,0 -1.5,1.5938 -1,1 -2,0 -1,-0.5 -0.5,-2.5938 1,-2.5 -0.5,-2.5938 -1,-2 -1.625,-1.5937 -5.5,-3.5 -4.5937,-2 -10.0938,-4.625 -4.5,-1.5 -3.0939,-1.5937 -2,-1.5 -2,0.5 -1,0.5 -1.5,1.0937 -2.0936,0.5 -2.5,-0.5 -2,-2.0937 -2.5,-3 -2.125,-2.0938 -2.5,-1 -3,0 -3.5,1.0938 -2.5937,0.5 -1.5,0.5 -3,0 -1.5,0.5 -1.5,1 -1.5938,0 -2,0.5937 -1.5,-0.5937 -1.5,-1 -12.5939,-6.5938 z"
     id="rect4"
     inkscape:connector-curvature="0" />
  <path
	 style="fill:#9FAEC0"
	 stroke="#9FAEC0"
	 stroke-width="10"
	 transform="translate(0, 100)"
     d="m 892.1875,812.7188 -23,32.6874 -4.5937,6.0938 -6,47.5 -13.5938,85.5938 -1,5.0937 -24.6875,154.4063 -3,16.8124 -4.625,1.5938 -3,1.5 -3.0937,1 -2.5,1 -2,0.5 -2.0938,1.0938 -5,0 -2.0938,-0.5 -1.5,-0.5 -2.5,1 -1.5,0.5 -1,2 -0.5,1.5 -0.5,2.5937 -0.5937,1.5 -1.5,2.625 -1,1.5 -1.5,1.5 -1.5,2.0937 -1.5,2 -1.125,2 0,2.0938 -1,2 -1,0.5 -1.5,0.5 -1.5,-0.5 -2,0.5 -2.0937,1.0938 -2.5,2.5 -2,2.5937 -1.5,4 -1.0938,4.125 -0.5,3.0937 -1.5,1 -2.5,0 -1.5,0.5 -1,1.5 -1.0938,2.0938 -1,2.5 -2,2.0938 -2,1.5 -2.5937,1 -1.5,0.5 -2,-0.5 -2,-1 -2.625,0.5 -1,0 -1.5,0.5 -2,0.5 -2.5937,0.5 -2,0.5 -2.5,2.0937 -3.0938,1.5 -2.5,3.125 -5.0938,4.5937 -5,4 -3.0937,4.5938 -3,4.0938 -2,2.5 -1,2.5937 -1.125,2.5 -0.5,2.625 0,1.5 0.625,1.5 1,1.5937 0.5,2 0,2 0.5,1.0938 1,1.5 0.5,0.5 1,1.5 0,2.5938 -1,2.5 -1.5,2.5937 -0.5,2 -0.5,2.5 0.5,1.625 -0.5,2 -1,2 -2.125,1.5937 -3,1.5 -2,1.5 -3.0937,2.0938 -6,2 -2.0938,1 -2,2.0938 -0.5,2.5 -1.5,3.5937 -2.0938,5.125 -3.5,5.5937 -1.5,3.5 -2.0937,3.0938 -2,4.5938 -0.5,4.5937 -0.5,4.5 0,4.625 0.5,2.5937 -1.5,2.5 -2,2.5938 -1,3.5 -1,2.5938 -1.625,5.0937 -1,3.5 -1.5,3.125 -1,2 -0.5,2.5937 -1.5,2.5 -2.0937,3.0938 -1.5,2 0,2 -0.5,2.5938 -0.5,2 -2.5,5.5937 -2.0938,3.625 -3,3.5937 -2,1.5 -2.0938,2.5 -2,2.0938 -1,2 0.5,2 1,2.0938 1.5938,2 1.5,1.5 1.5,2.5937 1.5,2 1,2.625 1.5938,2.5 5,5.5937 6.0937,6.5938 3.625,3.0938 4,3.5 2,3.0937 2.0937,2.5 2,2.125 3,2 1.5938,2.5 1,2.5937 0,2.5 -1,3.0938 -0.5,2.5 -1.5938,3.5938 -1,3 -1.5,3.5937 -2,3.625 -2.5,4.5937 -1.5937,4.5 -0.5,5.0938 0.5,6.5938 1.0937,4.0937 1,2 0,2.125 -0.5,2 -1.5937,1 -1.5,0 -4,-3 -3.125,-1.5 -3.5,-1.125 -2.0937,0 -2.5,0.625 -2,0.5 -1.5,0.5 -1.0938,0 -2,0.5 -3,3 -2.0938,4.5937 -1.5,3.0938 -1.5,3 -2,2.0938 -2.5937,1.5 -2.5,2.5 0,2.0937 0.5,1.5 -0.5,3.125 -1,2.5 -1.5,4.0937 -2,3 -1.125,2.0938 0.5,2 1.125,1 1.5,0 3.5,0.5 4.5937,-0.5 2.5,0 3.0938,-1 2.5,0.5 2,0.5 1.5938,2 -0.5,2.0938 0,2.5 0.5,2.5937 -0.5,3.5 -1.0938,3.125 -2,1.5 -1,0.5 -2.5,1 -1.5938,1.5937 -2,1.5 -2.5,1.5 -1.5,1.5 -0.5937,2.0938 -0.5,2 0,1.5 2.5937,2.5938 1,1.5 0,1 -1,0.5 -2,0.5 -1.5937,0.5937 -2,1 -1.5,1 -2,1.5 -1.625,1 -2.5,2.625 -1,1.5 0,1.5 0.5,2.0937 1,2.5 3,3.5938 2.125,4.5 1.5,6.1875 2.5,4 2.5937,4.125 0.4063,1.125 1948,0 -2,-116.0313 -2.4062,-149.2187 0,-8.0937 -0.8125,-42.7813 -2.0938,-113.5 -3,-81.5 -2.9062,-76.4063 -5.5,-154.4062 -1.5625,-70.7812 -1661.8438,0 z"
     id="rect6"
     inkscape:connector-curvature="0" />
  <path
	 style="fill:#9FAEC0"
	 stroke="#9FAEC0"
	 stroke-width="10"
	 transform="translate(0, 75)"
     d="m 626.3125,1625.4375 1.0937,2.9687 -0.5,1.5 -1.5,1.5 -3.5937,2.5938 -2.5,2.5 -3.125,2.5 -2,2.5938 -1,2 -0.5,3.5937 -0.5,3.5 -0.5,3.625 -1,2 0,1.5937 1,1 2,0 2.625,-0.5 2.5,-1 3.5,0 2.0937,0.5 2,0.5 3,0 2.0938,-1 0.5,-0.5937 1,-1 1.5,-1 2.5,-1 2.0938,-0.5 1.5,1 0,2 -0.5,2.5937 0.5,2 1,2 1.5,0.5938 1.0937,0.5 2,-1.0938 1.5,0 2,1.5938 0.5,2.5 1.125,3.0938 1,1.5 1.5,1.5 2.5,1.5 2.0937,0.5 2,0.5937 3.5938,1.5 1.5,1 2,1.5 1,1.5 0.5,2.125 0.5,3.5 -0.5,2.0937 -2,2.5001 -1.5,2.5937 -2.5938,1.5 -2.5,2 -3,1.5 -2.0937,0.5938 -1,1 -1.5,2.5 -0.5,2.5937 0,2.5 0.5,3.125 0.5,2.5 1,2 1,3.5938 0,2.5 -0.5,2.5937 -1.5,3 -0.5,2.0938 -0.5,3.5 0,6.5937 -1,3.125 -2,3 -3.125,3.0938 -3.5,3.5937 -2.0937,1.5 -2,1.5 -2.5,2.5938 -4.5938,3 -5.0938,4.5937 -5.5,4.625 -6.5937,4 -7.125,3.0938 -7.1875,2 -6.5,2.0937 -4.5938,2 -3.0937,1.5 -2,2.0938 -2.5,3 -2.625,2.5937 -2,2.5 -2.5,2 -2.0937,1.625 -2.5,1.5 -4.0938,4.0938 -1.5,2.5 -2.5,2.5 -2,2.0937 -2.0938,2.5 -3,3.5938 -2.5937,2.5 -1.5,2.0937 -2,3 -2.5,4.125 -1.625,4.5938 -1,4 -0.5,2.0937 -1,2 -2,1.5 -2.5937,0.5 -4,0 -2.5938,1 -1,1.0938 -1.5,2 0,4.5937 1.5,2 1.5,1.5 1.5938,1.5 1,3.625 0.5,2.5938 -0.5,2.5 0,3.5937 0.5,3.5 0.5,4.0938 1.5,4 1.5,2.0937 1.5937,2 2.5,1 1.5,1.625 3.625,4.5 0.5,1 -0.5,3.0938 -1,2.5 0,3.5937 2,4.0938 1.5,2 0.5,2.5 0,2.5937 -1,2.5 -2.5,3.125 -2.125,3 -3.5,4.0938 -3.5937,3 -3.5,2.5937 -3.5938,2 -2.5,2 -3.5938,2.0938 -6,4.0937 -3.0937,1.5 -2.5,0.5 -3.625,1.5 -6.0937,0 -2.5,-1 -2.5938,-1 -2.5,-0.5 -2.5,0.5 -1.5938,0.5 -1.5,1.5 -2.5,2 -4.0937,4.125 -5.625,5.0938 -4.5,2.5 -5.0937,3.0937 -3.5938,2 -3,2.0938 -3.5938,3 -4,4.0937 -2.0937,2 -3.5,3.125 -3.625,3.5 -2.5,1 -0.5,0.5 -1.5,0 -1.5937,-0.5 -2.5,-0.5 -2.5,0.5 -2.0938,0.5 -2,1.0938 -5.0938,1.5 -2,0.5 -3.5937,1.5 -3.5,2.5937 -5.125,5 -1.5,1.5938 -2.0937,3.5 -2.5,3.5937 -2.5,2 -2.5938,2.5 -1.5,2.625 -2,3.5 -1.5,2.5938 -1.5938,3 -1.5,2.0937 -1.5,2 -2.5937,2.5 -2.5,1.5938 -2.5,1.5 -2.625,2.5 -2.5,2.5937 -2,2 -5.0937,5.625 -3.0938,3 -2.5,1.5938 -2.5938,1.5 -3,1 -2.5,0.5 -2.5937,0.5 -2,1 -1,1.0937 -2.125,1.5 -1.5,2 -3,4.0938 -7.0937,10.5937 -6.5938,8.7188 -4.0938,6.5937 -1.5,1.5 -1.5937,1.5 -2.5,2.5938 -2,1 -1.625,0.5 -1,1.5 0,1 1.5,2.0937 1.125,2 1,3.125 1,3 0,2 -1,2.5938 -1.5,2 -2.625,2.5 -2,3.0937 -1,3 -2.5937,4.5938 -2,3.5937 -2.5938,3.5 -2.5,3.125 -3.5,3.5 -3.5938,4.0938 -4.0937,5.0937 -1.5,2.5 -0.5,2 0.5,1.5938 1.5,2.5 1,2 1.5937,2.0937 1,2 0.5,2.625 -0.5,2.5 -3.0937,5.0938 -1,2.5 -0.5,3.0937 1,3.5 3.5937,3.0938 3.5,4 7.5938,6.0937 1.5938,3.125 1,3 1,3.0938 2.5,4.5 2.0937,1.5937 2,1.5 1,2 0.5,2.5938 1,2 1.125,2 2.5,2.0937 2,1 2.5937,1.5 3.5,1.5 5.0938,2.125 4.5938,2.5 2,2.5 1.5,3.0938 1.5,3.5 0.5937,3.5937 0,3.5938 1,3.5 1.5,1.5 1.5,0 2.125,0.5 2.5,1.0937 1.5,0.5 0.5,1.5 -1,2 -1.5,2.125 -0.5,2 -1,2.5 0,2.5938 1,2 3,3 2.5937,3.5937 1,1 0,1.5 -0.5,2.0938 -1.5937,1.5 -2,1.5 -3,1.5 -1.625,2.5937 -0.5,2.5 -0.5,4.125 0.5,2 0.5,2.5938 -1.5,2 -2.5,1.5 -2.0937,1 -3.5,1 -2.5938,0.5 -2,0.5937 -2,-0.094 -2.0938,-0.5 -2.5,-2.5 -1,-3.5937 -2,-4 -5.5937,-5.625 -3.125,-1.5 -3,-1.5938 -5.0937,-1 -4.0938,0.5 -5.5938,0 -3,0.5 -3.0937,1.0938 -2,0.5 -2,0 -2.125,-1.0938 -2,-1 -2.5,-2 -3.5937,-4.0937 -2.5,-2.5 -1.5938,-2 -2.5,-2.5938 -2.5,-2 -1.5938,-2 -1,-2.5937 -1,-3 -1,-4.125 -2.5,-5.0938 -1.5937,-3 -3,-2.5937 -3.625,-1.5 -4,-1 -5.0937,-1 -9.1876,-1 -3.5,0 -2.5937,0.5 -3,0.5 -1.5,1 -1.625,1.5 -2,2.5 -3,3.5937 -2.5937,3 -3.5,3.5938 -2.5938,3 -2,3.625 -2,3 -1.5938,3.0937 -1,2 0,4.0938 1.5,3.5 1.5938,1.5937 1,3 2.5,4.5938 2,3.5 2.5938,6.125 1.5,3.5937 2,4.5938 0,3 -0.5,2.5 -1.5,2.5937 -2.5938,3.5 -1.5,3.5938 -0.5,2 -0.5,2.625 -1,3.5 -1.5,3.5937 -1.0938,3 -0.5,2.5938 0,6.5937 2.5938,3.5 1.5,2 1,1.5938 1.5,1.5 1,3 0,2.625 -1,3.5 -0.5,2.5937 -1.5,4 -1.5,2.5938 -0.5,2.5 -0.5938,2.5937 0,1.5 -1,2 -1.5,1.5 -2.5,2.0938 -4.5937,1.5 -1.5,0.5 -2.125,0.5 -1.5,1 -1.5,1.5 -1,2.625 1,4 0.5,3.0937 0.5,3.5 0,3.0938 -1.5,2.5 -0.5,1 -0.5937,1 -2,2.0937 -1.5,2 -3.5938,3.5938 -2,3 -2,2.5 -1.0938,3.125 -0.5,3.5 0,3.375 2652.0938,0 -0.6875,-1.0938 0,-1.5 -0.5,-2.0937 0.5,-1.5 0,-2 -0.5,-1.5 -1.125,-1.5938 -0.5,-2 -1.5,-3.5 -0.5937,-2.5937 -0.5,-2 -1,-3 -1.5,-1.125 -1.5938,-1 -3,-2 -1.0937,-1.5 -1,-2 0.5,-2 0,-3.0938 0.5,-1.5 0.5,-1 0.5,-1.0937 3,-1 3.0937,-0.5 2.5,-0.5 2.5938,-0.5938 0.5,-0.5 1.5,-1 0,-1.5 0.5,-2.0937 1,-1.5 1,-2 1,0 1,-0.5 1.5,-1.625 1,-1.5 0.5,-1.5 2.0937,-4.0938 1,-2.5 0.4063,-2.5937 1.0937,-1.5 0.4063,-2.5938 -0.5,-2 -0.5,-1 -0.5,-1.5 -1,-2 -0.5938,-1.5937 0,-1 0.5,-0.5 2.0938,-2 2.5,-1.625 2,-1.5 1.5937,-1 1,-1.0938 -0.094,-1.5 1.0938,-2 1,-1.5 2,-2.0937 2,-2 2,-1.0938 1.5,-1.5 0.5,-2 0,-4.0937 0.5,-3 1,-2.625 1,-2 0.5,-2.5938 0,-1.5 -0.5,-1.5 -1.5,-0.5 -1.5938,-1 -1,-1.5 -0.5,-2.5937 0,-2 0.5,-1.5 1,-2.5938 1,-2 1.5,-1 0.5,-0.5 2,0 1,-0.5937 1,-1 0.5938,-1 -0.094,-2 -1.5,-2.625 -2.5938,-3.5 -1.5,-4.5938 -1.5937,-4.5 -2.5,-5.0937 -6.7188,-6 -7.0937,-7.5938 -2.5938,-3.0937 -1.5,-2 -2.0937,-3.5 -0.5,-2.125 -1,-3 -1.0938,-1 -2,-1 -2.5,-0.5 -3.125,-0.5 -2.5,-1 -2.0937,-2 -1,-3.5938 -1.0938,-2.5 0,-2 -0.5,-2.0937 -0.5,-2 0,-2 0.5,-1.5 0.5,-1.0938 0.5,-1 -0.5,-1 -1,-1 -1.0937,-2 -0.5,-0.5 -1,-2.0937 -1,-2.5 -0.094,-2.5 0,-2.125 0.5,-2 0,-2.5 -0.5,-2.5938 -1,-2 -1.125,-2 -0.5,-1.5937 -1.5,-2.5 -1,-1 -0.5937,-1 -5.0938,-5.0938 -1,-1.5 -1.5,-2 -1.5937,-1.5 -0.5,-1.5 -0.5,-2.5937 -0.5,-2.5 0,-2 1,-2.125 1.5,-1.5 1,-0.5 1.5,0 1.5,0.5 2.5937,0 1,-0.094 0.5,-0.5 0.5,-2 0.5,-1.5 1,-0.5 2,-1.0938 1.5938,-1 2,-1 4.0937,0 1.5,0.5 2,0.4063 1.5,0.5 0.5,-0.5 0,-1 -1,-1.5 -0.5,-1.5 -0.5,-2 0.5,-2.0938 1,-1 2,-1.5 1.5,-0.625 1,0.5 1.625,0.5 1.5,1.625 1.5,2 2.0938,1.5 1.5,1 1.5,0 1,-0.5 0.5937,-1 -0.5937,-1.125 -2,-3 -0.5,-1.5 0,-2.5937 1,-2 2.5,0 2,2 1.0937,1 1.5,2 2,1.0937 1.5938,1 2,0.5 1.5,0.5 1,0.5 2.0937,0.5 1,-0.5937 0.5,-1 1,-1.5 1.5,0 1.625,0.5 1.5,1.5 0.5,0 1,-0.5 0,-1 -1,-1.5938 -0.5,-1 -1.125,-1.5 -3,-4.5 -1.0937,-3.0937 -1,-2 -2,-2.5 -1.0938,-1.5938 -1,-1.5 -0.5,-1.5 -0.5,-3 -0.5937,-2.625 -1.5,-3 -0.5,-2.5937 0,-3 1,-2 1.5,-1.5938 4,-1 1.5937,-1.5 1.5,-2.5937 0.5,-2 0.4063,-3.0938 0.5,-3.5 -0.5,-3.125 -1,-2.5 -1.5938,-2.5937 -1,-3 -1,-2.5 -0.625,-2.5938 0.5,-2 1.125,-1 1,-1.0937 0.5,-2.5 -0.625,-1.5 -1.5,-4.0938 -2.5937,-4 -6.5938,-8.625 -4.5937,-6.5937 -1.0938,-3 -1.5,-3.5938 -1.5,-2 -2.125,-1.5 -3,-1 -3.5937,0.5 -2.5,0.5 -3.0938,0.5938 -10.0937,0 -4.5938,1.0937 -2.5,0.5 -2.625,0.5 -1,1.5 0,2.125 1.125,1.5 1,1.5 0,3.5938 -1,1.5 -2,2 -2,2.0937 -3.125,0.5 -6.5937,0 -3.5,0.5938 -3.0938,-0.5 -3,-1.5 -4.5937,-3.0938 -3.5938,-2.5 -3.125,-1 -3.5,-1.5 -4.0937,-1 -3.5,0.5938 -1.5938,0.5 -2.5,1 -2.5,0.5 -3.0937,-0.5 -3.5,-2 -2.5938,-0.5 -3,-1 -1.625,-0.5 -3,-1 -1.5937,-1.5 -2,-2.5 -2,-2 -2.5938,-1 -5.0937,0 -2.5,0.5 -3.0938,0 -3,-0.5 -1.5,-1 -2.625,-2 -4.0937,-3.5 -8.0938,-8.0938 -3.0937,-2.5 -2.5,-2.0937 -2.5938,-1 -2.5,0.5937 -1,1 0,2 1,2.5938 0.5,2 0,2 -0.5,1 -1.5,1.0937 -1.5,0 -1.5,-1 -3.125,-3.5937 -2.5937,-3 -2.5,-1.5 -2,-1 -2.0938,-0.5 -3.5,-1 -2.5937,-1.5 -2.5,-3.5938 -2.5938,-3 -1,-3.0937 -2.125,-3 -2,-2.5 -4.0937,-6.0938 -2.0938,-6.125 -2.5,-5.5937 -3.0937,-8.0938 -1.5938,-5.0937 -2,-2.5 -1.625,-2.5 -1,-1.5 -1,-2.0938 0.5,-2 0,-1.5 -2.0937,-1 -1.5,0 -2,1 -1.5,0.5 -2.5938,-1 -1,-1 -1,-2 -1.0937,-2.625 -2,-2 -2.5,-1 -2.5938,0 -1.5,1.125 -0.5,2 0,1.5 4.0938,9.0938 2.0937,2.5937 3,2.5 1.5938,2 1.5,2.5938 0.5,1.5 -0.5,2 -1,1 -2,0.5937 -2.0938,-0.5 -2,-0.5 -2.5,-1 -4.0937,-4.0937 -5.5938,-2.5 -6.625,5.0937 -10.6875,-12.0937 -28.5,0.094 -1.5,-2.5 -9.1875,-14.6875 10.0938,-1.0938 -4.7188,-38.5937 21.8125,-1.625 -2.0937,-6.0938 -3.0938,-7.5937 -2.5,-5.5938 -2.125,-2 -2,-2 -1.5,-1 -2.5937,-2.0937 -2.5,-3.5 -1.0938,-2.625 -0.5,-3.5 -0.5,-2.5 0.5,-3.5938 0.5,-4.0937 0.4063,-4.5938 1,-5 -0.5,-5.5937 0,-5.125 0.4062,-3.5938 0.5,-4.5937 1,-3.5 2.5,-4.0938 3.0938,-2 5.5,-5.2187 1.5,-2.5 1.5937,-2.0938 1.5,-2 3,-2 1.5,-0.094 2.5938,0 4,-1 1.5,-1 1.5,-2.0937 0.5,-1.5 0.5,-2 0,-2.0938 -0.5,-2 -1,-2.5 -1,-2.625 -3.0938,-4.5 -11.6875,-11.6875 -4.125,-5.5 -2.0937,-2.5937 -1.5,-3 -1,-2.5938 -0.094,-3 -0.5,-1.5 -1.5,-1.625 -2.0937,-3.5 -1,-1.5 -1.5,-2.5937 -0.5,-2.5 -0.094,-3 0.5,-2.5938 1.5,-2.5 3.0938,-3.0937 2.5,-4.0938 1.5,-2.5 2,-2.125 2.5937,-1 2,-0.5 2.5,-0.5937 2.5,-0.5 2.0938,-0.5 1.5,-1 1,-2.0938 1,-3 0.5,-4.0937 1.5,-2.5 2,-2.5938 2.5,-1.5 2.5937,-2.125 1.5,-2 1,-2.5937 0,-2.5 -0.5937,-2.5938 -1.5,-3 -1.5,-2 -4.0938,-3.0937 -3.5937,-3 -2.5,-1.5001 -4.0938,-1.5 -2.5,-2 -1.625,-1.5937 -0.5937,-13.7187 -0.7813,-44.6563 -1948,0 z m -566.8125,709.25 -1,0.5 -1,1.5 -1,1.625 0,3 1,2.5938 1.5,3 1,3.0937 0.5,3.5 -0.5,3.5938 -2,3.5 -2.5938,2 -3,2.0937 -3.0937,1.5 -4,2 -3.625,0.5 -3,0.5 -5.0937,0.5 -2.5938,0 -3,-0.5 -3.5938,1 -4.5,0.5 -2.0937,-0.5 -2.5,-0.5 -2.625,0 -2.5,1 -3,1.5 -7.1875,4.625 2.5312,61.375 138.375,0 -0.094,-0.2812 -1.5,-4.0938 -1.625,-3.625 -1.5,-2.5 -1,-2 -3,-4.5937 -0.5937,-2.5 -1,-2.5938 -1.5,-3 -1.5,-1 -1,-1.0937 0,-6.5938 1,-3 2,-3.625 1.5,-3.5 0.5937,-3.0937 0,-2.5 -1.0937,-3.5938 -2,-6 -3,-6.0937 -1,-2.5938 -1.5938,-2 -2,-2 -2.5,-2.625 -2.0938,-1.5 -3,-1.5 -2.5937,-2.0937 -2,-2.5 -1.5,-2.5938 -1.5,-2.5 -1,-3.5 -1.125,-3.0937 -2.5,-2.5 -2,-0.5 -1,0.5 -2.0937,1.5 -2,2 -2.0938,1 -3.5,1.5 -3.5938,1.0937 -3.5,0.5 -2.5937,-1.5937 -8.125,-8.0938 -4.0937,-2.5 -2.5,-1.625 -2,-0.5 -2.5938,-0.5 z"
     id="rect8"
     inkscape:connector-curvature="0" />
  <path
	 style="fill:#9FAEC0"
	 stroke="#9FAEC0"
	 stroke-width="10"
	 transform="translate(0, 50)"
     d="M 2.5312,2438.1875 4,2474.3125 7.9062,2623.5 l 5.7813,163.5 1.9063,55.4063 0.3124,10.5 3,76.5 0.5,15.5937 1.4063,46.0938 0.094,8.3125 0.4063,12.5937 1.2813,28.4063 -0.2813,11.0937 1.6875,49.8125 0.8125,148 0.031,1.5938 1764.2187,0 0.25,-4.0938 2,-29.9062 -10.8125,-13.7188 -11.6875,-15.6875 -4.625,-7.5937 -3.5937,-0.5 -6.5938,0.094 -7.6875,-4.0938 -0.5,-7.0937 3,-14.7188 0.5,-8.5937 3,-10.0938 7.5938,-8.2187 7.0937,-9.5938 2.5,-4.5937 3.5938,-6.0938 2,-5.0937 0,-4.5 5.5937,-9.7188 -3.5937,11.7188 -2,9.0937 -3.5,7.0938 -1,3.0937 -3.5938,6.0938 -2,7.625 -3.5,9.0937 -2.5,7.0938 -2.5937,9.6875 4.1875,10.625 14.7187,5 4.0938,12.1875 5.1875,10.5937 5.5937,8.5938 8.7188,4.5 6.0937,3.125 6.0938,0.375 7.0937,2.5 1.625,3.125 2.5938,4 4.5937,15.1875 4.0938,0.5 2,-7.5938 2.5,-3.5937 2.5,-2.5 2.5937,1.5 2.5,1 0.125,5.5937 -4.625,8.0938 -2,7.0937 -0.5937,3.3125 340.3125,0 -1,-3 4.5,-0.094 7.1875,0.5 1.3437,2.5938 46.3438,0 -0.375,-0.2188 -14.8125,-6.5937 -10.1875,-3 -5.5938,-5.5 1,-7.5938 -1.5,-3.5937 -3.125,-3 -0.5,-4.5938 3,-2.5 8.7188,2.5 4,-3.125 1.5,-8.0937 4.0937,-4 8.5938,-3.5938 17.3125,-4.1875 8.1875,-0.5 3.5,3 6.7187,3 6.0938,9.5938 -5.5938,2.5937 -10.7187,-6 -9.6875,-3 -8.0938,1.5 -6.625,4.5938 -2,8.0937 -1,9.7188 6.7188,14.5937 13.8437,9.9063 285.6563,0 0,-0.094 -8.7188,-4.5 0,-4.125 1,-3 2,-1.5938 5.125,1.5 3.0938,4.0938 4.5937,7.5 3.5938,0 2,-3.5 1.5,-3.0938 0.5,-1.5 2,-2.5 1,-2.5937 -2,-9.0938 -1.0938,-1 -0.5,-5.5937 -1,-3 1.5,-5.625 3,-1.5 8.6875,1.9062 6.125,8.5938 1.5938,4.125 2.5937,5 3.5,2.5937 2.5,-11.2187 -3.5937,-8.5938 -8.7188,-6 -9.6875,-1.5 -1,-5.0937 -5.5937,-3.5 -1.0938,-9.0938 5.6875,5.5 6.5938,4 2,-2 0,-9.5937 2.5,-6.625 3.5,-2.0938 2.5937,7.5938 3.625,10.125 1.5938,4.5937 3.5937,9.0938 4.0938,0.5 3,-3.5938 1.5,-17.2187 0.4062,-9.0938 0,-6.0937 1.5,-2.5938 4.5938,3.5938 1,-7.6875 -0.5938,-11.125 3.5938,3.5 2.0937,9.125 -0.5,10.1875 1.125,8.5937 3.5938,4.5 -6.0938,2.5938 -1,7.625 0,6.5937 3.0938,6.5938 -1,2.5 -1.5,4.0937 -7.5938,3.5938 -7.125,7.125 1.125,11.0937 0.6563,7 17.4687,0 1.1563,-10.5937 0.5,-6.625 -6.1875,-1.5 2.5937,-5.0938 3,0 8.1875,-1.5 -2.0937,-3.0937 2,-3 2,-5.0938 3.5937,-11.2187 -2.0937,-4 5.0937,-4.0938 -0.5937,-7.5937 5.5937,1 3,-10.1875 -3.5,-3.5 -1.0937,-6.625 3,-3 5.5937,-3.0938 3.125,-1 3,2 0.5,0.5 1.0938,5 -0.5,7.5938 -2,6.625 -3.5,8.1875 -2.5,6.5937 -1.5,4 4.0937,3.5938 0.5,2 -1,3 -1,3.625 -4.0937,4.5937 -3,3.5 -1.5,4.5938 0,4.0937 1,2.5 3.5937,6 4.5938,1.5 3.5937,1 -3,5.0938 1.8125,4.2187 30.7813,0 0.5312,-0.3125 1.5,-1 1,-4.5937 0,-5.5938 1,-5 2.5,-2.0937 2,-1 4.0938,-1 2.5937,4 5.0938,1 3.5,-7.625 3,-13.6875 -2.0938,-5.0938 3.5938,-6.0937 2.5,-1.5 7.5937,1.5 3.125,-2.625 3,-0.5 3.0938,7.625 2.0937,5 9.1875,1.5 1.5,1 2.125,3 -3.625,5.0937 -6.5937,1.5938 -4,5.5937 -1,4.5 0.5,2.0938 6.0937,-1.5938 1.5,2 -2,4.0938 -2.5,4.125 -0.5,3 5.125,1 11.6875,-1.125 12.1875,-4.0938 9.7188,-1.5937 6.5937,1.5 9.0938,-4.5938 3.5937,-3.0937 2.5,-5.125 -2.5937,-9.0938 -8.1875,-11.0937 3.5,-9.0938 0.5,-8.5937 4.5,-12.2188 2,-7.5937 3,-8.1875 -4.0938,-3.5 -1,-7.625 -2.125,-2.5 -5.0937,-3 -3.5938,-2 -4.5937,0.5 -4.5,-1 -2.0938,0.5 -0.5,-3.5 6.5938,-5.0938 10.1875,3.5 8.5937,-3.0937 7.7188,2 0.9062,-10.1875 -6.125,-5 -1.0937,-8.125 5.0937,-4.5938 -6.1875,-9.0937 2.5938,-4.0938 12.2187,9.0938 4.6875,11.5937 -3,6.0938 -2,8.7187 3.5938,5.5 2.5,0.5 2.5937,-1.5 2.5,-6.0937 -1.5937,-3.625 10.2187,-6.0938 1,-3.0937 1,-4.5 5,-1.0938 11.2813,16.1875 -1.9063,10.0938 -1,5.625 0,4.5937 4.625,4 9.0938,-3.0937 5.5937,1 4.1875,6.5937 6.125,7 7.5938,-4.5937 2.5,-3 10.1875,-2.625 -2,-1.5 4,-6.6875 -5.0938,-4.5 -5.0937,-8.0938 -4.7188,-5.5 2,-9.7187 2.5,-8.0938 -0.5,-11.0937 -4.0937,-5.0938 -0.094,-5.5937 3.0937,-2.5 5.0938,-0.5 2.5,2 5.625,-1.125 -1,4.625 -2,6.5937 -1,6.0938 3.0937,5 3.5938,-3 2.5,2 -5.5,8.0937 6.0937,4.5938 0,7.125 -5.5937,1 0.5937,4.5937 5.0938,7 1.125,9.5938 0.5,8.1875 4.0937,7 4.0938,3.625 4.5937,-4.125 2,-3.5938 1.5,-4.0937 1.5,-2.5 1.5,-4.5938 2,-5 2,-5.0937 -0.5,-8.625 6.0938,-3.0938 4.125,9.5938 4.0937,-1.0938 2.5,-2.5 1.5,-4.5937 2.5,-4 -1.5,-5.0938 -8.2187,-3.5 -4.0938,-1.5 2.5,-8.0937 7.2188,0.875 -0.125,-7.0938 -3.0938,-6.5 -5.5938,-7.5938 -6.5937,-0.5 2.5,-7.0937 5,-5.0938 -4.5938,-2 -8.125,0.094 -3.5937,0 -5.0938,-1.5 6.0938,-6.0937 -0.5,-6.125 -0.094,-3.5 1,-4.0938 0.5,-4.0937 -6.1875,-14.5938 4.5937,-0.5937 8.1875,1.5 2.5,-0.5 2,1.5 -4.5,7.5937 0,6.5938 0.094,9.5937 10.7188,3.5 3.0937,1.5 7.5938,0 1,-1 -0.5,-1.5 -0.5,-1.5937 -4.5938,-2.5 1.5,-6.0938 3.5,-5.0937 7.1875,3.5 6.625,3.0937 11.1875,-6.2187 6.0938,-2.0938 8.5937,-3.5937 5.125,1.5 2.5,2 -1.5,4.0937 0.094,4.0938 -3.5937,3.5 -3,4.625 3.5937,10.5937 -4.5,9.1875 0,5.5938 -9.0937,-1 -4.125,-0.5 0.5,5.625 1.125,2 1,4.5937 9.0937,-4.0937 5.0938,3 3.5937,0.5 3.5938,5 -1.5,5.0937 4.125,-1.0937 1,2.0937 0.5,2.5 0.094,4.0938 0,3.5 1,7.5937 3.0938,-2 1,1.5 0,5.5 -1.5,1.0938 1.5937,2 2,1 4.0938,0 1,0.5 3,-2.0938 1.5,-4.5937 2.625,-1 6.0937,1.5 4.5938,-2.0938 1.5,-2 -1,-2.5 -8.1875,-6.5937 -4.625,-0.9063 -1.0938,-5.5937 1.5,-7.625 -2.0937,-8.0938 0,-5.5937 7.5937,-3.0938 9.2188,-0.5937 5.0937,0.5 2,3.5937 -1.5,6 -2.5,5.5938 -0.5,3.5937 2.0938,4.5 0,2.0938 1,2.5 5.5937,1.5 1.5938,4 10.2187,-1.5938 7.0938,-3.5937 7.0937,-1 6.0938,-0.5938 3.125,-2.5 1,-2.5 -5.2188,-3.5937 -8.0937,-3.5 -5.0938,-3 4,-3 7.6875,1.375 1.5,-3.5 6.5938,-0.094 10.7187,-1.5938 8.5938,-2 6.0937,-4.0937 3,-9.2188 3.5,-10.5937 6.5938,-6.6875 7.625,-6.0938 6,-6.125 3.0937,-6.5937 0.4063,-7.6875 5.5937,2 2,-7.0938 3.5,-8.125 0.5,-7.0937 -3.5937,-3.5 -6.125,-2.5 -4.5938,-0.5 0,-4.0938 4,-1 7.7188,-1.0937 3,-1.5 1.5,-0.5 5.5937,0.4062 8.1875,3.5 4.5938,-2 0,-3.625 0.4062,-3 -0.5,-4.0937 -4.5937,0.094 -1.5,-3.0938 3,-2 6.0937,-3.5937 4.5938,-3.5938 -4.0938,-4.5 1.5,-4.5937 4,-1.5 4.5938,-2.125 4.125,-1 1,7 0.094,6.125 3.5,1.5 4.5938,-5.125 6.5937,-2 8.0938,-3.5938 6,-10.1875 1.5,-6.0937 4.125,-3.125 6.0937,-1.0938 2.5,-3.5 5.5,-8.6875 1,-3.5 5.5938,-2.5937 7.5937,-3.125 9.7188,-2.0938 5,-6.5937 -2.5,-5.5938 -3.125,-1 -9.0938,3.0938 -8.0937,4.5937 -4.0938,-0.4062 -3.2187,-10.6875 -1.5,-9.0938 -2.0938,-6.0937 -0.094,-7.625 4.0937,-4.5938 3,-2 -1,-4.5937 -0.5,-1.5 -1.5937,-1.5 -3.5,-1.5 -4.0938,-0.5 -4.0937,2.0937 -2.5,4.0938 -1.5,2 -3.625,1.5 -1.5,-3 -1,-3 -0.094,-3.0938 3,-6.0937 0.5,-5.5938 0,-2.5 -9.6875,-6 -0.5,-4.0937 -1.5937,-3.5 -8.2188,-7.125 -4.5937,-6 -5.5938,-6.0938 -4.5937,-0.4062 -6.125,2.5 1.625,6.625 5.0937,8.5937 4.5938,8.0938 1.5937,6.5937 2.5938,9.0938 3.625,6.625 2.0937,5.5 3.0938,5.0937 0,2.5 -6.5938,2.0938 -2,3 -1,8.1875 -3,4.625 -3.5937,4 -4.5,5.0937 -6.125,1.0938 -1,-3.5938 1,-3 2.5,-3.5937 2,-7.625 1.9062,-14.1875 0,-8.0938 -2.0937,0 -6.0938,5.0938 -2,-1.5 -1.5,-2 -2.0937,-2 1.5,-2.5938 2,-2.5 -0.5,-6.5937 -4.125,-9.125 -6.0938,0 -4.0937,-1.5 -4.6875,-12.0938 -5.125,-2 -3.5,3.5 3.125,11.2188 7.1875,8.5937 4.5937,5.5 -0.5,5.0938 -3.5,2.5 -2.5937,-5 -0.5,-1.5 -8.6875,-4 -2.5,2.5 -0.5,3.5937 4.0937,5.5 3.0938,5.0938 7.0937,-2.5938 2.0938,5.0938 1,2.5 -4.0938,1.5 -4.0937,-2.5 -4,1.625 -1.5,5.0937 -6.0938,1.5 -3.0937,-2 -3.625,-14.7187 0.4062,-9.0938 -1,-4.5937 -2.0937,-2 -10.0938,1.0937 -2.5937,4.0938 1.5937,8.625 2.6875,13.6875 1.5,9.0937 -0.4062,9.0938 -1,12.7187 1.125,5.5938 0,4.5 -6.125,-0.9063 -4.0938,-3.0937 -6.0937,1.5937 2.5,-9.0937 2.5,-6.0938 0,-10.2187 -0.5938,-14.1875 -0.094,-9.0938 -9.3125,-16.2187 -0.5,-3 -3.5937,-2.5 -6.5938,-1.5 -7.125,-0.5 1.5,-1.5 -4.0937,-3.5 -5.0938,0 -3.5,-2 -0.094,-3.0938 1.5,-5 4.5937,-3.0937 1,-4.0937 -7.1875,-6 -8.125,1.0937 -2.5937,-2.5937 -1,-4 3.5,-2.0938 -1.5,-5 6.0937,1.375 6.625,2 4.0938,-1.5 5.0937,0 10.1875,9 5.625,2 6.0938,0.5 3.5937,4.5 5.6875,11.125 4.125,4.0938 5.0938,2 4.5,-8.2188 -0.094,-10.5937 4.0937,-1.0938 2.0938,6.5938 2.5,0.5 2.5,-8.0938 -5.0938,-5.0937 -4.5937,-7.5 -6.7188,-6.0938 -8.5937,-0.4062 -9.1875,-4.5 -7.7188,-6.5938 0,-4.625 5.0938,0.5 2.5,1 1,-6.5937 6.125,5 3.5937,1 6.0938,4.5937 5.5937,3 2.5938,2 7.125,1.5 0.5,-5.0937 -1.625,-6.5938 -18.7813,-9.5 -1.0937,-6.5937 3,-3.5938 6.6875,6.5938 6.0937,0.9062 3.0938,1 5.5,-2 3.5,-7.625 3.625,1.4063 0.5937,8.2187 1.5,5 3.5938,7.0938 -0.9063,6.0937 -2.0937,0.5 -0.5,2.5938 6.6875,5 7.625,3.5 3.0937,0.5 0,-3.5938 -3.0937,-4.5 0,-2.5937 3.5,-2 3.5937,-4.5938 9.5938,-1.125 1.5,-8.5937 -1.5938,-6.5938 -0.5,-3.5 1,-3.5937 0.5,-2.5 4.0938,1.5 5,-2.5938 1,-2.625 -1.5,-4.5 -6.1875,-4 -0.5,-6.5937 2,-6.0938 -10.3126,-19.1875 -10.4062,-26.4062 -6.0938,-10.0938 -6.1875,-4 -1.5,-2 -6.125,2.5938 -4,0.5 -1.5937,-3.5 5.5937,-3.5938 -0.5937,-5.125 -6.0938,-5.5 -5.0937,-3 -4.5938,-3.5937 2,-7.5938 4,-2.0937 2.0938,-3 0.9062,-4.5938 -2.125,-15.7187 -6.1875,-13.6875 -12.8125,-13.5938 -3,-2.5 -10.2812,-20.2187 -5.2188,-15.6875 -2.0937,-8.2188 -5.0938,-5 -5.0937,-1 -13.8125,-1.375 -6.5938,-4 -6.0937,-1 -12.2188,1.5938 -9.1875,-2 -7.0937,-4 -5.5938,-5 -10.8125,-7.0938 -9.0937,-3.5 -3.5938,0 -3,0.5938 -3,8.0937 -4.5,12.1875 2.0938,11.2188 0,4.5 -3.5,5.0937 -3.0938,3.0938 -7.125,2.5937 -3.5,4.625 -1.5,4.5938 -3,3.5 -5.0937,2.5937 -4.5938,3.0938 -6.5937,1.5 -4.5,1.0937 -7.7188,-4 -12.1875,-10.0937 -5.6875,-8.0938 -3.125,-5.0937 -4.5937,-2.5 -17.7813,-6 -2.125,-6.5 -1.5,-6.0938 -2.0937,-6.125 -7.1875,-7.0937 -6.5938,-4.5 -5.125,-7.0938 -1.5937,-5 0.5,-8.1875 2,-12.2187 3,-2 -2.5938,-5.5938 -2.5937,-6.0937 -5.0938,-9.0938 -3.125,-4 -1.5,-2.5 -1.5,-2.125 -2.0937,-1 -1.5,-1 -1.5,-0.5 -1.5938,0.5 -1,-0.5 -1.5,-1.5 -1.5937,-3 -1,-3 -2,-3.5937 -0.9063,-1.4063 -2652.0938,0 0,1.2188 0.5,5.0937 1,4.5938 3.0938,4 2,1.5 1.5,2.5937 -17.1875,5.625 -5.625,1.5 -3.5937,0 -2.5,-1 -3.0938,-1.625 -2,-1.5 -3.5938,-2.5 -3,-2.5937 -2,-3.5 -2.0937,-3.5938 -1.5,-4 0,-2.5937 -0.9063,-3.2188 -138.375,0 z m 3179.1563,330.7188 -4.0937,1.5 -3.5,5.0937 2.0937,4 0,2.5938 -3.0937,2.5 0.094,3.0937 1,5.625 2.625,4 4.0937,4 1.5,4.0938 2.0938,3 3.5,0 2.0937,-1 4.0938,3 0,1.5 -2.5,3.0937 2,6 2.125,2.5938 4,-2.5938 1,-1.5 7.1875,3 5.0937,5 2.5938,0 3,-2.0937 2,-1 2.625,-1.5 -0.125,-6.0938 -0.5,-4.625 -4.6875,-8.5937 -5.5938,-2 -6.5937,-2 -4.125,-2.5 -1,-2 -0.5,-4 0.4062,-3.5938 -1.5,-4 -4.0937,-3.0937 -4.0938,-3 -3.5937,-2.5 -2.5,-2.5 -3.125,-3.5 z m -201.2812,366.9062 -3.5938,4.0938 -4.5,3.5 2,6.0937 -7.125,-2.5 -2,2.5938 1,5.5 3.625,5.0937 2.5938,3 7.0937,1 6.5938,-1.0937 7.0937,-6.5938 3.125,1.5 3.5,0.5 2.0938,-0.5 -1.0938,-3.0937 -0.5,-2 -0.5,-2.5 6.0938,-0.5938 3.5937,-2 0.5,-2.125 -3.0937,-0.5 -2.5938,-0.375 -6.125,-1 -4.5,2 -1.0937,-1.5 -3.5,-2.5 -3.0938,-3.5 -5.5937,-2.5 z m -66.5938,20.6875 -3.125,3 -2.5,5.5938 1.625,2.5 2,0 3.5,-4.0938 1,-2 1.5938,-3 -1.0938,-1.5937 -3,-0.4063 z m 13.1875,2.4063 -2.5,2.0937 -1,4 -0.5,4.0938 0.5,2.5 2.0938,0.5 1.5,-2 2,-5.5938 0.5,-3.0937 -2.5938,-2.5 z m -116,7.2812 -2,2 0.5,3 0.5,3.625 0,3.5 -2,3.0938 -4.0937,0.5 -4,1.5937 -2.0938,-2 -1,-4.0937 -2.625,-2.5 -3.5,1 -2.5,6.5937 0,6.5938 3.125,5.0937 2.5,4 2.0938,3 2,2.625 3.5937,0.375 4.0938,-1 3,-1 2.0937,-1.5937 1.5,-3.5 -0.5937,-2.5 -2,-2.0938 -1,-2.5 1.5,-3 2.5,-2.0937 3.5937,-0.5 4.125,2 2,2 3.0938,1.5 2.5,1.5 3.0937,1 3,-0.5 2.0938,-1 1.5,-2.0938 -0.5,-3 -1.0938,-3 -2.5,-2.625 -3.0937,-1.5 -4.0938,-1 -4.125,-1.5 -2.5,-2 -2.5937,-3 -1,-3 -2.5938,-2 -2.5,0 z m 95.1875,6.5 -2,1.625 -1,3.5 0.5,3 3.625,1 2.5,0 1.5938,-3 -2.5938,-4.125 -2.625,-2 z m 35.2188,6.4063 -3,1 -2.5938,3.0937 -1,3 1.0938,2.625 2,1.5 1,-1 2,-3.125 2,-4.0937 0.5,-1.5 -2,-1.5 z m -81.4063,11.5937 -4.0937,1.125 -2.5,2.5 -1,4.0938 1.5,2 3.0937,0 3.5,-2.0938 1.5938,-2.5 0.5,-2.625 -2.5938,-2.5 z m -37.5937,13.9063 -5.0938,0.094 -4.125,2 -5,2.125 -4.0937,2.5 1.5,3.5937 2.0937,1.5 4.125,0.5 3.5,-0.5937 4.0938,0 5.5937,-2.625 7.0938,-2 1.5,-1.0938 1.5,-2 -1,-2 -4.5938,-1 -4.0937,-0.5 -3,-0.5 z m -119.0938,5.8125 -3.625,2 -3,6.0937 -1.5,7.5938 0,6.0937 2.125,5.125 4.0938,-0.625 3,-1.5 1.5,-4.5937 0.5,-6.0938 0.5,-4.5 -1.0938,-6.0937 -1.5,-3 -1,-0.5 z m -899.8125,7.9062 -3.0937,2.0938 -3.5,14.6875 1.0937,6.0937 0,8.125 -0.125,1.5938 25.3438,0 -1.8125,-6.3125 -1.5,-4.5 -6.2188,-12.1875 -1.5,-4 -8.6875,-5.5938 z m 992.0938,19.875 -2,1.625 0,4 2.5,2 3.0937,0 2.5,-1.5 0,-2.625 -2.5,-2.5 -3.5937,-1 z m -230.6875,0.8125 -3.5938,1 -1.5,2.5 -1.5,2.5938 -1,4 -0.25,1.8125 10.3438,0 -2,-4.8125 -0.5,-2.5938 0,-4.5 z"
     id="rect10"
     inkscape:connector-curvature="0" />
  <path
	 style="fill:#9FAEC0"
	 stroke="#9FAEC0"
	 stroke-width="10"
	 transform="translate(0, 25)"
     d="m 24.8438,3250.9063 3.9687,150 0,7.5937 -0.125,8.0938 2.625,99.5 0.1875,18 0.4062,14.5 0.2813,11.3125 0.2187,25.0937 0.094,16.8125 0.6875,105.875 0,2.125 1.9063,94.6875 1.4062,58.6875 1.6875,160.4063 0.625,39 0,0.7187 0,0.3125 700.4063,0 5.4687,-3.0312 2,-3.0938 0,-4.5 -1.5,-1.5 -3.5937,-1.0938 -1,-3 4.0937,-1 3.5,-4.5937 1,-5 2.625,-3.125 3.5937,0 1,-4 -1.5937,-2 2.0937,-6.5937 9.0938,-2 3.0938,-5.0938 1.5,2.5 -3.5,9.0938 -4.0938,7.0937 -4.0938,7.625 -3.5,3.5937 -4.0937,7.5 1.5,2.0938 2.5937,0.5 3,-5.0938 4.0938,-2.5 4.5938,-3.0937 2,-1.5 1.5937,-7.625 3.5,1 2.125,2.125 1.5,1 1.5,-2.125 2.0937,-2 2.5,0.5 -1,6.625 0,4.5937 -3.5937,2.5 1.5937,4 5.0938,-4 3,-2.5 2.0938,-4.5937 -3.0938,-3 2,-3.625 1.5938,-4 4.5937,-1 4,-1.5937 1.125,-3 0.5,-5.5938 8.5937,-11.5938 9.1876,-9.5937 7.5937,2.5 3.625,-4.625 2.5,-2 4.0937,-3.5 4.0938,-1.5937 2,3.0937 -2.5,6 -4.5938,10.2187 -6.5937,8.0938 -6.125,6 -9.6875,14.1875 -0.5,2.625 2.5938,0.5 9.0937,-9.2187 15.3125,-14.0938 4.0938,-9.1875 2,0 0.5,4.0937 4.5937,-1 6.7187,1 4.5,-3.5937 5.0938,-4.5 3.0938,-4.625 3.5937,-1.5 2,4 -4.0937,3.625 -4,12.0937 -2.5938,1 -2.5,5.0938 0.5,1.5 -6.5938,6.0938 -5.0937,8.0937 -0.5,11.125 -3.125,4.5937 -3,-0.5 -7.1875,5.5938 -1.8438,4.125 15.0938,0 1.0625,-2.125 2.0937,0 1.3438,2.125 3.125,0 0.125,-0.125 2.5,-9.5938 5.0938,-2.5937 4.0937,-7.125 3,-9.5937 -2.5937,-5.5 5.5937,-14.1876 7.7187,-13.7187 3,-2 -0.5,4 -2.5,16.7187 1.5,1.5938 2.5938,0.5 3.5,-8.0938 1.5938,1.5 -1,10.0938 -1,10.5938 -2.5938,11.7187 -1.5,2.5 -1,-2 0.5,-6.125 -3.5938,-10.5937 -2.5937,1 -3,10.5937 -5.125,10.7187 6.125,4 -1,5.0938 -0.2813,0.625 17.0938,0 1.5625,-3.2188 3.5,-19.7187 2.625,-9.5937 5.0937,3.5 2.5,4 -0.5,4.0937 3.0938,6.125 -1,10.5937 -4.5312,4.2188 13.6874,0 -0.4687,-5.2188 3.5,-8.0937 -0.5,-12.2187 1,-12.5938 -4.0937,0.5 2.5,-11.1875 0,-5.5 2.5937,-2.625 1.5,-1.5 1.5,-7.5937 -2,-7.5938 4.125,-0.5 3.5,-7.0938 1.5937,3.0938 1,7.5938 3.5,-5.5938 1.0938,-7.5938 5.0938,1 4,3.5938 -7.5938,11.0938 -0.5,4.5 3.0938,4.5937 -5.0938,0 -1.5,7.125 2,2 -5.0938,4.5937 -1,6.5938 2.0938,14.0938 2,1.5 3.0938,-3 6.5937,-2.5938 3.5,-4 0.625,-3.5 3,-2.0938 2,0.5 -4.5,13.6876 -2.625,9.0937 -2.5,6.625 -4.0937,3 -2.5,4.0937 2,1 3.0937,0 1.5,-3 3.125,-2.0937 5.0937,5.0937 -0.094,0.2188 28.125,0 0.4687,-1.3125 -1,-4.5 -3,2.5 -2.0937,-2.5 3.5937,-5.125 4.5938,-1.5 0,-4.5937 -4.0938,-9.0938 3,-8.5938 5.5938,-3.5 4.0938,-15.2187 1,-18.1875 -0.5938,-5.0938 -1,-4 -2.5,-1 -5.0938,0 -5.0937,1 -2.125,8.5938 -7.0937,2.5 -1,-5 4,-6.0938 4.5937,-6.0937 0,-9.625 4.625,-13.1875 -0.125,-26.8125 -2,-8.0937 0,-6.5938 1,-4.5 -0.5,-2.5 -3.5937,3 -3.5938,1 -2,-5.5938 -5.5938,-4.5 -1.5937,-12.0937 3.5937,-4.625 2.5,-6.0937 0,-8.0938 -1,-3 -2,-1.5 -3.0937,4 -3.625,5.5938 -1,4.0937 -3,-1.5937 -6.1875,1.0937 -5,5.5 -8.1875,8.625 -4.125,3.5937 -2.5,1.5 -4.5937,2.5 3,-10.5937 -3.5,-6.125 -1.0938,-5.5 1.5,-9.5937 2.0938,-6.0938 3.5,-4.5938 8.7187,3.5938 4.0937,2.5 4.0938,-9.5938 -0.094,-9.7187 0.5,-7 9.6876,-2.5937 6.2187,0.5 1,-6.0938 4,-4 1.5937,-9.5938 2.5,-12.7187 2.5,-5.5937 9.1876,3.0937 7.7187,-1.0937 5.5,-17.1876 1,-7.5937 3.5937,-8.625 1.5,-3.5 4.0938,-3.0937 3.0938,9.0937 3,9.625 7.7187,2.5937 -3.125,9.5938 -0.5,4.5 -2.5,4.0938 -6.5937,5.5937 -10.1876,2 -5.5937,2.625 -2.5,11.5937 -1.125,4.5938 -2,13.0938 -4,7.5937 -3.5937,8.125 0.5,4.0937 2.5937,9.5938 0.5,9.0938 -0.5,15.7187 3.125,10.5937 3.5937,6.5938 0.5,14.6875 2.5938,23.2187 -1,12.1876 -1,8.5937 2.5938,9.125 3,6.5937 2.0937,16.1876 0.5,16.7187 -5,16.0937 -2.0937,8.5938 -3,7.5938 1,3.5937 1.5,2.5 6.2187,3.5 1.5,2.625 2.5,-2.125 2.0937,-11.0937 0.5,-6.5938 3,-1 3.5938,1.5 1,2 -0.5,6.0938 -4.0938,5.5937 0.5938,8.125 -0.8438,0.8125 47.625,0 -0.375,-1.9375 5.5938,-9.5937 3,-10.5938 0,-7.0938 1,-7.0937 3.5938,-11.7187 -7.1876,1.5937 -8.5937,-2 -5.625,9.125 -7.5937,22.7813 -1.0938,4 -6.0938,6.5937 -2,-5.5937 5.0938,-17.1876 7.0938,-16.7187 2.5,-10.0937 -0.5,-9.0938 -1.5938,-8.5938 -3,-5.0937 -2.5938,0.5 0,-3 -3.5937,4.5937 -1,8.5938 -7.625,4 -2.5937,-2.5 -4.0938,-7.5938 1.5938,-3.5 0,-10.0937 -5.1876,-5.625 -3.5,-6.5937 0.5,-2.5 1.5,-0.5 7.0938,3 1.5938,4.0937 2,-1.5937 -0.5,-14.0938 3.5,-4.0938 3.0937,-6.0937 -3.5937,-6.5 1.5,-2.625 3.5937,1.5 2.625,-2 3.5,0.5 -3.5,4.625 0.5,7.5937 -2,10.0938 0.5,2.5 2,1.5 2.5937,-1.5 5.0938,-7.5938 2.5,-7.0937 -1,-12.625 2,-11.6875 6.0938,-3.5 7.5937,1.5 2.125,-5.5938 7.0937,3 2.0938,-1.5 -0.5938,-4.5 -0.5,-4.0937 2.0938,-1.5 1.5,0.5 2.5,-0.5 14.3125,-32.9063 1.5,-5.0937 5.0937,-8.625 -1.5937,-1.5 -3,2 -1.625,-3 0,-3.5937 1.625,-2 3,-1.5 5.0937,-0.5 2,-7.0938 1,-6.0938 1.5938,-2 4,0 2.5938,1 4.0937,-1.5937 6.625,-6 0.5,-6.125 7.0937,-10.6875 3.5938,-6.5 3,0 1.0938,2 -2.0938,8.0938 2.5938,6 0.5,6.5937 -8.0938,0.5 -3.5938,4.125 -3.5937,2.5 -6.125,9.1875 3.125,5.5 -3.625,7.5938 -4.5,3.5937 -2.5937,9.125 -5,14.1875 -7.0938,26.3125 -3.5938,17.6875 0,3 3.0938,-0.5 5.5938,-4 9.7187,-7.0938 5.5937,-1.5 2,4.5 7.6876,3.5 8.0937,2.5938 3.125,5 -5.125,16.1875 -4,6.125 -2.5937,-2.5 -1.5,-9.7187 -2.5938,-3.5 -5.0938,-5 -5.0937,-0.5 -6.625,4.5 -1,9.5937 -2.5,19.8125 -1,10.0938 -1.5937,9.0937 -4.5,2.125 -4.5938,-0.5 -3.5938,4 -1,3 2,2.5937 2.0938,1 2.5,-2 7.1875,2.5 -0.5,7.5938 0.5,7.5 13.3125,3.5938 1.5,4 8.1875,-4.5938 9.125,-0.5 -5,12.6875 1.5,6.125 3.0937,5.5 4.5938,1 4,-16.2187 3.0938,-5 2.5,-2.0938 0,-5.5 2,-5.0938 3.0937,-0.5 6.625,-2.0937 1.5,2.0937 -2,6.5938 2.5937,2 -2,9.5938 -2.0937,17.2187 -5,2 -3.625,2.0937 0,11.5938 10.7187,-1.5 5.5938,-8.6875 4.5938,-9.625 3.5,-13.5937 1.5,-14.1876 -4.5938,-6.5937 -4.5938,-5 -0.5,-5.125 -3.5937,-1 -1,-4.0937 2,-5.5 -1,-17.1876 4.0937,-1 5.5,-12.7187 2.0938,-4.0937 -0.5,-6.5 -3.5938,-5.5938 -4.5937,5.0938 -4.125,1 -3.5,9.5937 -4.0937,0.5 2.5,-11.0937 3.5937,-5.0938 -1.5937,-3.5 9.2187,-28.4062 1,-2.5 2,-11.0938 2.5,-7.0938 2.5937,-4.0937 0.5,-6.625 3,-5.5 6.5938,-0.5937 2.5938,-8.0938 5.5937,-9.0938 1,-5.5937 -1.5937,-6.5 2.5937,-8.625 0,-7.5937 8.625,-9.1876 4.0937,-0.5 0,11.6876 -2,2.5 -2.0937,3 0.5937,3.5937 1,13.7187 -5.5937,15.0938 -2.5,0.5938 -2.125,1 -7.5937,9.0937 -3.5938,3.5 -3.5,10.7187 -8.5938,23.7813 -3.0937,11.125 2.5937,2 0,4.0937 5.5938,-0.5 4.5938,-4.0937 1.5,2 -2.5,5.0937 1.5,7.5938 -2,9.0938 2.0937,11.0937 -1,8.125 -2.0937,2.5937 -1,3 1.5937,6.0938 1.5,2.5 -0.5,6.0938 0,7.5937 -1.5,2 0.5,9.125 2,0 2.125,3 -3.625,4.0937 0.125,11.0938 3.5,3.5938 3.0937,6.5 4.0938,-1 1,-6.0938 -1.5,-2.5 0.5,-6.5938 4.5,-8.5937 1,-2 -2.5,-6.625 -4.5938,1.5 -2.5937,-5.5 1.5,-8.0937 5.0937,-4.5938 1,-6.5938 0,-6 -3,-1.5 -1.5937,6 -1.5,3.0938 -2.5,-0.5 -0.625,-11.6875 2.125,-3 4.5937,0.5 2.5,-2 -2,-3.625 0.5,-7.0937 1,-9.0938 3,-2.5 1.5938,2 -2.0938,10.5938 1.0938,1.5937 2,0 1,-3.0937 5.5938,-6.0938 1.5,2.0938 -0.5,3 1.0937,7.0937 -5.5937,8.625 -1,7.5937 -1.5,8.5938 0,3.5 7.0937,2.5 11.2187,-10.0938 -0.5,-14.7187 3.5,-1.5 3.5938,11.625 -3.5,10.1875 -2,4 -2.0938,-0.5 -2,-1.5 -2.0937,3 -1,3.5938 4.0937,4.5 -1.5,6.5937 4.0938,9.625 1,9.0937 2.0938,4.5938 -2,12.0938 2.5,0.5 3.0937,-2.5 1.5,-1.5 2.625,0 1.5,-6.0938 5,-12.1875 3.0937,-10.125 6.0938,-12.1875 -5.0938,-0.5 -0.5,-3 6.5938,-2.5 0.5,-3.0938 4,-11.0937 2.0938,5.0937 2.5,-2.0937 9.7187,-21.3125 2,-21.6875 4,-16.7187 -2,-0.5 -3.125,3 -1.5,0 0,-4.5 1.5,-4.0938 6.625,0 5.5937,-24.3125 9.5938,-20.2813 -1,-6 5.0938,-6.0937 4.5937,-1.625 -2.5937,7.625 0.5937,5.0937 -2.5937,6.0938 0.5,1 1.5937,1 2,-1 2.625,-2.5 5.0937,-4.0938 5,-8.5937 4.0938,-5.625 5.0938,-8.5937 3.5,-6.5938 -1.5,-3 -3.5938,-3.5938 -5.5938,-1 -3.0937,-6 3.5937,-12.2187 6.5938,-1.5 3.5938,-5.5937 2.5,-7.0938 4.5937,-3 2.5,2.5 -2.5,11.0938 -1.5,10.0937 6.125,0.5 4.5937,-11.0937 1,-8.5938 -2.0937,-13.6875 -10.7187,-9.125 -1,-6 3.5,-8.6875 4.5937,-1 5.125,13.6875 6.5937,1.5 7.1876,-0.5 6.0937,0.5 0,5.5 0.5,7.625 3.625,4.0937 0,7.5938 -6.125,6 -0.5,6.0938 -11.6875,7.0937 -4,6.125 -4.0938,4.0937 3.0938,3.5 9.5938,-2.5 5.0937,-9.2187 2.125,2.625 -6.625,22.1875 -4.6875,10.8125 -3.9062,8.5 1,11.0937 -4.5938,12.1876 1.0938,2 3,0.5 3.5937,-2.5 4.625,-6.0938 1,-3.0938 -2.625,-2 1.5,-3.5 4.625,-4.0937 4.0937,1.5 1,4.5937 -2.5,8.0938 0.5,1.5 2.0938,0 2.5,-1.5 6.0938,-4.0938 1,-4 4.5937,-2.5937 3.125,-5 1,-8.125 2,-0.5937 2,0.5 3.0937,3.5937 4.0938,-1.5 6.5938,-9.1875 1.5,-1.5 2.0937,3 -6.0937,10.6875 -4.0938,3 -3.0938,4.625 2.0938,1 2.5,-3.125 1.0938,1.625 -1.5938,7.5937 -5.5,6.5938 -1.0938,7 2.0938,1.0938 3,-4.0938 1.5938,0.5 1,2.5 -2.5,8.5938 -6.0938,5.0937 -4.5938,6.625 2.5,3 7.1876,-2.5 6.5937,-14.7187 6.125,-2.5938 5.5937,-0.5 2,-7.5938 -2,-6.5 -2.5937,-4.5937 1,-5.125 3.5937,-7.0937 3,-4 6.6876,14.0937 9.0937,-4.5 2.125,-9.0937 4.5,-5.5938 -1,-6.0938 6.5937,-5.5937 2,-8.625 -2,-4.5 6.0938,0.5 3.5938,7 7.0937,-1.5 5.125,-3.5937 3.0937,-5.5 6,-9.6876 2.0938,-5.5 0.5,-8.0937 -1.5938,-4.625 -1.5,-4.5 4.5938,-0.5937 2,3.5937 2.5938,-1 2.5,-5.5937 3,-8.0938 3.5937,-6.0938 5.125,-6.0937 3.5,-2 3.0937,1 3.5938,4 -4.0938,11.6875 -3.5,1 -2.0937,-4.0938 -2,5.0938 -1.5,3.5938 -1,3.5 -2.625,3.5937 0.5,4.5 -1.5,6.125 -5.0937,4.5937 -3,5.5 -6.0938,6.5938 -11.1875,15.1875 1.5,2.625 9.1875,-5.625 1.5,3 -8.5938,6.125 -3,10.0937 -2.5937,0.5 -0.5,-4 -4.625,-0.5 -2,1.5 -3.5937,8.0938 -2,6.5938 -3.0938,4.0937 -6.0938,2 -5.5937,0.5 -1,7.625 -4.125,3.5937 -1,4 6.2187,5.0938 -2.5937,4.5 -9.2187,-1.5 -5,1.5938 -1.0938,7.0937 3.5938,3 5.0937,-1 -2.5,6.625 -1.5,5.5 6.625,2.5 5.5937,12.1875 -4.5,4 0.5,2.5938 13.6876,-8.6876 2.0937,-6.5937 7.125,-1.5 2,-3.5 1.5,-3.625 -1,-4 3.5937,0 2.5,3.5 -1,3 3.0938,0 1,3.125 3.5938,1.5 3,-1.625 0.5,-7 9.2187,-8.1875 3,-6 1.5937,-5.0938 -0.5937,-4.0937 -5.625,-2 -4.0937,0.5 -1.5,2.0937 -4.0938,1.5 -1,-3.5 4.5938,-4.5937 5.5937,-1.5 0.5,-4.625 3.625,-2 2.5,-5.5937 0.5,-5.0938 -5.125,-1 1,-9.0938 3,-3.5 1.625,-7.5937 2,-1 1.5,8.0937 -0.5,2 2.0937,2 6.0938,0.5 3,-3.5937 -1,-5 5.0938,-4.125 3.0937,-0.5 2.5,2.5 5.125,-1.5 14.7813,0 4.0937,0.5 3,-4.5937 0.5,-3 1,-2.5938 3.125,-7.0938 3.5,-3.5 3.5937,-4.0937 1,-4 -3.0937,-5.125 -12.2187,-1.5 0.5,-6.5937 2,-6.5 3.5937,-3.5938 -10.2813,-14.0938 3.0938,-2.0937 5.0938,3.5937 2.5,1 3.0937,6 -0.5,10.6876 2.125,1.5 4.0937,0.5 6.0938,-8.0938 3,2 -5.5,13.5938 8.0938,3.0937 2.5937,-4.0937 4.5,-3 11.3125,-1.5938 3,-6.5938 -4.0938,-5 -2.0937,-9.0937 1.5937,-3.125 5.5938,3 1.5,-1 0,-6 5.5938,-3.5937 3,-1 5.0937,-14.1876 5.125,-9.5937 -4.125,-3.125 -5.0937,1.125 -5.0938,3.5 -2,-2 -3.0938,1 -3.0937,0.5 -4.5,2.5937 -6.7187,4.5 -5,-0.4062 -4.0938,4 -3.5938,3.0938 -1.5,-1.5938 1.5,-5.5 -2.0937,-7.5938 3.5937,-2.0937 0,-4.5 -2.5937,-1 -0.5,-3.625 4.0937,-2.5 -1.5,-3 -2.0937,0.5 -1.5,-3.0937 3,-2 2.0937,-4 1.5,-5.0938 4.0938,-0.5 6.0938,6 5.5937,-4.5 0,-6.5938 2.5,-7.0937 0.5,-3.625 -1.5,-0.5 -2.5937,-0.5 -2,0.5 -7.1876,3.125 -1.5,-5.625 4.5938,-3 1,-2 3.5938,1 0.5,-2.0937 1,-5 0.5,-1.5 0.5,-3.5938 1,-14.6875 3,-13.7187 -1.0938,-10.5938 3.0938,1 6.0937,9.0938 0.125,5.5937 4,3 4.5937,-6.0937 -5.0937,-8.0938 3,-10.0937 3.0937,-5.5938 -3.0937,-7.625 -4.125,-2.5 0.5,-3.5 4.625,-7.0937 3.5,-0.5938 0.5937,6.0938 4,0.5 0.5,-11.5938 -0.5,-7.0937 3,-7.0938 3.0938,-4.125 2.5,-4 4.0937,-10.1875 12.5938,-21.3125 4.625,-5.0937 1.5,-7.0938 -2,-6.5 4.5,-13.1875 10.6875,-3.125 3,-1.5 3.0937,4 6.5938,-7.5937 8.7187,-9.0938 8.5,-24.9062 2,-23.7813 -1.5937,-13.2187 -4.625,-10.0938 -8.0938,-7.5 -10.7812,-5.5937 -5.625,-7.0938 1,-2.5 3.125,-1 1.5,-4.625 -4.625,-11.0937 -6.6875,-14.1875 0,-3.5 1,-3.0938 2.5937,-1.5 8.0938,-0.5 7.625,1.5 6.1875,0.5 3.5,-2.125 4.5937,-1 3.0938,3 3.5,1 3.625,-3 3,-4.5937 6.5937,-6.0938 2.0938,-4.5937 4,-7.5938 5.5937,1.5 7.2188,1.5 5.0937,-2 1.4063,-12.2187 1,-4 7.1875,3.5 6.0937,-2.5938 10.0938,-14.1875 8.2187,-4.125 4.5938,-1.5 2.5,6.125 -3.5,3 -5.5938,6.0938 -3,15.1875 0,8.0937 8.0938,-3 5.5937,-1.5937 3.0938,-4 6.625,-3.0938 2,-4.5937 5.5937,-2.5 5.5938,-1.5 3.5937,-3.0938 -4.0937,-3.5 -9.1875,1 -4.125,-7.125 -5.0938,-8.0937 3.5,-5 7.2188,-5.5938 5.5,-5.0937 6.6875,-0.5 -0.094,-15.8125 -0.5,-13.0938 0.6562,-11.5937 -1764.2187,0 z m 1773.0312,0 -0.375,5 2.0938,7 2.5,5.0937 4.0937,5.5938 1.125,5 3.5,6.0937 5.0938,-3.0937 7.0937,-16.1875 2.5,-6.5938 -2.2812,-7.9062 -25.3438,0 z m 38.2188,0 -0.9063,5.2812 -2,7.625 -3.5937,8.6875 -2,6.5938 -7.5938,11.0937 -5.0937,4.125 -0.9063,11.1875 -3.5937,9.0938 -1.5,5.5937 -3,11.125 3.0937,8.5938 0,6.5937 -5.0937,-2 -4.5938,1 -1.5,2.5938 -2.5,7.5937 -2.5,10.625 -4.625,0.5938 -4.0937,1 -2.5,6.5937 1.5,5.5 -3.5,13.1875 0.5,3.625 4.5937,-2.125 4.125,0.5 -3.625,8.125 -6.5937,1.5938 -0.5,2 0.5,1.5 0.5937,4.0937 0,6.0938 1.5,2.5 8.7188,0 9.0937,-6.1875 2.5938,-4 2,-1.5 1,-7.0938 -4.5938,0.5 -3.0937,-3.5 9.1875,-2.625 10.2187,-1.0937 2.5,-5.5 2.5,-8.6875 0,-9.5938 1.5,-1.5 5.5938,-2.125 3.0937,-1 2.5,-4 1.5,-2.5937 5.5938,0 5.5937,1 2.625,-3.0938 2.5,-8.5937 0.5,-3.5 1,-4.0938 -1,-4.5 -3.625,-4.625 -1.5937,-4 1,-2.0937 3.0937,-2 4.625,-0.5 5.0938,2.5 3.0937,4 5.0938,3.0937 2.5,2 2.5937,6 -2,4.625 -9.1875,1.0938 -3.5937,3.5 -1.4063,16.1875 1,9.2187 3.5938,4 5.0937,3 5.125,-2 2.5,2 4.0938,8.5938 -0.5,3.5 1.5937,2.0937 4.5938,2.5 5.5937,1 2.5,3.5 3.125,6.5938 3.5938,2 3,1 2.0937,2 -1,3.5937 -0.5,3 2,4.625 1.0938,3.5 -3.5938,4.5938 -5.0937,0 -4.5938,-5.0938 -3.125,-12.625 -1,-5.0937 -1.5937,-3.5 -4.5,-0.5 -3.0938,0 -6.0937,-5 -4.0938,-6.5938 -2.625,-5.0937 -3.5937,-2 0.094,4.0937 3.5,6 -5.0938,-2 -4,-2.5 -4.5937,-3.5 -2.0938,-1 -6.0937,-1 -3.625,0 0.5,-5.5937 -2.5,-3 -4.5938,-1.5 -1.5,2 -1,8.0937 -2.0937,4.5938 -6.5938,7.0937 -5,5.125 -1.5,3 -1.0937,4.0938 1.5937,3 4.5938,4.0937 6.0937,2 1,1 -4,3.5 3.5,4.5938 0.094,4.5 0,3.5937 -3.0937,4.625 -4.0938,1 -8.5937,-8.625 -3.5938,-7.5937 -2.625,-3 -4.5937,-3.5 -4.0938,1 -2.5,2 1,1.5 5.5938,5.0937 0.094,3.5 -8.6875,8.2188 -8.5938,6.0937 -4.5937,2 -4.5,18.8125 3.0937,6.5 4.5938,3.5938 -2.0938,2.5 -6.5937,1 -0.5,8.6875 4.5937,4.5 2.5938,1.5 2.5,1 5.5937,1 5.5938,0.5 6.2187,-1 3,-10.1875 -1.0937,-4 6.1875,1.5 4.5937,2 3.5,-2.0938 0,-10.125 0.5,-7.0937 4,-3.5 2.0938,5 -1.5,4.5937 1.5,2.5 4.125,-4.0937 1,-6.5 0.5,-3.5938 2,-3.5 3.5937,-0.5937 2,2.5937 -3,10.5938 4.5938,1 3,-9.0938 2.5,-2 3.0937,2 3.0938,7.5938 0.5,4 1.625,6.5937 5.5937,5.5 5.0938,2.5 4.0937,4.125 6.0938,2.5 5.125,3 3.5937,11.0938 6.0938,2.5937 1.5,-6.0937 3.5937,1 7.2188,7 4,1 7.6875,1 8.6875,3.5 9.7187,2 1,-6.5938 4,-7.125 3.5938,1 6.5937,-7.0937 0.5,4.5937 -6.0937,10.125 -4,6.5938 2,8.0937 12.8125,3 8.6875,5.5938 6.5937,7.5 6.0938,1.5 4.125,0.5 2.5937,1 -1.5,6.5937 2.5,5.125 15.2813,4.5 -0.375,6.5938 -0.5,3.5 4.5,3 5.1875,3 6.5937,3.5937 6.0938,-0.5937 0,-9.5938 -3.5938,-8.125 -2.0937,-7.5937 -10.6875,-7 -6.625,0.5 -3.5938,-9.5938 -1.0937,-7.5937 2.5937,-2.5 3.5,-0.5 2.5938,1.5 2.5,5 7.2187,8.0937 8.6875,0.5 3.5,1 1,-4.5937 -2,-3.5 -6.1875,-9.5938 -2,-11.2187 2,-7.0938 -1.0937,-3.5 -1.5,-4.0937 -4.625,-1 0,11.1875 -10.6875,0.5 -0.5,-6 -3.0938,-3.0938 -5.0937,-6.5 -3.625,-10.6875 2,-10.125 -1.5,-4.5 3,-8.6875 6.625,-11.0937 4,-7.5938 2.0937,-4.625 -2.5937,-8.0937 -2.625,-10.0938 -3.5938,-0.5 -3,3 -2,7.5938 -3.0937,5.5937 -2.5,6.625 -1.5,3.5938 0.5,7.0937 -4,6 -7.0938,5.5938 -1.0937,-4 2.5937,-4.5938 -1.0937,-4.5 1,-3.5937 1.5,-6.0938 3.0937,-5 2.5,-5.625 3.5,-6.5937 3.5938,-8.5938 2,-8.1875 -3.5938,-4 0,-6.125 1,-4.5 -5.0937,-2.5 -0.5,-6.0937 -7.7188,-1.5 -0.5,-5.5938 5.5938,0 3.5,-2.0937 9.2187,7.0937 6.6875,1 10.7188,6 7.5937,1 5.0938,-9.0937 0,-3.5938 -2.0938,-5 5.5938,0.5 6.0937,2.5 5.0938,-0.625 3.125,-0.5 1,-4 1.5,-8.0937 0,-9.1875 6.0937,-2.5 -0.094,-9.5938 2.5938,-4.125 2,-9.5937 2.9999,1 5.0938,4 0.5937,4.5937 -3.0937,2 0.094,11.625 -2.5937,4.0938 0,7.5937 4.6875,20.3125 -4,5.5 -3.0938,10.1875 4.2188,12.0938 8.5937,1 7.0938,-7.0938 -4.0938,-3 0,-13.6875 4,-14.2187 -1.5937,-8.5938 -5.125,-12.1875 -3.0938,-6.5 2.5,-6.125 4.0938,0 2,-5.5937 -1,-8.5938 -3.5938,-8.5937 -2.5937,-6.5938 -1,-3.5 0,-6.125 -1.0938,-5.5937 -4.5937,-5.0938 -7.125,-2.5 -9.1875,-1.4062 -0.5,-2.0938 4.0937,-2 12.7188,2.5 5.5937,-0.5937 3.0938,3.0937 6.0937,1.5 4.0938,4 4.125,1.5 5.5937,1.5 2.5,-2 -0.5,-11.1875 2,-5.625 1,-5.5 7.0938,6.5 1.5937,10.7188 0.5938,15.6875 -3.5938,5.5937 -2,16.2188 1.5938,13.0937 0,5.0938 -0.5,5.0937 -3,6.625 0.625,7.5938 0,7.0937 2.5,3 -3.5,11.6875 2.5937,5 6.0938,1 6.0937,-2.5937 2.5,-4 1.5938,-2 0.5,-3.0938 5,-2 2.125,-4.0937 3,-2 2,-1.5938 1.0937,-2 0.4063,-5.625 0,-13.0937 7.0937,1.5 5.6875,5 10.0938,-11.6875 6.625,-9.0938 -2.125,-12.2187 -3.5938,-15.1875 4,-20.3125 3,-4.5 2.5938,3 0,16.2187 -2,5.0938 2.625,13.6875 4.0937,6.5 4.0938,4.0937 8.6875,-0.094 1.4062,-12.0937 5.0938,-0.5938 5.7187,4.0938 4,2.5 4.5938,4.5 6.1875,2 6.625,-1 9.0937,-4.0938 5.0938,-4.0937 -2.5938,-3.5 -8.5937,-1 -5.125,-2 -4.0938,-8.125 2,-3.5938 8.0938,1.5 5.7187,1 5.0938,0.5 1.5,-6.5937 -3.0938,-8.5938 -5.7187,-10.5937 -7.0938,-3.5 -1.5937,-5.125 -5.5938,-0.5 -7.5937,0.625 -13.3125,0 0,-3.5 4.0937,-3.125 4.5938,0 -3.5938,-9.0938 -8.6875,-5 -0.5,-3.0937 3.5,0 1,-2.5 -2,-6.0938 -340.3125,0 z m 352.3437,0 4.75,9.0937 3.625,8 3.5938,2.5938 3,-0.5938 2.0937,-1.5 2.5,-2 2.5938,-1 4,-1.0937 6.0937,1.5 2.125,0.5 3.5938,9.0937 -6.5938,5.0938 1,5.0937 4.6875,9.625 8.6875,13.0938 6.625,8.5937 4.0938,4.5 5.5937,3.5938 2.0938,0 1,-2.5938 -2.5938,-4.5 -1,-8.0937 3.5,-8.7188 -2.0937,-9.0937 5.0937,1.5 2,-3.5 -2,-3.0938 1.5,-7.0937 3.5,-11.0938 -10.1875,-8.125 -16.5312,-9.7812 -46.3438,0 z m 59.8125,0 15.75,11.2812 9.1875,0.4063 8.7188,5.5937 -0.5,2 -6.7188,1.125 -2,2 2.125,17.6875 6.6875,7.5938 2.5938,6.0937 3,6 -2.5,1 -4.0938,2.625 1.5938,4 7.0937,0 6.125,-0.5 3.5938,-0.5 6.5937,-5.125 0,-1 -5.0937,-8.0937 0.4062,-4.0938 3.5938,-9.0937 -4.0938,-5.5938 -0.625,-3 3.125,0 12.2813,9.5 8.0937,4.0938 2.125,5 -6.125,2.0937 -2,1.5 4.625,5 5.0938,2 3.5,-7.0937 11.1875,5.0937 7.2187,5 5.0938,5 -2,3.5938 -9.2188,-1 -4.5,11.2187 -0.5,9.5938 2.625,9.5937 0,6.5938 2.0938,9.5937 2.0937,6.625 3.5,1 -1,5.0938 -2,3.5 0.5938,7.5937 2.5,6.0938 3.0937,3 0.625,13.7187 4.0938,8.0938 1.5,4 5.0937,1 1.5,-6.5938 -4.0937,-11.625 5.0937,0.5 0,-4.0937 2.5,-1.5 3.0938,4 4.5937,4.5937 1.125,6 -2.625,4.625 -0.875,10.1875 -0.5,7.5938 0.5,5.5 2.0938,8.0937 4.5937,1 5.5938,1.5 -1,4.125 -1.5,3.5 1,4.5938 4.5937,1 3.5,-4.5938 6.7188,-1.125 3,-4.5 -1.0938,-6.5937 -2.5,-6.0938 1,-9.5937 5.5,-1.5938 0,-3 2.5938,0.5 4.5937,8.5938 3.0938,-0.5 -0.094,-8.0938 -1.5,-7.625 3,-4.0937 0,-5.5938 -2.0938,-3 8.6875,-4.0937 2,-3.5 -1.5,-2.5938 -2.5937,-4 -3.0938,-1.5 -2.5937,-8.125 3.5937,-1 4.0938,4 5.5937,-9.1875 1.5,-1 1.5,0.5 1.0938,5.5938 0,4.5937 5.125,11.125 5.0937,2.5 -2,3 2,1.5 4.5938,0.5 3.5937,-11.125 2,-5.0937 5.0938,2.5 4.5,-3.5938 -2.5,-8.0937 -7.6875,-5.5 -1.5938,-9.0938 -3.5937,-10.625 -3.625,-10.1875 2,-8.0937 -3.0938,-1 -3,4.5937 -6.5937,-3 -2.0938,-6.5937 -2.5937,2.0937 0.094,4 -0.5,12.1875 -3.5938,0 -1.5,-14.6875 -1.625,-3 -1,-7.5937 -5.6875,-4 -1,-7.5938 0,-2.625 -1.0937,-3 -2.5,-6.0937 -0.094,-4 1.5937,-2.5938 10.1875,6.5938 3.0938,5 0.5,10.0937 6.125,3.125 3.5937,1 2.5,-5.625 4.5938,-6.0937 3,-8.6875 0.5,-5.5 -3.0938,-12.7188 -5.5937,-0.5 -0.125,-5.5 5.7187,0.9063 4,0 2.5938,-3.5 7.0937,0.4062 -2,3.5938 0,7.0937 1.0938,6.625 0,6.5938 -2,6.5937 -5.5938,3.5 1.5,1.5 5.0938,1.5 0,3.0938 3.125,4.5 5.6875,12.2187 -0.5,12.5938 4.0937,10.5937 2.0938,8.5938 3.625,8.5937 5.1875,6.125 4.5,0.5 2.5937,-0.5 2,-2.625 -0.5937,-11.0937 -1,-3.0938 1,-5 -1,-7.0937 0.4062,-6.5938 -1,-3.625 1,-5 4.0938,-0.5 -1.0938,-6.0937 2,-5.5938 -0.5,-4.0937 -4.0937,-4.5 -4.625,-0.5 1,-9.5938 6.625,3 4.0937,-6.625 2,-6.0937 2.5,-4.0938 7.5938,-1 0.094,2.5 -5.0937,4.5938 0,7.0937 1.0937,5.125 1.5,6.5 3.0938,5.5938 3.125,7.5937 -1.5,1.5 -6.2188,-5 -2,1.5 0,3 0.5,3.0938 0.5938,6.0937 1.625,11.125 -4.125,5.0938 2.125,7.5937 0.5,9.0938 2.5937,5.5 3.0938,8.5937 2.5937,7.625 2.5938,2.5 1,-0.5 1.5,-1.5 0,-3.5 -2.5938,-4.125 4.0938,-1 3,-5.5937 -3.5938,-2.5 0.5,-3.5938 2,-10.5937 2,-13.2188 3,-12.1875 1,-6.0937 2,-3.5 0.5,-1.5 -3.5937,-3.5938 0,-2.5 -2.0938,-11.625 -3.0937,-1.5 -1,1 -2,-4.0937 0.5,-7.5938 2,-4 9.0937,0.9063 2.0938,1 6,-11.7188 3.0937,2.125 -3,11.0938 -2.5,4.5937 -5.0937,-0.5 1,5.5938 1.0937,5 7.0938,1.5 5.125,-7.0938 4.5,-5.5937 1.5,-14.2188 -2.125,-3.5 1.5,-10.6875 -6.6875,-14.0937 -4.0938,-3.5 -0.5,-5.5 -285.6562,0 z m 308.8125,0 -0.25,1.7812 0.5,3.5 0.5938,2.125 1,1.5 2.5,1 4.0937,0.5 2.5938,-2.125 -0.094,-5 -0.5,-3.0937 -0.094,-0.1875 -10.3438,0 z m 27.4063,0 0.3437,3.6875 6.1875,2.5 8.0938,-0.094 2.5,-3 0.3437,-3.0938 -17.4687,0 z m 50.5312,0 0.1875,0.4062 5.625,1.5 -3.5,3 -3.625,2.5938 1.625,5.5 -1.5,4.0937 -0.5,6.0938 -1,7.0937 3.0938,2 5.0937,0.5 1,-4.5937 1,-5.0938 0.5,-5 0.4063,-5.5937 3.5937,-4.5938 4.5938,0 3,2.5 -2,5.0938 -2.5,5.5937 -0.5,3 -1.5,4.0938 3.0937,4 5.625,-2 4.5,-4.5938 2.0938,-3.0937 2.5,-9.5938 1.5,-3.625 -1.5938,-0.5 -3.625,-3 1.625,-4.5937 1.9688,-1.1875 -30.7813,0 z m 100.5938,1.9062 -2.0938,1.5 -2.5,2.5 -2,4.5938 -2,5.5937 0.5,4 2.5938,2.5938 3.5,0.5 2.0937,-1.0938 3,-2 2,-2.5937 1.5,-4 0,-4.5938 -1.5,-4 -2.5937,-2.625 -2.5,-0.375 z m 21.4062,1.875 -4.5937,5.125 -5,9.0938 -6.0938,9.1875 2.5938,7.5937 -0.5,7.625 5.1875,8 1,6.0938 4.0937,8.0937 -2,4.0938 2.125,8.0937 2.5938,6.5 6.5937,-1.5 2.5,-1.5937 6.5938,-3.5 1,-1.5938 -3.5,-1.5 0.4062,-7.0937 -1.5,-5.5 3.5,-3.0938 5.0938,-1 -3.0938,-3.125 -7.0937,-8 -2.0938,-3.5937 0.5,-3.5 -2,-2 -7.2187,-3.5 L 2755,3277 l 2.0938,-4.5937 1.4062,-14.7188 -1.5,-3 z m 27,4.4063 -8.0937,3.5937 -0.5,4.5 12.6875,2 3.0937,4 -2,7.125 9.625,-8.125 4.0938,2.5 3.0937,-0.5 0.5,5.5 3.5938,4.625 4.0937,0.5 6.625,-2.625 -5.2187,-7.0937 L 2811,3267 2797.6875,3260 2784,3259.0938 z m -74.9062,1.4062 -2.5,2.5938 0,4.5 2.0937,4.0937 4.625,-0.094 2,-3.5 0.5,-3.5937 -3.125,-3.5 -3.5937,-0.5 z m -134.4063,7.3125 -2.5,2 -0.5,4.5938 1.5,2.5 1.125,2.5937 0,1.5 3.5,4 3.0938,1.5 3.5937,0.5 2,1.5 0.5,2 -5,5.5938 5.0938,3.5937 6.0937,-6.1875 1.5,-2.5 -4.5937,-6.0937 -2.0938,-3 -3.5937,-5.5 -2.5,-3.5938 -1.0938,-1.5 -1.5,-2 -4.625,-1.5 z m 204.8125,5 -2.0937,1.5 0.094,3.5938 2.5,2.5 3.0937,0 2.5,-1.5938 0,-2.5 -2.5937,-2.5 -3.5,-1 z m -60.0937,6.875 -2,1.5 0,4.125 3.0937,2 2.5,0 2.5938,-1.5 -0.094,-2.625 -2.5,-2.5 -3.5938,-1 z m 78.5,4.125 -4.0938,0.094 -2.5,1.5 -1,3 -1,3.5938 1,2.5 2,2 2.5938,2 3.5937,1 2.5,0 2,-1.5 1.5,-4.5938 0.5,-2.5 -1,-3.5937 -3.5937,-3 -2.5,-0.5 z m -109,2.1875 -2.5938,1.5 0.5938,3.5 2.5,2.5 2.5937,0 3,-1.5 -0.5,-2.5 -2.5937,-2.5937 -3,-0.9063 z m 29,1.3125 -2,1.5 0,4.0938 2.5937,2 3,0 2.5938,-1.5 0,-2.5938 -2.5938,-2.5 -3.5937,-1 z m 15.7812,1.5 -2,1.5 0,3.5 3.125,2.5 2.5,0 2.5938,-1.5 -0.094,-2.5 -2.5,-2.625 -3.625,-0.875 z m -167,1.7813 -0.5,0.5937 -1,3 -2.0937,1.5 -2.5,0.625 -2.5,2 0,3 1.5,1.5 3.0937,0.5 3,0 1.5,-1.5 1.625,-2.625 0.5,-2 -0.125,-2.5 -1.5,-2.5 -1,-1.5937 z m 101.3125,1 -2.5,2.0937 0.5,3.5 2.5938,2.5 2.5,0 3.0937,-2 -0.5,-2 -2.5937,-3.0937 -3.0938,-1 z m 18.4063,6 -2.5,2.0937 0.5,3.5 2.5,2.5 2.5937,0 3,-1.5 -0.5,-2.5937 -2,-3 -3.5937,-1 z m 107,3 -2.5938,2 0.5938,3.5937 2.5,2 2.5937,0 3,-1.5937 0,-2.5 -2.5937,-2.5 -3.5,-1 z m -197.5938,1 -3.625,1.0937 -1.5,3 0.5,1.5 1.5,0.5 1.625,0 1.5,0.5 0.5,1.5 0.5,2.125 2.0938,0.5 1,-1.125 1.5,-2 1.5,-1.5 0.5,-1.5 0,-2.5937 -1,-0.5 -1.5,0.5 -2.5938,-0.5 -2.5,-1.5 z m 134,14.5 -2,2.0937 0,3.5 2.5,2.5 3.0938,0 2.5,-2 0,-2 -2.5,-3.0937 -3.5938,-1 z m -41.8125,1.3125 -2,2 0,3.5937 2.5938,2.5 3,-0.5 2.5937,-1.5937 0,-2 -2.5937,-3 -3.5938,-1 z m -130.9062,2.6875 -3,1.5 -0.5,2.5937 1.5,2.5 1.0937,2 1,3 0,2.625 0.5,2 0.5,1 0.625,0 1.5,-1 2,-3.125 1,-4 -0.5,-1.5 -0.5,-1.5937 -1.625,-3 -3.5937,-3 z m 102.9062,0 -2,2 0.5,3.5 2.5938,2.5937 2.5,-0.094 2.5937,-2 0,-2 -2.5937,-3.0938 -3.5938,-0.9062 z m -123.1875,11.2187 -4.625,0.5938 -1.5,7.0937 -2.5,2.5 0.625,14.1875 1,4 3.0938,3.625 2,3 3.0937,-2 2.5938,2 1.5,4 2.5,-0.5 4.0937,-3.625 -1,-6 -1.0937,-4.5937 -5.5938,0 -1.5,-1.5 -0.5,-2.5 2,-5.0938 -1.5937,-1.5 -1,-3 -1,-2.0937 0.5,-2.5 0,-2 -1.0938,-4.0938 z m 200.1875,1.5 -2,2.0938 0,3.5 3.0938,2.5 2.5,-0.5 2.5937,-1.5 -0.094,-2.0938 -2.5,-3 -3.5937,-1 z m 9.1875,4.5 -2,2.0938 0.5,3.5 2.625,2.5 2.5,0 2.5,-2 0,-2.0938 -2.5,-3 -3.625,-1 z m -1016.1875,3.375 -3,4.625 -3,8.5938 3.5938,11.5937 4.5937,3.0938 1,1 5.625,0.5 1.5,-5.5938 1.5,-6.0937 0.5,-4.5938 -4.125,-12.625 -8.1875,-0.5 z m 596,0.8125 -0.5,2.5 -3,3.5938 -1.5,7.5937 0,3.5 -1,4.625 2.5,5 4.0938,-2 2,-9.125 3.5,-6.0937 1.5937,-1.5938 0.5,-1.5 -1.0937,-2 -1.5,-2 -1,-1.5 -4.5938,-1 z m -148.1875,9.1875 -4.625,3.625 -4,7.0938 -2,5.0937 -3.5937,6.0938 -8.0938,1.5 -0.5937,-7.0938 -13.7188,6.6875 -0.5,5 5.2188,13.2188 7.0937,5.5 0,3.0937 -4.5,3 -13.8125,3.0938 0,3.0937 0.125,5.5 -8.2187,3.125 -8.5938,6.5938 2.5,5.0937 -3.5,6.5938 -4,10.5937 -4.5937,-0.375 -6.5938,13.6875 8.6875,3.5 -1.5,5 -2,14.1875 -8.5937,8.2188 -6.0938,3 -2.125,5.5937 -0.875,15.6875 3.5938,9.125 10.1875,0 5.0937,0.5 1.5,2 -3,4.5938 -3.0937,6 2.0937,7.5937 3.625,6.5938 3.5938,9.5937 4.5937,-1.5 1,-7.5937 4,-0.5938 1.5938,5.0938 -3,8.0937 4.5937,4.625 6.125,-9.2187 2.5,6.0937 6.6875,3.5 3.5,0 -1,2 1.0938,6.625 -2,9.0938 2,2 3.5937,1 1,-8.5938 1.5,-1 3.5,-4.125 -1,-6 2.5,-4.0937 3.7188,14.7187 0.5,4.5 1,3.5938 2.0937,4 1.5,3 2.5938,0.5 4,-1 4.0937,-2.5 4.125,-0.5938 5.5938,-1.5 4.5937,-4.125 2,-7.0937 4.5,-3 2.5938,-5.0938 5.0937,-3.0937 2.5,-4.5 -3.0937,-5.0938 -2.5938,-7.625 -4.0937,-8.0937 -7.5938,-2.5 -4.125,-2 -6.0937,0.5937 -3.5938,-2 3.5,-7.0937 6.6875,3.5 -0.094,-5.5938 -4.0937,-5 -3.5,-3.0937 2.5,-1.5 3.5937,-5.0938 3,-1.5 0.5,-11.7187 -0.094,-9.0938 -1,-12.0937 -0.5937,-8.0938 -6.0938,-9.125 -3.125,-14.6875 -1.5937,-3 -1.5,-6.5937 6.0937,1.5 8.625,0.4062 2.5938,6.0938 1.0937,11.1875 0.5938,19.7187 3.5937,21.2813 0.625,10.0937 2.5,7.625 5.6875,5.5 5.0938,3 3,-4.5 9.2187,3.5 7.5938,-0.625 6.1875,-1.5 4.5,-1 -1,-4.5937 3.0937,-1 5.125,4.5 8.0938,-2 5.5937,-7.6875 6.0938,0.5 5.0937,-4.0938 2.5,-9.625 3,-3 2.625,6.5 4.0938,-1.5 -0.5938,-10.5937 4.0938,-11.1875 5.0937,2 3,-1.5 0,-4.0938 -1.5937,-10.625 1,-3.0937 -3.0938,-4 -1.5,-5.5938 -2.125,-6.5 -0.5,-10.6875 -6.1875,-7.5 -2,-6.625 -5.6875,-10.0937 -10.2187,-1.5 -12.2813,-10.5938 -10.7187,-10.5937 -5.0938,-3.5 1,-5.5938 3.5938,-3 -1.5938,-6.625 -2.5937,-6.5937 -7.0938,-3 -11.2187,-3 -6.0938,5.0937 -12.1875,2.625 -7.7187,-6.625 -5.0938,-4.5 -9.1875,-0.5 z m 152.875,24.7188 -2.5,0.5 -1.5,0.5 0,2.5 1.5,2.0937 1.5,1 1.125,1.5 0.5,2 0,2.5 1,1.5938 1.5,0.5 2.0938,0.5 1.5,-1.0938 1.5,-2 1,-1 0,-2.5 -1,-2.0937 -1,-2.5 -1.5938,-2.5 -2.5,-1.5 -3.125,0 z m -207.2812,9.5 -2,0.5 -1.5,2 -0.5,2.0937 2,5 2.0937,1 1.5,-0.5 2,-1.5 0,-2.5937 -1,-2.5 -1.5937,-3 -1,-0.5 z m 203.7812,6.6875 -3,2.5937 -3.5937,4 -4,5.625 -2,8.5938 3,1 3.0937,6.0937 2.125,2 6.5938,-3.5937 2,-5.5 2.5,-2.0938 0.5,-4 -1,-2.625 -0.5,-4.5 -2.0938,-5.5937 -3.625,-2 z m -592.875,20.5 -2.5,1.5 -2,12.7187 -14.3125,0.094 -0.5,3 -4.5,4.5938 -3.0937,6.0937 1.0937,7.5938 -1.5937,7.125 5.6875,7 -11.1875,12.6875 2.5937,8.5937 8.0938,-1.5 0.5937,8.0938 -4.5937,3.5 0.5,4.125 -1.5,4.0937 -4.0938,0.5 -8.5937,8.0938 -0.5,5.0937 -2,7.0938 -7.7188,8.625 1.125,2.5 9.6875,-2.5 3.5,1 2.0938,2.5 2.5,5.5937 -1.5,7.5938 -3.5,10.0937 1.5,3.5 3.0937,-0.5 -1,7.0938 -8.5937,16.8125 3,3.5 8.7187,-12.6875 4,-7.625 2,-7.5938 1.5,-8.5937 0.5,-7.5938 1.5,-7.5937 5.0938,-3.625 1,-7.0938 0.5,-7.0937 6.0937,-6.5938 -0.5,-3.5 -5.0937,-2 -6.7188,-2.5 2.625,-8.0937 5.5938,-1.625 -3.0938,-10.5938 5.5,-13.1875 -1,-6.5937 3.5938,-0.5 2.5,6.5937 1.0937,2 5.5938,-4.0937 2.5,-3.5 -2.0938,-2.5 -3.5,-4.125 5,-11.1875 5.5938,-0.5 2,-7.5938 -3,-7.0937 -1.0938,-7.625 -5.5937,-5.5 -2.5938,-6.0938 z m 291.875,3.5937 -6,6.625 -2.5937,8.5938 1.5937,12.6875 -3.5,6 -1,3.5937 -1,4.625 -2.5937,8.0938 -0.9063,10.5937 2.5,6.5938 8.2188,1.5 3.5937,-4.0938 4.5,1.5 6.6875,2.5 6.125,9.0938 1.5938,2 4.5,-3 5.5937,-6.0938 -1.5,-2.5937 -1.5937,-3.5 -3.5,-2 -3.0938,-4.5 2.5,-16.8125 -4.7187,-10.5938 -5.5938,-18.6875 -2.5937,-8.625 -3.0938,-3.5 -4.125,0 z m 71.4063,9.8125 -10.1875,5.0938 -6,8.2187 -6.0938,8.5938 -3.625,9.5937 2.125,5.5938 3.0938,3.5 3,2.5 0.094,16.3125 2,1 9.1875,-7.2188 1.5,-8.0937 -2.5938,-3 -2.5,-0.5 2.5,-6.0938 8.5938,-11.6875 1.5,-8.125 -0.5,-3.5 -2.0938,-12.1875 z m 256.3125,9.0938 -1,1 -2,1 0.5,2 0.5,1 1,2.5937 0,2.5 1.5937,2 1.5,0.5 2.5,0.5 1.0938,-0.5 0.5,-2 -2.0938,-4.0937 -1,-2.5 -1.5937,-2.5 -1.5,-1.5 z m -282,58.4062 -1.5,1.5 -0.5,3.0938 1,2.5 0,3.5 -0.5,4.0937 -0.5,2.5 1,2 2.0937,2.125 2,0.5 1.5,-0.625 1.5938,-1.5 0.5,-3.5 -0.094,-4.0937 -0.5,-3 0,-3.5938 -0.5,-2.5 -1.5,-1.5 -2.5938,-1 -1,-0.5 -0.5,0 z m -221.5938,9.4063 -7.125,5.0937 -1.0937,5.0938 0.5937,3.5 7.625,2.5 3.5938,4.5937 1.0937,8.625 11.1875,8 9.2188,4.5938 7.5937,-5.5938 2.5,-3.625 1,-8.0937 -5.0937,-4 -12.2188,-8.5938 -11.2812,-6 -7.5938,-6.0937 z M 2043.5,3528 l -2.0937,0.5938 -1,3 1.5937,3.5 2,3.0937 1.0938,2.5 -0.5,3.625 1,2.5 3.5937,1.5 5.625,0 2,0.5 2,1.5 1.5938,1 1,-1 1,-3.125 0,-3 -1.5,-1.5 -2.5938,-2 -2,-1.0937 -3.625,-3 -2.0937,-1.5 -3.5,-3.5 -2.0938,-2.5 -1.5,-1.0938 z m 182.9063,7.4063 -3.5,1 -3.5938,1.0937 -0.5,2 0.5,2 2.5938,1.5 4.0937,0.5 4.5938,0.5 3,-1 2.5,-1 2.5937,-2.0937 0.5,-2 -0.5,-2 -2.0937,-0.5 -2,0.5 -2.5,0.5 -2.5938,-1 -3.0937,0 z m -330.2188,0.2812 -3,2 1,10.125 -7.0937,10.6875 -7.5938,13.1875 -0.9062,9.625 5.0937,4.0938 6.125,5.5 -2,6.5937 -15.3125,-10.5937 -4.0937,7.0937 -8.7188,0 -8.0937,3.0938 -2,4.0937 10.7187,6.5 7.0938,2 3.0937,7.125 1.0938,8.5938 3.5937,5.5937 -1.5,6 -5.5937,3.5938 -1.5938,-0.5 -1.5,0.5 -1,7.0937 0,8.125 0.5938,4.0938 2.5,1.5 12.7187,-1.0938 0.5938,3.5938 -6.5938,5.5 6.5938,3.0937 16.2812,6 28.5,-9.6875 1.625,-4.125 1,-1.5 -6.7187,-3 -3.0938,-8.0937 0.5,-3.0938 4.5938,0 2.0937,4.5938 11.2188,3 2.5937,-2.0938 0.4063,-4 -1.5,-2.5 -15.3125,-5.5937 -11.1875,-7 4.5,-6.0938 1.5,-3.625 -6.5938,-2 -2,-4.5 9.5938,-4.5937 10.1875,2.5 5.0937,3 4.125,3 3.5938,-0.5 0,-2.5 -5.0938,-4.5 -1.125,-2.0938 1.625,-0.5 4.5938,-0.5 5.0937,-0.5 3.5,-1.0937 4.5938,-0.5 1.5,-1.5 -0.5,-2.5 -2,-1.5 -4.5938,0.5 -3.0937,0.5 -4.0938,1 -3,0 -4.625,0.5937 -3.0937,1 -6.5938,1 -15.8125,0.5938 -5.5937,-2 2,-5.5938 10.7187,-1.5937 10.6875,2 6.6875,-0.5 2,-1.5 0.5,-2.0938 0,-8.125 1,-3.5 -2.5937,-5.0937 7.2187,1.5 7.0938,5.0937 5.0937,1 -1.5,-6.5937 -2.0937,-3.5 -0.5,-7.5938 -5.0938,-4.0937 -3.125,-6.5938 -4.5937,-3 -13.7813,-6.5 -8.2187,0.5 -12.6875,-14.625 -5.7188,-2 z m -63.5937,7.8125 -3.0938,1 -1,1.5 0.5,1.5938 1.5,1 1.5938,1.5 0.5,2.5 0.5,1.5 1.5,1.5 2.5937,0.5 2.5,0.5 3.625,-0.5 3.5938,1 3,1 2.5937,-0.5 1.5,-1.5 0.5,-1.5 -0.5,-1.5938 -1,-2 -2.0937,-1 -2.5,-2 -3.5938,-0.5 -2,0 -2.625,0.5 -5.0937,-3 -2.5,-1.5 z m -157.5,1.5 -2,1.5 -1,8.5938 -1,5.0937 -4.5938,-2 -2,1.5 -0.5,9.125 3.5938,4.0938 7.0937,3 2,1.5 1.625,-4 -1.125,-3.5938 5.125,-0.5 1.5,-4.125 1.0938,0 0,-3 -0.5938,-1.5 -4,-1.5 1.5,-4.5937 -1.125,-1.5 -3,-5.0938 -2.5937,-3 z m 575.8125,0.9063 -6.5938,1.5937 -1.5,1.5 1,4.0938 0.5938,3.5 -1.5,4.5937 0,2 2.5,1.5 3.0937,-2 4,-1.5937 5.0938,-2 3.5937,-0.5 3,-0.094 2.625,-3 -1.625,-1.5 -2,-3 -3.5937,0 -3.5,-0.5 -2.0938,-3.0938 -1.5,-1 -1.5937,-0.5 z m -31,12.2812 -4.5938,5.625 1.5938,6.0938 0,7.0937 0.5,2 0.094,3 1,3.0938 3.5937,-2.0938 7.0938,-3 3.5,-4.0937 4.125,-1.5 -1,-3.5938 -6.2188,0 -2,-5 -1.5937,-7.125 -6.0938,-0.5 z m -393.9063,9.625 -1,2.0938 0,2 -0.5,2 -1,2 0.5,3.0937 2.0938,1 2.5,-0.5 3.0937,0 2,-0.094 3.125,-1 1.5,-0.5 0.5,-1.5 0,-1.5 -1,-1.5 -2.125,-0.5 -3,-0.5 -3.0937,-2.0937 -2,-2.5 -1.5938,0 z m 452.5938,1.7813 -3.5938,0.5 -3.5937,2.5937 0,2.5 2.0937,2 1,1.625 3.5938,1.5 2.5,-1.625 2.0937,-2.5 0.5,-3.5937 -1.5937,-2.5 -3,-0.5 z m -500.5,6 -3.5,2.5 -1.5,2.5937 -2.5938,4 -0.5,4.125 0.5938,2.5 2.5,0.5 2.5937,0.5 1.5,-1 2,0.5 1,1.5 1.125,0 1,-2 0,-3.125 0.5,-4 0.5,-3.0937 0.5,-2.5 -1.125,-2 -4.5937,-1 z m -92.1875,3.3125 -2,3.5937 -3.0938,5 -2,4.5938 -2.5,5.0937 -2,4.5 0,3.625 1.5,1.5 2,-0.5 3.0938,-3.125 1.5,-2 1.5,-3.5937 1.5937,-3 0.5,-2.5 1,-4.0938 1,-4 0.5,-2.5937 0.5,-1.5 -1.5937,-1 -1.5,0 z m 117.6875,2.1875 -1.5,1 -4.0938,0.5 -2,3.0937 -0.5,3 1.5938,2.5 1.5,2 0.5,2.625 -0.5,2 1,1 2.0937,-0.5 2,-1 2,-0.5 3.625,-0.125 2.5,-0.5 1.0938,-1.5 -0.5938,-3.5 -2,-2.5937 -1.5,-1 -1.625,-1.5 -0.5,-2 -1,-2 -2.0937,-1 z m 167.2187,5 -2.5,1 -2.125,-0.5 -1,0.5 -1,1.5 -0.5,2.5 1,1.5937 2.625,1 3,0.5 3.0938,0 3,-1.0937 0.5937,-1.5 -0.5937,-2 -1.5,-1 -2.5,-1.5 -1.5938,-1 z m 83.0938,1.7187 -3.0938,1 -1.5,1.5 -1,3.5938 0,3 1,2 2.0938,1 1.5,0.5 3.0937,0.5 2.5,-1.5 2.5938,-2.5 1,-2.0938 0.5,-3 -0.5,-2 -2.0938,-1 -3,-1 -3.0937,0 z m -109.5938,4.875 -1,1.625 1.0938,2.5 1.5,1.5 3.0937,1.5 2.5,0.5 3.5938,-1 1,-2.625 -2.0938,-2 -4,-0.5 -1.5937,-0.5 -2,-1 -2.0938,0 z m -126.8125,9.125 -2.5937,0.5 -2.5,2.5 -0.5,1.5938 -2.0938,0.5 -2.5,2.5 -1,3.5937 2,1.5 2.0938,1 0.5,1.5 0,2.5 -0.5,2.0938 -0.5,2 1.5,1.5 1.5937,-1 1,-1 3,-1.5938 0,-1.5 -0.5,-1.5 -1,-2 0.5,-2.0937 1.5,-2 3.0938,-1 1.5,-1.5 1,-2.5938 0,-2.5 -1.5,-1.5 -2.5938,-1 -1.5,-0.5 z m 148.3125,1.5 -3.625,9.0938 -1,4.0937 7.2188,3 -0.5,4.5 -1.5,4.5938 -5.5938,0 -0.5,2.5937 1.5,1.5 8.1875,4.5 4.5938,-2 1.5,3 10.2187,-5.5937 -1.125,-4.0938 -5.5937,-8 -0.5,-1.0937 -6.0938,-4 -2.5937,-5 0,-4.0938 -4.5938,-3 z m 86.5938,2.1875 -3,1 -2.5938,0.5 -2,3.0938 0.5,2.5 0.5,2 -1.5,3.0937 -1,2 1,1.5 2.0938,0.5 3,-1.5 3.0937,-1 5.0938,-3.0937 1,-2 -0.5,-2 -0.5938,-1.5938 -1.5,-3 -1.5,-2 -2.0937,0 z m 119.7812,4.0938 -2,0.5 -2.0937,2.5 -0.4063,3.5937 0.5,3 2,2 2.625,1.5 2.5,1.625 2.5938,1 2,-1.125 2.5937,-0.5 4,1 1.5938,-1 1,-2.5 -1.5938,-2.0937 -2.5,-2 -3.5937,-2.5 -2.5,-2 -3.5938,-3 -3.125,0 z m -106,4 -2,0.5 -1,2.5 -0.5,2 -2.0937,1 -0.5,2.5937 2.0937,1 2.5,0.5 3.125,-0.5 3.5938,-0.5937 3,-1 1,-1.5 -1,-2 -3.0938,-2 -2.5,-1.5 -2.625,-1 z m 84.125,6.7187 -3.5,2 -8.7187,8.6875 -2.5,3.5 -2,2.5938 -0.5,2 1.5,1 2.0937,0.5 3.5,1 2.625,0 3,-1.5 2.0938,-2.5938 2.5,-3 2.5,-3.0937 2.0937,-3 1.5,-3.0938 0,-2 -1.5937,-1.5 -2,-1 -2.5938,-0.5 z m -224.2187,7.375 -1,2.125 -2.5,2 -1.5938,1.5 1.0938,2.5938 3.5,1.5 4.5937,1.5 4.625,2.5 4.5938,1 5.5937,1.5 2.0938,-0.5 1.5,-2.0938 -0.5,-3 -1.5938,-3.5 -2,-3.625 -3.0937,-1 -3,-1.5 -3.5938,0 -2,1 -2.125,-0.5 -2,-1.5 -2.5937,0 z m 178.4062,1.4063 -2.5,10.5937 4.0938,9.125 -4.0938,0.5938 -5.0937,-1 -3,5 -4.5938,-1 -4.625,5.0937 -4.5937,-1 1.5,-7.0937 1,-6 -8.5938,-4.5938 -5.0937,1.0938 -3.5938,8.0937 -2,7.5938 -2.5,1.5 -4.125,-2 -3.0937,0.5 -4.5,3.5937 -3.5938,6.125 -3.5,2 -3.5937,3.0938 1.5,4 6.1875,8.5937 5.0937,1 6.125,-3.5937 5.5938,-5.5938 3,-4.5 4.5937,-2.125 3.0938,2.5 -1,11.7188 2.0937,6.0937 3,-0.094 3,-6 2.625,-6.0937 5.5938,-5.625 2,2.5 -0.5,9.125 2.0937,3.5937 7.0938,4.9999 1.5937,4 0,2.0938 9.2188,-0.5938 7.0937,-1 5.0938,-3.5937 2,-9.1249 -0.5,-7.5938 3,-3.0937 1.5,-1 -2.5938,-7.5938 -6.5937,-15.5937 -9.8125,-12.125 -5.0938,-6.5938 z m 59.1875,6.8125 -3.5937,0.094 -3.0938,1 -1.5,2.5 -1.5,4.5937 -0.5,4 2.0938,1 1,1.0938 0,2 1,2 5.0937,0 4.125,-1 1.5,-3.0938 1.5,-3 1,-3.5937 -0.5,-3.5 -0.5,-1 -1,-1 -2.625,-1.5938 -2.5,-0.5 z m -385.375,2 -8.125,4 -6.0937,2.0937 -1.5,-4.5937 -11.6875,8.6875 -6.0938,6.0937 -7.7187,3.5 -9.5938,9.2188 2.5,3.5 5.5938,3 -6.5938,5.0937 -6.5937,-6 -10.7188,3.5 -6.0937,6.0938 -7.0938,7.7187 2.5,4 -10.0937,5.5937 -1.5938,4.5938 3.0938,2 -2,3.5 -5.5938,7.5938 -2.5,5.0937 2,3.625 3.5938,-1.125 3,-6.0937 L 1695,3711 l 5.5938,-5 5.0937,-2.0938 4.5,-6.0937 1.625,0.5 0.5,2.0937 10.0938,-8.2187 1.0937,-4.5 8.0938,-4.0937 4.5937,1 3.625,-1.5 -2.625,7 -1.5,4.5937 -4.0937,-1 -3.5,2 -0.5,2.625 -3.0938,2 2.5938,2.5 4.5937,-1.5 5.625,2 12.6875,-3.125 -4.0937,-8.5937 3,-2.5 -1,-4.5938 3.0937,-3 3,1 1.0938,9.5938 8.5937,-4.5938 -2,-5.5 12.7188,-3.0937 0.5,6.5937 10.6875,-3.0937 10.2187,-3.0938 -3.625,-6 -3.5,3.5 -2.5937,-3.5 4.0937,-4.625 -1.5937,-1 -3.5,-0.5 -5.6875,-14.6875 -3.0938,-3.5 6.6875,-4.0937 -1.0937,-2.5 -3.5938,-4.5 z m 461.7813,3.7812 -3,1.5 -0.5,3.625 1.5,2.5 2.0937,2 2.5,1.5 2.125,-0.5 1.5,-1.5 0.5,-3.125 0,-2 -1.625,-2 -2.5,-1.5 -2.5937,-0.5 z m 1.0937,21.8125 -3.5,1.5 -2.5937,2 -1.5,3.0938 1,2.5 1.5937,4.5937 2.125,5 1.5,2.5 2.5,1 2.0938,-5 -1.0938,-3.0937 -0.5,-4 0.5,-2 1.5,-2.0938 1.5938,-2 -1.0938,-3.5 -1.5,0 -2.625,-0.5 z m -304.6875,11.3125 -2.5937,1 -1.5,1.5 -2,1.0938 -2.5938,2.5 -0.5,2 1.5938,1 3,-0.5 3.5937,0.5 2,-1 1,-1.5 0.5,-3.0938 -0.5,-2 -2,-1.5 z m -32.0937,7.1875 -4.0938,1.5 -4.125,2.0938 -2,2 0,6.0937 1,0.5 1.625,-0.5 1.5,-1 2,-0.094 1.5938,2.0937 0.5,2 0,3 1,1.5 1,-0.5 1.5937,-1.5 0.5,-2 0.5,-3.5937 -1.0937,-5.5001 0,-5.0937 -1.5,-1 z m 11.6875,0 -2,1 0,2.5 1.5,2.5 2.5937,3.0938 1.5,-1.0938 1.5,-3 -0.5,-2.5 -1,-2 -1,0 -2.5937,-0.5 z m -108,1.8125 -1.5938,2.5938 -2.5,3 -1.5,0.9999 0,3.5938 2.5,1.5 2.0938,-0.5 3,-3.5938 1.5,-1.4999 1.0937,-2 1,-2 -0.5937,-1.5938 -1,-0.5 -4,0 z m 144.7187,1.0938 -1.5,2.5 0,2.9999 0.5,2.5938 2.0938,1.5 1.5,0 2.5,-1.5 0.5937,-2.0938 -0.5937,-2.4999 -1.5,-2 -2,-1 -1.5938,-0.5 z m -161.625,1 -1,0.5 -3.5,2.5937 -3.5937,0 -5.0938,2.5 -2,3.0938 2.5,1.5 1.5938,0.5 3,0 3.0937,-1.5 2.5,-1.0938 3.125,0 1.5,-1.5 0,-3 -0.5,-2.5937 -1.625,-1 z m 293.2188,10.0937 -2.0938,0.5 -4,2.5938 -2.125,2.5 1.125,3 2.5,1.0937 2.5938,0.4063 2.5,1.5937 2.0937,1.5 2,0 1.5,-1.0937 1,-2.5 0.5,-1.5 -0.5,-2.5 -2.5,-2.5938 -2.5937,-3 -2,0 z m 72.4062,2.8125 -8.2187,6.5937 -7.0938,3 -4.5,6.5938 1.5,5.0938 5.0938,3.5 -0.5,4.5937 3.0937,1.5 4.625,-3.0937 4.5938,1.5 3.5,-1 4.0937,-3.5938 2,5.0938 6.1875,0.5 5.625,-3.5938 0.5,-3 -4.125,-3.5938 -5.6875,-1.5 1,-9.0937 -7.5937,-3.5 1,-4 -5.0938,-2 z m -212.125,0.2813 -1.5,2 -1.5,2.5 -0.5,2.0937 0,2.5 -1,2 -1,2.125 1,1.5 1.5,0 3.625,-2.125 1.5,-1 2,-2 1.5,-2.0937 0,-2 -1,-1.5 -2,-2 -1.125,-1.5 -1.5,-0.5 z m -13.6875,1.5 -3.5937,2.0937 -2.5,3 1,2.625 2.5,1 2.5937,-1.125 2,-2.5 2,-2 0.5,-2.0937 -1.5,-1 -3,0 z m 102.9063,1.2187 -2,1 -0.5,0.5 -3.0938,1.5 -1.5,1.5937 0,3 -1,2 -3,2.5938 -1,2.5 0.5,2.5 0.5,3.5938 1,4 1.5938,2.5 2,0.5 2.5937,0 1.5,2.0937 0.5,4 1,1.5 1.5938,-1 1.5,-2 0.5,-3.5937 0.5,-2.5 -1,-1.5 0.5,-2.0938 2,-0.5 2.5,0.5 2.0937,0 1.5,-1.5 0.5,-2 -0.5,-2.0938 -2.5937,-6.5 -1,-3.0937 -2.0938,-3 -2.5,-2.5 -2.5937,-2 z m -273.7188,0.875 -4.5937,3.125 0,3.5 5.0937,-0.5 0.625,6.5937 -2.125,4.5938 2.125,7 2.5938,6.0938 8.0937,5.5 7.1875,1.5 6.625,-5 4.5938,-5.0938 1.5,-5.0938 2,-2 0.5,-3.0937 -2,-3 -10.8125,-6 -12.6875,5.0937 -1.5,-7.0937 -3.0938,-6.125 -4.125,0 z m -32.0937,6.7187 -6.5938,1 -4.5937,2.5938 -5.5938,7.0938 -1,5.0937 1.5938,6 -4.0938,9.2187 1.5,2.5 3.5938,-1 2.5,-2.5937 2.0937,1 -3.0937,6.0937 -1.5,2.5938 6.1875,2 2.5,-4.0938 4.0937,1.5 6.125,-3 4.0938,2.5 -1.5938,4 -3.5,1 -0.5,4.5938 0.5,2.5 2.5938,3.5938 2.5,0.5 L 1739,3761 l 6.0938,-1 2.5,3 1.0937,4.5938 -1.5,8.0937 -3.0937,5.125 -4.0938,0 -3,4 3.5938,4.0937 6.5937,-2.5937 3.625,2.5 -1.5,5.5937 8.6875,8.0938 3.5,-2.0938 -2.5,-2 3,-3 4.0938,3 3.5937,-5.5937 -2.0937,-3.5 2,-1 2.5937,-2.125 5.625,-2.5 3.0938,4 -3.5938,13.2187 -2.5,8.5938 2.5938,2 9.5937,-2 6.0938,-4.0938 -1.5,-5.5937 -1.5,-6.5 8.0937,-3.125 2.5,-9.0937 3.125,0.5 2.5,3.5 6.0938,-5.5938 5.5937,-3.5 -2.5,-5.0938 -4.0937,-7.0937 3,-5 -2.0938,-10.7187 -1.5,-4 -1.5,-2 -4.125,2.5 1.5,6.5937 -7.5937,3 -8.6875,1.125 -6.0938,0.5 -10.2187,-1.5 -3.5938,-4.5 0,-4.125 -5.5937,-2.5 -1.5,-3.5 -6.2188,-2 -3,-6.5937 -9.6875,3.5937 2.5,-6.0937 0.5,-6.0938 -5.0937,-2.5 1.5,-5.0938 -2.5,-3.5 -13.3125,-2 z m 188.0937,10.5 -2.5,1.0938 -2.5937,2.5 -0.5,2.5 1.5937,2 3,0.5 1.125,1.0938 0.5,1.5 0.5,2 2,0 3.0938,-0.5 3.0937,0.5 2.5,1 1.5,0.5 1.0938,-2.0938 -0.5938,-2.5 -1.5,-1.5 -2.5937,-2 -1,-2 -2.5,-2.0938 -2.5938,-1.5 -3.625,-1 z m 29.7188,17.5938 -2.5938,1.0938 -2,1.5 -0.5,1.5 0.5,1.5 1.5,1 3.0938,1 2.5,-0.5 3.0937,-1.5 2,-1.5 0.5,-1 -1,-1.5938 -1.5,-0.5 -3.0937,-1 -2.5,0 z m -155,0.5938 -3.5938,2.5 -4.5,3.5937 -3.625,3 -0.5,2.625 1.5,1 3.125,-1.625 3.5,-2 3.0938,-1.5 2,0.5 2.5937,-0.5 1,-2.0937 -0.5,-2.5 -1,-1 -2.0937,-1.5 -1,-0.5 z m 161.0937,10.0937 -12.1875,0.5 -2.5,6.625 -3.625,5.5937 -4.0937,3 -4.5,5.5938 -7.0938,7.0938 -4.5937,8.0937 -1,4.625 3.0937,3 3,-3.5 3.0938,-3.125 3,2.5 1.5937,1.125 -4.0937,9.0937 -4.0938,3 -0.5,4.5938 -3,6.5938 -4,9.5937 -0.5,6.125 5.0938,9.5937 3.5937,1 2.5,-8.0937 8.125,-5.125 6.1875,2 0,-2.5 5.0938,-1.5937 5.5937,-3 -1.5,7.5937 1,6 2,0.5 3.625,-3 0.5,-3.0937 -1.625,-5.5 2.625,-8.5938 2,-6.5938 1.5,-7.0937 2.5,-7.625 0,-7.0937 1,-9.5938 -0.125,-5.0938 -2,-9.5937 1,-7.125 -1.0937,-6.0937 -5.5938,-0.4063 z m -239.5937,4.8125 -1.5,1.5 0.5,3.5938 0.5,3.5 1.0937,1.5 0.5,-0.5 1,0 1,1 1.0938,3.5937 1,2.5 1,1.5 1.5,0.5 1.0937,-0.5 0.5,-2.5 -0.094,-3.0937 0,-3 -0.5,-3.5 -2.5,-3.5938 -3.0937,-2 -3.0938,-0.5 z m -105,0.8125 -2.5,1 -1.5,2.5937 -1.0938,3.5 -1.5,4.0938 0,1 0.5,0.5 1.5938,-0.5 1.5,0 2,0.5 1.5937,0.5 1.5,-1.5 0.5,-1.0938 1.5,-3 0,-2 -2,-1.5 -1.0937,-1.5937 0,-1.5 -1,-1 z m 312,1.5937 -1,1 -1.5,1 -2.5938,0.5 -1.5,0.5 -2,1.5 -1.625,-0.5 -2,-1.5 -2.5937,-1.5 -2.5,2.5938 -1,3 0,2.5 1,2.0938 2.5937,1 2.5,-1.0938 2.125,0 0.5,2.0938 1,1 2.5,-0.5938 4.0938,-1 2.0937,-1.5 3,-2 5.5938,-5.5938 1,-2.0937 -0.5,-1 -6.5938,0.094 -2.5937,-0.5 z m -183,12.6876 -3,2.0937 -2.5938,2.5 0.5938,2.5 2.5,1 2.5937,0 2.5,0.5 2,0 1.5938,-0.5 0,-2 -1.0938,-3.0937 -1.5,-1.5 -1.5,-1 -2.0937,-0.5 z m -137.5938,4 -2,1.5 0,5.5937 1,2 2.0938,0.5 1,0 1,-2.5937 0.5,-2 0.5,-1.5 -0.5,-2 -1.5938,-1 -2,-0.5 z m 144.875,23.8124 -1.5937,0.5938 -2.5,1.5 -1,1.5 0.5,3 1,2.0938 0,4.5 1.0937,1.5 2,1 1,2.5937 0.5,1.5 2.125,1.5 2,-1 6.6875,0 1.5,-1.5937 0.5,-1.5 -0.5,-3 -1.5937,-1 -2,-0.5 -3.0938,-2.5938 -1,-1.5 -1,-3.5 -1.125,-2.5 -1,-2.0938 -2.5,-0.5 z m -17.375,7.6876 -1.5,0.5 -4.125,3 1.125,3.5937 0.5,4 2,1 2.0938,-1.5 2,-0.5 1,0.5 2.0937,-2 -0.5,-2 -1.5937,-1.0937 -2,-2.5 0,-2 -1.0938,-1 z M 1341,3835 l -1.5938,0.5 -1.5,2 -1.5,3.5938 -0.5,2 -0.5,3 -1,3.0937 -0.5,3 0,1 1,1 1,0 1.5,-1.5 1.5938,-1.5 1,-2.5937 1,-3.5 1.5,-3 0,-7.0938 -1.5,0 z m -12.8125,5.5938 -1,1 -0.5,2 -0.5,1.5 -1,-0.5 -1,-1 -1,0 -1.5937,1.5 -0.5,3.0937 -1,3 -1.5,2 0.5,2.125 0.5,1.5 -1,2.5 -0.5,1.5 -0.5,3.0937 0.5,1.5 0,3 0.5,1.5 1,1.0938 2.0937,0 0.5,1.5 -0.5,1.5 -2,1.5 0,1.5 0.5,3.5938 1,0 2,-0.5 1.625,-1.0938 2.5,-1 0.5,-1.5 0,-4 0.5,-2.0938 2,-6 0.5,-3.5937 0,-3 -0.5,-3.125 -1,-2.5 -1,-0.5 0,-2 1.5,-2.5937 1,-2 0.5,-2.5 -0.5,-1.5 -1.5,-0.5 -1.125,0 z m 210.625,6 -1.5,0.5937 -2.5,2.5 0.5,2 2,0.5 3.0937,0.5 3,0.5 2.5938,0.5 2,-1 0.5,-3 -1,-1.5937 -2,-0.5 -1.5938,0 -1,-0.5 -2,-0.5 -2.0937,0 z m -14.7187,2.5937 -3.0938,1.5 -2.5,0 -3.5938,0.625 -2.5937,2 -1.5,3 -1,3.0937 0,2 1.5,0.5 1.5937,-1.5 1.5,-1 1.5,0.5 0.5,2 0,2 1.0938,1 2,-1 1.5,-2 1,-3.0937 2.5938,-2.5 2.5,-2.5 0,-1.625 -1.5,-1 -1.5,-2 z m -416.5938,10.5 -9.0938,15.2187 -10.7187,23.7813 -6.0937,11.7187 -7.0938,14.6876 -3.0938,8.0937 -0.5,2.5 -3,6.125 -3.5937,9.5937 -3,-1.5 -5.625,2.5 -3.5937,2.0938 -2.0938,1.5 -1.5,3 -3,4.5938 3.5938,11.5937 4.5937,12.125 3.125,15.6875 4,5.0938 5.6875,2 3,-14.6876 4.0938,-6.5937 3.5,-24.3125 3,-15.6875 -1.5,-3.5 1,-4.625 0.5,-3.5 5.5937,-5.0937 4.125,-6.0938 5.5,-21.1875 5.5937,-20.3125 4.5938,-12.5938 3.5,-9.0937 -1.5,-3.125 z m 191.8125,13.3125 -2.625,1 -2.5,2.0938 -2.0937,4.5 -1,3.0937 -0.5,4.5 -0.5,4.125 0.5,2 1.0937,1 1,0.5 1,-1 1.5,-3.5 1.5,-2.125 2.125,-2.5 1,-2 0,-2.5937 0.5,-3 0.5,-3.5 0.5,-2.0938 -2,-0.5 z m 23.375,12.0938 -2,1 -2.5,3.5937 -1.5937,3.5 1.5937,1 1.5,2.625 1,1 1.625,-0.5 1.5,-3.125 1.5,-4.5 0.5,-2.0937 -0.5,-2.5 -2.625,0 z M 1363.5,3886 l -2,1.0938 -2,1.5 -1.5938,2 -1,3.5937 -1,3.5 -1,2 -1.5,0.5 -2.0937,0 -2,1.125 -0.5,2 -1,1.5 -2.125,1.5 -2,1 -2.5937,1.0937 -0.5,2.5 1.0937,1.5 2.5,-0.5 3.125,-0.5 3,-1 2.5937,0.5 2,1.5 2.0938,1 1,-1 0,-2.0937 0.5,-3.5 1,-2 2,-2 2.5938,-2.125 3,-4.5 0.5,-1.5937 -0.5,-1.5 -1,0 -1,-0.5 0.5,-0.5 -0.5,-1.5 1,-2.5 -0.5,-2.0938 -2.0938,0 z m 12.3125,12.1875 -2,1.5 -3.625,2.5 -1.5,2.625 -1.5937,2.5 0.5937,1 1.5,1 1.5,0.5 1.625,-1 1.5,-2.5 1.5,-2.125 1.5,-2.5 0.5,-1.5 -1.5,-2 z m -88.2187,2.7187 -1.5,11.0938 -2.0938,3.0938 -0.5,5.5 -1,5.5937 0,4 -0.4062,6.625 -3.5938,12.1875 4.5938,0 2,-2.0938 1.5937,-1 0.5,-4 0,-2.5937 1,-8.625 2.5,0 2,-2.5 4.125,-2.5 0.5,-7.0937 -2.625,-5.5938 -3.5,-1.5 -1.0937,-9.5938 -2.5,-1 z m 111.7187,12.4063 -2,1.5 -0.5,2 -1.625,1.5937 -1.5,1 -0.5,2 1,2 2.125,1 2.5,-0.5 1.5,-1.5 1.5937,-1.5 0,-1.5 -0.5937,-1.5937 0,-3.5 -2,-1 z m -50.5,2.0937 -2,1.5938 -2.125,2.5 -2,2 -2.5,3.0938 -1.0937,3 -0.5,2.5 1.0937,2.0937 2,-0.094 2.625,-1.5 1,-1.5 0.5,-2.5 1.5,-1.5 3.0937,-2.0938 1,-2 1.5,-2 1.5,-1.5938 0,-1 -0.5,-0.5 -3,-0.5 -2.0937,0 z m 12.7813,5.5938 -2.5938,0.5 -2,3 -2,3.5938 -1.5938,2.5 -1,2.5 1.5938,2.0937 1,0.5 2.5,-1.5937 1.5,-2 1.5938,-3.5 1,-2.0938 1,-2.5 0.5,-1 -1,-1 -0.5,-1 z m 57.5937,4.9062 -1,0.5 -1.5,0.5 -0.5,2 -0.5,1.5938 -1.5937,1 -1.5,1.5 -1,2 -1,2.5938 0,2 1,1.5 1.5,0.5 1,0.5 1.0937,1.5 0.5,1 2,0 1.625,-1 0.5,-1.5 0.5,-2 1,-2.0938 0.5,-2.5 0.5,-2 0,-5.5938 -2.125,-2 -1,0 z m -317.1875,4.1876 -3.5,2.5 -1.5938,4.5937 -3,4.5 -1,4.625 -1.5937,4 -2,5.0937 -0.5,4.0938 -1.5,3 -0.5,3 0,4.5938 0.5,7.0937 2.0937,4.5 9.0938,-4.5937 2.0938,-10.0938 1.5,-7.0938 -1.0938,-8.0937 0,-4.5 1,-6.625 1.0938,-6.0937 -1.0938,-4.5 z m 360.5938,1.3124 -1.5938,0.5 -3,0.5 -2.5938,1 -1.5,3 -0.5,3.0938 0,1.5 2.0938,1.5 1.5,0.5 3,0.5 2.0938,-1.5 1.5,-2 1,-2.5938 0.5,-2.5 -1,-2.5 -1.5,-1 z m -166.7813,1.4063 -2,1 -1,1.5 -1.125,6.5937 0.625,2.5 1,0.5 1.5,-0.5 1,-1 0.5,-2.5937 0,-2.5 0.5,-3 0,-1.5 -1,-1 z m 88.1875,4.7813 -1.5,1 -1.5,3.0937 -0.5,2 1,2 1,1 2.5938,-1 1.5,-0.5 1,-0.5 2.0937,-1 1,-2.5937 -1,-1.5 -1.0937,-0.5 -2.5,-1 -2.0938,-0.5 z m 221.9063,3 -1,1.5 -0.5,2.5 1,2.0937 2.0937,2 2,-1 1.5,-2.0937 1,-2.5 -0.5,-1.5 -1.5,-0.5 -2.0937,-0.5 -2,0 z m 20.4062,8.5 -1.5,1.0937 0,2 0.5,1.5 0.5,3 -0.5,2.625 1.5938,1.5 3.5,-0.5 1.5937,-1.625 1,-2 0,-2.5 -1.5937,-2 -1.5,-0.5 -1.5,-1 -2.0938,-1.5937 z m -248.3125,7.3124 -1.5938,2 0.094,2 1,2 1,2.0938 2,1 2.0938,1 1,1 1.5,2 2.0937,-0.5 0.5,-1.5 0,-2.5938 -1,-2.5 -2.5937,-2 -1,-2 -1.5938,-1.5 -2,-0.5 -1.5,0 z m 160.5938,5.0938 -1.5,1 -2,1.5938 -1.5938,2.5 -0.5,4.5937 -1,3 -1,3.5 -1,3.125 1,4 1.0938,1.5 -1.5938,3.0937 -1.5,3 0,2.5938 1.5938,1 3.5,0 2.0937,-0.094 3,-1 1,-3 -2,-2 -2,-1.5 -0.094,-2.5937 1.5937,-3 0.5,-1 1,-3.625 1,-2 0.5,-3 0.5,-2.0937 -1,-2.5 0,-2 1,-1 1,-2.0938 -1,-2 -2.5937,0 z m 314.2187,2.5938 -1,0.5 -3.625,2.0937 -2.5,1 -5.5937,2.5 -1.5,1.125 -3.5938,4 0.5,2 2.5938,0.5 2,0.5 3.0937,0.5 2.5,-1.5 2,-2 2.625,-1.625 2.5,-1.5 1.0938,-2.5 0.5,-2 -0.094,-2.5937 -1.5,-1 z m -677.3125,4.8124 -1.5,0.5 -2.5,1.5938 -2.0938,1.5 0,2 1,3 0.094,4.5938 1,3 0.5,2 1,3.0937 1,2.5 1.0938,2 1.5,2 1.5,-1 0.5,-2 0,-5.5937 -0.5,-2.5 -0.5,-4 0.5,-4.0938 0,-3 -0.5,-2.5 -0.5,-1.5938 -1.0938,-1 -0.5,-0.5 z m 212.1875,15.7813 -3,1 -2.0937,2.5 -1.5,2.625 -1.5,3 1,4 -2,1.0937 -1,1 -1.5938,2 -0.5,1.5 0,1.5 1.0938,2.0938 1.5,2 1.5,1 1.5937,0 1.5,-1 1,-1.5 2.5,-2.0938 0.625,-1.5 0,-1.5 -0.625,-1 0.5,-1.5 1.125,-1.5937 0.5,-1.5 -0.5,-2 0.5,-1.5 1,-1.5 0.5,-2.125 -0.5,-1 0.5,-2 -1.125,-1.5 -1,-0.5 z m 337.7188,1.125 -3.0938,1 -3,2 -3.125,2.5937 -1.5,2.5 1,2.5 1,2.5938 -0.5,4 -1,2.5938 -2,2.5 -1.5,2.5 -1.5,2.5937 0,2 1,1.5 4.625,0 3,1 1.5938,0 1.5,-1 1,-2.5937 0.5,-2 1,-1.5 2.0937,-1 1,0.5 1,0 1.5,-0.5 0,-1.5938 -0.5,-1.5 -1,-1 0.5,-2 -0.5,-2 -2.0937,-0.5 -2,-1.5 1,-2.5938 2,-1 2.0937,0.5 1.5,-1.5 0,-2.5 -1.5,-2.0937 -2.0937,-3 -1,-1.5 -1,0 z m -320.3125,2.875 -2.0938,1.5 -1,-0.5 -2,-0.5 -2.0938,1 -1.5,3.125 -0.5,3.5 0.5,2.5 1.5938,2.5937 1,0.5 2,-1.0937 2.0938,-1 2,1 2.5937,0 1,-1.5 0.5,-2.5 0,-5.125 -0.5,-2.5 -1.0937,-1 -2.5,0 z m -305,26.9063 -1.5,1 0,3.5937 -1,3.5 -6.5938,-0.5 -6.5938,11.7187 -1.5937,7 1.0937,2.0938 1.5,2 3.5938,0.5 1.5,12.0938 5.0938,4.0937 0.375,0.9375 15.9687,0 -0.031,-0.031 1.5938,-5.5 -1.0938,-8.5938 0,-5.0938 1.5938,-1 4,5.0938 0.5938,-2.5938 -3.0938,-6.5 -1.0938,-6.5937 1.0938,-4.125 3,-1 -0.5,-3.5 -3.5938,-2 -6.5937,-3.5937 -7.7187,-3 z m 630,10.0937 -2,2.625 -2.0938,2.5 -1,2.5937 -2.5,3 -1.0937,1.5 -1,2.5938 -1,3 -2,2 -0.5,2 1.5,1.0938 1,1.5 2.0937,0.5 1.5,-1 4.0938,-4.0938 1,-2.5 -0.5,-2.0938 0,-2 1.5,-3 1.5,-2.0937 2.0937,-0.5 2.5,0 1,-2 0,-2.5 -2,-1.5 -2.5937,-1.625 -1.5,0 z m -898.1876,9 -3.5937,2 -2.5,2 -2.125,2.125 -1,3 0,2 0.5,1 -0.5,0.5 -1,2.0937 0,1 1.5,0.5 -0.5,1.5 0,1 1,0.5 2.625,0 1,-1 2.5,-1.5 3.0937,-2 1.5,-1.5937 0.5,-2 0.5938,-2.5 -0.5938,-1.5 0,-2.125 -0.5,-2 -0.5,-1.5 -0.5,-1 -1.5,-0.5 z m -32.7187,12.7187 -3.5,2 -3.5937,2.5 -2,1 -2.5938,2.5938 -1,2 0.5,1.5 1.5,0.5 2.5938,-1.5 2.5,-1 3.5937,-2 2.625,-1.5938 2,-2.5 0.5,-1.5 -1,-2 -2.125,0 z m 11.3125,5.5 -1.5938,1 -1,2.0938 -0.5,1.5 -0.5,3 -0.5,1.5 0.5,1.5 0.125,0.125 3.8126,0 0.1562,-0.125 0.5,-1.5 2.5,-3 0.5938,-2 -0.5938,-3.0938 -1,-0.5 -2,0 -0.5,-0.5 z m 321.3125,2.0938 -1.5,0.5 -2,1 -2.125,2.0938 -1,2 0,3.0312 9.2187,0 0,-1.5312 -1,-1.5 -1,-0.5 0.5,-1 0,-3.0938 -1.0937,-1 z M 988,4058.3125 l -0.4062,5.3125 6.125,0 -0.625,-2.8125 -5.0938,-2.5 z M 778.3125,4061 l -3,2.0938 -0.6875,0.5312 7.75,0 0.031,-0.031 -1,-1 -1,-1.5938 -2.0937,0 z"
     id="rect12"
     inkscape:connector-curvature="0" />
  <path
	 style="fill:#9FAEC0"
	 stroke="#9FAEC0"
	 stroke-width="10"
     d="m 38.8125,4063.625 1.875,113.0625 1.9063,109.3125 0.5937,21.8125 4.3125,4.6875 4.4062,4.6875 3.5938,4.9063 2.4062,4.3124 1.0938,4.2813 0.6875,2.9063 -0.094,1.5 0,2.5 -0.094,2 -0.5,1 -1.5938,0.5 -2.5937,0.9062 -1.9063,1.9062 -0.3124,0.5 -0.9063,1.1876 0.4063,2.2187 1.4062,2.0937 1.4062,3.0938 0.5938,3 0.5,3.5 0.9062,4.3125 0.094,6.5937 -1.5938,7.0938 -0.5,3.8125 -1.0937,2.875 -0.9063,3.7187 -2,3.5 -2.0937,3 -1.5,3.0938 -1,3 -1.3125,2.5 -0.3125,2 -0.2813,1.8125 0,1.1875 -0.5,1 -1.5937,1.5 -1.125,2 0.9063,3.5938 2.0937,0.5 1.5,1.0937 1.5,1 2.125,1.5 1,1.5 0,3.2187 0.1875,0.7813 -0.6875,2.125 -2,8.0937 -1,4.5 1,3.0938 1.5,3 0,5.0938 -0.5,3.5 -1,3 -2.625,3.0937 -0.5,2.5 -0.875,3.5 -1.5,2 -2.125,1.9063 -1.0937,0.5 -3.0938,2.5 -1.5,1.7187 -2,3.0937 -0.1875,0.9063 -1.2187,3.6875 -0.6876,0.9062 -0.5,5.0938 0.5,4 1.5,4.0938 0,4.5 0.1876,1 -0.6876,3.0937 -2,2 -1,2.5 -0.5,2.5 0.5,2.625 0.7813,3.0937 0.5,2.2813 0.2187,1.625 1.5,5.0937 2.0938,4 2,2.5938 0.9062,2.1875 1.1876,3.8125 0.094,2.4062 -0.5,2 0.4063,1.5 0.5,1 0,1.5938 -0.094,2 0,1.5 1,1 1,0.5938 2,1 1.5,1.0937 1.0938,1.4063 2.2187,5.2187 3.5,4.5 1.5937,2.5937 1,1 1.5,0.1876 3,-0.9063 3.0938,0.125 3.5,1.0937 6.8125,0 1,1.5 -0.2187,2 1.2187,2.0938 0.5,0.9062 0.7813,0.9063 2.5,2 2,1.0937 2.5,2.5938 4.5,4.1875 1,1.9063 0.5,2 0,2.5937 0.5,3 0.8124,2.3125 0.1876,0.6875 1.5937,2.625 1.5,1.5 1.5,1 1.625,0.2813 1.5,1.0937 0.375,2 0.5,1.5 0,1 -1.0937,1 -1,0.5 -2,-0.094 -1,1.7187 -1,1.5 -0.1876,2.375 -0.094,0.8125 1.5,0.5938 1.375,-0.2813 1.7187,0 2.0938,1 0.5,0.5937 -0.094,1.5 0,2 0.4063,1 1.5,1.0938 3.0937,1.0938 2.5938,1 1.5,0 1,1 1,4 1.0938,2 0.9062,1.9062 1.3125,1.4062 2,2.0938 4.375,5.1875 2.5,2.625 1.625,2 1.5,3 1.6875,2.5 1.5938,1.7813 0.3124,0.8124 2,0.6876 2.0938,0.3124 2.6875,0.4063 3,1.0937 1.625,1 1.875,2.0938 1.625,2 1,2.5 0.5,2.5 0.5,2.0938 0,1 2,1 2.0937,0.7187 2.0938,0.5937 2.6875,0.5938 2,1 2.5,2.0938 2.5,2.5937 1.5,4 1,2.625 2,4 1.5,1.875 0.625,3.2187 -0.5,2 -1.125,2.5 -1.5,2 -1,1.5 -0.5,2.5938 0,2 -0.6875,1.4062 -1.4062,2.5938 -1,2.5938 0,1.5 0.5,3 0,4.5937 -0.5,2.5 -1.0938,1.8125 -1.3125,1.5 -1.5,1.0938 -2,1 -1.0937,1 -1,2 0.4062,1.5 1,2.0937 1.5,2 0.4062,3.625 -0.094,2.5 -1.125,5 -1.1875,4 -1.0938,4 -1.0937,4.0937 -0.9063,3.6876 -0.3124,2.0937 -0.1876,1.2187 -0.4062,3.5 -0.5938,3.7813 0.2813,5.125 0.2187,3.5 0.5938,2.375 0.4062,1.5 1.5938,4.5 4,2.2187 4.0938,4.0938 3.5937,4 1.5,2 2.125,2.0938 3,-0.5 7.6875,6.5 6.0938,5.0937 5.7187,4.5 5.0937,1.625 2.5,1 2.5938,3 3,6.5937 2.5938,3.5 3.0937,3 2,4.0938 3.125,2 4.0937,1.5 5.5938,4.0938 6.0938,1.5 5.5937,-2.5 3.625,-3.5938 -0.5,-3 -0.5,-2.5 -4.625,-2.5938 3.625,-1.5 0,-3.5 -6.2187,-3 0.5,-2.5937 0,-6 -3.5,0.5 0,-3.625 2,-0.5 -0.5,-5 0,-2.5937 2,1.0937 1.5937,1.5 2.5,14.125 5.125,2 3.5937,-1.5 2,2 -3.5,3.5937 4.0938,1.5 3,3 -5.0938,0.5 -1,3.5938 0.5,2.5 -2,4.5 1.5,2.0938 1,1 9.1876,-3.5 3.5937,1 3.125,-2.5938 2,3.0938 -1,5 -2.125,5.0937 0.625,4.5 4.5937,3.125 7.0938,-3.625 5.5938,-1 0.5,-4 1.5937,-1.5 2.5,0.5 1.625,-1.0937 1,-2 0,-8.5938 2.5,-0.5 2.0937,-1 -2.0937,-2 -1,-2.5 1.5,-2.0938 3.5937,-1 0.5,-3.5 1,-3 -4.5937,-2.0937 1.0937,-3.5 3,-1.5 1,4 2.0938,-1 1.5,-2 6.0938,-9.125 3.5937,-3 -2.5,-3 -2.0937,-2.0937 0.5,-1.5 3.0937,-0.5 3.625,2 1.5,-0.5 -1,-2.5 1.5,-4.5 -0.5,-2.0938 -6.125,0.5 -3.5937,1.5 -3.0938,0 -0.5,-4.5 1.5938,-3 1,-1 0,-2.0938 3.5,1 2.0937,2.0938 7.125,-1 2.0937,0.5 3.5938,-0.5 1.5,-6.0938 -2.0938,-5.5937 1.0938,-7 3,-6.125 3.5938,-9.0937 3.0937,-1.5 4.625,-2 9.6875,4.5 3,-1 -1,-5.5938 1.5,-1 -2.5,-1 -5.0938,-2 -5.0937,-1.5 1,-3.5938 2.5,-3 1.0937,-2.5 -1.5937,-2.5 1,-6.0937 4.0937,2 5.5938,-4.5 2.5938,-2.625 1.5,-5.5 -5.0938,-3.0937 2.5938,-3 2.5,-2.5 5.5937,-4.0938 3.625,-8 -4.625,-5.5938 -0.5,-5 -3.0937,-3.0937 -3,-6 1.5,-3.125 -2,-4 -4.5938,-2 0,-1.5937 1,-1 5.5938,-15.5938 4.5937,-13.6875 4.125,-6.125 6.5937,-6 -0.5,-9.0937 4.5938,-12.6876 2,-6 4.0938,-9.5937 4.5937,-3.625 9.7187,-10.0937 0.5,-4 6.0938,-1.5 4.0938,-2.0938 5.0937,-3.5 5.625,-1.5 5.5937,0.5 5.5938,-0.5 10.3125,0.5 2.5,-3 4.0937,-1.0938 4.0938,2.0938 2.5,3.5 5.6875,3.5 4,-1.5 3.125,-5 4.5937,-2.0938 3.0938,-6.5 5.0938,-3.5937 4.5937,-2.5 -3.5937,-6.625 3,-2.5 4.0937,-1 1,-5.5937 -2.5,-2 0.5,-2.5 6.125,2.5 1.5,-3.5 -1,-8.0938 -1.5,-1.5 0.5,-4.5938 5.0937,-5 3.5938,-2.5937 3.5,1 5.0938,-3 4.5937,-0.5 0.625,4 5.5937,-2.5 0,-4 -2.0937,-3.625 4.0937,-1 3.0938,-1.5 -2.0938,-3.5 4.5938,0.5 1,-2.5937 -5.0938,-2 2.5938,-4.5 6.0938,-3.0938 3.0937,-7.5938 4.5,-6.5 9.2187,-6.5937 11.2813,-1.5 4.625,-3.625 4,-3 -2.5,-2 -1.625,-1 -1.5,-1 -4.5937,-0.5937 -3.5938,4.0937 -15.3125,10.625 -4.5937,-5 1.5937,-5.125 2.5,-1 -1.5,-2.5 9.2187,3.5 1,-1.5 -11.7187,-6.5937 -2.5937,-5 -1.5,-2.0938 -4.0938,-7 -1.5938,-13.1875 0,-3.5 -0.5,-9.625 0.5,-1 1.5938,-9.0937 8.0938,-16.6876 4.0937,-6.5937 5.125,-6.625 5.5937,-6.5937 2,-2 7.1876,-4.5 5.0937,-1 -0.5,-4.5938 -3.5937,-3.5 2,-6.5938 4.0937,-7.5937 2,2 0,2.5 -1,2.0937 1.625,4 8.0937,-3.5 3.0938,1 -5.5938,4 1.5,2.5938 -2,7 2.5,2.0938 2.0938,3.5 -0.5,3.5 -1.5938,2.5937 1.0938,3 3,1 5.0938,-0.5 2.5937,-0.5 -3.5937,-6.0937 0.5,-5 2.5937,-3.5938 3.5,-5.5 6.2187,-5.5938 7.5938,-4 9.6875,-6.0937 1.5,-5.125 -1,-5 3.125,-5.5937 1.5,2.5 -1,4.5937 2,7.125 -0.5,6 3.5937,3.5937 4.0938,1 6.5938,1 6.0937,-2 5.125,-3.0937 9.1875,-9.625 3.0938,-0.5 2.5,3 3.0937,5.125 5.625,-1.5 4.0937,-1 3.5938,-5.625 -0.5938,-4.0937 -4,-8 -3.0937,-0.5938 0.5,-3.5 3.5937,-7.0938 -2.5937,-4.5 -4.625,-0.5 -2.5,-3.5937 1,-3 -3.0937,-2 4.0937,-12.2187 2.5,-1.5 2.625,-11.5938 -2.125,-4.5938 -7.5937,-8.5937 -1.0938,-9.125 -4.0938,-2.5 2.5938,-7.0937 -3.5938,-1.5 -4.0937,-4 -2,-0.5 -5.125,5 -5.0937,4.0937 2.5937,6.5 -3.5937,2.125 -3.0938,-7.125 -2,3.5 -2.0938,6.625 -5.5937,1 -6.625,-0.5 -7.6875,-3 -0.5,-5.625 0.5,-4 12.3125,0.5 12.1875,-7.5937 8.1875,-9.5938 4,-4.5938 0,-3 -8.5937,-6.0937 -2.5938,-4.5 1,-3.625 0.5,-5 4.5938,-1.5937 0,-3 -6.0938,0 -2.0938,-2.5 1.0938,-3 0,-9.1876 1.5,-7.5 -2.0938,-5.0937 4.0938,-1 3.5938,-4.125 2.5,6.125 -1,10.0937 -0.5,6.5938 2.5937,3.5 4.125,-3 2.5,-9.0938 4.0937,0 1,2 1.5,2.5 3.0938,-1 4.5938,-8.5937 -2.0938,-5 -4,-1.5 0.5,-5.625 1.5,-1 3.0938,2.5 5.5937,-8.5937 10.2187,-11.0938 4,-9.5938 -0.5,-19.8124 -1,-5.5 6.0938,-5.0938 5.0938,0 2.5,-3.5938 1.5937,0 1,1.0938 0,4.5 -1,4.5938 -2.5937,6.5 2.5937,1.5937 9.2187,-9.1875 8.5938,-6 0.5,-2.0938 -1,-1.5 0,-2 8.6875,-10.0937 2.5,-1 0.5,-1.125 -3,-3.5 -0.5937,-1.5 1.5937,-2 12.7187,0 7.3126,-4.0625 -700.4063,0 z m 735.8125,0 -1.9375,1.4688 -3,3 0,1.5937 0.5,0.5 2,-0.5 3.125,-1.0937 -0.5,-0.5 3,-0.5 2.0937,-0.5 1.5,-1.5 0.9688,-1.9688 -7.75,0 z m 32.4062,0 0.875,0.9688 1.5938,0 1.3438,-0.9688 -3.8126,0 z m 29.625,0 -2.6562,5.9688 -2.0938,7.0937 -2,0.5 -1,6.625 -4.5937,2 -2.625,4.5 -4,11.6875 -5.5937,4 -7.6876,12.6875 -4,11.625 1.5,2.0937 4.5938,-4.0937 10.6875,-8.625 2.5,0 1.625,8.125 -5.125,5.5937 -2.5937,9.5938 2.0937,0.5 6.125,-8.5938 4.5937,-4.5937 5.5938,-4.625 1.5,-2 0.5,-3.5 -0.5,-3.0937 -0.5,-2.5 -3.5938,1.5 -1.5,-1 0,-6.5938 1.5,-2.5 3.5938,-3.5 4.0938,-3.5938 9.5937,-16.2187 3.125,1 3,-9.0937 -3,-7.0938 1.9375,-3.875 -15.0938,0 z m 19.5938,0 1.1562,1.875 1.9688,-1.875 -3.125,0 z m 21.7812,0 -3.7187,8.4688 -2.625,7.0937 -4.5937,-1.5937 -6.5938,7.0937 -1,10.7187 -5.0938,-1 -4.5937,14.0938 -5.125,8.0938 -0.5,2.5937 -5.0937,5 -1,4.625 -3.5,9.0937 -1.0938,5.5938 -2,5 5.0938,0.5 6.0937,-15.1875 5.125,-9.625 4.0937,-8.5937 6.5938,-7.0938 8.0938,-9.5938 6.7187,-8.5937 4,-4.125 2.0937,0 1,1 -0.5,9.2187 1,2.5 4.0938,-4.5937 5.0938,-20.2187 5.0312,-10.4688 -17.0938,0 z m 29.4376,0 -2.5626,2.375 -0.5,5.5 -1.5937,4.0938 5.5937,-0.5 5.6876,3.5 6.0937,0.5 2.5,-4.5938 -1.5,-10.5938 -0.031,-0.2812 -13.6874,0 z m 48.8437,0 -2.5,5.2812 -2.5,-2 -4.625,2.5938 -3.0937,-2.0938 -4.0938,-1 -5,3.5938 -1.5938,6 1.0938,5.0938 2.5,3.5 1.5,5.5937 -0.5,6.125 -3,8.0937 2,4 3.0938,-8.5937 1.5,0.5 1.0937,9.5937 2.5,0 1.5,4.5938 -3.5,2 0,5.0938 -3.0937,4.5 2.5937,4.5937 6.625,-2.0937 4.0937,-3 2,-6.0938 2.5938,-1.5 1.5,3 -5.5938,13.6875 -5.0937,8.625 -2,7.0937 1.5,8.5938 4.5937,1.5 -1.5,4.0938 0,4.5 -1,3.0937 -1,2 3.0938,2.5 4.5,-3 3.5938,0.5 2.5937,5 3,-2 -0.5,-5.0937 1,-5.5 -3,-1 0.5,-4.0938 3,-5.5938 4.125,-1 5.0937,-4 6.0938,-3.0937 -1.5,-3 -1.5938,-2.5 0.5,-3.625 2.0938,0 1.5,3.125 1.5938,3 1.5,-3 2.5,1 -0.5,3 9.2187,-1.5 3.5937,-8.125 7.0938,-2.5937 0.5,-6 -2,-3.0938 -3.0938,-2.5 -6.0937,5.5938 -4.125,6 -2,-4.5 5,-18.1876 4.125,3.5 1,-5 2.5937,-2.5937 -1,-5.5 -1.5937,-2.625 -2.5,-2 -1.125,-3 -1,-3.0937 -2.5,-3 -4.0937,-7.5938 0.5,-5.5 3,1.5 1.5937,5.5 6.125,0 -2.125,-7.0938 -4.5937,-7 -0.875,-3.7812 -6.125,0 -0.094,1.1875 -2.5938,4.5937 -1.5,-3 1.0313,-2.7812 -28.125,0 z m 54.8437,0 -1.75,1.6875 -0.5,7.5937 0,4.5938 2.0938,3 3.0938,6.5938 -1.0938,6.5937 3.0938,2 0.5,16.2187 -0.5,1.5 4.0937,8.5938 2.125,-0.5 0.5,-3.0938 0.5,-5 -2.625,-2 1,-3.5937 3.625,0 1,-3 2.5937,-0.5 3,1 -1,6.5 -2,7.5937 2,1.5 4.5938,-3 0.5,-3.5 4.0938,-6.5937 1.5,-4.625 2.0937,-0.5 3,-1.5 8.2187,-8.5937 4,-5.5938 1.5,-15.1875 -1.625,-8.1875 -47.625,0 z m 84.8126,0 5.8437,14.1875 4.5937,7.0937 1.5,1 3.0938,0.094 1.5,-10.6875 1.5,-8.625 -2.0625,-3.0625 -15.9687,0 z m 29.2187,0 0,0.4688 0.5,1.5 1.125,1.5937 1,1 1.5,0.5 1,-0.5 2.0937,-1 1,-1.5937 1,-1.5 0,-0.4688 -9.2187,0 z m -322.875,3.9688 -2.5,0.5 -1.625,3 -1,2.0937 -1.5,3 -1.5,3.5 0.5,2.125 1.5,1 2.125,-0.5 2.5,-3.125 1,-3 1.5,-2.5 1.0937,-2.0937 0.5,-2.5 -1.5937,-1.5 -1,0 z m -44.9063,11.7187 -1.5,0.5 -1.5,2.5 -2.0937,2 -1.5,1 -2,2.0937 -0.5,1 0.5,1.5 2,0.5 1,0 2.0937,-1 2,-1.5 3.5938,-3.0937 3,-2 0,-1.5 -1,-0.5 -0.5,0 -2,-1.5 -1.5938,0 z m -27,9.5937 -4.0937,4.0938 -3.5,-0.5 -2.125,1 -1.5,1 -3.0937,2.5 0.5937,7.0938 -0.5,3 -3.0937,4.0937 -5.5938,3.5 -1.5,5.125 3.5,0 1.5938,4.5 4.5937,-4 3.5,-1 3.125,-3.125 -0.5,-5.5 3,0 2.5937,4 7.0938,-3 2.0938,-4.0937 4,-1.5 0,-2.5 -1.5,-1 -4.5938,0.5 -5.0938,1.5 -0.5,-4.0938 1.5,-4.5 2.5938,-6.5938 -2.5938,-0.5 z m 658.0938,9.5938 -4.5938,2.5938 -2.5,2 -2.5937,3.5 -1.5,3.0937 -1,4 -0.5,3.125 -0.5,3 1.5,0.5 1.5937,0.5 2,0 2.5,-1 0.5938,-2 1,-2.125 2,-1.5 1.5,-1 0.5,-2 0.5,-2.0937 1.0938,-1 2.5,-1.5 1.5,-2 0.5,-3.0938 -1.5,-1.5 -3.0938,-1 -1.5,-0.5 z m -591.1875,8.0938 -2.625,1.5 -1,2 -3,4 -2.5937,4.5937 -3,5.125 -1.5938,2.5 0.5,2.5 1.5938,0.5 2,-0.5 3.5937,-6 3.5,-3.625 1.125,-2 1.5,-2.5 2,-3.0937 1,-3 -0.5,-1.5 -2.5,-0.5 z m -42.4063,3 -4,4.5937 -4.5937,9.125 -4.125,-1.5 -2,0 -5.0937,1.5 -3.5938,5.0937 -4.0938,7.5938 -4.5937,8.5938 -3.5,7 1.5,3.0937 2.5937,0 4.5,1.5 2.0938,-2 2,1 -2,4 -1,5.625 1.5,2 4.0938,-1.5 1,-3 5.0937,-5.625 -2,-4.0937 3,-3 4.125,1 1,-2.5 -2,-4.0938 4,-7.5938 2.0937,-5.5 3.5,-5.5937 3.5938,-4.5 -0.5,-3.625 0.5,-6.0937 -3.0938,-1.5 z m 126.5938,35.3124 -2.5938,0.5 -1,1.5 0,2.5938 1.0938,2 1,2 1,1 2.5938,0.5 2,-0.5 1.5,-1 1,-2 -1,-2.5 -1.5,-1.5938 -1,-1.5 -1.5938,-1 -1.5,0 z m -72.4062,4.5938 -1.5938,2.0938 -1,3 -1.5,4.0937 -1.5,3 1.5,1.5 1.5,-0.5 2.0938,-2 3.5,-3.0937 1.5937,-1.5 1.5,-1.5 0.5,-3 -1.5,-1 -3.5937,-0.5 -1.5,-0.5938 z m -127.5938,1.1875 -2,1 -2.0938,1.5 -3,3 -1,2.125 1,2 1.5,0.5 1.5,-1 1.5938,-1 2,-2.125 2,-2 1.5938,-3 -1,-1 -2.0938,0 z m 34.6875,7.5 -2.5,1 -2.5937,1.125 -2.5,1.5 -2.0938,1 -2,1 0,1.5 1,1 3.0938,0 3,0.5 1.5937,0 1.5,-1.5 2,-2.5 1.625,-2.625 0.5,-1.5 -1.125,-0.5 -1.5,0 z m 26.625,6.625 -2.125,1 -2,1.5 -1.5937,1.5 -2.5,3.0937 -1,2 0.5,2 2.5,0 1.5937,-1 2,-2.5 2.625,-2.5937 1,-2 0.5,-1.5 -1.5,-1.5 z m 13.6875,1 -2,2 -3.0938,3 -2,3.0937 -3.0937,3.5 -3,4.0938 -2.625,3.5 -2,3.5938 0.5,3 1,0.5 1.125,0 2.5,-2 1,-1.5 1,-1.5938 1.5937,-2.5 1,-1 2,-1.5 1.5938,0 1.5,0.5 1.5,1 1,1.5 1.0938,0.5 2,0 2.5,-2.5 1.0937,-2 1,-1.5938 0,-1.5 -1.5,-1 -0.5937,1 -1.5,1 -1.5,0.5 -1.5,-0.5 -1.5938,-1.5 0,-1.5 1,-2 1.0938,-1.5 1.5,-2.0937 1.5,-1.5 -0.5,-1.5 -1,-1 -1.5,-0.5 -1.0938,0 z m -36.6875,2 -1.5,1 -5.625,9.6875 -3.0937,0 -1.5,1.5 -1.5938,1.5 -1.5,1 -2,1.5 -3.5938,2.0938 -4.5937,3.5 -2,6.0937 4.0937,3.5 6.5938,1 5.0938,-3 2.5,-9.5937 4.5937,-1.5 1.125,-1.5938 1,-2.5 2.5,-1 1,-4.5938 2.5937,-2 -2.5937,-3 -1.5,-3.5937 z m -75,15.7813 -2.5,2 -1.125,2 0.625,2 1.5,1.0937 3,0 2.5937,-0.5937 3.0938,-1.5 0,-2 -0.5938,-1.5 -4,-1.5 -2.5937,0 z m 31.0937,4.5 -3.5,2 -3.0937,2.5937 -2.5,4 -1.625,4.625 0.5,3 1.125,1.5 2.5,0.5 3.5937,-1 2,-0.5 2.0938,-1.5 1.5,-2.625 1.5,-2.5 -0.5,-1 -1.5,-1 0,-1.5 1.5,-1.5 1.5,-1.5937 0,-1.5 -1.5,-1.5 -1.5,0 -2.0938,-0.5 z m 86.2813,1.5 -2.0937,1 -3,3 -2.5938,3.5 -2.5,3.0937 -0.5,2.5 1.5,2 1.5,0.5 2.0938,0 1.5,-1 1,-1.5 1.5937,-2.5 1.5,-2.5937 1,-3 1,-2.5 -0.5,-2 -1.5,-0.5 z m -78.5937,16.2187 -5.5938,4.0937 -2.5,2 -1.0938,3 -0.5,2 -2.5,1.0938 -1.5937,1.5 0.5937,1.5 0.5,1 0,4.5 1.5,1.0938 2.5938,0.5 3.5,0 1.5938,0.5 2,1.5 2,1 2.5937,-0.5 2,-2.5 2.125,-3.5938 0.5,-2 -0.5,-1.5 -1.625,-1.5 -1.5,-2.5938 -1.5,-2 0,-1.5 0.5,-2 1,-2.5937 -0.5,-2 -1.5,-0.5 -2.0937,-0.5 z m 35.2187,11.0937 -3,1 -1.625,1 -2,3.5938 -1.5,3.5 -1.5937,2.5 1.5937,2.0938 1.5,0 2,-2.0938 2.125,-2 1.5,-2.5 2.0937,-2.5 1,-2.5938 -0.5,-1 -1.5937,-1 z m -53,16.6876 -2.125,1.5937 -1.5,2.5 -1,3 1,2.5 0.5,2.625 1.625,2.5 2,0.5 3.0937,-2 1.5,-1.5 2.5,-2.625 2.5938,-3 3,-1.5 0.5938,-2 -1.0938,-1.5937 -2,-1 -2,0.5 -2.0938,1.5937 -2,0 -1,-1.0937 -1.0937,-1 -2.5,0 z m -25.4063,111.8124 -2.5937,1.5 -2.5,2.5938 -1.625,1.5 -1,1.5 0,1.5 0.5,1.5 1.625,0 2,-0.5 2,0 1.5937,1 4.5938,0 2,-0.5 1.5,-2 0,-3 -0.5,-3.0938 -2,-1.5 -2.5938,-0.5 -3,0 z"
     id="rect14"
     inkscape:connector-curvature="0" />
</svg>
