<?xml version="1.0" encoding="UTF-8" standalone="no"?>
<svg
   xmlns:dc="http://purl.org/dc/elements/1.1/"
   xmlns:cc="http://creativecommons.org/ns#"
   xmlns:rdf="http://www.w3.org/1999/02/22-rdf-syntax-ns#"
   xmlns:svg="http://www.w3.org/2000/svg"
   xmlns="http://www.w3.org/2000/svg"
   xmlns:sodipodi="http://sodipodi.sourceforge.net/DTD/sodipodi-0.dtd"
   xmlns:inkscape="http://www.inkscape.org/namespaces/inkscape"
   width="2975.5938"
   height="1819.3125"
   viewBox="0 0 2975.5938 1819.3125"
   id="svg2"
   version="1.1"
   inkscape:version="0.48.1 "
   sodipodi:docname="Aa.svg">
  <metadata
     id="metadata20">
    <rdf:RDF>
      <cc:Work
         rdf:about="">
        <dc:format>image/svg+xml</dc:format>
        <dc:type
           rdf:resource="http://purl.org/dc/dcmitype/StillImage" />
      </cc:Work>
    </rdf:RDF>
  </metadata>
  <defs
     id="defs18" />
  <sodipodi:namedview
     pagecolor="#ffffff"
     bordercolor="#666666"
     borderopacity="1"
     objecttolerance="10"
     gridtolerance="10"
     guidetolerance="10"
     inkscape:pageopacity="0"
     inkscape:pageshadow="2"
     inkscape:window-width="1280"
     inkscape:window-height="1004"
     id="namedview16"
     showgrid="false"
     fit-margin-top="0"
     fit-margin-left="0"
     fit-margin-right="0"
     fit-margin-bottom="0"
     inkscape:zoom="0.27536824"
     inkscape:cx="1483.047"
     inkscape:cy="472.45977"
     inkscape:window-x="-8"
     inkscape:window-y="-8"
     inkscape:window-maximized="1"
     inkscape:current-layer="svg2" />
  <path
	 style="fill:#9FAEC0"
	 stroke="#9FAEC0"
	 stroke-width="10"
	 transform="translate(0, 125)"
     d="m 2137.9063,0 -6.5938,0.094 -7.2188,1.5 -6.5937,3.0937 -12.1875,7.2187 -10.125,5.5938 -3.5938,2.0938 -5.0937,2.0937 -8.1875,2.125 -13.2188,2.0937 -8.6874,2.5938 -13.8126,2.5938 -5,2.0937 -3.5937,2.625 -5.0937,4.5 -4.5,5.5937 -14,45.0938 -55.3126,-16.1875 -28.5,14.875 -16.6874,19.8125 4.5937,59.0938 -5.5937,-2 -10.3126,-2.9063 -9.1874,-3 -7.2188,-1.5 -5.5938,0.125 -6.0937,0.5 -6.5937,2.5937 -0.7188,0.5 -4.375,3.0938 -3.125,3.0938 -3,3.0937 -6.0938,8 -5.5,9.7187 -6.5937,10.0938 -11.5937,13.8125 -72.5938,-0.5 -199.9062,-4.4063 -193.2188,-6.5937 -28.0938,-1.2187 -24.0937,-0.7813 -148.1875,-5.625 -142.125,-5.2813 -53.6875,-2.0937 -88.4063,-3.4063 -125.5,-4.3124 -191.5,-7.4063 -52.2812,-1.6875 -18.4062,-0.5938 -76,-2.5937 -43.9063,-1.5 -112.5937,-4.9063 -43.5938,-2 -20.4062,70.9063 -15.2188,52.5 -1.9375,6.7187 2209.4687,0 0.875,-3.8437 1,-3 3.5938,-2.5937 3.625,-1 4.5938,-0.5938 2,0 2.5937,-0.5 2.5,-1.0938 1,-5 0,-1.5 -1.5937,-2.0937 0,-3.5 0.5,-3 -1.0938,-2.5 -2.625,-3 0.5,-2.125 -1.5,-3.5 -5.6875,-1.5 -7.0937,-1.375 -3.0938,-2 -2.125,-3 -2.0938,-2.5 0,-5.625 1.9063,-12.0937 -1.5,-3 -2.5937,-1 -2.5938,-3.5 -1.5,-1.5 -2.625,0.5 -6.5938,6.0937 -3,-0.375 -1.5937,-2 -5.5937,5 -6.0938,4.0937 -3,7.5938 -8.625,9.1875 -4,3.125 -1.5,4.5 0.5,5.5937 1.625,1.5 1.5,0 2,-0.5 2.0938,3 -0.5,4 2.0937,2 1.0937,3.5 -2.5,7.0938 -1.5,4.5938 -1,2 -2.0937,-0.5 -2,-2 -1.5937,0 -2,1.0937 -1.5,0 -3.0938,-1.5 -4.125,-1 -2.0938,0.5 -1.5,-0.5 -0.5,-3.5 1.5,-3.5 7.0938,-2.5937 2.5,-1 1.125,-1.0938 0.875,-6.5 -4.5938,-3.5 -4.0937,-1.5 -6.1875,-1 -3.5,-1.4062 -2.625,-2.5938 -2.5938,-0.4062 -3.0937,-2 -2.5,0 -1,4 0,5.5937 -0.4063,3.5 -1,2.125 -4.0937,1.5 -3.5937,0.5937 -2.5,0 -1,5 0,2.5938 -0.5,2 -2,1 -4.0938,-2.5 -0.625,-4 0.5,-2.5 -0.5,-2.0938 -1.5938,-0.4062 -2.5,-0.5 -2.0937,0.5 -5.5,8.0938 -2.0937,0 -2,-3 -0.094,-3 -0.5,-2 -1,-2.5 -3.125,-2 0,-1.5 1,-2.5938 -0.5938,-4 -1.5,-4.5 -2.5937,-3.5 -0.5937,-2.0938 1,-3 1.5,-4.5937 6.5937,-4.125 5.1875,2.5 4.625,4 4.0938,1 3.0937,1.5 3.5937,1.5 3.0938,2.5 5.125,1.9063 1.5,-2 -5.2188,-7.5 -1.5,-2.5 -2.0937,-2.5 -3.0937,-4.0938 -5.7188,-3.4062 -6.5938,-1.5 -5.5937,-1.5 -3.5937,-0.9063 -4.0938,-1.5 -3.625,-2 -5.6875,-0.5 -4.5,2.125 -4.0937,1 -1.5938,-0.4063 -1,-1 1,-3.0937 2,-2.5 0.5,-1 2.0938,-2.125 -5.2188,-4.5 -5.0938,-0.875 -4.5937,0 -0.5,0.5 -3.5937,2.5937 -4,1.5 -3.0938,-0.5 -2.125,-1.5 0.5,-4 2.5,-1.5 2.625,-2.0937 0.5,-4 -0.125,-3.625 -1.5,-4 -0.094,-1.5 0,-1.5 -0.5,-5.5937 3.5,-3.5 0.5,-5.0938 -1.0937,-7 -1.0937,-5.0938 -0.5,-1.5 1,0 3.0937,-1 4.0937,3.5 5.2188,9.5 1.5938,7.0938 2.0937,9 5.1875,9.5938 0.5,0.5 4.2188,5 1,4 2.0937,1 2.5,1.5 3.5937,0 2,-1.5938 1,-2.5 0,-1.5 -0.5,-2 -0.5937,-5.5938 -6.1875,-11.5 -4.7188,-10.0937 -3.5937,-11.125 -5.8125,-15.5937 -4.6875,-15.5938 -3.6875,-12.5938 -1.125,-6 -1.0938,-4.5937 -1,-5.5 -0.5937,-8.125 -0.094,-6.5937 -1.0938,-7 -6.125,0.5 -1.375,16.7187 0.5938,3 -3.0938,-0.4063 -4.625,-1 -2.0938,0.5 -4.5,1.0938 -7.1874,-2 -6.2188,-3 -4.5938,-5 -4.0937,-3 -12.8125,-4.9062 -6.1875,-3 -2.5937,-3.5 -2.0938,-4.5 1.5,-2.5938 4.5938,-0.5 6.1874,2 8.2188,7 1.0938,1 7.0937,-0.094 8.6875,-3.0937 5.625,-3.625 7.0938,0.5 3.5937,-0.094 4.0937,1.5 4.0938,-2.0938 3.5,0 -1.0938,-8.5938 -1.0937,-15.0937 -0.5937,-11.125 -0.094,-7.0937 -1.625,-12.5 -1.5938,-0.094 -7.5937,3.0938 -6.5937,4.0937 -6.5938,3.625 -3.125,1.5 -2.5,-0.4063 -7.6875,-4.5 -8.8125,-6.5 -7.6875,-7 -4.5937,-3 -5.2188,-2.5 -6.0938,-2.5 -7.1874,-1.4062 z m 124.7812,241.8125 -2.0938,1.5937 0.094,3 1,2.5 1.625,1.5 3.0938,2.5 3.5,1 4.0937,-2.0937 0.5,-2.5 -1.5937,-3 -4.5938,-2.5 -2.625,-1.5 -3,-0.5 z"
     id="rect4"
     inkscape:connector-curvature="0" />
  <path
	 style="fill:#9FAEC0"
	 stroke="#9FAEC0"
	 stroke-width="10"
	 transform="translate(0, 100)"
     d="m 171.25,289.0312 -9.9375,34.6563 -25.125,88.125 -2.375,8 L 112.5937,494.5 98.3125,543.90625 88,579.03125 l 1945.4687,0 0.031,-0.0312 0.062,0.0312 37.9375,0 -1.3125,-3.34375 -2.5938,-4.5 -3.0937,-5.09375 1.5,-5 4.0937,0 4.0938,2.40625 -0.375,7.59375 2,2 3.5938,2.5 4.0937,1 6.1875,-1.59375 2.5,0 2.125,3 -0.375,1.03125 8.375,0 -0.3125,-1.125 -7.8125,-12.5 -0.5938,-5.09375 3.5938,-4 -3.5938,-2.5 -3.0937,-2.5 -6.1875,-2.5 -2,-2 -0.125,-6 -2.5938,-4.625 0,-8 5.5,-9.1875 5.5938,-7.09375 7.625,-10.09375 6.5,-7.71875 3.0938,-2 2.5,-1.59375 5.1874,2 2.0938,7.09375 0.625,9.09375 3.5938,13.5 4.6874,0.5 5.5,-3.09375 9.8126,3.5 6.5937,-0.0937 2.5937,-3.5 -3.0937,-5 -2.5937,-3.09375 -8.2188,-1.90625 -3.5938,-1.5 -3.0937,-0.5 -2.0937,-4 -3.0938,-4 0,-9.09375 0.875,-4.5 2,-8.09375 5.125,-7.125 7.5938,-1.09375 8.6874,3.40625 6.7188,2.5 3.0938,-2.5 1.5,-2.59375 2.5,-2 5.5,-12.21875 5.0937,-2.59375 4.5937,-3 5.0938,-4.09375 3,-3.09375 5.625,-2 9.1875,0.90625 4.5937,-4.625 1.9063,-13.59375 -5.0937,-0.5 -9.5938,12.21875 -2.5,0 2.875,-10.125 3.5,-14.68755 -5.5938,-0.9062 -8.6874,-1.5 -3.0938,6.5937 -3.5,4.625 -3.5,6.5938 -2,3 -6.7188,1.09375 0.4063,-12.59375 -3.0937,-7.5938 3.5,-2.5 11.6874,-10.2187 0.5,-5.5938 -3.5937,-1.5 -9.0937,7.6875 -2.0938,-4 -3.625,-2.5 -3.5938,-3 -5.6874,-2 -8.2188,-3.875 -8.1875,-1.5 1,-4.5 3,-3.125 13.9063,3.4063 7.0937,-1.5938 3.0937,6.0938 6.7188,1.9062 7.5938,-5.5938 7.1874,0.5 4.0938,0.4063 5.125,-4.625 14.2812,-1.0937 9.7188,-2.0938 15.1875,-8.1875 11.8125,-2.625 5.5938,-2.5937 4.0937,5.5 2,0.5 4.0937,-3.0938 8.0938,-8.0938 3.625,-3.0937 5.5938,-2.625 8.0937,-2.0937 4.5937,2.5 3.7188,4 1.5,1 5.0938,-3.5938 3,-3 5.0937,0.4062 4.0937,-2.5 3.5938,-1.0937 3.5,-4 2.5,-3.125 2.125,-2 3.5,-3.5937 2.875,-15.6876 5.125,-5.0937 2.5938,-2 7.0937,-0.125 5.6875,2 -0.5,2.5 0.5,2.625 -0.5,1.5 -1,2 1.5,1.5 1.125,1.5 0,1.5 -1,1.5937 -2.625,1 -2,3.5 -1,3.5938 -1,2 0.625,3 2.5,2 4.5938,-1.5 4.0937,-5.5938 -0.094,-4.0937 1,-2.5 4.5937,-2.125 1.5,-1 2.5937,-3 2,-3.0936 2.5,-4.5 2.5,-3.5939 0.5,-4.5938 -1.0937,-6.5 2.5,-2 3.0937,-2.5937 4.0938,-2.625 0.031,-0.1563 -2209.4687,0 z"
     id="rect6"
     inkscape:connector-curvature="0" />
  <path
	 style="fill:#9FAEC0"
	 stroke="#9FAEC0"
	 stroke-width="10"
	 transform="translate(0, 75)"
     d="M 88,579.03125 80.3125,605.1875 60.1875,673.8125 23,801.09375 5.125,869.0625 l 2356.2187,0 -13.5312,-14.75 -9.4062,-16.5 -9.8126,-19.625 -7.2812,-10 -1,-3.09375 -1.625,-2.5 -2,0 -2.0938,1.09375 4.2188,11.5 0.094,6.125 -6.7188,-1 -2.0938,-6.5 -1.0937,-6.5 -1.5,-3.125 -5.6875,-1.875 -5.125,2 -3.5938,-1.40625 5.0938,-5.59375 4.125,0.375 6.5938,0.5 1.5937,-3.09375 -2.1875,-15.09375 -0.625,-6.5 1,-5.09375 0.5,-2.5 1,-2.59375 -1.0938,-3 -1,-1 -4.0937,2.59375 -3,0 0.4063,-5 3,-5.59375 -8.7188,-4.5 -13.875,-12.5 -9.3125,-12 -2.6875,-13.125 -4.125,-6.5 -3.5938,1.5 -0.5,7.625 -3.5,2.59375 -3.0937,1 -3.5,2 -1.9063,6 -4.1874,1.1875 -1.5938,-11.59375 -3.2188,-13.59375 -9.7812,-5 -12.8125,-4.90625 -2.5937,-0.5 -12.8126,-2.40625 -9.1874,-5 -2.0938,-1 -10.3125,-11.5 -6.8125,-12.59375 -4.0938,-10 0.4063,-5.59375 -7.6875,0.0937 -14.2188,2.6875 -10.1874,3.625 0,3.5 4.5937,1.5 4.5937,2 7.7188,-2.625 7.5938,1.40625 3.1874,6.5 3.0938,9.09375 0.625,5.625 -1,4.5 5.5938,0.5 2.5937,0.875 4.0937,4.5 4.7188,4 1,7.125 -0.9062,4 -3.0938,0.59375 -3.125,2 -2.5,0.59375 -2.5938,-3.09375 -3.0937,-0.40625 -2,1.5 2.0937,6.5 -3.0937,1.59375 -4,1 -4.0937,0.0937 -3.0938,-3.5 2.375,-11.1875 -2.5,-1 -8.1875,0.59375 -11.1875,11.21875 -3,7.09375 2.0938,5.5 1.5937,1 -1,4.09375 -2.5937,1.5 -4,2.59375 -1.5938,-0.5 -3.625,-4 -2.5938,-4.5 -1.0937,-5.09375 4.0937,-7.09375 -2.5937,-3.5 -7.0937,4.59375 -5.5938,4.09375 -3.625,1.5 -1.5,4.59375 2.125,6.5 1.5938,3.625 -3.5938,3 -2.5,-2 -2.125,-4 -1.0938,-1.5 -4.5937,-1.5 -0.5,-3 -0.094,-4.5 2.0937,-2.625 0.5,-3 4,-0.5 3.0937,-2.59375 3.5,-5.09375 1.5,-3.5 4.0938,-4.59375 0,-3 0.9062,-6.59375 -4.5937,-1.5 -9.1875,4.6875 -5,5 -4.125,0.59375 -11.2812,-0.40625 -6.2188,-4.5 -3.5938,-5 -7.1874,-5 -5.5938,-5 -1.625,-3 1,-4.59375 7.625,-2.09375 3.5938,-3.5 3,-4.09375 4.5937,-3.59375 0,-3.5 -8.1875,-0.40625 -9.7188,5.09375 -4.0937,3.09375 -4.5937,-1.5 -3.0938,-1.5 -2,2.5 -2.9062,14.71875 -5.7188,-4 -1.5938,-11.625 -0.094,-5 8.5937,-11.6875 -7.6874,-3 -0.5,-3 0,-3 6.5937,-3.09375 5.0937,0 2,-3.09375 4.5938,-3.125 6.625,-2 -0.5,-7.59375 -3.625,-2 -11.2812,-7.5 -3.7188,-4 -10.0938,6.71875 -4.0937,-1 2.5,-7.125 3.5,-3.5 -0.5937,-9.59375 2.0624,-2.5625 -1945.4687,0 z m 1945.5625,0 17.8438,7.96875 12.4062,10.40625 3.0938,1.5 1.5,-0.5 2,-1 2.5937,-2.59375 3,0.5 4.0937,-3 1,-4.125 -2.0937,-3 -3.5937,0 -2.5,-2.5 -1.4063,-3.65625 -37.9375,0 z m 60.375,0 -1.625,4.5625 0,3 1.5938,2 2.5,2.5 12.4062,11.5 2.0938,-2.5 -5.8126,-11.09375 -2.7812,-9.96875 -8.375,0 z m 9.4688,47.875 -5.0938,2 -4.625,4.59375 -3,5.09375 -1,4.5 0.625,3.59375 1.5,2.5 2.5938,1 4.5937,-1.09375 3,-4 1,-1.59375 0,-5.5 1.5,-2.5 2,-3.09375 0.5,-2 -0.5,-2.5 -3.0937,-1 z m 25.2812,22.5 -1.0938,0.5 -1,1.5 -1.5,4.09375 -3.5,2.5 -4.5937,3.09375 -2.5,2.5 0.5,2.5 1.5,1.5 2.5937,1 3.0938,1.5 2.5,0.5 1.625,-1 0.5,-1.5 -0.125,-2.59375 1,-3 2.125,-2.5 2,-2.09375 1.5,-2.5 0,-2.5 -2.625,-3 -2,-0.5 z"
     id="rect8"
     inkscape:connector-curvature="0" />
  <path
	 style="fill:#9FAEC0"
	 stroke="#9FAEC0"
	 stroke-width="10"
	 transform="translate(0, 50)"
     d="M 5.125,869.0625 0,888.5 l 4.8125,24.59375 3.0938,15.71875 6.6874,0 102.8126,1.5 26.0937,1.59375 1,0.0937 16.4063,0.59375 21.4062,1.09375 5.1875,0.21875 121.5937,6 66,3.78125 2.3126,0 2.7812,0.125 6.4062,0.1875 26.4063,1.1875 33,1.40625 24,0.90625 33.8125,0.3125 69,0.78125 -1.2188,23.71875 -1.1874,20.5 41.0937,-6.8125 4.4063,-21.1875 3.1874,-2.8125 2,-3.09375 0.5938,-3 -0.6875,-5.21875 41.0937,-0.78125 22.8126,2.28125 33.2812,4.125 25.2188,1.09375 1.9062,6.09375 2.5938,0 16,0.59375 9.5937,-5.90625 38.8125,-5.28125 14,0.28125 29,0.625 13,0.1875 9.1875,0 81.6875,2.1875 33.7188,1.125 12.2812,-0.125 50.7188,0.71875 79.2812,0.40625 0.5,0.0937 27.7188,1.28125 17.2812,0.90625 65,-0.5 22.125,1.40625 5.5,0.40625 21.5938,1 48,1 71.6874,1.5 1,16.59375 107.5,-4.3125 90.5,-4 18.4063,-0.78125 31.8125,-1.3125 59.2812,-2.5 38.9063,-0.78125 -0.4063,37.7813 -0.5,47 -0.094,56.9062 36.3125,-7.8125 1.0938,5 -1,3 -1,4.125 0.5,5.5 2.1874,10.0938 1,6 1.5938,7.5937 0.625,4 -0.5,4.0938 -1.5,4.5 -1,3 664.875,0 1.9063,-3.6875 2.9062,-10.0938 3.0938,-7.125 -4.6875,-10 0.4062,-12.5937 0.375,-13.0938 -3.6875,-5.0937 -5.6875,-6.5 -2.625,-4.5 -2.5937,-8 0,-6.0938 6.5937,-2.625 0.4063,-9.5 -6.0938,0 -6.6875,-3.5 -7.2188,-4.875 -4.0937,-5 -7.8125,-4.5 -8.1875,-4 -4.0937,-0.4062 -3.0938,0.5 -4.5,1.5 -4.125,5.0937 -4.0938,1.5938 -7.5937,0 -2.5937,-1.4063 -1.5938,-1 -3.125,-5.0937 -2.5938,-5 -5.1874,-10.5 -3.0938,-7.0938 -3.7188,-6.5 -3.0937,-4.5 -2,-1.5 -2,3.0938 3.0937,5.5 3.5938,6.5 2.625,5.5 -1,4.0937 -1,3 -1.5,2.5 -4.625,-0.375 -6.6875,-6 -5.1875,-5.5 -3.625,-8.125 -4.6875,-6 -6.0937,-5 -10.9063,-6.875 -1.5,-7.625 -4.6875,-6 -4.625,-2.5 -0.5938,-5.5 10.7188,-6.1875 6.0938,-4.09375 2.5937,2.5 3.5937,6.59375 3.0938,2.5 2.125,0.5 1.5,-0.59375 5.0938,-4.59375 1,-3.5 -1.0938,-5 -7.2188,-4 3,-5.625 2,-4 1,-2.59375 1,-4 1,-4.59375 3,-4.5 7.2188,-1.09375 -1.125,-4 -3.5938,-1 -5.0937,-3.5 -2.5937,-0.5 -2,-0.5 -1.5938,-3 1,-3 2.5,-3.09375 9.6875,-2.625 2.0937,6.125 2.5938,4 1.625,3.5 4.6875,6 3.5937,7.59375 8.3126,11.5 7.2812,11 1.625,8.59375 -2.625,3 -5.5938,4.09375 -3.5,3.59375 -1.5,1 -1,2 -0.5,2.625 1,3.5 3.0938,0.5 5.125,-3.125 2.5,-6.09375 5.0938,-3.59375 6.0937,-3.09375 6.1875,4.5 4,-1 0.5,-3 -8.1875,-9.59375 -3.6875,-5 -10.3125,-13.5 -13,-19.125 -4.0937,-9 -2.7188,-8 -1,-4.59375 -0.094,-4 1.5,-3.59375 3.5938,-1.5 1.5,-1 -0.094,-12.09375 -4.5937,-6 -7.6563,-8.34375 -2356.2187,0 z M 2741.5,884.5 l -8.6875,0.59375 -12.8125,1.59375 -7.1875,2.625 -7.625,4.59375 -3,4.59375 -1,4.5 -0.5,4.09375 2.625,1.5 5.0938,-4.09375 2.5,0.5 0.5937,2.5 -2,2.5 1.5,2.5 3.0938,3 3.0937,2.5 3.125,4.5 3.0938,3.5 3.0937,7.09375 5.1875,8.5 8.3125,9.5 6.6875,0.40625 9.2188,-1.59375 9.0937,-7.59375 1,-5.625 -4.5937,0.625 -7.5938,5.59375 -5.7187,1.59375 -5.0938,0.5 -2,-2.5 -3.1875,-4.5 1.0938,-2 1,-1.59375 2.5,-1.5 4.5937,-5.59375 3,-6.625 4.5,-4.59375 7.1875,-4.09375 6.125,-2 7.0938,0.40625 6.1875,1.40625 7.7187,2.5 4.5938,2.5 7.1875,4.875 7.2187,3.5 7.1875,5 6.8125,7 6.1875,8 4.1875,12.125 4.125,9 1.6875,10.09375 1.5938,11.09375 1.0937,9.5 0.625,8.5937 0.094,9.0938 -0.4062,12.125 0.094,10.5938 0.5938,8.0937 0.625,5.5 1.0937,13.0938 0.5,5 1.1875,9.0937 0,9.625 0.094,8.0938 1.125,6 2.0937,4 3.0938,3 4.5937,-0.5 1,-4.0938 -1.0937,-3 -2.5938,-4.5 -1.5937,-9.625 3.5,-3 0,-7.5937 -0.125,-6.0938 -1.5938,-9.5 1,-1 7.0938,-7.1875 5.625,-3.125 4.5937,1 3.0938,1 2.0937,2 1,2 0.5938,4 2,1.5 1.625,4 2.0937,3 3.0938,3.5 1.5,1 4.0937,0 6.7188,-1.0937 4.5,-3.5938 5.1875,3.5 -5.5938,3.5938 0.5,5 0.5938,4.0937 -5.0938,1 -3.0937,-3.5 -3.625,0.625 -3.0938,0.5 -1.5,1 -1,1.5938 1.0938,3.5 2.5,2 3.125,1.5 3.5937,-0.5938 3.0938,-0.5 3,2 2.0937,2.5 -5,6.5938 -1.5937,2.5 0.5937,3.5 -0.5,4.5937 0.094,4 1.625,6.5938 1.5938,8 3.1875,13.5937 -0.8125,13.9063 32.4062,0 -0.2812,-1.0938 3.5,-6.0937 3.0937,-1.5 3,-1.5938 2.5938,2.5 3.5937,1 1.125,3 0.7813,3.7813 6.3125,0 -1,-5.4063 -3.7188,-12 -6.7812,-19.5937 -5.4063,-22.6875 -6.9062,-24.0938 -9.4063,-21.625 -4.1875,-13.0937 -9.9062,-21.5938 -13,-25.59375 -12.5,-22.09375 -11.5,-19 -10.2813,-13.5 -9.8125,-11 -11.9062,-10.5 -14.9063,-9.5 -17,-8.40625 -22.0937,-7.3125 -27.0938,-7.28125 -12.3125,0.0937 -10.1875,-0.40625 z"
     id="rect10"
     inkscape:connector-curvature="0" />
  <path
	 style="fill:#9FAEC0"
	 stroke="#9FAEC0"
	 stroke-width="10"
	 transform="translate(0, 25)"
     d="m 1799.3125,1159.0938 -1.5,4.5937 -0.5,2 0.5,2 0.5938,2.125 1,2.5 0,2.5 -1.5,3 -1.5,2.5938 -2.5,4 0,3.5 -0.5,4.0937 1.5937,5 1.5937,4 0,10.5938 1.0938,3 1.5,2 2.625,3.0937 2.5938,3 1.0937,3.5 1,3 1.5937,3 1,2 6.5938,3.7188 28.3125,15.9062 19.0937,10.6875 28.5,40.0938 0.4063,-3.5 3.5937,-1 4.2188,8.5 1.5938,4.5 2.5,1.5 4.5937,-2 1,-5.0938 3,-3.5 1.5937,-0.5 1,6 2.0938,6.5 2.625,0 7.5938,-5.0937 10.6874,-5.0938 4.5938,-10.7187 2.5,-5.5 7.125,-5.5938 8.0938,-6.0937 1.5,-5.5938 1.5,-11.125 2.5,-8.5937 4.5,-5.5938 4.0937,-6.0937 1.9063,-8.0938 -0.5,-9.5 -3.2188,-7.625 -0.5,-3 2,-4.5937 3,-4.5 1,-7.5938 3.5,-7.5937 1.125,10.0937 -0.9062,11.5938 2.5937,2 2.5937,7 2.5,-1 2.5938,-3 0,3 0.625,9.0937 -1,7 -12.125,16.8125 -9.6875,9.0938 -1.9063,10.5937 0,4.625 -1,7.5 -2.5,5.0938 -10.0937,15.6875 -14.6875,17.3125 -9.2188,7.5937 -7.5937,8.1875 -6.5937,7.125 -0.5,1.5 2.5937,4 16.4063,3.875 -0.4063,3 36.4063,9.3125 1.0937,8.0938 -3,13.0937 0.5,3.5 1.0937,2.5 0,5.125 -1.5,3 -1.5,2.0938 -1.5,2.5 -1,2.5 -0.5,3.5 -0.5,3.5937 -0.5,4.5 0.5938,4.5938 1,3.5 2.625,4.5 4.6875,5.5 1.2187,11.5 46.8126,0 1.5624,-9.9063 1,-4.5 2.0938,-3.0937 2.5,2.5 1.625,6.0937 -0.9062,7.5 -0.2813,1.4063 86.875,0 -2.1875,-2.0938 -1.125,-8 2.125,-0.5937 1.5,-5 3.5,-2.5938 5.6875,7.5 5.1875,9.5938 1.25,1.1875 6.7188,0 0.75,-6.2813 3.5,-7.625 -1.5938,-13.5937 3.5,-7.5938 5.0938,1.9063 5.6874,12.0937 2.7188,9 8.1875,-1 -2.1875,-15.0937 -10.9062,-15.0938 -6.2188,-13.5 -1.6875,-9.125 1,-9.5937 1.4063,-10.5938 7.0937,-11.0937 1.0937,12.0937 0.5938,7.5 2.125,5 3.0938,7.5938 0.094,6.5 5.1875,10.5937 8.7188,-1.5937 8.1874,-0.094 5.0938,6 0.625,9.0938 3.6875,7.5 1.5937,7.0937 3.0938,9 2.625,8.125 2.2188,2.7813 2.9062,0 2.5625,-10.5 0.4063,-6.5 -0.5938,-8.0938 -1.625,-7.5 -1.5938,-8.0937 -10.1874,-4.9063 -1.0938,-6.0937 6.0938,-3.5938 5.0937,1.5 5.1875,2.5 2.5,1 5.7188,1.875 4.0937,0.5 4.0937,-2.0937 3,-2 1,-3.5 5.0938,-1.0938 1.625,4 4.5938,4 6.0937,-2.0937 2.5937,-3.5 -0.094,-4.5 -6.6875,-8 -7.2188,-1.5 -10.7812,-8.5 5.0938,-4.5938 3.5,-3.5 10.2812,1.875 6.7188,5 8.6874,-1.0937 6.0938,1 3.7188,5.5 2.5937,4.5 2,1.5 4.5937,-2.0938 0,-5.5 5,-6.0937 -0.5937,-15.0938 -3.1875,-11.125 4.5938,-1.5 7.1874,5.9063 3.0938,-2 -3.5938,-6 -1.5937,-4.5938 -2.5937,-4.5 -2.2188,-12.0937 -5.1875,-12.5 2.5937,-3.0938 9.8126,9.5 4.5937,1.5 6.1875,7 1,2 -6.0938,-0.9062 -0.5,2 4.0938,5.5 4.625,2 4.6875,4 4.0937,4.5 3.0938,0.9062 1,-5 -2.0938,-7 1.5,-2.625 -1.0937,-3 -6.0937,-3.5 -1.5938,-8 6.0938,0.4063 4.5937,-2.5 -0.5937,-3.0938 -3.0938,-4 -3.625,-2.4062 -4.0938,-6.5938 -4.0937,-4 -4.1875,-6.5 1,-2.5 8.2812,6 3.5,1.9063 1.5938,-2.5 -2.0938,-3 -3.5937,-6.5 3,-1.0938 6.0937,-3.5 3.5938,-2.125 1.5,-2 2,-1.5 2.125,1.4063 -1.5,4.5937 -1.5,7.125 1.0938,2.5 5.5937,2.5 7.1875,3.875 6.2188,-1.5 5.0937,-2.0937 2.5,1 1.5937,2.5 2.0938,3.5 2,2.5 2.125,2 6.0938,1.5 0.5937,3.5 -4.5937,4.5937 -5,7.625 -4.0938,7.0938 -2.5,3 4.0938,2.5 4.5937,-5.0938 5,-6.625 7.0937,-8.5937 2,-5.0938 0.5,-5 -2.0937,-5.0937 -3.0937,-8.5 -0.094,-4 5.0938,-2.5938 5.6874,1.5 6.0938,-2.125 0.5,-0.5937 4.625,-2 3.5938,-2 2.5,-0.5938 1.0937,1.5 0.5,2.0938 -5.5937,7.5937 -1.5,4 -5.5938,4.625 -3,5.5938 3.5938,2.5 3.5937,0.4062 6.0937,-5.125 -0.5,5.625 2.7188,15.0938 -6.625,2.5937 -14.2812,5.1875 -10.0938,10.125 -0.5,6.0938 1.5,1.5 9.1875,-2.0938 3.5937,-3.625 2.5,-4.5 5.0938,-2.0937 5.2188,3 2.5937,9 3.5937,5 -3.5,4.0937 -5.5937,2.125 -11.8125,-1.4062 -6.1875,1.5 -2.5,3.0937 3.0937,4 5.2188,3.5 6.0938,-1.5937 5.0937,1.5 4.0937,3 -1.5,3.5 -17.2812,8.1875 -0.4062,6.0937 2.5937,5 4.0937,10.625 -1,4 -2.9062,10.0938 -1.5938,2.5 -1,3.0937 3.7188,6 -1.5,10.5938 0.094,5 2.0937,7.0937 2.0937,4 0.094,0.4063 97.1563,0 1.5625,-1.7813 2.5625,1.7813 52.9062,0 0.8125,-1.2813 -4.1875,-10.125 8.6875,-2.0937 9.625,-15.6875 3.5,-6.0938 2,-4 -0.125,-9.625 7.125,-6.5937 8.6875,-6.5938 2.5,-4.5937 3.5,-3.5938 5.6875,0.5 3.125,4 0.5,4.5 0.5938,3 0,4.0938 1.5937,1.5 1.5938,6.5 -1.0938,2 -3.5,5.0937 0.5,2.5 9.1875,-1.5937 11.3125,-6.0938 7,-11.2187 4.5938,-8.5938 10.7187,-3.0937 10.6875,1.4062 10.9063,9 1.5,-1.125 7.0937,-1 10.1875,-8.1875 10.8125,-1.0937 4.0938,2.5 3,-0.094 1,-3.5 -2.5938,-4.5 5.0938,-6.125 9.2187,0.4063 12.375,6.4062 0.5,6.0938 -5.5937,2.5937 -6.0938,2 -1.5,3.125 -3.5937,0 -3.5938,-1 -1.4062,8.5938 1.0937,8.5937 2.5,2.5 2.5938,-0.5 6.0937,-5.0937 0.9063,-7.5938 15.3125,-11.3125 20.4062,-10.1875 6.5938,-3.125 4.5937,-6.0937 3,1 4.5938,-1.5938 7.7187,-0.5937 13.2813,-3.0938 16.4062,2.2813 14.8125,-6.6875 16.7813,-5.2188 13.8125,-4.0937 12.2812,-1.6875 7.125,1 9.1875,-3.5938 14.3125,-2.2187 13.2813,-3.1875 9.7187,-2.0938 8.7813,5 5.5937,5.5 3.125,1.5 3.0938,1.875 2.5,-5 -3.5938,-4 5.0938,1.4063 5.6875,-2 8.0937,-4.6875 1.625,3.5937 -6.125,10.5938 5.7188,3 8.5,-16.1875 3,-10.2188 -4.2188,-13 -0.094,-10.5937 -0.5937,-5.0938 -5.5938,-2.9062 -3.5937,2 -4.125,3.0937 -4.5938,0 -2,-1.5 -4.0937,-2.375 -0.094,-4.125 4.0937,-5.5937 -1.0937,-2 -4.5938,0.5937 -2.5,2 -6.625,4.125 -1.5937,-3 -1.0938,-6 2.5,-7.125 3,-9.0937 6.0938,-3.0938 8.7187,-0.094 1.5,-2 -1.125,-9.0937 1.5,-2.5 -1.5,-3.5 6.125,-4.125 -1.125,-5.0938 -5.6875,-6.5 -1.5937,-3.5 2.5937,-2 5.0938,1.9063 4.7187,5.5 2.5,-2.5 3,-5.0938 4.0938,-1.5 3.1875,9.5 2.0937,8.5938 1.625,4.5 1,2 1.6875,17.5937 1.6875,16.2188 2.2188,14.0937 0.094,6.5 -2.0938,2.5938 0.094,3.5 -1,4.5 -0.4062,9.5937 -0.5,9.5938 -5.5,8.125 -6.5,17.6875 3.0937,5.0937 8.125,-12.6875 4.5,-9.0937 4.375,-17.2188 1.4063,-19.1875 -0.6875,-19.7187 -2.8125,-23.0938 -2.2813,-26.7812 -1.2187,-18.625 -1.0938,-16.0938 -2.0937,-3 0.5,-4.5937 -8.7188,-0.4063 -4.0937,6.5938 -3.0938,0 -2.5937,-7 -1.5,-4 -10.7188,10.7187 -6.5937,7.0938 -4.0938,2.0937 -0.5,-6.0937 6,-12.6875 4.5938,-5.625 1,-1 3.5,-2.5 2,-5.0938 -1.5938,-7 -1.8125,-7 -32.4062,0 -0.094,1.7188 1.625,11.5937 0.1875,13.6875 -4.0938,5 -7.0937,8.2188 -5,7.0937 -12.3125,6.1875 -9.0938,5.5938 -27.0937,9.8125 -11.2188,3.6875 -10.1875,5.125 -5.0937,0.5937 -3.5,1 -3.625,4.5938 -3.5938,-2 -4.0937,-1.5 -7.6875,1.0937 -7.125,9.2188 -2,-3.5 -5.1875,-2.5 -18.8125,7.1875 -6.1875,-0.9063 -24.5,10.8125 -12.6875,8.1875 -4,6.5938 2.0937,3.5 -3.5937,3.125 -5.625,1.5 -2.5,3.5937 -5.0938,5.0938 -1,5.5 -3.5937,0.094 -1.5,-4.0938 -2.5938,-0.4062 -4.5937,1 -8.7188,3.0937 -6.5937,-0.375 -7.1875,0.5938 -9.7188,-0.5 -16.9062,-0.8125 -10.2813,-1.9063 -5.0937,-3.5 -2.625,-6.5 3.5,-1.5937 5.7187,1 7.0938,-0.5938 6.1875,-2.0937 6.625,-1.5938 7.1875,2 4.0937,4 5.0938,-1.625 3.625,1.5 3.0937,-2.5 3,-1.0937 5.1875,2 4.5938,-1.0938 -1.5938,-4 -7.1875,-4.5 -7.2187,-2.9062 -14.875,-1.4063 -29.7188,-0.1875 -26.5937,-1.8125 -39,-10.6875 -40.5938,-16.3125 -10.3125,-8.5 -5.0937,-4.375 -12.4063,-12 -14.4062,-10 -12.375,-13.5 -3.7188,-11.625 0.9063,-11.0937 5.6875,-11 -664.875,0 z m 1155.7813,0 1.3125,6.3125 2.1875,14.0937 1,3 3.5937,-0.5 1.5,-4.5937 -1.5937,-9.0938 -1.6875,-9.2187 -6.3125,0 z M 2953.5,1237 l -1.5,5.0938 -2,4 0.5,2.0937 3.0938,1.9063 2.0937,1 2,0 1,-2.5 0,-3 -0.5937,-4.0938 -1,-2 -1.5938,-2 -1,-0.5 -1,0 z m -0.6875,38.4063 -2,1 -3.125,1 -1,0 -1,2.0937 0.5,2 2.125,2 2,0.5 2.0938,1 1.5,-0.5937 0.5,-1 0.5,-4.5 0,-2 -2.0938,-1.5 z m -13.5,86.2812 -2.5,2.125 -0.5,5 -1,3.0938 -0.5,5.5 0.5938,4 -0.5,2.5937 -3,2.5 -3.5938,2.5938 0.5938,5.5 1.5,5 -6.0938,4.5937 -3.5,2.125 1.0938,6 1.0937,8.5938 -0.4062,15.0937 -2,9.5938 -1.3125,3.5 10.6875,0 4.2187,-28.7813 5,-16.7187 2.9063,-15.6875 0.5,-6.5 1.4062,-5.0938 1,-7.625 -0.5,-2.5 -0.5937,-2 -4.5938,-2.5 z m -364.2187,33.8125 -0.5,0.5 -4,0.5 -3.0938,2.5938 -0.5,2 0,2.5 -0.5,2.5937 0.5938,3 1,4.5 1.5937,0.5 2.5,0.5 3.625,-1.0937 1.5,-1.5 1.5,-3.5 -1,-3.5938 -1.125,-3.5 0.5,-3.5 -0.5,-2 -1.5937,-0.5 z m -355.0001,24.9063 -2.9062,19.0937 0.5,2.5938 4.7188,3.5 8.1874,0.4062 3.5,-0.5 2.0938,0.4063 2,-2.5 -10.2812,-14 -0.5938,-7.0938 -7.2188,-1.9062 z M 2119,1448.5 l -2.125,0.5938 3.5625,0 L 2119,1448.5 z"
     id="rect12"
     inkscape:connector-curvature="0" />
  <path
	 style="fill:#9FAEC0"
	 stroke="#9FAEC0"
	 stroke-width="10"
     d="m 1973.7187,1449.0938 7.6876,73.0937 1.6874,19.7188 0.5,5.5 3.5938,-1 5.625,-4.0938 3.5938,-1 3.0937,2 4,-0.625 2.0937,-4 -2.0937,-6.0937 -1.5937,-5 0,-3 -0.094,-2 -3.125,-5.0938 -8.7812,-11 -4.5938,-9.5 1.375,-5.0937 5.7188,0.5 6.6874,8.5 4.0938,4.5 4.125,-1 3.6875,11 5.5937,2 8.8126,0.4062 3.5,-6.625 -1.5938,-6 1,-8.0937 -0.125,-5.5 -2.0938,-6 -5.1874,-8.0938 -2.0938,-5.5 -1,-6 2.375,-14.6875 0.3438,-2.2187 -46.8126,0 z m 54.4063,0 -1.7187,8.2187 -1.5,4.5938 -0.5,6 0.5937,4.0937 3.5937,6.5 5.7188,4 3.5938,2.5 3.0937,9 0.5937,2 2.7188,18.5938 2.0938,8.5937 0,3 -2,1 -5.2188,-0.875 -1.5,0 -2.5,3 -5.1875,-1.4062 -6.0937,0.5 -5.0938,2.5937 -4.125,4.0938 5.7188,0.9062 12.7812,2.4063 6.7188,1.5 6.1874,7 1.0938,10.0937 2.125,4.5 2,1.5 3.0938,-2.5937 1,-6 -0.5938,-3 0.5,-3.0938 1,-5.5 10.6875,-5.2187 4,-6.5 10.8125,-1.5938 12.2812,2.4063 3,-1.0938 0.5,-2.5 -0.5,-4 1,-3.625 1,-4.5 1.5,-3 -1.5937,-4.5937 -1.5937,-4 -3.5938,-2 1.5,-9.5938 7.6875,6 4.0937,-3.5 3.0938,2.5 -0.5,4 2.125,4.5 4.0938,2.5 1.5937,2.5 1.5,2 0.5937,6 0.5,6.0938 2.0938,1 3,-4.5938 -1,-3.5 0,-2 0.5,-2 -1.0938,-4.5937 2.5,-2 0.5,-2.5 2.5,-7.0938 4.0938,-2.125 5.625,1 2.5938,1 1.5,-1 -2.0938,-6.5937 -2.125,-6 -3.0938,-5 -1.5937,-4.5 1,-4.5938 -10.3125,-15.5 -2.0938,-5 -2.1562,-0.9062 -3.5625,0 -1.4687,0.4062 -0.4063,-0.4062 -86.875,0 z m 102.8125,0 3.9688,3.8125 2.5,-1.5938 0.25,-2.2187 -6.7188,0 z m 71.0938,0 0.9687,1.2187 1.5,0.5 0.4375,-1.7187 -2.9062,0 z m 178.6562,0 0.9062,4.5937 -8.5937,9.2188 -1.9063,9.5937 -2.5,11.0938 -2.5,7.5937 -4.5937,3.5 -14.1875,8.2188 -4.625,5.5937 2.125,6.5938 2.5938,1.4062 3.5,-5.5 5.5937,-0.5937 3.5937,4 5.2188,2.5 4.5938,3.5 3.0937,-4.0938 6,-9.125 12.6875,-12.1875 15.3125,-7.6875 7.1875,2.375 7.2188,-0.5 6.0937,-2.0937 0.4063,-11.5938 0.5,-6.5937 2.5,-5.5 1.5,-0.5938 3.0937,4.5938 -0.9063,8 1,7.0937 1.0938,2 3.625,0 14.2813,-2.1875 8.7187,-3.125 9.1875,0.9063 0,-1.5 -0.094,-8.5938 3.4063,-18.5937 2.0312,-2.3125 -97.1563,0 z m 101.2813,0 1.0312,0.7187 3.6875,17.5938 0.625,5 -5.625,5.5937 1.5,2.5 5.7188,-1 2.5,0 2.0937,-0.5937 8.1875,0 5,-2.5938 2.625,-1.5 7.0938,-4.125 5.0937,-4.5937 7.5938,-7.6875 5.7812,-9.3125 -52.9062,0 z m 437.3125,0 -1.1875,3.0937 -4,7.125 -6.0938,7.0938 -3,4.0937 -0.5,2.5 2.0938,1.5 2,1.5 1.5937,0.5 1.5,0.5 6.625,-0.5937 8.6875,-7.0938 2.9688,-20.2187 -10.6875,0 z m -593.875,69.2187 -11.2188,13.6875 -6.0938,3.0938 -5.5937,-1 -5.5937,3.0937 -4.5938,3.5 -4.625,7.125 -5.0938,2.5938 -3,2 -5.0937,3.5937 -6.0937,6.0938 -1.5,0 -3.5938,0.5937 -2.625,2 -2,5.625 -5.5938,2 -4,4.0938 -2,5.5937 -2.5,8.0938 2.5938,6.5 8.7188,1.4062 8.1874,-5.0937 4.5,-5.0938 8.2188,-3.125 6.0938,-2.5 3,-5.0937 0,-6.0938 -2.5938,-5.5 4.5938,-1.5 2,-0.094 5.5937,-2 5.0937,-6.0937 6.0938,-3.125 7.7188,-3.5938 6.0937,0.5 20.9063,-17.9062 -3.2188,-7.5 -7.6875,-4 -5.0937,-1.875 z m 91.4062,40.5 -10.2188,1.5938 -11.6874,9.6875 1.5937,7 2.6875,8.0937 -3.5938,2.5 -7.1874,-8 -3.0938,-2.5 -15.9062,4.2188 -6.5938,5.5937 -3.5,9.0938 -9.7188,5.0937 -6.0937,3.125 -6.0937,6.0938 -6.0938,8.5937 -5.5,14.6875 -5.5,13.7188 -11.2188,4.5937 -3,7.0938 -2.5,7.0937 -4.0937,6 -8.0937,11.7188 -5,9.0937 -2.5,4.5938 0,5.5 0.094,7.5937 0.5937,8.625 -2,5.5 -0.5,3.5 -4.0937,2.0938 -2.5937,-1.5 -1.5,-2 -3.0938,0.5 -3.625,-0.4063 -3.0938,-5.5 2,-5.5937 3.5938,-3.0938 6.625,-1.5 -0.5,-6.125 -34.4062,-4.6875 -4.5938,0.5 -7.2188,0.5938 -5.0937,0.5 -2.5,2.0937 -2,4.5 6.1875,9.625 12.4062,16.5 10.9063,11.5 5.5937,3 7.2188,4.875 8.7812,5.5 4.5938,1.5 3.125,-0.094 2.5,-2.5 2.5,-11.5937 3,-9.0938 4.5,-5.0937 5.5938,-5.625 8.6874,-5.0938 59.8126,-10.0937 27.0937,-2.3125 37.9063,-4.375 20.4999,-0.625 8.1875,-0.094 6.5938,0.9062 9.3125,0.5 10.1875,-0.5937 7.7187,2.4062 6.5938,-0.625 7.6875,-0.5 5.625,-0.094 6.1875,-2.0938 -0.5938,-4 -16.9062,-2.9062 -2.5938,-1.4063 -2,-2 -2.5937,-3 -1.625,-7.5937 1,-5 -2.1875,-8.5938 -4.0938,-8.5 0.4063,-4.0937 1.5,-3 2.5937,-4 -0.094,-6.5938 -11.3125,-2.9062 -11.8125,-7.5 -4.6875,-3.5 -1.5,1.5937 2.0938,5 -7.0938,2.5938 -7.1875,-3 -1.125,-6 -0.5,-4.0938 -4.6875,-1.4062 0.4063,-12.0938 4.5937,-0.5937 4.6875,10.5937 4.7188,2.4063 3.5937,-0.5 -2.6875,-5.5 -2.125,-8.0938 1,-11.625 -1.0937,-6.5 -1.5938,-5 -1.5937,-3 -3.0938,-4.5 -3.7187,-10.5937 -4.5938,-0.5 -12.1875,9.2187 -3,5.5938 4.1875,9.5 -2.5,4.0937 -5.0937,3.5938 -4.0938,8.0937 -4,5 -3.625,0.625 0,-5.625 1.4062,-8 1.5,-5.5937 2.5,-3.5938 -0.5,-3 0.4063,-11.5937 3,-13.0938 -3.6875,-5.5 z m -192.7188,29.875 -6.1874,0.125 -3.5,0 -2.5938,2 1.5938,7.5938 5.1874,5 4.5938,1 3.125,0.4062 7.0938,-1 4.5937,-3.625 1,-4.5937 -2.5937,-4.5 -6.7188,-1.4063 -5.5938,-1 z m -22,8.8125 -10.0937,8.0938 -7.1875,5.5937 -7.125,3.625 -11.2812,-0.9062 -4.0938,0.5937 -2,3.5 1.0938,7.0938 2.5937,2.5 5.5937,-1.0938 4.5938,0 9.2188,0.4063 9.7812,-1.0938 7.625,-2.625 3.5938,-4.5937 1.5,-4.5 -2.0938,-4 0.375,-6.5938 -0.5,-4.5 -1.5938,-1.5 z m -57.6874,19.0938 -5,6.0937 -5.0938,3.125 -6.7188,3.5938 -3.5,2 -1,3.5937 0.5,2 3.5938,4 12.3125,-3.1875 5.0937,-4 3,-4.125 3.0938,-1 2.5,-2.5937 -3.5938,-0.9063 -6.0937,-1 0.5,-2.5 2.5,-3.0937 -2.0937,-2 z m 396.4062,4.0937 -6.7187,1.5 -5.5938,3.625 -3,4.0938 -2,5 0,5.5937 1.5938,5.5 1.0937,1 1.5,-0.5 0.5,-2 -0.5937,-4.5937 0,-5 3,-6.0938 5.0937,-3 2.125,0.875 1.5,3.625 1.5938,2 -1.5,3.5 1.5,2 3.0937,2 0.5938,8 -0.9063,16.1875 -2,2 -3.0937,0.094 -6.1875,-2 -3.5938,-4.5 0,-4.5 3,-3.5937 3.0938,-5.0938 3.5,-2.5 -0.5,-0.5 -2.5938,0 -3,1.5 -3.125,4.0938 -5,3.0937 -6.6875,5.5938 -3,4 -4.0937,2.625 -3.5938,0.5 -8.2187,-4.4063 -1.5,0 -0.5,1 4.0937,7.5 1.125,9.5938 2.6875,5.5 5.0938,2.5 15.4062,2.4062 7.1875,11 -5.0937,0 1.5937,4.0938 5.125,0.4062 3.5938,-2 7.6875,-0.094 2,-3.125 0.5,-1 0.5,-3.5 -1.6875,-12.0937 2.2812,-34.7813 -0.5937,-9.625 -2.1875,-11.5 -2,-4.5 -3.0938,-1.5 z m 338.0938,21 -1,4.5 0,1.5 -0.5,1 4.6875,7.5 10.8125,8.5 0.5,0.5 2.6875,7 0.094,11.625 -2,8.5938 -4,11.1875 -6,8.5937 -3.5938,6.125 -7.5937,10.0938 -6.5938,8.0937 -4,5.0938 -5.5937,5.0937 -4.125,2.625 -3.5,2.5 3.125,3.5 3.5937,2 5.5938,-2.625 10.0937,-12.1875 8.2188,-7.0937 5,-4.0938 2.5937,-3 4,-3.625 2.5938,-2.5 1.5,-3.0937 0.4062,-6.5 1,-2.5938 4.5938,-3.5 4.5937,-1.5937 5.7188,3 3.5937,6 3.0938,5.5 -1,5.5937 -6.5938,4.5938 -7.0937,2 -3.125,1.5937 -3,1 -0.5,3.125 3.625,6 1.0937,3 -0.5,1.5 -3.0937,0 -4.625,-1.9062 -2.0938,-1 -2,-1 -2.0937,2 -3,3.0937 -3.5938,4.5 -4.5,2.0938 -5.2187,1.5937 -4.5938,1.5 -4,3.625 -4.0937,6.5938 -7.0938,4.5937 -2.5,-0.5 -2.0937,-2 -2.125,-1 -1,-1.5 -1,-2 -1.0938,-3.5 -2.0937,-3.5 -2.5938,-4 -2.0937,-2.5 -5.625,1.5938 -6.5938,0.5 -6.6875,0.5937 -8.7187,-0.375 -6.0938,2 -12.7812,0.1875 -8.2188,-0.5 -10.1875,0.094 -6.2187,-0.4062 -8.1875,0.125 -4.0938,1 -2,1 -0.5,2.5937 4.0938,4.5 5.1875,2.9063 2.625,3.5 -0.5,1.5937 0,1.5 -1,1 -3.625,0.5 -3.5938,1.5938 -2,1 -3.5937,0 -2.0938,1.0937 1.0938,3 4.0937,2 5.2188,2.9063 10.7812,4 7.2188,3.4062 6.0937,2.5 7.6875,3.4063 8.8125,4 8.6875,1.875 6.2188,1.5 8.1875,2.9062 10.8125,3.4063 8.1875,1.5 11.1875,-5.1875 11.8125,-0.625 8.6875,-0.094 7.7187,1 10.6875,0.9062 9.8125,1.9063 9.1875,1.9062 8.7188,0.375 10.6875,-3.0937 3.0937,-2 3.5938,-2.5938 6.125,-2.5937 8.0937,-3.0938 5.5938,-4.125 3.5937,-5.5937 3,-9.0938 0.4063,-8.5 -6.3125,-16.5937 -3.5938,-6.5 -5.7812,-11.0938 -6.2188,-9.5 -5.1875,-10.5 -4.7187,-12.125 -4.7813,-11 -3.5937,-7.5 -5.2188,-10.5937 -3.6875,-7.5 -3.5937,-7.5 -5.7188,-6.5 -4.6875,-5 -1.5,-1.5 -6.2187,-6 -4.6875,-4.5 -5.0938,-0.9063 z m -207.8125,68.5 -8.6875,1.625 -3,1 -1.5938,2 0.5938,2.5938 1,4 9.7812,5.4062 4.625,-0.5 -1.625,-4 1.625,-2.625 3,1 2.5938,-1.5 3,-2.5937 2.5937,-4 -9.3125,-2 -2,-0.4063 -2.5937,0 z m 36.0937,29.4063 -5.5937,1.5937 -7.6875,-1 -4.0938,3.125 4.6875,4.5 4.5938,3 1.0937,4 5.7188,5 8.6875,1.375 9.7187,1.9063 2.5,-5 -0.5,-5.5938 -0.625,-4.5 -6.1875,-4.5 -12.3125,-3.9062 z m -461.375,63.2187 -3.5,2 -4.125,2.5938 -8.1875,0.5 -1,1.0937 -1,3 0.5,2.5 4.1875,3.5 4.125,1 4.0938,-0.094 6.0937,-1.5 2.5937,1.5 1.5,-0.094 3.5938,0.5 1,-2 -0.5,-2 -4.1875,-5 -1,-1.5 -2.0937,-2.5 -1,-2 -1.0938,-1.5 z"
     id="rect14"
     inkscape:connector-curvature="0" />
</svg>
