<?xml version="1.0" encoding="UTF-8" standalone="no"?>
<svg
   xmlns:dc="http://purl.org/dc/elements/1.1/"
   xmlns:cc="http://creativecommons.org/ns#"
   xmlns:rdf="http://www.w3.org/1999/02/22-rdf-syntax-ns#"
   xmlns:svg="http://www.w3.org/2000/svg"
   xmlns="http://www.w3.org/2000/svg"
   xmlns:sodipodi="http://sodipodi.sourceforge.net/DTD/sodipodi-0.dtd"
   xmlns:inkscape="http://www.inkscape.org/namespaces/inkscape"
   width="984.62506"
   height="1121.1562"
   viewBox="0 0 984.62506 1121.1562"
   id="svg2"
   version="1.1"
   inkscape:version="0.48.1 "
   sodipodi:docname="Aa.svg">
  <metadata
     id="metadata20">
    <rdf:RDF>
      <cc:Work
         rdf:about="">
        <dc:format>image/svg+xml</dc:format>
        <dc:type
           rdf:resource="http://purl.org/dc/dcmitype/StillImage" />
      </cc:Work>
    </rdf:RDF>
  </metadata>
  <defs
     id="defs18">
    <clipPath
       id="clipPath1"
       clipPathUnits="userSpaceOnUse">
      <path
         inkscape:connector-curvature="0"
         id="path9"
         d="M 0,0 800,0 800,933 0,933 0,0 z" />
    </clipPath>
    <clipPath
       id="clipPath1-4"
       clipPathUnits="userSpaceOnUse">
      <path
         inkscape:connector-curvature="0"
         id="path9-0"
         d="M 0,0 800,0 800,933 0,933 0,0 z" />
    </clipPath>
    <clipPath
       id="clipPath1-9"
       clipPathUnits="userSpaceOnUse">
      <path
         inkscape:connector-curvature="0"
         id="path9-4"
         d="M 0,0 800,0 800,933 0,933 0,0 z" />
    </clipPath>
  </defs>
  <sodipodi:namedview
     pagecolor="#ffffff"
     bordercolor="#666666"
     borderopacity="1"
     objecttolerance="10"
     gridtolerance="10"
     guidetolerance="10"
     inkscape:pageopacity="0"
     inkscape:pageshadow="2"
     inkscape:window-width="1280"
     inkscape:window-height="1004"
     id="namedview16"
     showgrid="false"
     fit-margin-top="0"
     fit-margin-left="0"
     fit-margin-right="0"
     fit-margin-bottom="0"
     inkscape:zoom="0.38942949"
     inkscape:cx="510.78367"
     inkscape:cy="358.99497"
     inkscape:window-x="-8"
     inkscape:window-y="-8"
     inkscape:window-maximized="1"
     inkscape:current-layer="svg2" />
  <path
	 style="fill:#9FAEC0"
	 stroke="#9FAEC0"
	 stroke-width="10"
	 transform="translate(0, 125)"
     d="m 264.9063,0 -0.031,40 c 6.0447,-8.47857 -0.05,10.61523 6.6563,3.8125 5.1069,-6.31285 17.4236,-2.78939 20.0937,-11.3125 0.745,-7.67712 3.0692,-14.73263 1.9688,-20.25 -4.5945,-7.61555 -12.3339,-3.38297 -19.9375,-7 -2.8719,1.11507 -6.7668,-2.83252 -8.0937,-4.75 L 264.9066,0 z m 23.7187,3.9375 c -1.5782,0.14131 -4.3008,1.42932 -0.125,1.5 1.5987,-1.26342 1.0722,-1.58479 0.125,-1.5 z m 6.9376,3.34375 c -0.5779,0.0467 0.3426,0.93635 1.125,0.3125 -0.5929,-0.26363 -0.9325,-0.32805 -1.125,-0.3125 z m 3.7812,3.6875 c -1.5105,0.18843 -3.6541,2.26158 0.5312,2.5 1.0535,-2.048 0.3751,-2.61306 -0.5312,-2.5 z m 6.1875,1.15625 c -4.031,0.2999 -7.9723,5.39961 -0.8125,3.96875 1.6449,-0.45039 1.6057,-2.63444 2.5312,-3.78125 -0.5465,-0.18703 -1.1428,-0.23034 -1.7187,-0.1875 z M 1.3438,73.09375 1.4688,74.5 0,76.40625 l 0.031,1.8125 1.0625,1.875 -0.2812,1.5 0.6562,1.96875 0.25,2.28125 0.7812,1.46875 0.9688,1.90625 0.4375,2.59375 2.1875,1.3125 -0.9062,1.5625 0.875,2.03125 1.4062,0.6875 -1.4375,1.6875 1.4687,0.28125 0.625,1.8125 -0.2187,1.59375 0.25,1.3125 -1.375,1.25 0.8437,1.65625 -1.2812,1.625 2.0312,0.53125 1.6563,1 -2.3437,1.75 1.8124,-0.6875 -1.0312,1.625 1.6875,0.15625 -0.094,1.53125 1.3124,0.75 -0.4062,1.40625 -0.3438,2.625 0.6876,1.5 1.625,0.75 -0.75,1.9375 1.5,0.375 -0.9063,1.46875 1.5313,1.15625 0.7812,1.6875 -0.062,1.96875 1.4063,1.9375 2.3437,1.28125 -1.4063,0.375 0.094,2.65625 0.125,1.84375 -1.0625,2.0625 -0.25,1.8125 -0.5937,1.53125 -1.9063,0.46875 0.75,1.875 -1.4687,-0.53125 0.375,1.46875 -1.9376,0.9375 1.6876,0.15625 -1.2188,1.71875 -1.2812,0.5625 1.5,0.53125 -0.6563,2.21875 -1.6563,0.3125 1.4688,0.5625 -0.6562,1.84375 -2.2813,0.34375 0.7187,1.46875 3.125,1.125 -1.75,0.0312 -1.3437,0.4375 0.625,1.3125 2.4063,1.84375 -1.4376,0.53125 1.0313,2.0625 2.375,-0.28125 -1.25,1.53125 -1.75,0.0937 0.625,2.625 1.75,1.6875 -1.5,-0.4375 -0.2813,1.59375 -1.1874,1.53125 3.0937,0.6875 -2.25,0.0937 1.125,1.5 1.375,0.5 -1.1563,2.40625 -0.4374,1.71875 2.0624,-0.625 -0.8437,2.0625 -1.8125,0 1.5938,1 1.375,1.5 -1.4063,-0.5625 -1.6563,0.0625 -0.5,1.5 1.5313,-0.34375 0.9375,1.375 -1.8438,1.875 -1.4062,1.25 0.5938,1.53125 1.3437,0.84375 0.062,1.5625 -1.75,0.0625 1,1.96875 1.3438,1.40625 -0.5,1.4375 1.8124,0.78125 -0.4062,1.46875 -1.5938,1.34375 1.5938,-0.4375 1.1875,1.375 -1.625,0.3125 -0.2187,1.96875 1.5312,-0.1875 -0.25,1.46875 1.3125,1.5 -1.75,-0.90625 -1,2.28125 1.5625,-0.71875 0.6875,1.40625 -0.9375,1.28125 -0.5938,1.3125 -1.7812,0.78125 2.25,0.25 -0.5,1.375 0.625,1.375 -1.3125,0.0937 -1.3125,1.5 1.5312,0.5 -0.6874,1.6875 1.875,1.34375 -1.625,-0.71875 -1.75,1.625 1.5312,-0.6875 2.0312,1.03125 -0.094,1.71875 -0.5313,-1.3125 -1.4687,0 1.2813,1.15625 -0.9376,1.6875 -0.7812,1.625 -0.875,1.40625 1.4375,0.25 -0.062,1.4375 -0.8125,1.375 1.1563,1.46875 1.5,0.625 -2,1.0625 0.4374,1.46875 1.75,1.1875 -1.3437,-0.0312 0.6563,1.90625 0.9374,2.84375 0.1563,1.3125 1.4375,1.03125 -0.062,1.34375 0.031,0.0312 703.7812,0 0.0312,-0.125 1.34375,-2.84375 -2.125,0.34375 -1.65625,0.8125 -3.34375,0.0625 -3.15625,0.9375 -1.0625,-1.71875 -0.59375,-1.5625 -1.8125,1.125 -1.875,-0.25 -1.34375,-1.28125 -2.46875,-0.0937 1.03125,-1.46875 0.53125,-1.40625 -0.46875,-2.5625 -0.625,-1.40625 0.4375,-1.34375 -0.5625,-2.46875 -1.90625,0.40625 0.375,-1.84375 1.25,-1.6875 -0.4375,-1.9375 -3.40625,0.0312 -1.53125,-0.375 -1.34375,0.0937 -2.75,0.8125 -1.5,-1.21875 -2.25,-1.71875 -2.59375,0.28125 -3.59375,0.625 -0.4375,-2.3125 -2.125,-1.5625 -1.125,-1.96875 -1.8125,-0.0937 -1.65625,0.28125 -3.09375,1.1875 -1.5625,-1.59375 1.125,-1.34375 -1.40625,-1.46875 -1.40625,1.03125 -1.28125,0.0625 -1.125,-2.34375 -2.15625,-1 -0.0937,-2.84375 -0.59375,-1.3125 -0.125,-1.9375 1.625,-4.5625 -3.90625,-0.84375 -2,-1.71875 -0.25,-2.6875 -0.84375,-1.96875 -1.40625,-0.0625 -2.1875,1.09375 -7.625,-0.4375 -0.1875,-1.8125 -2.15625,0.4375 -2.09375,2.1875 -2.09375,0.28125 -1.5,0.90625 -2.03125,-0.6875 -5.0625,-1.0625 -3.34375,2.25 -0.84375,3.625 -1.375,1.4375 1.5,1.90625 -0.875,3.40625 1.0625,2.3125 0.34375,2.0625 2.125,1.6875 0.5,1.625 -1.40625,0.75 -4.3125,0.71875 -1.59375,0.75 -1.8125,0.90625 -1.5,0.34375 -1.09375,1.375 -1.4375,-0.15625 -0.71875,-2.25 -1.0625,-1.75 -0.625,-1.5625 -0.125,-1.3125 -2.9375,-6.8125 -2,-1.84375 -1.125,-1.90625 -1.625,-2.75 -2.0625,-4.25 -0.875,-3.78125 2.59375,-5.59375 0,-2.5 -2.4375,-0.875 -1.71875,-2.1875 -2.3125,-3.34375 -3.8125,0.0312 -4.875,1.3125 -11.125,0.125 -3.15625,-0.71875 -3.125,-3.65625 0.4375,-1.90625 1,-2.1875 0.3125,-1.96875 1.78125,-0.53125 2.96875,0.21875 1.8125,-0.65625 2.09375,-0.1875 -0.0312,-1.5625 0.6875,-1.59375 -1.1875,-4.84375 -2.90625,-0.625 -8.9375,1.3125 -21.15625,-10.59375 -1.9375,-0.25 -2.5,-2.03125 -2.5625,-0.25 -0.65625,-4.4375 -3.8125,1.46875 -13.3125,-0.75 -12,-0.0937 -2.96875,-2.6875 -6.03125,-0.0625 -11.84375,3.09375 -1.78125,2.40625 -1.15625,1.65625 -1.59375,0 -2.71875,-0.8125 -2.59375,1.53125 -1.625,1.53125 -3.5,1.15625 0.53125,2.53125 0.59375,1.28125 -0.15625,2.28125 -1.40625,1.90625 -3.90625,0.78125 -1.9375,1.21875 -2.125,0.4375 -1.90625,0.71875 -1.90625,-0.0312 -3.28125,0 -2,1.0625 -1.875,-0.125 -2.15625,-0.71875 -0.96875,1.78125 -1.71875,0.5 -2.28125,-0.0937 -2.09375,0.3125 -2.3125,-0.65625 -3.65625,0.0312 -1.90625,0.53125 -1.3125,-0.1875 -4.87495,-0.84375 -1.7187,-1.15625 -0.4063,-1.5 0.9063,-1.53125 0.2812,-2.5625 0.4688,-2.375 -0.1876,-1.75 -0.875,-1.6875 -0.625,-1.6875 -0.1874,-1.625 -1,-1.75 -1.625,-2.96875 -1.375,-0.28125 -4.5,-0.125 -3.7813,-0.28125 -1.3125,0.1875 -2.1875,-0.21875 -2.4375,-0.90625 -1.6562,-0.0937 -1.7188,-0.40625 -2.1562,-0.65625 -4.5938,-0.0312 -2.875,-0.5 -1.375,0.34375 -2.9688,-0.3125 -1.2812,0.3125 -6.0312,-0.3125 -1.3126,-0.4375 -4.0312,-0.53125 -1.875,0.3125 -2.4375,-0.59375 -1.375,-0.21875 -1.3125,-1.5 0.4375,-4.21875 -1.1875,-2.4375 -1.7812,-0.65625 -2.0938,-1.5 -2.2188,-0.5 -2.5312,1.125 -1.8125,0.21875 -3.2813,-0.59375 -2,-1.03125 -5.0937,1.28125 -1.8125,1.9375 -1.75,0.46875 -2.2812,-0.78125 -4.9063,-0.75 -3.6563,-0.375 -1,-1.875 -1.3124,-0.75 -1.5938,0.125 -2.7812,-0.46875 -1.375,-1.9375 -2.2813,-1.75 -2.8125,-0.75 -0.5312,-1.46875 -1.9063,-2.15625 -1.5937,-1.71875 -1.7813,-1.09375 -0.9375,-1.375 -0.2188,-3.25 0.094,-1.8125 -1.1562,-2.9375 0.9062,-2.1875 1.4688,-0.84375 -0.2188,-0.5625 c -2.7411,-1.54716 -7.3363,-1.35858 -10.25,0.0312 -4.2875,-1.43894 -13.3283,-10.08887 -13.875,-1.6875 -3.2645,-2.56996 -2.266,-2.16732 0.7188,-4.84375 -4.3073,-5.86805 -4.9618,-19.59907 -14.2813,-18.15625 -5.2218,3.55801 -12.4624,0.21096 -12.9687,8.8125 -3.3713,7.432 -11.9439,6.85571 -18.5938,8.59375 -10.1437,0.005 -10.6011,-10.39557 -11.8125,-17.625 -0.4766,-5.20102 3.9244,-4.55687 7.875,-4.84375 L 1.3441,73.09365 z M 324.0313,96.6875 c -3.5575,1.22253 -12.2812,5.92659 -4.0625,2.625 1.0753,-0.91332 3.6911,-1.41152 4.0625,-2.625 z m 483.15625,120.25 -2.6875,1.59375 -2.34375,1.4375 -6.5625,1.96875 -4.53125,4.09375 -1.5,1.5 -1.5625,0.125 -2.40625,0.28125 -1.28125,1.28125 -2.1875,0.0937 -1.1875,1.46875 -3.53125,2.40625 -2.25,2.15625 -2.34375,1.65625 -2.5625,2.78125 -1.78125,0.0937 -3.0625,4.28125 -2.59375,1.3125 -0.53125,0.625 61.6875,0 -1.03125,-1.40625 -0.90625,-3.15625 -1.03125,-1.40625 -1.3125,-0.6875 0.65625,-1.46875 -1.875,-0.78125 2.25,-2.15625 0.21875,-2.40625 -1.65625,0.65625 -1.3125,-0.625 -0.125,-1.46875 -1,-1.625 -1.46875,-1 -0.625,1.4375 -1.3125,0.0312 0.3125,-2.03125 -0.4375,-7.21875 -0.0625,-1.75 -1.21875,-1.84375 -3.5,1.28125 -1.34375,-1.53125 z m 38.84375,23.21875 -1.46875,1.21875 -1.90625,0.28125 -2.59375,0.78125 -1.875,1.59375 -5.71875,0.5625 -2.15625,0.875 -3.9375,0.625 45.21875,0 -0.875,-0.59375 -1.3125,-1.0625 -1.84375,-0.6875 -4.6875,0.3125 -2.59375,-1.03125 -1.59375,1.28125 -1.71875,0.15625 -1.40625,0.28125 -1.5625,0.0625 -6,0.125 -0.6875,-1.5625 1.78125,-1.9375 -1.3125,-1.03125 -1.75,-0.25 z m 51.25,2.1875 -2.34375,0.75 -1.96875,0.40625 -2.96875,-0.15625 -2.53125,0.9375 -2.65625,-0.1875 -2.96875,0.125 -1.8125,-0.53125 -3.3125,1.75 -1.9375,0.21875 -1.5,0.4375 40.25,0 -1.125,-0.6875 -2.0625,-0.90625 -2.28125,-0.6875 -3.125,0.0625 -2.0625,-1.40625 -2.3125,0.28125 -1.71875,0.0937 -1.5625,-0.5 z"
     id="rect4"
     inkscape:connector-curvature="0" />
  <path
	 style="fill:#9FAEC0"
	 stroke="#9FAEC0"
	 stroke-width="10"
	 transform="translate(0, 100)"
     d="m 16.4376,246.09375 1.125,1.3125 -0.5313,2.15625 1.0313,1.3125 1.125,1.78125 1.4374,1.0625 0.6876,2.09375 0.2187,2.65625 -0.4687,1.65625 0.7187,1.8125 0.3437,2.25 1.375,1.375 -0.7812,2.90625 -0.3125,2 1.1875,1.40625 -0.375,1.375 0.9062,1.5625 1.5,0.4375 0,1.6875 2.3438,2.09375 0.1562,1.375 -0.9687,1.34375 -0.094,1.96875 0.062,1.53125 0.8438,1.625 0.031,1.34375 2,0.96875 0.4688,1.40625 0.094,1.96875 -0.094,1.3125 1.5312,0.90625 0.5938,1.4375 0.125,1.46875 0.3438,1.96875 -0.4688,1.34375 0.6875,1.28125 1.4375,0.4375 0.875,1.875 0.2188,2 1.4062,0.5625 0.875,1.75 1.1875,1.46875 -1.375,0.0937 1.3437,0.84375 -0.4687,2.4375 1.8437,2.59375 -1.5937,1.59375 1.5313,0.0937 0.7812,1.3125 0.094,1.28125 0.3124,2.34375 1.3126,-0.0625 0.4062,2.15625 0.7812,1.625 0.2813,2.25 0.6875,1.625 -0.1562,1.59375 0.125,1.375 0.9062,1.375 -0.5625,1.375 1.75,1.28125 1.4063,1.09375 0.5,1.59375 0.125,1.46875 -0.4688,2.28125 0.2812,1.9375 -1.8124,-0.1875 0.3437,1.375 1.9687,-0.4375 -1.8124,1.03125 1.5312,1.15625 -1.3438,1.375 0.875,1.875 -1.6874,2.0625 1.5937,2.09375 1.5313,-0.0312 -1.4688,0.5625 1.4375,0.5625 -1.2813,0.21875 0.4688,1.78125 -1.875,1.59375 1.4375,0.65625 -1.375,0.4375 -0.2813,1.375 1.4688,0.1875 -0.7188,1.8125 -0.5312,1.78125 0.8125,1.5 0.1563,1.875 -0.25,1.34375 0.3124,1.5 -2.0937,1 1.375,0.25 0.5313,1.53125 1.875,-0.375 -1.3438,1.0625 1.5625,2.4375 -0.2187,1.375 -0.2188,1.59375 -0.4375,1.40625 -0.7187,0.125 0.5937,1.3125 0.4063,1.8125 0.2812,1.65625 1.5625,1.09375 -1.6875,2.3125 1.625,0.15625 -0.5625,1.3125 -1.4687,0.59375 1.3437,0.84375 0.1875,1.625 -1.125,1.875 -0.3125,3.84375 0.1875,1.4375 0.625,1.5 -0.4375,1.5 1.4063,0.53125 -0.3126,1.46875 0.4688,1.5 -1.5,0.0625 1.4375,0.8125 -1.6563,1.625 1.4376,-0.21875 0.3124,1.4375 -0.4062,1.5625 -0.5,1.34375 1.4688,0.96875 -1.0313,1.46875 1.4687,0.25 -1.3437,1.09375 0.9687,0.46875 746.93755,0 37.21875,-25.84375 67.28125,2.53125 21.34375,1.03125 42.1875,-96.875 17.28125,-40.9375 -1.375,0.25 -8.96875,2.875 -1.3125,0.40625 -1.75,-1.59375 -1.65625,-0.4375 -0.8125,-1.6875 -1.40625,0.75 -1.875,1.4375 -1.40625,0.0625 -1.5625,-1.34375 -1.34375,-0.15625 -1.90625,0.15625 -2.4375,0.0937 -2.03125,-0.65625 0.125,-1.3125 -1.40625,-0.25 -1.28125,-0.0625 -1.46875,-0.21875 -1.5,0.125 -1.5,0.8125 -2.1875,0.71875 -1.375,-0.5 -1.90625,1.40625 -1.1875,2 -1.375,-0.375 -0.5625,1.75 -2.6875,0.4375 -1.375,0.625 -1.6875,-0.21875 -1.59375,-0.875 -2.125,-1.4375 -1.1875,-1.59375 -1.53055,-1.15615 -1.3125,0.6875 -1.90625,-0.71875 -0.8125,-1.65625 -2.4375,-0.96875 -0.375,-1.59375 0.375,-2.375 -0.5,-1.625 -1.34375,-2.0625 -1.34375,-0.6875 -1.375,-2.96875 -2.03125,-0.75 -0.375,-0.21875 -40.25,0 -1.15625,0.34375 -0.53125,-0.34375 -45.21875,0 -2.15625,0.34375 -0.25,-0.34375 -61.6875,0 -1.40625,1.65625 -3.28125,1.0625 -1.8125,0.84375 -4.40625,0.28125 -1.9375,-0.125 -1.34375,0.28125 -1.84375,0.90625 -1.75,0.21875 -1.5625,1.65625 -2.875,0.6875 -3.09375,0.28125 -1.53125,-3.1875 -1.9375,0.375 -2.9375,-0.25 -6.84375,2.8125 -4.21875,0.875 0.34375,-1.625 -0.3125,-1.71875 0.6875,-5.03125 -703.7812,0 z"
     id="rect6"
     inkscape:connector-curvature="0" />
  <path
	 style="fill:#9FAEC0"
	 stroke="#9FAEC0"
	 stroke-width="10"
	 transform="translate(0, 75)"
     d="m 52.375,421.09375 0.4376,0.21875 0.4062,1.75 -0.4062,1.4375 -1.75,-0.0625 0.5,1.28125 -0.1876,1.4375 0.9376,1.40625 0.25,1.5 -1.0938,1.28125 1.5,0.875 0.625,1.40625 -0.125,1.96875 -1.0312,1.5 0.625,1.375 -0.4063,1.34375 0.062,1.34375 0.125,1.78125 0.5625,1.375 0,1.34375 0.094,2.28125 -1.3124,0.21875 0.8124,1.46875 -1.4374,1.75 -0.9376,1.625 1.375,0.3125 0.625,1.46875 -0.3124,1.8125 0.7812,1.625 0.094,2.28125 1.6562,-0.0625 1.4375,0.34375 -1.0313,1.75 -0.1874,1.75 1.6874,0.59375 0.1876,1.28125 0.5312,2.40625 1.3438,-1.125 2.25,0.0312 -0.7188,1.40625 0.4688,1.46875 -1.4063,1.6875 -0.5313,1.4375 0.6563,1.40625 0.2187,1.375 -0.25,1.375 -1.4374,-0.34375 -0.1563,1.625 -0.2187,1.71875 -0.1876,1.3125 0.625,1.34375 -0.1562,1.3125 -1.375,1.21875 1.125,1.5625 -1.7812,0.75 -0.1876,1.3125 0.4688,1.46875 -0.062,1.5 -0.094,1.40625 1.25,1.3125 -1.25,1.65625 1.6562,-0.25 -0.6875,1.34375 1.375,1.28125 -1.4063,-0.3125 1.4376,1.09375 -1.4688,0.6875 0.25,1.625 0.625,1.46875 -0.2188,1.65625 0.5938,1.5625 -0.2812,1.28125 -0.9376,1.40625 0.1876,1.6875 0.094,1.40625 -0.031,1.53125 0,1.5625 -1.4687,-0.28125 0,1.84375 0.1875,1.3125 -0.1562,1.5 0.5937,1.46875 0.4375,1.46875 -0.9375,1.75 1.5,0.5 -0.125,1.40625 1.5,-0.34375 0.5625,1.3125 -1,1.3125 1.3438,0.21875 0.1562,1.40625 0.5625,1.84375 1.3437,1.375 0.063,1.65625 0.7812,1.53125 -0.062,1.75 0.125,1.5 0.2813,1.9375 0.094,1.6875 0.25,1.75 0.75,1.5 -0.2187,1.34375 0.3124,1.5625 -0.5937,1.65625 0.5625,1.46875 0.8125,1.5625 1.5937,0 0.1876,1.34375 -0.4376,1.78125 -0.6562,1.34375 1.3438,0.46875 -0.8438,1.34375 1.375,1.375 0.6562,1.3125 -0.3437,1.375 1.4375,-0.78125 -0.5,1.8125 1.5,-0.3125 0.625,1.375 1.625,3 -0.25,1.3125 1.5,1.90625 0.375,1.625 1.5,0.75 0.4375,1.9375 1.5,0.4375 1.4375,0.40625 -0.4688,1.34375 1.3438,0.78125 1.2188,1.78125 -0.125,1.40625 0.3437,1.625 -0.6563,1.59375 -0.2812,1.6875 1.4062,1.46875 -0.2187,1.53125 -0.062,1.9375 0.094,1.375 0.062,0.96875 546.6563,0 0.15625,-9.5 -0.0937,-13.25 0.1875,-49.21875 0.53125,-6.5 0.4375,1.65625 2.28125,1.4375 1.75,-1.125 2.125,1.34375 1.53125,-0.5 2.09375,0.125 0.65625,-1.40625 -0.28125,-1.4375 1.46875,-1.875 2.09375,-1.84375 -0.90625,-1.6875 -2.8125,-0.59375 1,-1.78125 1.0625,-1.875 2.75,-0.46875 2.65625,0.78125 0.40625,-2.34375 0.6875,-2.15625 2.71875,-1.75 3.4375,-0.0937 7.03125,7.6875 1.75,0.90625 4.96875,-3.625 13.46875,-7.65625 35.96875,-21.28125 11.6875,-7.3125 22.9375,-16.5 40.59375,-28.53125 6.6875,-4.65625 -746.9375,0 z"
     id="rect8"
     inkscape:connector-curvature="0" />
  <path
	 style="fill:#9FAEC0"
	 stroke="#9FAEC0"
	 stroke-width="10"
	 transform="translate(0, 50)"
     d="m 81.625,596.125 0.031,0.40625 1.5,0.6875 -1.3125,0.8125 -0.6562,1.875 0.1562,1.28125 0.7812,2.0625 1.0313,1.90625 0,1.3125 -0.5,1.75 -0.5,1.40625 0.4375,1.5625 1.4375,0.46875 -0.4063,1.40625 0.4688,1.34375 -0.5,1.625 0.6875,1.34375 0.4687,1.375 0.125,1.5625 0.9688,1.75 -0.094,1.78125 0.6876,1.4375 0.1874,1.625 0.25,1.875 -0.4374,2.21875 -0.1563,2.65625 -0.9063,1.3125 -1.0624,2.875 -0.4376,1.75 0.4688,2.0625 0.094,2.71875 0.125,4.8125 0.9062,3.75 0.5312,2.21875 -0.4687,2.96875 0.125,2 -0.4687,1.4375 -0.063,1.625 -0.4062,3.21875 -0.1562,1.9375 -0.25,1.84375 0.1562,1.375 -0.1562,2.96875 -0.3438,1.9375 -1.0312,3.09375 -1.4376,1.09375 -2,3.3125 -2.2812,2.28125 -0.4688,1.5 -0.6562,1.4375 -1.0312,2.40625 -0.625,1.4375 -2.5938,2.78125 -1.8438,1.21875 -3.0312,1.59375 -5,3.5625 -1.3438,2.15625 -5.2812,3.84375 -3.1562,2.71875 -1.4376,1.0625 -0.7187,1.5 -0.75,2.78125 -0.2813,1.875 -0.5624,1.875 2.9062,3.75 5.0938,6.65625 1.625,2.8125 2.25,3.03125 2.2812,5.96875 0.25,1.53125 0.8438,2.65625 0.5312,1.53125 1.0625,1.375 2.8437,4.8125 1.1876,1.6875 1.5312,1.3125 2.3125,0.28125 1.6875,-0.25 1.6875,0.0625 2.0313,0.21875 2.375,1.0625 2.8124,2.09375 2.125,1.1875 2.0626,0.9375 3.0937,1.03125 2.5,1.9375 1.6563,1.625 1.0937,3.09375 0.2813,0.71875 479.9062,0 0.21875,-1.03125 -0.40625,-3.0625 3,-2.71875 0.28125,-1.40625 0.84375,-1.53125 1.15625,-1.28125 1.34375,-1.59375 0.28125,-1.46875 -0.21875,-1.5625 0.125,-2 0.25,-2.65625 -0.8125,-2.25 -3.375,-1.71875 -1.375,-2.09375 -1.25,-3.09375 -1.53125,-2.5 -1.75,-1.84375 -0.1875,-2.125 0.21875,-1.65625 0.0312,-1.3125 -2.46875,-2.25 -1.4375,-0.84375 -2.09375,-2.0625 -1.5625,0.0625 -2,0.96875 -1.34375,0.3125 -1.4375,0.0625 -2.9375,-1.0625 -3.125,-0.21875 -1.78125,-2.125 0.21875,-2.125 -0.40625,-1.6875 0.4375,-2.84375 -0.625,-2.15625 0.15625,-2.03125 0.0937,-1.875 0.90625,-3.84375 0.4375,-4.4375 0.46875,-2.0625 0.375,-2.3125 0.78125,-1.96875 2.5,-1.3125 2.15625,-1.4375 2.0625,-1.4375 1.40625,-1.78125 1.78125,-2.03125 0.4375,-1.6875 0.21875,-1.8125 0.9375,-2.40625 1.3125,-1.15625 0.5,-1.875 -0.59375,-1.53125 -0.34375,-2.09375 1.8125,-2 1.40625,-1.0625 0.21875,-3 2.03125,-4 2.84375,-2.5 2.03125,-1.5 0.96875,-1.53125 2.5625,-2.375 2.15625,0 -0.125,-1.53125 1.375,0.0312 1.90625,-0.40625 1.5,-1.1875 1.65625,-0.1875 2.5,-1.21875 2.25,-0.6875 0.1875,-1.71875 0.625,-1.78125 1,-1.46875 2.3125,-1.15625 2.15625,0.75 1.46875,0.84375 1.3125,0.28125 1.40625,0.0937 0.6875,-1.6875 0.90625,-1.4375 0.53125,-1.5 1.09375,-2.15625 0.25,-1.34375 1.75,-1.53125 2.125,-0.625 2.4375,1.53125 2.53125,1 1.34375,0.21875 1.3125,-0.5 0.3125,-1.5 0.875,-2.09375 0.46875,-2.59375 0.75,-2.78125 1.71875,-1.25 1.59375,-0.59375 1.625,-0.375 0.125,-18.75 -0.0625,-14.96875 0,-0.78125 -546.6563,0 z"
     id="rect10"
     inkscape:connector-curvature="0" />
  <path
	 style="fill:#9FAEC0"
	 stroke="#9FAEC0"
	 stroke-width="10"
	 transform="translate(0, 25)"
     d="m 96.5626,771.125 1.2812,3.5 1.3125,2.09375 0.5937,1.3125 L 99.9688,889 l -0.094,57.125 550.5938,0 -0.71875,-0.6875 -4.8125,-0.96875 -4.1875,-1.28125 -2.5,-0.875 -2,-1.15625 -1.78125,-2.34375 -3.6875,-2.875 -2.1875,-2.59375 -1.40625,-2.8125 -0.125,-3.5 -0.96875,-1.90625 -0.40625,-1.78125 -1.0625,-1.65625 -1.75,-1.375 -1.46875,-0.625 -1.75,-0.3125 -3.8125,0.21875 -1.34375,-0.15625 -1.65625,-0.34375 -3.25,-0.46875 -1.84375,0.15625 -3.28125,-1.21875 -1.625,0.4375 -1.90625,-0.8125 -2.4375,-0.5625 -1.65625,1.1875 -1.34375,-0.96875 0.21875,-1.71875 -3.46875,-4.5625 -1.6875,-0.15625 -1.4375,-1.15625 -1.65625,0.0625 -1.125,-1.71875 0.4375,-1.53125 -0.21875,-1.96875 -1.28125,-1.9375 -3.6875,-2.21875 -1.9375,-2.21875 -2.3125,-3.0625 -5.6875,-5.59375 -2.09375,-1 -2.0625,-1.6875 -2.59375,-1.375 -2.03125,-2.25 0.0625,-1.5625 0.4375,-2.1875 0.65625,-1.5625 2.03125,-3.59375 0.3125,-2.75 1.0625,-3.03125 0.84375,-2.4375 -0.4375,-2.46875 -0.0312,-1.53125 0.78125,-2.3125 -1.46875,-3.5625 0.21875,-1.625 1.84375,-1.46875 1,-6.1875 -0.5,-2.71875 -0.75,-1.75 -1.125,-1.375 -0.125,-2.125 -0.0625,-2.0625 -0.0312,-1.375 1.09375,-3.65625 -0.25,-1.5625 -1.8125,-2 -2.125,-1.90625 -0.96875,-2.34375 0.21875,-1.34375 1.125,-1.9375 2.34375,-1.96875 3.46875,-3.40625 0.90625,-1.625 -0.75,-1.4375 -0.8125,-3.5 -0.6875,-2.0625 0.0625,-2.46875 0.5625,-1.65625 -1.8125,-2.1875 -0.0625,-1.65625 0.40625,-2.0625 1.5625,-2.625 -0.71875,-2.25 0,-1.46875 -0.375,-2.5625 0.84375,-1.46875 -0.0312,-2.1875 -0.84375,-1.5 -0.1875,-1.8125 1.375,-0.875 1.78125,-1.4375 1.21875,-1.6875 2.90625,-3.28125 0.4375,-2 -479.90625,0 z"
     id="rect12"
     inkscape:connector-curvature="0" />
  <path
	 style="fill:#9FAEC0"
	 stroke="#9FAEC0"
	 stroke-width="10"
     d="m 99.875,946.125 -0.1562,74.875 0,100.0313 82.875,0.125 70.6875,-0.2813 40.0313,0.031 1.9062,0.1563 38.0625,-0.1563 137.0625,0.25 62.5,0 84.71875,-0.1875 147.4375,0.031 -0.0937,-2.625 -1.84375,-1.8437 -0.5,-1.6875 -0.8125,-1.4063 0,-2 1.3125,-2.6875 0.125,-3.2187 -0.90625,-1.5313 -2.875,-3.125 -0.9375,-1.9687 0.0625,-2.0625 0.59375,-3.875 -1,-1.375 -0.1875,-2.2188 0.0625,-1.9062 0.625,-3.625 0.15625,-3.5 1,-1.8125 0.46875,-1.9063 -0.0625,-2.1562 1.0625,-4.1563 0.375,-1.5312 -2.3125,-3.3438 -0.65625,-2.2812 -0.5625,-1.8125 -0.46875,-2.125 -0.25,-2.4688 -0.84375,-1.75 -1.84375,-1.8125 -1.5625,-2.0625 -0.53125,-2.75 -1.3125,-2 -1.59375,-1.0312 -2.46875,-3.7188 -0.71875,-1.7812 -0.4375,-2.0938 -2.4375,-3.1875 -2.75,-2.0625 -0.625,-1.5937 -1.5,-1.75 -0.71875,-2.1563 -1.375,-1.4375 -3.53125,-1.5312 -1.4375,0.3125 -1.40625,-0.5938 -2.0625,-1.5 -2.1875,-0.4687 -2.90625,-0.1563 -1.5,-0.5937 -2.6875,-0.3125 -2.21875,-1.5313 -1.65625,-2.7187 -2.1875,-1.25 -2.5625,-1.5938 -1.46875,-1.9062 -0.9375,-2.4375 -1.84375,-2 -1.75,-0.2188 -1.5625,-1 -0.40625,-3.1562 -2.53125,-2.375 -2.6875,-0.375 -2.875,-2.4063 -2.84375,-1.3125 -2.59375,-1.875 -1.53125,-2.6875 -1.96875,-1.25 -2.5,-2.21875 -1.375,-0.78125 -0.28125,-2.34375 -1.5625,-2.53125 -0.40625,-1.6875 0.625,-2.15625 -0.15625,-1.84375 -0.875,-1.28125 -0.0312,-2.25 -1.1875,-1.34375 -1.84385,-0.90615 -0.5,-2.03125 1.34375,-2.53125 -0.625,-2.34375 -0.90625,-2.0625 -2,-1.4375 -3.21875,-4.375 -1.3125,-0.78125 -1.3125,-0.1875 -2.375,-1.84375 -1.6875,-0.46875 -2.375,-1.4375 -3,-2.9375 -3.25,-0.875 -3.1875,-1.0625 -0.84375,-0.78125 -550.5938,0 z"
     id="rect14"
     inkscape:connector-curvature="0" />
</svg>
