<?xml version="1.0" encoding="UTF-8" standalone="no"?>
<svg
   xmlns:dc="http://purl.org/dc/elements/1.1/"
   xmlns:cc="http://creativecommons.org/ns#"
   xmlns:rdf="http://www.w3.org/1999/02/22-rdf-syntax-ns#"
   xmlns:svg="http://www.w3.org/2000/svg"
   xmlns="http://www.w3.org/2000/svg"
   xmlns:sodipodi="http://sodipodi.sourceforge.net/DTD/sodipodi-0.dtd"
   xmlns:inkscape="http://www.inkscape.org/namespaces/inkscape"
   width="1316.875"
   height="1183.8438"
   viewBox="0 0 1316.875 1183.8438"
   id="svg2"
   version="1.1"
   inkscape:version="0.48.1 "
   sodipodi:docname="Aa.svg">
  <metadata
     id="metadata20">
    <rdf:RDF>
      <cc:Work
         rdf:about="">
        <dc:format>image/svg+xml</dc:format>
        <dc:type
           rdf:resource="http://purl.org/dc/dcmitype/StillImage" />
      </cc:Work>
    </rdf:RDF>
  </metadata>
  <defs
     id="defs18">
    <clipPath
       id="clipPath1"
       clipPathUnits="userSpaceOnUse">
      <path
         inkscape:connector-curvature="0"
         id="path9"
         d="M 0,0 800,0 800,732 0,732 0,0 z" />
    </clipPath>
  </defs>
  <sodipodi:namedview
     pagecolor="#ffffff"
     bordercolor="#666666"
     borderopacity="1"
     objecttolerance="10"
     gridtolerance="10"
     guidetolerance="10"
     inkscape:pageopacity="0"
     inkscape:pageshadow="2"
     inkscape:window-width="1280"
     inkscape:window-height="1004"
     id="namedview16"
     showgrid="false"
     fit-margin-top="0"
     fit-margin-left="0"
     fit-margin-right="0"
     fit-margin-bottom="0"
     inkscape:zoom="0.35355339"
     inkscape:cx="660.91464"
     inkscape:cy="376.847"
     inkscape:window-x="-8"
     inkscape:window-y="-8"
     inkscape:window-maximized="1"
     inkscape:current-layer="svg2" />
  <path
	 style="fill:#9FAEC0"
	 stroke="#9FAEC0"
	 stroke-width="10"
	 transform="translate(0, 125)"
     d="M 798.125,0 755,2.09375 l -29.375,0.9375 -76.65625,1.75 -39.75,1.34375 L 558.5625,6.65625 496.03125,8.4375 439.375,8.5312 335.875,10.43745 296.75,10.81245 232.875,10.9687 1.7813,7.31245 0,10.2812 l 0.5625,1.90625 1.625,4.59375 -0.9688,2.03125 1.0938,3.0625 2.8125,1.0625 2.25,0.0625 3.875,-0.96875 1.7813,1.59375 2.5937,-2.6875 -0.375,-2.40625 0.625,-3.96875 3.0625,-1.4375 2.5938,1.5 1.9062,2.5625 0.7188,2.1875 -1.875,5.34375 -6.7813,4.5625 0.2813,2.5625 -0.4063,2.71875 1.8125,3.5 2.0312,1.3125 1.875,1.6875 2.1876,3.8125 0.125,2.25 -1.0626,3.5625 0.4688,1.875 1.9062,3.21875 1.0626,2.375 0.375,2.21875 -0.063,2.15625 1.0626,2.15625 2.4062,3.125 0.1562,3.3125 -1.9374,1.78125 -4.5,2.53125 -0.125,2.1875 2.3437,1.34375 6.9063,-2.125 2.3124,1.0625 3.3126,2.625 3.875,0.5625 2.0937,2.21875 0.031,1.96875 -0.9376,2.625 0.9376,2.5 7.0937,3.21875 3,-0.28125 3.4687,0.84375 2,2.625 0.5626,2.09375 -0.3438,2.6875 -2.1562,4.28125 0.625,3.84375 1.625,2.25 2.0312,2 3.5312,1.5 1.7813,2.65625 0.3125,3.03125 2.0938,2.5 2.75,0.375 2.0937,1.25 0.8437,3.09375 -1.4687,2.46875 0.9375,1.90625 -0.7188,1.90625 1.1563,2.21875 -1.5937,3.09375 -2.3126,0.46875 -1.6874,1.78125 0.5937,3.125 1.5937,2.84375 1.875,1.46875 3.5626,0.71875 3.75,-1.125 3.4062,0.8125 2.5625,2.6875 3.625,1.46875 1.1875,1.96875 1.1562,4.9375 2.6876,1.90625 3.9374,2.125 3.875,5.34375 2.6563,1.1875 4,0 3,2.5 -0.1563,3.03125 -0.7187,1.84375 0,1.78125 2.3437,1.9375 3.5626,-0.0312 3.125,-1.59375 3.3437,1.8125 0.4687,4.6875 2.4376,1.9375 4.4062,1.28125 4.125,1.84375 9.3125,-0.9375 2.4375,-2.84375 -0.094,-2.59375 1.6563,-2.90625 2.9687,-0.53125 3.0313,0.96875 1.8437,-0.28125 2.8438,-0.9375 1.8125,0 3.875,2 1.4063,2.40625 -0.625,2.6875 -2.25,2.9375 0.25,2.3125 2.3124,2.1875 689.2813,0 -0.15625,-0.25 -2.0625,-6.40625 -0.0937,-3.21875 0.65625,-2.71875 4.46875,-5.4375 0.3125,-3.3125 -1.28125,-2.5625 -3.09375,-3.46875 -4.6875,-8.375 -0.78125,-2.90625 -5.0625,-10.5625 1.03125,-5.375 -1.5625,-5.34375 -0.75,-4.5 -0.6875,-2.125 -1.1875,-5.625 -0.125,-5.9375 0.65625,-2.15625 -0.75,-3.28125 -0.21875,-2.0625 0.40625,-2.625 1.3125,-2.4375 -0.5,-4.4375 0.53125,-2.25 -0.4375,-3.0625 1.65625,-2.84375 1.59375,-3.84375 -0.59375,-3.3125 0.40625,-2.0625 3.78125,-8.71875 1.03125,-4.375 0.875,-2.0625 3.40625,-5.3125 3.59375,-2.25 0.1875,-2.6875 -3.0625,-0.96875 -2.21875,2.75 -2.25,-0.0312 0.15625,-2.15625 -1.75,0.28125 -2.625,-0.4375 -1.125,-2.125 0.5,-2.90625 -1.90625,0.59375 -3.15625,-1.6875 -2.09375,-0.5625 L 837.99915,50.125 839.4054,46.15625 837.5929,46 l -0.5625,-2.1875 1.71875,-1.875 -1.0625,-2.28125 -4.75,0.0625 -2.1875,-0.5625 -2.15625,-1.21875 -1.34375,-1.84375 -1.0625,-3.6875 -1.53125,-1.96875 -3.5625,-1.90625 -1.6875,-1.96875 -0.1875,-1.78125 0.6875,-2.375 -0.25,-3.71875 -2.5,-1.09375 -11.03125,-3.15625 -0.59375,-1.90625 1.03125,-4.125 L 804.5929,6.5625 800.56165,3.875 798.12415,0 z"
     id="rect4"
     inkscape:connector-curvature="0" />
  <path
	 style="fill:#9FAEC0"
	 stroke="#9FAEC0"
	 stroke-width="10"
	 transform="translate(0, 100)"
     d="m 166.8437,197.1875 2.1563,2.03125 2.5,0.65625 4.125,0.625 1.4063,1.8125 0.2187,4.375 -0.9375,2.59375 -2.4062,1.625 -5.6563,0.21875 -2.5937,1.65625 0.094,2.78125 2.7187,2.53125 1.9376,0.96875 3.7812,-1.4375 2.875,-1.875 2.3438,0.5 0.9062,1.84375 0.3125,2.25 -1.7187,4.65625 -3.2188,2.34375 -3,0.71875 -3.75,-1.21875 -5.75,-4.25 -3.25,1.28125 -1.4375,2.84375 0.5625,5.625 -0.4375,5.15625 -2.1563,2.21875 -6.6562,1.09375 -2.4375,2.28125 -2.25,4.03125 -2.0625,3.03125 -0.9375,2.59375 0,2.6875 1.25,2.8125 0.1563,2.875 -0.6876,1.9375 -1.25,1.78125 -3.5937,1.0625 -3.3437,-1.1875 -3.0313,1.875 -1.1875,5.0625 0.625,2.40625 1.125,2.4375 3.375,3.78125 2,1.75 3.5625,1.8125 1.7187,2.28125 1.1563,6.75 1.4375,1.9375 1.7812,1.375 2.5,1.34375 3.0626,0.84375 2,0.90625 2.2187,2.5625 0.4375,2.4375 2.4062,2.5625 1.9063,0.75 1.6875,2.09375 0,2.5625 2.4688,2.59375 3.5312,-0.21875 3.0938,-1.78125 2.9687,0.90625 1.1875,3.625 -1.5938,2.625 -3.0312,1.28125 -1.4688,2.03125 -0.094,2 0.8437,7.6875 1.5,4.15625 3.5938,4.1875 4.4688,2.0625 2.25,1.4375 1.75,1.65625 1.9687,3.125 0.3437,2.09375 -0.4062,1.96875 -1.4062,2.59375 0.625,2.03125 1.9374,1.625 2.0313,0.6875 1.7813,0.1875 2.6562,-0.40625 2.5,1.53125 1.2188,3.0625 1.4687,2.53125 2.0625,1.71875 2.2812,0.84375 3.375,0.25 3.5938,-1.21875 3.2812,-2.4375 2.0938,-0.21875 1.7812,0.5 1.9688,2.0625 -0.4375,2.9375 2.125,2.1875 2.96875,0.0312 2.3125,-0.65625 3,-1.15625 3.9375,2.53125 -0.3125,3.34375 -2.84375,3.8125 -0.53125,2.53125 -0.0625,9.90625 771.49995,0 2.8438,-3.46875 0.3437,-3.15625 -1,-4.40625 -3.3125,-5.375 -1.2187,-4.1875 -0.28125,-5.4375 -0.75,-2.3125 -0.59375,-3.09375 0.0312,-4.21875 -0.90625,-2.625 0.0312,-2.21875 -1.65625,-5.9375 -1.78125,-1.53125 -2.46875,-0.90625 -3.1875,-3.75 -1.5625,-3.25 -2.96865,-2.5937 -1.71875,-2.625 -3.4375,-1.90625 -6.0625,-6.34375 -10.375,-6.9375 -0.9375,-1.8125 -3.1875,-1.09375 -2.5625,-2.15625 -0.65625,-2.21875 -2.15625,-1.71875 -3.78125,-1.15625 -2,-1.625 -3.1875,-1.1875 -5.90625,-4.03125 -2.875,-2.5 -4.78125,-6.59375 -0.375,-5.25 L 926.25,283.53125 923.65625,278 l -1.46875,-2.4375 -10.5,-2.4375 -2.9375,-4.28125 -1.21875,-7.28125 -2.21875,-3 -8.5625,-4.03125 -2.34375,-2.375 -1.5,-2.78125 -2.3125,-2.09375 -1.25,-2.03125 L 887.5,243 l -5.75,-4.65625 -2.46875,-2.21875 -7.40625,-6.25 -2.78125,-3.625 -0.0937,-3.5625 0.90625,-3.25 0.0937,-5.5625 0.5,-2.84375 -1.125,-2.53125 -1.96875,-2.8125 -5.875,-4.15625 -4.28125,-2.625 -1.125,-1.71875 -689.2813,0 z"
     id="rect6"
     inkscape:connector-curvature="0" />
  <path
	 style="fill:#9FAEC0"
	 stroke="#9FAEC0"
	 stroke-width="10"
	 transform="translate(0, 75)"
     d="m 230.21875,394.5 -0.15625,24.46875 0.1875,38.90625 -0.78125,49.4375 -0.375,45.3125 0.125,39.21875 836.71875,0 -0.1562,-4.71875 0.8437,-4.3125 2.3438,-5.15625 1.125,-3.96875 1.8125,-3.21875 5.2187,-6.375 2.9688,-2.59375 1.5937,-3.375 1,-1.875 0.2813,-4.84375 1.1875,-3.84375 0.1562,-2.5 1.5313,-3.21875 0.9375,-3.09375 0.125,-2.75 1.5937,-2.3125 2.0313,-4.25 1.8125,-2.4375 2.2187,-4.625 4.5313,-3.40625 2.25,-2.53125 1.5312,-3.1875 1.2813,-5.6875 -0.5,-1.84375 -0.3125,-3.40625 -0.094,-2.84375 -0.75,-2.40625 -3.125,-4.8125 -1.375,-2.375 -0.5313,-3.90625 1.3125,-3.625 4.3125,-3.78125 1.625,-3.4375 1.7188,-3.15625 3.875,-2.6875 4.6562,-3.84375 1.0938,-1.96875 0.5937,-2.375 1.0938,-5.75 -0.8438,-3.03125 -5.2812,-3.46875 -2.25,-1.125 -2.9375,-2.34375 -4.0313,-2.25 -2.125,-0.65625 -5,-5.0625 -5.375,-3.0625 -2.4687,-0.25 -2.9063,-0.875 -6.3125,-0.0937 -1.9062,-1.15625 -2.8438,-1.25 -2.5312,-1.875 -9.1563,-4.6875 -2.9062,-0.9375 -4.4063,-0.25 -1.8437,-0.90625 -2.375,-0.125 -2.2188,0.875 -1.8125,1.3125 -2.25,4.15625 0.062,2.125 -0.8437,2.25 -2.5,3.9375 -1.5313,2 -1.875,1.03125 -5.3437,6.09375 -2.3125,1.0625 -3.1563,0.59375 -2.9063,-0.7188 -8.2813,-5.1875 -1.4687,-3.1875 -2.375,-2.0625 -1.8438,-2.09375 -1.1875,-2 -1.1562,-5.15625 -1.3438,-3.59375 0.062,-4.84375 -0.6562,-3.28125 -1.7188,-2.96875 -0.9375,-2.875 -3.99995,-8.46875 0.0312,-1.90625 1.90625,-1.90625 0.5,-1.84375 0.625,-0.78125 -771.5,0 z"
     id="rect8"
     inkscape:connector-curvature="0" />
  <path
	 style="fill:#9FAEC0"
	 stroke="#9FAEC0"
	 stroke-width="10"
	 transform="translate(0, 50)"
     d="m 229.21875,591.84375 0.0625,21.5 L 229,631.625 l -0.0312,45.125 -0.75,64.96875 0.1875,47.46875 1006.4688,0 -0.3126,-0.53125 -0.9687,-6.03125 1.5625,-6.15625 3.9375,1.1875 3.25,-1.46875 -0.1563,-3.34375 -1.4687,-2.125 -4.0938,-4.5625 -1.7812,-2.9375 -0.062,-2.34375 -0.1875,-2.6875 0.125,-3.0625 0.8125,-4.5 -0.9063,-1.84375 -2.9062,-1.9375 -6.9688,-1.75 -3.9375,-2.46875 -2.125,-4.28125 -3.5937,-2.375 -0.3125,-1.78125 -3.1875,1 -3.1875,0.0625 -3.1563,-1.6875 -0.4687,-1.875 1.3437,-4.1875 0.1563,-2.6875 -1.8438,-3.5 -2.5937,-2.03125 -3.9375,-2.3125 -2.875,-2.28125 -2.375,-2.40625 -2.0625,-3.03125 -2.8125,0.15625 -2.1875,-1.375 -1.7813,-0.0937 -2.375,0.0937 -2.2187,-2.65625 -0.031,-3.15625 -0.3125,-1.8125 -2.8437,-1.59375 -7.2813,-4.21875 -2.2187,1.65625 -3.5313,4.34375 -2.0312,1.5 -2.4375,1.3125 -4.1563,-0.25 -2.8125,-1.125 -3.0312,-2.28125 -1.4688,-3.40625 -1.1562,-2.40625 -1.4688,-2.90625 1.5938,-3.84375 1.1875,-1.8125 2.4375,-0.0312 3.1875,-2.0625 1.3125,-2.96875 -2.25,0.0625 -1.2188,-2.6875 -2.4687,0.875 -6.25,1.15625 -2.125,-0.28125 -2.2188,-1.7813 -4.75,-6.40625 -3.75,-2.15625 -1.5625,-3.0625 -2.5625,-0.375 -3.125,0.3125 -2.1562,-1.125 -3.625,-2.9375 -1.7188,-2.3125 -0.031,-3.53125 -0.6562,-1.78125 -5.6563,-3.46875 -2.75,1.34375 -9.1562,-6.3125 -4.8125,-4.71875 -1.3438,-3.15625 -4.9062,-8.34375 -3.125,-3.28125 -1.9063,-1.21875 -4.3437,-1.65625 -1.8438,-1.53125 -4.4062,-6.75 -1.0938,-2.71875 -0.875,-3.03125 -0.875,-5.65625 -0.5625,-3.125 -0.5312,-2.875 0.031,-3.25 0.4062,-2.53125 0,-0.15625 -836.71875,0 z"
     id="rect10"
     inkscape:connector-curvature="0" />
  <path
	 style="fill:#9FAEC0"
	 stroke="#9FAEC0"
	 stroke-width="10"
	 transform="translate(0, 25)"
     d="m 228.40625,789.1875 0.0312,8.96875 -0.3125,78.3125 0.0937,48.9375 -0.34375,9.5 0.3125,1.96875 0.0312,49.625 1085.125,0 0.3125,-1.375 -0.8437,-2.875 -2.375,-1.625 -4.8125,-0.28125 -2.7813,-2.1875 -1.625,-3.3125 0.125,-5.90625 1.6875,-2.03125 3.4375,-1.3125 2.875,-0.125 1.1875,-2.5 0.9375,-3.59375 1.9063,-4.09375 1.625,-8.28125 1.6562,-6.03125 0.2188,-4.9375 -1.2188,-2.4375 -2.625,-2.625 -2.2187,0.0312 -3.3438,0.9375 -5.875,1.90625 -2.9375,-2.34375 -0.5625,-2.5 0,-2.625 -2,-5.15625 -4.0312,-2.8125 -2.5,-3.03125 -1.4688,-3.8125 -1.8437,-3.65625 -0.9688,2.03125 -4.6875,-0.6875 -4.8437,-0.40625 -0.5,2.6875 1.1875,2.65625 2.6875,1.8125 2.6562,1.09375 3.4688,3.3125 0.5,2 -2.375,5.65625 -1.7813,1.21875 -2.6562,-0.90625 -6.0938,-6.125 -4.5311,-2.4062 -3.25,-1.1875 -3.125,-2.4375 -1.125,-1.75 -0.25,-2.90625 1.25,-3.25 0.625,-2.5625 -0.2812,-2.65625 -2.1563,-4.28125 -4.6562,-3.84375 -2.75,-4.03125 -1.9063,-3.5625 -0.5937,-2.34375 -3.5313,-6.875 -1.125,-2.9375 -0.9375,-6.25 1.6563,-4.21875 -0.125,-2.125 -2.3125,-1.1875 -3.8125,0.5 -3.8125,-5.125 -1.7813,-3.625 0.5,-2.53125 0.5625,-3.375 0.9375,-1.84375 2.5625,-2.3125 1.2188,-2.21875 2.8437,-1.21875 5.3125,-0.59375 2.9063,-1.6875 0.9375,-2.34375 1.4062,-8.0625 -0.2812,-2.4375 -0.6875,-2.65625 -1.625,-4.96875 -1.0938,-2.65625 -2.2187,-3.28125 -4.8438,-5.46875 -3.2812,-5.8125 -2.125,-6.09375 -2.4688,-4.4375 -1006.46875,0 z"
     id="rect12"
     inkscape:connector-curvature="0" />
  <path
	 style="fill:#9FAEC0"
	 stroke="#9FAEC0"
	 stroke-width="10"
     d="m 228.21875,986.5 0.0312,68.1875 51.84375,-0.062 47.53125,0.2813 89.28125,-0.1875 171.90625,0.4375 53.90625,-0.2813 27.96875,0.4063 51.75,-0.4375 99.65625,-0.1875 39.5625,0.625 123.15625,-0.4375 116.18755,0.25 2.6875,0 5.0625,0.2812 -0.3438,2.3125 -0.625,1.9063 1.9063,0.9687 1.3125,1.75 -1.9063,-0.3125 -0.5625,1.875 2.625,-1.0937 0.3125,2.4062 0.9375,2.6875 0.4063,2.375 -0.7188,1.7813 -1.125,1.9687 1.8125,0.3438 -0.8437,2.2812 1.9687,0.625 2,0.5313 1.7813,1.4375 2.1875,-0.062 3.8437,1.1875 1.7188,2.0937 1.3125,1.8438 -0.094,2.1562 -0.4687,2.6875 -0.8125,2.2813 -1.5,1.8125 0.1875,2.0625 0.3125,1.75 -1.25,2 0.4062,2.0625 2.0313,1.3125 1.0625,2.75 -1.0938,1.9687 -1.8437,1.2813 0.6562,2.25 -1.5625,2.3125 -2.4375,0.1875 -2.0937,1.4062 -1.875,1.0938 -0.75,1.7812 -0.4063,2.0313 -1.7812,1.375 0.875,2.0937 -1.3125,1.8125 -2.5,0.7813 -1.25,1.875 -1.75,0.031 -2.9063,1.3125 -1.9687,1.5625 -1.875,1.0625 -1.0938,2.0937 -2.0937,2.3438 -1.7813,-0.375 -1.8125,2.875 -0.3125,2.4687 0,2.5 -0.062,1.8125 -0.75,1.875 -3.0937,2.5313 -1.9375,0.5937 -1.125,1.8438 -2.4375,0.6562 -2.8438,0.8125 -0.9687,1.8125 -0.4063,2.4375 -2.25,0.7813 -1.7812,1.9687 0.4375,1.9688 -1.0313,1.9687 -1.875,1.0313 -0.031,2.8125 -1.4687,2.4375 -1.6875,2.0312 -0.9375,2.25 -0.1875,2.125 -1.8125,2.0938 -2.6875,4.7187 132.375,-1.375 0.6562,-1.8125 2.1875,-3.1875 0.7813,-2.25 1.3125,-11.0312 0.5937,-3.1563 2.4375,-2.875 4.625,-2 2.9063,-0.8125 5.2187,-3.25 1.6563,-2.2187 0.375,-3.5938 -0.4063,-3.0312 -2.625,-4.4063 -2.2187,-2.25 -3.6875,-2.3125 -3.5313,-3.2187 -4.875,-3.6875 -2.5937,-2.3125 -2.5,-3.8438 2,-3.2812 3.375,1.125 5.25,-0.5938 1.8437,0.3125 7.8438,2.9063 2.9687,-0.3438 1.9375,-0.7187 3.0313,-2.2188 3.4375,0.875 1.9687,-1.3437 -0.1562,-4.5625 -1.8438,-2.5625 -1.8437,0.7188 -4.7813,-2.7188 -2.25,-2.1875 -4.3437,-3.125 -1.5625,-5.25 1.7812,-2.8125 2.0313,-0.625 3.7187,0.1563 4.1875,1.1875 3.0313,0.2187 2.5937,-0.625 2.5313,-2.4062 1.1562,-2.875 0.6875,-3.5313 -0.8437,-2.875 -2.2188,-4 -3.375,-5.0312 -0.5625,-1.7813 0.3438,-3 3.9375,-4.5625 0.75,-2.6875 -0.5938,-3.6562 -2.3437,-2.5938 -1.375,-3.0937 -1.75,-2.0938 -2.3125,-4.9062 -1.8438,-5.5938 0.9063,-2.9687 2.8125,-3.3438 2,-0.8437 2.9375,-0.1563 2.2187,0.75 3.2188,0.5 4.125,2.0625 1.1562,2.125 1.0313,3.0938 0.4375,4.5937 -1.3125,4.1563 -1.9688,2.9687 -0.8437,1.8438 -1.4063,5.4687 1.5,2.9375 1.9063,0.9688 2.4062,0.1562 2.1563,-1.0312 1.9375,-1.875 2.6875,-3.3438 1.8437,-3.0312 1.7813,-4.5 1.25,-6.4375 0.875,-3.8125 3.0312,-6.3438 1.0313,-6.1562 0.8125,-2.6563 2.5625,-4 2,-1.0313 2.3437,-0.6875 2,-0.031 1.75,0.7813 3.0625,3.9375 1.5313,5.0313 2.125,2 4.0312,4.6875 1.7813,1.0937 2.5937,0.031 2.0938,-0.6562 4.3125,-4.1563 1.4375,-2.4062 0.75,-4.625 0.25,-3.5001 1.7187,-2.3437 0.9688,-3.2188 2.0312,-1.8437 2.2188,-1.5625 1.2812,-1.7813 -1.75,-3.0312 -0.4062,-2.9375 -2.5,-2.4688 -3.3438,-4.31245 -0.3437,-2.59375 0.6875,-3.4375 2.7187,-3.71875 2.9688,-1.4375 2.3125,0.96875 4.2812,1.09375 1.875,-0.0312 1.3438,-2.0625 0.3125,-1.4375 -1085.12505,0 z"
     id="rect14"
     inkscape:connector-curvature="0" />
</svg>
