<?xml version="1.0" encoding="UTF-8" standalone="no"?>
<svg
   xmlns:dc="http://purl.org/dc/elements/1.1/"
   xmlns:cc="http://creativecommons.org/ns#"
   xmlns:rdf="http://www.w3.org/1999/02/22-rdf-syntax-ns#"
   xmlns:svg="http://www.w3.org/2000/svg"
   xmlns="http://www.w3.org/2000/svg"
   xmlns:sodipodi="http://sodipodi.sourceforge.net/DTD/sodipodi-0.dtd"
   xmlns:inkscape="http://www.inkscape.org/namespaces/inkscape"
   width="670.125"
   height="1092.75"
   viewBox="0 0 670.125 1092.75"
   id="svg2"
   version="1.1"
   inkscape:version="0.48.1 "
   sodipodi:docname="Aa.svg">
  <metadata
     id="metadata20">
    <rdf:RDF>
      <cc:Work
         rdf:about="">
        <dc:format>image/svg+xml</dc:format>
        <dc:type
           rdf:resource="http://purl.org/dc/dcmitype/StillImage" />
      </cc:Work>
    </rdf:RDF>
  </metadata>
  <defs
     id="defs18">
    <clipPath
       id="clipPath1"
       clipPathUnits="userSpaceOnUse">
      <path
         inkscape:connector-curvature="0"
         id="path9"
         d="M 0,0 603,0 603,960 0,960 0,0 z" />
    </clipPath>
    <clipPath
       id="clipPath1-1"
       clipPathUnits="userSpaceOnUse">
      <path
         inkscape:connector-curvature="0"
         id="path9-7"
         d="M 0,0 603,0 603,960 0,960 0,0 z" />
    </clipPath>
    <clipPath
       id="clipPath1-4"
       clipPathUnits="userSpaceOnUse">
      <path
         inkscape:connector-curvature="0"
         id="path9-0"
         d="M 0,0 603,0 603,960 0,960 0,0 z" />
    </clipPath>
    <clipPath
       id="clipPath6140"
       clipPathUnits="userSpaceOnUse">
      <path
         inkscape:connector-curvature="0"
         id="path6142"
         d="M 0,0 603,0 603,960 0,960 0,0 z" />
    </clipPath>
    <clipPath
       id="clipPath6144"
       clipPathUnits="userSpaceOnUse">
      <path
         inkscape:connector-curvature="0"
         id="path6146"
         d="M 0,0 603,0 603,960 0,960 0,0 z" />
    </clipPath>
    <clipPath
       id="clipPath6148"
       clipPathUnits="userSpaceOnUse">
      <path
         inkscape:connector-curvature="0"
         id="path6150"
         d="M 0,0 603,0 603,960 0,960 0,0 z" />
    </clipPath>
    <clipPath
       id="clipPath6152"
       clipPathUnits="userSpaceOnUse">
      <path
         inkscape:connector-curvature="0"
         id="path6154"
         d="M 0,0 603,0 603,960 0,960 0,0 z" />
    </clipPath>
    <clipPath
       id="clipPath6156"
       clipPathUnits="userSpaceOnUse">
      <path
         inkscape:connector-curvature="0"
         id="path6158"
         d="M 0,0 603,0 603,960 0,960 0,0 z" />
    </clipPath>
  </defs>
  <sodipodi:namedview
     pagecolor="#ffffff"
     bordercolor="#666666"
     borderopacity="1"
     objecttolerance="10"
     gridtolerance="10"
     guidetolerance="10"
     inkscape:pageopacity="0"
     inkscape:pageshadow="2"
     inkscape:window-width="1280"
     inkscape:window-height="1004"
     id="namedview16"
     showgrid="false"
     fit-margin-top="0"
     fit-margin-left="0"
     fit-margin-right="0"
     fit-margin-bottom="0"
     inkscape:zoom="0.27536824"
     inkscape:cx="885.88932"
     inkscape:cy="147.40256"
     inkscape:window-x="-8"
     inkscape:window-y="-8"
     inkscape:window-maximized="1"
     inkscape:current-layer="svg2" />
  <path
	 style="fill:#9FAEC0"
	 stroke="#9FAEC0"
	 stroke-width="10"
	 transform="translate(0, 125)"
     d="m 520.46875,0 -6.5625,0.25 -95.4375,0.21875 -39.4375,-0.34375 -39.0625,0.25 -86.3125,-0.34375 0.9375,2.4375 1.5,1.96875 1.71875,0.84375 1.84375,1.75 4.4375,2.21875 1.15625,1.625 0.625,2.3125 -0.0312,3.78125 -0.34375,1.53125 -0.6875,1.5625 -5.5,3.90625 -5.125,2.84375 -1.3125,1.3125 2.0625,3.4375 -0.28125,1.34375 -1.625,1.46875 -1.96875,-0.53125 -1.71875,-1.375 -1.53125,-1.78125 -2.21875,1.625 -5.21875,1.65625 -6.625,3.1875 -2.0625,-1.1875 -0.65625,-1.375 -0.4375,-3.5625 0.3125,-2.78125 -2.125,-3.4375 -2.375,-1.09375 -2.3125,0.0312 -2.59375,1.75 -0.75,1.375 -0.21875,1.8125 0.59375,2.59375 1.1875,1.5 2.21875,3.6875 1.34375,3.28125 -1.625,2.21875 -0.96875,1.25 -0.78125,2.6875 0.78125,2.78125 2.59375,4.5625 0.9375,2.40625 0,1.875 -1.15625,2.03125 -2.28125,1.3125 -3.5625,0.75 -2.40625,-0.0937 -3.5,-1.75 -0.78125,-1.625 0.65625,-3.71875 2.90625,-2.0625 0.84375,-1.5 -0.5,-2.03125 -2.09375,-4.875 -1.53125,-0.125 -3.65625,1.96875 -1.0625,3.25 0.3125,1.3125 1.625,3.71875 -0.4375,2.78125 -1.90625,0.625 -2.53125,0.75 -0.8125,1.8125 0.40625,2.1875 3.6875,4.28125 1.34375,0.75 3.1875,0.5 5.4375,-1 3.03125,-0.0312 1.59375,0.875 1.15625,2.1875 -0.65625,3 -2.59375,3.28125 -2.78125,2.25 -2.5625,3 -2.15625,1.53125 -1.5625,0.46875 -1.75,0.0312 -2.46875,-1.53125 -0.9375,-2.65625 0.9375,-3.90625 2.34375,-2.59375 -0.46875,-2.375 -1.81255,-2.28125 -1.375,-0.53125 -1.90625,0.96875 -2.15625,2.1875 -1.8125,2.9375 0.375,4.34375 0.625,2.0625 -0.96875,3.625 0.1875,2.46875 1.03125,2.59375 2.1875,3.8125 3.125,3.3125 1.4375,2.15625 0.96875,3.4375 -0.9375,2.34375 -1.8125,1.53125 -2.625,1.375 L 202.625,109 l -1.21875,3.28125 -0.46875,2.03125 -0.125,2.5 1.125,4.8125 1.96875,1.78125 1,2.03125 0.40625,1.5 -0.125,1.3125 -0.875,2.09375 -1.8125,2.21875 -7.125,4.9375 -3.09375,0.53125 -3.84375,3.28125 -2.15625,3.625 -0.0312,1.65625 1.78125,5.96875 -0.75,1.53125 -1.5,0.5625 -1.625,0 -1.5,-0.625 -1.34375,-1.5625 -0.0937,-1.59375 0.375,-2.03125 1.875,-3.21875 0.9375,-4.21875 -6.65625,1.75 -2.4375,0.0312 -3.15625,-0.8125 -2.75,0 -1.46875,0.875 -0.75,1.6875 0.1875,2.40625 2.65625,2.71875 1.34375,1.46875 0.96875,3 -0.0937,1.8125 -2.15625,3.6875 -2.375,1.96875 -1.3125,0.125 -5.78125,-0.5625 -1.3125,0.59375 -2.28125,0.53125 -1.46875,1.15625 -0.59375,1.5 -1.125,5.375 -0.25,1.875 0.0312,2.40625 -1.46875,3.75 -1.6875,-1.125 -1.9375,-0.125 -2.28125,-0.75 -3.9375,-3.21875 -0.8125,-2.5625 -1.53125,-1.125 -3.21875,0.40625 -1.40625,2 -0.0312,1.625 0.375,2.0625 0.71875,1.34375 3.25,3.96875 0.84375,0.53125 512.65625,0 0.4375,-2.625 0.1875,-3.65625 3.5,-32.5625 -0.65625,-1.4375 1.09375,-2.4375 2.6875,-26.78125 3.0625,-26.4375 3.1875,-24.34375 3.46875,-38.4375 -6.03125,-2.46875 -1.3125,-0.90625 -2.53125,-2.4375 -1.71875,-2.78125 -0.59375,-2.03125 -1.5,-3.59375 -2.5625,-3.75 -1.15625,-1.84375 -1.46875,-3.1875 -122.71875,0.125 -8.0625,-0.1875 z M 585,1043.1875 l 0.75,1.5625 -0.75,-1.5625 z"
     id="rect4"
     inkscape:connector-curvature="0" />
  <path
	 style="fill:#9FAEC0"
	 stroke="#9FAEC0"
	 stroke-width="10"
	 transform="translate(0, 100)"
     d="m 140.5,181.78125 4.09375,2.53125 1.96875,-0.8125 1.46875,0.59375 2.65625,-0.875 3.28125,0.6875 1.84375,-0.21875 2.21875,0.40625 1.5,1.59375 0.28125,2.34375 -0.28125,1.40625 -1.375,2.15625 -1.84375,1.78125 -1.9375,0.9375 -2.09375,0.21875 L 149,193.6875 l -3.5,-2.46875 -2.125,-2.125 -1.4375,-0.78125 -1.5,-0.25 -8.34375,6.09375 -0.8125,3.03125 0.625,1.4375 2.28125,2.625 4.65625,3.21875 3.25,-0.375 1.4375,-0.71875 3.1875,1.125 1.15625,2.8125 -0.75,1.90625 -1.4375,1.84375 -1.09375,1.9375 -0.21875,2.03125 -0.25,4.09375 -1.71875,1.03125 -2.375,0.40625 -2.1875,-0.28125 -2.09375,0.875 -1.46875,0.28125 -1.4375,0.0625 -1.5625,-0.5625 -2.3125,-0.3125 -3.21875,0.59375 1.5,4.84375 1.6875,1.28125 1.84375,3.59375 -0.28125,1.3125 -0.9375,1.59375 -1.34375,0.5625 -1.625,0.15625 -2.8125,-1.09375 -1.03125,-2.25 -2.84375,-6.40625 -2.8125,1.78125 -2.75,2.3125 -3.40625,0.0625 -1.6875,0.28125 -2.34375,1.875 -0.375,1.25 0.40625,2.375 1.71875,1.1875 6,1.5 2.03125,0.84375 3,1.5 1.75,2.625 -2.9375,3.96875 -5.46875,5.65625 -3.28125,4.65625 0.0312,1.6875 0.96875,3.28125 2.03125,2.625 1.84375,3.0625 4.09375,2.125 3.28125,0.78125 1.5,0.78125 1.53125,1.46875 0.59375,1.8125 -0.5,1.78125 -1.6875,1.71875 -2.375,1 -2.65625,0.25 -5.09375,-3.40625 -5.96875,0.5 -4.09375,1.3125 L 101.7812,276 l -1.59375,-1.125 -1.625,-0.28125 L 97.0937,276 l -0.9375,2.96875 0.625,1.84375 -0.3125,1.96875 -0.625,2.4375 0.0312,1.3125 0.75,1.5 3.1875,3.4375 1.53125,0.8125 1.84375,0.125 2.03125,-0.21875 1.625,-0.5 2.40625,-1.46875 1.34375,-0.46875 1.59375,0.375 2.46875,1.90625 1.4375,2.21875 1.625,2 0.0312,1.375 -1.84375,2.625 -3.59375,0.84375 -3.65625,1.8125 -1.53125,0.25 -1.375,-0.25 -1.3125,-0.5 -5.875,-3.4375 -6.375,-6.65625 -1.84375,0.4375 -4.71875,0.375 -1.34375,0.3125 -2.40625,1.625 -1.375,2.25 -0.21875,1.25 0.15625,1.40625 1.34375,1.875 1.84375,1.03125 5.4375,1.28125 2.125,1.15625 6.03125,5 0.90625,1.375 0.75,3.0625 -0.6875,2.625 -3.40625,2.65625 -1.625,0.3125 -3.28125,-0.28125 -3.78125,2.375 -5.6875,1.6875 -0.78125,2.125 0.28125,1.3125 1.78125,3.28125 2.125,2.125 5.0625,4.65625 0.0312,1.5625 -2.3125,2.1875 -2.4375,4.5 -1.3125,0.875 -1.46875,0.4375 -1.59375,1.28125 -0.71875,4.03125 3.4375,1.0625 1.96875,0.1875 3.75,-1.09375 1.8125,-1.125 1.1875,-2.65625 -0.125,-1.59375 -0.75,-2.125 -0.3125,-2.3125 0.15625,-1.46875 2.25,-2.125 5.4375,3.875 2,1.78125 1.25,5.375 -0.5,1.25 -1.40625,1.65625 -0.625,1.40625 -2.4375,0.53125 -1.65625,0.5 -4.25,1.9375 -1.5625,-0.59375 -1.40625,0.4375 -2.5,0.78125 -0.71875,1.53125 0.46875,1.65625 2.90625,2.375 0.5625,0.3125 12.59375,0 0.125,-0.0625 2.625,-2.46875 1.84375,-2.625 0.375,-1.71875 -0.0937,-1.65625 -0.375,-1.3125 0.59375,-2.46875 1.46875,-2.03125 1.625,-0.90625 1.9375,0.125 1.875,2.21875 -0.0937,3.75 -0.78125,1.6875 -1.09375,1.65625 -1.34375,1.8125 -3.375,2.6875 -1.3125,1.3125 529.28125,0 9.28125,-92.25 0.8125,-5.625 5.28125,-47.28125 3.78125,-36.40625 0.125,-0.71875 -512.65625,0 z m 444.5,861.40625 0.75,1.5625 -0.75,-1.5625 z"
     id="rect6"
     inkscape:connector-curvature="0" />
  <path
	 style="fill:#9FAEC0"
	 stroke="#9FAEC0"
	 stroke-width="10"
	 transform="translate(0, 75)"
     d="m 88,364.0625 3.0625,1.65625 3.90625,0.53125 1.59375,-0.28125 4.03125,-1.90625 -12.59375,0 z m 16.59375,0 -0.3125,0.3125 -3.5,5.21875 -4.03125,3.125 0.15625,3.0625 -0.53125,1.84375 0.4375,3.03125 0.25,4.15625 1.375,1.71875 1.375,2 0,1.25 -0.5,1.40625 1.875,1.46875 1.4375,3.65625 2.5625,0.96875 0.40625,-2 0.8125,-1.4375 1.125,-4.625 1.125,-1.375 2.15625,-0.875 3.5625,0.96875 0.875,2.125 -0.1875,1.34375 -1.15625,3.8125 -1.1875,1.6875 -1.625,2.3125 -0.96875,1.3125 -1.9375,1.09375 -2,0.375 1.375,9.03125 -0.21875,5.6875 -0.375,2.40625 -0.6875,1.5625 -2.46875,1.5 -1.84375,0.40625 L 98.65625,422.75 94.625,421.40625 93,419.875 l -1.46875,-0.1875 -2.6875,0.21875 -1.78125,1.125 -1.625,2.625 0.28125,4.125 3.65625,1.9375 1.75,2.375 2.0625,0.53125 2.03125,0.875 5.40625,5.09375 -0.375,1.9375 -0.5625,2.125 -0.5625,1.75 -1.5625,1.09375 -2.3125,0.53125 -2.40625,1.5 -0.8125,2.28125 0.125,1.46875 -0.53125,2.5 -1.125,1.71875 -2.28125,1.875 -2.78125,4.46875 -0.0937,1.53125 -2,3.09375 0,3.15625 0.875,1.53125 2.15625,1.9375 2.84375,1.21875 2.15625,0.46875 1.9375,-0.125 2.8125,-1.25 2.0625,-2.78125 0.53125,-2.78125 -1,-6.1875 0.9375,-1.78125 -1.3125,-1.40625 0.5625,-1.875 1.96875,-1.125 3.5,-0.96875 1.8125,0.5625 1.90625,2.3125 1.21875,3.03125 0.25,1.75 -0.65625,1.4375 0.40625,1.25 1.84375,1.625 1.25,2.71875 -0.15625,1.71875 0.0625,3.5 -1.15625,2.8125 -3.03125,3.4375 -3.5625,3.40625 -1.96875,0.625 -2.25,0.125 -1.875,1.375 -1.34375,1.40625 -2.5,4.65625 -0.625,2.21875 0.125,2.46875 -0.65625,3.5625 1.6875,1.34375 -1.6875,3.71875 -0.25,2.28125 1.34375,2.25 1.59375,0.375 4.8125,-0.3125 2.0625,0.71875 4.34375,0.875 6.34375,2.40625 0.4375,1.4375 -0.4375,1.5 -2.21875,3.09375 -2.34375,1.75 -3.3125,1.3125 -3.6875,2.5625 -1.78125,1.96875 -0.59375,1.46875 -1.25,1.875 -1.28125,0.59375 -1.5625,1.625 -0.21875,1.25 0.25,3.375 0.625,2.25 1.21875,2.625 1.40625,1.625 1.375,1.15625 1.53125,0.40625 0.78125,-1.40625 1.59375,0.15625 5.21875,-2.34375 5.59375,-1.5 0.1875,-1.4375 1.5,-2.84375 0.15625,-1.6875 1.5625,-1.53125 1.125,-1.40625 1.90625,1.125 1.6875,2.34375 0.71875,1.96875 -0.125,2.34375 -0.875,1.8125 -1.03125,1.3125 -2.09375,1.6875 -1.40625,1.71875 498.40625,0 2.8125,-29.09375 0.96875,-8.40625 2.625,-28.5625 5.25,-53.15625 0.34375,-5.3125 0.40625,-2.0625 1.875,-17.78125 3.8125,-37.90625 -529.28125,0 z M 585,1043.1875 l 0.75,1.5625 -0.75,-1.5625 z"
     id="rect8"
     inkscape:connector-curvature="0" />
  <path
	 style="fill:#9FAEC0"
	 stroke="#9FAEC0"
	 stroke-width="10"
	 transform="translate(0, 50)"
     d="m 117.375,546.34375 -0.71875,0.875 -2.5,1.34375 -5.84375,3.875 0.9375,2.21875 3.34375,2.90625 7.375,2.90625 4.46875,2.8125 1.4375,2.9375 -0.53125,1.59375 -1.96875,1.4375 -3.84375,-0.53125 -3.25,-1.3125 -2.40625,-2.21875 -4.53125,-7.53125 -4.34375,-2.5625 0,1.71875 -0.625,2.625 -3.03125,6.90625 0.25,2.6875 1.375,2.53125 2.875,3.3125 3.375,2.25 4.5625,2.1875 4.375,0.90625 4.59375,-2.84375 1.5625,-1.03125 2.90625,0.6875 1.96875,1.90625 0.59375,1.25 -0.375,3.84375 -1.28125,1.375 -3.53125,1.59375 -0.125,2.625 -1.28125,2.90625 -0.5625,3.3125 2.03125,2.4375 1.3125,0.53125 6.0625,1.3125 2.1875,0 2.28125,0.375 3.46875,1.09375 2.875,-3.5625 1.125,-3.96875 2.9375,0.21875 L 145,599 l -2.8125,4.625 -0.40625,2.5625 -1.6875,2.53125 -1.96875,2.09375 -2.21875,1.90625 -3.59375,1.40625 -0.8125,-1.3125 -1.28125,-1.59375 -2.875,0.71875 -0.875,3.125 0.84375,3.3125 1.90625,2.90625 -2.03125,2 -0.53125,2.78125 -0.0625,4.4375 -3.0625,4.6875 -0.6875,-1.59375 -0.3125,-3.34375 0.375,-2.3125 -1.25,-0.6875 -2.25,-2.28125 -3.28125,-1.40625 -2.15625,1 -0.53125,2.28125 -1.5625,2.09375 -2.5625,-1.90625 -1.625,0.15625 -1.59375,0.5625 -1.5625,1.375 -1.53125,2.1875 -1.65625,0.34375 -1.75,-1.3125 -1.3125,-0.21875 -5.75,3.75 -1.3125,4.59375 -0.65625,4.90625 0.53125,2.40625 1.6875,2.625 3.46875,0.53125 2.4375,0.9375 3.84375,0.34375 1.875,-1.46875 1.78125,-0.5625 1.875,-0.0625 2.375,0.5625 1.4375,1.03125 1.5,0.5625 0.4375,-4.46875 0.5,-1.34375 -0.21875,-1.65625 -1.125,-1.4375 -0.59375,-1.6875 0.0937,-2.21875 3.125,1.46875 3.15625,2.71875 1.59375,0.375 2.5625,-0.28125 -0.21875,3.625 -0.59375,1.71875 -2.40625,3.375 -2.0625,0.6875 0.0937,2.8125 -0.90625,1.75 -8.75,5.59375 0.15625,6.3125 -4.3125,-0.5625 -2,-1.8125 -2.6875,-4.125 -1.34375,-0.9375 -2.46875,0.125 -2.40625,2.8125 0.4375,2.5625 1.03125,1.3125 1.65625,0.90625 10.09375,2.375 1.34375,1.0625 0.5625,1.3125 1.03125,2 -3.8125,4.96875 -1.25,0.875 -2.75,0.875 -8.875,1.03125 -2.25,1.875 -1.59375,1.96875 -0.75,1.40625 -0.125,2.9375 -0.3125,2.78125 1.375,0.125 -0.21875,2.21875 0.5,1.8125 -2.25,1.46875 -1.625,0.3125 -1.125,1.6875 -3.40625,3.46875 -1.5,1.875 -2.5,1.59375 -3.125,1 -0.8125,1.53125 0.28125,1.4375 1.90625,2.3125 2.34375,2.25 -0.3125,1.96875 -1.4375,2.21875 -1.46875,0.96875 -1.34375,0.0625 -2.65625,-1.5 -1.15625,-2.9375 -0.125,-2.5625 0.15625,-1.5625 -0.90625,-3.0625 -2.6875,0.9375 -3.25,0.25 -2.40625,0.90625 -1.3125,1.65625 -2.875,10.90625 -0.59375,2.96875 -0.0625,0.9375 545.875,0 -0.96875,-26.125 13.09375,-125.6875 2.9375,-30.46875 -498.40625,0 z M 585,1043.1875 l 0.75,1.5625 -0.75,-1.5625 z"
     id="rect10"
     inkscape:connector-curvature="0" />
  <path
	 style="fill:#9FAEC0"
	 stroke="#9FAEC0"
	 stroke-width="10"
	 transform="translate(0, 25)"
     d="m 54.84375,728.625 -0.3125,4 1.875,0.625 1.90625,-0.0937 3.15625,-0.53125 2.0625,-0.71875 2.5625,-0.4375 4.375,-1.4375 2.03125,0.34375 1.46875,0.9375 0.5625,1.46875 -1.46875,2.1875 -1.84375,1.25 -3.40625,-0.0625 -2.1875,-0.78125 -2.65625,-0.3125 -5.84375,0.0312 -3.28125,0.6875 -5.375,8.5 -0.40625,2.59375 -0.03125,2.40625 0.84375,9.75 -0.5,4.0625 -0.5,1.34375 -3.78125,2 -2.84375,-0.21875 -5.21875,-1.78125 -1.96875,-1.125 -1.5,-1.3125 -3.21875,-3.0625 -1.5,1.25 -1.53125,1.96875 -0.46875,2.28125 0.25,1.9375 2.59375,3.625 1.875,1.40625 1.8125,0.875 3.1875,-0.0937 2.0625,-0.46875 4.28125,-1.78125 3.71875,0.15625 1.6875,1.28125 -0.28125,3 -0.46875,1.59375 -1.3125,1.65625 -4.28125,3.625 -1.875,1.21875 -6.0625,2.34375 -1.875,-0.875 -2.75,0.21875 -2.1875,0.5625 -1.3125,3 1.5,1.6875 -0.4375,2.65625 -0.1875,3.375 0.21875,5.1875 0.375,2.5625 2.875,6.59375 3.71875,3.59375 1.5,1.625 -0.09375,2.78125 0,3.09375 -1.1875,1.40625 -4.875,0 -3.21875,-2.3125 -0.96875,-1.3125 -1,-2.125 -1.34375,-6.25 0.4375,-1.40625 -0.65625,-1.5 -1.5,-0.4375 -4.0625,3 -1.15625,2.03125 -0.40625,2.59375 0.84375,1.84375 0.9375,3 1.1875,-1.28125 1.3125,-0.71875 1.8125,0.96875 -0.71875,1.3125 -0.21875,2.875 0.34375,2.0625 0.03125,1.34375 1.3125,1.625 1.34375,0.78125 0.625,1.40625 2.46875,1.90625 1.875,1.875 0.125,1.375 -0.1875,3.9375 -1.8125,3.71875 -3.625,1.78125 -3.03125,0.96875 -1.9375,0.3125 -1.96875,0.0937 -2.46875,-0.28125 -6.34375,-1.1875 -3.75,0.1875 -1.40625,1.0625 -1,1.46875 L 0,848.2812 l 0.5625,1.6875 1.4375,1.875 3.625,1.875 4.4375,3.96875 1.25,1.5 1.125,2.9375 0,2.34375 -1.53125,3.4375 -1.34375,2.03125 -4.03125,5.8125 -0.0625,2.6875 2.5,3.09375 3.40625,2.6875 5.75,5.5625 0.53125,1.34375 0.25,1.53125 -0.25,1.78125 -0.59375,1.65625 -1.375,2.09375 -1.25,1.28125 -2.28125,1.53125 -6.53125,2.71875 -2.21875,1.34375 25.78125,0.1563 197.59375,-0.1875 119.90625,-0.59375 12.3125,0.625 2.8125,-0.90625 1.40625,0.5625 -1.28125,1 1.34375,0.71875 -0.53125,1.53125 -1.03125,2.75 0.125,0.1875 247.15625,0 -2.75,-63.1875 -4.90625,-102.5625 -0.625,-16.53125 -545.875,0 z M 585,1043.1875 l 0.75,1.5625 -0.75,-1.5625 z"
     id="rect12"
     inkscape:connector-curvature="0" />
  <path
	 style="fill:#9FAEC0"
	 stroke="#9FAEC0"
	 stroke-width="10"
     d="M 361.84375,910.90625 363,912.5625 l -1.96875,1.03125 -0.6875,1.375 -1.46875,0.9375 -0.875,2.71875 1.3125,1.28125 -0.75,1.90625 1.5,1.46875 -1,1.34375 -1.75,-0.5 -0.78125,1.6875 1.3125,1.5 -1.34375,1 -1.34375,-0.625 -0.1875,1.625 0.4375,2.53125 -1.4375,0 -0.15625,1.75 1.9375,1.78125 -0.90625,1.34375 -0.40625,1.4375 -1.625,-0.625 -0.46875,1.59375 -1.25,-0.3125 0.9375,1.40625 -0.5,1.40625 -0.125,1.40625 1.46875,0.59375 0.28125,2.3125 -1.9375,-0.34375 -1.5625,0.3125 0.53125,1.65625 -1.40625,2.09375 -2.09375,-0.1875 2.3125,2.75 -1.53125,0.8125 -0.21875,-1.375 -1.625,0.5625 0.25,1.96875 -1.875,0.25 0.5,1.78125 -1.46875,0.53125 0.46875,1.40625 1.34375,1.46875 -0.71875,1.625 1.3125,-0.75 -0.625,1.65625 -0.125,2.25 1.34375,0.0937 -1.53125,0.15625 -1.6875,0.65625 1.34375,0.625 -1.34375,0.75 1.75,-0.34375 -0.78125,1.40625 0.0312,1.59375 -2.15625,-1.09375 0.15625,2.5 -0.375,1.53125 1.46875,0.78125 -0.1875,1.9375 -1.5,0.8125 1.40625,-0.1875 -0.90625,2.5625 -0.5625,1.75 1.375,-0.71875 -0.875,1.34375 -1.34375,1.25 1.65625,-0.0937 0.0312,1.96875 1.40625,-1.21875 0.53125,1.53125 1.84375,1.375 -0.4375,1.28125 1.65625,0.59375 -1.15625,1.65625 -1.71875,2.8125 1.34375,0.34375 0.1875,1.84375 1.25,0.21875 -1.5,0.1875 1.625,1.5 -0.4375,1.59375 1.75,1.03125 -1.625,0.34375 1.15625,1.68745 0.28125,2.375 2.34375,0.5313 1.65625,-0.875 -0.90625,1.4687 -1.90625,-0.25 -0.25,1.3125 1.625,0.3125 0.40625,1.875 -1.40625,0.2813 1.90625,0.5312 2.34375,1.1875 0.4375,1.5 0.59375,1.4688 -0.25,1.25 0.96875,1.7187 1.96875,-1.2187 -0.625,1.5 1.5,0.9687 -0.0625,1.7188 1.875,0.2812 -0.3125,1.4688 2.125,-0.094 1.6875,0.1875 1.03125,2.0312 1.75,1.0938 0.75,1.2813 0.84375,1.625 2.15625,1.375 -0.0312,1.375 1.28125,0.375 0.125,1.375 -0.4375,1.375 0.875,1.375 -0.15625,1.9375 0.6875,1.5312 -1.3125,1.3125 0.125,1.4063 0.84375,1.3437 1.0625,1.625 0.6875,2.4375 1.25,1.2813 0.875,1.5625 -0.125,1.7812 1.28125,1.25 1.25,0.9375 0.90625,1.3438 1.3125,0.7187 0.6875,1.3125 -0.40625,2.0938 -0.21875,1.5 1.46875,1.5937 -1.5,1.3438 -1.4375,1.0312 0.25,1.875 -1,1.625 1.53125,0.7188 1.34375,1.9062 -0.34375,1.8438 1.3125,1.1562 -1.28125,0.75 1,1.875 2.40625,1.5938 -0.53125,3.875 1.1875,2.1562 2.5625,1.3125 1.53125,2.7188 0.71875,2.0625 1.125,1.4375 2.25,0.9062 1.9375,-0.875 1.875,-1.9062 2.28125,-0.5 1.28125,1.5 0.53125,1.4062 1.15625,-0.75 3.375,0.7813 2.625,0.1562 1.71875,-1.625 3.34375,-0.094 -0.4375,2.6875 0.625,1.5625 2.03125,-2.0937 1.75,-1.0625 -0.5625,-2.6563 2,-3.5937 0.96875,-1.875 2.0625,-1.8125 -0.84375,-3.1875 0.6875,-1.7188 4.6875,-3.0625 1.6875,-0.125 3.1875,-3.375 5.8125,-3.8125 2.40625,-2.4062 0.5,-1.8125 -0.375,-1.4375 -1.8125,-1.9063 -1.09375,-2 -1.46875,-0.6562 -3.125,2.3437 -3.21875,0.4688 -4.5,-1.5 -2.15625,1.0625 -0.1875,-1.4375 1.75,-1.1875 0.875,-3.7813 -0.78125,-1.625 0.4375,-5.4375 1.75,2.6875 -0.21875,3.7813 -0.1875,2.3437 0.3125,2.4375 3.375,1.5625 2.90625,-0.7187 -2.1875,-0.3438 3.375,-5.5 8.28125,-2.875 0.875,2 -0.8125,1.5313 2.78125,-0.7813 3.40625,0.9063 -2.21875,1.0312 2,2.1875 2.9375,0.6563 1.9375,-0.3125 0.625,1.3437 -3.84375,0.3125 -1.8125,1.3438 -0.125,1.375 -1.75,-1.3438 -0.5,5.4375 2.875,1 2.46875,-1.1562 4.4375,-1.375 4.9375,-1.5 6.53125,-2.8438 7.5625,-2.5 3.125,-1.6562 3.53125,-1.3125 1.5,-0.5625 0.875,2.125 1.75,-0.3125 -0.125,-2.3438 2.71875,-1.5 4.75,-1.7812 2,-0.2188 3.34375,-1.0312 2.75,0.125 1.625,-0.4063 2.25,-0.5625 8.34375,-1.1875 11.34375,-0.1562 1.34375,0.4375 1.625,-0.031 0.34375,-1.75 -1.5937,-1.9688 -1.53125,0.5 -1.21875,-1.375 -1.40625,0.375 -2.15625,-1.2188 -1.5625,0.6875 -5.0625,0.031 -1.71875,-0.4375 -1.53125,0.5 -1.59375,-0.2187 -2.84375,0.4687 -1.34375,-0.1875 -3.15625,-0.094 -1.46875,0.8125 -2.25,0.5 2.1875,-1.4687 0.53125,-1.9688 2.4375,0.7813 0.0312,-2.1563 -1.75,0.4063 -1.8125,-1.375 0.0625,-1.3125 1.875,1.25 1.625,-1.75 2,-0.4688 1.96875,-0.75 2.25,-2.125 2.03125,0.875 -2.15625,0.5313 -2.1875,2.0312 -1.5625,0.375 -1.125,1.5313 1.15625,2.5937 1.59375,-0.75 2.21875,-0.2187 1.84375,0.5 2.84375,-0.1563 0.8125,-1.3125 2.09375,1.0313 1.5625,-0.9688 2.875,0.625 1.6875,0.7813 2.5,-0.4688 0.21875,-1.3437 1.90625,0.7187 1.84375,-0.8125 1.34375,0.1563 2.34375,1.3437 -1.28125,1 -2.21875,-1.25 1.3125,2.1875 0.5,1.25 2.09375,1.3438 2.375,0.9687 2.46875,1.6875 1.9375,-0.125 1.28125,1.375 2.125,0.2188 -0.53125,2.2187 -2.625,-1.8437 -1.78125,0.125 -1.34375,-0.125 3.34375,2.2812 2.71875,1.5938 7.1875,5.1562 3.03125,0.2813 1.625,0.5937 1.71875,-0.2187 2.90625,-1.2813 1.78125,-2.0312 3.34375,-1.125 1.3125,0.5 2,-0.3125 3.78125,-1.625 2.09375,-1.375 1.3125,-2.75 -0.125,-1.7813 1.25,-1.2187 -0.40625,3.8437 1.09375,2.0938 0.0312,1.5 1.59375,-0.5625 0.8125,1.4375 -0.21875,1.3125 -0.0312,1.5625 2.03125,0.25 1.34375,0.4062 2.5,-0.3437 2.75,1.0312 2.15625,0.4375 1.78125,0.875 1.34375,-1 0.8125,-1.3437 0.3125,-2.1875 0.53125,1.9375 -0.78125,1.6562 1.40625,-0.2187 -1.28125,2 -0.0312,1.5 2.65625,1.6562 1.6875,0.4688 2,-0.094 2.8125,-1.9687 1.46875,-0.5313 1.375,-1.5312 0.21875,-2.0625 -1.03125,-1.4375 -0.46875,-1.5625 -1.6875,0.4687 -0.3125,2.0625 -1.25,-1.5312 -0.375,-1.7813 0.34375,-2 0.625,2.125 2.0625,-1.3437 2.28125,0.625 -0.0937,1.7187 2.25,-0.094 1.96875,0.9375 -0.75,-1.8438 1.625,-0.4375 2.09375,-0.8125 0.5625,1.3438 0.34375,1.5312 -0.3125,2.0625 1.0625,-0.5625 -0.21875,-5.0937 -1.59375,-1.4375 -0.3125,-1.2813 1.75,-0.3437 -1.4375,-34.0313 0.15625,-2.0938 -0.5,-3.2187 0.21875,-1.25 -0.15625,-1.625 -0.4375,-10.625 0.0625,-3.78125 -0.21875,-1.59375 -1.96875,-51.90625 -1.0625,-24.25 -247.15625,0 z m 163.3125,134.00005 -1.96875,0.125 7.09375,2.9375 2.5,1.9375 1.625,0.8125 -3,-3.5625 -1.90625,-0.2813 -1.71875,-1.125 -2.625,-0.8437 z m 52.25,19 0.46875,1.2812 0.625,1.3125 1.71875,-1.125 -1.53125,-0.9687 -1.28125,-0.5 z m -22.8125,10.5937 -3.375,1.6563 -2.78125,0.1875 -2.0625,0.2187 1.46875,1.3125 1.84375,0.1563 4.5,-0.1563 1.4375,-0.3437 2.09375,0.2187 4,2 2.625,0.625 2.28125,0.062 1.4375,0.5 4.65625,0 1.78125,0.5625 1.375,1.25 6.15625,0.2813 2.5,-0.1875 3.0625,-0.9688 -5.28125,-0.75 -4.21875,-0.1875 -3.1875,-0.9687 -1.6875,0 -1.4375,-0.5313 -2.1875,0.094 -2.625,-1 -2.21875,-0.375 -3.0625,-1.6875 -4.5625,-0.6562 -2.53125,-1.3125 z m -65.09375,1.3438 -3.21875,4.25 -1.625,-1.5313 -2.6875,0.5625 -9.03125,-0.1562 0.46875,1.4687 6.5625,1 3.5,-0.6562 1.59375,0.125 -1.0625,1.2812 -2.875,-0.062 -0.59375,1.2813 3.71875,-0.4688 -2.34375,5.6563 0.46875,0.4687 4.875,-7.75 2.25,-5.4687 z m 33.46875,1.2812 -0.8125,1.9063 -2.53125,1.4375 3.34375,-0.3438 1.4375,-1.9687 -1.4375,-1.0313 z m -15.34375,6.2188 -3.15625,0.7187 4.03125,0.6875 3.75,-1.25 -2.21875,0.031 -2.40625,-0.1875 z m 4.625,0.1562 1.84375,0 -1.53125,-0.094 -0.3125,0.094 z m 83.59375,-0.062 -1.03125,0.8438 2.625,1.5937 1.28125,0.1563 1.9375,0.2812 1.625,1.0625 2.875,0.3438 5,-0.5 5.09375,-1.0938 -2,-0.9062 -1.375,-1.125 -2.5625,0.1875 -4.21875,1.6875 -1.28125,0.094 -5.28125,-1.375 -2.6875,-1.25 z"
     id="rect14"
     inkscape:connector-curvature="0" />
</svg>
