<?xml version="1.0" encoding="UTF-8" standalone="no"?>
<svg
   xmlns:dc="http://purl.org/dc/elements/1.1/"
   xmlns:cc="http://creativecommons.org/ns#"
   xmlns:rdf="http://www.w3.org/1999/02/22-rdf-syntax-ns#"
   xmlns:svg="http://www.w3.org/2000/svg"
   xmlns="http://www.w3.org/2000/svg"
   xmlns:sodipodi="http://sodipodi.sourceforge.net/DTD/sodipodi-0.dtd"
   xmlns:inkscape="http://www.inkscape.org/namespaces/inkscape"
   width="9193.4688"
   height="5303.1875"
   viewBox="0 0 9193.4688 5303.1875"
   id="svg2"
   version="1.1"
   inkscape:version="0.48.1 "
   sodipodi:docname="Aa.svg">
  <metadata
     id="metadata20">
    <rdf:RDF>
      <cc:Work
         rdf:about="">
        <dc:format>image/svg+xml</dc:format>
        <dc:type
           rdf:resource="http://purl.org/dc/dcmitype/StillImage" />
      </cc:Work>
    </rdf:RDF>
  </metadata>
  <defs
     id="defs18" />
  <sodipodi:namedview
     pagecolor="#ffffff"
     bordercolor="#666666"
     borderopacity="1"
     objecttolerance="10"
     gridtolerance="10"
     guidetolerance="10"
     inkscape:pageopacity="0"
     inkscape:pageshadow="2"
     inkscape:window-width="1280"
     inkscape:window-height="1004"
     id="namedview16"
     showgrid="false"
     fit-margin-top="0"
     fit-margin-left="0"
     fit-margin-right="0"
     fit-margin-bottom="0"
     inkscape:zoom="0.037317157"
     inkscape:cx="5611.3755"
     inkscape:cy="-947.07816"
     inkscape:window-x="-8"
     inkscape:window-y="-8"
     inkscape:window-maximized="1"
     inkscape:current-layer="svg2" />
  <path
	 style="fill:#9FAEC0"
	 stroke="#9FAEC0"
	 stroke-width="10"
	 transform="translate(0, 125)"
     d="m 91.813,0 -10.5,125.1875 -1.407,24 -8.593,103.2188 -2.719,33.7812 -1.188,14.4062 -5.218,63.5 -2.5,31.3126 -3,36.2812 -10.594,121.4062 -15.5,200.5 -2.688,32.8126 -6.718,85 -1,12.4374 8909.8122,0 -12.4374,-163.3437 -1.6876,-22.0937 -19,-248.2188 -31.3124,-408 L 8170.6565,89 l -39.5937,2.0937 -691.9063,36.5938 -77.2813,3.5 -364.3124,14.8125 -143.5938,6.4063 -32.0938,0.9062 -48.2187,1.875 -33.0937,1.5 -16,1 -16.5938,0.4062 -32.0938,0.9063 -50.2187,1.4063 -44.6875,1.4062 -50.1875,1.375 -33.125,0.9062 -31.0937,1.4063 -64.1876,1.8125 -78.3124,2.2812 -16.5938,0.4063 -79.8125,2.3125 -33.0937,0.7812 -18.5938,0.5 -128.5,3.5 -15.5,0.4063 -16.5938,0.4063 -37.0937,1.4062 -15.625,0.375 -64.1875,0.7188 -16.0938,0.4062 -32.0937,0.375 -46.7187,0.7188 -33.5938,0.9062 -15.5938,-0.125 -98.8124,2 -161.0938,2 -224.9062,3.625 -24,0.2812 -70.2813,0 -31.625,0.3126 -47.6875,0.094 -16.0938,-0.094 -32.0937,0.2812 -32.625,0.2188 -32.0937,-0.2188 -96.4063,0.2188 -122.375,0.5 -249.9063,0.2812 -45.2187,-0.5 -14,-0.094 -481.7813,-5 -192.0937,-2.1874 -195.2187,-4.4063 -534.9063,-12.5 -139.875,-5.0937 -129.4063,-4.4063 -463.5,-16.9063 -448.8124,-22.2812 -17.5,-1.4062 -32.0938,-1.5 -230.6875,-11.8126 -51.125,-3 -229.5937,-14.5937 -59.6876,-3.1875 -7.5,-0.625 -182.9062,-11.2812 -40.0938,-2.8126 -159.4062,-9.9062 -28.594,-2.0938 -95.219,-7.0937 -8.5,-0.6875 -15.093,-1.3125 -561.094,-43 -58.656,-4.5 z"
     id="rect4"
     inkscape:connector-curvature="0" />
  <path
	 style="fill:#9FAEC0"
	 stroke="#9FAEC0"
	 stroke-width="10"
	 transform="translate(0, 100)"
     d="m 20.188,883.8437 -4.594,56.75 -2.688,33.2188 -2.406,32.2812 -0.594,8.0938 -2,25.125 -2.218,28.2812 -5.594,71.2188 -0.09,1.6875 1.313,1.9063 1.093,1.0937 1.594,1.0937 6.313,3.0938 4.281,0.9062 3,2.3126 0.719,0.5937 0.375,0.8125 2.406,4.375 4.094,7.5 1.312,5.625 0.5,1.2813 2.094,6.3125 1.812,5.2812 0.5,1.5 1.282,3.8125 2.125,6.0938 2.281,3.5937 2.719,4.3125 2,3.0938 1.375,1.7187 1.125,0.6875 2.687,1.8125 0.906,0.6875 6.782,7.8125 0.125,0.6875 0.593,3 1.5,8.5938 0.09,0.5937 2.813,3.3125 5.5,6.5 5.093,5.4063 3.094,6.5 4,8.1875 3.094,6.3125 0.906,1.7812 3.313,6.3125 3.375,6.3125 3.5,2.875 1.125,1.4063 2.375,2.8125 0.406,0.7812 0.812,2 1.188,2.9063 1.906,0 1.5,-0.6875 1.5,-0.9063 3.188,-2.0937 0.625,-0.3125 4.593,-0.4063 2.594,3 0.406,0.4063 0.688,2 1,3.0937 1.5,4.5 3.719,3.625 3,2.875 7.093,6.7188 2.188,5.1875 0.906,6.2187 0,0.6875 -0.312,4.4063 -0.375,7.1875 -0.407,3.0937 -0.09,3 -0.219,5.8125 -0.906,8 0.906,4.5938 1.594,4.4062 0.406,0.6875 3,6.3125 0.09,0.5938 1,5 0.218,2.7187 0.407,4 0.593,5.6875 0.5,2.0938 0.594,2.7187 2.906,1.875 3.188,-1.1875 0.5,-0.1875 3.219,-2.5 3.281,-0.4062 4.906,-0.5938 1.5,0.094 5.094,1.5 8.406,9.0938 0.906,1.5937 1.5,3.5938 -0.718,4.2187 -0.594,4 -1,2.0938 0.09,1.4062 0.125,5.0938 0.875,3.5937 0.312,0.4063 2.406,4.1875 2.407,3.625 3,2 0.375,0 3.125,0.094 1.593,0.094 2.407,0.094 2.5,0.094 0.5,0 1.281,1.125 1.094,1.0937 6.906,3.7813 0.594,0.625 7,6.2812 2.812,4.2188 2.313,3.2812 0.687,4.0938 -0.594,8.9062 -0.218,1.8125 -0.875,4.1875 -1.407,5.3125 -0.5,1.9063 -1.906,5.6875 -0.406,0.8125 -2.5,5.2812 -1.281,3.7188 -0.625,2.375 -0.188,1.9062 0.09,2.5938 0.312,7.4062 0.688,2.4063 1.906,5.1875 3.906,3.625 2.688,2.1875 1.906,1.0937 4.594,2.7188 5.812,5 2.594,4.5 0.188,1 0.218,2.875 0.282,4.125 -0.375,4.875 -0.125,1.2187 -0.188,2.5938 -0.09,2 0,0.5937 0.09,3.4063 0.313,1.5937 0.593,1.8125 0.688,1.9063 0.719,1.2812 0.187,2.2188 0.688,3.6875 -0.5,3.3125 -2.282,0.875 -1.906,0.5 -1.187,0.5 -2.625,1.2187 -2.5,2.2813 -1.094,2.8125 -1,2.5 -0.281,0.6875 -2.907,0.9062 -2.5,0.7188 -1.812,0.375 -0.688,0.4062 -2.5,1.5938 -1.218,1.625 -1.594,2.2812 -0.781,1.2188 -1,0.875 -0.719,0.625 -3.094,0.7812 -0.687,0.3125 -2.219,1.2813 -2.5,1.625 -0.594,0.6875 -5.812,5.4062 -4.094,3.9063 -0.781,0.875 -1.719,2.3125 -0.281,0.5 -1.407,4.4062 0,0.6875 -0.218,3.9063 2.5,4.6875 1.5,0.7187 3.5,1.6875 4.906,2.4063 1.812,1.0937 1.688,1.0938 4.094,2.625 3.406,0.5937 1.719,0.1875 0.281,0.094 5.719,-0.1875 4.093,0.3125 3.407,2.2812 0.281,2.7188 -1.688,2.2812 -2.218,2.9063 -3.094,3.1875 -0.406,0.9062 -0.688,3.9063 0.5,1.3125 1.406,4.5937 0.594,2.0938 1.313,2 2.187,3.4062 1.406,1.5 0.782,1.4063 1.312,2.1875 1,1.5937 1.313,4.2188 0,1.0937 0.09,2.4063 0.09,4.0937 0.188,2.5 0.406,0.5 1.812,2.4063 1.688,0.375 1.812,0.125 0.688,0.094 1.5,-0.3125 4.594,-1 3.625,-1.2812 0.5,-0.125 1.281,1.625 1.812,3.5937 1.907,4.5938 0.375,0.5937 1.406,1.5 1,0.4063 1,0.094 2.5,0.3125 0.406,0 2.594,0.094 4.5,-0.3125 3.594,-0.2813 1,1.2813 0.125,3.125 -0.125,0.6875 -4,8.8125 -1,2.0937 -0.594,1.4063 -1.906,2.0937 -1.594,1.5938 -0.5,0.1875 -4.594,2 -5.187,1.625 -1.907,0.5937 -2.593,0.1875 -3.125,0.3125 -6.375,-2.2187 -3.5,-1.1875 -1.5,-0.4063 -5.625,-0.4062 -0.5,0 -9.594,0.9062 -10.594,2.2188 -1.187,0.5937 -7.313,3.2813 -2.187,1.3125 -1.5,0.9062 -5.719,3.4063 -4.281,2.5937 -4.219,2.6875 -1.594,1.8125 -2.812,3.0938 -2.375,7 1.375,2.5937 0.5,0.3125 0.968,0.4063 11.938,0 3.719,-0.9063 1.375,-0.2187 2.218,-0.1875 1.282,-0.094 2.718,-0.2188 1.219,1.625 8803.6565,0 -11.2187,-156.8125 -1.1876,-15.8125 -16.5,-229.875 -7.7187,-108.5 -0.375,-6.625 -9.5,-95.375 -0.125,-0.7188 -0.2813,-2.9062 -0.5,-7.0938 -19.875,-260.75 -8909.8122,0 z"
     id="rect6"
     inkscape:connector-curvature="0" />
  <path
	 style="fill:#9FAEC0"
	 stroke="#9FAEC0"
	 stroke-width="10"
	 transform="translate(0, 75)"
     d="m 169.156,1768.3125 1.438,0.5938 1.5,0.1875 1.406,0.2187 4.094,-0.625 2.594,-0.2812 0.906,-0.094 -11.938,0 z m 24.469,0 2.063,2.7813 1.218,2.2187 1.5,3.0938 1.407,1 0.781,0 3.5,-0.094 0.594,0 3.5,-0.4063 3.406,2 2.812,1.2813 2.094,1.4062 5.5,3.5938 1.594,2.3125 1.219,2 0.687,1.1875 0.688,0.4062 4.906,3.4063 2.906,1.9062 3.813,2.5938 3.281,4.0937 2,5.2188 0.312,4.2812 0.09,1.5 0.188,1.4063 0.125,1.6875 2.375,1.5 0.5,0.3125 0.906,-0.094 2.594,-0.2188 9.125,-0.7812 6.375,1.6875 2.718,0.9062 2.282,1.0938 2.125,1.2187 3,1.5938 3.375,1.5937 0.906,0.9063 4,3.5937 1.406,1 4.5,6.1875 1.906,2.625 0.594,0.875 2.594,4.4063 1.906,3.8125 1.188,2.5937 2.125,1.3125 0.593,0.2813 2.5,1.5937 2.407,1.7188 3.375,1.9062 1.406,0.6875 3.594,4.6875 0.312,1.125 1.906,8.6875 0.688,2.1875 2.312,7.9063 0.5,1.5937 4.282,10.3125 0.625,1.0938 3.687,8.7187 0.594,1.375 2.5,5.625 1.219,2.1875 2.687,3.9063 3.906,5.6875 3.688,4.5937 4.906,3.9063 0.688,0.3125 3.906,1.5937 4,1.5938 3.094,1.2187 1.812,0.6875 1.094,0.094 4,0.2188 1,0 4.094,0.1875 1.406,0.094 1.094,0.5 2.5,1.5937 1.312,1 0.594,0.7188 2.5,2.5 1.594,1.6875 2,0.4062 3.5,0.9063 4,-0.5 2.625,-0.4063 1,-0.5 4.875,-1.9062 0.906,0 1.312,-0.094 1.407,0.4062 2.093,0.5 2.282,4.9063 0.218,0.5937 1.5,3.0938 1.407,3.0937 2.281,3 0.594,0.5 2.5,1.7188 3,0.5937 3,0.4063 0.5,0.094 4.625,-1 2.5,-0.5 1.281,-0.3125 2.406,-0.1875 0.813,-0.094 4.5,1 1.593,0.375 1.5,1 2.407,1.3125 2.093,1.0937 4.282,2.3125 3.218,0.5938 3,0.3125 1.782,0.1875 1.718,0 3.594,-0.6875 0.406,-0.125 1.594,0.4062 3.5,0.8125 4.313,1.1875 0.781,0.3125 3,1 0.719,0.2813 1.687,1 2.5,1.5 1,3 -0.812,2.2187 -0.375,0.6875 -1.719,3 -0.5,1 -0.781,1.7188 0.5,3.2812 0.593,1.7188 1.5,5.0937 0.594,0.7813 5.406,7.8125 0.5,0.4062 6,4.2813 0.594,0.7187 2.5,2.5938 0.313,0.5 2.187,4.3125 0.594,4.7812 -0.188,1.7188 0.06,3.2812 -0.313,1.2188 -0.781,1.5937 -0.5,2.6875 -2,3.0938 -3.5,5 -0.593,1.3125 -0.5,4.3125 0.687,2.6875 2,3.5937 4.594,2.8125 1.219,0.5 2.187,0.6875 5,1.5 6,1.7188 0.687,0.1875 6.219,4.1875 0.407,0.625 1.593,2.2812 1,3 0,0.8125 -0.06,2.6875 -0.219,5.2188 0,1.7812 0.312,1.5938 0.688,2.2187 1.406,2.2813 1.313,1.5 1.687,1.9062 6.313,4.5 2.187,0.5938 7.5,2 0.594,0.4062 1.906,1.7188 2.906,2.7812 2,1.8125 1.094,1 2.094,1.6875 2.219,1.5 0.593,0.5 3.5,2.7188 2.407,1.7812 1.093,0.8125 1.782,1.9063 2.5,2.5 0.718,0.7812 1.594,2.3125 3,4.5938 0.188,0.4062 1.5,3.5 2.906,6.7813 1.5,3.2187 0.406,0.9063 4.406,8.6875 0.5,1.0937 2.594,1.2188 3.406,1.5 2.5,0.5 3.094,0.6875 2.5,0.5 5.5,2.1875 0.313,0.7187 0.593,1 0.282,0.9063 0.312,1.375 -1.5,3.3125 -0.187,0.6875 -0.907,3.7187 -0.812,2.0938 0.5,5.5 0.5,2.3125 0.719,1.5 3.593,8.375 1,1.625 3.782,6.7812 5.312,6.8125 1.688,2.4063 1.125,1.375 3.875,5.125 0.312,0.2812 6.188,5.5 2.218,1.0938 2.907,1.4062 0.875,0.4063 2.812,1.0937 3.188,2 1,2.5 1.125,2.5 0.06,5.2188 1,4.2812 0.407,0.7188 3.374,4.5 1.407,2.1875 0.219,8.5937 -0.313,4.0938 0.5,4.8125 0.406,3.9062 0.188,0.4063 1,4.375 -0.06,4.5 -0.09,4 1.907,4.7187 3.281,4.2813 2.406,3.2187 1.406,1.9063 0.282,1 0.312,3.5 -0.5,2.5937 0.594,4.1875 0.09,0.9063 2.218,1.0937 6.282,0 1.312,0.094 5.406,-1.7812 4.188,-2.2188 4.219,-0.6875 0.375,-0.094 3.125,0.5938 3,1.5937 2.187,1.5938 6.906,7.2187 0.688,1.1875 4.219,7 0.687,2.7188 1.313,4.375 1.187,3 1.094,2.125 0.406,0.6875 1.688,2 0.812,0.8125 1.313,1.5937 1.875,2.2813 1.625,1.8125 2.281,2.3125 0.812,0.375 2,1.125 2.094,0.6875 2.5,4.9062 0.313,0.7813 0.5,1.7187 3.5,3.7813 0.375,0.2187 1.5,0.9063 2.906,1.5937 3.094,1.6875 3.812,2.7188 3.5,2.1875 6.688,6.1875 -0.282,3.625 -1.406,2 -1.406,1.6875 -0.688,0.9062 -0.906,1.2813 -0.906,1.9062 -0.781,1.5938 -0.719,3.5 -1.188,1.9062 -0.593,2.5938 -0.407,5.625 0.782,4.2812 0.218,1.5 1,6.9063 -0.5,2.0937 -3.406,4.8125 -1.094,0.7813 -0.906,0.7187 -5.594,4.2813 -2.218,2.7187 -0.5,2.7813 1,1.7187 0.406,0.7813 0.719,0.9062 4.281,2.5938 1,0.2187 3.906,2.1875 3.094,2.9063 0.719,3.1875 0.06,1.3125 -1.719,5.5 -1.093,3.0937 -1.188,4 0.09,0.5938 0.906,5 0.688,1.2187 1.719,2.7813 1,1.125 4.687,3.1875 1.5,0.5 2.406,1.4062 3.5,1.9063 1.5,1.5937 1.907,1.5938 0.374,1 1.313,2.9062 -0.09,2.9063 -1.593,3.5 -0.5,5.1875 0.374,3 2,1.5937 2.313,-0.1875 0.406,-0.4062 1.188,-1.3125 0.406,-0.2813 0.5,-1.5937 0.5,-1 1.406,-2.7188 2.594,-1.2812 0.687,-0.3125 3.626,-0.5938 1.687,-0.094 1.906,-0.125 2.688,0.125 1.312,0.375 3.188,1.2188 2.219,1.2812 1.093,3 2.407,6 1.5,2.2188 1.687,2.5937 2.313,1.4063 2.687,1.7812 0.406,0.4063 2.407,2.7187 2.281,2.5 2.312,2.875 1.5,2 2.281,3.125 1.219,0.875 1.688,1.4063 1.719,0.094 2,0 2.5,0.4062 2.5,0.3125 2.374,0.4063 0.626,0.375 3,2.4062 1.093,0.9063 1.281,1 1.719,0 3,0.094 4.281,0 3.219,4 0.688,1 1.093,1.7187 2.407,3.6875 5.593,5.0938 1.626,1.5 2.281,3.9062 0.09,0.9063 0.5,2.6875 0.813,6 -0.594,4.7187 -0.406,1.7813 -2.406,7.5937 -3,4.7188 -0.594,0.9062 -0.5,0.5938 -6.906,8.4062 -3.781,7.875 -0.219,0.9063 -0.781,4.7187 0.09,0.875 1.407,3.125 2.187,0.7813 2.5,1 0.906,0 1.594,0.2187 3,-0.2187 1.906,1 1.5,0.8125 -0.719,3 0.126,2.7812 0,2.625 1.781,1.7813 3.312,0.5937 0.407,0.125 2.593,-1.125 1.5,-0.6875 0.5,-0.4062 3.594,-4.2813 2.313,-2.8125 1.593,-1.8125 1.907,-2.1875 1.093,-0.9062 4.094,-3.5938 1.187,-0.4062 3.126,-1 0.781,-0.1875 2.906,-0.2188 1.094,0 0.812,-0.094 4,0 3.688,-0.4062 3.093,-3.0938 1.813,-1.6875 0.09,-0.5937 1,-3.4063 0.219,-0.5937 0.187,-1.4063 1.094,-2.2187 1.093,-3.5938 0.219,-0.5 1.407,-2.4062 1,-1.375 4.593,-2.2188 3,0.7188 3.781,0.7812 6.813,-0.6875 1.5,-0.094 3.0938,-0.4062 0.8124,0.2812 1.1876,0.4063 7.5,4.7187 3.5937,3.6875 0.3125,0.5 3,4.5938 1.6875,2.5 2.3125,3 5.8125,7.5937 2,2.5 1.0937,1.625 1.9063,4 0.375,2 0.3125,6.6875 0,2.1875 -0.094,2.9063 -0.5,3.5 -0.4062,2.3125 -0.4062,1 -1.4063,3 -1.1875,1.4062 -2,2.5938 -1.8125,0.5 -1.875,0.5 -1.2187,0.5 -2,0.7812 -1.2813,1 -0.4063,0.4063 -0.5937,1.6562 8104.75,0 -43.5625,-598.4375 -10.6875,-156.625 0.5937,0 -5.2187,-79.5 -2.6875,-47.1875 -0.1875,-2.6875 -8803.6563,0 z"
     id="rect8"
     inkscape:connector-curvature="0" />
  <path
	 style="fill:#9FAEC0"
	 stroke="#9FAEC0"
	 stroke-width="10"
	 transform="translate(0, 50)"
     d="m 954.2815,2652.75 -0.4063,1.0625 0.2813,3 0.4063,3.1875 -0.4063,6.4063 0.2187,1.5937 1.6876,1.3125 1,0.7813 3,2.5937 0.094,0.7188 4.125,2.9062 7.2813,3 2.3124,6.2813 -1.8124,11.7187 0.4062,1.1875 1.8125,2 0.5937,0.094 2.4063,0.2188 0.6875,0.094 1.3125,0.094 5.6875,0.5937 1.9062,0.8125 1.9063,0.9063 0.5937,-0.125 1.5,-0.1875 0.6876,-0.1875 0.4062,-0.2188 0.9062,-0.5937 3.6876,-1.5 3.0937,-1.3125 3.5,-1.5938 0.8125,-0.2812 3.8125,-0.8125 5.875,-0.1875 2.7187,-0.4063 1.4063,-0.3125 1.5937,-0.5937 2.5,-0.9063 0.5938,-0.2812 3.0938,-2.625 3.8124,-3.0938 0.7813,0.3125 4.7187,1.5938 1,3.1875 0.6876,2 1.8124,3.7187 1.7813,1.1875 1.7187,0.8125 0.6876,0.094 2.2187,0.094 2.875,-0.1875 2.7187,0.094 2.9063,0 0.6875,-0.1875 3.8125,-0.8125 0.7813,0.094 0.5937,0.7188 2.7187,3.0937 1.2813,0.9063 4.4063,3.375 2.3124,1 3.7813,1.625 2.9063,1.5937 0.4062,0 3.6875,-0.2187 4,0.5 0.625,-0.1875 2.5937,-1.9063 4.5,-4.9062 0.094,-0.5 1.5938,-5.2813 1.3124,-4.2187 2.7813,-2.6875 2.5,-2.5 1.2187,-1 5.2813,-2.8125 6.625,-2.375 5.0937,-0.4063 4,1.0938 5.2813,-0.094 2.8125,-2 2.6875,-1.3125 1.125,-0.5938 4.875,-0.3125 2.8125,-0.5 3.3125,-0.2812 5.875,-0.5 1.125,-0.9063 3.1875,-1.0937 5.5938,-0.9063 3.9062,0.5938 2,0.8125 0.5938,0.2812 5.5,2.3125 1.7187,0.9063 2.7813,1.6875 4.7187,2.5 0.7813,0.5 1.0937,0.5 3.9063,2.5 2.5,1.5 0.3124,0.5 3.5938,6.4062 0.8125,3.3125 0.094,0.5938 0.5938,4.7812 -0.4062,5.4063 -0.1876,3.5937 0,3.3125 -0.2187,0.6875 -1.6875,8.9063 -0.1875,0.8125 -1.4063,4.7812 -0.094,1.7188 0.2813,1.7812 0.2187,1.3125 0.094,1.8125 -0.3124,2.1875 -0.1876,1.0938 -1.7187,3.5 -1.2813,2.3125 -1.0937,1.2812 -0.8125,1.5 -1.0938,1.8125 -0.3124,0.3125 -2.2813,2.1875 -0.8125,2.4063 -0.9062,0.5 -0.6876,0.9062 -1.5,2 -1.5,1.875 -0.3124,2.4063 0.9062,2.5937 1.5938,2.5 0.4062,0.625 0.6875,1.7813 0.4063,1.7187 0.8124,4.0938 -0.5937,3.5937 -1.8125,4.9063 -1.9062,3.0937 -1.9063,3.3125 -2.375,3.875 -2.9063,8.125 -0.7187,9 0.4063,2.2813 0.094,1 0.5,2.9062 -1.2813,4.6875 -2,5.4063 0.094,0.9062 1.3125,6.0938 0.094,0.8125 0.6876,3 0.7187,4 -1.8125,3.7812 -0.5938,0.4063 -2,2.0937 -5.7187,3.2188 -2.6875,0.5937 -1.8125,0.8125 -5.1875,0.6875 -1.9062,-0.094 -2.0938,-0.2187 -1.8125,-0.1875 -1.7813,-0.094 -2.5937,-0.2188 -2.4063,-0.094 -3.2187,-0.5 -0.7813,0.3125 -6.4062,1.7813 -3.4062,5.4062 -0.4063,7.5938 -0.2813,5.125 1.2813,5.0937 0.4063,4.5 0.094,0.5 1.125,3.5 0.2813,0.9063 3.0937,5.7812 1.7187,1.0938 2.6876,1.9062 1.3124,1.3125 1.4063,1.9063 0.7813,1.7812 0.4062,1 0.1875,1.8125 -1.0937,3.6875 -0.6876,2.7188 -1.4062,4.5937 0.5,2.5 0.3125,1.6875 2.2813,1.9063 2,1.5 0.8124,1.1875 0.5,0.5 0.4063,1.125 1.0937,2.375 -1.2187,2.2187 -0.7813,0.7813 -1.5937,1.2187 -1.9063,1.2813 -0.8124,1 -0.5,1.2187 -2.5938,5.5938 -0.4062,0.9062 -0.1876,2 -0.5937,3 -0.9063,4 -0.4062,0.9063 -2.5938,4 -0.5,0.7812 -1.3124,1.4063 -1.5,1.3125 -0.4063,0.375 -2.5937,2.3125 -7.5938,6.8125 -8.6875,7.6875 -0.8125,0.6875 -1.0938,1.5 -1.9062,6.9062 0,2.7188 1.0938,3.6875 1.5937,5.8125 1.8125,5.2812 -0.1875,4.9063 -0.3125,7.3125 -1.3125,13.6875 -0.1875,3.0937 -0.3125,5.5 -1.2813,3 -4.0937,9.4063 -1.8125,3.6875 -4.5,8.7187 -4,6.9063 -0.094,10 0,1.1875 1.2813,3.8125 1.3125,3.5 -0.6875,5.5 -1.125,3.1875 -1.7813,2.1875 -3,3.7187 -1.2187,0.9063 -1.375,0.5937 -3.9063,1.6875 -1.8124,0.3125 -2.4063,0.2813 -5.0937,0.8125 -2.1876,0.5 -0.8124,0.3125 -2,1 -2.4063,1.5 -1.0937,1.0937 -0.4063,0.6875 -0.5,1.7188 -3,9.1875 0.125,2.3125 0.5,3.1875 3.1875,6.9062 2.5,2.2813 2.0938,1.8125 0.3124,0.4062 2.4063,3.5938 1.875,2.6875 0.125,0.7187 0.6875,3 0.094,1.5 0.4062,2.5938 0.1875,7.1875 -0.094,2.7188 -1.1876,6.5 0,1.7812 1.1876,6.3125 0.094,0.5937 0.8125,5 0.4062,2.8126 0.5938,2.7812 0,3.7188 -0.094,1.5 -0.7187,5.5937 -1.1875,10.1875 -0.6875,3.3125 -0.125,0.6875 -0.7813,4.2188 -1.8124,2.5937 -2.6876,1.3125 -3,0.1875 -3.0937,0.094 -3,1.5 -3.625,1.5 -1.375,0.9063 -3.2187,-0.4063 -2.6876,-0.4062 -0.8124,-0.2812 -3.0938,-1.4063 -1.9062,-1 -2.0938,-0.3125 -5.0938,-0.6875 -4,-0.8125 -3,-0.5 -1,0.2188 -1.4062,0.2812 -1.0938,0.5 -2.0937,1 -2.625,1.8125 -0.7813,2.5937 -0.8124,2.9063 -0.7813,2.4063 -0.625,0.9062 -0.7813,1 -1.5,1.6875 -1.8124,2 -1.5,5.3125 -0.1876,1.1875 1.6876,6 1.9062,6.4063 -0.3125,2.5 -0.6875,6.1874 0.8125,3.3126 0.1875,0.9062 3.3125,1.875 2.875,3 0.9063,0.125 3.2187,0.6875 4.5937,1 4.5,-0.1875 4.4063,0.875 7.1875,4.625 2.4062,3.2812 1,1.5 1,3.0938 1.6876,2.9062 1.5937,4.5 3.5,8.9063 -0.094,2.5937 -0.5,2.9063 -0.2813,1.8125 -1.2187,3.2812 -1.5,2.9063 -0.2813,0.3125 -2.125,1.5938 -2.2813,1.6874 -2.0937,4.2188 2.0937,4.7812 0.1876,1.5938 0.3124,1.8125 -0.9062,2.5 -1.0938,1 -2.0937,1.5937 -0.5,0.2188 -3.125,1.2812 -2,0.9063 -1.375,0.9063 -0.625,0.5 -3.5,2.7812 -3.0937,2.4062 -2.0938,1.4063 -0.9062,1.1875 -4.4063,6.7188 -2.2813,3.6874 -1.3124,2.8126 -1.9063,2.9062 -0.375,0.5 0.1875,3.6875 1.3125,1.4063 2.0937,0.9062 1.1876,0.1875 0.8124,0.1875 5.2813,-0.5938 8.8125,2.4063 2.3125,2.3125 0.1875,0.375 1,1.7188 1.3125,3.9062 0.375,1.2812 -0.094,2.8126 -1,2 -4.5,3.1874 -0.5,0.4063 -1.9063,1.3125 -2.5937,3 -1.2813,2.7812 -0.125,0.8126 -0.375,2.0937 -0.2187,0.9063 0.094,1.5 0.2187,0.7812 3.4063,5.8125 1.5,1.6875 1.0937,0.7188 1.4063,0.9062 0.5,-0.125 2.0937,-0.094 1.5,-0.2812 1.5,-0.5 2.0938,-0.625 3.5938,-1 2,0.7188 1.5,0.094 0.4062,0.3125 2.5,1.6875 0.5938,0.5 1.2187,1.1875 4,4.3125 3.375,0.9063 1.4063,0.4062 2.7187,0.6875 2.875,1 4,2.0937 2.125,1.7188 1.7813,1.5938 4.5937,4 1.9063,2.2812 3.9062,10 0.5,2.625 1,4.5938 -1.0938,4.5937 -0.7187,1.1875 -1.0937,1.625 -2.6876,3.1875 -7.0937,4.5 -4.2187,3.1875 -5.5938,5.3125 -0.094,1.9063 0.5,3.9062 2.7813,3 3.3125,3.5938 2.5,3.9062 1.4062,2.5938 1.1876,5 0.9062,4.1874 0.6875,2.0938 0.7187,1.4062 1.9063,2.7188 1.7813,3 1,0.875 2.9062,2.4062 3.5,7.3126 2.5,4.5937 0.8125,0.7187 8028.9375,0 -2.4375,-32.4062 -2.2187,-29.3125 -3.0938,-41.5937 -6.5938,-92 -1.5937,-22.3126 -0.9063,-10.2812 -1,-14.2188 -1.0937,-15.7812 -1.2187,-16.3125 -1.0938,-15.8125 -1.1875,-16.1875 -5.2187,-72.5938 -2.6876,-35.4062 -1.2187,-15.8125 -3.5937,-46.7813 -2.2813,-32.7187 -12.3125,-174.7813 -1,-15.3125 -4.6875,-66.7812 -7.2187,-97.7188 -0.9063,-11.9062 -0.625,-8.4375 -8104.75,0 z"
     id="rect10"
     inkscape:connector-curvature="0" />
  <path
	 style="fill:#9FAEC0"
	 stroke="#9FAEC0"
	 stroke-width="10"
	 transform="translate(0, 25)"
     d="m 1094.2815,3537.2187 0.7813,0.6876 2.7187,2.1874 0,5.4063 -1.7187,3 -3.0938,3.4063 -2.9062,3 -0.2813,0.5 -2.125,3.4062 -2.875,4.5938 -1.9063,4.2812 -1.5937,3 -1.2187,5 -0.4063,3.625 -0.375,0.6875 -2.125,2.3125 -0.5937,0.1875 -3.0938,-2 -3,-1.8125 -5.1875,-5.1875 -2.9063,-1.6875 -4.5,-2.625 -3.5,0.3125 -3.2187,0.5937 -4.375,2.3126 -3,1.5937 -2.625,1.1875 -2.6875,1.3125 -6.5938,3.0937 -1.0937,0.5 -2.5,1.2188 -0.7187,0.375 -2.4063,0.9062 -2.2813,0.3126 -0.8124,0.094 -3,-1.5 -3.0938,-1.5 -2,-1 -0.9062,-0.4063 -0.9063,0 -0.5937,-0.1874 -2.5,0.5937 -3.1876,1.1875 -3,2.125 -1.8124,1.2812 -2.1876,1.7188 -1.5937,1.1875 -0.9063,1.0937 -1.9062,9.3126 -0.5,2.5937 -4.3125,6.5937 -0.875,0.9063 -1.2187,0.9063 -1.7813,1.5 -1.7187,1.2812 -2.1876,3.3125 -1.2187,2.4063 -2.375,4.6874 -3.625,5.0938 -3.6875,4.5 -0.4062,1.4062 -2.7813,8.9063 -3.9063,3.6875 -1.3124,0.8125 -3.0938,1.8125 -1.5,2 -3.8125,4.7812 -2,2.5938 -0.875,1.3125 -1.5,3.5 -0.5,1.5 0.1875,2.1875 1.9062,3.4062 1.5938,2.8126 3.5,1.1874 2.0938,0.7188 1.9062,0.5938 2.5,0.9062 0.9062,0.5 0.5,0.7812 1.2813,1.8126 -1.2813,7.0937 -0.9062,3.8125 0,0.6875 0.1875,2.0937 1.3125,3.5938 0.3125,0.4062 2.5937,3.9063 0.6876,0.5937 1.5,1.5 2.5937,2.9063 2,2.3125 0.5,1.2812 1.5,3.2188 0.3125,0.6875 1.5938,0.6875 3.5,2.7188 3.5,1.5 2.3124,0.4062 1.0938,0.6875 3.6875,2.3125 3.625,4.375 1,1.625 0.2813,0.5938 2,6.5937 1,4.5937 0.3124,7.5 -0.5937,1 -2.2187,3.8126 -0.7813,0.7812 -2.625,2.5 -3.6875,3.5 -1.4062,4.125 0.3124,1.5 4.1876,2.2812 2,7.7188 -0.1876,1.1875 -1,4.5937 -1.9062,6.0938 -2.5,5.2188 -1.0938,1.2812 -3.2187,3.625 -2.7813,1.2812 -1.3124,0.5 -4.2813,1.5938 -4.125,1.3125 -3.7813,0.5937 -3.5937,2.4063 -1.9063,1.5 -1.2187,0.9063 -2,1.7812 -0.7813,0.4062 -1.9062,0.8126 -1.5938,0.9062 -4,0.375 -1.7187,0 -2.2813,0.2188 -2.3124,0.2812 -0.5938,0.5 -1.6875,1.7188 0.1875,1.2812 2,10.4062 0.4062,1.0938 2.5938,4.5 2,2.8125 0.5938,0.6875 3.4062,3.7188 1.5938,1.6874 1.2187,1.5938 1.875,2.3125 0.4063,0.4063 0.2187,1.7812 0.2813,2.9062 -0.7813,0.9063 -1.7187,1.9063 -1.7813,1.9062 -2.7187,3.1875 -1,1.1875 -3.5,4 -2.4063,5.4062 -0.5937,11.8126 -1.4063,4.1874 -0.094,0.5938 -1.5938,5.4062 -2.5938,3.9063 -2.2187,1.5937 -0.5,0.8126 -1,3.6874 2.4063,2 3.0937,1.9063 0.4063,0 3.5,0.3125 0.4062,-0.3125 3.6875,-2.3125 4.125,-3 2.5,-1.6875 0.6875,-0.5937 6,-2.8126 3.1875,-1.9062 0.4063,0.2188 5.0937,1.7812 1.3125,1 2.0938,1.9062 1.7187,4.2188 1.375,5 3.4063,2.7812 4.5937,0.5 3.4063,-0.5 1.2187,-0.1874 2.875,-1.5 1.8125,-0.8126 1.8125,-1.5937 0.6875,-0.1875 4.0938,-0.7188 4.7187,-1.1874 0.375,-0.094 3.5,-0.8125 1.2187,-0.3125 1.9063,0.7188 2.5,1.5 0.375,0.4062 1.625,1.2812 -0.8125,4.5938 -0.6875,3.5 -1.625,3.625 0.625,1.875 1,3.2188 2,0.9062 0.5937,0.2812 1.5,0.2188 1.5,1.0938 2.6876,2.0937 3,3 1.8124,2 1.4063,2.1875 2.2813,3.625 2,2.5 0.7187,1.2812 2.0937,4.2188 0.6876,3.375 0,1.2188 0.094,3.4062 0.125,0.5938 1.1875,6.0937 2.5938,3.0937 3.5,2.8126 1.0937,0.094 3,0.3125 2.625,0.7812 0.875,0.4063 4,1.6875 4.5,2.3125 4.5,2.0937 1.125,0.7188 3.2813,1.6875 3.7187,2.0937 1.5937,1.2188 4.4063,3.5 0.5,0.5 2.7813,3.375 4.7187,14.625 0.5,1.6875 2.0937,6.4063 4.0938,3.2812 0.6875,0.8125 1.8125,2.0937 2.5,5 0.5938,0.7188 2.5937,2.5938 0.625,0.094 3.6875,1.0937 4.5938,-2.4062 0.4062,-0.5938 2.3125,-3.5937 3.1875,-2.8125 0.5938,-0.5 3.4062,-1.0938 0.6875,-0.1874 3.4063,-0.4063 3.5,-0.4063 2.5,-2.1874 7.4062,-6.8126 2.1875,-0.9062 1.4063,-0.375 1.0937,-0.3125 2.4063,-0.3125 1.3124,0 3.1876,0.5 3.5937,-0.875 4,-2 1,-1.625 2.4063,-4.2812 2.8124,-3.9063 2.1876,-7.4063 0.5937,-2.0937 0.3125,-1.6875 1.3125,-4.9062 1.7813,-2.7188 2.5,-4.1875 2,-3.3125 3.5937,-7.1875 0.7187,-3.8125 -0.3124,-4.7812 0.094,-3.8126 0.125,-5.2812 -0.125,-4 0.125,-1.125 1.2813,-1.6875 0.5,-0.5937 2.4062,-1 0.8125,-0.3126 4.5937,-0.1874 6.1876,1.5 12.5937,8.6874 6.2187,4.3126 2,1.5 4.4063,-0.8126 2.5937,-1 1.6876,-2.5937 0.9062,-1.4063 1.5938,-2.7812 1.0937,-1.5 2.5,-3.3125 3.9063,-1.8125 2.3124,-0.375 0.7813,-0.3125 4.125,-0.5937 1.1875,-0.2188 3,-0.875 3.5938,-0.4062 0.9062,-0.2188 2.1875,-0.5 2.5,-1 2.625,-0.5938 0.7813,-0.1874 1.3124,-0.2188 1.4063,-0.1875 3.5937,0.094 4.0938,-2 2.5938,-4 2.0937,-3.4062 0.125,-3.6875 0.094,-1.9063 0.2813,-3.0937 0,-1 1.4063,-3.4063 2.5937,-2.4062 1,-1.0938 3,-1.9062 0.7187,-0.5938 2.7813,-0.9062 1.2187,-0.5 1.2813,-0.2812 1.125,-0.3126 5.0937,0 4,-0.094 0.5,0 3.0938,-1.0937 4,-2.7188 0.9062,-0.6875 1.9063,-3.0937 3.0937,-4.2188 1,-5 0.1876,-0.875 2.0937,-9.8125 2.625,-2.4063 0.5937,-0.5 1.6876,-2.9062 2.4062,-4.1875 0.5938,-1 1.2187,-1.6875 3.5937,-5 0.6876,-1 4.3124,-3 1,-0.7188 2,-0.5937 4.5938,-3 1.5,-0.5937 5.1875,-5.3126 0.5,-0.5 6.7187,-4.5 6.4063,-1.5937 0.6875,-0.094 3.8125,-1.8126 1.6875,-2.0937 0.6875,-1 0.8125,-2.1875 0.8125,-4.125 -0.2187,-0.6875 -1.1876,-3.5937 -0.9062,-2 -0.9062,-2.2188 -2.2813,-5.0938 -1.8125,-3.9062 0,-3.7812 0.8125,-0.8126 1.6875,-1.7812 2.9062,-2.2188 2.2813,-1.5937 0.625,-1.8125 0,-2.6875 -0.125,-0.6875 -0.5937,-1.4062 -0.1876,-0.5 -0.094,-2.0938 1.0937,-2.5 1.2813,-1.125 0.9063,-0.2812 2.5937,-0.3126 1,0 2,-0.094 2.9063,0 1.9062,-0.9063 1.8125,-1.4062 0.6875,-0.2812 3.3125,-4.0938 5.875,-1.9062 2.4063,0.2812 1.9062,0.7188 3.6875,1.5937 0.3125,0.6875 2.5,6 0.3125,1.4062 0.1875,1.5938 0.6875,4.9062 1.2187,1.4063 0.6876,0.8125 0.5,0.094 1.2187,0.1874 1.7813,-0.1874 3.7187,-0.8126 0.375,-0.094 2.5,-1.5 3.3125,-1.5937 1,-0.5 2.5,-1.5938 0.8125,-0.5 2.6875,-0.8125 5.5,1.8125 0.3125,4 -0.2187,1.375 -0.1876,3.625 -0.094,3.6875 0.2813,1.8125 0.5,3.0938 0.7187,4.5937 0.5,1 2.375,4.6875 1.625,2.7188 1.2813,1.9062 1,1.2812 1.5,1.8126 1.3124,1.5 2.1876,2.1874 1.3124,0.9063 1.4063,1.5937 1.375,1.2188 3.125,3.0938 3.2813,3.4062 1.2187,1.375 1,1.625 1.375,2.5 -0.375,2.7812 -0.8125,2.5938 -2.0938,6.125 -1.5,3.5938 -0.8124,1.9062 -2.6876,2.6875 -1.2187,1.0937 -0.1875,0.7188 -0.6875,1.875 0.7813,2.7188 0.5,0.7812 1.7187,2.7188 2.5937,1.0937 3,1.1875 1.7813,0.3125 1.3125,0.094 2,0.3126 3.3125,0.4062 3.875,-1.8125 1.3125,-0.6875 2.6875,-0.9062 3.625,-1.5 2.5937,-0.5938 1.5,-0.3125 0.5,0 0.5,-0.094 1,0.094 0.6876,0 5.8124,2.1875 5.5938,7.625 0.5938,0.7812 2.8124,3.8126 6.0938,0.094 0.4062,0 3.1876,-0.3125 2.5,-0.5 3.5,1.4062 2,0.9063 1.5,1.9063 3.2187,4 4.1875,6.2812 2.3125,5.3125 1.6875,4.0937 1.1875,3.7188 1.125,3.5 -0.2187,2 -1,1.5 -1.7813,1.7812 -2.5,3.3126 -4.2187,2.0937 -2,0.9063 -0.5938,0.7812 -1.5,1.9062 -1,1.2188 -0.094,8.375 -0.094,2.3125 -4.2187,9.9063 -0.4063,1.0937 -0.5937,1.4063 -2.5,5.9062 -0.2813,0.5938 -3.125,5.9062 -1,5.5938 -1.1875,6.4062 -2.5,4.875 -0.5,1.125 -1,2 2.1875,1.875 4.125,-2.375 4.5,-1.4062 5.1875,-0.5938 0.9062,0 7.5938,0.1875 1.6875,0.094 6.625,-0.4062 4,-0.5 4,0.4062 2.5937,0.5938 0.4063,0.2188 3.6875,2 1.1875,2.9062 1,3.1875 0,0.6875 0.4063,4.4062 0.3124,4.5938 0.1876,3.9062 0.3124,1.2188 1,4.5 1.9063,5.5938 0.5,2.2812 1,2.7188 1.0937,4.4062 0.2813,1.875 -1.0937,4 -0.1876,0.7188 -0.4062,0.7812 -1.4062,1.9062 -2.2813,3.0938 -2.2187,1.8125 -3.9063,2.6875 -0.5937,1 -0.5938,0.9062 -1.1875,5.4063 -0.5,2.5 -1,1.0937 -1.5,1.5938 -1.3125,1.5 -0.3125,0.8125 -0.2813,5 0.2813,0.4063 1.4063,2.5937 2.7187,4.8125 -0.2187,3.5 -0.4063,7.0938 0.3125,0.7812 1.0938,1.9062 4.3124,2.8126 2.7813,1.2812 0.4063,0.2188 2.2187,4.9062 -1.4063,2.1875 -0.5937,0.4063 -2.2187,1.0937 -3.9063,1.9063 -4.0937,3.7812 -0.5,0.4062 -0.1876,8.2188 0.5938,0.7812 2.8125,2.4063 3,0.5 1.5,0.1875 0.5,0.125 0.875,-0.2188 0.625,0 0.5,0.094 4.5,1.5 0.5,0.3125 2,2 2.1875,2.0937 2.9062,2.8126 1.0938,1 2.4062,2.1874 2.4063,2.4063 0.875,1.5 1.7187,2.6875 -0.094,1.625 -0.3125,3.0938 -0.8125,4.7812 0.3125,1.625 0.4062,2.5938 0.1876,2 -0.094,0.5937 -0.5,3.0937 -0.8125,1.2188 -1.375,2 -0.2187,0.7812 -0.5938,3.2188 1.0938,2.1875 0.5,1.5937 0.3124,0.5938 1.1876,3.2188 0.2187,2.9062 -1.625,3.5938 -0.094,2.7812 -1.1876,2.625 -1.3124,2.6875 -1,2.0937 -1.4063,7.0938 0,7.625 1.2187,3.2812 2,5.5938 0.4063,0.9062 3.1875,4.4063 1.5938,0.9063 4.5,3.2812 4.7187,3.5 0.375,3.125 1.2187,8.0938 0.5,0.6874 3.1876,3.5 3.2187,3.4063 3.5937,3.9063 5,5.2812 2.5,2.5 3.2813,5.2188 0.7187,1.5 0.2813,1.0937 1.125,4.4063 -2,1.9062 -1.625,-0.125 -1,0 -0.7813,-0.094 -0.7187,0 -1.6875,-0.094 -0.3125,0.4063 -1.875,2.5 0.5,2.9062 0.875,5.0938 0.2187,0.6874 1.6876,5.2188 0.5,0.5 6.0937,7.7812 2.2187,1.3126 5.0938,1.5937 5,3.6875 4.3125,5.8125 2.6875,3.9063 2.5938,10.4062 1.0937,3.1875 6.5,12.5 4.8125,5.0937 5.6875,5.4063 9,8.6875 1.7187,1.8125 1.9063,2.1875 2.5937,2.8125 0.2813,0.3125 1.9063,2.1875 2.7187,2.9063 2.5,3.0937 0.6875,1.3125 1.9062,3.1875 0.094,0.5937 0.5938,5.7188 -0.6876,1.375 -1.4062,2.9062 -0.3125,1.4063 -1.375,5.5937 -0.2187,1.0938 0.5,4.9062 0.4062,0.9063 1.1875,2.5937 3,3.7188 0.3125,0.2812 4.3125,3.5 0.5,0.4063 4,2.9063 3,1.7812 0.2813,0.625 1.9062,3.375 -3,4.9062 -1.5,2.4063 -0.3125,0.8125 -1.5,3.6875 0.625,3.1563 7502.75,0 -0.5625,-7.6563 -7.6875,-106.5 -1.125,-14.1875 -0.6875,-9.3125 -0.4062,-6.4063 -2.6876,-34.5 -4.2187,-55.0937 -24.2813,-325.1875 -1.3124,-18.3125 -3.9063,-56.3125 -1.5937,-21.375 -1.0938,-15.7188 -0.6875,-8.5937 -0.5,-6.8125 -0.9063,-13 -7.7187,-99.875 -1.7813,-23.9062 -1.2187,-16.3126 -2.5937,-34.0937 -0.8438,-11.2813 -8028.9375,0 z"
     id="rect12"
     inkscape:connector-curvature="0" />
  <path
	 style="fill:#9FAEC0"
	 stroke="#9FAEC0"
	 stroke-width="10"
     d="m 1686.2815,4421.6563 0.5,2.6562 1.1875,1.1875 2.6875,3.5 4.625,3.4063 2.1875,1.5937 0.8125,0.9063 1.875,2.0937 0.7187,0.5937 1.7813,2.0938 2.7187,1.9062 2.2813,0.5938 1.3125,-0.094 2.9062,-0.094 2.0938,-1.1875 4.0938,-2.125 1.5937,-0.875 0.5,0 4.2187,-0.7188 5.5,1.5938 1,0.4062 6,3.4063 1.5938,2.5 -1.8125,3.6875 -1.375,1.3125 -2.5,2.8125 -0.7187,0.6875 -1.2813,1.8125 -2.2187,2.7812 -1.5,2.0938 -1.5938,2.4062 -0.4062,1.0938 -0.094,5.5 4.9062,3.9062 0.5,0.3126 4,1.5937 9,3.8125 0.4063,0.1875 4.0937,2.5 1.9063,2.4063 0.375,1.0937 0.8125,2.5 -1.1875,3.5 -0.2187,2.9063 0.094,1.6874 2.3125,1.5 1.5,1.0938 1.9062,1.125 0.5,0.094 7.0938,0.2812 6.0938,0 0.7187,0.3125 2.6875,0.9063 3.5938,1.2812 2.5,5.2188 0,2.7812 -1.2813,2.3125 -2.4063,5.0937 -0.4062,0.5 -0.8125,3.8126 0,2 1.625,2.4062 1,0.875 3.375,3.4062 0.625,1.0938 0,12.9062 1,2.8126 1.5937,4.0937 1.7813,4.6875 1.5,4.4062 -1.375,5 -2,2.2188 -2.2187,1.875 -1.0938,3.3125 -0.5,5.1875 -1.5,5.625 -0.094,6 0.1876,4.375 0.3124,2.7188 0.4063,9.1874 0,5.5938 -0.7187,3.3125 -0.4063,0.5937 -1.875,2.5938 -5.2187,3.3125 -4.7813,1.3125 -2.4063,0.094 -3.9062,0.094 -2.5938,-0.3125 -2.5,0.2188 -9.7187,0.6874 -2.1875,0.094 -3.1875,2.4062 -1.125,1.9063 -0.875,2.5937 0.5937,4.2188 0.5938,4 0.8125,5.0938 1.1875,5.5937 2.5938,4.5937 1.7187,1.5 2.7813,2.4063 2.0937,1.5 0.3125,0.5937 2.0938,3.5 0.8124,1.4063 1.1876,5.5937 -1.4063,4.7188 -1.2813,2.2812 -0.2187,0.5938 -1,3.125 0.7187,1.5 0.5,0.5938 2.1876,2.0937 1.5,1.5937 1.8124,1.8126 2.4063,2.5937 0.375,0.4063 0.8125,3.0937 1.0938,2.9063 1.2187,3.5 0.5,1.9062 2.375,9.6875 0.625,0.9063 3.875,4.6874 4.9063,5.8126 2.2187,2 2.5,1.7812 0.5,0.4062 2,1.0938 2.375,0.8125 2,1.3125 1.4063,0.6875 1.0937,0.9063 0.8125,2.0937 -0.094,0.5937 -0.3124,3.5938 -0.4063,3.125 -0.1875,2.5938 1,1.5 0.4062,0.1874 3.1876,0.8126 3.5937,0.094 3.625,0 0.7813,0.094 5.2187,1.2188 4.2813,0.875 4.4062,0.3125 3,-0.094 2.9062,1.9062 1.6876,1.375 0.8124,1 3.1876,3.9062 1.0937,1.4063 1.2187,1.1875 1.1876,0.9062 4.5937,4.0938 1.3125,1.2188 2,1.6874 3,2.5938 1.3125,1.5 0.7813,1 3.3124,4.125 0.094,0.5938 1.6875,7.5937 0.3125,3.9063 -0.5,1.2812 -1.8125,1.5 -3.0937,3.125 -0.5938,2.2812 0.1875,2.4063 0.8125,2.5 0.3125,0.4063 1.375,2.0937 0.625,0.4063 3.375,1.7812 6.4063,1.125 5.3124,-1.2188 0.9063,-0.1874 4.2813,-2.7188 0.5937,-0.375 3.125,-2.2188 16.875,-9.5937 2,-1.1875 8.2187,-5.125 0.7813,-1 2.8125,-3.0938 1.5,-1.7812 0.6875,-0.2188 3.125,-1.2812 2.5,-0.7188 1.875,-0.4062 3.8125,-0.875 1.8125,-0.4062 2.1875,-0.9063 2.4062,-1 1.5938,-0.5 5.5,-1.5 0.5,0.1875 5.4062,6.125 1.4063,1.5 1,0.5938 4.875,1.4062 6.125,1.5938 6,3 2.5,1.1874 4.0937,2.3126 7.1876,4 3.8124,5.2812 4.6876,6.4062 3.9062,5.0938 1,1.125 4,3.1875 2.1875,1.9063 0.9063,0.2812 6.4062,2 2.6875,0.7188 14.125,6.2812 4.1875,2.5 1.8125,3.625 -0.3125,2.6875 -4,7.6875 -0.5,3.625 2,4.1875 3.3125,4 2.7813,2.3125 0.3124,0.5 4,5.875 0.4063,1.7188 1.1875,4.5 0.8125,2.9062 1.7813,1.1875 1.9062,1.3125 2.4062,1.5938 3.7813,2.5937 0.3125,0.4063 1.1875,2.6874 0.7187,3.3126 0.6876,4 0,1.1874 -0.094,4.4063 0,5.0937 -0.4062,2.0938 -0.1876,3.5 -0.5937,7.2188 3.875,3.5 1,0.5937 3.4063,2 3.9062,2.5 1.6875,1 1.4063,2.0937 0.2187,2.5 0.2813,3.4063 3.5,3.5937 2.3124,2.3126 2.5,2.7812 0.4063,0.5 -0.2187,2.9062 -0.7813,2.5938 -1.125,3.5 0.9063,3.125 1,5 0.9062,4.875 2,9.9062 3.0938,4.0938 3.9062,5.3125 1.6875,4.3125 0.2187,2.875 -0.2187,1 -1.0937,4.8125 -2.6876,3.4063 -1.7187,1.4062 -0.5,0.375 -1,0.625 -3,1.6875 -3,1.8125 -3.1875,1.875 -0.9062,0.9062 -1.5938,1.9063 -6.3125,7.3125 -1.6875,1.2812 -1.9062,3.9063 0.3124,1.1875 0.4063,2.125 2.5937,3.5 2.7813,2.0938 0.8125,0.6874 3.5938,3 2,2.2188 0.5,0.5 2.8124,2.375 -1.0937,7 1.375,3.125 0.3125,0.7812 3.5,3.5 1.5,1.5938 1.9062,1.2188 1.0938,0.5937 2,1.3125 1.1875,1 4.3125,3.5938 4.0938,3.7812 0.3124,3.625 -1.4062,1.2812 -5.6875,5.3126 -1.8125,8.0937 -0.1875,1 5,6 0.7813,0.6875 3.5937,2.5 2.2187,1.7188 2.1876,1.9062 3.3124,2.5938 8.6876,5.9062 4,2.5 0.2187,0.5 0.375,1.7812 -0.375,2.2188 -2.3125,4.2812 -2.5,4.9063 -1.1875,5.6875 -0.9063,2 -3.5937,4.625 -2,2 -0.9063,7.1875 -0.094,1.1875 0.094,0.625 1,2.7812 1.4063,4.0938 5.875,10.7188 0.625,1.2812 1.375,2.2188 0.5,4.4062 -0.094,3.5 -0.094,5.1875 0.1875,3.5937 0.9063,3.5 1.5,2.5938 1,2 0.4062,0.625 1.6875,2.375 0.5,0.3125 3.5,2.8125 3.125,2.375 2.375,2.7188 1.2187,1.5937 1.1876,1.6875 0.5,0.9062 2.5937,4.5938 2.125,3.4062 5.1875,4.7188 1.1875,1 2.7187,1.6875 1.2813,0.8125 2.625,0.7812 2.5,0.7188 3.875,1.6875 0.4063,0.9063 0.4062,1.2812 0.5,0.8125 1.9062,3.1875 1.2813,1.3125 1.125,1.1875 3.0937,1.8125 2.5938,0.9063 2.9062,1.5 0.5,0 5.1876,0.2812 0.4062,0.125 2,1.0938 3.4062,1.9062 4.7813,7.0938 1,1 1.3125,1.0937 3.1875,1.0937 2,1.3126 2,-0.5 0.9063,-0.2188 0.7187,-0.2812 3,-1.8126 3.6875,-2.0937 1,-0.5937 0.5,-0.094 1.9062,1.375 1.5938,4.125 0.094,0.7812 0.3124,3.3126 0.5,5.0937 0.4063,3.5937 1.5,4.9063 0.5937,1.5937 1.7813,4.4063 0.8125,1 10,12.4063 2.3125,2.5937 3.1875,3.5 4.3125,4 2.5,0.3125 1.5,0.375 3.6875,-1.5938 1.4062,-1.1874 2.1876,-1.8126 1.2187,-1.1874 2,-1.5938 3,-2.3125 2.7813,-1.0937 1.2187,-0.5 0.6875,-0.5 1.9062,-1.8126 2.0938,-2 2.0938,-5.5 1.3124,-4 0.9063,-4.6874 0,-1 0.1875,-3.5 -0.1875,-6 -0.9063,-3.0938 -2.5937,-6.4062 -1.625,-4.0938 -4.5937,-7.9062 -0.5938,-0.9063 -1.4062,-2.6875 -2.1876,-1.9062 -0.5,-0.4063 -0.7187,-1.1875 -2.1875,-3.4062 0.5,-2.7188 0.1875,-1.375 2.125,-2.5 1,-2.2188 1,-2.5 1.5,-2.0937 0.375,-1.0937 0.625,-1.9063 0.375,-2.9063 0.625,-3.6874 1.6875,-2.7188 5.0938,-4.5938 2.5937,-2.2812 4.8125,-2.625 1.4062,-0.7812 0.6876,-0.3126 3.4062,-2.9062 1.1875,-1 1.8125,-2.2812 2.4062,-4.4063 2.7813,-4.3125 0.9063,-1.6875 3.8124,-5.4063 2,-2.5 3.5,-4.0937 3,-1.9063 1.6876,-1.0937 3.5,-1.0937 0.9062,-0.3126 0.5,0.094 2.5938,-1.0938 3.0937,-1.4062 4.7187,-0.6875 4,0.8125 2.1876,0.375 0.8124,-0.1875 1.5,-0.5 3.0938,-2 0.6875,-0.4063 2,-2.6874 2.7187,-3.5 1,-1.3126 0.5,-0.5937 8.4063,-4.8125 3.2813,-0.7812 4.5937,0.094 0.7187,0.1875 2.7813,1.125 4.125,1.5 1.5937,0.5938 2.5,1.1874 2.5,1 2.9063,1.0938 1.5937,0.7188 0.9063,0.7812 1.375,1.3125 3,3.1875 1.7187,0.2188 1.0938,0.4062 5.5938,2.1875 0.5,0.5 3,2.4063 3,2.5 0.4062,0 3.1875,-0.094 4.5,-0.625 2.7187,-0.375 5.0938,-1.8125 5.6875,-0.4063 0.4063,0 4.5,0.3126 2,1.5937 1.5937,2.8125 1.625,1.6875 0.2813,0.5 0.5,0.094 0.7187,0.2188 3.5,-1 4.0937,-1.3125 0.5,-0.1875 4.5938,-1.2188 1.3125,-0.1874 2.2813,-0.2188 0.5,-0.094 2,0.8126 2.3124,1.2812 1.6876,1.2188 2.9062,2.1874 1.9062,1.2188 1.7813,1.0938 0.7187,0.1874 3.4063,0.8126 2.5,0.4062 0.6875,-0.125 2.4062,0.625 3.0938,1.0938 0.4062,-0.094 3.5938,-1.5 4.3125,-1.4062 0.7813,-0.3126 3.4062,-1.5 0.6875,-0.4062 4.4063,0.5 0.7187,0.125 1.875,0 2,0.5 3.2187,2.1875 2.0938,1.6875 0.4062,0.3125 3.0938,2.0937 3.4062,1.8126 0.5938,0.094 0.5,0.1875 2.5,0.9062 2.5938,1.0938 0.8124,0.5 1.6876,1.125 2.4062,4.875 0.1875,0.625 1.5,3 0.4063,0.5 1,1.0938 1.0937,0.9062 1.7187,1.5 2.5938,-0.4062 2,-1.7188 1,-0.875 0.6875,-0.2188 3.3125,-2.5937 4.0938,-3.0937 1.2187,-0.9063 3.2813,-1.6875 3.4062,-1.7188 0.6875,-0.4062 3.5,-0.7812 0.625,-0.094 1.375,-0.2188 2.7187,-0.2812 3,0.875 0.9063,0.5 1.5,0.9062 0.375,0.5938 1,2 0.5,3.3125 0.125,1 0.6875,0.3125 2,2.1875 0.9062,1 2.0938,0.5937 0.4062,0 2.0938,0.094 0.5,0.2188 3.9062,2.1874 2,1.0938 1.4063,2.125 1.5,3.5 0.875,1.5 2,2.5938 3,1.2812 3.4063,0.125 2,0.094 2.5937,-0.5 4.5,-0.4063 0.625,-0.094 2.5,-0.7188 3.0937,0.7188 2.7813,1.4062 2,1.7812 3.9063,3.9063 4,1.1875 3,-0.1875 0.4062,-0.4063 3.0938,-4.0937 5.3124,-7.4063 0.5,-0.6874 1.6876,-3.4063 0.4062,-0.9063 2.4062,-6.6874 1.5,-3.7188 0.5938,-2.0938 0.5938,-2.6874 1.3124,-4.4063 0.5,-1.3125 1.4063,-4.0938 0.6875,-2.7812 1.1875,-2.9062 0.3125,-2 0.5,-3.5 0.3125,-5.0938 0.094,-6.625 -0.4062,-5.0938 -0.6875,-4.6874 -0.2187,-1 0.8124,-5.9063 0.094,-1.3125 1.1875,-4 1.4063,-4.6875 0.094,-0.6875 2.7187,-3.5 4.9063,-2 0.7813,-0.3125 3.2187,-0.9063 0.7813,-0.1874 4.9062,1 0.6875,0.094 2,0.5 10.8125,-0.5937 3.3125,-2.4063 -0.3125,-11.5937 8.5,-8.4063 10.6875,-3 1.2187,-5.3125 2.4063,-1.6875 13.5937,4.1875 3.1876,-1.2812 2.7187,-0.5 5.6875,-1.0938 6,0.875 6,1.5 3,2.625 2.4062,2 0.5,0.5938 1.2813,2.7812 0.3125,0.7188 1,3.0937 0.3125,3.5937 0.1875,1.0938 0.8125,3.4062 0.2813,1.3126 0.5937,1.5937 0.7187,2 2.5,1.3125 2,1 3.0938,1.5 3,1.2812 0.4062,0.094 1.5,0.625 7.7813,2.375 2.2187,0.625 3.2813,1.0938 3.9063,0.1874 5.8124,-3 1.2813,-0.6874 3.8125,-1.5 0.4062,0.094 11.5,3.5937 0.4063,0.2188 1.1875,0.375 4.9062,1.5 1.0938,-0.1875 3.5938,-0.3125 1.5937,-0.1875 3.3125,0 1.1875,0.5 5.2187,4.8125 3.5938,3.2812 2.8125,2.0938 0.875,0.7188 2.125,1.7812 2,1.2188 3.375,1.4062 4.125,0.375 0.5,-0.094 3,-1 0.6875,-0.4062 3.4062,-3.5 1.4063,-1.375 1.0937,-1.2188 4.4063,-1.2812 2,-0.7188 1.5,-0.6874 1,-0.2188 9.375,-2.6875 4.125,-1.0937 2.2813,0.094 3.3124,0.094 1,0.2188 2.2813,0.7812 4,3 4.125,3.0938 1.5,1.2188 3,1.7812 0.5937,0.3125 1.2813,0.5 1.7187,0.5937 2.9063,-0.1874 1.5,-3.2188 -0.7187,-0.7812 -3,-3.5 -2.2813,-2.5938 -2.2187,-2.625 -1.2813,-1.5 0.7813,-1.7812 1.7187,-1.7188 0.5,-0.375 3.875,-0.2188 1.125,0 1.375,0.3126 2.625,1.4062 2,0.7812 1,0 3.5937,0.2188 2.5,0.094 0.5,0.094 0.4063,0.1875 1,0.7188 2.0937,2.2812 2.1876,1.5 0.9062,0.4062 3.1875,1.4063 9.7187,0 3.7813,-0.5 4.9063,-1.3125 0.8124,-0.1875 2.7813,-2.1875 1.3125,-1.125 1.0938,-0.875 2.4062,-2 2.9062,-2.3125 3,-1.5 1.9063,-1 1.1875,-0.5937 1,-0.5938 1.3125,-1.4062 3.5937,-5.5938 0.6876,-0.4062 4.0937,-0.5 0.7187,-0.094 2.9063,0.5938 4.1875,0.2812 6.5938,0.625 0.8124,0 2.1876,-0.125 7.5,-0.2812 2.8124,-0.3126 3.2813,-0.2812 1.7187,-0.7188 2.4063,-1 0.875,-0.7812 2.3125,-1.9062 3.5,-2.5938 3.9062,1.7812 0.6876,0.3126 1.4062,0.6874 0.5,-0.094 1.0938,-0.3125 1,-0.5 2.8124,-1.5 1.9063,-1 0.5,-0.094 2.5,-0.2812 1.0937,1.375 0.094,0.8125 0.3125,2.9063 0.5937,2.5 1.1876,4.0937 0.2187,0.5 1.6875,3.5 0.3125,0.4063 2,2.6874 0.7813,0.8126 2.3124,3.7812 1.5938,2.4062 1,2 1.1875,2.8126 1.5,4.0937 1.5,4 1.4063,3 0.7187,0.8125 2.0937,2.2812 3.1876,2.8126 1.5937,1.7812 1.5,1.7188 1.3125,2 1.9062,3.7812 1.0938,2 0.5,0.4062 3.0938,2.9063 1.7187,-0.094 3.0937,-0.2188 0.4063,0 3.5937,-3 0.9063,-1.5 1.7813,-6.0938 2.8124,-3.9062 3.4063,-0.5 2.1875,-0.375 1.5938,-0.2188 2.3124,0.5938 2.6876,0.7188 2.9062,-0.094 3,-1 4.6875,-2.4062 2,-1.3126 0.5,-0.2812 2.4063,1.0938 1.5937,0.5937 1.2187,0.4063 3,0 1,-2.5 1.5,-1.4063 1.2813,-1.1875 1.4063,-1.7188 0.5937,-0.4062 3.625,-2.875 1.1875,-0.9062 3.1875,-1.3126 5.2187,-2.0937 5.5938,-1 1,-0.094 7.8125,-1.5 0.375,-0.094 4.7187,-2.3125 0.5,-0.1875 2.1876,-3.125 0.4062,-0.5 1.0938,-3.1875 0.2187,-0.5937 2.875,-3.4063 3.3125,-2 0.6875,-0.3125 1.5,0.125 1.3125,0.094 5.3125,-0.5938 4.5937,-0.125 4.5938,-0.2812 6,3.6874 3.5,2.2188 5.6875,1 3.125,0 3.5,0.094 2.6875,-0.2188 0.4062,0 0.4063,0.2188 3,1.2812 2.6875,0.9062 1,0.2188 0.5938,0.094 1.4062,0.2812 4.0938,-0.1875 3.5,0.5 8,3 0.8124,-0.4063 1.7813,-0.7812 2.625,-1.3125 1.6875,-1.0937 7.1875,-5.5938 0.625,-0.5 2.5937,-1.7188 0.6876,-0.5 5.8124,-1.0937 0.9063,-0.1875 4.0937,0 1.5,0.5 2.1876,0.6875 1.8124,1.1875 3.1876,2.125 1.7187,1.0938 1.875,0.9062 3.125,1.5 3,-0.4062 2.5937,-0.3126 1.9063,-0.9062 4.5937,0.625 1.0938,0.5938 1.9062,1.0937 3.1876,1.5 1.8124,1 1.9063,1.4063 4.6875,3.7812 0.6875,0.9062 2.2187,2.8126 1,1.9062 1.1876,1.875 2.2187,3.9062 0.6875,0.4063 2.0938,1.3125 2,0.5938 3.4062,-1.0938 2.6875,-2.3125 2.625,-2 0.5,-0.1875 3.0937,-0.8125 1.5938,-0.5 2,-0.5 3,0.094 1.5,0.3126 1.1875,-0.2188 2.5,0.7188 5,1.0937 4.625,1 0.6875,0.1875 2.5938,-0.5 1.9062,-2 -1.3125,-5.1875 -0.094,-0.8125 -0.5,-4.0938 -0.094,-1.4062 -1,-2.0938 -1,-1 -1.3125,-0.094 -0.7813,0 -2.3124,0.3125 -1.1876,0.1875 -1.9062,0.3125 -6.1875,-4.125 -3.2187,-2.0938 -1.2813,-0.9062 -1.125,-0.5 -3,-0.5 -2.0937,0.2188 -2,0.2812 -4.5,-1.2812 -0.5938,-0.8126 -0.5938,-1.6874 0.9063,-1.5938 1.375,-2.2188 1.3125,-2.0937 -0.094,-2.5 0,-1.4063 -0.2187,-0.6874 -2.0937,-2.4063 -2.9063,-3.1875 -2.5937,-2.9062 -2.5,-4.8126 -1.5938,-5.1874 -0.5938,-1.7188 -0.8124,-5.7812 -0.094,-8.0938 -0.094,-3.7188 1.7813,-7.6874 1.9063,-2.3126 5.3124,-4.6874 1.2813,-1.2188 3.125,-4.1875 1.5,-3.6875 -1,-2.4062 -2,-2.5938 -2.3125,-3.9062 -2.1875,-2.7188 -0.5,-2.5938 1.1875,-2.7812 1.8125,-0.3125 1.2813,0.094 2.9062,0.094 1.1875,0.3125 3.5,0.8125 3.125,0.7812 2.5,0.5938 2.1875,-1.5 1.9062,-3.1875 2.0938,-2.5 3.5,-5.1875 2.5938,-4.5 4,-7 1.5937,-3.7188 -0.1875,-3.2812 -0.4062,-4.625 -0.6876,-2.875 -0.2187,-0.9062 -1.375,-3.0938 -2.125,-3.5 -3.5937,-4.4062 -1.4063,-3.5938 -0.2813,-0.8125 -1.0937,-7.3125 -0.2187,-1.5 -0.094,-3.375 0.8125,-1.125 3.0937,-3.875 3.5,-2.625 1,-0.6875 7.6876,-2.5937 1,-0.4063 5.2187,-1.5937 2.5,-0.8126 7.0937,-3.0937 4.6876,-2.1875 2.0937,-0.7188 0.8125,-0.4062 2.6875,-0.2812 0.9063,0.2812 0.8124,0.3125 1.2813,0.5937 0.4063,0.3126 1.5937,1.7812 2.8125,3 0.4062,0.5 2.0938,2.625 0.6875,0.7812 2.625,1.4063 0.5,-0.094 4.5937,-0.5938 2.6876,-2.5 0.8124,-0.8125 3.0938,-3.5 0.5,-0.5 2,-4.4063 1.4062,-2.9062 0.4063,-4.5938 0.094,-2.0937 0.094,-2.4063 0.3125,-3.5 0.6875,-7.1874 0.3125,-0.7188 0.7813,-1.7812 0.5,-2.5 1.7187,-2.5938 3.7813,-2.2188 3.3124,-0.5 1.4063,-0.2812 3.6875,0.1875 2.9062,5.0937 2.5,4.4063 2.4063,4.5 0.2813,0.5937 5.9062,11.3126 0.6875,1.2812 3.3125,0.9062 3.5,0.9063 0.5938,-0.3125 3.9062,-1.2812 0.9062,-0.4063 4.6876,-2.0937 1.2187,-0.2188 3.5,1.3125 1.1875,0.8125 2.1875,1.875 1.7187,1.8125 0.1876,0.5937 1.5,3.7188 0,0.5938 0.4062,3.5937 0.1875,1.6875 2.625,3.3125 0.5937,0.5937 0.5,0.4063 1.5,1 1.9063,1.5 2.7813,2.5937 1.0937,1.0938 2.9063,2.7188 5.2187,4.9062 0.2813,0.2812 1,3.7188 0.9062,3.2812 1.3125,4.7188 6.5937,6.5938 1.1876,1.2812 1.2187,2.4062 0.7813,1.7188 1.5,3.375 1.0937,1.2188 1.8125,2.0937 1.8125,2 0.1875,0.4063 1.9062,3.4062 0.4063,2.0938 0.2813,1.4062 -1.7813,2.5938 -3.625,4.5 -1.375,2.7812 -1.2187,1.8125 0.094,4.9063 0.5,0.7812 1.9063,2.8125 0.5,0.3125 5,0.5938 4.5937,-2.2188 2.125,-0.5938 3,-0.9062 2,2.125 1.0937,3.2812 6.5,2.5938 0.7813,0.625 2.8125,2.1875 2.3125,3.6875 2.375,3.7188 3.5,5.4062 4,4.6875 1.5,1.9063 2.2187,2.5 -0.9062,1.5937 -1.6875,1.3125 -0.7187,0.094 -2.2813,0.1874 -3.5,0.3126 -0.8125,0.1874 -1.9062,0.5938 -0.9063,0.3125 -4,1.5937 -1.375,2.0938 -0.625,1.8125 0.625,1.9063 3.5,3.4062 0.5,1.375 1,3.2188 1.1875,4.9062 0.4062,1.375 0.2813,13.3125 0.3125,1.4063 1.1875,5.1874 2.2187,2.3126 0.7813,0.5937 4.5,1.5937 2.125,0 5.1875,-0.7812 2.9062,0.2812 2.6876,0.2188 2.8124,0.5938 7.6876,4.5 1.8124,0.7812 4,3.8125 1.5,3.0937 0.5,1.4063 0.6876,1.8125 0.5937,2 0.3125,1.875 0.3125,1.625 0.6875,3.875 2.0938,4.9062 1.5937,1.5938 2.625,0.7188 2.5,0.5937 3.5,0.5 1.0937,0.1875 4.5,3.125 0.2813,0.5938 1,1.5937 1.5,2.5937 2,3.5 2.3125,0.5938 0.9062,0.125 2.0938,0.2812 1.0938,0.094 1.4062,0.8125 1.5,0.5 1.5938,1.0937 0.9062,2.0938 0.094,0.8125 0.5,2.1875 -2,6 -0.2813,1.2188 -0.3125,4.5937 1,8.9063 0.5,0.9062 1.9062,4.1875 0.4063,0.9063 2.0937,4.5937 0.5,1 2.4063,3.0937 0.5,0.5 3.5937,3.0938 0.4063,0.4062 3.7813,3.5938 6.5937,2.4062 6.9063,2.5938 5.7187,1.5 8.5,2.2188 5.5,2.2812 5.5937,2.2188 0.4063,0.1874 9.875,2.4063 0.9063,0.1875 -1.5,-210.7812 8,-370 8.7187,0.094 190.5,1 14.2813,0.094 5.3124,0 53.7813,10.8126 99.8125,1.5 118.5938,1.6874 22.3124,0.3126 24,-5.5 134.9063,4.4062 53.2813,-8.5 221.4062,0 43.6875,-0.125 56,0 24.9063,-0.2812 110.5,-0.5938 67.0937,0 33.8125,-0.125 13.5,-0.094 56,-0.2812 9.0938,-0.125 14.2187,-0.094 39.7813,-0.2812 19.9062,-0.125 11.5938,-0.094 1,0 16.3124,-0.1874 7.5,0 8.7813,-0.2188 2.625,0.125 13.1875,0.375 52.0938,2.3125 5.4062,0.1875 28,-0.2812 36.0938,0.094 12.7187,-0.3125 9.875,-0.1875 7.9063,-0.1875 0.5937,0 15.8125,-0.125 16.1875,-0.094 15.8125,-0.094 16.3125,-0.1875 32.5,-0.2188 61.0937,-1.1874 15.7813,-0.3126 20.3125,-0.1874 21,-0.094 25.8125,-0.2188 11.6875,-0.1874 16.8125,-0.3126 4.0937,0 16.7813,-0.4062 11.7187,-0.1875 16.2813,-0.3125 15.7187,-0.2812 16.2813,-0.094 15.8125,-0.125 2.5,0 16.3125,-0.375 36.0937,-0.7188 16.2813,-0.2812 15.8125,-0.3125 25.5,-0.1875 52.4062,-1.3125 22.4063,-0.4063 8.5937,0.094 0.5,0 3.0938,0.4062 15.1875,-0.2812 80.3125,-1.7188 15.4062,-0.2812 1.9063,0 31.5937,-0.5 47.9063,-0.8125 28.875,-0.5 42.7187,-0.9063 11.6876,-0.2812 36.5937,-0.9062 160.8125,-3.9063 60,-1.8125 215.0938,-5.875 51.8124,-1.4062 181.0938,-2 8.1875,-0.5 146,-5.3126 47.3125,-1.9062 49.4062,-1.7812 326.9063,-13.0938 2.2813,-0.125 96.7187,-4.5 79.5937,-2.875 2.9063,-0.125 0.375,0 15.9063,-0.5 12.5937,-0.5 53.3125,-3.1875 8.0938,-4.1875 2.2187,-1.2188 17.875,-0.7812 107.8125,-5.2188 49.4062,-2.5937 2.6876,0 13.5,-0.6875 70.3124,-3.3125 236.4063,-12.1875 3.1875,-0.2188 28.8125,-1.5937 6.7813,-0.4063 9,-0.5 109.8124,-5.4062 36.0938,-1.7812 1.8125,-0.094 103.2813,-6.3125 9.2187,-0.1875 9.1875,-0.5 7,-0.3125 13.8125,-0.9063 2.5,-0.1874 26.5,-1.5 5.5937,-0.3126 8.4063,-0.5937 7.7813,-0.5 25.9062,-1.4063 47.8125,-2.5937 8.2813,-0.5 31,-1.9063 16.3124,-1 24.6876,-1.5 5.0937,-0.2812 11.4063,-0.7188 59.4062,-4 81.5,-5.9062 81.4062,-5.7812 56.2813,-3.5938 18,-1 16.3125,-0.9062 11,-0.8126 51.3125,-3.7812 15.1875,-0.5 18.8125,-1.625 13.6875,-0.875 -4.4375,-60.6562 -7502.75,0 z"
     id="rect14"
     inkscape:connector-curvature="0" />
</svg>
