<?xml version="1.0" encoding="UTF-8" standalone="no"?>
<svg
   xmlns:dc="http://purl.org/dc/elements/1.1/"
   xmlns:cc="http://creativecommons.org/ns#"
   xmlns:rdf="http://www.w3.org/1999/02/22-rdf-syntax-ns#"
   xmlns:svg="http://www.w3.org/2000/svg"
   xmlns="http://www.w3.org/2000/svg"
   xmlns:sodipodi="http://sodipodi.sourceforge.net/DTD/sodipodi-0.dtd"
   xmlns:inkscape="http://www.inkscape.org/namespaces/inkscape"
   width="7413.5"
   height="3411.4062"
   viewBox="0 0 7413.5 3411.4062"
   id="svg2"
   version="1.1"
   inkscape:version="0.48.1 "
   sodipodi:docname="Aa.svg">
  <metadata
     id="metadata20">
    <rdf:RDF>
      <cc:Work
         rdf:about="">
        <dc:format>image/svg+xml</dc:format>
        <dc:type
           rdf:resource="http://purl.org/dc/dcmitype/StillImage" />
      </cc:Work>
    </rdf:RDF>
  </metadata>
  <defs
     id="defs18" />
  <sodipodi:namedview
     pagecolor="#ffffff"
     bordercolor="#666666"
     borderopacity="1"
     objecttolerance="10"
     gridtolerance="10"
     guidetolerance="10"
     inkscape:pageopacity="0"
     inkscape:pageshadow="2"
     inkscape:window-width="1280"
     inkscape:window-height="1004"
     id="namedview16"
     showgrid="false"
     fit-margin-top="0"
     fit-margin-left="0"
     fit-margin-right="0"
     fit-margin-bottom="0"
     inkscape:zoom="0.097357373"
     inkscape:cx="4377.8195"
     inkscape:cy="577.3371"
     inkscape:window-x="-8"
     inkscape:window-y="-8"
     inkscape:window-maximized="1"
     inkscape:current-layer="svg2" />
  <path
	 style="fill:#9FAEC0"
	 stroke="#9FAEC0"
	 stroke-width="10"
	 transform="translate(0, 125)"
     d="M 106,0 105.906,1.5938 102.1872,77 85.3122,432.9062 78.9684,565.25 l 6104.5938,0 -0.062,-0.75 0.1875,-1.3125 0.7187,-1.7813 1,-3.2187 0.7813,-4.5 0.2187,-2 -0.4062,-2.5937 -0.5938,-4.4063 -0.9062,-4 -0.1875,-1 -1.9063,-3.375 -1.8125,-3.2187 -0.4062,-0.6876 -2,-3.4062 -1.875,-1.5938 -3.3125,-2.9062 -3.0938,-2.5938 -1.8125,-1.5937 -1.1875,-1 -7,-7 -6,-4.7187 -4,-3.1876 -2.8125,-2.2187 -4.4062,-3.1875 -2.2813,-1.6875 -4.4062,-2.9063 -6.5938,-4.0937 -1.2187,-0.7187 -3.0938,-3.0938 -8.5,-6.6875 -1.0937,-1 -6.3125,-8.125 -3.375,-4.375 0.6875,-3.7187 1.6875,-9.5 0.3125,-1.2813 1.5,-2.7187 2.5937,-4 2.4063,-3.6876 0.5937,-0.8124 2.5938,-3 1.9062,-2.0938 1.5938,-2.9062 6.125,-11.4063 0.375,-0.7813 -6,-9 -1.0938,-1.9062 -1,-0.9062 -4.6875,-1.5938 -3.5937,-1 -3.625,-1.5 -3.0938,-0.9062 -3,0 -3.5937,-0.094 -3.0938,-0.094 -1.3125,0 -1.7812,-0.2187 -6.3125,0 -1.4063,0.2187 -5,1 -1.4062,0.2813 -2.2813,0.4063 -14.7187,2.9062 -0.7813,0.1875 -4.3125,-0.1875 -4.5937,-0.094 -1.8125,0 -4.875,-1.2187 -5.125,-1 -4,-2.7813 -3.875,-2.8124 -0.7188,-0.5938 -3.4062,-2.5 -0.5,-3.9062 -0.5938,-5.1876 0,-1.3124 -0.2812,-2.1876 -0.125,-4.5937 0,-0.7187 -0.375,-4.7813 -0.125,-1.125 -3.5,-5.2813 -3.5938,-4.2187 -4.0937,-2.0937 -4.0938,-0.6876 -4.5937,-0.5937 -1,-0.3125 -6.625,-3.5 -9.5938,-7.4062 -2.7812,-1.1876 -4.5,-3.3124 -5.7188,-1.7813 -6.1875,-2 -3.4062,-1.125 -2.0938,-0.375 -5.2187,-1.2187 -7.5938,-1.9063 -2.9062,-0.6875 -2.2813,-0.094 -11.7187,-0.4062 -3,-0.1875 -0.5938,0.094 -4.0937,2.0938 -3.1875,1.5 -2.625,1.8125 -1.5938,1.2813 -5.0937,6.3124 -2.8125,2.2813 -4,1.5 -7.6875,-0.2813 -1.9063,-1.0937 -5,-3.625 -0.094,-1 0.5,-3.5 0.8125,-5.7813 0.375,-0.5937 1.3125,-3.7187 0.3125,-2.0938 0.375,-3.4062 -0.875,-2.0938 -0.7187,-3.4062 -2.1875,-3.2813 -2.9063,-4.4063 -0.6875,-0.7187 -3.5,-3.2813 -7.625,-4 -1.875,-0.3124 -4.125,-0.4063 -3.1875,-0.375 -3.9062,1 -3.0938,-0.4063 -1.5,0.5 -2.5937,1 -4,0 -2.5938,-0.5 -5.125,-1 -4.5937,0.1876 -1.2813,-0.2813 -3.3125,-0.3125 -8.1875,0.5 -5.125,0.8125 -4.5937,0.6875 -5.0938,0.6875 -3.3125,0.2187 -1.7812,0.094 -7.9063,-0.8125 -10.8125,-1.375 -1.7812,-0.5 -6.5938,-1.5 -2.8125,-0.625 -2.4062,-0.2813 -4.5938,-1.5 -4.1875,-1.3124 -4.4062,-1.0938 -3.0938,-0.6875 -3.2187,-0.8125 -2.5938,-1.5 -0.5937,-2.5 -0.9063,-3.5 -1.1875,-9.4062 -1.5,-2.5 -1.4062,-3.2813 -2.5938,-2.3125 -0.8125,-0.5938 -4.1875,-1.9062 -0.625,-0.3125 -6,-1.7813 -0.5937,-0.094 -11,-3 -23.2813,-2 -8,-4.125 -6.7187,-20.6875 -0.5,-17 -1.9063,-3.4062 -24.5937,-9.4063 -15.1875,4.125 -18.3125,-3.2187 -9.6875,-8.7813 -0.5,-0.2187 -3.5938,0.094 -3.5,-0.7813 -4.7187,-3.3124 -1,-0.5 -8.4063,1.2187 -6.6875,-1.8125 -9,-3 -7.3125,-0.9062 -10,1.7187 -1.5,0.875 -1,2.8125 -2.0937,3.5 -4.4063,2 -0.375,0.094 -11.4062,0.5 -5.4063,-1.1876 -5.0936,-0.094 -4.7188,1.875 -5.5,3.5 -5.5,5.7187 -3.2812,4.9063 -8.7188,6 -4.875,1.0937 -5.3125,-0.5937 -3.1875,-1.4063 -3,-4.3124 -2.7189,-2.5 -2.9061,-0.5938 -6.0939,0.3125 -1.1874,-1.4063 -0.4063,-4.2187 0,-6.5 -1.3125,-2.6875 -1.875,-0.5 -2.7188,0.1875 -5.5,1.625 -23,7.375 -2.6874,1.9063 -5.4063,6.0937 -6.5937,5.8125 -3,2 -16.7188,3.0938 -16.7812,2.5937 -5.8126,0.5 -4.0937,-0.1875 -3.1875,-1.0938 -2.2188,-1.9062 -1.6874,-3.3125 -0.7188,-4.0937 0.4062,-5.7813 -0.5937,-4.125 -1,-2.875 -1.6875,-1.125 -5.3125,-0.6875 -7.9063,1.1875 -5.0937,2.7187 -3.5937,2.7813 -7.5938,12.4063 -2.2188,3.5 -5.5937,8.9062 -3.1875,3.8125 -5.2188,3.1875 -3.7812,1.1875 -4.2188,-0.094 -3.1874,-0.5 -3.5,-1.9063 -5.5938,-5.375 -3.2188,-4.625 -1.7812,-4.875 -0.9062,-4 -2.9063,-3.2187 -7.5,-5.5 -4.3125,-2.0938 -6.375,-1.5938 -4.8125,0 -3.5937,1 -5.5,7.7813 -7.0938,8.5 -4.7188,5.3125 -4.7812,4.0938 -5.9062,2.0937 -5.8126,1.2187 -6.5937,-0.5 -4.9063,-1.2187 -3.4062,-2.1875 -16.375,-18.8125 -6.7188,-6.7813 -6.5,-5 -2.2812,-0.3124 -7.7188,0.7187 -14.1874,3.6875 -11.8126,6.3125 -3.5937,3.0937 -0.4063,4.4063 1.0938,3.1875 0,3.8125 -2.2812,3.5 -0.5,6.7813 -3,10.5937 -4.4063,7.5 -2.8125,7 -16.2812,23.7187 -4.2188,4.7813 -8,6.3125 -5.1875,5.3125 -6.3125,4.0937 -9.7812,4.4063 -11.9063,4.5937 -15.5937,3.5938 -1.8126,1 -17.5,3.5938 -18.1874,-1.5938 -17.9063,-6.9062 -9.3125,-15.4063 -22.0938,-15.2813 -15.5,-15.8124 -12.5,-7 -16.5,-22 1.7188,2.9062 -2.125,-0.1875 -3.0938,0.5 -2.5937,0.375 -5,0.5 -2.0937,0.2187 -4,-0.094 -0.5938,-0.125 -3.625,-0.875 -0.875,-0.2187 -4.7188,-1.4063 -6.5937,-2.375 -5.6875,-2.5 -0.8125,-0.4063 -5.3125,-2.3124 -3.375,-1.6876 -2.3125,-1.4062 -9.1875,-6.5938 -1.8125,-1.3124 -6.8125,-4.1876 -7.2812,-4.4062 -2.2188,-1.1875 -4.1875,-1.5 -2.6875,-1.125 -1.8125,-0.2813 -5.5937,-0.9062 -2.3126,-0.3125 -13.5,-3.5 -1.6874,-0.5937 -24.7188,-9.1876 0,-0.8124 -11.7812,-3.5938 -8.2188,-3 -8.0938,-3 -4.1874,-1.8125 -5.5938,-2.5 -7.7188,-6.0937 -4,-6.1876 -1.1874,-1.5 -2.4063,-3.0937 -3.0937,-3 -3.5938,-2.8125 -5.125,-3.1875 -2.875,-1.3125 -3.625,-1.5 -3.1875,-1.5938 -3.5,-2.2187 -4.0937,-0.6875 -4.0938,-0.8125 -5.125,-1 -3.5938,0.125 -2.5,-0.3125 -1.0937,-0.094 -5.5937,-1 -1,-0.2187 -4.0938,-2.0937 -1,-0.5 -3.9062,-2.5 -2.7188,-1.5938 -0.7812,-0.9062 -2.8126,-2.5938 -0.5,-0.5938 -3.4062,-3.5937 -2.0938,-2.4063 -3.5,-8.5937 -1.4062,-2.2187 -1.7812,-3.4063 -3.5938,-7 -2.625,-4.5 -2.1875,-4.375 -4.5937,-8 -4.0938,-7.125 -1,-1.5937 -3.7188,-6.7813 -2,-3.8125 -3.5,0 -19.5,0.5 -12.1874,0.1875 -119.3126,1.4063 -145.2812,1.3124 -313.8125,4.7813 -228.3125,0.4063 -94,1.2187 -4.1875,0.094 -282.9063,0.4063 -161.9062,-0.625 0,1 -159.375,0.625 -226.9062,-0.4063 -64.3126,-0.2187 -388.9062,-5.375 -366.6875,-6.3125 -61.5,-1.8125 -173.0937,-5.375 -28.9063,-0.9063 -67,-2.2187 -243.5937,-6.6875 -41.4063,-1.3125 -61.8125,-2.5 0,-4 -229.875,-4.5937 -2,0 -95.5,-3 -71.125,-2.2813 -1.375,-0.125 -43.4062,-1.5937 -44.5,-1.6876 -17.5,-0.5937 -34,-1.7187 -16.4063,-0.6876 -30.5937,-0.8124 -0.7188,0 -46.2812,-2.5 -15.3126,-0.6876 -15.9062,-0.8124 -47.0938,-2.4063 -65.1874,-2.5 -3,-0.1875 -26.5938,-1.0938 -6.8125,-0.2187 -21.3125,-0.875 -15.2812,-0.625 -51.5938,-2.1875 -2.625,-0.094 -5.7812,-0.3124 -10,-0.4063 -52.5938,-2.5937 -15.3125,-0.6876 -7.6875,-0.4062 -6.625,-0.3125 -31.1875,-1.5937 -15.3125,-0.7813 -18.875,-0.9063 -91.9062,-4.7187 -70.5,-3.6875 -28.4063,-1.5 z m 6136.5937,558.0938 -1,0.2187 -3.1875,0.6875 -2.4062,0.8125 -3.1875,1 -2.4063,0.7813 -1,0.5937 -4.7187,2.9063 -0.25,0.1562 37,0 L 6260,564 l -3.5938,-3 -4.2187,-1.3125 -1.875,-0.5937 -7.7188,-1 z"
     id="rect4"
     inkscape:connector-curvature="0" />
  <path
	 style="fill:#9FAEC0"
	 stroke="#9FAEC0"
	 stroke-width="10"
	 transform="translate(0, 100)"
     d="m 78.9687,565.25 -21.5624,450.3438 -4.5,94.9062 -0.3126,4.9062 -0.9062,19.4688 6517.625,0 0,-2.2812 -0.125,-3.7813 -0.375,-4.2187 -0.3125,-4.7813 -0.5,-1.2187 -1.8125,-0.7813 -3.6875,-2.5 -11.3125,-0.3125 -7.5938,3.0938 -7.4062,14.0937 -10,-1.2813 -4.0938,-5.2187 -0.2812,-3 2.5,-10.2813 7.7812,-5.5 4.5,-6.7187 0.5938,-2 0.3125,-3.5 -1.8125,-2.875 -0.7813,-3.4063 -6.2187,-4 -1.6875,-0.5937 -4.3125,-2.8125 -16,3.6875 -10.1875,-4.5937 -2,-3.5 -0.6875,-1.2813 -1.2188,-3.125 -3.4062,-9.1875 -1.5,-11 1,-13.3125 5.9062,-13.0937 2.0938,-12.5 -2.5938,-13 -5.7812,-5.2813 -1.2188,-2.3125 -8.1875,-4 -16,-3.5938 -6.2187,-6.9062 -2.375,-5.3125 -2.5,-6.6875 -6.8125,-6.3125 -12.3125,-6.5 -6.0938,-8 -0.9062,-3.5937 -0.5,-0.7813 -1.2813,-3.4063 -1.0937,-4 0,-2.5 -0.2188,-4.5937 0.3125,-2.5 -0.2187,-3 -0.094,-2 0.2187,-2.625 -0.5,-3 -2.7187,-6.875 -2.2813,-4.4063 L 6416,898.5 l -0.6875,-3 0.1875,-3.0938 0.3125,-0.7187 17.0938,-3.375 11.1875,-16.7187 -5.5938,-8.2813 0.1875,-8.625 -2.6875,-12 -7.1875,-9.875 -12.2187,-6.7187 -3.4063,-2.7813 -8.875,-13.9063 -3.2187,-18.4062 -1.2813,-8.5 -1.8125,-3.1875 -0.3125,-1.5 -7.875,-7.625 -21.625,-12.1875 -9,-15.8125 1.5,-12.1875 6.5,-12.5938 -7.5937,-20.0937 0.094,-18.3125 12.625,-16.0938 1.7812,-1.8124 4.3125,-5.1876 3.1875,-4.5 2.5938,-6.2187 0.8125,-7 0.5,-9.0937 -0.3125,-12.9063 -2.2813,-8.7813 -3,-7 -4.5,-5.7187 -6.9062,-3.875 -6.8125,-1.7187 -9.375,-1.9063 -11.2188,1.3125 -12.5937,2.1875 -1.4063,-0.094 -5.5937,2.0937 -5.9063,2.125 -3.9062,2.1875 -0.6875,0.4062 -2.9063,1.0938 -4.7812,1.6875 -2,0.7187 -7.9063,0 -0.8125,-0.094 -3.2812,-1.625 -3.125,-1.5 -3.7813,-4 -2.2187,-2.2813 -1.875,-2.2187 -3.125,-4.5 -3.5938,-5.375 -2.0937,-3.125 -1,-1.875 -4.5,-6.8125 -2.5625,-2.25 -37,0 -4.25,2.6562 -0.5,0.4063 -5.6875,4.875 -1.6875,1.125 -2.9063,1.875 -4,1.625 -2.4062,0.875 -1.6875,0.125 -3.2188,0.2813 -3.7812,-2.1876 -4.8125,-2.5937 -0.8125,-0.5 -4.875,-4.9063 -0.2188,-3.0937 -0.031,-0.5625 -6104.5937,0 z"
     id="rect6"
     inkscape:connector-curvature="0" />
  <path
	 style="fill:#9FAEC0"
	 stroke="#9FAEC0"
	 stroke-width="10"
	 transform="translate(0, 75)"
     d="m 51.6875,1134.875 -14.5938,310.9375 -0.094,3.0937 -6.9063,146.5938 -5.0624,109 6738.9687,0 -4.1875,-1.1875 -4.9062,-0.9063 -5.7188,-0.5 -5.5937,-2 -3.6875,-2.2187 -3,-2.2813 -1.5,-3 -1.5938,-5.0937 0.5,-3 1.7813,-3.5 1.8125,-2.625 2.5,-1.7813 3.5937,-3.2187 3.6875,-2.375 4,-3.2187 3.125,-3.0938 1.5,-4 1,-5 -1.625,-6.0938 -1.7812,-5.3124 -2.8125,-6.2813 -2.6875,-6.5 -3.5,-4.5 -5.4063,-4.4063 -4.1875,-1.2187 -6.625,0.9063 -4.7812,3.4062 -1.5,4.4062 -1.4063,5.4063 -0.1875,5.0937 -0.3125,3.0938 -2.1875,4.6875 -2.5,3.4063 -2.7187,2.5 -7.0938,1.0937 -3.5,0.5 -3.5937,-0.5 -4.8125,-1.5 -0.5,-0.1875 -2.4063,-0.8125 -4.5937,0 -4,-1.5 -4.2813,-3.1875 -3.4062,-3.8125 -5.2188,-7.6875 -2.0937,-4.4062 -2,-5.5 0,-4 0.7187,-5.0938 0.6875,-4.0938 1.5938,-4 2.5937,-2.8124 2.7188,-4.2813 2.2812,-2 3.125,-1.9063 1.375,-1.5937 1.4063,-2.7187 -0.7813,-2.4063 -2,-5 -3.2187,-3.7813 -8,-3.9062 -8.7813,-4.8125 -4,-2.375 -4.8125,-4.625 -2.5,-4.0937 -1.5937,-4 -0.5,-4 2.1875,-5 2.4062,-5.5938 3.9063,-6 2.7812,-3.3125 1.9063,-4.375 1.5,-5 1.7187,-5.125 0.375,-6.5937 -1.0937,-5.5 -2,-4.9063 -3.5938,-5.6875 -4.9062,-4.3125 -4.4063,-5.1875 -3.875,-4.3125 -2.9062,-4.2813 -0.9063,-4.5 -0.5937,-2 0.5,-7.5937 0.6875,-3.125 0.4062,-2.375 2.9063,-2.9063 3.5,-2.3124 2.7812,-0.9063 4.125,0.5 4.2813,0.125 5,-0.9063 4.5,0.1876 4.5937,-1 3.125,-1 1.875,-2.1876 0.8125,-3.0937 -0.3125,-4.5 -1.5,-4.9063 -3.1875,-3.4062 -2.9062,-2.5938 -4.0938,-1.9062 -6.1875,-2.0938 -2.8125,-1.3124 -3.9062,-2.6876 -2.5,-3.5 -0.5938,-5.0937 0.1875,-4.9063 1.2188,-4.7187 2.6875,-5.5 3.5937,-6.0937 4.125,-7.2813 5.375,-10 7.2188,-12 2.5937,-6.125 1,-6.0937 0,-6 -1.5,-4.4063 -4.1875,-4.6875 -2.4062,-1.9062 -3.2188,-1.0938 -3.5937,-0.4062 -3.6875,-1.2813 -3,-0.7187 -2.3125,-1.4063 -3.7813,-3.1875 -3.8125,-2.9062 -2.3125,-2.7813 -1.6875,-2.9063 -2,-3.4062 -0.6875,-4.5 0.5938,-6.1875 0.6875,-5.125 -0.094,-3.875 -1.5938,-5 -1.5,-3.625 -2,-2.2813 -4.3125,-2.7187 -4.5,-2.5 -5.0937,-2.875 -4.6875,-3.125 -1.2188,-1.0937 -2.7812,-2.6876 -3,-5.9062 -1.9063,-4.9062 -0.3125,-4.5 -1.0937,-4.5938 -1.5938,-3.8125 -4.5,-5.6875 -2.9062,-3.9062 -2.8125,-3.9063 -0.2813,-3.5 -0.2187,-2.7813 1.5,-2.0937 1.8125,-1.4063 3.3125,-1.0937 3.1875,-1.4063 2.9062,-2.7187 2.5938,-2.5 2,-3.5 1,-4.5937 0,-4.5 -1.5,-3.5938 -1.6875,-4.3125 -1.4063,-5.375 -1.3125,-4 0.3125,-3.5 0.4063,-3.9063 1,-4.0937 2.2812,-3.9063 1.8125,-3.7187 1.0938,-5.6875 -0.5938,-3.8125 -4.0937,-4.875 -4.125,-2.7187 -3.7813,-0.2813 -4.4062,-1.2187 -4.0938,0.094 -4.0937,0.5 -3.625,1 -3.5938,0 -2.7812,-0.2813 -2.8125,-2.2187 -2.5938,-2 -1.8125,-3.375 -1.7812,-4.625 0,-1.3125 -6517.625,0 z"
     id="rect8"
     inkscape:connector-curvature="0" />
  <path
	 style="fill:#9FAEC0"
	 stroke="#9FAEC0"
	 stroke-width="10"
	 transform="translate(0, 50)"
     d="M 25.0313,1704.5 21.3125,1784.8125 1.4063,2196.9063 0,2221.1875 l 401.9063,16.4063 159.5937,6.5 323.8125,12.0937 12.1875,0.5 278.6875,8.8125 28,1 252.0938,7.625 5458.2187,0 0.1875,-0.625 1.7187,-4.6875 2,-4 1,-5 0,-4.625 -0.2187,-4.7812 -1.875,-4.9063 -1.5,-3.9062 -3.2188,-3.7813 -2.5,-2.2187 -5,-1.9063 -5.7812,-2.0937 -4.2188,-1.6875 -3.4062,-2.3125 -3.0938,-2.2813 -0.4062,-0.9062 -2.2813,-2.0938 -2.5937,-4.5 -1,-4.8125 4.0937,-11.8125 3.7813,-7.5937 0,-8.6875 -2.5938,-6.2188 -10.7812,-10 -0.3125,-0.1875 -5.0938,-5.0937 -2.7187,-7.4063 0.2187,-2.9062 1.4063,-3.2813 3.7812,-3.8125 2.5,-3 3.2188,-3.5 2.875,-5.0937 2,-3.5 1,-5.0938 -0.5,-4 -1.5,-5.8125 -1.2813,-4.4062 -1,-6 -1,-7 0.6875,-5.0938 -0.4062,-4.5937 -0.6875,-3.4063 -1.9063,-4.5 -4,-5.1875 -2.4062,-4.4062 -2.2813,-4.4063 -3,-5.8125 -0.9062,-5.5 0,-5.375 1,-3.8125 0.5,-2.3125 1,-3.875 2.9062,-2.7187 1.9063,-1.6875 1.5937,0.6875 0.5,0 4.4063,0.5 4,1.5937 3.1875,1.4063 4,-0.4063 3.6875,-1.5937 2.5,-2.5938 1.625,-3.5 -1.125,-4.5 -1.5938,-2.8125 -2.5,-3.7812 -5.0937,-3.5 -6.6875,-2 -5.125,0.5937 -8.1875,0 -1.5938,0.1875 -3.5,0.3125 -5.9062,0.3125 -7.5938,1.0938 -6,0.1875 -5.5937,0.094 -3.9063,-1.7813 -3.7187,-1.5937 -0.6875,0 -3.8125,-4.8125 -2.2813,-3.9063 0.094,-6 0.094,-4.5937 1.8125,-4 3.5938,-6.0938 4.5937,-7.5937 2.7188,-5.5 0.7812,-4.125 -0.5,-6.5 -0.7812,-4.5 -2.5,-4.875 -2.4063,-4.7188 -2.5937,-3.5 -1.5,-3.5 -1.7188,-3.2812 -0.9062,-3.8125 -3.5938,-13.5938 -3.0937,-12.0937 -0.5938,-9.5 2.0938,-5.625 6.5937,-3.0937 7.7188,0 3.5937,1.5 2,3.2187 -0.2187,4.5936 -3.2813,6.7814 -1.4062,5.625 0.9062,9.0937 1.5938,1 1.8125,-0.3124 15.7812,-8.6876 6.3125,-5 2.6875,-4.7187 1.5,-7.6875 -0.6875,-10.0938 -1.5,-4 -2.5,-4.5 -4.7187,-4.5 -3.2813,-2.0937 -0.8125,-0.5 -4.4062,-1.3125 -5.1875,-0.6875 -5,0.875 -5.0938,0.4063 -5.3125,-0.5938 -8.2812,-2 -6.9063,-3.5938 -6.9062,-5.4062 -1.9063,-2 -4.7812,-3.1875 -2,-2.9063 -1.625,-4.5 -0.5,-4 1,-3 1.5,-1.5937 3.4062,-1.8125 3.8125,-3.3125 3.5,-2.2813 3.6875,-2.7187 3.5,-4.0937 1.3125,-2.4063 1.2813,-4.0937 -0.094,-5.0938 -2.6875,-4.4062 -2.3125,-4.2813 -3.1875,-5.4063 -2.0937,-3.9062 0,-3.5938 1,-3.5 1.1875,-4.0937 1.9062,-3.5 2,-4.125 0.5,-3 -1,-6.375 -1.5,-6.4063 -1.3125,-4 0.7188,-5.4062 1.6875,-4.4062 2.3125,-3.6876 3.0937,-3 2.5938,-2.4062 1.3125,-3.6875 0.6875,-4.5 -2.4063,-5 -3.4062,-4.3125 -2.375,-3.8125 -3.7188,-2.2813 -3,-1.2187 -3.5937,-0.5 -5.5938,0 -4.3125,0.4063 -3,1.7187 -3.9062,1.7813 -5.1875,-0.094 -4.5938,-2.6875 -3.4062,-1.8125 -4.3125,-2.6875 -4.1875,-1.3125 -6738.9687,0 z"
     id="rect10"
     inkscape:connector-curvature="0" />
  <path
	 style="fill:#9FAEC0"
	 stroke="#9FAEC0"
	 stroke-width="10"
	 transform="translate(0, 25)"
     d="m 1456.2813,2274.125 227.3124,6.875 -6.5,280.5 -1.2812,56.5 -4.9062,225.7813 5422.9999,0 0,-0.375 -0.5937,-4.3125 -2.125,-5.4063 -2.2813,-4.7812 -3.5937,-4.9063 -6.4063,-6.9062 -6,-3.5938 -13,-9.0937 -2.5937,-5.5 0.1875,-8.5938 0.4062,-9.4062 -0.3125,-5.5938 -2,-5.125 -2.9062,-5.375 31.3125,-15 4.6875,-7.3125 2.125,-16.0937 -3.5,-9.3125 -5.5,-3.4063 -8.8125,-13.7812 -12.8125,2.9062 -5.875,4.2813 -1.125,31.8125 -9.2813,8.0937 -1.3125,-2.3125 -3.6875,-3.6875 -7,-0.6875 -4,1.6875 -8.9062,2 -9.8125,0.1875 -9.5,-2.0937 -5.5938,-3.5938 -2.4062,-5.5 4.3125,-13.4062 -0.1875,-5.9063 -10.5,-21.1875 0.5,-5.5937 6.6875,-8.5 9.8125,-7.9063 3.5,-12.8125 -2.5,-6 -15.625,-12.875 -3.2813,-20.4062 -4,-7.9063 -17.4062,-16.1875 -22.9063,-4.125 -17.7812,-10.2812 -9.2188,-27.4063 -6.1875,-6 -20.5,-9.5 -3.5,-7.9062 -2.4062,-12.6875 5.0937,-16.5938 8.9063,-10.3125 22.5,-13.5937 4.5937,-6.2188 3,-9.7812 -0.094,-2.2188 -0.9062,-3.875 -2.2813,-4.4062 -3,-5.4063 -1.3125,-3.9062 -2.1875,-4.9063 -1,-5.5 0.094,-4.0937 0.6875,-4.5938 2.7188,-6 1.0937,-4.8125 -1.5937,-9 0.094,-4.5937 -3.2187,-5.6875 -3.0938,-5.0938 -1.4062,-3.3125 -1.1875,-4.1875 1,-4.625 1,-3.5 1.6875,-4 2.4062,-2.0937 4,-1.4063 4.5,-1.875 5.3125,-0.8125 3.6875,-2.3125 L 6934,2355 l 3.0937,-4.0937 1.5,-6.5 0,-10.0938 -1.1875,-3.3125 -4,-4.3125 -4.5937,-4.5 -4.7188,-4.375 -4.5,-5.625 -4.6875,-9.5937 -1.5937,-6.2813 -1,-7.3125 0.5,-4.5 0.5,-6 1.1875,-4.375 -5458.2187,0 z"
     id="rect12"
     inkscape:connector-curvature="0" />
  <path
	 style="fill:#9FAEC0"
	 stroke="#9FAEC0"
	 stroke-width="10"
     d="m 1670.9063,2843.7813 -1.3126,61.0312 -2.2812,100.5938 -8.4062,383.5937 159.9062,3.6875 70.375,1.5 132.7188,2.3125 66.6874,1.0938 114.9063,1.8125 35.3125,0.7812 40.0938,0.7188 20,0.2812 254.7812,4.125 205.7188,2.5 2.4062,0.094 14.5,0.094 46.5,0.5 419.1875,2.8125 2.3125,0 11.5,0 156.0938,0.094 314.2812,-0.5 1.3125,0 293,-1.5 71.0937,-0.5 17.0938,0 96.2188,-0.8125 57.5937,-0.5 231.1875,-4.0937 24.9062,-0.5 166.5938,-2.9063 195.625,-3.6875 210.0938,-3.4062 30.4062,-0.5938 54.5,-1.5937 92.5938,-2.625 3.1874,-0.094 381.3125,-10.4062 2.0938,-0.094 29.6875,-0.6875 284,-8.0937 70.7187,-2.2188 95.2813,-3.2812 289.7187,-11.625 3.0938,-0.094 192.5,-6.5938 194.5937,-8.5 8.7188,-0.4062 182,-8.6875 205.5,-10.3125 80.875,-3.0938 9.7187,-0.6875 85,-4.2187 27.0938,-0.6875 -1.9063,-7.7188 -4.5,-5.875 -18.5937,-6.5 -11.5,-10.625 -12.4063,-1.6875 -7,2.6875 -8.1875,3.4063 -7.0937,0.3125 -5.125,-0.9063 -6.5,-2.3125 -7.2813,-5.7812 -3.9062,-5.8125 -2.9063,-6.9063 -1.5,-5.5 -1.5,-7.375 1.3125,-5.2187 1.4063,-3.6875 3.1875,-3.3125 2.8125,-3.7813 1.375,-3.7187 0.4062,-4.1875 -1,-3.5938 -1.4062,-5.2187 -0.2813,-4.1875 1,-4.0938 2.0938,-3.7187 2,-2.1875 4.5,-4.0938 3,-3.125 1.1875,-3.6875 0.3125,-3.9062 -0.5938,-4.7813 -1.0937,-4 -2.2188,-3.3125 -2.5,-2.6875 -4.5937,-2.125 -4.3125,-0.5937 -3.875,0.3125 -6.4063,-0.7188 -6.2187,-4.375 -4.375,-6.9062 -2.3125,-17.5938 -7.6875,-6.7187 -15.4063,-5.5938 -16.5937,-17.0937 -3.2188,-7.7188 -0.6875,-9.375 9,-18.9062 0.5,-11.5938 -1.7187,-7.2187 -5.5,-8.9063 -11.375,-6.1875 -27.7188,1.0938 -18.4062,-8.6875 -7.875,-3.5938 -2.3125,-2.4062 -1,-3.2188 -0.094,-4.375 3.6875,-17.125 -2.1875,-5.5 -7.9063,-6.5 -17,-1.6875 -14.6875,-10.6875 -10,-4.2187 -6.4062,0.8125 -23,10 -5.5,-0.9063 -5,-4.0937 -0.7188,-5.5 3.125,-7.9063 19.6875,-10.1875 3.8125,-3.9062 1.875,-7.3125 -4.375,-13.0938 -12.5,-14.4062 -3.625,-22.6875 -14.1875,-23.7188 -2.4063,-7.875 3.3125,-10.3125 0.9063,-3.6875 0.094,-4.5312 -5422.9999,0 z"
     id="rect14"
     inkscape:connector-curvature="0" />
</svg>
