<?xml version="1.0" encoding="UTF-8" standalone="no"?>
<svg
   xmlns:dc="http://purl.org/dc/elements/1.1/"
   xmlns:cc="http://creativecommons.org/ns#"
   xmlns:rdf="http://www.w3.org/1999/02/22-rdf-syntax-ns#"
   xmlns:svg="http://www.w3.org/2000/svg"
   xmlns="http://www.w3.org/2000/svg"
   xmlns:sodipodi="http://sodipodi.sourceforge.net/DTD/sodipodi-0.dtd"
   xmlns:inkscape="http://www.inkscape.org/namespaces/inkscape"
   width="5256.9062"
   height="7768.875"
   viewBox="0 0 5256.9062 7768.875"
   id="svg2"
   version="1.1"
   inkscape:version="0.48.1 "
   sodipodi:docname="Aa.svg">
  <metadata
     id="metadata20">
    <rdf:RDF>
      <cc:Work
         rdf:about="">
        <dc:format>image/svg+xml</dc:format>
        <dc:type
           rdf:resource="http://purl.org/dc/dcmitype/StillImage" />
      </cc:Work>
    </rdf:RDF>
  </metadata>
  <defs
     id="defs18" />
  <sodipodi:namedview
     pagecolor="#ffffff"
     bordercolor="#666666"
     borderopacity="1"
     objecttolerance="10"
     gridtolerance="10"
     guidetolerance="10"
     inkscape:pageopacity="0"
     inkscape:pageshadow="2"
     inkscape:window-width="1280"
     inkscape:window-height="1004"
     id="namedview16"
     showgrid="false"
     fit-margin-top="0"
     fit-margin-left="0"
     fit-margin-right="0"
     fit-margin-bottom="0"
     inkscape:zoom="0.070243744"
     inkscape:cx="3169.4386"
     inkscape:cy="4274.6804"
     inkscape:window-x="-8"
     inkscape:window-y="-8"
     inkscape:window-maximized="1"
     inkscape:current-layer="svg2" />
  <path
	 style="fill:#9FAEC0"
	 stroke="#9FAEC0"
	 stroke-width="10"
	 transform="translate(0, 125)"
     d="m 110.2813,0 -1.1875,44.78125 -0.5,22.3125 -1.0938,25.09375 -0.1874,7.1875 -3.4063,106.8125 -2.5937,101.90625 -0.7188,25.1875 L 99.3126,371.1875 88.5,691.09375 85.3126,787.78125 83,834.59375 l -1.5,45.1875 -0.5937,15.3125 -1.9063,49.1875 -4.5,132.09375 -3.1874,97.8125 -2.7188,97.6875 -0.2812,13.5938 -0.2813,9.3437 5026.0625,0 -3.5938,-111.5312 -0.5,-16.1875 -0.6874,-23 -0.2188,-7.7188 -0.6875,-16.0937 -0.5937,-16.0938 -0.3126,-6.9062 0,-10.3125 -0.3124,-4.875 -0.2813,-11.7188 -0.4063,-14.1875 -0.5937,-16.5937 -0.7187,-17.1251 -0.5938,-15.5937 -0.1875,-4.4063 -0.3125,-12.7812 -0.2812,-5.8125 -0.4063,-10.78125 -0.3125,-5.40625 -0.094,-8.71875 -0.5,-7.375 -0.094,-10.3125 -0.5937,-16.59375 -0.5,-16.09375 -0.2188,-3.8125 -0.1875,-12.90625 -0.3125,-4.78125 -0.2812,-11.8125 -0.5,-14.09375 -0.7188,-17.71875 -0.5,-16.09375 -0.5938,-16.09375 -0.5937,-17.09375 -0.5937,-16.21875 -0.5,-13.09375 -0.625,-18.59375 -0.5938,-16.1875 -0.5938,-16.125 -0.094,-2.6875 -0.4063,-14.5 0,-3.1875 -0.3124,-11.40625 -0.1876,-4.21875 -0.3124,-9.375 -0.1876,-6.71875 -0.3124,-11.40625 -0.5,-16.1875 -0.5938,-16.59375 -0.094,-3.21875 -0.8124,-14 -0.094,-3.1875 -0.1875,-12.90625 -0.2187,-5.1875 -0.1876,-8.40625 -0.4062,-7.6875 -0.2812,-10 -0.5,-16.125 -0.5,-16.59375 -0.125,-3.6875 -0.5,-13.5 0,-2.59375 -0.375,-5.125 -0.5,-10.5 -0.4063,-13 -0.094,-3.1875 -0.4063,-13.5 -0.5937,-16.59375 -1.8126,-49.5 -0.5937,-16.21875 -1.7187,-46.78125 -0.6876,-18.71875 -0.5937,-16.59375 -1.7187,-47.40625 -2.375,-65.59375 -0.625,-15.09375 -1.0938,-31.1875 -1.9062,-49.5 -1.0938,-31.21875 -0.6875,-17.78125 -0.4063,-15 0,-1.71875 -0.5937,-16.375 -216,0 -33.5937,1.375 -33.3126,0.90625 -16.3124,0.5 -113.0938,2.8125 -49.1875,0.875 -1,0 -14.9063,-0.0937 -16.4062,-0.0937 -14.1875,-0.3125 -85.5937,0 -46.5,0.3125 -16.9063,0.1875 -17.9063,0.21875 -2.5937,0.0937 -12.2187,0.6875 -14.875,0.90625 -2.125,0.21875 -15.2813,1.1875 -14.3125,0.8125 -32.6875,2.1875 -14.4063,0.59375 -43.9062,1.59375 -75.1875,2.21875 -75.9063,2.59375 -4.4062,0.40625 -7.4062,0.0937 -89,0.90625 -28.6876,0.40625 -16.4062,0.1875 -13.7812,0.0937 -36.625,0.5 -13,0.21875 -16.375,0.1875 -133.625,2.09375 -92.5938,1.3125 -118.7812,1.40625 -11,0.1875 -50.9063,0.59375 -7,0.0937 -30.4063,-0.0937 -94.5937,-0.40625 -11.7187,-0.0937 -15.5,0.21875 -163.0938,1.59375 -2.1875,0.0937 -14.2187,0.0937 -34.875,0.3125 -154.625,-0.3125 -5,0.21875 -70.6876,0 -252.3124,-0.5 -9.7813,-0.125 -0.4063,0 -166.5937,1.3125 -46.0937,0.5 -94.4063,-0.1875 -74.2187,-0.71875 -11.5938,0 -21.6875,-0.0937 -23.3125,-0.0937 -44.5938,0.0937 -3.6874,-0.0937 -28.625,-0.0937 -15.2813,-0.125 -32.3125,-0.0937 -5.6875,0 -47.5,-0.28125 -0.5937,0 -27.625,-0.125 -18.5,-0.1875 -80.7813,-0.5 -76.8125,-0.3125 -19.5,-0.1875 -29.6875,0 -47.0937,-0.1875 -16.4063,-0.125 -33.2187,-0.1875 -15.375,-0.0937 -16.9063,-0.0937 -65,-0.40625 -30.8125,-0.21875 -32.6875,-0.1875 -32.8125,-0.3125 -134.9062,-1.1875 -149.875,-1.3125 -3.4063,0 -108.7187,-2.78125 -116.0938,-3.71875 -80.5,-1.375 -148.7812,-3 -26.9063,-0.5 -114.0937,-2.125 -1.3126,-0.0937 -5.4062,-0.40625 -2,0.40625 -1.0938,0 L 478.4048,8.469 414.1861,5.594 306.9985,1.37525 l -22.5,-1.1875 -2.6874,-0.0937 -1.9063,-0.0937 -169.625,0 z"
     id="rect4"
     inkscape:connector-curvature="0" />
  <path
	 style="fill:#9FAEC0"
	 stroke="#9FAEC0"
	 stroke-width="10"
	 transform="translate(0, 100)"
     d="m 68.0313,1294.8125 -0.7187,24.875 -0.3126,9.5938 -1.0937,46.3125 -2,72.5 -2,79.5937 -0.5,22.1875 -0.2187,8.5938 -1.2813,39.2187 -0.5,22.1875 -0.3125,11.5938 -1.9062,73.5 -0.5938,22.2187 -0.1875,5.5 -2,51.2813 -1.9063,69 -0.4062,14.7187 -2.2812,53.7813 -0.625,13.5 -0.094,3.2187 -0.5938,15.5937 -0.5937,16.0938 -1.0937,32.2188 -1.625,50.1874 -1.0938,34.4063 -0.1875,4.4063 -1,24.0937 -0.5,16.7813 -0.5937,10.9062 0,3.2188 -0.7188,12.875 -3.5,71.4062 -0.5938,13.4062 -1,17.3126 -0.5937,14.875 -0.5,11.8124 -5.2187,134.1876 -0.7813,13.5 0,2.2187 -0.9063,13.9063 -0.094,3.1874 -0.5,13.5 -0.094,2.5938 -0.8126,14 -0.094,1.5938 -0.8125,13.5 -0.094,1.625 -0.4062,15 -0.6875,16.5937 -0.5937,16.0937 -0.5,14.1876 -1,26.1562 5110.7187,0 -3.7187,-101.25 -1.2188,-32.6875 -5.2812,-143 -3,-85.0937 -5.8126,-151.625 -2.1874,-55.1876 -1.8126,-53.0937 -6,-236 -3.1874,-139.3125 -1.2188,-54.2812 -0.5,-24.8126 -0.1875,-6.9062 -1.9063,-82.0937 -0.5937,-28.9063 -0.5,-21.5 -0.5937,-29.7812 -0.3126,-18.125 0,-3.0938 -0.9062,-28.0625 -5026.0625,0 z"
     id="rect6"
     inkscape:connector-curvature="0" />
  <path
	 style="fill:#9FAEC0"
	 stroke="#9FAEC0"
	 stroke-width="10"
	 transform="translate(0, 75)"
     d="m 22.3126,2589.625 -0.9063,24.0625 -0.5937,16.6875 -0.625,17.0938 -0.5,12.125 -1.875,50.2812 -0.4063,15.0938 -0.9063,32.7187 -1.4062,48.7813 -0.7812,14.625 -0.125,1.5 -1.375,33.1874 -0.7188,14.5938 -0.5938,15.5938 -0.8124,18.625 -1.5938,32.1874 -0.7812,17.0938 -0.2188,15.0938 0,1.125 -1,16.0937 -0.5938,14.5 0,4.0937 -0.8124,42.8126 -0.375,27.5 -1.8126,49.2812 -0.1874,11.7188 -1.2188,59.875 -0.7812,48.7187 -1.3126,74.5937 42.1876,39.3126 26.4062,24.5937 3.5938,3.5 10.7187,10.0937 46.6875,44.0938 17.7188,16.8125 3.1874,3 27.4063,25.5 2.1875,1.4063 29.8125,28 7.6875,7.1874 12.2188,11.8126 21.2812,20.375 21.4062,19.8124 52.0938,48.5938 6.5938,6.2188 9.3124,8.6874 17.5938,16.4063 21,19.5937 2.0938,2 81.125,75.9063 4.375,4 101,95 35.5312,33.25 4570.5,0 -3.0312,-92.75 -0.5938,-19.7187 -0.5,-13.5 -2.6875,-83 -1.4063,-40.2813 -1.6874,-49.8125 -0.2188,-7 -1,-30.6875 -1.5938,-47.9063 0,-1.5 -1,-20.5937 -0.6874,-15 -3,-62.9063 -1.5,-32.6874 -2.2188,-47.5 -0.094,-1.2188 0,-7.4062 -0.4062,-16.5938 -1.6875,-73.6875 -0.8125,-35.7187 -2.4062,-108 0,-1.2813 -2,-69.5 -0.375,-14.5937 -1.625,-52.625 -0.7813,-28.375 -0.5,-16.625 -0.7187,-28 -1.5,-53.5938 -0.5,-16.0938 -2.375,-81.5 -3.4063,-114.8124 -0.375,-10.3438 -5110.7187,0 z"
     id="rect8"
     inkscape:connector-curvature="0" />
  <path
	 style="fill:#9FAEC0"
	 stroke="#9FAEC0"
	 stroke-width="10"
	 transform="translate(0, 50)"
     d="m 603.2188,3884.4375 42.6875,39.9375 17.7813,16.7188 37.4062,34.6874 17.5,16.4063 10.4062,9.6875 104.5938,98.0938 22.5,21.2187 33.2188,30.9063 7.0937,6.5937 29.7813,27.7813 45.2187,42.125 24.5,23.0937 34.9063,32.7813 10.5,9.9062 49.0937,46 95.1875,89 54.4062,50.8125 38.8126,36.0937 28.5937,26.5938 37.2813,35 28.4062,26.2188 32.2188,30.1874 60.375,56.5 90.2187,84.3126 65.6875,61.2812 25,23.5938 21.4062,20.3124 29.0938,27.4063 61.9062,58.2813 102,95.625 1.5938,0.094 73.0938,68.2813 9.5,8.8124 43.3437,40.5 3224.7813,0 -5.8126,-161.5 -0.9062,-24.0937 -1.6875,-48.3125 -1.5,-40.9062 -0.7187,-17.0938 -1,-24.5 -1.375,-39.5 -0.125,-1.6875 -0.6876,-23.7187 -1.3124,-49.7813 -0.5,-16.5937 -1.875,-69.7188 0,-1.6875 -3.5,-126.0937 -0.125,-2.3126 -1.875,-138.5937 -0.125,-2.4063 -4.1876,-130.3124 -0.8124,-25.0938 -1.7813,-54.7812 -9.6875,-296.1563 -4570.5,0 z"
     id="rect10"
     inkscape:connector-curvature="0" />
  <path
	 style="fill:#9FAEC0"
	 stroke="#9FAEC0"
	 stroke-width="10"
	 transform="translate(0, 25)"
     d="m 1988.5313,5179.2812 5.875,5.5 37.5,34.6876 49.0937,46 6,5.7187 6.5,6.1875 53.6876,49.7188 5.5,5.1874 137.8124,128.8126 49.5938,46.5 8,7.2812 8,7.2188 19.5,18.5937 12.0938,10.9063 67.125,63 0,1.1874 142,132.3126 21.0937,19.5937 2.4063,2.1875 12.5937,11.7188 36.1875,33.5 29,26.875 9.5,8.9062 31.5938,29.8125 2.7187,2.5 47.4063,44.1875 74.7812,69.5 26.7188,24.7188 16.1874,15.0937 2.4063,2.1875 54.9063,51.5938 18.5,17.125 13.6874,12.5937 30.8126,28.6875 12.5937,11.8125 122.2813,113.9063 72.2187,66.875 10.9063,10.3124 47.375,44.3126 52.7187,49.5937 2.5937,2.4063 27.5313,26 1851.1875,0 4.875,-10.125 4.0938,-11.5938 0.4062,-1.1875 0.5938,-1.4063 2,-4.8124 5.9062,-7.5938 0.5,-0.5938 6.5938,-5.5937 5.2187,-1.3125 0,-10.6875 -0.9063,-29.2187 -8.9062,-286 -0.9062,-27.5 -2.6876,-74.375 -5.1874,-145.8126 -3.7188,-104.3124 -0.094,-3.375 -0.6874,-16.625 -0.9063,-20.6876 -6.5937,-172.0937 -0.125,-2.2187 -12.875,-357.6876 -3224.7813,0 z"
     id="rect12"
     inkscape:connector-curvature="0" />
  <path
	 style="fill:#9FAEC0"
	 stroke="#9FAEC0"
	 stroke-width="10"
     d="m 3375.5313,6474.0938 10.0625,9.5 22.5938,21.0937 37.7187,35.4063 12.1875,11.2812 51.4062,48.0938 37.0938,34.625 31.0938,28.875 20.8124,19.4062 188.9063,176.4062 34.0937,31.9063 3,-0.094 18,17.0937 34,32 51.1876,47.0937 13,12.4063 87.125,80.6875 11,10.4062 179.2812,167 10,9.3126 3,3.0937 46.5938,43 43.5,40.7813 17.125,16.125 16.5,15.5 27,24.7812 15.5,14.5 42.5937,39.8125 29.5,27.4063 13.5937,12.5 99.5938,93.0937 51,48.0937 19.5,18.0938 9.5938,10 19.4062,17.5 8.8125,8.0938 16.2813,15.2187 16.9062,16.0937 1.7188,1.5938 14.875,14 24.5,23 -1.6876,-6.0938 -0.5,-2 -0.9062,-4.1874 0.094,-2.3126 0.125,-2.5937 0.094,-3.2187 -0.3125,-3.5 -0.4062,-6 0.5,-6.875 2.625,-7.125 1.6874,-2.875 4.3126,-4.8126 5.375,-4.0937 0.9062,-0.7187 3.7188,-2.0938 4.0937,-2.4062 2.0937,-3.7813 1,-1.8125 2.0938,-7 -1.1875,-5.7812 -1.9063,-4.3126 -3.6874,-4 -4.3126,-3.3124 -2.1874,-2.2813 -1.125,-0.9063 -3.5938,-2.8124 -2.5,-0.7813 -1.7812,-0.8125 -1,-0.4062 -2.2188,-0.875 -3.0938,-1.4063 -5.8124,-2.5937 -3.375,-2.2188 -2.125,-1.4062 -2.5,-5 -0.375,-3.5 2.5,-4.0938 5.1874,-6.5 4.9063,-3 5.0937,-3 4.4063,-1 1.5937,-0.4062 5.5938,-1.2813 7.7188,-0.4063 9.1874,-1 7.1876,-1.4062 5.625,-1.9062 4.0937,-4.0938 0.5,-1.0938 2.5937,-6.4062 0.5938,-3.2812 -0.5,-4.8126 -0.4062,-1.6874 -0.6876,-3.5 0.3126,-1.8126 0.875,-4.5937 2.7187,-8 -0.2187,-3 -0.1876,-5 -0.094,-1 0.4063,-3.5937 0.2812,-2.5 0.094,-1.5 0.2187,-3.125 -1.5,-6.5 -1.8125,-6.875 0.3125,-5.2188 -1.3125,-4.2812 -1.1875,-2.3126 -1.0937,-2.1874 -3,-2.8126 -2,-4.5937 0.094,-6.4063 -0.2187,-3.0937 -0.2813,-4.5 -0.094,-1.5937 -0.625,-4.4063 -1.375,-4.5937 -1.125,-5.4063 -0.875,-4.2187 0.375,-3.7813 -0.6876,-5.3125 -0.6874,-5.1875 -0.4063,-4.9063 -0.4063,-2.5937 -1.5,-8.5 -0.094,-0.9063 -2.9063,-9.5 -4,-7.9062 -0.6874,-4.2812 -0.4063,-2.2188 -1.7187,-7.5 0,-6.5938 -0.1876,-1.4062 0.9063,-8 0.6875,-5.6875 0.9062,-6.4063 -2,-5.1874 -1.0937,-4.9063 -0.7187,-3.0937 -2,-7.125 -0.1876,-0.875 -2.5937,-7.2188 -0.5,-1.2812 -5,-9.125 -3.5937,-11.0938 -0.8126,-2.2812 -6.5,-18.3126 -0.6874,-2.0937 -25.8126,-50 -7.6874,-13.0937 -0.5,-0.7188 -7.3126,-12.9062 -1.9062,-3.5938 -3,-6.4062 -2.5938,-9.875 -1.9062,-5.9063 -1.9062,-6 -0.2813,-1 -1.3125,-4.0937 -1.1875,-3.5 -0.3125,-1.3126 -0.5938,-2.1874 0.5,-11 0.1876,-1 0.9062,-4.125 2.0938,-3 0.625,-0.875 2.375,-2.625 2.625,-3.0938 2.375,-2.6875 1,-1.0937 1.2187,-1.3126 1.5937,-2.4062 2.0938,-3.5 0.5,-2.5 -0.5,-2 -1.5,-2.9062 -2,-5.1876 -1.0938,-5.1874 -0.3124,-1.4063 -1.0938,-6.0937 0.4062,-2.4063 0.5938,-3 -1,-3.7187 -2,-5.875 -2,-3.625 -3.5938,-2.375 -2.5937,-2.125 0,-3.5938 0.4063,-2.5 2.5,-1.6875 4.7812,-2.4063 0.7188,-0.4062 3.375,-2.7812 1.2187,-1 1.7813,-1.625 1.9062,-2.5938 0.4062,-4 1.0938,-5.6875 0.2188,-6.5 -0.8126,-2.4063 -0.5,-1.5937 -2,-5 -2.5,-2.3125 -2.5937,-1.6875 -3.5937,-2 -2.9063,-3.4063 -0.5937,-3.1874 -0.5,-2.5 -2,-3.7188 -2.2188,-3.4062 -3.7812,-3.875 -3.7188,-2.7188 -1.7812,-3.5 -1.7188,-3.5 -1.5,-9 1,-6.0938 0.2188,-0.9062 0.875,-3.5938 1,-4.0937 0.7187,-2.5 0.9063,-3 0.6874,-2.2187 0.4063,-1.7813 0.4063,-1.5937 0,-3 -0.7188,-2.7188 -2.2812,-2.7812 -2.625,-2 -4.7813,-3.3126 -3.3125,-2.9062 -1,-0.9062 -3.9062,-4.2813 -2.2813,-4.9063 -0.7187,-4.5 -0.2813,-5 0.7813,-4.5937 1.4062,-3.9063 0.5,-1.5 2.5938,-6 1.5,-7.5937 0.5,-3 0.625,-3.0937 -1,-4.5 -1.2188,-3.5 -0.9062,-2 0.125,-3.625 1.2812,-3 0.9062,-3.5 0.4063,-1.5938 -1,-2.4062 -1.7187,-3.0938 -1.875,-3.5 -0.7188,-4.2812 -0.2812,-5.8126 0.1874,-4.3124 -0.4062,-2.7813 -0.4062,-2.2187 -0.2813,-5.7813 -2.5937,-6.5 -2,-3.0937 -1.5,-1.5 -2.125,-2 -2,-4 0,-2.625 1.7187,-2.375 1.5937,-2.4063 0.8126,-0.9063 1.2812,-0.9062 1.3125,-1.4062 1.4063,-4.0938 0.7812,-2.5938 -0.094,-2.8124 1.0938,-2.0938 2.2188,-2.4062 1.375,-2.5938 0.5,-1 -0.5,-3 -1.5,-2.5 -2.6876,-3.7812 -1.4062,-2.3126 -1,-1.5 -1.4062,-2.6874 -1.6876,-3.3126 0.3126,-2.5 0.875,-2.0937 3,-1.5 2.5,-0.3125 1.125,-0.1875 2,-0.5 2.5937,-1.5 1.5,-2.5 0.7813,-1.2187 0.5,-0.6876 0.9062,-1 3.5,-1.5937 5.2188,-2 5.5937,-3.5 2.6875,-0.8125 1.5938,-0.5 2.4062,-0.6875 2.0938,-1.2187 0.5,-2.2813 -1,-1.5 -2.5938,-1.5 -4.0938,-1.0937 -4.5937,-4 -1.7187,-2.5 -0.5938,-1 -5.2812,-5.125 -6.625,-5.2813 -6.0938,-6.4063 -2.0938,-2.1874 -2,-2.4063 -2.0937,-2.4063 -2.2187,-4.1874 -1.875,-3.8126 0,-5.5937 0.5937,-5.5 -1.0937,-3.9063 -3,-6.1874 -6.8126,-4.9063 -4.3124,-3.8125 -4.2813,-2.2812 -2.7187,-3.4063 0.125,-1.8125 0.2812,-2.1875 0.4062,-7.3125 -0.1874,-4.7812 -1.3126,-5.5 -3.8124,-3.3126 -4.5,-7.9062 -2.1876,-6 -2,-5.2812 0.1876,-2.5 0.125,-2.5 3.1874,-6.8126 0.1876,-4.5937 -0.6876,-4 -1,-5.8125 0.5,-4.1875 1,-1.9063 1.3126,-2.3124 4.875,-3.5938 3.9062,-4.9062 2.9062,-3.6876 1.8126,-4.0937 -0.8126,-2.9063 -3.0937,-2.5 -2.7187,-3.4062 -3.1876,-1.2812 -3.8124,-1.4063 -1.5,-2.3125 -0.5,-4.7812 0.5,-3 2,-1.9063 2.2187,-3.0937 -1,-4.125 -1.7187,-3.375 -2.375,-5.125 -1.8126,-4.6876 -2.6874,-3.9062 -4.4063,-3.7812 -3.8125,-4.4063 -1.2812,-4.4063 1.7812,-7.5937 3.3125,-3.8125 5.5,-6.1875 5.6875,-4 5.5938,-2.3125 7.2187,-2.1875 10.5937,-0.8125 4.3126,-1.1875 4.5937,-1 2.6875,-0.9063 2,-1.5937 4.0938,-2 3.4062,0.9063 4.3125,0.375 2,-0.1876 4,-2.0937 0.6875,-0.4063 4.3125,-2.4062 0.6875,-0.4062 4.2188,-2.6876 2,-2.3124 0.5937,-0.6876 2.5937,-3.0937 2,-2 2.5938,-3.5 3.9062,-3.4063 2.8126,-2.0937 5.1874,-1.9063 2.9063,-3.1874 3.6875,-1.9063 2.0938,-1.5 3.625,0 2.875,2.7813 1.2187,2.8124 1.5,3 3.5937,1 3.3126,0.1876 4,-1.1876 4,-3.1874 4.6874,-4.2188 0.6876,-0.6875 4.4062,-3.4063 7.7188,-5.5 9.2812,-2.8124 7.2188,-0.875 5.5937,-1.3126 6.5937,-1.4062 4.5,-1.1875 6.3126,1.6875 4.0937,3 3.5937,2 3.5938,0 2.5938,-1.5 2.625,-2.4062 5.0937,-1.0938 4.0937,-0.5 3.0938,1 3.2188,1.8125 2.375,4.2813 -0.5938,2 -2,2.5 -3.0938,2.5 -1.5937,3.125 0,3.5 1.5,3.5 3.5937,2.7812 5.6876,-0.7812 6.125,-1.9063 9.7812,-6.0937 8,-5.4063 4.5,-2.8125 3.5938,0.3125 4,1.5 3.5,4.1875 4.125,5.9062 4.0937,2 4.5937,2.5 6,-5.3124 0.5,-0.5 7.3126,-5.5938 0.6874,-0.5 5.1876,-4.7812 5.9062,-4.9063 5.8125,-0.7187 7,-1 7.1875,1.7187 5.8125,1.6875 7.6875,0 5.0938,2.5 5.625,5.5 2.0937,5.0938 5.0937,5.125 3.5,3 4.0938,3.1874 4.2188,6.1876 0.6874,1.2187 2.3126,4 3.7812,2.5937 4.8125,2.3126 1,0.2812 3.6875,1.4062 2.5,2.5 2.5938,3.5 2.625,4.6876 3.5,4.9062 3,3.5938 2.5937,4.5 1,5 -1.5937,5.125 -3.5,3.2812 -0.625,0.7188 -3.1876,3.5937 -0.5,4.4063 2.5938,3.5937 4.5938,2 3.625,-0.5 4.5,-0.7187 3.6874,1.8124 4.5938,2.5 3,3.6876 4.0938,1.8124 5.8124,1.1876 4,1.4062 2.5,4.8125 0.9063,7 1.5937,6.7813 8.1876,7.125 11.2187,5.5937 4.7813,2.7813 6.3124,1.2187 8.5938,-1 9.7188,-2.5 10.5,-4.0937 7.375,-3.4063 4.625,-1.4063 3.5937,-3.0937 5.4063,-2.8125 1.7812,-0.2812 4.4062,-0.625 5.0938,0.7187 4.4062,-0.4063 5.5938,0.5 3.0938,-0.5 3.125,-2 0.094,-1 1.2813,-3.5937 0.4062,-2 1.8125,-1.9063 3.0937,-4.0937 2.0938,-4.5 0,-7.5937 0.094,-8 2.125,-9.125 4.6874,-12.875 4.0938,-10.7188 4.0938,-5 2.125,-3.5 0.5,-4.0938 -1.4063,-2.5 -2.8125,-3.3124 -3.4062,-3.1876 0.4062,-5.1874 2.3125,-4.7188 4,-2.6875 5.5,-2.4063 5.7813,-3.0937 2.125,-4 2.0937,-8.5 2.5937,-7.0937 5.3126,-7.5 3.5,-8.125 0.4062,-0.875 -1851.1875,0 z"
     id="rect14"
     inkscape:connector-curvature="0" />
</svg>
