<?xml version="1.0" encoding="UTF-8" standalone="no"?>
<svg
   xmlns:dc="http://purl.org/dc/elements/1.1/"
   xmlns:cc="http://creativecommons.org/ns#"
   xmlns:rdf="http://www.w3.org/1999/02/22-rdf-syntax-ns#"
   xmlns:svg="http://www.w3.org/2000/svg"
   xmlns="http://www.w3.org/2000/svg"
   xmlns:sodipodi="http://sodipodi.sourceforge.net/DTD/sodipodi-0.dtd"
   xmlns:inkscape="http://www.inkscape.org/namespaces/inkscape"
   width="527.6875"
   height="973.5"
   viewBox="0 0 527.6875 973.5"
   id="svg2"
   version="1.1"
   inkscape:version="0.48.1 "
   sodipodi:docname="AJAX.svg">
  <metadata
     id="metadata20">
    <rdf:RDF>
      <cc:Work
         rdf:about="">
        <dc:format>image/svg+xml</dc:format>
        <dc:type
           rdf:resource="http://purl.org/dc/dcmitype/StillImage" />
      </cc:Work>
    </rdf:RDF>
  </metadata>
  <defs
     id="defs18">
    <clipPath
       id="clipPath1"
       clipPathUnits="userSpaceOnUse">
      <path
         inkscape:connector-curvature="0"
         id="path9"
         d="M 0,0 639,0 639,1120 0,1120 0,0 z" />
    </clipPath>
  </defs>
  <sodipodi:namedview
     pagecolor="#ffffff"
     bordercolor="#666666"
     borderopacity="1"
     objecttolerance="10"
     gridtolerance="10"
     guidetolerance="10"
     inkscape:pageopacity="0"
     inkscape:pageshadow="2"
     inkscape:window-width="1280"
     inkscape:window-height="1004"
     id="namedview16"
     showgrid="false"
     fit-margin-top="0"
     fit-margin-left="0"
     fit-margin-right="0"
     fit-margin-bottom="0"
     inkscape:zoom="0.55073647"
     inkscape:cx="714.92971"
     inkscape:cy="396.2218"
     inkscape:window-x="-8"
     inkscape:window-y="-8"
     inkscape:window-maximized="1"
     inkscape:current-layer="svg2" />
  <path
	 style="fill:#9FAEC0"
	 stroke="#9FAEC0"
	 stroke-width="10"
	 transform="translate(0, 125)"
     d="m 392.125,0 -3.5625,1.28125 -1.96875,2.6875 -0.78125,1.8125 -0.71875,1.96875 1.375,0.75 L 386,9.96875 l -0.875,1.1875 -1.59375,0.5625 0.0625,1.3125 -0.875,1.3125 -0.0625,1.71875 -1.0625,1.375 -1.0625,1.84375 -1.625,3.53125 -3.71875,1.625 -0.3125,-1.28125 -3.4375,-2.625 L 370,21.59375 368.4375,22 l -2.46875,1.96875 -1.1875,-1.34375 -0.0937,-1.125 -1.9688,-1.03125 -0.90625,-1.40625 -1.28125,-0.03125 -2.34375,1.4375 -2.6875,-1.15625 -2.4375,1.4375 -0.125,-1.40625 -1,-2.5625 -1.125,-1.09375 -1.59375,-2.09375 -1.0625,0.28125 -2.65625,-1.59375 -0.9375,-1.875 -0.375,-3.5 -0.125,-2.46875 -1.96875,-1.21875 -2.78125,-0.3125 -0.71875,-1.34375 -1.5625,0.78125 -1.375,-0.0625 -1.21875,0.96875 -2.125,3.5 -1.40625,0.0625 -1.75,1.78125 -2.875,0.875 -1.25,2.5625 -3,0.34375 -1.53125,1.28125 -1.9375,-0.40625 -0.6875,1.25 1,1.40625 0.71875,2.0625 -0.125,1.4375 -1.53125,1.90625 -3.625,1.21875 -2.1875,4.34375 -1.21875,-0.625 -1.3125,-2.3125 -1.8125,-0.5 -1.9375,1 -1.0625,1.28125 -1.25,0.3125 -0.84375,1.0625 -2.40625,-0.5625 -0.96875,-1.28125 -1.125,-0.4375 -1.625,0.40625 0.0312,1.09375 1.34375,0.90625 3.125,2.71875 2.5,1.4375 0.4375,1.1875 3.25,1.03125 1.125,2.5 0.40625,2 -1.28125,1.125 -0.90625,1.09375 -0.25,1.59375 -0.125,1.28125 -0.84375,1.1875 -1.125,0.65625 0,2.1875 -0.9375,2.65625 -1.84375,2.21875 0,3.1875 -0.4375,1.65625 -1.875,1.78125 -0.625,3.21875 2,1.59375 0.40625,2.65625 -0.6875,2.09375 -2.5625,2 -0.53125,1.40625 -2,0.78125 0.125,1.1875 -0.5,1.5 -2.28125,1.96875 0.0312,1.34375 -1.5625,0.65625 -1.34375,3.5625 -2.71875,0.15625 -0.34375,1.03125 -1.5,0.5625 -0.21875,1.46875 -0.5,1.625 -1.1875,-0.3125 -1.09375,0.40625 0,1.21875 0.375,1.71875 -1.40625,1.65625 1.125,1.03125 -0.78125,1.4375 -1.375,0.375 0.6875,1 1.4375,1.25 1.75,0.59375 -0.625,1.4375 0.25,1.21875 -1.28125,1.875 -0.84375,1.59375 0.0625,1.21875 -0.0312,1.34375 0.15625,1.1875 -0.40625,1.21875 8.90625,0.75 -2.875,1.4375 -0.5625,1.90625 -2.0625,0.625 -1.5625,-0.90625 -1.15625,-0.28125 -1.625,-1.65625 -1.125,0.1875 -1.3125,1.25 -1.65625,0.75 -1.1875,0.15625 -1.59375,1 -1.71875,2.5 1.0625,0.65625 -1.5,1.375 -0.75,1.03125 1.1875,0.0625 0,1.28125 1.1875,0.46875 0.21875,1.375 1.1875,1.0625 1.03125,1.8125 -0.0625,1.53125 1.9375,-0.125 0.34375,2.1875 -0.21875,2.1875 -0.25,1.625 0.53125,1.75 -0.5,1.625 -1.34375,0.3125 1.5,1.375 0.75,2.09375 0.21875,1.125 2.15625,2.625 0.96875,1.6875 0.1875,1.3125 1.0625,0.84375 -0.15625,1.96875 -1.03125,-0.40625 -0.75,1.1875 -1.09375,0.75 -0.21875,1.125 -1.5,0.8125 0.84375,1.4375 -1.1875,1.28125 -1.03125,0.875 -0.9375,1.875 126.375,0 L 398.875,112.125 394.125,21.8125 392.125,0 z m -25.46875,48.28125 1.375,2.03125 1.03125,2.40625 1.03125,-0.6875 L 372,51.6875 l 1.03125,1.875 0,1.875 -1.75,1.71875 -1.03125,3.40625 -0.375,2.21875 -2.21875,3.21875 -0.875,-4.4375 -0.84375,-1.6875 1.90625,-2.21875 -1.375,-2.0625 -1.1875,-5.125 1.03125,-0.84375 0.34375,-1.34375 z m -11.75,21.59375 1.875,0.0312 1.21875,0 -0.53125,1 0.84375,1.875 -0.15625,2.0625 -2.0625,1.53125 -1.0625,2.21875 -0.34375,2.71875 -1.71875,3.21875 -2.4375,3.75 -1.03125,-0.15625 -1.1875,-0.0312 -1.71875,0.6875 -1.71875,-0.5 -0.5,-2.5625 0.84375,-3.59375 -1.375,-2.21875 L 343,78.5625 l -1.71875,0.5 -1.03125,1.53125 -1.90625,0.84375 0.34375,-1.03125 0.53125,-1 L 339.75,78.375 339.5625,77 l 1.71875,-1.53125 1.375,0.1875 L 343.875,76 l 0.34375,-1.1875 2.0625,0 1.21875,-0.84375 1.375,-0.53125 1.71875,0.6875 2.75,-0.5 1.375,-1.53125 0.1875,-2.21875 z m -20.375,22.28125 1.375,2.0625 -0.34375,3.25 1.375,2.21875 2.21875,1.53125 0.53125,1.34375 -1.375,0.53125 -1.90625,-0.6875 -3.25,-1.03125 -3.09375,-0.1875 -3.4375,-0.6875 -2.25,0 -2.75,0.5 -1.53125,-2.03125 -1.875,-1.21875 -2.59375,0.6875 -1.71875,1.53125 -1.875,-2.375 1.03125,-1.53125 0.6875,-1.375 2.90625,0.34375 3.4375,0.1875 3.96875,-1.375 1.53125,0.6875 2.0625,1.71875 2.59375,0.84375 2.0625,-0.84375 0.84375,-2.71875 1.375,-1.375 z"
     id="rect4"
     inkscape:connector-curvature="0" />
  <path
	 style="fill:#9FAEC0"
	 stroke="#9FAEC0"
	 stroke-width="10"
	 transform="translate(0, 100)"
     d="m 275.46875,158.90625 -1.5625,0.71875 -0.0937,1.59375 -1.09375,1.21875 -3.46875,1.59375 -1.03125,2.3125 0.625,1.625 -1.71875,1.5 -0.5,1.03125 1.125,2.1875 0.125,2.15625 -1.65625,1.15625 -2.125,3.65625 L 262,180.875 l -1,2.09375 1.0625,1.46875 1.1875,1.59375 -1.15625,2.90625 0.4375,1.84375 -1.25,1.875 -0.90625,1.625 -1.03125,-0.0937 -2.5,0.9375 -0.84375,1.25 0.15625,1.4375 -1.46875,0.9375 -1.5,2.28125 -1.375,0.5625 -0.40625,2.375 -1,1 -3.65625,1.09375 -0.25,1.75 1.15625,0.625 0.5,1.34375 -0.34375,1.0625 0.40625,1.40625 0.34375,3.53125 1.71875,-0.53125 -0.40625,2.4375 1.625,2.0625 1.0625,1.03125 0.9375,2.0625 1.71875,1.9375 -0.59375,1.5625 1.84375,0.96875 -1.0625,1.5625 0.34375,1.84375 0.6875,1.4375 -0.6875,2 3.75,2.4375 -1.4375,0.625 0.78125,2.1875 -0.625,1.625 1.21875,1.40625 2.21875,0.625 -0.71875,1.3125 2.15625,0.15625 1.65625,-0.75 0.21875,1.90625 0.59375,2.96875 -1.0625,0.75 2.65625,2.5625 1.8125,0.6875 -1.375,0.46875 -1.25,-0.0312 2.375,0.75 0,1.28125 -1.875,-1.06255 -0.34375,2.875 0.78125,4.09375 -0.71875,1.0625 -1.5,0.9375 1.25,0.375 1.6875,-0.5 -0.8125,1.03125 -0.375,1.78125 2.6875,-0.65625 -0.0625,1.59375 2.03125,-0.53125 -0.59375,1.46875 1.375,0.0937 -1,2.40625 -2.875,1.625 -1.375,-1.3125 0.125,1.0625 1.5625,1.875 -0.75,1.59375 -1.875,-0.375 -0.65625,2.375 -2.1875,0.40625 -2.0625,-0.875 -4.4375,0.25 -1,1.78125 -0.1875,1.90625 2.9375,2.65625 2.65625,1.65625 1.3125,1.625 -0.53125,2.09375 -1.96875,3.21875 -1.375,0.78125 -2.03125,0.28125 0.46875,1.15625 1.59375,1.28125 0.96875,2.40625 1.46875,1.34375 0,1.0625 -1.84375,-0.0625 -1.21875,-1.65625 0.53125,1.03125 -0.84375,2.125 -1.21875,-0.96875 -0.1875,2.65625 -1.09375,2.71875 -2.84375,0.84375 -2.1875,-0.625 -2.0625,4.15625 -1.5625,0.3125 -1.03125,-0.6875 0.625,-1.25 1.34375,-0.53125 0.1875,-1.3125 -1.53125,-0.0312 -0.5,1.25 -3.25,2.71875 0,1.21875 2.125,2.0625 -1.40625,1.5625 -2.65625,0.53125 -0.5625,1.34375 -0.375,3.59375 -0.34375,0.84375 170.28125,0 -1.9375,-42.6875 -1.125,-36.53125 -0.875,-17.90625 -7.4375,0.1875 -1.21875,-0.65625 -1.40625,-1.5625 0.40625,-1.0625 -0.3125,-1.4375 -3.59375,-3.15625 -2.9375,-5.125 1.25,-0.96875 1.8125,1.21875 1.375,-0.125 1.5625,-3.03125 1.21875,0.8125 1.53125,0.15625 0.15625,-1.375 -1.84375,-5.09375 1.5,-1.40625 0.28125,-1.71875 -0.5625,-2.625 -0.0937,-5.75 4.625,-2.21875 -0.6875,-2.71875 -0.34375,-1.0625 1.71875,-1.53125 1,0.125 -1.625,-25.65625 -126.375,0 z M 403.6875,192.5 l -0.65625,1.125 0.65625,1.53125 0.34375,0.1875 -0.125,-2.84375 -0.21875,0 z m -0.375,12.25 -1.09375,0.28125 0.125,1.96875 2.40625,2.875 -0.21875,-4.3125 -1.21875,-0.8125 z m 1.46875,6.03125 -0.0937,0.84375 -1.5,1.40625 -1.5,-0.5625 -1.46875,1.15625 -2.71875,0.5 0.0625,1.75 1.53125,4.1875 2.6875,1.90625 3.46875,-0.25 0.0625,0.0312 -0.53125,-10.96875 z"
     id="rect6"
     inkscape:connector-curvature="0" />
  <path
	 style="fill:#9FAEC0"
	 stroke="#9FAEC0"
	 stroke-width="10"
	 transform="translate(0, 75)"
     d="m 239.125,321.8125 -0.5,1.25 -1.21875,1.21875 -3.65625,0.875 0.59375,2.8125 -1.53125,-0.1875 -0.40625,1.375 -2.625,1.59375 -2.25,2.1875 -3.125,1.46875 -3.03125,-0.53125 -3.34375,1.0625 -1.46875,2.65625 -1.53125,-0.34375 -1.75,-1.65625 -1.5625,-0.25 -1.5625,0.59375 -2.875,2.125 -3.21875,-0.1875 -1.03125,0.53125 -2.375,3.15625 0,2.625 -1.4375,-0.1875 -1.5,0.71875 -0.34375,2.40625 0.9375,1.3125 -1.03125,1.4375 1.03125,4.03125 -0.5625,1.03125 -5.03125,1.65625 -2.46875,2 -2.6875,1.46875 -2.5,0.28125 -2.46875,1.28125 -1.21875,-0.25 -2.46875,-1.65625 -5.8125,-2.4375 -2.8125,0.65625 -2.03125,1.6875 -1.0625,1.65625 -1.6875,0.6875 -2.59375,-0.75 -4.78125,0.4375 -5.71875,0.125 -0.96875,2.40625 -4.375,2.3125 -3.75,1.25 -3.75,-0.0625 0.40625,1.9375 -0.375,4.875 -1.4375,2.03125 -1.65625,0.59375 -0.53125,1.15625 -1.96875,0.6875 -1.5625,1.71875 -1.21875,2.21875 -1.125,3.40625 0.9375,1.0625 1.75,-0.90625 -0.0625,1.125 -0.78125,1.34375 0.375,1.03125 0.15625,1.625 1.25,3.15625 1.3125,1.4375 0.59375,1.9375 -1.625,5.3125 0.34375,2.4375 -1.5625,2.34375 0,1.375 0.0625,1.5 -0.5,1.40625 -1.15625,0.96875 -0.5,2.90625 2.125,3.4375 2.4375,5.84375 0.4375,1.28125 1.40625,0.0312 0.3125,2.65625 -0.53125,1.3125 0.28125,1.40625 0,3.84375 2.3125,1.96875 -0.6875,1 -0.34375,1.46875 -1.125,-0.15625 -2.03125,1.1875 -1.125,0.6875 -0.0312,2.1875 -0.5625,1.46875 0.84375,3.875 1.1875,1.4375 1.03125,-0.21875 1.09375,-2.5625 2.5,1.375 -0.125,2.53125 -1.375,1.84375 -2.15625,0.46875 1.53125,1.15625 1.59375,0.625 0.15625,1.75 -1.75,0.34375 -1.25,-0.96875 -2.46875,1.03125 1.0625,1.5625 0.21875,1.09375 -1.625,2.34375 -0.71875,1.90625 -3.03125,0.40625 -0.125,1.03125 1.3125,0.5625 0.5625,1.25 -2.09375,0.75 -2.3125,1.625 -0.28125,1.03125 0.84375,3.71875 -1.3125,0.71875 -0.1875,2.4375 -1.125,0.40625 -1.96875,-1.5 -0.65625,1.125 -0.15625,1.28125 0.28125,1.21875 0.4375,2.125 -0.46875,-2.03125 -1.96875,0.0312 -0.90625,1 0.25,1.96875 294.9375,0 -4.1875,-124.65625 -1.75,-38.28125 -170.28125,0 z"
     id="rect8"
     inkscape:connector-curvature="0" />
  <path
	 style="fill:#9FAEC0"
	 stroke="#9FAEC0"
	 stroke-width="10"
	 transform="translate(0, 50)"
     d="m 120.40625,484.75 0.1875,1.65625 -1.28125,0.6875 -2.09375,1.96875 0.0937,1.34375 1.21875,2.1875 0.25,7.03125 1.8125,-0.96875 1.34375,0.3125 2.21875,1.09375 -2.71875,1.875 0.5625,1.25 -1.8125,2.84375 -1.375,0.8125 -2.03125,0.5625 -0.125,1.75 0.53125,2.9375 -0.3125,3.78125 -0.71875,1.65625 -3.125,2.1875 -0.875,1.4375 -4.09375,2.875 -1.5625,2.4375 -1.6875,3.25 -2.21875,0.71875 -0.21875,2.03125 1.53125,3.65625 -1.84375,1.15625 -2.53125,0.59375 -1.0625,3.5 1.34375,3.90625 0.1875,4.125 -1.8125,4.4375 1.5625,4.28125 -0.3125,1.9375 -1.75,1.875 -1.28125,3.4375 -2.65625,3.1875 0,2.15625 -0.0625,2.09375 -1.375,1.125 -2.28125,1.0625 -1.4375,2.90625 -1.8125,3.375 -1.84375,1.25 1.59375,-1.28125 -1.125,0.0937 -0.84375,1.03125 -1.625,0.875 -4.90625,3.25 -2.03125,0.15625 -0.96875,2.28125 -1.8125,1.46875 -2.78125,4.78125 -2,1.71875 -0.0625,1.03125 -1.53125,0.0312 1.125,1.1875 -0.9375,1.84375 -0.21875,4.46875 0.9375,1.53125 0.0625,1.875 -0.65625,1 -0.3125,1.3125 -0.0625,1.125 -1.84375,2.6875 -0.5,3.1875 -0.0312,3.09375 -3.6875,2.09375 -0.0937,1 0,1.78125 -0.78125,1.125 -0.625,2.78125 0,1.15625 0.53125,1.5625 1.1875,1.3125 0.0937,1.9375 -5.84375,5.1875 -1.75,0.5 -3.875,2.21875 -2.25,2.375 -0.28125,1.34375 170.96875,0 0.0312,-0.0937 0.28125,0.0937 52.90625,0 -0.40625,-0.375 -0.875,-1.4375 -0.5625,-5.1875 0.65625,-5.46875 0.40625,3.75 1.5,3.9375 3.0625,3.40625 0.875,1.375 13.125,0 -0.5625,-3.5 -1.6875,-3.28125 0.1875,-2.40625 1.375,-1.40625 2.21875,-1.28125 0.46875,-1.625 -1.53125,-3.625 -5.3125,-8.40625 -1.4375,-3.28125 -2.625,-3.4375 3.9375,-0.625 1.90625,2.0625 1,5.125 1.46875,1.40625 1.53125,0.28125 0.71875,1.875 1.4375,0.1875 0.0625,-2.5625 1.21875,-1.5625 1.34375,0.21875 0.3125,2.53125 -0.875,1.25 0.28125,1.1875 3.1875,-0.125 0,-1.4375 -1.5,-2.4375 0.25,-2.5625 1.71875,0.78125 0.5,3.15625 0.96875,1.53125 1.34375,0.46875 1.625,-2.28125 -1.15625,-1.75 -0.9375,-3.84375 -1.65625,-1.65625 -2.3125,-4.96875 -1.6875,-0.28125 -2.25,-4.125 -0.84375,-2.125 -0.40625,-1.09375 1.125,-1.90625 0.0625,-2.3125 -2.375,-3 1.0625,-1.3125 1.1875,0.0312 1.75,2.6875 0.1875,-2.3125 0.375,-1.21875 1.125,0.90625 0.71875,1.78125 -0.21875,3.4375 3.40625,1.75 0.9375,-2.15625 -1.90625,-2.1561 1.65625,-0.3125 0.59375,-2.21875 3.8125,5.34375 -1.5,0.8125 1.625,2.875 1.09375,1.21875 0.375,3.5 0.6875,1 4.0625,0.5 -1.53125,-3.71875 3.40625,-1.3125 1.09375,3.125 1.28125,1.0625 3.21875,1.03125 0.46875,1 -1.28125,2.4375 0.5,2.375 -1.4375,1.875 3.8125,5.59375 1.625,0.28125 0.125,-4 3.21875,-2.59375 -2.59375,-2.125 -2.4375,-3.4375 7.25,0.96875 1.90625,-0.90625 -1.84375,-2.9375 -2.5,-1.8125 -1.5625,-1.90625 -2.9375,3.25 -2.28125,-0.125 0.78125,-2.5 -1.15625,-2.1875 -1.0625,-2 1.21875,-1.5 -2,-1.75 1.75,-1.15625 -0.3125,-1.53125 -4.75,-2.84375 -3.75,-3.8125 -1.40625,0.375 -1.84375,0.3125 -0.53125,2.3125 -1.1875,-0.8125 -1.0625,1.21875 -0.84375,-3.59375 2,-0.4375 0.78125,-1.21875 2.59375,0.4375 0.625,-1.875 0.65625,-0.375 1.375,2.59375 1.75,-0.21875 0.65625,2.03125 2.96875,1.09375 0.8125,1.78125 3.71875,3.21875 1.21875,3.90625 2.53125,0.59375 4.09375,2.1875 3.625,0 1.125,0.6875 1.03125,1.375 -1.375,2.4375 -0.125,1.53125 0.71875,1.28125 2.8125,1.03125 0.4375,1.09375 -1.375,1.40625 3.59375,2.78125 -0.28125,1.90625 -2.75,1.09375 -2.1875,-0.1875 -0.9375,1.8125 1.15625,2.46875 0.75,6.3125 -0.5,2.8125 2.21875,4.40625 4.375,0.46875 1.40625,-4.15625 -2.6875,-4.15625 1,-0.0312 3.40625,2.5 0.375,1.1875 -1.1875,3.125 5.125,5.75 -2.09375,0.3125 -5.875,-2.65625 0,2.40625 1.625,1.65625 2.09375,0.28125 1.125,0.90625 1.9375,0.5625 0.96875,1.15625 1.34375,-2.6875 3.6875,2.96875 0.59375,-3.25 2.15625,-0.75 2.125,0.59375 -1.15625,3.65625 4.28125,0.21875 61.125,0 -0.125,-0.0312 -3.0625,-65.5625 -1.28125,-17.375 -1,-46.1875 -1.125,-33.75 -294.9375,0 z m 156.96875,79.96875 1.1875,0.53125 -0.96875,1.25 0.8125,1.75 1.25,-0.125 0.40625,2.21875 1.4375,-0.21875 1.15625,-0.125 0.375,-2.21875 2.3125,-0.9375 1.28125,0.65625 -1.8125,3.3125 -0.1875,2.65625 -1.8125,1.15625 -1.125,-1.15625 -1.09375,0.28125 0.40625,1.875 -2.625,2.375 0.53125,1.1875 1.71875,1.40625 1.96875,3.09375 -1.65625,1.09375 -2.3125,-3.53125 -1.78125,-0.96875 -0.375,1.375 0.8125,1.78125 -0.21875,1.8125 2.0625,0.78125 0.96875,1.40625 -1.28125,0.21875 -2.8125,-1.1875 -1.90625,-2.59375 -0.71875,1.3125 2.46875,3.625 2.28125,1.5625 -0.40625,1.5 0.90625,4.09375 -1.5625,-0.25 -0.6875,-2.8125 -4.125,-0.9375 2.15625,-1.90625 -0.40625,-2.25 -2.9375,-1.09375 1.1875,2.9375 -0.71875,1.21875 -1.5,-1.46875 -1,0.1875 -1.46875,-2 -1.3125,-0.71875 -3.59375,0.28125 -2.15625,-0.6875 -3.53125,-1.09375 0.125,-1.46875 2.03125,0.28125 1.78125,-1.4375 1.78125,0.375 2.625,-1.96875 1.46875,0.65625 1.09375,-0.3125 -0.125,-1.28125 -3.28125,-4.59375 -0.0937,-1 2.28125,0.34375 0.6875,-1.90625 -1.5625,-1.21875 1.25,-1.25 2.25,2.15625 1.0625,-1.25 1,-0.28125 1.8125,1.65625 0.78125,-1.75 1.34375,-1.8125 0.59375,2.9375 1.53125,-0.5625 1.3125,0.46875 L 279.375,571 l -2.5625,-2.25 -2.5625,-1.21875 -0.875,-1.25 0.8125,-1.3125 1.8125,1.65625 1.375,-1.90625 z M 205.75,599.5 l 1.09375,4.84375 3.15625,3.1875 3.46875,3.5 1.25,2.28125 -0.96875,1.21875 -3.40625,-1 -0.1875,1.625 1.875,3.1875 3.75,4.0625 -0.71875,1.65625 1.28125,0.71875 0.5,2.375 -0.4375,1.0625 -1.65625,-2.3125 -3.4375,-0.6875 -2.28125,-3.4375 -2.53125,0.34375 -0.40625,-2.78125 -1.15625,0.71875 -1.125,-0.5625 -1.71875,-5.84375 0.90625,-3.875 -0.0312,-2.03125 0,-1.125 -1,-2.125 -2.96875,-2.875 2.15625,-0.375 2.875,-0.15625 L 205,599.6875 205.75,599.5 z m 97.125,14.1875 -1.5625,0.3125 0.0625,1.34375 2.8125,4.625 -1.40625,0.8125 1.46875,1.40625 -0.28125,1.71875 2.78125,0.78125 1,-0.5625 1.5625,2.03125 0.8125,-1.15625 -1.1875,-3.28125 -2.96875,-3.6875 0,-1.71875 -3.0625,-2.625 -0.0312,0 z m 22.75,6.3125 -0.21875,1.0625 1.28125,1.5625 0.3125,1.46875 1.34375,0.625 -0.625,1.40625 0,1.53125 0.625,1.15625 1.03125,0.40625 1.15625,-1.125 -0.375,-1 1.75,-0.0937 -1.40625,-2.5 -0.71875,-2.03125 -1.4375,0.28125 -0.96875,-2.09375 -1.75,-0.65625 z m -18.65625,5.78125 -0.375,4.625 0,2.5 1.625,-1 -0.96875,-1.9375 2.25,-0.84375 -0.125,-0.9375 -2.40625,-2.40625 z m -10.3125,3.65625 -0.28125,2.21875 1.40625,1.84375 2.65625,1.625 2.625,0.4375 L 303,633.78125 301.0625,631 296.65625,629.4375 z M 295,633.15625 l -1.15625,0.3125 -2.21875,2.1875 -1.96875,4 2.125,3.6875 0.9375,3.5 -0.0625,0.8125 30.625,0 -0.0625,-0.125 -2.15625,-1.5625 -1.78125,-0.71875 -2.5,0.15625 -2.25,-1.53125 -3.125,-3.34375 -1.25,-0.125 -0.90625,1.21875 -1.4375,-0.96875 -1.96875,1.84375 -2.09375,0.3125 -0.9375,-1.15625 -0.5,-2.90625 -2.8125,-0.9375 -1.53125,-0.96875 -1.9375,-3.125 L 295,633.15625 z m 22.1875,1.0625 -2,0.21875 -0.78125,1.46875 1.03125,1.59375 1.1875,-0.1875 1.28125,-1.9375 -0.71875,-1.15625 z m -93.75,10.125 -2,2.15625 0.6875,-1.96875 1.3125,-0.1875 z m 107.96875,2.09375 0.9375,1.21875 3.3125,0 -4.25,-1.21875 z"
     id="rect10"
     inkscape:connector-curvature="0" />
  <path
	 style="fill:#9FAEC0"
	 stroke="#9FAEC0"
	 stroke-width="10"
	 transform="translate(0, 25)"
     d="m 47.03125,647.65625 -0.59375,3 0.40625,2.8125 -0.0937,3.46875 0.3125,1.78125 -0.78125,2.125 -1.53125,2.59375 -1.375,0.3125 -1.15625,5.21875 0.40625,1.75 3.28125,3.15625 1.03125,2.5625 0.15625,1.28125 -0.375,3.6875 -0.46875,1.78125 -2.40625,2.96875 0.5,6.03125 -0.90625,2.4375 -0.4375,2.3125 -0.0625,2.8125 -1.09375,5.875 -1,8.6875 -2.5,2.875 -0.75,2.46875 0.21875,4.375 0.46875,1.1875 2.5,1.75 3.15625,0.0625 0.3125,1.09375 -2.65625,3.4375 -2.5,5.25 0.4375,1.5 1.625,2.71875 1.3125,1.25 0.59375,1.5 -1.90625,4.09375 -1.40625,7.15625 -2.25,4.84375 -1.40625,2.40625 -3.8125,2.03125 -0.75,2 -0.125,2.78125 1.28125,5.09375 -1.21875,2.875 -0.59375,2.4375 0.65625,3.34375 -0.0625,2.53125 -3.0625,3.4375 0.40625,1.625 1.25,1.9375 -0.125,1.71875 -1.09375,0.8125 -1.15625,1.53125 0.375,2.40625 -0.125,4.625 -1.40625,1.90625 1.375,3.46875 1.34375,0.71875 1.875,0.5 0.0312,0.53125 428.8125,0 -0.125,-1.625 -1,-3.15625 1.25,-4.125 0.21875,-4.125 1.28125,-2.09375 -1.28125,-4.53125 0.28125,-1.03125 2.09375,-1.3125 -0.375,-2.53125 1.125,-4.40625 -0.0937,-1.125 0.875,-2.03125 1.0625,-2.03125 -0.8125,-1.25 -1.21875,-0.0937 0.4375,-1.5625 -0.59375,-1.75 -2.53125,-1.84375 -3.125,-0.375 -0.5938,-1.7813 -0.28125,-1.96875 -2.5625,-1.0625 -1.65625,0.1875 -0.4375,-1.3125 -0.875,-2.0625 -1.84375,-0.375 -1,-2.0625 -2.40625,-0.5 0.0625,-2.15625 -1.0625,-1.4375 -2.625,-0.90625 -0.65625,-1.125 0.65625,-1.53125 -1.84375,0 -1.09375,-0.46875 0.9375,-1.21875 1.9375,-0.625 -1.375,-1.09375 -0.28125,-1.6875 -1.21875,0.46875 -1.125,-1.9375 -0.1875,-2.34375 0.0937,-1.34375 -1.1875,-0.1875 -0.5,-1.0625 -1.0625,-0.1875 -0.40625,-1.34375 -1.84375,-0.875 -0.0312,-2.59375 -2.5625,0.4375 -1.75,0.21875 -1.1875,0.0312 -1.34375,0 -1.03125,-2.375 -1.8125,-1 0.0937,-1.78125 -1.65625,-0.375 0.3125,-1.78125 -1.40625,-1.78125 0.8125,-1.4375 -0.59375,-1.625 -1.09375,-1.21875 -1.40625,-3.53125 0.1875,-2.53125 -0.65625,-1.03125 0,-1.3125 1.28125,-0.65625 0.0625,-1.4375 -1.09375,-1.8125 -0.0625,-4 1.34375,-2.5625 1.53125,-0.46875 1.34375,-1.21875 0.71875,-1.375 -0.125,-2.09375 2.03125,-1.28125 -0.125,-1.75 -1.125,-1.6875 -0.28125,-1.09375 1.6875,-5.84375 -0.15625,-1.125 -0.875,-1.53125 -2.25,-0.65625 0.21875,-1.28125 1.28125,-1.5625 -0.59375,-1.1875 0.3125,-1.28125 1,-1.5625 0,-1.4375 1.25,-1.15625 0.5,-1.6875 0.875,-1.59375 -0.5625,-1.34375 0.75,-2.25 -0.75,-2.03125 -0.28125,-2.53125 -1.34375,-1.34375 -0.28125,-1.6875 1.46875,-0.59375 1.21875,0.0937 0.8125,-3.9375 -1.125,-1.21875 -0.59375,-2.65625 -1.5,-0.84375 -1.0625,-2.15625 -1.4375,-0.40625 -61.125,0 1.28125,0.8125 0.3125,1.78125 -2.375,-0.25 -1.625,4.8125 -1.59375,0.65625 -4.1875,0.375 -0.96875,3.875 2.375,1.46875 -3.09375,0.15625 -0.8437,2.34385 -1.34375,-0.3125 -1.40625,-1.90625 -1.34375,-0.0625 -1.125,1.84375 -0.4375,2.3125 1.15625,5.78125 -0.375,1.46875 1.53125,0.90625 0.9375,3.125 1.9375,3.71875 0.40625,2.71875 L 349.75,684.8125 348.53125,683.5 348,679.5625 l -4.25,-5.78125 -1.6875,-5.5 -1.40625,-2.28125 1.125,-1.8125 0.0625,-1.8125 1.21875,-1.0625 -0.71875,-1.15625 -3.59375,-2.5625 -2.40625,0.5 -4.625,-3.125 -1,-2.4375 -1.5625,0.71875 -4.53125,-3.375 -1.34375,-2.21875 -30.625,0 -0.125,1.15625 -1.875,3.15625 -1.3125,-2.09375 -0.34375,-2.21875 -13.125,0 0.0625,0.0937 3.1875,4.96875 1.0625,4.78125 3.53125,3.96875 -0.0312,0.96875 0.1875,2.15625 0.375,-2.25 0.84375,1.75 0.0625,1.625 -3.8125,1.3125 -1.65625,1.40625 -1.8125,3.3125 -2.1875,2.65625 -0.15625,1.03125 1.25,2.25 -1.5,1.875 -3.71875,2.25 -1.34375,0.12505 -0.8125,-2.125 1.0625,-0.90625 1.15625,-0.0937 1.1875,-2.6875 1.0625,-0.8125 1.78125,-4.25 -0.375,-1.375 1.46875,-7.3125 -2.75,-4.34375 -0.3125,-2.125 1.375,-4.59375 -3.84375,-3.65625 -52.90625,0 2.15625,0.75 1.28125,1.09375 -0.46875,1.90625 1.90625,2.21875 1.65625,4.31245 1.125,1.40625 4.21875,2.6875 0.8125,1.78125 -0.90625,3.53125 0.90625,1.59375 2.84375,3.0625 1.03125,0.21875 2.25,-0.59375 -0.25,2.75 1.59375,3.1875 -1.5625,3.65625 -0.0312,1.71875 2.15625,3.84375 -2.25,0.0312 -1,-1.875 -0.75,-2.78125 1.15625,-3.125 0.1875,-2.0625 -4.46875,-2.6875 -1.65625,-1.8125 -1.34375,-2.78125 -1.25,-0.3125 -1,-2.34375 0.375,-1.21875 -0.25,-2.125 -5.15625,-8.71875 -3.59375,-2.875 -0.5,-1.9375 0.46875,-2.5 -170.96875,0 z m 285.3125,0 1.9375,2.46875 -0.25,0.78125 1.28125,0.375 1.40625,-0.625 2.53125,0.1875 -2.1875,-2.78125 -1.40625,-0.40625 -3.3125,0 z m -201.1875,48.15625 1.3125,1.25 0.5625,1.84375 -0.6875,1.15625 0.6875,1.0625 2.53125,2.40625 2.8125,1.6875 0.40625,1.59375 -1.40625,0.15625 -0.34375,4.625 -1.15625,2.6875 0.28125,1.03125 -1.09375,2.25 1.0625,3.71875 -2.5,2.5 -1,2.25 3.65625,6.46875 0.4375,2.875 -0.28125,1.21875 -6.03125,-4.90625 1.09375,-2.34375 -1.4375,-4.65625 -2.40625,-1.96875 0.375,-1.125 0.25,-1.71875 1.75,-0.5625 -1.59375,-2.6875 -0.4375,-1.28125 -0.59375,-1.75 -1.71875,1.78125 -0.28125,-1.53125 0.5,-1.8125 3.78125,0.1875 -1.3125,-1.84375 3,-2.40625 -1.375,-1.15625 0.4375,-1.125 2.15625,1.125 0.53125,-1.0625 -0.21875,-1.09375 -3.21875,-3.75 -0.15625,-2.21875 1.625,-2.875 z"
     id="rect12"
     inkscape:connector-curvature="0" />
  <path
	 style="fill:#9FAEC0"
	 stroke="#9FAEC0"
	 stroke-width="10"
     d="m 31.15625,810.59375 0,0.0937 -0.5625,1.6875 2.46875,3.46875 0.125,2.09375 -0.5,1.6875 -1.9375,1.46875 -0.46875,1.53125 1.0625,2.3125 0.28125,2.03125 0.9375,1.40625 0.125,1.03125 -0.5625,1.40625 -2.125,3.0625 -1.5625,1.15625 -1.375,2.25 -2.0625,1.65625 -1.28125,2.25 0.40625,1.6875 1.53125,2.3125 -0.625,4.75 0.125,1.1875 1.25,2.75 3.8125,3.15625 -0.15625,1.71875 -1.4375,1.75 -2.3125,-0.25 -1.125,1.25 -0.5625,1.53125 -0.15625,1.53125 0.9375,2.46875 -4,4.125 -1.3125,-0.8125 -2.875,2.375 -4.0625,1.3125 -2.6875,0.28125 -3.84375,3.1875 -0.0625,2.90625 1.03125,0.625 0.46875,1.625 -0.0625,4.78125 0.71875,3.4375 -0.0312,1.3125 -1.5625,1.59375 -0.34375,1.46875 0.0937,3.21875 -0.5625,1.25 -1.875,2.15625 -3.15625,2.4375 -0.84375,3.0625 -0.0312,2.625 0.34375,2.65625 -0.75,2.875 1.03125,2.5 1.125,1.3125 0.375,1.34375 0.6875,6.65625 0.75,2.09375 0.125,2.5625 0.59375,1.5 5.65625,5.3125 2.53125,4 0.125,1.96875 -1.71875,1.1875 -0.53125,1.03125 0.96875,1.8125 1.375,-0.21875 1.9375,-1.21875 0.71875,-1.9375 1.84375,0.15625 1.65625,2.59375 1.9375,1.59375 1.1875,5.71875 2.46875,3.34375 1.375,2.71875 0.0625,1.0625 127,5.06255 174.53125,5.8125 8.65625,0 3.96875,-5.25 2.8125,-5.2813 3.28125,-3.90625 2.6875,-2.3125 5.75,-1.53125 11.21875,3.40625 -1.15625,-19.84375 5.1875,-6.59375 9.09375,-4.875 18.1875,5.65625 2.8125,-10 1.625,-4.125 0.84375,-1.75 3.5,-3.84375 16.46875,-3.4375 10.28125,-6.09375 4.3125,-0.75 3.125,0.0312 4.59375,1.5 9.84375,8.0625 3,-1.5 1.75,-1.46875 2.625,-1.1875 22.875,-0.96875 2.03125,-7.0625 0.0625,-4.53125 0.59375,-4.46875 -0.34375,-4.03125 4.53125,-3.59375 2.3125,-3.34375 1.59375,-3.625 1.03125,3.1875 2.53125,4.25 3.53125,3.5 3.34375,2 8.90625,3 2.9375,0.59375 4.75,-0.1875 4.71875,-1.53125 -1.78125,-7.90625 -1.53125,-4.0625 -2.25,-4.5625 -3.9375,-6.375 -1.5,-0.65625 -2.78125,-0.4375 -11.06255,-9.15615 -9.34375,-19.0625 -0.625,-6.03125 -1.25,-0.78125 -7.25,0.65625 -1.0625,-1.46875 -3.84375,-0.96875 -2.6875,-4.71875 -3.375,-1.21875 L 472.125,823 l -3.3125,-2.75 -2.53125,-2.65625 -5.5625,-4.40625 -0.6875,-2 -0.0625,-0.59375 -428.8125,0 z"
     id="rect14"
     inkscape:connector-curvature="0" />
</svg>
