<?xml version="1.0" encoding="UTF-8" standalone="no"?>
<svg
   xmlns:dc="http://purl.org/dc/elements/1.1/"
   xmlns:cc="http://creativecommons.org/ns#"
   xmlns:rdf="http://www.w3.org/1999/02/22-rdf-syntax-ns#"
   xmlns:svg="http://www.w3.org/2000/svg"
   xmlns="http://www.w3.org/2000/svg"
   xmlns:sodipodi="http://sodipodi.sourceforge.net/DTD/sodipodi-0.dtd"
   xmlns:inkscape="http://www.inkscape.org/namespaces/inkscape"
   width="632.46857"
   height="474.56189"
   viewBox="0 0 632.46857 474.56189"
   id="svg2"
   version="1.1"
   inkscape:version="0.48.1 "
   sodipodi:docname="Aa.svg">
  <metadata
     id="metadata20">
    <rdf:RDF>
      <cc:Work
         rdf:about="">
        <dc:format>image/svg+xml</dc:format>
        <dc:type
           rdf:resource="http://purl.org/dc/dcmitype/StillImage" />
      </cc:Work>
    </rdf:RDF>
  </metadata>
  <defs
     id="defs18" />
  <sodipodi:namedview
     pagecolor="#ffffff"
     bordercolor="#666666"
     borderopacity="1"
     objecttolerance="10"
     gridtolerance="10"
     guidetolerance="10"
     inkscape:pageopacity="0"
     inkscape:pageshadow="2"
     inkscape:window-width="1280"
     inkscape:window-height="1004"
     id="namedview16"
     showgrid="false"
     fit-margin-top="0"
     fit-margin-left="0"
     fit-margin-right="0"
     fit-margin-bottom="0"
     inkscape:zoom="0.77885899"
     inkscape:cx="455.60051"
     inkscape:cy="145.14236"
     inkscape:window-x="-8"
     inkscape:window-y="-8"
     inkscape:window-maximized="1"
     inkscape:current-layer="svg2" />
  <path
	 style="fill:#9FAEC0"
	 stroke="#9FAEC0"
	 stroke-width="10"
     d="m 394.8079,0 -0.6562,0.125 -0.9063,0.46875 -0.6563,0.5 -0.094,0.0625 -0.125,0.0312 -0.375,0.1875 -0.2813,0.0625 -0.2812,0.0937 -0.6875,0 -0.8437,0.125 -1.0313,0.78125 -0.5625,0.96875 -2.5312,-0.0937 -0.5626,-0.0312 -2.0624,0.125 -1.625,0.625 -0.5313,0.625 -0.031,0.59375 -0.4374,0.78125 -0.8126,0.59375 -0.9374,0.65625 -2.625,1.25 -0.5,0.46875 -0.2188,0.0312 -2.2188,0.28125 -0.6874,0.625 -0.3438,0.0937 -0.8125,0.25 -1.1563,0.625 -0.1874,0.3125 -0.5313,0.90625 -1.7813,0.75 -1.8437,1.0625 -0.625,0.1875 -0.5625,0.40625 -1.2188,0.1875 -0.8124,0.8125 -1.0313,0.0937 -0.3437,0.3125 -0.7813,0.6875 -1.0313,0.25 -1.1874,0.625 -1.9376,1.3125 0.063,1.09375 -0.063,0.0937 -2.0937,2 -1.0313,0.0937 -1.5937,1.6875 -0.2813,0.375 -0.1874,0.28125 -1.2188,0.3125 -0.75,0.6875 -1.3438,0.5 -0.8124,1.3125 -1.625,1.4375 -1.125,0.96875 -0.4063,0.375 -1.1563,1 -0.1562,0.125 -0.031,0.0312 -1.5938,1.125 -0.1875,0.125 -0.2813,0.1875 -0.031,0.0312 -0.125,0.125 -1.0625,1.03125 -0.25,0.25 -4.5313,4.5 -1.4062,1.40625 -0.9375,0.96875 -0.6563,0.65625 -0.094,0.0937 -2.3125,1.90625 -1,0.8125 -0.031,0.0312 -0.094,0.0625 -2.7188,2.5625 -2.4374,2.59375 -0.9063,0.8125 -2.2187,2.03125 -3.3438,4.65625 -0.2812,1.15625 -0.75,2.96875 -3.1563,3.03125 -0.9063,0.90625 -3.3124,2.8125 -0.75,0.25 -0.5626,0.625 -0.8124,0.4375 -0.8126,0.65625 -1.6562,0.65625 -0.2188,-0.0625 -0.125,-0.28125 -0.2812,-0.0625 -0.1875,-0.0312 -0.1563,-0.0312 -0.062,0 -1.4063,0 -0.5937,0.375 -2.9688,1.28125 -2.0625,1.65625 -2.0937,1.71875 -1.1563,0.15625 -0.5,0.34375 -0.6875,0 -0.094,-0.0312 -0.25,-0.15625 -2.4687,1.65625 -0.062,1.46875 228,0 0.125,-0.78125 -0.0937,-0.625 -0.375,-0.78125 -0.4375,-1.46875 -0.15625,-0.875 -0.0312,-0.96875 0.0625,-0.65625 0,-0.875 -0.0937,-0.5 -0.1875,-0.625 -0.59375,-1.3125 0,-0.78125 0.0937,-0.84375 0.25,-0.375 0.75,-0.6875 0.34375,-0.375 0.15625,-0.25 0.1875,-0.65625 0.15625,-0.8125 1.15625,-2.71875 0.1875,-0.96875 0,-0.21875 0,-0.0625 0,-0.0312 -0.125,-0.5625 -0.375,-0.9375 0.0937,-0.96875 0,-0.71875 0,-0.0312 -0.0312,-0.25 -0.0625,-0.3125 -0.0312,-0.125 -0.3125,-0.84375 -0.0312,-0.6875 -0.15625,-0.84375 -0.5,-0.71875 -0.5,-0.5 -0.125,-0.1875 -0.0312,-0.1875 -0.0312,-0.0625 0,-0.0312 0.0312,-0.34375 -0.0625,-0.59375 -0.15625,-0.1875 -0.375,-0.125 -0.0625,-0.0937 -0.0937,-0.1875 0,-0.0937 -0.0312,-0.25 -0.0625,-0.15625 0,-0.0312 -0.59375,-0.75 -0.0312,-0.125 0.0312,-0.0312 0.0312,-0.21875 0,-0.125 -0.34375,-0.40625 -0.5625,-0.375 -0.40625,-0.15625 -0.0625,-0.0625 -0.0312,0 -0.0312,-0.0312 -0.28125,-0.5 -0.125,-0.0937 -0.4375,-0.4375 -0.5625,-0.8125 -0.125,-0.6875 -0.15625,-0.34375 -0.3125,-0.4375 0,-0.0937 0,-0.0312 0.0312,-0.0312 0.28125,-0.3125 0.0625,-0.15625 0.0625,-0.1875 -0.0625,-0.25 -0.28125,-0.5625 -0.0312,-0.0312 0,-0.0625 -0.0937,-0.375 -0.0625,-0.3125 -0.5625,-0.53125 -0.0312,-0.0937 0.0312,-0.15625 0.21875,-0.40625 0.0625,-0.34375 0,-0.21875 0.0312,-0.1875 0,-0.0312 0,-0.0937 -0.0312,-0.0937 -0.0625,-0.28125 0.0312,-0.0937 0.5613,-0.40685 0.0937,-0.125 -0.375,-0.4375 0.40625,-0.78125 0,-0.0937 -0.0625,-0.125 0,-0.15625 0.375,-0.59375 0.0937,-0.0312 0.1875,0 0.0937,-0.0937 -0.0312,-0.28125 -0.21875,-0.28125 0.0625,-0.75 0,-0.0937 0.0625,-0.0625 0.3125,-0.125 0,-0.28125 -0.1875,-0.25 -0.0312,-0.125 0.375,-0.28125 0.3125,-0.71875 0,-0.0937 -0.21875,-0.3125 -0.125,-0.21875 0,-0.0625 0.0625,-2.59375 -0.0312,-1.25 -0.0312,-0.40625 0,-0.0312 0.15625,-0.375 0.46875,-0.59375 0.28125,-0.46875 0.0312,-0.0625 0,-0.0312 0.0625,-0.1875 0.34375,-1.0625 0.15625,-0.5 0.21875,-0.34375 0.6875,-0.625 0.15625,-0.3125 0.0312,-0.375 0,-0.0625 0,-0.28125 -0.0625,-0.75 -0.0312,-0.3125 -0.0937,-0.25 -1.15625,-1.25 -0.28125,-0.40625 -0.125,-0.125 -0.25,-0.1875 -0.59375,-0.34375 -0.1875,-0.15625 -0.0937,-0.0625 -0.0312,-0.0625 -0.125,-0.15625 -0.34375,-0.59375 -0.25,-0.0937 -0.0625,-0.0625 -0.15625,-0.75 0,-0.40625 0.125,-0.84375 0.3125,-0.40625 0.3125,-0.15625 0.21875,-0.46875 0.21875,-0.875 0.28125,-1.375 0,-0.125 0.0625,-0.21875 0.15625,-0.59375 0.15625,-0.4375 0.15625,-0.34375 0.21875,-0.28125 0.34375,-0.34375 0.125,-0.0937 0.53125,-0.34375 0.125,-0.21875 0.0312,-0.0625 0,-0.0312 0,-0.0625 0.0625,-0.625 -0.0937,-2 0.125,-1.8125 -0.0312,-0.4375 -0.0312,-0.125 -0.0625,-0.0625 -0.40625,-0.40625 -0.125,-0.15625 -0.3125,-0.46875 -0.21875,-0.46875 -0.0625,-0.21875 -0.0312,-0.125 -0.0625,-0.34375 0.0937,-0.3125 0.0312,0 0.25,-0.4375 0.5625,-1.71875 -0.75,0 -0.40625,0.0312 -0.78125,0 -1.6875,0.0312 -1.8125,0.0625 -2.125,0.0312 -1.21875,0.0625 -5.3125,0.1875 -0.8125,0.0312 -2.46875,0.0937 -6.375,0.25 -0.96875,0 -1.875,0.0625 -7,-0.0625 -4.1875,0.125 -4.75,0.0937 -12.21875,0.5625 -9.375,0.46875 -0.0312,0 -0.15625,0 -4.8125,-0.0625 -2.15625,0 -0.375,0 -0.34375,0 -2.5625,0 -4.53125,0 -0.28125,0 -0.59375,-0.0312 -7.9375,-0.4375 -0.46875,0 -0.78125,-0.0625 -4.03125,-0.0937 -0.0312,0 -3.25,-0.0625 -1.81255,-0.0312 -6.0312,-0.0625 -1.1562,0 -0.4688,-0.21875 -0.4688,0.0625 -0.4374,0.0937 -0.4376,0.0312 -1.4374,-0.375 -1.6563,0.5625 -0.2813,0.34375 -0.4062,0.4375 -1.0625,0 -1,-0.375 -0.25,-0.0937 -0.6875,-0.9375 -1.9375,-0.0625 -0.5,-0.46875 -0.5,-0.21875 -0.625,-0.25 -0.5,0.0625 -0.5625,-0.3125 z"
     id="rect4"
     inkscape:connector-curvature="0" />
  <path
	 style="fill:#9FAEC0"
	 stroke="#9FAEC0"
	 stroke-width="10"
     d="m 287.9329,78.65625 -0.125,2.84375 -2.1875,1.9375 -0.8437,0.46875 -0.375,0.21875 -3.0938,1.15625 -0.3438,-0.0625 -1.25,0.0312 -1.6874,0.0312 -2.0938,0.46875 -3.1875,6.5 -0.25,0.40625 0,0.0312 -0.2187,1.03125 -0.4376,1.21875 -0.25,1.1875 0.4688,1.34375 0.062,1.75 4.4687,1.21875 0.3126,0.21875 0.2812,1.25 0,0.0625 -0.2188,1.4375 -0.031,0.875 0.094,0.53125 0.1562,0.46875 0.7188,0.1875 0.4687,0.21875 1,0.84375 0.2187,0.59375 -0.1562,0.875 0,0.6875 0.375,0.28125 0.4688,0.21875 0.4687,0.0312 0.625,0 0.625,-0.21875 0.6875,-0.53125 1.5938,0.5625 1.8124,0.65625 0.063,0 0.8124,0.65625 0.375,0.28125 1.8438,-0.25 0.062,0 0.5625,0.28125 0.3125,0.625 0.062,0.125 0,0.96875 0.062,0.5625 0.25,0.75 0.031,0.0625 0.4062,2.0625 -0.094,0.96875 -0.094,0.59375 -0.4687,0.53125 -0.9688,0.4375 -1.0312,0.125 -1.7813,1.0625 -0.9687,0.875 -0.7813,0.4375 -0.031,0 -1.3124,-0.1875 -0.6563,-0.875 -0.5625,-0.25 -0.7188,-0.0625 -0.5,0.25 -0.9687,0.25 -0.5937,0.5 -0.5626,0.5625 -0.5312,0.46875 -0.125,0.8125 0.094,0.75 0.4374,0.28125 0.875,0.3125 1.3438,1.3125 1.0938,1.5 0.4062,0.53125 0.094,0.15625 0.062,0.0625 0,0.0625 0.1876,0.65625 0.3437,1.40625 0.5625,2.375 0.1875,0.8125 0.5313,3.125 0.031,0.21875 0.062,0.3125 0.4063,4.0625 0.3124,3.1875 0,0.0937 -0.031,0.28125 -0.062,1.65625 -0.062,1.71875 -0.062,1.4375 -0.3437,2.65625 -0.5,1.5625 -0.6563,1.59375 -0.8437,1.25 -0.5938,0.40625 -0.3438,0.0937 -1.5624,0.375 -0.8438,0.375 -2.125,0.875 -0.9062,0.0312 244.9062,0 0,-0.25 0.0312,-0.40625 -0.0937,-0.0312 0,-0.4375 0.0625,-0.25 0.28125,-0.21875 0.125,-0.1875 0.0312,-0.28125 0,-0.28125 -0.0625,0 -0.15625,-0.34375 -0.1875,-0.375 -0.0937,-0.125 -0.1875,-0.0625 -0.0312,-0.71875 0.15625,-0.21875 0,-0.0312 0,-0.125 -0.34375,-0.3125 -0.46875,-0.84375 -0.1875,-0.15625 -0.25,-0.25 -0.4375,-0.34375 -0.8125,-0.21875 -0.0937,-0.125 -0.0312,-0.21875 -0.28125,-0.1875 -0.6875,0.0625 -0.0937,-0.0312 -0.0625,-0.125 0.0625,-0.1875 0,-0.0625 0.1875,-0.21875 0,-0.0625 -0.375,-0.21875 0.28125,-0.5625 0.0625,-0.125 0.0312,-0.46875 0,-0.4375 -0.125,-0.28125 -0.34375,-0.5 -0.1875,-0.0937 -0.125,-1.4375 -0.0312,-0.125 -0.125,-0.15625 -0.1875,-0.0937 -0.125,0.0625 -0.21875,0.34375 -0.1875,-0.0312 -0.375,-0.3125 -0.5,-0.0312 -0.3125,0.1875 -0.0312,0 -1.125,0 -0.4375,0.375 -0.875,-0.28125 -0.0312,0.0625 -0.53125,0.125 -0.125,-0.0312 -0.125,-0.0937 0,-0.0312 -0.0625,0 -0.15625,0.0312 -0.0312,0 0,0.0312 -0.0312,0.15625 0.1875,0.3125 0,0.0625 -0.375,0.46875 -0.125,0.21875 0.3125,0.6875 0,0.125 -0.0937,0.15625 -0.34375,0.375 -0.46875,0.3125 0.0312,1.28125 0.0625,0.5625 -0.0625,0.1875 0,0.0625 -0.0625,0.15625 -0.625,0.5625 -0.3125,0.1875 0,0.0312 -0.1875,0 -0.1875,-0.0937 -0.40625,-0.25 -0.90625,-0.6875 -0.28125,-0.40625 -0.5,-0.15625 -0.15625,-0.0937 -0.125,-0.1875 -0.0625,-0.125 -0.0312,-0.125 0.0625,-0.25 0.4375,-0.875 0.28125,-0.4375 -0.0625,-0.375 -0.125,-0.46875 0,-0.125 0.46875,-0.875 0.0312,-0.125 -0.0625,-0.15625 -0.75,-1.15625 -0.0625,-0.25 0.15625,-0.625 0.125,-0.1875 0.125,-0.125 0.375,-0.25 0.25,-0.46875 0.0937,-0.59375 0.5,-1.1875 0.0312,-0.3125 0.3125,-0.9375 0.0312,-0.34375 -0.125,-0.40625 0.0312,-0.1875 0.21875,-0.3125 0.28125,-0.15625 0.1875,-0.1875 0.0625,-0.0312 0.125,-0.25 0.0312,-0.0312 0.125,-0.40625 0.46875,-0.84375 0.25,-0.28125 0.40625,-0.375 0.5625,-0.8125 0.0625,-0.34375 -0.0625,-0.71875 0.0312,-0.71875 0.0312,-0.125 0,-0.0625 0.0312,0 0.0625,-0.15625 0.375,-0.625 0.75,-1.3125 0.3125,-0.65625 0,-0.0625 0.0312,-0.0937 -0.34375,-0.53125 -0.0625,-0.15625 -0.15625,-0.78125 -0.40625,-0.46875 -0.4375,-0.3125 -0.65625,-0.59375 -0.0937,-0.1875 -0.0625,-0.5625 -0.0937,-0.25 -0.125,-0.28125 -0.1875,-0.21875 -0.5625,-0.4375 -0.1875,-0.375 0,-0.125 0.1875,-0.75 0.15625,-0.34375 0.53125,-0.5 0.40625,-0.21875 0.21875,-0.34375 0.125,-0.28125 0,-0.0937 -0.125,-0.15625 -0.5625,-0.53125 -0.0625,-0.1875 -0.0312,-0.0312 0,-0.0312 0,-0.0312 0.0312,-0.40625 0.1875,-0.5625 0.40625,-1 0.0312,-0.15625 -0.0312,-0.0312 -0.15625,-0.46875 -0.59375,-1.09375 -0.96875,-1.28125 -0.125,-0.28125 -0.28125,-1.1875 -0.28125,-0.71875 -0.28125,-0.625 -0.0625,-0.3125 0.25,-1.6875 -0.0937,-1.9375 -0.375,-0.875 -0.0937,-0.4375 0,-0.3125 0.0937,-0.34375 0.4375,-2.65625 0,-0.5 -0.15565,-0.53175 -0.21875,-0.59375 -0.3125,-0.28125 -0.4375,-0.25 -0.25,-0.0937 -0.34375,-0.46875 -0.0312,0 -0.0312,-0.0312 -0.21875,-0.125 -0.46875,-0.40625 -0.0625,-0.25 0.4375,-1.9375 0.15625,-0.875 0.0625,-0.8125 0.71875,-1.40625 0.3125,-0.6875 0.34375,-1.1875 0.0312,-0.0625 0.0312,-0.125 -0.0312,-0.53125 -0.15625,-0.875 -0.15625,-0.59375 0,-0.125 0.3125,-0.53125 0.28125,-0.15625 0.40625,-0.53125 0.0625,-0.15625 0.21875,-1 0.0625,-0.71875 0.28125,-0.40625 0,-0.0937 -0.0937,-0.1875 -0.0625,-0.28125 0.0312,-0.25 0.0937,-0.1875 0.4375,-0.40625 0.0625,-0.1875 -0.0312,-0.0312 -0.0312,-0.46875 -0.0312,-0.3125 0,-0.1875 0.15625,-0.125 0.0312,-0.0312 0.0937,0 0.15625,-0.0312 0.0937,-0.0625 0.15625,-0.40625 0.34375,-0.25 0.1875,-0.0312 0.25,-0.25 0.125,-0.25 0.6875,-0.40625 0.0625,-0.21875 0.28125,-0.59375 0.21875,-0.34375 0,-0.375 0.0312,-0.0625 0.3125,-0.25 0.0625,-0.46875 0.625,-0.4375 -0.0937,-0.375 0.53125,-0.15625 0.21875,-0.125 0.28125,-0.34375 0.0937,-0.0312 0.375,0.0937 0.0937,-0.0312 0.28125,-0.59375 0.28125,-0.875 0.25,-0.6875 0.0312,-0.0937 0.0312,-0.15625 -228,0 z m -16.6875,77.8125 -3.1563,0.25 -0.5624,0.21875 -1.1563,0.90625 7.625,0 -0.6875,-0.0937 -1.875,-1.28125 -0.1875,0 z"
     id="rect6"
     inkscape:connector-curvature="0" />
  <path
	 style="fill:#9FAEC0"
	 stroke="#9FAEC0"
	 stroke-width="10"
     d="m 266.3704,157.84375 -0.4375,0.34375 -2.7812,1.75 -0.75,1.125 -0.4376,0.6875 -1.5624,0.65625 -0.7188,-0.21875 -0.031,0 -0.4688,0.28125 -0.031,0 -0.4376,0.5 -0.3124,0.375 -0.3126,0.125 -0.1562,0.0937 -2.0312,1 -3.5313,2.65625 -0.8125,0.4375 -1.0938,0.59375 -0.9374,1.28125 -2.1563,3.65625 -1.125,1.3125 -0.062,0.0937 -0.031,0.0312 -0.063,0.0625 -1.0312,0.8125 -0.2188,0 -0.094,0 -1.0313,0.0625 -0.1562,0 -0.2188,0 -0.2187,0 -0.625,0.0312 -0.031,0 -0.062,0.0625 -0.2188,0.1875 -1,1.03125 -1,0.75 -0.1562,0.125 -0.625,0.46875 0,0.0312 -0.125,0.0312 -0.8438,0.40625 -1.0625,0.46875 -1.0625,0.125 -1.9688,0.21875 -0.75,0.0937 -1.0624,0.75 -1.7813,0.5625 -0.625,-0.0937 -0.125,0 -1.4063,0.21875 -0.125,0.0625 -0.031,0 -1.2812,0.65625 -1.1876,0.75 -1.1562,0.71875 0,0.0312 -0.125,0 -0.4062,0.0625 -0.4063,-0.0937 -0.031,0 -0.875,-0.15625 -0.4374,-0.0937 -0.625,-0.125 -0.9063,0.3125 -0.7187,0 -1.25,0.0312 -0.7813,0 -1,-0.375 -0.5313,-0.21875 -1.125,-0.4375 -0.5312,-0.0937 -1.0625,-0.21875 -0.5625,-0.125 -0.1875,-0.0312 -1.1875,-0.25 -0.031,0 -0.5938,0.0937 -0.7812,0.125 -0.063,0 -0.062,0.0312 -0.063,-0.0312 -0.062,0 -0.1876,-0.0312 -0.3437,-0.0937 -0.375,-0.0625 -2.1563,0.59375 -0.1874,0.0312 -0.031,0 -0.094,0 -0.7813,-0.0625 -0.2187,0 -0.7188,-0.0625 -0.9688,-0.0937 -0.5,-0.0312 -2.0312,0.34375 -0.7812,0.15625 -0.25,0.0312 -0.9376,0.15625 -1.0312,-0.0312 -0.5,0 -0.5625,0 -1.0937,-0.0312 -0.5626,-0.21875 -0.2812,-0.0937 -2.125,0.0312 -0.031,0 -0.25,0.0312 -2.4063,0.28125 -0.031,0 -0.8124,0.0937 -0.4688,0.0625 -0.7812,0.3125 -1.0938,0.4375 -0.875,0.15625 -0.9062,0.21875 -1.1876,0.40625 -0.3437,0.125 -0.125,0.0625 -0.5313,0.1875 -1,0.375 -1.9374,0.4375 -0.5,0.3125 -0.25,0.15625 -1.2188,0.75 -0.6875,0.4375 -1.2813,-0.125 -0.094,0 -2.0625,-0.78125 -0.031,0 -1.125,-0.8125 -0.8438,-0.625 -0.125,-0.0937 -0.062,-0.0312 -1.4063,-1.03125 -0.5,-0.34375 -0.875,-0.375 -0.1562,-0.0625 -0.25,-0.125 -0.031,0 -0.75,-0.3125 -0.094,-0.0937 -0.4062,-0.28125 -1.375,-1.09375 -0.5626,-0.4375 -1.1874,-0.96875 -0.1876,-0.125 -1,-1.625 -1.3124,-0.6875 -1.4376,-0.5 -0.6874,-0.25 -0.25,-0.40625 -1.125,0.125 -0.031,0 -0.8437,0.0625 -0.9688,-0.0625 -0.9062,-0.21875 -0.625,-0.15625 -4.7188,-0.65625 -1.2812,-0.40625 -1.0626,-0.34375 -1.4374,0 -2.4063,-0.6875 -1,-0.46875 -0.4063,-0.0625 -0.031,0 -0.4688,-0.0625 -1.4687,0.40625 -2.2813,-0.125 -0.75,-0.125 -0.2187,-0.0312 -1.4687,-0.21875 -1.6563,-0.25 -0.062,0 -0.4062,-0.0625 -1.0313,-0.15625 -0.7813,-0.0937 -0.094,-0.0312 -0.875,0 -1.4687,0 -0.6563,0.0312 -0.2813,0 -0.7187,0.0625 -0.25,0.0312 -0.5,0.0312 -2.2187,0.21875 -1,0.0937 -2.375,0.21875 -1.375,-0.1875 -1.0938,-0.0312 -0.8438,-0.0312 -0.3124,-0.0312 -0.875,-0.0312 -1.1563,-0.0312 -0.3437,0 -1.5313,-0.0625 -1.0625,-0.0625 -1.2812,-0.0312 -0.094,0 -0.031,0 -0.031,0 -0.5937,-0.1875 -0.25,-0.0625 -0.063,-0.0312 -0.4687,0.0312 -1,0.0937 -3.6563,0.25 -1.0624,0.0937 -1.4063,0.0937 -0.625,0.0312 -0.062,-0.0312 -0.6875,-0.34375 -0.4375,-0.0312 -0.062,0 -2.3437,0.28125 -1.3126,0.15625 -0.1562,0 -0.875,0.125 -1.4062,0.25 -4.7813,0.84375 -0.7813,0.15625 -0.031,0 -4.7188,1.625 -0.25,0.0937 -1.7187,0.28125 -2.3125,0.40625 -0.5625,0.1875 -1.875,0.59375 -1.9063,0.4375 -1.1874,0.25 -0.3126,0.0937 -0.4687,0.0937 -0.625,0.125 -0.1563,-0.0625 -0.031,-0.0312 -1.3438,0.59375 -0.5,0.1875 -3.3124,1.09375 -2.4063,0.78125 -1.75,0.6875 -1.5313,0.5625 -2.4062,0.5 -1.4375,0.3125 -0.031,0 -4,1.15625 0.625,1.03125 0.094,0.15625 0.4375,1.34375 0.031,0.1875 0.2187,1.53125 0,0.4375 -0.031,0.875 0.094,0.59375 0.094,0.6875 -0.031,0.46875 -0.094,0.96875 -0.031,0.46875 0,0.0937 -0.031,0.5 0.031,0.0937 0.3437,0.84375 0.1563,0.25 0.1563,0.9375 0.125,0.4375 0.062,0.59375 -0.1562,0.5625 -0.4375,0.3125 -0.1875,0.34375 -0.375,0.53125 -0.2812,0.21875 -0.1876,0.46875 0.031,0.53125 0.062,0.4375 0.031,0.21875 0.063,0.40625 -0.2813,0.96875 -0.062,0.15625 -0.031,0.125 0,0.0312 -0.375,0.46875 -0.4063,0.5625 0,0.0937 0,0.46875 2.375,0.65625 0.4063,0.0937 1.0312,0.28125 0.25,0.0937 1.0625,0.28125 0.4063,0.75 0.031,1.0625 -0.5312,1.90625 -0.4063,0.84375 -0.3125,0.6875 0.031,0.96875 0,0.46875 0.031,0.625 0.6563,1 2.2812,1.34375 0.6562,0.375 1.0626,1.15625 2.3437,0.21875 1.0937,0.9375 0.375,0.6875 0.125,0.21875 0,0.0312 0.2813,0.5 0.2813,1.03125 0,0.21875 0,0.84375 -0.031,0.6875 0,0.6875 -0.3125,0.84375 -0.2188,0.5625 1.6563,0.1875 0.3125,0.75 0.125,0.34375 0.3125,0.75 0.8125,1.46875 0.2188,0.0312 0.3124,0.0625 0.5,1.15625 -0.094,0.65625 -0.125,0.3125 -0.094,0.21875 -0.1876,0.34375 0.1563,1.4375 0.1875,0.6875 0.031,0.125 0.125,0.5 0.25,0.0312 0.4063,0.90625 -0.1875,0.8125 -0.7188,0.875 -0.2812,0.3125 -0.1875,0.25 -1.4375,1.25 448.5,0 -0.90625,-4.5625 0.375,-0.65625 0.21875,-0.59375 -0.28125,-0.65625 0.15625,-1.46875 0.0625,-0.0937 0.46875,0.15625 0,-0.4375 0.0937,-2.34375 0.125,-3.90625 0,-0.40625 0.0937,-4.125 0.0312,-0.21875 0,-0.125 0.34375,-9.6875 0.3125,-5.40625 0.0312,-0.9375 0.0312,-0.84375 0.0312,-0.21875 0.3125,-8.71875 0.1875,-4.0625 0,-0.1875 0,-0.0625 0.15625,-3.03125 0.28125,-9.8125 0,-0.0312 0,-0.1875 0.0312,-0.90625 0,-0.71875 0.0312,-0.0625 0.0625,-2.84375 0.0312,-0.6875 0,-0.15625 0.0625,-1.40625 0.0625,-1.96875 0.0312,-1.09375 0.0625,-2.28125 0.0625,-2.25 0.0625,-2.1875 -244.9062,0 -1.8126,0.0625 -0.4687,-0.0625 -7.625,0 z"
     id="rect8"
     inkscape:connector-curvature="0" />
  <path
	 style="fill:#9FAEC0"
	 stroke="#9FAEC0"
	 stroke-width="10"
     d="M 70.0579,237.03125 68.9641,238 l -0.25,0.21875 -1.0624,0.90625 -0.125,0.125 -0.8438,0.21875 -0.1875,0.0625 -1.0625,0.28125 -0.625,0.46875 -1.4062,1.03125 -1.7188,1.28125 -1.2188,0.0937 -1,0.3125 -0.9687,0.53125 -1.4375,0.78125 -0.7812,1.5625 -0.2813,0.625 -0.031,0.375 -0.062,1.5 -0.031,0.59375 -0.75,0.5 -0.4687,0 -1,1.0625 -0.2813,0.34375 -1.3125,1.375 -0.062,0.3125 -0.125,0.46875 -0.6563,1.25 -0.2187,0.21875 -0.062,0.0625 -0.062,0.0625 -0.2813,0.0937 -0.125,0.46875 -0.4374,1.65625 -0.031,0.125 -0.125,0.4375 -0.1875,0.25 -0.5625,0.8125 -0.062,0.0625 -0.5312,0.125 -0.4063,0.0937 -0.5313,0.125 -0.2812,0.0625 -0.094,0.0312 -0.031,0 -0.4688,0.0937 -0.625,0.15625 -0.5937,0.125 -0.7813,0.34375 -0.125,0.0625 -1.4687,0.625 -0.031,0 -0.2187,0.0625 -0.875,0.25 -0.4375,0.125 -0.031,0.0312 -0.8126,0.40625 -0.9062,0.46875 -0.5938,0.5 -0.9062,0.78125 -0.25,0.0937 -0.5938,0.25 -1.2187,0.53125 -0.6875,0.3125 -0.3438,0.40625 -0.094,0.125 -0.4063,0.34375 -0.031,0.0625 -0.2188,0.1875 -0.3124,0.0937 -0.031,-0.0312 -0.062,0 -0.4688,-0.125 -0.1562,0 -0.625,0.0625 -0.8125,0.9375 -0.094,0.0625 0,0.0312 -0.031,0 -1.4687,1.34375 -1.3438,0.96875 -0.5312,0.40625 -0.5,0.6875 -1.1876,1.65625 -0.1874,0.28125 -0.9063,0.84375 -0.6875,0.59375 -0.375,0.375 -1.6875,0.71875 -0.4063,0.3125 -0.25,0.1875 -0.9374,0.75 -1.1876,0.9375 -0.125,0.0937 -1.3437,0.96875 -0.031,0 -0.4374,0.34375 -0.875,0.59375 -0.125,0.0937 -1.3438,0.8125 -2.5,1.46875 0,0.0312 -0.5938,0.375 -0.9687,0.65625 -0.1875,0.125 -1.3438,0.875 -0.4687,0.34375 -0.375,0.25 -0.094,0.0625 -0.063,0.0312 -0.031,0 -1.1875,0.6875 -0.625,0.34375 -0.2813,0.15625 -3.2187,1.78125 -0.4687,0.28125 -0.2813,0.125 -3.2187,1.4375 -0.031,0.25 0,1.6875 0,0.875 0.031,6.21875 0,0.4375 0,0.65625 0,1.125 0,1.25 -0.031,2.03125 0.031,1.28125 0,3.4375 0,7.0625 0.031,1.5625 501.75,0 0.15625,-4.78125 -0.78125,0 -0.5,-2.09375 -0.40625,-1.75 0.875,-3.125 0.15625,-0.5 1.5625,-5.59375 2.625,-9.4375 2.3125,-8.21875 0.15625,-0.59375 1.71875,-6.125 0.6875,-2.4375 2.375,-8.4375 0.875,-3.09375 2.3125,-8.21875 3.0625,-10.875 0.75,-2.59375 -0.9375,0 -0.25,-1.3125 -448.5,0 z"
     id="rect10"
     inkscape:connector-curvature="0" />
  <path
	 style="fill:#9FAEC0"
	 stroke="#9FAEC0"
	 stroke-width="10"
     d="m 0.0579,316.21875 0,0.53125 7.3125,0 1.0313,0 0.9687,0 1.0937,0 0.4688,0.0312 0,-0.0312 5.9375,0.0625 1.0313,0 0.8124,0 4.4688,0.0312 4.8438,0 2.5,-0.0312 3.0624,0 3.75,0 3.6563,-0.0312 0.8125,0 0.4062,0 4.4688,-0.0625 2.6875,0 6.6875,0.0312 6.25,0.0312 0.4062,0 0.063,0 0.25,0 2.375,0.0312 3.125,0.0625 2.4687,0.0312 3.7813,0 6.2187,-0.0312 4.1875,-0.0625 3.9062,-0.0625 2.4688,-0.0312 1.6875,-0.0312 0.7813,0 0.5624,0 4.8126,0 4.5,0 6.1874,0.0312 3,0 3.2188,0 2.9688,0.0625 0.1874,0 1.125,-0.0312 5.0626,-0.0625 5.3437,-0.0625 0.2187,0 3.8126,0.0625 1.5312,0 1.9062,0.0312 0.031,0 2.5937,0.0625 0.063,0 3.2812,0.0312 1.4062,0 4.625,0 3.2813,0 0.6563,0 0.75,0 5.8124,-0.0312 9.1563,-0.0625 0.031,0 10.4062,-0.0625 0.094,0 0.031,0 3.75,0 5.0938,0.0312 6.0937,0 9.3125,0.0312 1.9375,0 1.375,0 2.75,0 0.8125,0 0.9062,-0.0312 1.5938,-0.0312 1.5625,-0.0312 2.625,-0.0312 1.875,-0.0312 0,0.0312 3.3437,-0.0625 1.8438,-0.0312 0.4375,0 1.2187,0 0.094,-0.0312 1.5312,0 5.3126,0 1.5312,0.0312 2.25,0 3.0625,0 1.5,0 0.094,0 0.094,0 2.1562,0.0312 11.4688,0.125 0.75,0 0.5938,0 0.4687,0.0312 0.5,0 0.4063,0 0.4687,0 0.5313,0.0312 0.5624,0 2.4376,0.0312 0.094,0 0.5313,0.0312 0.3437,0 8.9687,0.0625 0.5,0 5.4376,-0.0312 5.6562,0 5.9062,-0.0312 0.5938,0 1.4375,0 3.4063,0 4.6562,0 1.75,0 0.25,0 1.7188,0 7.0312,0 2.9688,0.0312 5.6874,0.0625 1.625,0 0.8438,0 9.7188,-0.0937 0.062,0 0.875,0 3.625,-0.0312 5.5626,0 0.5312,-0.0312 3.25,0 0.3438,0 2.125,0 3.6874,0 0.4688,0.25 0.5625,0.1875 0.3437,0.21875 0.094,0.0625 0.2812,0.625 -0.031,0.25 -0.375,1.0625 0.031,0.125 0.2188,0.21875 0.3125,0.0625 0.5,0.21875 0.5625,0.6875 0.1875,0.0937 0.1563,0.6875 0.4062,0.4375 0.2188,0.125 0.5,0.0625 0.1874,0 0.031,-0.0625 -0.031,-0.34375 0,-0.0312 0,-0.0312 0.094,-0.125 0.1562,-0.0625 0.125,0 0.031,0 0.2187,0 0.1876,0.21875 -0.031,0.5625 0.062,0.21875 0.125,0.21875 0.8438,0.4375 0.125,0.53125 0.031,0.125 0.031,0.625 0,0.46875 0.094,0.28125 0.4688,0.84375 0.1557,0.46865 0,0.53125 -0.4062,0.5 0,0.40625 0.125,0.625 0.2812,0.125 0.375,0.0937 0.1875,0.15625 0.25,0.6875 -0.062,0.15625 0,0.0625 -0.1875,0.125 -0.062,0.0625 -0.062,0.0625 -0.125,0.21875 0,0.25 0.062,0.21875 0.062,0.0937 0.062,0.0625 0.062,0.0937 0.2187,0.15625 0.5313,0.0312 0.1563,-0.0937 0.094,-0.0312 0.375,-0.375 0.1875,-0.0312 0.1875,0.15625 0.3437,0.40625 0.2188,0.21875 0.4688,0.21875 0.1562,0 0.031,-0.0312 0.2813,-0.28125 0.375,-0.6875 0.031,-0.0312 0.062,-0.0625 0.3438,-0.125 0.4062,-0.0625 0.063,0 0.5,0.0937 0.25,0.15625 0.062,0.0625 0.1563,0.15625 0.031,0.0312 0.094,0.25 0.125,0.125 0,0.0312 0.125,0.0937 0.1563,0.0312 0.094,-0.0625 0.125,-0.1875 0.1563,-0.34375 0.094,-0.40625 0.031,-0.0625 0.094,-0.125 0,-0.0312 0.094,-0.0937 0.063,0 0.062,-0.0312 0.031,0 0.094,0.0312 0.125,0.0312 0.094,0.0625 0.062,0.0312 0.031,0.0625 0.031,0.0312 0.031,0.0625 0.063,0.28125 -0.063,0.8125 0.2188,0.5625 0.1562,0.25 0.2188,0.1875 0.375,0.15625 0.3125,-0.0312 0.5,-0.25 0.2187,-0.0937 0.2813,-0.0312 0.75,0.75 0.25,0 0.7187,-0.0937 0.25,0.125 0.094,0.125 0.094,0.3125 0,0.4375 -0.125,0.625 -0.031,0.34375 0.031,0.15625 0.125,0.3125 1.0624,0.46875 0.5313,0.5 0.3125,0.1875 0.2812,0 0.063,-0.0312 0.4374,-0.3125 0.125,-0.0312 0.031,0.0312 0.1875,0 0.094,0 0.031,0.0312 0.094,0.0625 0.031,0.0312 0.031,0.0625 0,0.0937 0,0.0312 0,0.0625 0,0.21875 -0.031,0.0937 -0.125,0.5 -0.031,0.15625 -0.063,0.0625 -0.125,0.28125 -0.031,0.0312 -0.094,0.125 -0.25,0.0937 -0.5624,-0.0937 -0.3126,0.0937 -0.062,0 0,0.0312 -0.094,0.125 -0.375,0.46875 -0.1562,0.21875 -0.063,0.0625 -0.062,0.15625 -0.094,0.46875 -0.094,0.8125 0.031,0.15625 0.062,0.15625 0.1875,0.1875 0.031,0.0312 0.031,0 0.1562,0.0312 0.25,0.0625 0.2188,0 1.0625,-0.3125 0.031,0 0.2187,-0.0312 0.031,0 0.031,0.0312 0.031,0.0312 0.063,0.0312 0.062,0.0937 0.063,0.0937 0.25,0.125 0.094,0.0312 0.2813,0.0625 0.3437,0.21875 0.25,0.59375 0.1563,0.28125 0.1562,0.40625 0,0.0625 0.062,0.75 -0.1563,1 0.063,0.625 0.031,0.0937 0,0.125 0.3125,1.28125 -0.031,0.1875 0,0.0312 -0.031,0.0625 -0.031,0.0312 -0.125,0.0625 -0.6876,-0.15625 -0.4374,0.0312 -0.1876,0.25 0,0.21875 0.125,0.28125 0.5938,0.59375 0.25,0.4375 0.3125,0.75 0.125,0.625 0,0.28125 -0.125,0.15625 -0.4687,0.40625 -0.063,0.21875 0.094,0.28125 0.094,0.0937 0.25,0.0625 0.3124,0.59375 0.094,0.65625 0,0.65625 -0.031,0.71875 0,0.15625 0,0.0312 0.062,0.8125 0.031,0.1875 0.375,0.875 -0.062,0.59375 -0.094,0.1875 -0.1562,0.0312 -0.094,0 -0.1562,-0.15625 -0.125,-0.0937 -0.062,0 -0.031,-0.0312 -0.062,0 -0.125,0.0312 -0.375,0.0937 -0.094,0.0937 -0.031,0.0937 0.094,0.1875 0.062,0.15625 0,0.0312 0,0.0937 0,0.0312 -0.031,0 -0.094,0.0625 -0.094,0.0625 -0.062,0 -0.3438,-0.0625 -0.25,0.0625 -0.062,0 -0.25,0.1875 0,0.21875 0.625,0.65625 0.25,0.5 0.2187,0.28125 0.063,0.125 0.5937,0.3125 0.4687,0.5 0.25,0.84375 0.25,0.5625 0.2813,0.28125 0.3125,0.21875 0.3125,0.0312 0.1563,0.125 0.7187,1.21875 0.1563,0.5625 0.031,0.25 -0.125,0.15625 -0.4062,0.125 -0.1563,0.1875 0,0.46875 0.031,0.125 0.094,0.0937 0.5313,0.0937 0.125,0.0937 0.4374,0.3125 0.4376,0.4375 0.2187,0.375 0.031,0.125 0,0.1875 -0.1563,0.3125 -0.062,0.375 0,0.1875 0.031,0.125 0.2813,0.0625 0.4687,-0.125 0.5,0 0.1563,0.0937 0.031,0.0312 0.031,0.0312 0.031,0.0625 0.031,0.0937 0,0.0312 0.125,0.46875 0.031,0.25 -0.031,0.21875 -0.2187,0.78125 -0.031,0.34375 0.062,0.21875 0.031,0.0937 0.031,0.0937 0.062,0.0937 0.031,0.0625 0.063,0.0312 0.031,0.0312 0.9375,0.25 0.062,0 0.875,0.125 0.1562,-0.0625 0.6563,-0.40625 0.1875,-0.25 0.3125,-0.0312 0.75,0.125 0.4375,0.40625 0.2188,0.125 0.031,0 0.5,0 0.062,0.0312 0.3125,0.125 0.031,0.0312 0.1876,0.25 0.062,0.0625 0,0.0625 0.063,0.375 0,0.375 0.094,0.375 0.2187,0.125 0.75,0.1875 0.2188,0.125 0.1562,0.15625 0.094,0.3125 0,0.125 -0.4688,0.53125 -0.125,0.4375 0.031,0.21875 0.1875,0.0937 0.4062,0.0937 0.9688,-0.21875 0.9688,-0.40625 0.4687,-0.0312 0.3437,0.125 0.4688,0.3125 0.2188,0.28125 0.7187,0.625 0.1563,0.0937 0.3437,0.0312 0.1563,-0.0312 0.1874,-0.0937 0.25,-0.53125 0.031,0 0.062,-0.0937 0.1875,-0.15625 0.062,-0.0937 0.062,-0.0625 0.094,-0.0312 0.375,-0.21875 0.375,0 0.1563,0.0937 0.3437,0.40625 0,0.0312 0.063,0.125 0,0.0625 0.031,0.375 0.031,0.125 0.094,0.1875 0.2188,0.5 0.031,0.0937 0.125,0.125 0.2812,0.0937 0.4688,-0.0625 0.5,-0.28125 0.4062,-0.125 0.1876,0 0.4687,0.21875 0.094,0.0625 0.125,0 0.2188,0.0312 0.062,0 0.031,0 0.2812,-0.1875 0.031,0 0.2813,-0.3125 0.5625,-0.28125 0.2188,-0.0312 0.2187,0.0312 0.125,0.15625 0.094,0.1875 0.063,0.1875 0,0.3125 -0.3126,0.96875 -0.1874,0.21875 -0.063,0.375 0.063,0.28125 0.1874,0.40625 0.2188,0.3125 0.1875,0.125 0.25,0.15625 0.7813,0.0937 0.375,0.21875 0.2187,0.28125 0.062,0.25 0.1875,0.5625 0.125,0.34375 0.4375,0.40625 0.4688,0.34375 0.1874,0.15625 0.3126,0.3125 0.125,0.375 -0.031,0.21875 -0.094,0.15625 -0.4376,0.3125 0.125,-0.0312 0.094,0.0625 0.125,0.0625 1.4688,0.90625 2.5937,1.5625 2.7187,1.59375 3.625,2.1875 0.094,0.0625 0.125,0.0937 0.2812,0.15625 1.56255,0.96875 0.875,0.53125 2.0625,1.28125 1.8125,1.09375 1.25,0.71875 75.875,0 -0.4375,-0.6875 -0.53125,-0.875 -0.0937,-0.125 -0.78125,-1.1875 -0.96875,-1.53125 -0.0625,-0.0937 -0.15625,-0.25 0.0625,-0.6875 0.0312,-0.125 0.0625,-0.46875 -0.0312,-0.21875 -0.0312,-0.65625 0.0625,-1.09375 0.0625,-0.96875 0.28125,-3.25 0.0937,-1.0625 0.0625,-1.34375 0.0312,-0.0937 0.0937,-1.65625 0.28125,-2.9375 0,-0.1875 0.0312,-0.5625 0.0937,-1.0625 0,-0.1875 0,-0.21875 0,-0.0625 0.0312,-0.15625 0.0937,-1.96875 0,-0.0312 0,-0.0625 0.0312,-0.125 0,-0.0937 0,-0.0937 0.125,-2.09375 0.1875,-2.875 0.6875,-9.375 0.0312,-0.34375 0.0937,-2.25 0,-0.34375 0.15625,-2.78125 0.0937,-1.75 0.40625,-5.59375 0.0625,-1.875 0.46875,-6.84375 0,-0.0312 0.25,-3.59375 0,-0.0312 0.1875,-2.125 0,-0.3125 0.0937,-1.125 0.15625,-3.125 0.28125,-3.78125 0.28125,-4.375 0.0312,-0.4375 -501.75005,0 z m 626.71875,74.96875 -1.3125,0.375 -0.75,0.15625 -0.8125,0.1875 -0.5625,0.125 -0.8125,0.1875 -0.875,-0.0937 -0.15625,0.0937 -1.09375,0.71875 -0.21875,0 -0.75,-0.0625 -0.375,0.3125 0,0.0312 -0.0312,0.0312 -0.1875,0.34375 -0.25,0.4375 -0.4375,0.8125 -0.15625,0.5625 0.28125,0 2.40625,-0.28125 0.0312,0 0.0312,0 0.0937,-0.0625 0.34375,-0.21875 0.1875,-0.0937 1.25,-0.90625 1.3125,-0.625 1.3125,-0.5625 0.875,-0.4375 0.65625,-1.03125 z"
     id="rect12"
     inkscape:connector-curvature="0" />
  <path
	 style="fill:#9FAEC0"
	 stroke="#9FAEC0"
	 stroke-width="10"
     d="m 424.02665,395.40625 0.3125,0.1875 1.40625,0.9375 0.8125,0.53125 0.53125,0.34375 3.1875,2.09375 0.15625,0.0937 0.1875,0.125 0.34375,0.21875 0.6875,0.40625 1.9375,1.15625 1.625,0.96875 0.0312,0.0312 1.53125,1.03125 4.71875,2.71875 0.6875,0.40625 3.1875,1.71875 0.96875,0.53125 1.59375,0.90625 0.25,0.15625 0.0937,0.0312 0.65625,0.375 0.0312,0.0312 0.1875,0.125 0.0312,0 0.375,0.21875 1.03125,0.59375 0.125,0.0937 0.0312,0.0312 0.53125,0.28125 0.125,0.0625 0.5625,0.34375 0.46875,0.28125 0.65625,0.375 0.0937,0.0625 0.34375,0.1875 0.875,0.5 0.15625,0.0937 0.9375,0.5625 0.90625,0.5 0.1875,0.125 0.25,0.15625 0.8125,0.46875 0.59375,0.34375 0.0625,0.0312 0.59375,0.34375 0.0937,0.0625 0.875,0.5 1.0625,0.65625 1.8125,1.0625 0.84375,0.46875 0.59375,0.34375 0.53125,0.3125 0.0937,0.0625 0.53125,0.3125 0.46875,0.28125 1.53125,0.90625 0.65625,0.375 0.375,0.28125 0.15625,0.0937 0.1875,0.0312 0.71875,0.0312 -0.21875,1.625 -0.1875,0.71875 -0.46875,1.75 -0.21875,0.6875 -0.25,1.0625 -0.125,0.625 -0.28125,1.125 -0.15625,0.5625 -0.0312,0.1875 -0.0312,0.0312 -0.0625,0.25 -0.0312,0.15625 -0.75,2.5 -0.3125,0.6875 0.71875,0.3125 0.15625,0.0625 0.0625,-0.0312 0.125,-0.125 0.0625,0.15625 0.125,0.25 0.15625,0.0312 0.34375,-0.3125 0.0937,-0.0937 0.0625,0.0937 0.125,0.125 0.125,0.15625 0.0312,0.0625 0,0.0312 0,0.3125 0,0.0312 -0.0312,0.0312 -0.0937,0.125 0,0.0312 -0.0937,0.34375 -0.0312,0.0937 -0.0312,0 -0.3125,0.5 0,0.0312 -0.0312,0.0625 -0.15625,0.1875 -0.0312,0.0312 -0.0937,0.125 0,0.0312 -0.15625,0.1875 0.0312,0 -0.125,0.1875 0,0.0312 -0.0312,0.0937 -0.15625,0.28125 0,0.0312 -0.0312,0.0312 -0.25,0.40625 -0.0625,0.0937 -0.125,0.34375 -0.25,0.65625 -0.0312,0.25 0,0.40625 0,0.0312 0.0312,0.0312 0,0.0312 0.0312,0.0312 0,0.0312 0,0.21875 0,0.0312 0,0.0312 0,0.0312 0,0.0312 0,0.0625 0.0312,0.0312 -0.0312,0.0312 0,0.0312 0,0.0312 0,0.0312 0.0312,0.3125 0,0.46875 0,0.0312 0,0.0312 -0.0312,0.0312 0,0.0312 0,0.21875 0.0625,0.34375 0,0.0312 0.0937,0.0937 0.15625,0.28125 0.0312,0.0312 0.0312,0.0937 0.3125,0 0.0625,0 0.0312,0.0312 0.28125,0.3125 0.375,0.21875 0.0625,0.0625 0.0312,0 1.03125,0.40625 0.53125,0.21875 0.0312,0 0.125,0 0.0937,0 0.0312,0.0625 0.0937,0.28125 0.1875,0.0312 0.3125,0.0625 0.0312,0 0.125,0.0312 0.46875,-0.0312 0.0625,-0.0312 0.0312,-0.125 0,-0.0312 0.0625,-0.1875 0,-0.0312 0.0312,-0.0312 0.21875,-0.28125 0.34375,-0.40625 0.0312,0 0,-0.0312 0.0312,0 0.78125,-0.25 0.0312,-0.0312 0.0312,0 0.6875,-0.125 0.71875,-0.0937 0.34375,-0.0625 0.0312,0 0.21875,-0.0625 0.0312,0 0.3125,-0.125 0.0312,0 0.53125,-0.125 0.0312,0 0.40625,0.0312 0.0312,0 0.5,0.1875 0.4375,0.1875 0.4375,0.1875 0.0312,0 0.40625,-0.0312 0.0937,-0.0625 -0.8125,-1.375 -0.0312,-0.0625 -0.0312,-0.0312 -0.0312,0 -0.0937,-0.0625 -0.3125,-0.15625 -0.0625,-0.0312 -0.0312,-0.0312 -0.0625,-0.0625 -0.1875,-0.25 -0.21875,-0.21875 -0.0937,-0.125 -0.0312,-0.0625 -0.25,-0.53125 -0.0312,-0.0625 0,-0.125 0,-0.0937 -0.0312,-0.21875 0.0312,-0.0937 0.0312,-0.28125 0.0312,-0.0312 0.0625,-0.375 0.0625,-0.4375 0.34375,-0.1875 0.125,-0.0937 0.53125,0.125 0.0625,0.0312 0.0312,-0.0937 0.15625,-0.34375 0.0937,-0.0937 0.1875,-0.28125 0.0312,0 0.0937,0 0.21875,0.46875 -0.0937,0.34375 -0.0312,0.125 0,0.0312 0.125,0.25 0.0937,0.21875 0.15625,0.25 0.0625,0.1875 0.125,0.125 0.0937,-0.0937 0.0312,0 0.0937,-0.125 0,-0.0312 -0.0625,-0.34375 0,-0.0312 0,-0.21875 0,-0.0937 0,-0.1875 -0.15625,-0.34375 -0.0625,-0.125 -0.25,-0.21875 0,-0.0312 -0.0625,-0.4375 0.0312,-0.1875 0.21875,-0.9375 0.0625,-1 0.0937,-0.25 0.0312,-0.0937 0.0937,-0.1875 0.0625,-0.1875 0.125,-0.1875 0.0937,-0.125 0.0625,-0.0937 1,-1.4375 0.34375,-0.53125 0.34375,-0.46875 0.125,-0.0937 0.0312,0 0,-0.0312 0.125,-0.0625 0.3125,-0.1875 0.0625,-0.0625 0.0937,-0.0625 0.0312,0 0.0312,-0.0312 0.0625,-0.0625 0.0625,0 0.0312,-0.0312 0.0937,-0.0625 0.59375,-0.40625 0.34375,-0.21875 0.78125,-0.71875 0.6875,-0.28125 0.0937,-0.0625 0.75,-0.28125 0.375,-0.1875 0.9375,-0.59375 0.25,-0.375 0.15625,-0.59375 0,-0.0312 0.15625,-0.46875 0.0937,-0.375 0.4375,-0.15625 0.46875,-0.21875 0.1875,-0.0937 0.1875,0.125 0.1875,-0.25 0.3125,-1.15625 -0.0312,-0.21875 -0.0937,-0.375 0,-0.0312 -0.1875,-0.25 0.0937,-0.59375 -0.0312,-0.0937 0,-0.125 -0.0312,-0.40625 0.125,-0.375 0.1875,-0.5 0.0641,-0.40525 -0.0312,-0.0625 -0.0312,-0.0625 -0.28125,-0.40625 -0.125,-0.15625 -0.15625,-0.25 -0.3125,-0.46875 -0.3125,-0.53125 -0.0312,-0.0312 -0.375,-0.59375 -0.375,-0.59375 -0.125,-0.25 -0.0937,-0.125 -0.34375,-0.5625 -0.5625,-0.90625 -0.96875,-1.5625 -0.65625,-1.09375 -0.1875,-0.3125 -0.46875,-0.625 -0.40625,-0.75 2.53125,-1.5625 1.0625,-0.625 1.03125,-0.625 0.75,-0.46875 1.6875,-1 0.59375,-0.375 1.40625,-0.84375 3.96875,-2.3125 2.3125,-1.40625 1.71875,-1.0625 0.125,-0.0625 0.28125,-0.15625 2.125,-1.28125 -0.8125,-1.3125 -0.5,-0.8125 -1.09375,-1.78125 -75.875,0 z m 193.96875,0 0,0.0312 0.28125,-0.0312 -0.28125,0 z m -16.6875,9.34375 -1.1875,0.46875 -0.625,0.25 -0.40625,-0.0937 -0.28125,-0.21875 -0.1875,-0.15625 -0.875,0.25 -0.0937,0.0625 -0.0625,0.0312 -0.78125,0.5 -0.625,0.375 -0.53125,0.34375 -0.375,0.25 -0.125,0.0937 -0.875,0.25 0,0.0312 -1.8125,0.4375 -0.0312,0.0312 -0.4375,0.53125 -0.75,0.90625 -1.3125,1.5625 -0.59375,0.71875 -0.15625,0.1875 -1.5,0.78125 -0.1875,0.0937 -1.375,0.125 -0.8125,0.0625 -0.46875,0.75 -0.75,1.25 -1.125,1.3125 -0.21875,0.25 -0.84375,0.375 -1.28125,0.53125 -0.78125,0.34375 -0.375,0.15625 -0.1875,0.0937 -0.0312,0.0312 -2.28125,1.875 -0.875,0.4375 -0.34375,0.625 -0.0625,0.0625 -1.53125,1.1875 -0.0312,0 -0.5625,0.125 -3.40625,0.625 -2.34375,0.3125 -0.0312,0 -1.96875,-0.21875 -1.9375,0.40625 -0.0625,0.0312 -3.28125,0.96875 -0.375,0.0937 -1.125,1.0625 -0.40625,-0.0625 -0.625,-0.0625 -1.90625,-0.21875 -1.21875,-0.125 -0.0312,0 -0.28125,0.0312 -2.375,0.34375 -0.3125,0.0625 -0.0625,0 -0.0937,0 -0.25,0.0312 -1.03125,0.15625 -0.1875,0.0312 -0.34375,0.0625 -0.21875,0 -0.9375,0.0312 -0.875,0 -0.375,-0.0312 -0.5,-0.0625 -1.03125,-0.125 -0.6875,-0.0625 -0.71875,-0.0937 -1.5625,-0.0312 -0.15625,0 -0.65625,0 -0.875,0 -1.15625,0.0625 -0.84375,0.0625 -1.125,0.0625 -0.4375,0.0312 -0.15625,0.125 -0.0312,0 -0.0937,0.0937 -0.0937,-0.0312 -1.03125,-0.375 -0.71875,-0.28125 -0.40625,-0.15625 -0.21875,-0.0937 -0.125,-0.0312 -0.40625,-0.15625 -0.0312,0 -0.84375,0.0312 -0.21875,0.0312 -1.21875,0.0625 -0.40625,0.0937 -0.0312,0 -0.21875,0.0625 -1.3125,0.3125 -0.15625,0.0312 -0.0625,0.0312 -0.0312,0 -0.0312,0 -0.15625,0.0625 -0.0312,0 -0.0937,0.25 -0.0312,0.1875 -0.1875,0.65625 -0.0625,1.15625 -0.0625,1 -0.1875,0.59375 -0.0312,0.0625 -0.125,0.0625 -5.875,2.25 -0.25,0.125 -0.1875,0.0625 -0.0312,0 -0.125,-0.0625 -5.09375,-1.96875 -0.46875,-0.0937 -0.8125,-0.15625 -0.90625,-0.15625 -0.34375,-0.0625 -0.375,-0.0625 -1.03125,0.25 -0.125,0.1875 -0.21875,-0.0625 -0.28125,-0.0625 -0.0625,0 -1.0625,-0.53125 -0.6875,-0.625 -1.46875,-1.875 -0.125,0.0312 -0.0625,0 -0.1875,0 -0.15625,0 -0.0937,0.125 -0.15625,0.84375 -0.0625,0.375 0.0625,1.8125 -0.25,0.5 -1.5625,-0.0937 -0.28125,-0.0312 -0.0312,-0.40625 -0.0312,-0.46875 -0.5625,-0.53125 -0.65625,-0.0937 -0.5625,-0.0625 -0.1875,-0.0312 -0.46875,-0.0625 -0.28125,-0.0312 -1.1875,-0.5 -0.53125,-0.4375 -0.53125,0.46875 -0.375,1.9375 -0.28125,0.5625 -1.1875,0.5625 -0.34375,-0.15625 -0.53125,0.15625 -0.34375,0.0625 -0.125,0.0312 -1.375,0.3125 -0.75,-0.375 -0.625,-0.34375 -0.71875,0.21875 -0.71875,0.28125 -0.625,0.28125 -0.28125,0.125 -0.53125,0.46875 -1.25,0.5 -0.28125,-0.0625 -0.46875,-0.0937 -0.53125,0.125 -0.25,0.25 -0.34375,0.34375 -0.71875,1 -0.34375,0.5 -0.125,1.53125 -1.09375,0.5 -0.0937,0.0312 -0.15625,0.0625 -0.1875,0.0937 -0.0312,0.0312 -3.0625,-1.375 -1.28125,0.375 -0.0625,0.0937 0.125,0.40625 0.1875,0.5 -0.125,0.40625 -0.6875,0.90625 -0.78125,1.03125 -0.125,0.15625 0,0.0312 -0.46875,0.5625 -0.0312,0.0625 0,0.1875 0.0312,0.25 0,0.1875 -0.125,0.21875 -0.1875,0.34375 -0.5,0.90625 -0.34375,0.625 0,0.0312 -0.625,0.5625 -0.40625,0.0312 -0.28125,-0.4375 -0.125,0.0312 -0.0312,0 -0.0312,0 -0.5,0.0312 -0.0312,0 -0.0312,-0.0312 -0.46875,-0.1875 -0.4375,-0.15625 -0.5,-0.1875 -0.3125,-0.0312 -0.0312,0 -0.5,0.0937 -0.0312,0 -0.3125,0.15625 -0.21875,0.0625 -0.0312,0 -0.0312,0 -0.375,0.0625 -0.71875,0.0937 -0.65625,0.125 -0.0312,0 -0.78125,0.25 -0.3125,0.375 -0.1875,0.25 -0.0312,0.0312 -0.0312,0.15625 -0.0312,0.1875 0,0.0625 -0.0625,0.0312 -0.1875,0.0937 -0.0312,0 -0.0312,0 -0.4375,0.0312 -0.0312,0 -0.1875,-0.0312 -0.3125,-0.0625 -0.0312,0 -0.28125,-0.0625 -0.0625,-0.0312 -0.0312,-0.0625 -0.0625,-0.21875 -0.0625,0 -0.0312,0 0,-0.0312 -0.5625,-0.1875 -0.0312,0 -0.78125,-0.3125 0.15625,0.40625 0,0.0625 -0.0625,0.0625 -0.21875,0.1875 0,0.0312 -0.0312,0 -0.0937,0.0312 -0.0625,0.0312 -0.0312,0.0625 -0.0312,0.0312 -0.0625,0.1875 0,0.0625 -0.0312,0.0312 -0.21875,0.0937 -0.0312,0.0312 0,0.0625 0,0.0312 -0.0312,0.0312 -0.3125,0.28125 -0.0312,0.0312 -0.0937,0.0312 -0.0937,0.15625 -0.0312,0.0312 -0.0625,0 -0.1875,0.0312 -0.0625,0 -0.0312,-0.0312 -0.0937,-0.0625 -0.0625,-0.0625 0,-0.0312 -0.0312,-0.0312 -0.0312,0 -0.0625,0.0312 -0.0312,0.0625 0,0.0312 -0.0312,0.15625 -0.0625,0.125 0,0.0312 0.0312,0.0625 0.0937,0.0312 0.125,0.0312 -0.0625,0.125 -0.0625,0.25 -0.0312,0.0625 -0.0937,0 -0.125,0 -0.0312,0.0625 -0.0312,0.0625 -0.0625,0 -0.0937,0.0625 -0.0312,0 -0.15625,0.1875 0,0.0312 -0.0312,0.15625 0,0.0312 0,0.0312 -0.6875,0.90625 -0.21875,0.34375 0.0312,0 -0.15625,0.21875 -0.0937,0.25 0,0.0312 -0.0312,0 -0.21875,0.28125 0,0.15625 0,0.0312 0.0312,0.0937 0,0.0312 0,0.0312 0,0.0312 -0.125,0.3125 0,0.0312 0,0.21875 0,0.0312 0.0312,0 0,0.0312 0,0.0625 0,0.0312 0,0.0312 0.0312,0.15625 0,0.0937 0,0.21875 0.0312,0.125 -0.0312,0.0625 0,0.0312 0,0.0312 0.0312,0 0,0.0937 0,0.0312 -0.0312,0.0312 -0.0312,0.0625 -0.0625,0.0625 -0.25,0.40625 0.0312,0 -0.21875,0.4375 0,0.0312 0,0.0937 0,0.0312 -0.0312,0.0312 -0.0312,0 0,0.0312 -0.0312,0.53125 0,0.15625 -0.15625,-0.0312 -0.0312,0 -0.0312,0 -0.0312,-0.0312 -0.0312,-0.0312 -0.0937,-0.0937 -0.0625,0.0625 -0.0312,0 0,0.0312 -0.34375,0.15625 -0.0312,0 0,0.0312 -0.0312,0 -0.0625,0.0312 -0.0312,0 -0.0312,0.0312 -0.0937,0 -0.0312,0 -0.125,0.0312 -0.0312,0 -0.21875,0 -0.0312,0 -0.0312,0 -0.0312,0 -0.0625,-0.0312 -0.0937,0 -0.0625,0.0312 -0.0312,0 -0.0312,0.0312 -0.0312,0.0312 -0.0625,-0.0312 -0.0625,0 -0.0625,0.0625 0,0.0312 -0.15625,0.28125 0,0.0312 -0.0312,0.0312 0,0.0312 -0.0312,0.0312 0,0.0312 -0.0312,0.0625 -0.0312,0.0937 0,0.0312 -0.0312,0.0625 -0.0312,0.0312 -0.0312,0.0937 0,0.0312 -0.0312,0.0937 0,0.0625 -0.0312,0.0312 -0.0312,0 -0.0312,0.0312 0,0.0312 -0.0312,0.0937 -0.0312,0.0625 -0.0312,0.0625 0,0.0312 -0.0312,0.0625 -0.0625,0.0625 0,0.0312 -0.0937,0.0625 -0.0625,0.0625 0,0.0312 -0.0312,0 -0.0937,0.0625 -0.0937,0.0625 -0.875,0.71875 -0.0937,0.0937 -0.0625,0.0312 0.0625,0.59375 0.0312,0.65625 0.0312,0.34375 0.0312,0.34375 -0.5,0.59375 -0.40625,0.46875 -0.1875,0.25 -0.0625,0.15625 -0.0625,0.0625 0,0.0312 -0.1875,0.375 -0.125,0.28125 -0.0625,0.0937 -0.0625,0.1875 -0.0312,0.1875 -0.0312,0.125 -0.0937,0.3125 -0.0937,0.375 0,0.0937 0.0312,0.15625 0,0.0937 0.0312,0.0937 0,0.0937 0.0312,0.21875 0.0312,0.15625 0.0312,0.15625 0.0312,0.0937 0.0312,0.1875 0.25,0.4375 0.125,0.21875 0.15625,0.21875 0.5625,0.125 0.46875,0.125 0.71875,0.15625 0.625,0.53125 0.125,0.53125 -0.46875,0.71875 -0.34375,0.46875 -0.0312,0.0312 -0.0312,0.0312 -0.0312,0.0625 0.0312,0.15625 0,0.0312 0.0312,0.0937 0,0.0312 0,0.0625 0.15625,0.0937 0.0937,0.0625 0.5625,0.25 0.84375,0.0312 2.5625,-0.25 0.625,-0.0625 0.125,0 0.3125,0.34375 0.125,0.125 0.4375,0.25 0.28125,0.15625 0.21875,0.5 -0.125,0.5 0,0.0312 0,1.03125 2.875,-1.0625 1.5625,-0.5625 1.09375,-0.53125 0.125,-0.0625 0.0625,-0.0312 0.25,-0.125 0.1875,-0.0937 0.34375,-0.15625 0.375,-0.1875 0.0625,-0.0312 0.28125,-0.125 0.6875,-0.34375 0.0937,-0.0312 0.375,-0.15625 0.0937,0 0.5625,-0.21875 0.1875,-0.0625 0.125,-0.0312 0.875,-0.3125 0.1875,-0.0625 0.21875,-0.0312 0.0625,-0.0312 0.40625,-0.0937 0.3125,-0.0937 0.0625,0 0.1875,-0.0625 0.96875,-0.25 0.0312,0 0.0937,-0.0312 0.125,0 0.28125,0 0.1875,0.0312 0.28125,0 0.875,0 -0.0937,0.4375 -0.0312,0.21875 1.21875,0 1.71875,0.0312 1.34375,0.0312 0.34375,0.0312 0.25,0 0.28125,0 0.25,0 0.5,0 1.6875,0.0312 0.125,0 0.25,0.0312 0.21875,0 0.21875,0 0.25,0 0.46875,-0.0937 0.25,-0.0312 0.71875,-0.125 0.0312,-0.0312 1.375,-0.21875 0.6875,0.0312 0.25,0 1.25,0.0625 0.0312,0 0.1875,0.0312 0.1875,0.0312 0.21875,0.0625 0.125,0 0.9375,0.1875 6.21875,-1.4375 2.75,-0.65625 2.125,-0.65625 2.5625,-0.8125 3.21875,-1.34375 2.59375,-0.5625 0.40625,0.75 0.34375,0.65625 0.28125,0.1875 3.34375,-0.0937 0.1875,0 0.125,-0.0312 1.71875,-0.34375 2.15625,-0.53125 0.28125,-0.0625 0.75,-0.25 0.96875,-0.28125 2.3125,-0.71875 0.5,-0.125 0.53125,-0.1875 0.71875,-0.21875 6.5,-1.96875 1.125,-0.4375 1.1875,-0.5 0.5,-0.21875 0.59375,-0.21875 1.5,-0.75 1.40625,-0.6875 4.25,-2.09375 4.78125,-2.0625 7.09375,-2.8125 0.53125,-0.21875 0.75,-0.25 0.0937,-0.0312 0.0312,0 0.0312,0 0.0625,0.0312 0.0312,0 0.1875,0.0625 0.625,-0.375 1.375,-0.5 2.625,-0.90625 1.4375,-0.53125 2.53125,-0.875 2.5,-0.875 1.96875,-0.6875 1.3125,-0.46875 0.5625,-0.21875 0.25,-0.0937 2.28125,-0.84375 0.96875,-0.375 3.40625,-1.25 0.3125,-0.125 0.5,-0.1875 0.15625,-0.0625 5.78125,-2.46875 3.5,-1.71875 1.84375,-0.90625 0.0312,-0.0312 2.71875,-1.3125 0.34375,-0.1875 0.0312,0 1.59375,-0.78125 2,-1 1.3125,-0.625 0.0312,-0.0312 2.40625,-1.1875 0.15625,-0.0625 0.25,-0.125 2.71875,-1.34375 0.34375,-0.15625 2,-1 0.5,-0.25 0.71875,-0.34375 0.9375,-0.40625 3.5625,-1.53125 2.3125,-0.96875 0.1875,-0.0937 0.125,-0.0625 4.96875,-2.40625 1.65625,-0.78125 0.5625,-0.28125 2.5625,-0.625 1.65625,-0.875 0.6875,-0.375 0.0312,0 0.15625,-0.25 0.65625,-0.875 0.59375,-0.8125 -0.0937,-0.3125 -0.5625,-0.34375 -0.40625,0.1875 -1.375,-0.0625 -0.0625,0 -0.15625,0 -0.0937,-0.0312 -0.375,-0.15625 -0.21875,-0.25 -0.0937,-0.0937 -1.625,0.0312 -0.65625,0.125 -0.46875,0.125 -0.28125,0.0312 -0.0937,0.0312 -0.46875,0.1875 -0.65625,0.25 -0.5625,0.21875 -0.15625,0.75 0,0.0312 0.0937,0.40625 -0.0625,0.59375 -0.125,0.15625 -0.375,0.53125 -1.03125,0.34375 -1.53125,0.5 -0.625,0.59375 -0.625,0.59375 -1.6875,0.8125 -0.875,-0.1875 -0.0312,-0.0312 -0.28125,0.1875 -0.0937,0.0312 0.0312,0.5 0.15625,0.65625 -0.15625,0.34375 -0.28125,0.125 -0.15625,0.0312 -0.0625,0 -0.28125,-0.46875 -1.1875,0.0312 -0.25,0.28125 -0.0625,0.3125 -0.21875,0.6875 0,0.0312 -0.0312,0.0312 -0.9375,0.5 -0.0312,0 -0.0312,0 -0.5,0 -0.34375,-0.15625 -0.21875,-0.125 -0.59375,-0.59375 -0.5,-0.75 -1.03125,-1.59375 -0.125,-0.15625 -0.0312,-0.0312 0.1875,-0.78125 -0.15625,-0.875 -0.40625,-0.375 -0.625,-0.59375 -0.25,-0.25 -0.0312,-0.0625 -0.0312,0 -0.5,-0.21875 -0.21875,0.0937 -0.3125,0.21875 -0.0625,0.0625 -0.59375,0.4375 -0.34375,0.8125 -0.0312,0 0,0.0312 -0.28125,0.28125 -0.3125,0.15625 -0.0312,0.0312 -0.25,0.125 -0.84375,0.0312 -0.0625,0 0,-0.0312 -0.34375,-0.21875 -0.90625,-0.625 -0.9375,-0.40625 -0.9375,-0.0312 -1.5625,0.28125 -0.375,-0.375 -0.65625,-0.625 -0.75,-1.6875 -0.0312,-0.0312 0.0625,-0.0937 0.1875,-0.34375 0.28125,-0.5 -0.28125,-0.34375 -0.0312,-0.0312 -0.0625,0 -1.25,-0.0625 -0.0625,0 -0.375,-0.1875 -0.6875,-0.375 -0.0312,0 -0.46875,-0.25 -0.0312,0 -0.21875,-0.3125 -1.1875,-1.59375 0,-0.25 0,-0.90625 0,-0.25 0.625,-1.15625 0.0625,-0.0937 0.6875,-0.53125 0.1875,-0.0625 0.25,-0.0625 0.4375,0.0625 0.0625,0 0.125,0.1875 0.375,0.40625 0,0.0312 -0.0312,1.21875 0,0.84375 0.0625,-0.0312 0.71875,-0.4375 0.0312,-0.0312 0.5,-0.28125 0.28125,-0.1875 0.15625,-0.0625 1.0625,-0.65625 0.0312,-0.0312 0.90625,-0.90625 1.28125,-2 -0.0312,-0.0312 -0.0312,-0.3125 -0.5625,-0.15625 -0.0312,0 z m 9.5,4.8125 -0.125,0.75 -0.3125,0.40625 -0.6875,0.34375 -0.1875,0.34375 0.0937,0.34375 0.21875,0.21875 1.46875,-0.0937 1.15625,0.46875 0.25,0.25 0.46875,1.09375 0,2.21875 0.125,0.0937 0.6875,-0.46875 0.0625,-0.375 0.0937,-0.8125 0.0937,-0.65625 0.21875,-1.875 -0.21875,-0.78125 0,-0.0312 -1.28125,-0.53125 -0.21875,-0.0937 -1.0625,-0.4375 -0.84375,-0.375 z m -131.53125,23.8125 -0.125,0.0937 -0.0312,0.3125 -0.1875,0.0312 -0.0312,0.21875 0.375,0.3125 0.3125,-0.0937 0.0312,-0.0937 -0.0625,-0.25 0,-0.15625 0,-0.0625 0,-0.0937 0,-0.0625 -0.0937,-0.0625 -0.1875,-0.0937 z m -12.96875,0.84375 -0.3125,0.65625 -0.8125,1.71875 -0.28125,0.6875 -0.0312,0.0312 -0.125,0.34375 0,0.0312 -0.75,2.1875 0,0.0312 -0.40625,0.625 0,0.0312 -1.09375,1.96875 -1.3125,2.4375 -0.15625,0.3125 -0.0312,0 -0.6875,1.25 0,0.0312 -0.34375,0.6875 -0.34375,1.78125 -0.125,0.59375 -0.125,0.6875 -0.0312,0.1875 0,0.0625 -0.15625,1 -0.0937,0.53125 0.34375,0.21875 0.0312,0.0312 0.0312,0.0312 0.0625,0.21875 0.0312,0.0625 0.125,0.25 0,0.0312 0,0.0312 0,0.0312 -0.125,0.65625 -0.0312,0.0625 -0.0312,0.0312 -0.21875,0.1875 -0.0312,0 0,0.0625 -0.1875,0.5 0.0312,0.375 0,0.0625 0.0312,0.0312 0,0.0312 0.0625,0.0625 0.0937,0.125 0.875,-0.6875 0.0937,-0.0625 0,-0.0312 0.0312,0 0.0625,-0.0312 0.0312,-0.0312 0.0625,-0.0625 0.0625,-0.0312 0.0312,-0.0312 0,-0.0312 0,-0.0312 0.0312,-0.0312 0.0312,-0.0625 0,-0.0625 0.0312,-0.0625 0.0312,-0.0937 0.0312,-0.0312 0.0312,0 0,-0.0312 0.0312,-0.0937 0,-0.0312 0.0312,-0.125 0.0312,0 0.0312,-0.0625 0,-0.0312 0,-0.0312 0.0312,-0.0625 0,-0.0312 0.0625,-0.0937 0.0312,-0.0625 0,-0.0625 0.0312,0 0.15625,-0.34375 0.0937,-0.0937 0,-0.0312 0.0312,0 0.0625,-0.0625 0.0625,-0.0312 0.0312,0.0312 0.0937,0 0.0312,0 0,-0.0312 0.125,-0.0312 0.0312,0 0.0625,0 0.125,0.0312 0.0312,0 0.21875,0 0.0312,0 0.125,-0.0312 0.0312,0 0.0625,0 0.0625,0 0,-0.0312 0.0312,0 0,-0.0312 0.0312,0 0.34375,-0.1875 0.0312,0 0.15625,-0.125 0.0937,-0.0625 0.0937,0.0937 0,-0.28125 0,-0.0312 0.0312,-0.0312 0,-0.0312 0.0312,0 0,-0.0312 0,-0.0625 0,-0.0312 0,-0.0312 0.21875,-0.46875 0,-0.0312 0.25,-0.40625 0.0312,-0.0312 0.0312,-0.0625 0.0312,0 0,-0.0312 0,-0.0312 -0.0312,0 0,-0.0312 0.0312,-0.0937 -0.0312,-0.125 0,-0.1875 0,-0.0312 0,-0.0625 -0.0312,-0.125 0,-0.0312 0,-0.0312 0,-0.0312 0,-0.0625 0,-0.0312 -0.0312,-0.0625 0,-0.0312 0,-0.0625 -0.0937,0.0625 0.0937,-0.25 0,-0.0312 0,-0.0312 0.0312,-0.0312 0.0937,-0.25 0,-0.0312 -0.0312,-0.0625 0,-0.0312 0,-0.25 0,-0.0312 0.0312,-0.0625 0.21875,-0.25 0.0312,-0.0312 0.0937,-0.21875 0,-0.0312 0.15625,-0.21875 0.1875,-0.34375 0.65625,-0.875 0,-0.0312 0.0312,-0.15625 0,-0.0312 0.0312,-0.0312 0.25,-0.3125 0.0312,0 0.0312,-0.0312 0.0312,0 0.0312,-0.0937 0.0312,-0.0625 0.0937,-0.0312 0.15625,0 0,-0.0312 -0.0312,0 -0.0937,-0.0312 0,-0.0937 -0.0312,-0.1875 0,-0.0312 0,-0.0312 0.0625,-0.15625 0.0625,-0.15625 0,-0.0312 0.0937,-0.15625 0.0312,-0.0625 0.0625,0 0.0937,-0.0312 0.0312,0 0.0625,0 0.1875,0.0937 0.0625,0.0312 0,0.0625 0,0.0312 0.0312,0 0.0625,-0.0312 0.125,-0.125 0.0312,-0.0625 0.0312,0 0.0625,0 0.0625,-0.0312 0.25,-0.25 0,-0.0312 0,-0.0312 0,-0.0625 0.0312,0 0.21875,-0.125 0.0625,-0.21875 0.0312,-0.0312 0.125,-0.125 0,-0.0312 0.0312,0 0.125,-0.0625 0.0312,0 0.125,-0.125 -0.21875,-0.5625 0,-0.0312 -0.0312,0 -0.40625,-0.21875 0,-0.0312 -0.28125,-0.28125 -0.34375,0 -0.0625,0 -0.0312,-0.0625 -0.0937,-0.1875 0.0312,0 -0.1875,-0.25 -0.0937,-0.15625 -0.0312,-0.0312 0,-0.0312 -0.0625,-0.375 0,-0.0312 0,-0.25 0,-0.0312 0,-0.0312 0.0312,0 0,-0.0312 0,-0.0312 0,-0.4375 -0.0312,-0.28125 0,-0.0625 0,-0.0625 0,-0.0312 0,-0.0312 0,-0.0625 -0.0312,-0.0625 0,-0.0312 0.0312,-0.0312 0,-0.0312 0,-0.125 -0.0312,-0.0312 0,-0.0312 0,-0.0312 -0.0312,-0.0625 0,-0.0312 0,-0.4375 0,-0.0312 0.0312,-0.25 0,-0.0312 0.25,-0.6875 0.125,-0.34375 0.0312,-0.0312 0.0625,-0.125 0.25,-0.375 0.0312,-0.0312 0,-0.0312 0.125,-0.25 0.0625,-0.0937 0,-0.0312 0.0937,-0.21875 0.0312,0 0.125,-0.21875 0.0937,-0.125 0.0625,-0.0625 0.125,-0.1875 0.0625,-0.0625 0.28125,-0.46875 0.0312,-0.0312 0,-0.0312 0,-0.0312 0.0937,-0.34375 0.0312,0 0,-0.0625 0.0312,-0.0312 0.0625,-0.0937 0,-0.21875 0,-0.0312 -0.0937,-0.0937 -0.0312,-0.0312 -0.3125,0.28125 -0.0625,0.0625 -0.0625,-0.0312 -0.28125,-0.0625 -0.125,-0.0625 0.0312,-0.0937 0,-0.0312 -0.0312,-0.0312 -0.0312,0.0312 -0.0625,-0.0312 -0.25,-0.0625 0,-0.0312 -0.0312,0 -0.59375,-0.25 z m 12.96875,2.125 -0.21875,0.0625 -0.0312,0.5 0.0625,0.71875 0.28125,0.34375 0.28125,-0.0312 0.0625,-0.96875 -0.0937,-0.3125 -0.34375,-0.3125 z m -21.5625,16.75 0,0.0312 -0.0625,0.0312 -0.15625,0.3125 -0.3125,0.625 -0.0312,0.0625 0.0625,0.15625 0.0625,0.0312 0.0937,0.0312 0.0937,-0.125 0.25,-0.59375 0.1875,-0.375 0,-0.0312 -0.125,-0.125 -0.0312,-0.0312 -0.0312,0 z m -3.6875,5.46875 -0.125,0.0312 -1.09375,0.28125 -0.25,0.0312 0,0.0312 -0.15625,0.0312 -0.0625,0 -0.25,0.0625 -0.0937,0.0312 -0.0312,0 -0.125,0.0312 -0.53125,0.125 -0.84375,0.125 -0.6875,0.0937 -0.0312,0 -0.28125,0.0312 -0.75,0.125 -0.71875,-0.1875 -0.0937,-0.0312 -0.59375,-0.15625 -0.0312,-0.0625 -0.25,-0.21875 -0.46875,-0.0625 -0.5,0.25 -0.0312,0 -0.21875,0.125 -0.15625,0.1875 -0.375,0.46875 -0.34375,0.46875 -0.125,1.25 0.0937,0.25 0.375,0.0937 0.0625,1.5 -0.125,0.5 -0.5625,0.8125 -0.1875,1.0625 -0.15625,0.84375 -0.21875,1.09375 -0.25,0.3125 -0.125,0.15625 -0.125,0.125 -0.0937,0 -0.40625,0 -0.46875,0 -0.4375,0.34375 -0.25,0.21875 -0.40625,0.34375 -0.40625,0.3125 0.0312,0.0937 0.4375,1.1875 -0.0312,0.65625 -0.0312,0.375 0,0.0625 -0.625,0.59375 -0.125,0.0937 0,0.0312 -0.0312,0.0312 -0.0625,0.125 -0.1875,0.5 0.0937,0.5625 0.375,0.59375 0.28125,0.0625 0.40625,-0.21875 0.15625,-0.0625 0.0937,-0.0312 0.15625,-0.0937 0.25,-0.125 0.4375,-0.0625 0.40625,-0.0625 0.0625,0 0.15625,-0.0312 0.0625,-0.0312 0.6875,-0.6875 0.0312,0 0.78125,-0.21875 0.0625,-0.0312 0.1875,-0.125 0.25,-0.1875 0.84375,-0.53125 0.0937,-0.0625 0.3125,0.0937 0.78125,-0.40625 0.59375,-0.34375 0.0937,-0.0625 0.1875,-0.15625 0.0625,-0.0312 0.1561,-0.1559 0.40625,-0.34375 0.0625,-0.0625 0.34375,-0.0625 0.15625,0.0625 0.1875,0.0937 0.25,0.375 0.75,-0.8125 0.5,-0.5 0.46875,-0.34375 0.25,-0.1875 0.0937,0.0625 1.15625,-1.4375 0.1875,-0.21875 0.3125,-0.375 0.0312,-0.0312 0.3125,-0.3125 1.46875,-1.5 0.71875,-1 0.46875,-1.0625 -0.28125,-0.4375 -0.0937,-0.125 -0.1875,-0.3125 -0.21875,-0.46875 -0.0312,-0.0312 -0.34375,-0.75 -0.0937,-1.09375 -0.0625,-0.71875 -0.0937,-0.15625 -0.0625,-0.0625 -0.1875,-0.28125 -0.0937,-0.15625 -0.0312,-0.0312 -0.0312,-0.0312 -0.0312,0 -0.78125,-0.0625 -0.0312,0 z"
     id="rect14"
     inkscape:connector-curvature="0" />
</svg>
