<?xml version="1.0" encoding="UTF-8" standalone="no"?>
<svg
   xmlns:dc="http://purl.org/dc/elements/1.1/"
   xmlns:cc="http://creativecommons.org/ns#"
   xmlns:rdf="http://www.w3.org/1999/02/22-rdf-syntax-ns#"
   xmlns:svg="http://www.w3.org/2000/svg"
   xmlns="http://www.w3.org/2000/svg"
   xmlns:xlink="http://www.w3.org/1999/xlink"
   xmlns:sodipodi="http://sodipodi.sourceforge.net/DTD/sodipodi-0.dtd"
   xmlns:inkscape="http://www.inkscape.org/namespaces/inkscape"
   width="5676.9062"
   height="6308.3438"
   viewBox="0 0 5676.9062 6308.3438"
   id="svg2"
   version="1.1"
   inkscape:version="0.48.1 "
   sodipodi:docname="AJAX.svg">
  <metadata
     id="metadata20">
    <rdf:RDF>
      <cc:Work
         rdf:about="">
        <dc:format>image/svg+xml</dc:format>
        <dc:type
           rdf:resource="http://purl.org/dc/dcmitype/StillImage" />
      </cc:Work>
    </rdf:RDF>
  </metadata>
  <defs
     id="defs18" />
  <sodipodi:namedview
     pagecolor="#ffffff"
     bordercolor="#666666"
     borderopacity="1"
     objecttolerance="10"
     gridtolerance="10"
     guidetolerance="10"
     inkscape:pageopacity="0"
     inkscape:pageshadow="2"
     inkscape:window-width="1280"
     inkscape:window-height="1004"
     id="namedview16"
     showgrid="false"
     fit-margin-top="0"
     fit-margin-left="0"
     fit-margin-right="0"
     fit-margin-bottom="0"
     inkscape:zoom="0.097357373"
     inkscape:cx="2673.4505"
     inkscape:cy="3372.0775"
     inkscape:window-x="-8"
     inkscape:window-y="-8"
     inkscape:window-maximized="1"
     inkscape:current-layer="svg2" />
  <path
	 style="fill:#9FAEC0"
	 stroke="#9FAEC0"
	 stroke-width="10"
	 transform="translate(0, 125)"
     d="m 5560.4062,0 -75.9062,2.6876 -819.4063,24.4062 -158.5,4.3125 -130.2812,5.7813 -624.4063,9.2187 -29.8124,-1.9063 -31.2813,0.094 -37.4063,0.2188 -68.3124,0.375 -444.2813,2.5 -34.3125,0.125 -87.3125,0.094 -16.875,0.094 -117.9063,0.8126 -7.8124,0.1874 -50.2813,0.6876 -32.8125,0.4062 -16.4062,0.3125 -13.9063,0.094 -15.875,0.1876 -36.9063,0.4062 -243.7187,1.0938 -14.875,0 -96.5,-0.1876 -14.8125,0.094 -175,-0.1875 -21,0 -30.3125,0.094 -3.0937,-3.5 -3.0938,-4 -60.5,-0.4062 -16.9062,-0.1875 -13.4063,-0.2187 -17.375,0 -30.3125,-0.1876 -139,-1.4062 -161.1875,-2.0938 -24.625,0.094 -8.1875,-0.2812 -5.5938,-0.2188 -3.5937,0 -52.9063,-0.4062 -40,-0.2813 -145.2187,-1.7187 -15.875,0 -138.5,-1.5938 -15.9063,0 -62.0937,-0.7812 -15.9063,0 -31.8124,-0.7188 -32.9063,-0.7812 -47.1875,-1.125 -31.8125,-0.6876 -29.2813,-0.8124 -81.5,-1.6876 -115,-2.8124 -139,-3.1876 -452.8124,-12.0937 -7.1876,247.1875 -3.0937,105.7188 -19.8437,682.7187 5409.3124,0 -1.9687,-63.0313 -3.3125,-132.6874 -1.1875,-46.3126 -5.125,-136.1874 -4.2813,-114 35.9063,-2.125 -3.3125,-99 -3,-91.7813 -3.4063,-101 -6.2812,-188.4063 -2.4063,-72 z"
     id="rect4"
     inkscape:connector-curvature="0" />
  <path
	 style="fill:#9FAEC0"
	 stroke="#9FAEC0"
	 stroke-width="10"
	 transform="translate(0, 100)"
     d="m 149.4688,1046.5313 -1.5626,53.7813 -0.4062,12 L 136.0938,1492 126.5,1836.5938 l -3.8125,130 -0.5,14.5938 -0.375,16.625 -0.5,15.0937 -0.5,16.0937 -0.4063,15.0938 -1.5624,54.7812 5472.3124,0 -2.5625,-84.7812 -0.094,-1.5938 -14.3125,-484.0937 -4.0937,-129.8125 -0.094,-1.5 -11.1875,-349.6875 -0.031,-0.875 -5409.3125,0 z"
     id="rect6"
     inkscape:connector-curvature="0" />
  <path
	 style="fill:#9FAEC0"
	 stroke="#9FAEC0"
	 stroke-width="10"
	 transform="translate(0, 75)"
     d="m 118.8438,2098.875 -4.9376,172.5313 -2.7187,99.7813 -0.7813,28.2187 -0.9062,31.6875 -6.8125,239.4062 -0.2813,10.6876 -0.2187,6 -0.1875,7 -0.3125,9.125 -0.2813,11.5937 -1.4062,42.7813 -0.6875,23.8124 -3.4063,115.9063 -0.2187,6.5 -0.2813,10.1875 -0.8124,34.3125 -0.5938,30.1875 -0.4062,16.7188 -0.2813,7.5 -0.625,17.0937 -0.7813,26.2813 -0.7187,23.2187 -1.0937,32.7813 -1.5626,49.0625 5535.3125,0 -4.6562,-158.3438 -0.2813,-8.7187 -2.2187,-63.875 -13,-421 -1.1875,-37.2188 -6.1875,-191.5938 -5.1563,-171.625 -5472.3124,0 z"
     id="rect8"
     inkscape:connector-curvature="0" />
  <path
	 style="fill:#9FAEC0"
	 stroke="#9FAEC0"
	 stroke-width="10"
	 transform="translate(0, 50)"
     d="m 88.5312,3151.2501 -1.0312,32.0625 -1.0938,46.7812 -1.4062,50.0938 -7.1875,256.625 -1.4063,49.5 -5.0937,184.7812 -3.7187,133.0938 -0.4063,14.8125 -7.1875,263.3125 -0.625,21.3125 5581.5937,0 -2.9687,-199.0313 -3.0938,-203.5937 -1.2187,-73.6875 -1.2813,-121.8125 -0.8125,-81.9063 -0.2812,-28.4062 -2,-168 -2.5,-23.6875 -1.4063,-40.8125 0.1875,-36.2813 0,-15.7187 -1.75,-59.4375 -5535.3125,0 z"
     id="rect10"
     inkscape:connector-curvature="0" />
  <path
	 style="fill:#9FAEC0"
	 stroke="#9FAEC0"
	 stroke-width="10"
	 transform="translate(0, 25)"
     d="m 59.375,4203.6251 -0.2812,10.1875 -7.1876,257.2812 -1,32.5 -0.5,14 -0.2187,9.3125 -0.6875,24 -0.1875,9.2813 -0.125,5.4062 -0.7813,27.9063 -0.5,20.5937 -2.4062,74.9063 -1.0938,38.6875 -1.7187,62.9062 -2.7813,100.8125 L 34.5,5084 l -0.5938,21.1876 -0.2187,4.8124 -0.375,16.6876 -1,32.125 -1,35.2812 -0.5,16.2188 -1.2813,45.6562 5638.9688,0 -8.4063,-287.7812 -14.2812,-485 -1.4063,-47.5 -3.4062,-229.875 -0.031,-2.1875 -5581.5938,0 z"
     id="rect12"
     inkscape:connector-curvature="0" />
  <path
	 style="fill:#9FAEC0"
	 stroke="#9FAEC0"
	 stroke-width="10"
     d="m 29.5312,5255.9688 -0.125,4.4375 -0.5,16.0937 -5.5937,196.1876 -1.125,39.2187 -2,71.4063 -0.375,17.1874 -0.625,20.4063 -1,32.9063 L 8.5938,5987.5 8,6004.9063 7.1875,6030.0938 5.5938,6102.9063 4.8125,6124.8126 3.5,6165.3126 3.0938,6180.5 1.3125,6241.6876 1,6253.8126 0,6296 l 30.1875,0.6876 575.9063,11.6562 194.4687,0 3.25,-167.75 1.0937,-80.5 0.5,-16.6875 3.6876,-177.5937 -0.094,-17.2188 0.5,-16.6875 0.4062,-19.2187 3.5938,0 23.5,0.4062 15.8125,0.5 82.6875,1.7188 15.8125,-0.125 79.5937,1.8124 15.9063,0.4063 51,0.7813 128.1875,3.125 16.8125,0 47.5,0.2812 146.5,1.5 15.7813,0.5 30.0937,0.4062 33.2187,0.4063 15.7813,0 79.7187,0.6875 15.7813,0.5 53.125,0.3125 31.5937,0.4063 15.9063,0 81.0937,0.6874 15.7813,0.5 129.7187,1.0938 240.4063,1.4062 206.7813,0.5 1.5,-2.5937 1,-2 0,-1.5 -1,-2 -1.1876,-1.4063 -2.0937,-1.8124 -2.3125,-1.875 -2.8125,-4.4063 -2.7813,-4.9063 -2.0937,-1.8124 -2.3125,-2 -6.4062,-4 -3.5938,-0.5 -4.9062,0 -0.6876,0.125 -1.2187,0.094 -2.375,0.5 -3.125,0.7813 -2.875,0.625 -6.2187,-1.625 -3,-4.875 -3.9063,-4.8126 -2.375,-1.9062 -1.9063,-1.9062 -1.5937,-0.5938 -2.625,-1.0938 -2.5,0.5938 -3.0937,-0.7812 -1.7813,-3.4063 -0.3125,-1.8125 0,-4.5938 0.5,-4.5 0.4062,-2.8124 -0.2187,-3.5 -2.1875,-1.375 -3,0.1874 -3.6875,-0.094 -7,-6.3125 -12.4063,-13.9062 -3.0937,-4.375 -1.7187,-2.4063 0.3124,-0.7187 1.4063,-3.0938 1.875,-3.5 1.3125,-4.1875 -0.6875,-3.4063 -1.9063,-4 -3.9062,-4.8124 -1.4062,-1.2813 -3.5938,-2.5 -2,-2.5937 -0.5,-2.5 1.5,-3.5 1.4062,-3 4.2813,-4.9063 4.9063,-3.3125 3.0937,-1.5 3.8125,-1.5 3.4062,-0.5 3.1876,-1.5 2.4062,-1.5938 1.4062,-1.5937 -0.094,-2.5937 -1.9063,-1.9063 -1.5,-1 -2.5,-0.2187 -3.5937,-0.2813 -3.125,0.5937 -1.5,-0.8124 -0.5,-2.2813 1.5,-2 2.2187,-1.5 1.9063,-1.5937 1.5,-1.7188 0.2813,-2.5 0.7187,-4.9062 0.5,-4 1.5937,-3.5 2.2813,-3.5938 1.4063,-1.6875 1.4062,-2.0937 -0.094,-1 -1.2187,-2.4063 -2.5,0.094 -3,1.6876 -2.5,0.2187 -2,-0.8125 -1.2813,-2.5 0.7813,-3.5938 2,-2.5 2.5,-2.0937 2.3125,-0.9063 1.8125,-3.1874 0.2813,-4.125 -0.7813,-1.375 -2.5,-1.4063 -3.625,-0.8125 -4.0937,0.3125 -3.5938,-0.094 -3.5938,-1 -2,-3 0.5,-4.5 1.7813,-4.625 0.2187,-0.5 3,-4.0938 2.2813,-2.4062 3.9063,-1.5938 4.7187,-1 2.375,-2.1875 -0.1875,-3.5 40.9062,0.4063 17,0 16.2813,-0.125 47,-0.094 31.7187,0 79.5938,-0.1875 56,0 87.5938,-0.3125 52.0937,-0.1875 115.7187,0.094 109.2813,0 46.5,-0.1874 15.8125,0 21.8125,-0.125 41.5937,0 20.2813,0.125 17.9063,-0.125 20,-0.5938 15.8124,0 48,-0.094 18.4063,0 7.0937,-0.5 16.4063,-0.094 47.0937,-0.3125 47.5938,-0.5 47.5938,0 16.3124,-0.094 15.9063,-0.5 63.375,0 16.4063,-0.094 16.8124,-0.5 69.0938,0 8,-0.094 4.5938,0 32.0937,-0.625 27.7187,-0.5938 19.7813,-0.2812 11.625,-0.3126 7.0937,-0.094 63.4063,-1 16.375,0 15.3125,-0.5 15.4062,0 15.2813,0.094 48,-1.0937 14.8125,0 15.9062,-0.3125 7.6876,-0.094 8.0937,-0.094 47.5,-0.7187 13.8125,-0.1876 15.8125,-0.3124 78.5937,-1.1876 14.5938,-0.1874 311.8125,-4 239.875,-3.8126 81.2188,-1.1874 31.5937,-0.4063 1.5,0 14.8125,-0.3125 9.1875,-0.2812 1.0938,0 6.0937,-0.125 16.9063,-0.2813 17.3125,-0.5 227.6875,-5.8125 303.3125,-7 16.4062,-0.4062 36.5,-1 12.1875,-0.2813 17.1875,-0.4063 230.7188,-5.5937 -2.7188,-95.4063 -5.6875,-195.5312 -5638.9688,0 z"
     id="rect14"
     inkscape:connector-curvature="0" />
  <use
     transform="matrix(0.01115667,0,0,0.01115667,5470.8248,4107.0586)"
     xlink:href="#state_outline"
     id="use9"
     style="fill:#ffff00;fill-opacity:1;stroke:none"
     x="0"
     y="0"
     width="56769"
     height="63122" />
</svg>
