<?xml version="1.0" encoding="UTF-8" standalone="no"?>
<svg
   xmlns:dc="http://purl.org/dc/elements/1.1/"
   xmlns:cc="http://creativecommons.org/ns#"
   xmlns:rdf="http://www.w3.org/1999/02/22-rdf-syntax-ns#"
   xmlns:svg="http://www.w3.org/2000/svg"
   xmlns="http://www.w3.org/2000/svg"
   xmlns:sodipodi="http://sodipodi.sourceforge.net/DTD/sodipodi-0.dtd"
   xmlns:inkscape="http://www.inkscape.org/namespaces/inkscape"
   width="1426.1875"
   height="2699.8125"
   viewBox="0 0 1426.1875 2699.8125"
   id="svg2"
   version="1.1"
   inkscape:version="0.48.1 "
   sodipodi:docname="AJAX.svg">
  <metadata
     id="metadata20">
    <rdf:RDF>
      <cc:Work
         rdf:about="">
        <dc:format>image/svg+xml</dc:format>
        <dc:type
           rdf:resource="http://purl.org/dc/dcmitype/StillImage" />
      </cc:Work>
    </rdf:RDF>
  </metadata>
  <defs
     id="defs18" />
  <sodipodi:namedview
     pagecolor="#ffffff"
     bordercolor="#666666"
     borderopacity="1"
     objecttolerance="10"
     gridtolerance="10"
     guidetolerance="10"
     inkscape:pageopacity="0"
     inkscape:pageshadow="2"
     inkscape:window-width="1280"
     inkscape:window-height="1004"
     id="namedview16"
     showgrid="false"
     fit-margin-top="0"
     fit-margin-left="0"
     fit-margin-right="0"
     fit-margin-bottom="0"
     inkscape:zoom="0.17059272"
     inkscape:cx="1391.5742"
     inkscape:cy="1933.7343"
     inkscape:window-x="-8"
     inkscape:window-y="-8"
     inkscape:window-maximized="1"
     inkscape:current-layer="svg2" />
  <path
	 style="fill:#9FAEC0"
	 stroke="#9FAEC0"
	 stroke-width="10"
	 transform="translate(0, 125)"
     d="m 751.8125,0 -5.40625,3 -2.8125,1.5 -0.78125,0.4062 -4.3125,1.5 -4,1.7813 -4.1875,1.9063 -3,1.3124 L 724.6875,12 721,11.906 l -3.5,-0.7187 -2.6875,0.3125 -1.90625,0.094 -3.59375,0.9062 -3.71875,0.9062 -2.59375,1.4063 -2.90625,2.2813 -0.78125,1.2187 -1.71875,2.2813 -1.40625,3.2187 -1.1875,3.375 -1.5,3.4063 -1.59375,1.9062 -2.3125,1.5 -2.78125,1.1875 -1.90625,0.625 -0.90625,0.2813 -3.1875,0.8124 -3.71875,-0.094 -2,0.375 -2.5,0.4063 -2.09375,1 -1,1 -1,1.3124 -0.0937,2.4063 0.5,1.5 1.09375,1.5 0.5,1.5 0,2 -0.59375,1.0937 -0.40625,0.9063 -0.6875,0.6875 -1.3125,1.5938 -4.6875,2.8124 -5.125,4 -4.09375,3.0938 -3.09375,2.5 -2.5,2 -2.09375,1.4062 -0.40625,0.2813 -2.59375,2.3125 -2.21875,2.5 -1.59375,2.5 -1.6875,2.9062 -1.5,3 -1.71875,2.7813 -1.59375,2.2187 -1.09375,3 -0.1875,2.5 -0.90625,2.1876 -1.3125,2.2187 -1.09375,3.5 -1,6 0,1.0937 -1.59375,3.9063 -3,3.0937 -1.90625,0.9063 -2.59375,1.875 -1.71875,2.5 -1.875,2.625 -0.625,2.1875 -1,2.5 -0.5,3 -0.875,2.3125 -2.71875,3.7813 -0.0937,1.5 0.40625,3 1.78125,2.5 2,2.5937 0.625,1 0.5,0.7187 0.5,2 -0.5,2.5 -1.21875,3.5 -0.6875,1.4063 -0.71875,1 -3.59375,6 -1.40625,2.5937 -2.09375,4.5 -2.59375,5 -2.5,5 -1.09375,3 -1,2.5938 -0.5,2.1875 -0.8125,1.9063 -1.28125,2.7187 -0.3125,0.7813 -1.6875,2.5 -2.5,3.5 -2.71875,1.9062 -1.6875,1.4062 -1.8125,1.7813 -1.28125,1.7187 -1.125,2.5 -1.1875,1.7813 -1.5,3.5 -2.6875,6.4063 -2.90625,4.7187 -2,2.875 -3.59375,4.7187 -3.90625,4.6876 -3.8125,2.9062 -5.09375,4 -3.6875,2.3125 -3,1.6875 -2,0.5 -2.125,1.0938 -1,1 -1.875,1.8124 -0.5,2.0938 -1.21875,1.5938 -0.90625,1.4062 -2.1875,1.5938 -2.90625,2.0937 -0.6875,0.7187 -2.5,1.2813 -2.59375,2.5 -2.3125,1.4063 -1.3125,0.5 -2.5,0.094 -1.59375,0.3125 -0.90625,0 -2.59375,1.6875 -1,0.7187 -0.40625,0.5 -2.6875,2.9063 -2.59375,3 -2.5,6 -1.59375,3.5937 -0.3125,0.7813 -1.6875,3 -0.5,1 0,1.2187 0.375,1.5938 1,1.5 1.5,0.3125 2.21875,-0.4063 2.09375,-0.5 2.5,-1.9062 2.6875,-1.6875 1.5,-1.7187 2,-1.6876 2,-1 2.21875,-0.5937 1,0.5 0.5,1.5 0,1.5937 -1.21875,2.9063 -1.59375,2.5 -3.1875,3.875 -4.21875,3.5 -2.09375,1.9063 -0.5,0.5 -3.1875,0.9062 -3.5,0.9062 -2.5,1.4063 -3.21875,1.2813 -3,1.5 -2.59375,2 -1.90625,1.8124 -1.28125,1.5938 -1.90625,0.8125 -1.5,0.5 -1.59375,1.875 -1,1.7187 -1.09375,2.5 -0.90625,1.7813 -1.90625,5.625 -1.09375,2.5937 -1.59375,1.9063 -1.625,2 -1.5,1.5 -0.59375,2.5 -0.59375,2 0,1.5937 -0.3125,2.4063 -1.375,1 -1.625,1.375 -2.09375,1.5 -2.09375,2.4063 -2.59375,1.9062 -3,2.5 -2.09375,1.5 -3.3125,1.9062 -1.6875,1 -1.40625,0.9063 -5.09375,3.875 -1.21875,0.9063 -6.6875,3.5 -6.3125,2.7187 -5.1875,1.2813 -1.21875,0.5937 -2.1875,1.3125 -3.5,1.8125 -4.1875,2.375 -5.125,2 -6.1875,2.4063 -4.1875,3.4062 -3.625,3.3125 -1.375,1.375 -4.5,3.625 -3.625,2.5937 -2.59375,1.6876 -1.5,1.7187 -0.1875,2.7813 0,1.2187 -0.0937,1.2813 0,1.7187 -0.21875,1.1875 -1.40625,2.1875 -1.6875,2.4063 -1,2.9062 1.5,3.5 0.40625,0.4062 1.90625,1.7813 1.78125,0.8125 1.59375,1.0938 3.71875,1.4062 2,0.5 1.5,1.5938 1,2 0.5,3 0,2 0.5,2.5937 0.6875,1.75 1020.7187,0 4.875,-19.8437 2.3125,-9.1876 2.1875,-17.4062 -6.6875,-1.1875 -3.5,-1.9063 -66.3125,-37.9062 -13.7812,-7.5938 -20.3125,-12.3124 -108.5938,-63.4063 -50.1875,-27.0937 -10.5,-5.5938 -7.125,-4 -70.7812,-39.6875 -6.5938,-3.5 -7.2187,-4.625 -28,-18.5937 -13,-8.6876 -22.59375,-15 -105.90625,-65.5937 -57.59375,-34.7187 -37,-22.9063 L 751.81265,0 z"
     id="rect4"
     inkscape:connector-curvature="0" />
  <path
	 style="fill:#9FAEC0"
	 stroke="#9FAEC0"
	 stroke-width="10"
	 transform="translate(0, 100)"
     d="m 396.09375,444.9375 0.3125,0.75 3.09375,6 1,2 2.59375,3.625 3.71875,7.875 4.78125,8.8125 3,5.09375 1.8125,2.3125 2,2.1875 2.1875,1.40625 1.90625,0.90625 2,2.09375 2.09375,2.90625 1.3125,2.5 0.90625,3.09375 0.875,3.6875 1,3.625 0.21875,3.28125 1,3 0.90625,2.90625 2.09375,3.5 1.6875,2.59375 0.3125,0.40625 2.5,3.5 2.40625,4.3125 3.875,5 2.21875,4.875 1.40625,4.71875 0.0937,3.78125 -1.09375,2.90625 -1,2.09375 -2.21875,2.40625 -1.5,1.8125 -1.5,3.09375 -0.90625,2.5 -0.875,1.8125 -1.71875,1.6875 -2.09375,0.40625 -2,0.0937 -2.59375,-0.6875 -0.8125,-0.5 -1.1875,-0.3125 -2.59375,-1 -3.125,0 -3,0.5 -3.09375,0.90625 -1.59375,0.59375 -1.5,2.09375 -1.09375,2.90625 0.0937,2.59375 1,2.5 1.59375,2.5 2,2.09375 2,2.40625 2,2.59375 0.90625,4.5 -0.0937,1.5 0,2.3125 -0.0937,0.6875 -1.125,3.5 -0.875,2.21875 -2.21875,2.40625 -1.6875,1.28125 -1.21875,1.21875 -1.375,1.28125 -1.71875,1.5 -0.40625,0.5 -1.09375,2.40625 -1.1875,2.90625 -0.5,2 -1.5,3.59375 -2.5,4 -3.59375,3.90625 -1.5,1.40625 -3.125,1.6875 -3.1875,0.6875 -2.5,1.90625 -1.5,2 -2,2.09375 -1.40625,2.8125 -1.59375,2.8125 -1.6875,2.1875 -1.125,1.40625 -0.375,0.5 -1.125,0.59375 -0.375,0 -2.21875,0.3125 -2.5,-0.625 -3.5,-1 -0.5,-0.1875 -3.09375,-1 -3.59375,-1.09375 -3.59375,-0.71875 -3.625,-0.5 -2.5,-0.0937 -0.5,0.0937 -2.59375,0.3125 -2.09375,1.5 -1.5,1.90625 -1,1.78125 -0.59375,2 -0.5,3 -1,2.625 -1.5,3 -2,3 -2.8125,1.78125 -3,1.09375 -4.6875,3 -3.21875,2.8125 -1.1875,1.90625 -0.40625,1.78125 0.90625,3.3125 1.40625,2.1875 4,4 1,1.125 1.78125,1.78125 1.21875,1.8125 1.5,2.59375 0.90625,3 -0.625,2.5 -1.59375,2.40625 -0.90625,2.09375 -0.375,1.59375 -0.40625,1.90625 -0.90625,2 -0.1875,0.59375 -1.625,1.59375 -2.09375,2.5 -2.09375,3.40625 -3,6.21875 -2,6 -1.5,6.59375 -0.90625,4.40625 -0.0937,1.09375 1,4.5 1.09375,2.5 2.3125,1.90625 3.5,1.78125 3.90625,0.71875 4.1875,0.59375 3.09375,0.5 1.8125,1.5 1.09375,3.59375 -0.5,3 -1,3.09375 -2.40625,2.3125 -2.09375,2.09375 -2.59375,2.5 -2.71875,2.40625 -2.59375,3 -1.78125,2 -1.5,3.40625 -0.71875,1.875 -0.40625,2.625 -0.0937,2.5 0.5,2 1.5,1.09375 1.40625,2.09375 1,1.09375 1.8125,2.71875 1,3.5 0.5,2.59375 0.5,4 0.28125,5.40625 -0.0937,2 -1.09375,3 -1,1.1875 -0.59375,0.6875 -1.625,0.3125 -2.5,1 -1.59375,1 -0.5,2 0,2.5 0.71875,1.90625 0.5,2.28125 0.375,1.40625 2,3 1.5,5 1.125,5.09375 1.09375,4.8125 -0.0937,2.1875 0,1.8125 -1.125,4.6875 -0.6875,3.3125 -0.0937,2.5 0,1.59375 2.28125,5.40625 4.40625,4.6875 4.09375,2.8125 3.40625,0.90625 3.59375,1.28125 4.625,0.71875 4.1875,-0.59375 4,-1.90625 2.59375,-2 2.90625,-2.21875 2.59375,-1.875 2.21875,-1.5 3,-1.5 1.59375,-0.40625 4.09375,-0.3125 7.09375,0.71875 6.71875,1.09375 0.5,0.1875 6.6875,2.21875 4.90625,2.09375 3.5,2.59375 2.40625,2.1875 1.5,1.71875 3.09375,3.40625 4.78125,5.28125 4.90625,5.40625 2.46875,2.40625 701.43755,0 1.6875,-3.40625 5.7187,-4.5 4.0938,-2.09375 4.5937,-1 7.2188,-1 2.5,-3 2,-8.59375 1.5937,-10.125 2.5,-7 2,-6.59375 0,-1.5 -0.5,-9.09375 -0.5,-6.5 1,-8.09375 1,-8 1.5,-6.59375 3.0938,-7 3.5937,-4.625 4.5938,-3.5 5.625,-4 7.6875,-1.59375 5.0937,0.5 5.7188,-4 2.5,-4.5 4.0937,-6.09375 4.5938,-6.09375 1.5,-5 0.5,-4.5 2.0937,-5.09375 4.5938,-4.5 5.625,-4.625 3.0937,-6 1.5,-4 1.5,-4.59375 4.0938,-4 4.5937,-3 2.5938,-0.5 5.125,-1.59375 5.0937,0 1.0938,9.59375 0,3.5 -2.0938,6.09375 -4.5937,7 -4.625,7.125 -4.0938,2 -4.5937,7.59375 -2,6 -2,5.09375 -1.5938,6 -1,4 0,2.09375 1.5938,1.5 5.5937,-0.59375 4.0938,-2.5 7.2187,0 4.5938,0.5 3.5937,0 3,0.5 3.5938,-2 -1.5,-3.5 -4.0938,-3.09375 -1.5937,-3 2.5937,-4.5 4.0938,1 8.2187,3 3.0938,1 3,1 3.0937,1 2.5938,-2 -2.5938,-5.09375 -6.0937,-2.5 -4.0938,-2 -2.5937,-4 4.0937,-2 5.0938,0 5.5937,-4.125 1,-6 1.5938,-3.5 2.5,-1.09375 5.7187,0 3,-0.5 3.0938,-5 2.5937,-4.09375 2,-1.5 4.5938,-4 1,-2 1.625,-3.09375 6.375,1.1875 0.125,-0.59375 2.1875,-12.6875 3.5,-21.625 2.8125,-13 0.2812,-1.59375 1.5,-7.59375 1,-5.5 2.5,-4.90625 3.7188,-5 4.2812,-8.1875 7.0938,-12.8125 4.4062,-7.90625 1.5,-2.59375 6.5935,-11.5937 5.7188,-11 5,-11.6875 1.2812,-2.90625 11.5,-26.8125 10.625,-27.90625 1.375,-4.09375 5.4063,-15.5 5,-13.5 L 1407,483.5 l 5.8125,-22.1875 3.2813,-13.5 0.7187,-2.875 -1020.71875,0 z"
     id="rect6"
     inkscape:connector-curvature="0" />
  <path
	 style="fill:#9FAEC0"
	 stroke="#9FAEC0"
	 stroke-width="10"
	 transform="translate(0, 75)"
     d="m 428.0625,895.90625 1.125,1.09375 2.625,3 3.59375,3.5 1.6875,3.40625 0.8125,4.1875 0.59375,3.5 -0.5,5 0,4.59375 -0.5,4.125 0,6.875 0.5,3.625 0.40625,2.09375 0.1875,2.5 L 439,952.5 l 0,9.09375 0.40625,6 -0.21875,3.5 -1.09375,4.59375 -0.5,2.5 L 435.8125,986 435,989.59375 l -1.09375,3.09375 -1,3.5 -0.0937,3 -0.625,3 -0.0937,1.625 0.3125,2 0.5,3.5937 1,3.9063 1.40625,3.0937 1.1875,3.4063 0.90625,3 0.1875,0.5937 0,1.5001 1,5 0.8125,4.6875 0.90625,3.0937 0.78125,2.125 2.21875,1.5 2.5,2.0938 2,0.5937 3,1.5938 2.6875,1.9062 2.3125,2.3125 2,1.5 3.09375,2.5 3.5,1.6875 3,1.0938 2.59375,0.094 4.09375,-0.875 2.59375,-0.9063 4.5,-1.4062 5.625,-2.5 2.375,-0.6875 2.5,-0.5 2.40625,-0.3125 0.71875,0 2.1875,0.4062 3.40625,1 3.28125,2.0938 2.125,1 2,1 3.6875,2 1.6875,0.9062 2.8125,1.6875 2.59375,1.8125 0.40625,0.4063 2.09375,2.2812 1.40625,2.8125 1.6875,2.6875 1.71875,3.4063 1.78125,3.8125 2.21875,4.875 2.1875,5.125 2.90625,9.5 2,9.2812 0.90625,7.8125 1.28125,7.0938 0.90625,3.5 2.09375,3.5 3.40625,3.5937 2.8125,3.4063 2.09375,2.5937 2,2.5 6.1875,7 3.40625,2.9063 2.3125,2.3125 0.5,0.1875 3.09375,1.9062 3.5,1.0938 3.09375,0.5937 2.5,0.5938 2.09375,0.5 3.125,1.5 1.875,0.7187 2.5,2.0938 2.125,1.5 2.28125,1.5 4.09375,5.3125 4.40625,5.2812 3.21875,4.2188 2.1875,2.7812 1.40625,1.7188 4,7.0937 2,4.5938 2.1875,5.9062 1.5,5.2813 1.59375,4.3125 1.90625,3.6875 1.09375,3.9062 2.125,3.4063 2.5,4.0937 1.59375,3 1.28125,1.5938 0.3125,0.4062 1.6875,1.7188 1.90625,0.7812 6.09375,3.5938 6.125,4.125 3.59375,1.7812 4.1875,1.8125 4.59375,2.1875 3.625,2.0938 4.09375,2.7187 0.5,0.2813 4.59375,2.9062 5,4.2188 2.59375,1.375 3.40625,3.3125 1.90625,1.6875 1,1.125 2,2.875 2,3.625 1.40625,3 1.5,3.5937 1.78125,3.5 2.09375,3 1,2.5 0.3125,2.5938 1.09375,3.0937 0.71875,1.8125 1.5,2.5938 2.09375,1.9062 2.5,2.0938 2.09375,1.5 2,1 3.59375,1.5 0.90625,0.5 1.6875,2.0937 2.21875,2.0938 0.59375,0.625 3,2.5 3.40625,4.375 2.59375,4.4062 1.6875,4.8125 0.21875,6.1875 -1.5,3.8125 -0.40625,0.7813 -2.09375,4.5 -3.5625,3.6875 605.18755,0 0.6562,-2.5625 1.625,-8 3,-11.625 1,-5.5938 0.5,-6 -2,-3 -2.625,-0.5 -5.5937,3 -5.5938,2 -7.1875,-1 -7.7187,-3 -5.6875,-5.5 -2.5,-2.5 -0.5938,-3 2.0938,-4.0937 4.5937,1 4.0938,3.5937 2.5937,2 4.625,-0.5 2,-3.5937 1.0938,-2.5 4.0937,0 2.5,3.5 2.0938,2 5.5937,2.5 4.125,-0.5 3.5938,-2 2,-8.5938 4.0937,-9.5 2.5938,-7.5937 0,-11.125 -0.094,-7.5 2.5937,-7.0938 2,-4.5 3.5937,-7.0937 4.125,-11.0938 1.5,-7.5 2.5938,-9.0937 2,-12.625 -0.5,-9 -0.5938,-6.0938 0.5,-11.0937 2.0938,-7.5 4.0937,-7.0938 2,-9.5 0.5,-2.0937 1,-6 -2.0937,-10.625 0,-12.5938 1.5,-12 1,-9.0937 0,-8.5938 0.5,-7.5 -1,-2.5 -0.5,-1.5937 -2.0938,-5.5 -0.5,-7.5 -0.5,-7.625 -2.125,-8.5 -1,-9.5938 -0.094,-6.0937 -2.5,-3.5 -1.5938,-6 -3.0937,-9.0938 -2.5,-7 -2.5938,-4.5 -5.7187,-7.59375 -2.5,-1.5 -4.5938,-3 -2.5937,-2 -4.0938,1.5 -2.625,2 0,3 4.2188,2.59375 2,5 0.5,3.5 0,5 0.5937,6.0938 5.5938,1 3.5937,0 2.5,-0.5 3.625,3.5 0,4 -2,4.0937 0,3.5 4.5938,11.5 5.6875,12.5938 2.5937,6.625 0,5 1,7 0,2.5937 0.625,3.5 1,4.5 0,4.5 0.5,10.0938 1.0938,7.0937 -1.5938,9 -1,6.5938 -2,7 -3.625,7.625 -3.5937,0 -3.5938,-0.5 -3,2 1,4.5937 -2,3 -0.5937,1.5 -2,3.5 -4.0938,-1 -1,-2.5 -3.625,-1 -2.5937,3.5 -1.5,3.0938 -1.5,1.5 -3.0938,0 -1.5937,-2 0,-3.5938 2.0937,-4 -1.5937,-4.5 -2.5,-3.5 -0.5938,-3.0937 3.5938,0 4.6875,1.5 6.5937,-2.5 1.5,-3.5 -2,-3 4.125,-3.625 6.5938,-3 5.0937,-4.5 2.0938,-5.5938 0.5,-7 -1,-3.0937 -5.1875,-2 -4.5938,-2 -4.625,-1.5 -6.6875,-0.5 -4.5937,3.0937 -5.0938,1 -3.625,2.5 -2.5,5.5938 -2.5937,1 -6.0938,0.5 -2.5937,0 -5.0938,4 -4.125,3.125 -3.0937,4 -4.0938,2 -3.5937,-2 -1,-5 2,-3.625 8.1875,-5 4.5937,-4 4.625,-1.5938 5.1875,-1.5 1.5,-3 2.5938,-2.5 3.5,-1.5937 2.5937,-0.5 4.125,-3.5 3.5938,-3 2,-2.5 4.5937,-2.0938 4.0938,2 6.2187,1 2,3.0938 2.0938,1.5 2.5937,2.5 1.5,2 3.0938,0 0.5,-4.0938 -1,-5.5 -0.5938,-6.5 -0.5,-5.0937 -4.0937,-4.5 -3.0938,-5 -3.625,-5.125 -7.1875,-3 -18.4062,-2.375 -8.1875,-1.5 -5.2188,-3 -6.5937,-1 -7.6875,-2 -4.0938,-3.625 -7.7187,-4.5 -5.6875,-5 -9.7188,-6 -11.7812,-4.5 -8.2188,-1.5 -4.5937,-3.5 -6.1875,-4.5938 -6.5938,-4 -4.7187,0 -1.5,0.5 -4.5938,5.5938 -7.6875,0 -9.2187,-1.5 -7.1875,-6 -4.0938,-3.00005 -4.625,5.50005 -5.5937,11.125 -10.7813,6.5937 -6.125,0.5 2,-2 1,-3.5937 -1.5,-4.5 -6.6875,-5 -5.5937,-1.5 -6.7188,-2 -11.2812,-6.12505 -9.7188,-5 -7.1875,-3.5 -5.5937,-11.59375 -0.5938,-6.5 -14.3125,-11.09375 -9.8125,-3 -8.6875,3.09375 -5.0937,10.59375 -3,8 -3.5938,4.125 -12.8125,1.5 -6.6875,-1.5 -4.625,-2 6.125,-5.125 5.0938,-3.5 7.1875,-4 5.0937,-5.09375 6.2188,-6.5 2,-5.59375 3.0937,-4 5.0938,-1 6.7187,0 8.1875,3 5.5938,2 3.5937,2.5 3.125,5 2.5,3 4.0938,0.5 2.5937,-5 0,-5 -0.5,-4.09375 1,-3.5 0.5,-4 1.5,-3.59375 2.0938,-4 3,-3.5 2.0937,-4.125 0.5,-4 -1.5937,-5 -1,-7.09375 1,-5.5 2.0937,-4.5 1.8125,-3.6875 -701.4375,0 z"
     id="rect8"
     inkscape:connector-curvature="0" />
  <path
	 style="fill:#9FAEC0"
	 stroke="#9FAEC0"
	 stroke-width="10"
	 transform="translate(0, 50)"
     d="m 719.84375,1346.875 -0.4375,0.4375 -4.21875,3.375 -3.59375,2.9063 -3.6875,2.4062 -2.59375,0.8125 -2.8125,0 -3.90625,0.094 -4.09375,0.5 -2.5,0.9062 -0.59375,0.1875 -3.3125,1.4063 L 685,1362 l -2.5,2.3125 -2.59375,1.875 -2.09375,2 -0.5,0.3125 -2.125,1.5938 -2.09375,1 -2.40625,0.4062 -2.59375,0 -0.59375,-0.1875 -2.59375,-0.5 L 662,1370 l -4.6875,-2.4062 -0.40625,-0.1875 -4.71875,-1.9063 -3.59375,-1 -3.5,0 -3.09375,1 -2.59375,1 -2.09375,2 -1.90625,2.5938 -2,3.3125 -1,3.7812 -1.71875,4 -0.59375,4.5 -1,3.5 -1.90625,2.5 -2.59375,2.125 -3.09375,2 -3.59375,1.7813 -2.5,1.8125 -2.09375,1.9062 -1.8125,2.1875 -1.40625,2.1875 -1.40625,2.125 -2,2.0938 -1.59375,1.5 -3.09375,1.4062 -2.90625,1.2813 -3.1875,1.3125 -3.09375,1.5937 -3.8125,1.4063 -4.59375,1.5 -4.09375,1.5 -2.71875,1.1875 -3.09375,0.9062 -3.59375,0.9063 -3.09375,1 -3.125,0.9062 -3.09375,0.2813 -5.6875,0.4062 -2.90625,-0.094 -1.1875,0 -4.125,0.9062 -4,2.2813 -8.1875,5.5 -10.5,6.9062 -6.40625,3.1875 -5.1875,3.125 -1.3125,1.0938 -2.28125,1.9062 -3.5,3 -3.125,2.375 -2.09375,2.4063 -4.28125,4.9062 -2.3125,2.9063 -0.90625,1.0937 -3.1875,2.9063 -3.71875,2.7812 -0.375,0.3125 -3.71875,2.6875 -2.78125,2 -2,1.2188 -5.3125,2.5937 -5.5,1.8125 -4.1875,1.375 -4.125,1.4063 -3.6875,1.9062 -3.09375,1.9063 -2,2.1875 -2.71875,2.8125 -1.1875,2.4062 -2.1875,3.375 -1,3.5 -1.5,3.125 -1.625,3 -1.5,3 -3,3.2813 -3.09375,3.5937 -3.6875,3.2188 -4,3.1875 -5.71875,2.8125 -6.6875,2 -6.59375,2.0937 -3.59375,1.1875 -6.21875,2.3125 -6.90625,4.4063 -4.6875,3.4062 -1.59375,1.0938 -0.90625,1 -3.3125,3.1875 -2.5,3 -1.1875,2.5 -1.3125,3.4062 -0.375,2.6875 -0.71875,4 0.40625,4.4063 0.40625,4 0.28125,4.5937 0.90625,4.625 0.90625,4.5 0.90625,3.0938 1.40625,4 0.875,3.0937 0.5,3 -0.0937,4.5 -0.5,3.4063 -0.28125,1.5937 -1,4.5 -1.625,3.5938 -2.5,4 -2.5,3.3125 -0.59375,0.6875 -3.5,3.4062 -3.1875,2.3125 -0.5,0.1875 -2.71875,0.6875 -4.375,1 -5.90625,0.2188 -6.59375,-0.2188 -6,-0.6875 -3.625,0.1875 -1.78125,0.3125 -0.90625,0.094 -2.90625,1.0938 -1.78125,1.4062 -0.90625,0.5 -1.71875,1.2188 -0.6875,0.5 -1.5,2.2812 -6.3125,5.8125 -5.6875,4.7813 -1.09375,0.7187 -6.3125,3.9063 -9.40625,4.0937 -10.375,3.6875 -6,1.4063 -6.125,1.1875 -6.1875,1.8125 -5.59375,1.5 -5,1 -5.09375,0.5937 -5.8125,0.4063 -8.09375,-1.3125 -8.3125,-1.5938 -6.1875,-0.5937 -5.0938,0 -5.125,0.4062 -4.0937,1.0938 -3.5938,1.0937 -1.5,0.5938 -4.1875,1.9062 -4.125,2.4063 -5.0938,3.0937 -6.5937,5.0938 -5.6875,6 -14.7188,12 -24.6874,18.4062 7.6874,6.9063 -4.0937,2 -8.1875,3.5 -4.5,2.5937 -0.625,0.4063 -4.5,2.5 -1.0938,1.0937 -2.5937,2.5 -6.1875,5.5 -6.125,6.5938 -3.0938,3 -2,3 -2.0937,1 -2,2 -1.5936,2.125 -1,3 -1.5,3 -1.0939,3 -1.5,4.5937 -2,4.5 -2.125,4 -1.5,3.5 -2.0938,4.0938 -0.125,0.3437 1122.4688,0 -1.5312,-0.25 -7.5938,-1 -4.125,-1 -3.5937,-1 -1.0938,-5.5 0.5,-4.5 0,-5.0937 0.5,-3 0,-2 1,-4 2.0938,-2.0938 1,-2.5 2.0937,-3 1.5,-2 0,-2.5 -2.5937,-3.5937 -1.5,-3 -2.0938,-5 3.5938,-4 3.0937,-3.125 4.625,-4 2,-8.0938 -0.5,-5.5 2.5,-7.5 L 1211,1711 l 5.1875,-1.5 -1.0937,-4.5 -4.0938,-1 -4.0937,0.5 -2.5,-1 -0.094,-3.5 4.0938,-2.5938 5.6875,-1.5 5.0937,-2.5 3.125,-5.0937 2.5,-7.5 0.5,-4.5 1.5938,-4.125 2,-1.5 4.0937,-1 4.0938,-1.5 2.5937,-2.5 -3.0937,-4.0938 -3.0938,-1 -5.0937,-0.5 -3.5938,1.0938 -4.125,0 -3.5937,-1 -2,-0.5 -1.0938,-1.5 1,-4.0938 2.0938,-0.5 3.5937,-0.5 6.625,0 3.0938,-0.5 2.0937,-4 -0.5937,-3.5937 -0.5,-6.5 2.0937,-6 2.5,-8.0938 5.0938,-9.0937 3.0937,-6 3.125,-4.125 4.5938,-4 2.5,-1.5 3.0937,-1.5 2,-2 0,-3.5938 -1.5,-2 -3.0937,-1 -4.5938,0.5 -5.625,0 -6.6875,0.094 -6.1875,-0.5 -6.125,1.5 -3.0937,-1 -3.5938,-2.5 -4.5937,-3 -4.0938,-4.0937 -3.125,-1.5 -5.5937,-1.5 -3.5938,0 -4.5937,0.5937 -1.5938,0 -2,-1.5 0,-5.5937 -0.5,-2 8.1875,-0.5 3.5,0 3.5938,-1 3.5937,-1.0938 4.125,3.0938 2.0938,2 5.5937,5 5.1875,1 6.125,1 4.0938,1 3.0937,-0.5 3.0938,-3 1.5,-2.0938 2.5937,-0.5 3.625,0.5 2.5,-3 1.5,-4.5 0.5,-3.5937 1.0938,-2 -0.5,-1.5 -1.0938,-3 -0.5,-2 2.0938,-2 1.5,-5.5938 2,-4 0,-1.5 -1,-2 -3.0938,-2 -2,-2.5 -1.625,-1.625 0.5,-2.5 2.625,-2 0.5,-2 0,-2.5 -1.5,-1 -3.125,-2 -2.5937,1.5 -2,2.5 -4.5938,1.5 -6.1875,-2 -3.125,-2 -1.5,-4 2,-5.5937 2.125,-2 1,-2 4.5938,1 4.5937,1.5 4.5938,0 1.5937,-2 3,-3 2.125,1.5 2.5938,1 3,-1 1.5937,-4.0938 -2.0937,-3 -3.0938,-2.5 -6.125,-2 -10.2812,0 -2.5,-0.5 -1.0938,-3 5.0938,-6.5937 -2,-2.5 -4.5938,-4 -2.125,-1.5 -0.5,-2 3.125,-3 4.0938,0 3,3 3.5937,5 4.0938,3 3.0937,1.5 3.625,1 4.5938,-1.5 3.0937,2.5 1,4.5 2.0938,3.0937 3.5937,-0.5937 5.625,-0.5 2.5938,-7.5 -1.0938,-5.5938 7.1875,-5.5 2.0938,-3.5 1,-6.125 0.5,-2 -0.5,-4.5 -5.6875,-1 -7.2188,1.5 -5.5937,2.5 -5.5938,2.125 -2.0937,-3.125 -5.0938,0 -5.125,1.125 -3.0937,-2.5 -2.5938,-3.125 -5.0937,-0.5 -3.0938,-3 0.5,-4.5 5.5938,-2.5 4.6875,5 9.2187,1.5 6.6875,1 6.0938,2 5.0937,-2 4.125,-1.5937 5.1875,-3.5 3,-2 4.0938,-3 3.0937,-2.0937 6.7188,1.5 1,0.5 -0.5,2.5938 -1.5,3 -1.5938,5.5 -2,5.5937 0,5.5 0.5,6.5 0,11.625 0.5938,4.0938 -1.0938,8 -1.5,4.5 -1.5,4.5937 -3.125,7 -1,4.5938 -2.5,8 -0.5,7.5937 -1.5937,7 -1.5,7.125 -2.5,7.5 -3.5938,3.0938 -2.0937,2 0.5,4 1.5937,2.5 3.0938,3 2,4.5937 0.5,5 -1,6 -1.5,5.5938 -2.5938,4.5 -1.5,3.5 -1.5,3.0937 -1.5,8.5 -1.0937,8.625 -1,7.5 -1,7.0938 -0.5,4.5 0,8.0937 0.5,5 -0.4063,8.0938 -1.5937,10 -1.5,8.5937 -0.5,8.5 0.5,9.625 0.094,10.0938 0,4 -2.5937,7.0937 -3.0938,7.5 -1.5,3.5 0,3.0938 -0.5,5 1.5938,5 1.5,4 0,4.5937 -2.5,4 -3.0938,-0.5 -3.625,-1.5 -2.0937,1.5 -0.5,2 -0.5,3.125 2.5937,0 3.625,0.375 2,1.625 2.5938,3.5 3.0937,-0.5 1,-0.5 0.5,-2.625 2.0938,-3 1,-4 1.5,-5 1,-6.0937 0,-19.0938 1,-8.0937 1.5,-5.5 1.5937,-4.5 1.5,-9.0938 0,-8.125 1,-6 1.5,-9.0937 2.5,-9 1.125,-8.5938 -0.625,-9.0937 -0.5,-10 2.5,-17.0938 0.5,-13.625 2.125,-9.5937 2.5,-13.5938 1.5,-10.5937 2.0938,-7.5 2,-9.0938 2.5,-11.625 1.5,-20.0937 4.0937,-16.0938 -0.5,-10.0937 -0.5,-5.5 2,-11.0938 2,-5.625 2.0938,-7.5 2,-5.0937 3.5937,-8.5 2,-6.5938 2.125,-7.5 2,-10.0937 0.5,-6.5 -0.5,-7.0938 0,-5.5 -1.625,-2.5 -0.5,-0.5 -3.5937,-2.125 -7.1875,-1.375 -9.2188,1.5 -7.1875,5 -6.5937,2.0938 -8.2188,-3 -5.1875,-0.5 -6.0937,-6.5938 -1.5938,-7 -2,-13.625 1.5,-3 2,-1.5 1.0938,3.5 2,5.5 3.5937,7.125 4.6875,3 2.5,3 3.125,2.5 5.0938,-1 7.1875,-3.625 5.5937,-3 2.125,-1.5 2.5,1 3.5938,1.5 6.6875,0.5 5.0937,-5.5937 0.5,-10.5 0,-10.5938 1,-12.5937 2.3438,-9.0313 -605.18755,0 z m 553.96875,165.7188 -1.125,2 -0.5,3.5 -0.5,2 1,2.5 3.125,1.5 1.5938,-2.5 0,-3 -1.0938,-3 -1,-3 -1.5,0 z m -1,52.3125 -1,1.5 0,3.0937 -1.5,3.5 1,3.5 2.0938,0.5 1,0.5 1.5,-1.5 0,-3 0.5,-3.0937 -2,-4.5 -1.5938,-0.5 z m -31.5,163.6875 -1,2.5 0.5,1.5 1,1 1.0938,2.5 1.5,3 1.5,3.0937 3.0937,2 2.0938,1.5 3.0937,-0.5 0.5,-2.5 -1.0937,-3.5937 -2,-5 -3.0938,-2 -4.5937,-3 -2.5938,-0.5 z m -11.2187,35.7187 -3.0938,1.0938 -0.5,0.5 0.5,2 -0.5,1 0.5,1.5 2.0938,0.5 3.0937,0 4.625,-1.5 2,-1.5938 0,-2 -2,-1 -3.625,-0.5 -3.0937,0 z m 28.2187,6.5 -2.625,2.5938 -3,5 -3.0937,7.5 -1.5,9.0937 -0.9063,2.8438 7.0938,0 2.5312,-4.3438 2.5,-7.0937 0.5938,-5.5 0.5,-6.5938 -2.0938,-3.5 z"
     id="rect10"
     inkscape:connector-curvature="0" />
  <path
	 style="fill:#9FAEC0"
	 stroke="#9FAEC0"
	 stroke-width="10"
	 transform="translate(0, 25)"
     d="m 80.9687,1797.8438 -0.875,2.6562 -0.5,3.5 -0.5,3 -1,4.5938 0,3 -0.5,2 -0.5937,1.5 -1,1.5 -2.5,0 -2.5937,-0.5 -1,-0.5 -1.5938,0.5 -1,2 -0.5,2 -2.3125,4.5 -2.3125,4.5937 -1.0938,1.625 -3.4062,3.2813 -2.1875,1.7187 -1.5,2.5 -1,3 -0.5,4 -0.5,4.0938 -0.5,4.5 -0.5937,2.5 -0.5,4.5 -0.5,3 -1.5,3.0937 -2.0938,3 -2,2.5 -2.125,2.5 -2,2 -2,2.0938 -1.5938,2.5 -1.5,2 -1,2.5 -1.5937,2 -1,1 -0.5,1 -3.0937,2 -3.5938,1.5937 -2.625,2 -2,2 -1.5,2 -1.5938,1.5 -2.5,2 -2.0937,2.5 -1.5,3.125 -1.8125,5.375 -0.7812,2.125 0.5,5.0938 1.5937,6.9062 1.5,7.0938 0.5937,1.9062 0.5,1.6875 1.5,2.5 3.0938,3 4.125,2.5 2,1.5 2.0938,0.5 2,0.5 1.5937,1.5 0.5,1.5 0,1.5938 1.5,2 1.0937,2 1.5,1.5 2.0938,1.5 7.2188,2 3,2.5 2.0937,2.5 1.5,3.5937 0.5,3.5 -0.5,4 -2.5,5.5 -1,3.625 -1.5937,3 -1.5938,2.6875 -1.5,2.3125 -2,2.5 -3.125,3.0938 -3.5938,3 -1.5,2 -0.5,3 0.5,1.5 1,2 1.8126,1.1875 1.2812,0.9062 0.5,1 0,4 -0.5,5.5 -1,4.0938 0,4.5 0.5,1.5 -0.5,2.5 -1,2.5 -0.5,1.5 -0.5,3.0937 0.5,2.5 0.5,1 2,6 -1.5938,0.9063 -1.4062,0.8125 -1.5938,0.7812 -9.4062,0.5 -9.2812,0.4063 -6.5938,0 -1.625,3.5 -1.0938,2.5 L 0.8125,2074 0,2077.0938 l 0,4 4.5,10.2187 7,10.375 2.6875,3.4063 7.7188,8.5 7.1874,-4.5 6.7188,0 4.0938,-1.5938 6.1874,0.5 5.5938,4.5938 6.7188,6.5 3.0937,2 7.1875,3 9.2188,9.5937 10.7812,11 5.125,10.125 3.5938,9.0938 6.1874,5.5 4.0938,2.5 5.125,4.5 4.0938,7.0937 6.1874,3.5 5.5938,-2 7.2188,-2.5 3.0937,-1.0937 -1.5937,4.0937 1.0937,5 5.0937,3.5 0,5.0938 3.5938,5 1,14.0937 1.625,3 4.5938,2 4.0937,3.5 4.5937,5.125 7.2188,7.5 2.0938,3 5.5937,0 2.0937,-3.5 1,-5 1.5,-0.5 1.5938,-1.125 9.2188,1.5 6.6874,2.625 2.5,6 0.5,6 0.094,0.5313 665.21875,0 2,-4.25 2,-4.0938 3.09375,-1.5 6.09375,4 3.59375,2.0938 5.21875,-0.5938 0.5,-10 4.09375,-5.5937 3.5,-2.5 2.09375,-12.5938 1,-7.5 8.71875,-4.125 3.09375,-0.5 9.6875,0.5 5.71875,3 1,2.5 0.5,6.625 -0.5,2.5 0,1.5 -5.625,6.5938 -5.6875,3 2.59375,3 2.59375,0 -1,4 -0.59375,0.5 -2.5,2.5937 -2.09375,2 -3,2.5 -2.59375,1.5 -4.59375,2.5 -3.625,1.5 -0.125,0.8438 41.53125,0 9.90625,-3.9375 7.6875,-3 9.21875,-5.5 10.6875,-7.0938 10.8125,-6.625 5.59375,-4.5 -0.5,-1.5 0,-1 -0.5,-2.5 -0.5,-2 -1,-3.5937 -1.09375,-4 -2,-2 -3.09375,-0.5 -5.625,-1 -1.09375,-1 0.5,-2 1.09375,-2.5 -1.09375,-3.5 -2,-1.5938 -5.1875,-1 -2,0.094 -1,0 -0.59375,-2.0937 1.09375,-3 0,-3 -4.71875,-3 -9.6875,-3 -8.6875,1 -8.21875,2.5 -5.09375,4.5937 -0.0937,-11.5937 -2.5,-12.5938 3,-3.5 12.78125,-4.0937 3.625,-7 0.5,-17.125 3.59375,-6.0938 6.6875,0.5 2.5,-5 -1,-7.0937 2,-2.5 4.59375,0.5 1.125,4.0937 8.1875,0.9063 2.5,0.5 0,1 -1,4.0937 2.59375,7.5 3.59375,5.5938 2.625,4 5.09375,4 4.0938,-3 7.1875,-4.5938 -4.6875,-9.5 -3.5938,-5.0937 -1.5,-6 2,-4 5.1875,0 1.5,-4.0938 -5.0937,-9 -5.68755,-0.5 -1.5,-3.5 4.59375,-5.5937 8.6875,1 2.0938,5.0937 6.125,1.5 3.0937,-4.0937 -2.5937,-7 -13.3125,-12.625 -4.1875,-7 0.5,-9.0938 -8.7188,-9.5 0.5,-11.5937 0,-3.5 4.09375,-1.5 -3.59375,-9.5938 -1,-7 -2.09375,-7.0937 3.59375,-1.5 7.2188,4.5 5.0937,3.5 0.5,7.5937 1.5938,4.5 4.5937,-0.5 6.0938,-0.5 9.3125,1 7.6875,1.5 -1.5938,-7.0937 3.0938,-3 5.625,2.5 0.5937,5 8.1875,1.5 7.0938,-4 6.7187,5.5 5.6875,3.5 -1.5937,3.0937 -1,3 3.5937,3.5 1,2.5 -4.0937,1 -1.5,1.5 0.5,4.0938 -0.5,3.5 -1,4 1,1 1,1.5 5.6875,-4 6.125,0 5.6875,1.5 0,-6.0938 2.5,-3.5 6.6875,-7 -2.0938,-4.0937 -0.5,-4.5 1.5,-3.5 -5.5937,-5 -6.6875,-2.5 -4.125,-2.625 -2.0938,-4 -2,-2 -4.0937,-1 -1,-4.5 -0.5938,-3 -3.5,-2.5 -3.0937,-3.0938 -1.125,-4.5 0.5,-6.5 1.125,-3.0937 3,0 2.0937,3.5937 3.5938,1 2,-4.0937 1,-3 0.5937,-2.5 4.5938,-2 4.125,-0.5 0.5,-5.5938 1,-7 2,-5.0937 5.1875,-3 3,-2 1.5937,-0.5 2,2.5 2.5938,4.5 2.625,0 0.5,-4.5 -1.125,-4.5 1,-2.625 6.2187,-2 2.0938,2 3,3.625 5.1875,-0.625 3,-1 2.125,-2 -1.625,-3.5 -2,-3.5 0.5,-3.0938 0.5,-1.5 3.625,-3.5 1.5,-3 0,-5.5937 3.5937,1.0937 3.5938,-0.5937 0.5,-1 -2.0938,-4 -1,-8 1.5,-2.5938 2.0938,-1 1,1 3.5937,1 6.2188,-2 2.5,-2.5 3.5937,0.5 2.5938,1.5 2,-0.5 2.5937,-4 0.5,-1.0937 1,-5 4.5938,-3.5 0.5,-3 -0.5,-4.125 2.125,-1.5 1.5,-2.5 2.5937,-3 6.0938,-1 6.0937,-4.0938 3.5938,-2 2.625,-2 -0.5,-2 -3.625,-1 -3.0938,-0.5 -1,-1 1.5,-4.0937 1.5,-2.5 2.0938,-4 6.125,-3 2.0937,-1.0938 0,-6 1.5,-4.5 2.5938,-0.5 4.5937,2 3.5938,-0.5 1,-4.0937 1,-1.5 2.625,-1.5 1.5,-2 0.5,-2 -5.625,-1.5 -5.0938,0 -2.5937,-0.5 -2.5938,-1 -1,-2 -1.5,-2 0,-2 4.0938,-0.125 3,0.5 2.0937,0 3.5938,-0.5 0.5,-3 -2.0938,-2.5 -1,-2.5 1.5,-6.5938 0,-2.5 -0.5,-1.5 -4.6562,-0.75 -1122.4688,0 z m 1166.2188,0 -2.1875,6.75 -6.0937,4.5 -3.5938,0.5 -2.625,0.5 -1.5,2.0937 0,2 1,3 0.5,2 1.625,4 -0.5,4.125 -1.5,5 -2.125,4.5 -2.5,3 -2.5937,3.0938 -3.0938,5 0,5 -0.5,3.0937 -3,2 -3.0937,5.5 -2.0938,5.5938 -2,3.5 -4.125,3 -3.0937,2.5 -2,2.0937 -2.0938,3 -1.5,5 -2.5937,3.5 -3.5,4.625 -2.0938,4.5 -1,5.0938 -0.5,3.5 -1,5 -2.125,4.5 -3,4.5937 -4.0937,8 -4.0938,6.0938 -4.5937,9.0937 -3.0938,5 -3.125,4 -1,4.125 -0.5,3 -1.5,3 -3.5937,1.5 -3.5938,2 -2.5,2.5938 -2.5937,5 -1.5,3.5 -1.5938,4.5 -2,4.0937 -4.625,4.5 -2.5937,1.5 0,2.5 -0.5,3.5938 -2,8 -2.5938,4.0937 -3.0937,2 -4.5938,1 -1,1 -0.5,3.5 0,5.625 -0.5,4.5 -1.5,3.5 -4.625,4.5938 0,4 1,2 1.5,1 3.125,-2 3.5938,-4.0938 2.5937,-6 3,-5 3.0938,-6.625 1.5,-2 3.0937,-4.5 3.125,-6.0937 3.5,-6 4.5938,-6.0938 5.6875,-9.5937 5.0937,-5 3.125,-6 2.5,-3.5938 3.5938,-7.5 5.0937,-8.125 4.5938,-10.0937 2.5937,-6.5 3,-4.5 5.125,-6.5938 4.6875,-7 4,-7.0937 0.5,-4 4.0938,-6.0938 5.7187,-9.5 3,-5.625 5.0938,-8.5937 5.6875,-8.5 3.5,-9.0938 4.5937,-10.5937 2.125,-7.5 3,-7.0938 2.5938,-6 3.0937,-9.125 2,-6.5 3.0938,-5.5937 3.5,-5.5 1.0937,-3.5 3.5,-5.0938 0.094,-0.1562 -7.0938,0 z m -26.1875,31.4687 -2.0937,1 -0.5,1.5 -1,0.5 0,2.5 0.5,1.5 1,1 1.5937,1.0938 2,-0.5938 1.5938,-2 0,-3.5 -0.5938,-1.5 -2.5,-1.5 z m -39.4062,56.375 -1.5938,1 -1,1.125 -2,1 -2.0937,1.5 -2.5,2 -0.5,3 0.5,3 1,1.5 3.5937,0.5 2.5938,-1.5 0.5,-1.5 0.5,-2 2,-2 3.0937,-2 0,-3.125 -0.5,-1.5 -1.5937,-1 -2,0 z m -17.9063,24.7188 -1.5937,1 -1.5,2.0937 -1,0.5 -1,2 1,3 1,0.5 1,0 2.0937,-0.5 1,-1.5 1,-2 2.125,-2.0937 0.5,-2 -1,-1 -3.625,0 z m -9.1875,35.7812 -3.0937,0.5 -1.5,1.5 0,3 1,0 1.5937,1 3.5,0.5 2.0938,-2 0,-2.5 -1.5938,-2 -2,0 z m -23.5937,18.625 -3,0.5 -1.5938,1.0938 -0.5,2 -1,1 0.5,2 2.0938,2 4.0937,0.5 1.5,-2 1,-4 -1,-2.0938 -2.0937,-1 z m -17.3125,32.2813 -2.5938,1.5 -0.5,1 -1,1 -0.5,2 1,2.5 1.5,1.5 3.0938,0.5 1.5,-3.5 1.0937,-2 0,-1 -0.5937,-1.5 -2,-1 -1,-1 z m -31.7813,4.5937 -0.5,1.5 0,5.5 0.5,1.5 1.5,1.5 6.1875,1 2,-1.5 0.5,-3 -1.5,-1 -2.0937,-2 -1,-1.5 -1.5,-1 -1.5938,-0.5 -2.5,-0.5 z m 23.0938,48.7188 -1.5,0.5937 -1.5,1.5 -0.5938,0.5 -0.5,1.5 1.5938,2 2.5,0 1.0937,-0.5 1.5,-1.5 0,-1.5 -0.5,-2.0937 -2.0937,-0.5 z m -40.9063,31.2812 -4.6875,1 -6.125,0.5 -12.7812,-0.875 -4.0938,2 -1.125,2 2.125,3 -1.5,1.5 -4.125,0 -3.0937,-2 -1,1 0.5,2 -0.5,3.0938 1,3.5 2.0937,4 2.5,4.5 1.625,4.5937 0.5,6 0,7 -1,5.0938 -2.125,4 -0.5,1.5 -3,2.5 -4.0937,1.5937 -3.5938,2 -2.5938,4.5 -2.5,4 -1.0937,3.125 1.5937,0.5 3.5938,1 2.5,1.5 1.5938,2.5 -2.0938,1.5 -2.5,1 -4.5938,1.5 -3.0937,2 -1.625,1 -5.0938,9.5938 -4.0937,3 -3.59375,-0.5 -2,-2.5 -1.09375,-2 -3,-2 -1.125,-0.5 -3,1.5 0,1.5 -1.59375,3.0937 0,1 0.59375,4.5 1,3 1.5,2 4.71875,3.5 3,1 1.59375,3.0938 1,4.5 2.0937,-1 2.5,-2 3.0938,-1.5938 12.3125,-7.5 7.1875,-6.0937 10.7188,-6.5 8.6875,-5.0938 5.7187,-5 7.0938,-9.125 5.6875,-9.5937 2.5,-6.5 1.5,-4.5 -1,-6.0938 -2.5938,-2 -0.5,-2.5 0,-6 2.5938,-1.5937 3.0937,0 3.5,1.5 5.7188,0 4.0937,-2 3.0938,-3 0.5,-4.5 0,-4.0938 1.5,-6 0.5,-5.625 -4.0938,-0.375 -1.5,3.5 -4.1875,1 -1.5,-0.5 -2,-2.5 -1.625,-3 -1,-3.125 -1.0937,-5 -3,-0.5 -4.5938,-0.5 z m -90.1875,54.5 -1.625,1 -2.5,1 -2.09375,2 -3,2.625 -1.59375,1.5 0.5,2.5 1.59375,1.5 0,4 -1,2.5 -1.59375,2.5938 -2.5,5 -1,3 0.5,3.5 2,2.0937 3.59375,0 3.59375,-2.5937 2.125,-1.5 4.59375,-1.5 4.59375,-2.5 1,-3.5 -0.5,-3.5938 -2.09375,-2 -3.09375,-1.5 0,-2 1.09375,-5.5 0.5,-5.625 -2.09375,-3 -1,0 z m 14.875,11.625 -2.59375,0.5 -0.5,3.5 1,4 0.59375,3 1,2.5938 3.625,1 1.5,-2.0938 0,-2 0.5,-2.5 0,-3.5 -1.5,-2.5 -1.125,-1 -2.5,-1 z"
     id="rect12"
     inkscape:connector-curvature="0" />
  <path
	 style="fill:#9FAEC0"
	 stroke="#9FAEC0"
	 stroke-width="10"
     d="m 203.1875,2248.8438 1,5.0625 1.5,3 4.125,4 3.5938,9.0937 0,4 -1.5,4 1,3 1.5937,2.5938 13.8125,8.5 4.6875,6 4.59375,2.5 3.59375,-3.5 2,-4.5 1.5,-3.5 3.125,-2 11.78125,-0.094 7.21875,0 2,2 -0.5,6.5937 4.09375,0.5 5.1875,1.5 3.59375,2 0,5.5 -4.09375,4.5938 -3.59375,1.5 4.09375,5.5 5.59375,3.5 8.3125,6.125 7.09375,2.5 7.21875,2.5 5.6875,2.5 2.5,2 0.59375,8.5937 1.5,5.5 2.59375,0.5 3.5,-2 2.625,-2.5 4.09375,0.5 6.6875,3.5 7.21875,11.5 0.5,7.0938 -2,4.5 -2.625,4 0,4.0937 3.125,1.5 3.09375,3 -0.5,4 -2.59375,1 -4.625,1 -0.5,3.5938 0.5,2.5 4.625,0 7.6875,4.5 5.09375,7 4.71875,6.625 3.59375,3.5 2,1.5 8.1875,-2.5 5.71875,-2.5 2.5,-4.625 0.5,-6 1.5,-5.5938 1.09375,-4 4.09375,-1.5 5.59375,-0.5 2.09375,-2.5 3.5,-2 11.3125,1.5 12.3125,1 18.5,-2.5937 1,-3 2.09375,-3.5 7.09375,-1 5.1875,2 1.5,2.5 -1,3.5 2.625,2.5 3.59375,8.5937 -5.21875,4 -0.5,4 4.125,3.5938 6.6875,-1.0938 11.8125,-0.5 10.78125,3 17.40625,-3.5 7.6875,0.5 8.21875,3 8.1875,3.5 8.21875,6 5.6875,2.5 6.09375,2.5938 8.3125,-0.094 4.09375,3.5937 3.59375,6.5 2.5,5.5 5.21875,5.125 2,3.5 0.5,5 -0.5,5.5 1.09375,6.0937 1.5,5.5 1.09375,9.5938 -1.09375,7 -2.5,6.0938 -3.59375,6 -0.5,2.5 -1.5,5.0937 -3.625,8.5 -6.1875,8.625 -2,4 -2,6.5937 -1.59375,8 -2,7.5 -3.09375,9.0938 -4.625,4.5 -5.09375,5.5938 -4.59375,6 -5.09375,5.5937 -1.59375,5.5 -1,5 -1.5,7.625 -2.625,8 -4.09375,10.0937 -1.5,4 -4.09375,7.0938 -1,2.5 -1,3.5 -0.5,5.0938 0,2.5 -1.09375,3 1.09375,4.5 1,2 0.5,2.5937 -0.5,4.5 -1,5.5 -1.5,4.625 -5.6875,3 -0.5,4.5 1.59375,3.5 3.5,5.5937 -0.5,1 -2,4.5 -1,2.5 2.5,1.5 4.09375,0 4.40625,1.4063 7.75,0 5.84375,-0.4063 8.6875,-2.5 6.21875,-1.5 7.6875,-2.0937 9.21875,-2 5.59375,-1 10.78125,-3.5 2,-0.5 3.625,-1.625 4.59375,-3 4.09375,-4.5 -1,-4 -4.59375,-1 -3.09375,1 -2.625,1 -3.5,0.5 -1.09375,0.5 -3.59375,1.5 -6.09375,0.5 -3.59375,-2.5 0.5,-2.5 3.09375,-3.5 9.6875,-0.094 3.09375,0 4.625,-1 5.6875,-2 0.5,-0.5 0,-5 -1.09375,-3 -3,-1.5 -3.59375,-0.5 -2.625,-1 -0.5,-1.0938 -1.09375,-5 2.59375,-2 4.125,1.5 4.09375,2.5 4.09375,-2 1.09375,-3.5 -0.59375,-2.5 -1.5,-3.0938 -2.09375,-2.5 0,-2.5 1.09375,-0.5 2.5,-1.5 1.59375,0.5 3,3.5 4.09375,0 4.125,-1.5 6.1875,-3 3.59375,1 1.5,2 2.09375,2 0.5,0.5 -2,4 -0.59375,2 -1,2.5938 -2.5,2 -4.6875,2.5 -3,0.5 -2.59375,-3 -4.125,0 -1,1 -2.09375,1.5 -0.5,4.5 1.59375,3.5938 1.5,4 0,4.5 -1.5,7.0937 3.125,3 1.5,-1 1,-1.5 2.09375,-3.0937 5.09375,-3.5 6.09375,-4 5.21875,-3.0938 5.09375,-4.5 5.09375,-6 7.1875,-6.5938 7.21875,-5.5 10.1875,-8.0937 7.21875,-8.125 4.09375,-7.5 0,-3.5 -1.09375,-3.5 -3,-2.5937 -3.125,-4.5 0,-2.5 -1.09375,-3 -2,-3 -1.09375,-2 -1,-3.0938 1.59375,-1.5 5.59375,-0.5 3.625,-2.5 1.5,-6 2.09375,-7.5938 2.5,-6 2.09375,-4.0937 4.59375,-4.5 2,-1.5 2.09375,-2 1,-2 0.5,-4.625 -1,-4 -1.59375,-1 -1,-0.5 -1.5,-6.5 -2.09375,-10.5937 -1.59375,0.5 -6.09375,5.5 -6.71875,-10.5 1,-6.0938 1.09375,-5 6.625,-1.5 5.09375,-1 5.6875,-1 3.59375,-1.5 2,0 2.625,3.5 0.5,3.5 0,1.5 0.5,2.5 1.09375,6.5938 -1.09375,4.5 -2,4.5 -0.5,4 2.09375,6.0937 1.5,2 2.59375,3.5 1.5,3.5 -1,2.5 -2.59375,2.625 -4.09375,2.5 -6.625,2 -2.09375,5.5 -1,3.0937 -2.59375,4.5 -0.5,5.5 -0.5,3.5938 2.09375,10 3.59375,-2.5 1,-1 1.5,-1 2.625,-3.5 4.59375,-5.5938 4.09375,-3.5 5.59375,-5.0937 4.59375,-7.5 3.625,-6 4.09375,-9.125 5.09375,-9.5937 4.09375,-7 4.09375,-6.5938 5.71875,-6 4.59375,-6.5938 0,-5 -2.09375,-6 -1,-0.5 -2.09375,-0.5 -8.71875,2.5 -4.09375,2.5 -4.09375,1 -1,-1 0,-1 1,-5.5 1.5,-4.5937 -3.59375,0 -5.125,0.094 -3.59375,-1.5937 -1.5,-1 3.59375,-4 12.8125,-1.5 2,-4 0,-4.125 1,-4.5 0,-3.5 2.59375,-3 1,-0.5 4.09375,-1.0937 1,1.5937 -0.5,2.5 -0.5,3.5 -1,3.5 -1.5,4.5 0,5.625 1,2 1.625,1 2,-0.5 3.09375,-2 2,-1.5 1.59375,-4.125 1,-3 2,-5 1,-3 4.6875,-2.5937 4.125,-3 3.5,-6 3.09375,-4.5938 1.5,-5 3.09375,-6.5 2.09375,-6.0937 2,-3.5 3.59375,-4 4.125,-6.5938 3.59375,-5.5 5.59375,-6.125 0.5,-5.5 -1.5,-1.5 -4.09375,-1.5 -3.59375,-1 -1.625,-2 2.125,-1.5 3,-0.094 2.09375,-0.5 2,-3.5 0.59375,-2.5 -0.0937,-4 4.09375,-2 4.1875,0.5 3.5,0.5 5.71875,-1.5937 5.09375,-4 4.09375,-4 3.59375,-6.0938 4.625,-11.0937 2.5,-7.5 4.59375,-7.125 8.1875,-9 9.8125,-8.0938 9.1875,-2.5 9.71875,-3.5937 5.1875,-3 3.5,-13.5938 -3.09375,-6 -2.5,-2.5 -4.59375,0.5 -5.71875,2 -3.09375,3 -5.59375,4.0938 -4.59375,3 -5.625,3.5 -5.1875,-2 -4.59375,-3.5 -1.5,0.5 -1.59375,0.5 -1.5,3 -0.5,2.0937 0.5,1 1.5,2 1.09375,2.5 0,3 -0.5,3 -2.59375,3 -3.625,2.5938 -2.5,1.5 -5.1875,3.5 -3.5,4 -1.59375,-0.5 -1,-3 2,-7.5 3.59375,-11.5938 1.5,-2.5 -1,-4.5937 -5.59375,-2 -8.8125,-3 -9.6875,1.0937 -7.71875,-2.5937 3.125,-3.5 4.09375,-5.5 -4.09375,-6.5938 -4.71875,-3.5 5.71875,-5.5 5.59375,3 4.59375,3 3.59375,1 2.59375,-3.5 3.625,-3.5 2.5,0.4063 3.09375,3.5937 5.09375,3 7.1875,-0.5 7.71875,-4.5937 15.40625,1 7.1875,4 7.1875,-0.5 5.625,-6 4.09375,-5.125 -1.59375,-6.5 -3.625,-7 3.21875,-6.8438 -665.2188,0 z m 700.375,0 -0.375,2.75 -1,3 0,5 -1.59375,4.5937 -1.5,3.5 -3.09375,3.5 -2.5,2.5 -2.09375,5.125 -0.5,2 1.59375,1 2,0 3.59375,0.5 3.59375,-1.5 4.125,-4.625 3.59375,-4 4.59375,-3 7.1875,-5.0937 7.625,-7 L 936,2252 l 8.6875,-3 0.40625,-0.1562 -41.53125,0 z m -15.25,10.25 -3.625,2.5937 -1.5,2 -2,2 -2.59375,3.5 -1.5,3 0,4.625 1.5,2 1,1 2.59375,0 2.625,-3 2,-4.125 2.09375,-4 1.5,-7 -1.59375,-2.0937 -0.5,-0.5 z"
     id="rect14"
     inkscape:connector-curvature="0" />
</svg>
