<?xml version="1.0" encoding="UTF-8" standalone="no"?>
<svg
   xmlns:dc="http://purl.org/dc/elements/1.1/"
   xmlns:cc="http://creativecommons.org/ns#"
   xmlns:rdf="http://www.w3.org/1999/02/22-rdf-syntax-ns#"
   xmlns:svg="http://www.w3.org/2000/svg"
   xmlns="http://www.w3.org/2000/svg"
   xmlns:sodipodi="http://sodipodi.sourceforge.net/DTD/sodipodi-0.dtd"
   xmlns:inkscape="http://www.inkscape.org/namespaces/inkscape"
   width="1138.5"
   height="697.96875"
   viewBox="0 0 1138.5 697.96875"
   id="svg2"
   version="1.1"
   inkscape:version="0.48.1 "
   sodipodi:docname="AJAX.svg">
  <metadata
     id="metadata20">
    <rdf:RDF>
      <cc:Work
         rdf:about="">
        <dc:format>image/svg+xml</dc:format>
        <dc:type
           rdf:resource="http://purl.org/dc/dcmitype/StillImage" />
      </cc:Work>
    </rdf:RDF>
  </metadata>
  <defs
     id="defs18">
    <clipPath
       id="clipPath1"
       clipPathUnits="userSpaceOnUse">
      <path
         inkscape:connector-curvature="0"
         id="path9"
         d="M 0,0 800,0 800,592 0,592 0,0 z" />
    </clipPath>
  </defs>
  <sodipodi:namedview
     pagecolor="#ffffff"
     bordercolor="#666666"
     borderopacity="1"
     objecttolerance="10"
     gridtolerance="10"
     guidetolerance="10"
     inkscape:pageopacity="0"
     inkscape:pageshadow="2"
     inkscape:window-width="1280"
     inkscape:window-height="1004"
     id="namedview16"
     showgrid="false"
     fit-margin-top="0"
     fit-margin-left="0"
     fit-margin-right="0"
     fit-margin-bottom="0"
     inkscape:zoom="0.55073647"
     inkscape:cx="763.53956"
     inkscape:cy="397.81493"
     inkscape:window-x="-8"
     inkscape:window-y="-8"
     inkscape:window-maximized="1"
     inkscape:current-layer="svg2" />
  <path
	 style="fill:#9FAEC0"
	 stroke="#9FAEC0"
	 stroke-width="10"
	 transform="translate(0, 125)"
     d="M 1036.4063,0 780.40625,0.125 628.375,0.34375 387.25,0.21875 278.8125,0.46875 0,0.15625 0.0312,58.5 l 0.0312,1.625 0.0625,6.9375 0,46.28125 1048.3125,0 -0.125,-1.9375 2.0625,-0.125 0,-2.25 -2.75,-0.5 0.75,-1.59375 0.6563,-1.5625 -2.8125,-1.5625 -0.2813,-1.75 1.5938,0.34375 1.625,-1.40625 -3.25,0 -0.875,-1.75 3.6562,-1.84375 -1.3125,-2.1875 2.125,-0.6875 0.031,-1.59375 -1.7812,-0.625 1.5312,-0.6875 1.4688,-2.0625 -1.4375,-1.65625 2.2812,-0.125 -0.7812,-1.71875 2.0937,0.25 -0.9062,-2.8125 2.5312,0.375 -0.9687,-2.75 1.5,-2.0625 1.0937,-1.6875 -0.2812,-1.6875 1.0937,-4.15625 -2.3437,-1 -1.75,-2.96875 0.125,-1.71875 -0.9375,-2.03125 -0.4063,-2.65625 -1.5937,-0.5 0.3125,-1.875 -0.5625,-1.90625 -2.0313,-0.6875 1.2813,-2.46875 -2.0625,-2.5 1.75,-1.28125 -1.75,-0.4375 0.094,-1.78125 -2.3438,-1 1.5938,-1.15625 -2.4063,-0.125 3.1875,-2.09375 -2.125,-0.28125 -1.3125,-1.71875 0.2813,-1.65625 -0.8125,-1.71875 1.5625,-0.9375 -0.2813,-1.53125 0.25,-1.9375 -0.75,-2.1875 -1.5625,-0.875 1.75,-2.03125 -1.875,-0.25 -1.0937,-2.40625 0.625,-2.53125 -2.9375,-2.40625 -1.0938,-3 0.8125,-2.15625 -1.9062,-1.75 -1.0625,-1.84375 0.9687,-3.40625 -1.7187,-0.96875 0.1562,-1.65625 0.031,-2.5625 1.6875,-1.8125 L 1036.406,0 z"
     id="rect4"
     inkscape:connector-curvature="0" />
  <path
	 style="fill:#9FAEC0"
	 stroke="#9FAEC0"
	 stroke-width="10"
	 transform="translate(0, 100)"
     d="m 0.125,113.34375 0,0.6875 0.3125,47 0,28.65625 0.28125,40.59375 1062.34375,0 0.031,-0.15625 -1.6562,-1.625 -0.4375,-2.71875 -0.8125,-2.1875 0.5312,-1.9375 -0.2812,-3.21875 -0.7813,-2.5 -1.7187,-1.25 -1.6563,-2.9375 -0.3437,-1.75 -0.3125,-2.34375 0.031,-1.53125 -1.4375,-2.3125 -1.875,-0.46875 0.4687,-1.59375 -1.3437,-4.125 0.4375,-1.90625 -3.0313,-0.15625 0.9688,-1.96875 2.25,-2.71875 -2.5,0.59375 -0.5313,-1.65625 0.9688,-1.65625 0.094,-1.71875 -1.7188,-0.8125 2.125,-2.5625 -0.7812,-1.6875 1.75,-0.90625 -1.5313,-1.90625 1.75,0.53125 1.5313,1.0625 -0.7813,-1.53125 -2.4375,-1.21875 -1.625,-0.28125 1.9063,-0.875 1.9375,-0.3125 -3.0938,-1.1875 1.6875,-1.25 -2,-1.25 1.7188,-1.125 1.5625,-0.125 -0.7188,-1.625 0.5625,-1.65625 -2.5625,-1.375 2,0.15625 1.5313,-1.625 0.3125,-1.5 -0.8125,-1.65625 -2.1563,-0.21875 1.4688,-1.65625 1.9687,0 -1.8125,-1.15625 -0.1562,-1.78125 -1.5625,-0.0312 0.8125,-1.625 2.5937,-1.09375 -2.0625,-0.96875 -1.6562,-0.375 1.6562,-0.6875 -0.094,-2.40625 -1.6875,-0.75 -0.4062,-1.71875 -1.8124,-2.1563 0.4375,-1.65625 2.3125,-0.46875 0.5937,-2.09375 -1.8437,0.1875 -1.8438,-1.15625 -0.1562,-2.25 2.8437,-1.375 1.1875,-1.8125 -1.1562,-1.84375 -1.625,1.3125 0.5937,-1.8125 1.9688,-0.0625 1.625,0.0625 -1.5625,-1.15625 -1.2188,-1.84375 2.6563,-0.5 -1.375,-1.78125 -2.3125,-0.0625 2.8437,-2.28125 -0.1875,-2.125 -1.9062,-0.0937 -0.2188,-2.4375 1.5,-0.6875 -3.7187,-0.8125 3,-1.40625 0.7187,-1.59375 -2.2187,-1.5 -0.031,-0.5 -1048.31255,0 z"
     id="rect6"
     inkscape:connector-curvature="0" />
  <path
	 style="fill:#9FAEC0"
	 stroke="#9FAEC0"
	 stroke-width="10"
	 transform="translate(0, 75)"
     d="m 0.71875,230.28125 0.0312,4.75 0.375,24.21875 -0.28125,25.65625 -0.21875,62.28125 1091.93755,0 0.3437,-1.0625 -1.625,1 0.6875,-1.625 1.6563,-0.53125 -0.6875,-1.625 0.4687,-1.84375 0.25,-1.84375 L 1094.5,338 l -2.625,-0.6875 -1.1563,-1.65625 1.5625,-0.46875 -0.2187,-2.71875 2.0937,-0.3125 -1.7812,-0.75 1.5937,-1.65625 -1.5625,-1.6875 1.5625,-1.375 -2.9062,-0.0937 1.5937,-0.0312 -0.3125,-1.78125 1.0938,-1.96875 -0.7188,-2.46875 0.1875,-1.6875 -0.031,-2 -1.8125,-0.96875 -1.625,-1 0.6563,-1.65625 -1.0938,-1.625 0.031,-2.03125 -0.6562,-2.3125 0.1875,-2.53125 0.031,-2.25 -1.625,-1 -0.4688,-1.53125 -1.2187,-2.1875 -2.0313,-1.6875 0.5313,-1.5625 -1.6563,-1.28125 1.0313,-1.59375 -0.625,-1.96875 -1.1563,-2.28125 0.5313,-2.375 -1.375,-2.375 -0.1563,-1.71875 -1.125,-1.53125 -1.875,-1.25 -0.6562,-1.53125 -0.2188,-1.875 -1.75,-0.5 -0.8125,-1.5625 -1.5,-0.8125 1.75,-1.5625 0.7188,-1.625 -0.9375,-1.6875 -0.7188,-1.71875 -1.8437,-1.09375 0.125,-1.5625 -0.125,-2.375 -1.0938,-2.5 -2.6562,-1.125 -0.125,-1.65625 0.7812,-1.84375 -0.9062,-1.59375 0.9062,-1.875 0.2813,-1.5625 -0.1563,-1.6875 -2.9687,-2.96875 0.125,-1.5 -1.7813,-0.5625 -1.0937,-1.84375 0.4687,-1.65625 -1.4375,-1.65625 0.4063,-2.40625 0.9062,-3.3125 -1062.34375,0 z"
     id="rect8"
     inkscape:connector-curvature="0" />
  <path
	 style="fill:#9FAEC0"
	 stroke="#9FAEC0"
	 stroke-width="10"
	 transform="translate(0, 50)"
     d="m 0.625,347.1875 -0.0937,33.375 0.0937,63.75 -0.0937,19.8125 1101.3125,0 0.4375,-0.5625 -2.2187,0.46875 -1.7813,-2.0625 -0.1875,-2.96875 -0.2812,-1.6875 -0.4375,-1.90625 -1.625,-1 0.625,-1.53125 0.6875,-2 2.2187,-0.65625 -1.4063,-2.125 1.75,-1.125 -1.5312,0.40625 -0.5625,-1.90625 1.3125,-1.59375 -1.9063,-1.96875 1.5938,-0.1875 -0.5313,-1.65625 -0.4375,-1.71875 0.9688,-1.84375 0.375,-1.6875 -0.5625,-2.03125 -0.1563,-1.8125 0.125,-1.5625 -2.0625,-1.8125 1.5625,-0.78125 -0.2812,-1.78125 -0.3438,-2.59375 -1.1562,-1.5625 0.875,-1.75 0.8125,-1.5 0.031,-2.375 0.125,-1.8125 -1.7813,0.25 1.4375,-1.53125 -2.8125,-0.46875 2.25,-2.46875 -0.094,-1.6875 -0.375,-1.71875 -1.5312,-0.8125 1.7812,-0.875 -1.5,-1.46875 1.625,-0.75 -1.9687,-0.75 1.75,-1.625 -1.875,-0.96875 1.0937,-1.6875 -1.125,-1.5625 1.5313,-0.15625 -1.5625,-0.59375 0.7187,-1.5625 -0.5625,-4 2,-2.9375 -1.875,-0.65625 -0.5937,-1.59375 1.5312,-1.6875 0.3438,-1.75 -1.7188,0.21875 1.75,-0.625 -0.9062,-1.875 -1.0313,-1.53125 1.5,-1.78125 -2.2812,-0.90625 -0.75,-2.15625 2,0.21875 -0.2813,-1.53125 -0.625,-1.5625 1.8125,-0.375 -0.9062,-2.03125 0.75,-1.65625 -2.0625,-1.53125 1.625,-1.28125 -2.25,0.46875 -0.625,-1.8125 -1.6563,-0.3125 2.6563,-1.5 -1.5625,-0.5625 1.0625,-2.25 -0.2813,-1.78125 0.7813,-2 0,-1.6875 -1,-2.40625 0.2812,-0.9375 -1091.9375,0 z"
     id="rect10"
     inkscape:connector-curvature="0" />
  <path
	 style="fill:#9FAEC0"
	 stroke="#9FAEC0"
	 stroke-width="10"
	 transform="translate(0, 25)"
     d="M 0.53125,464.125 0.375,493.5625 0.5625,551.75 l -0.0937,29.28125 1113.25,0 1.1563,-1.1875 -1.375,-2.21875 1.0312,-1.625 -1.875,-0.90625 -0.8438,-1.53125 -0.125,-2.21875 -1.4062,-1.65625 1.2187,-1.59375 -0.4687,-1.6875 0,-1.6875 -0.6875,-1.71875 0.5937,-2.25 -1.8125,-0.34375 1.7188,-0.5625 -1.5938,-1.4375 0.1875,-2.46875 0.094,-1.625 0.125,-1.84375 -1.6562,-0.5 1.5625,-0.96875 -1.5625,-1.09375 0.2187,-1.9375 -2.3437,-0.1875 -0.75,-2.125 -0.2188,-1.90625 0.3438,-1.6875 -1.7813,-0.59375 0.4063,-1.71875 -2.0625,0.40625 1.125,-2.0625 -0.5,-1.78125 -0.75,-1.75 0.2187,-1.78125 0.5938,-1.65625 0.25,-1.65625 -0.4063,-1.53125 1.5313,-0.9375 -0.031,-1.59375 -0.9688,-2.125 1.1563,-1.75 -1.1563,-1.71875 1.8438,-1.75 -0.25,-1.65625 0.031,-1.8125 -0.375,-1.59375 -1.0313,-1.78125 1.8125,-1.125 -1.7812,-1 2.0312,-0.40625 -1.9687,-0.78125 0.8125,-1.59375 -1.9688,0.28125 0.094,-2.9375 -0.875,-1.625 0.625,-1.71875 -0.7187,-1.59375 0.375,-1.84375 1.2812,-1.875 1.7188,0.46875 -0.625,-1.71875 -0.4063,-1.75 1.8438,0.15625 -0.8438,-1.6875 0.6875,-1.53125 -1.2187,-1.65625 0.2812,-2.0625 0.3125,-2.125 1.7813,0.125 -0.9375,-2.0625 -0.3125,-1.59375 0.4687,-1.8125 1.5313,-1.34375 0.3437,-2.3125 0.6563,-2.03125 -0.9688,-1.5 -2.5937,1.5625 -1.75,-0.0625 0.2812,-2.09375 -1.2187,-1.5625 -0.094,-1.5 -0.7813,-1.59375 0.875,-1.1875 -1101.3125,0 z"
     id="rect12"
     inkscape:connector-curvature="0" />
  <path
	 style="fill:#9FAEC0"
	 stroke="#9FAEC0"
	 stroke-width="10"
     d="m 0.46875,581.03125 -0.0625,15.09375 0.125,59 -0.21875,28.4375 0.1875,12.5 267.53125,0.0937 2.34375,0 127.59375,0.25 107.71875,-0.0625 145.9375,0.75 108.40625,0.1875 87.84375,0.6875 289.5625,0 -0.1562,-3.0625 -0.8438,-3 -0.3125,-3.09375 -0.5312,-7.03125 0.25,-1.9375 -0.5625,-2.4375 0.5312,-2.125 2.0313,-4.28125 0.6562,-2.15625 -0.062,-2.9375 -0.031,-2.28125 0,-1.78125 -0.094,-1.59375 -1.0625,-1.9375 -0.25,-1.9375 -0.5312,-2.0625 -0.1563,-1.875 -0.5625,-1.625 -0.5312,-2.125 0.1562,-2.1875 -1,-1.78125 0.5,-1.53125 -1.8125,0.5 0.9688,-1.5 -0.6563,-1.96875 0.9063,-1.625 -0.6875,-1.6875 0.094,-1.8125 -1.125,-1.5625 -0.2813,-2.0625 -0.031,-2.15625 0.625,-1.65625 1.5313,-0.96875 -1.7813,-0.8125 -0.75,-1.90625 0.4375,-1.875 0.1875,-1.8125 -0.8437,-1.84375 -0.5938,-1.75 0.3125,-2 0.7813,-1.9375 -0.4063,-1.9375 0.2813,-2.40625 -1.5625,-1.40625 -1.625,-0.90625 0.5625,-1.625 -1.9375,-1.59375 -2.4063,0.84375 -0.5937,-2.84375 -1.7188,-1.9375 -0.9687,-1.875 -0.2188,-1.78125 -0.6562,-1.75 -2.5,-2.625 -0.375,-1.6875 -1.5313,-0.1875 1.25,-1.59375 -1.7187,0.9375 -0.1563,-2.46875 -0.7187,-1.5625 -1.75,-0.9375 1.5937,-1.53125 -1.5937,-0.53125 0.3125,-0.3125 -1113.25005,0 z"
     id="rect14"
     inkscape:connector-curvature="0" />
</svg>
