<?xml version="1.0" encoding="UTF-8" standalone="no"?>
<svg
   xmlns:dc="http://purl.org/dc/elements/1.1/"
   xmlns:cc="http://creativecommons.org/ns#"
   xmlns:rdf="http://www.w3.org/1999/02/22-rdf-syntax-ns#"
   xmlns:svg="http://www.w3.org/2000/svg"
   xmlns="http://www.w3.org/2000/svg"
   xmlns:sodipodi="http://sodipodi.sourceforge.net/DTD/sodipodi-0.dtd"
   xmlns:inkscape="http://www.inkscape.org/namespaces/inkscape"
   width="3675.4062"
   height="3995.1875"
   viewBox="0 0 3675.4062 3995.1875"
   id="svg2"
   version="1.1"
   inkscape:version="0.48.1 "
   sodipodi:docname="AJAX.svg">
  <metadata
     id="metadata20">
    <rdf:RDF>
      <cc:Work
         rdf:about="">
        <dc:format>image/svg+xml</dc:format>
        <dc:type
           rdf:resource="http://purl.org/dc/dcmitype/StillImage" />
      </cc:Work>
    </rdf:RDF>
  </metadata>
  <defs
     id="defs18" />
  <sodipodi:namedview
     pagecolor="#ffffff"
     bordercolor="#666666"
     borderopacity="1"
     objecttolerance="10"
     gridtolerance="10"
     guidetolerance="10"
     inkscape:pageopacity="0"
     inkscape:pageshadow="2"
     inkscape:window-width="1280"
     inkscape:window-height="1004"
     id="namedview16"
     showgrid="false"
     fit-margin-top="0"
     fit-margin-left="0"
     fit-margin-right="0"
     fit-margin-bottom="0"
     inkscape:zoom="0.13768412"
     inkscape:cx="2466.3981"
     inkscape:cy="2161.5364"
     inkscape:window-x="-8"
     inkscape:window-y="-8"
     inkscape:window-maximized="1"
     inkscape:current-layer="svg2" />
  <path
	 style="fill:#9FAEC0"
	 stroke="#9FAEC0"
	 stroke-width="10"
	 transform="translate(0, 125)"
     d="m 3637,0 -5.0938,1.59375 -7.0937,4.09375 -6.7188,3 -1.5,2.625 -11.6875,3.59375 -6.2187,1.5 L 3588.5,20.5 3572.6875,26.59375 3565,30.1875 l -7.5938,4.125 -10.2187,5.59375 -6.6875,1.59375 -13.8125,3.09375 -9.0938,4 -5.6875,2.09375 -9.7187,5.625 -6.5938,2.09375 -10.6875,4.59375 -6.2187,2 -6.5938,3.59375 -7.0937,2 -3.0938,0.59375 -6.7187,1 -8.0938,0.5 -5.6875,1.125 -1.5,1 -2.5,2.5 -3.0937,1.59375 -3.125,2 -2.5,1.5 -2.0938,0.5 -2.5,0.59375 -2.5937,1 -2.5,1 -2.0938,-1 -2,-2 -2.0937,0 -8.2188,2.09375 -3.5,2.5 -4.0937,5.09375 -6.0938,4.125 -4.5937,2 -4.125,1 -5.0938,2.09375 -4.0937,2 -4.0938,1 -4.0937,2.09375 -6.125,4.09375 -3.5,2 -5.0938,2.5 -5.6875,2.59375 -8.7187,3.625 -8.5938,4.59375 -6.6875,3.5 -4.0937,1.09375 -5.625,1.5 -6.5938,2 -7.6875,1.09375 -5.5937,1 -9.2188,1.59375 -6.6875,1.5 -5.5937,2.125 -10.2188,2.59375 -2.5937,0.5 -3.5,1 -6.1875,1.59375 -8.2188,1.5 -8.5937,6.59375 -6.6875,2.59375 -16.3125,5.625 -14.3125,7.6875 -12.2813,5.09375 -9.5937,5.09375 -7.2188,3.5 -6.5937,3.125 -7.1875,3.5 -9.2188,3.59375 -13.2812,7.6875 -16.8125,10.09375 -7.5938,5.125 -9.2187,5.09375 L 3087,228 l -4.0938,0.5 -8.5937,5.59375 -6.7188,4.59375 -9.6875,5.625 -6.0937,3.5 -6.625,3.09375 -6.6875,2.5 -12.6875,4.59375 -4.625,0.59375 -4.0938,0 -4.5937,-2 -3.0938,-1.5 -3.5937,1 -5.125,3.59375 -5.5938,4.5 -9.1875,5.625 -12.2187,8.6875 -7.1875,4.5 -4.0938,3.59375 -4.5937,2.5 -11.2188,6.59375 -4.5937,1.625 -2.5938,1.5 -3.5,2.5 -5.5937,3.59375 -7.2188,6.09375 -4.5937,4.5 -4.5,3.59375 -3.5938,4 -5.0937,4.59375 -2.625,2.5 -4.5,4.125 -4.0938,4.09375 -6.0937,5 -6.1875,6.09375 -4.5,4.09375 -5.125,6 -7.1875,9.09375 -6.5938,9.21875 -8.5937,12.09375 -5.625,6.59375 -5.5938,5 -2.5937,2.59375 -8.1875,5.125 -9.125,5 -8.6875,4.09375 -6.6875,3.09375 -4,5.5 -5.625,5.59375 -6.6875,6.09375 -5.5938,6.125 -4.0937,5 -6.125,6.09375 L 2760,465 l -4.0938,4.59375 -5.5937,4.5 -5.625,5.09375 -4.0938,4.125 -6.0937,6.5 -5.0938,2.59375 -11.2187,9.09375 -14.2813,12.1875 -6.5937,5.125 -6.2188,3.5 -5.5937,3.09375 -6.5938,3 -4.5937,3.59375 -6.125,4.5 -6.6875,5.09375 -5.5938,3.09375 -5.0937,6 -6.625,3.625 -11.7813,6.09375 -0.5,0 -8.2187,3 -16.375,-3.90625 -10.2188,-3 -8.6875,-1.5 -6.2187,-1 -13.2813,2.59375 -8.7187,2.09375 -8.6875,4.125 -6.0938,0 -6.0937,3.5 -10.8125,1.09375 -6.5938,0.5 -8.2187,-0.40625 -28.1875,-3.5 -14.3125,-2.90625 -6.6875,-2.5 -6.1875,-1.5 -10.2188,-5 -7.6875,-4.5 -0.5,-0.5 -11.3125,-4.5 -10.2812,-4 -7.625,-2 -7.1875,-0.90625 -11.3125,3 -9.1875,4.125 -9.1875,2.09375 -13.3125,5.59375 -12.1875,4 -21.5,5.6875 -14.3125,4.125 -13.3125,5.59375 -9.6875,5 -6.6875,3.09375 -6.125,2.5 -2.5938,1.09375 -2.5,1 -2.0937,0.5 -1,1.5 -3.5938,0.5 -3.5937,0 -1,1 -2.5,3.59375 -5.125,3.5 -9.1875,5.625 -7.6875,6.09375 -6.625,5.09375 -8.6875,5 -6.0938,5.09375 -5.7187,2.5 -14.2813,7.71875 -7.5937,0 -5.2188,0.5 -6.0937,-0.5 -7.6875,1.09375 -19.9063,0 -11.8125,0.59375 -7.1875,1 -4.5937,1.09375 -1,0 -2.125,0.5 -5.5938,2 -7.6875,1.5 -4.5937,3.09375 -7.625,4 -6.0938,3.625 -6.1875,3.5 -9.2187,5.09375 L 2065,663 l -3.4688,1.84375 1592.8125,0 -3.4375,-122.75 L 3650.5,532 l -0.4063,-11.3125 -0.5,-16.875 -0.1875,-3 0,-7.125 -3.3125,-144.1875 -1.2812,-49 -1.2188,-43.3125 -3.4062,-114.59375 -1.5,-42.78125 L 3637,0 z m -2441.0938,294.6875 -6.4062,3.5 -4.0938,2.625 -3.0938,1.5 -5.125,0 -0.5,-2 0.5,-1.5 0,-1 -0.375,-2.21875 -235,8.8125 -11.3124,0.40625 -2.5938,0.0937 -38.7188,1 -46.6874,1.1875 -41.5938,1.40625 -53.4062,1.59375 -116.9063,1.90625 -185,1.6875 -30.5,0.3125 -82.4063,1.09375 -111.5937,1.3125 -36.4063,0.5 -109.1874,3.09375 -3.3126,151 -0.5937,32.8125 -0.094,5.78125 -2.4063,109.90625 -0.9375,45.34375 1883.1562,0 -16.4062,-10.9375 -5.5938,-2.5 -9.2187,-6 -5.6875,-7.09375 -6.2188,-5 -6.0937,-5 -7.1875,-8 -8.2188,-4.5 -5.6874,-5.625 -6.0938,-6.5 -5.7188,-5 -10.2812,-11.59375 -4.5938,-5 -3.625,-5 -2.5937,-4.09375 -3.0937,-3 -6.5938,-3 -3.5938,3.09375 1,5.5 8.7813,3 8.2187,13.09375 4.5938,2 4.0938,4.5 5.6874,4.5 3.625,3 3.0938,3.5 3,4.125 3.0938,5 3.5937,4 4.0937,1.5 3.625,2.5 2.5938,2.5 3.0938,3 3.0937,3.59375 2.5,2.5 4.0937,3 3.125,2.5 2.0938,3 -1.5938,2.5 -4.125,-2 -2.5,-1 -2.0937,-1.5 -2.5,-1.5 -4.0937,-2.5 -5.1876,-3.5 -3.625,-3 -3.5937,-2 -3,-0.5 -3.0937,0.5 -1.5938,-7.5 -2.5,1 -2.0938,-3.5 1,-2.09375 1,-4 -1,-2 -3.125,1.5 -3.5,0 -1.0937,1 -1,2.09375 -3.5937,-0.5 -8.1876,0 -3,-2 3.5,-1.5 1.5938,0 5.5938,-2.09375 2.5937,-2 -0.094,-3 -9.1876,1 -12.3124,-1 -5.0938,-3.5 -4.0938,-4 -3.625,0 -5.0937,2.09375 -4.0937,2 -5.0938,3 -3.5938,2.09375 1,-10.59375 -3.125,0 -3.5,15.09375 -2,0.5 -3.0937,-1.5 -1.5937,-0.5 -2.5,0.5 -4.0938,2.09375 -6.7188,2 -5.0937,-0.5 -3.5937,-1 -1,-0.5 -5.0938,-4.5 -5.2188,-5 -3.0937,-7.59375 -3.5,-2 -5.1875,-4 -5.0938,0 -5.625,-5 -4.5937,3 -3.0937,-1 -5.1876,-5 -3,0.5 -0.5,5.09375 0,10.59375 -5.125,7 -7.0937,4.125 -6.1875,5.59375 -8.0938,4 -8.2187,-1 -6.1875,1.59375 -4.5938,-1.5 -4.125,4 -5.5937,2.5 -9.1875,7.59375 -11.2188,7.59375 -7.1874,2.625 -7.6876,-0.5 -3,-0.5 -6.7187,-4 -5.6875,-3.5 -4.0938,-6.125 -2.5,-4.5 -3.125,-4.5 -1.5937,-5 0,-3.09375 -4.5937,-5.5 -2.5938,0 -4.5938,1.5 -3.625,2.59375 0.125,2.5 2,2 0.5,2.5 1.0938,2 4.5938,0 1,2 -0.5,2 -2.5938,3.625 -1.5,1 -3.5938,1 -3,-0.5 -2.625,-2 -2.5937,-1.5 -4.0937,3.5 -0.5,3.09375 -0.5,3 -1.5,0 -1.5938,-6.5 1.5938,-3.09375 3,-2.5 2.0937,-3.5 -0.5937,-1 -0.5,-1.625 -2.5,0.625 -5.6876,-1 -2.5,-2 -3.125,-4.125 -5.0937,-1.5 -3.5937,0.625 -4.0938,1 -8.7188,3.5 -3.5937,1 -2.5,-0.90625 -4.0937,-1.59375 -4.0938,1.09375 -2.0938,-0.5 -2,-0.5 -3.125,-2 -0.5,-2 0,-2.59375 1,-2 4.125,-2 6.0938,0 7.6875,-1.125 9.2187,-2.5 5.5938,-1 0.5,3 4.0938,-0.5 4.5937,-2.09375 2.0937,-2 3,-1.5 3.625,3 4.0938,2.5 4.0938,-0.5 0.5,-2 1.0937,-2.5 2,-1.59375 2.5937,-1.5 3.5,-1 4.125,2.5 1.5938,0.5 2.5,-7.59375 4.0938,-5 -0.5,-3.5 2.5,-4.59375 1,-2.5 3.5937,-3 7.2187,1.375 7.0938,1.5 4.6875,0.5 5.0937,-1 5.125,-1.5 7.1876,1 5.5937,-0.59375 8.2187,0.5 7.6876,0 7.5937,-1 7.2187,-1.59375 6.6876,-3.5 5.0937,-1.59375 1.5,-3 3.5937,-1.5 3.5,-1 4.7188,-1.09375 7.6875,7.09375 6.5937,5.5 3.125,-1.5 2.5,-8.09375 3.0938,-3.5 2.5,-1.625 4.0938,-1 9.1874,-1 4.625,-1.5 5.1876,0.90625 5.5937,0 6.7187,4 5.5938,-2 3.0938,-2.5 5.0937,-5.09375 4.0937,-0.5 4.125,1 4,-0.5 4.0938,-0.5 4.0938,0.40625 5.6874,0.5 2.5,3 0.125,4.59375 1,3 2.5938,4 3.5938,3 2,-4.5 -2.5938,-8.59375 -1.5,-3.5 -2.0938,-3.5 -1.625,-3.5 -1,-2.59375 2.125,-2.5 3.5,-4.5 1.5,-3.125 0,-7.5 0.5,-2.5 -0.5,-2.09375 -1.5,-2.5 -1.625,-1.5 -2,-1 -2.5937,-1 -3.5937,-0.5 -4.5938,0.59375 -8.2188,-1 -6.0937,-1.5 -6.6875,-0.5 -7.0938,2.5 -3.125,1.625 -5.5937,1 -7.6875,0.5 -4.0938,4.59375 -9.7187,2.5 -6.6875,2.09375 -6.5938,0.5 -2.625,0 -1,-3 0,-2.5 1,-2.09375 1.5,-1 4.125,-2.5 5.6876,0.5 8.0937,-2.59375 2.0937,-3 -3.5937,-4.5 -1.5937,-3.125 -0.5,-2 -3.5938,-3.5 -1,-3.5 -4.0938,-4 -5.125,2 -1.5937,3 -3,4.125 -1.5937,2 -2,3.5 -1.5,4.09375 0.5,1.5 -1,5 -3.0938,4.09375 -3.5,2 -2.5938,3 -4.125,2.09375 -2,1.5 -3.5937,3 -5.5937,1 -4.5938,2.59375 -9.2188,4 -1.5937,0 -1.5,-1 0,-2 1.5,-2 4.5937,-3 5.625,-1.59375 6.6876,-2.5 3.5937,-5.09375 3.5,-2.5 4.5937,-4.5 3.125,-7.59375 2,-3.09375 3.0938,-6 5.5938,-10.125 5.0937,-1 1.5,-2.09375 -3.0937,-3.5 -2,-4 -1.5938,-2.5 -2.5938,-5.09375 -2.5,-3.5 -0.625,-3.5 -4.5937,1.5 -4.5937,-0.5 -4.0938,1.59375 -2.5,1.5 -3.5938,3.5 -2,4.09375 -0.5,5.5 3.5938,1.5 -0.5,2.5 -1,5.625 0.5,1.5 2,2.5 0.5938,2 0,1.5 -2.5938,3.59375 -0.5,5 -1,3 -1.5,2.09375 -2.0938,3.5 -0.5,2.5 -2.5,1.5 -4.125,4.09375 -2.5,4.5 -4.0937,4.09375 -6.6875,4 -4.5938,2.625 -5.125,3 -3.0937,-0.5 -5.5937,2.09375 -5.0938,1.5 -7.2188,0.5 -11.1874,-1 -4.5938,-2.5 -3.5938,-2 -5.7187,-1.5 -6.5937,-2 -4.5938,-1 -3.5938,-2 -0.5,-0.5 -2.625,-1.5 -5.5937,-3.5 -3.0937,-2 -1,-0.5 -1.5938,-0.5 -3.0938,-1.5 -3.5,-2 -3.625,-2.5 -1.5937,-1 -5.5937,-4.5 -6.6876,-4.5 -12.8124,-11.09375 -6.1876,-6 -5.625,-7.125 -6.6874,-11 -4.0938,-4.09375 -1.0938,-3 -2,-3.5 -1.625,-4 -3.5937,-4.09375 -5.0937,-6 -5.6876,-3.5 -10.2187,-5.5 -8.1875,-4.5 -9.8125,-3.5 -7.5937,-1 -4.0938,-0.5 -16.9062,-2 -8.8126,-3 -2.5,-0.90625 -5.6874,-1.59375 -8.6876,-1.5 -6.625,-2.5 -5.0937,-3 -0.5937,-0.5 -2,-1 -4.0938,-2 -1,-0.5 -4.7188,-2 -2.5,-1.5 -2.0937,2 -3.5,1.09375 -5.1875,-0.5 -4.5938,-1.5 0,-3.59375 2.5938,-4 0,-2 -5.2188,-4.5 -5.0937,-4.59375 -6.6875,-4.5 -2.5,-1.5 -8.2188,-6 -4.6874,-3 -4.5938,-2.5 -3.0938,-2.09375 -0.5,0.0937 -3,-3.09375 -3.625,-2 -2.5937,-2.5 -2.5937,-1.5 -9.6876,-2 -4.625,0 -1.5,1 -2.0937,1.59375 -4.0937,-1 -3.5938,-2 0,-1.59375 0.5,-1.5 1.5938,-2 2,-1 6.1874,2.5 4.625,-0.5 1.5,-1.5 0,-1.5 -13.9062,-11.125 -3,-3 -3.0938,-2.5 -2.125,-1.5 -2,-1.5 -2.0937,-0.5 -1.5,-0.5 -0.5,1 0,4 -0.5,3.5 -2.5937,4.625 -6.5938,5 -3.0938,1.59375 -4.625,1.5 -6.0937,0.5 -9.1875,-1 -8.7188,-3 -6.6874,-1.5 -5.5938,-0.5 -5.0938,0.59375 -6.2187,1 -7.5937,0 -5.6876,-1 -3.125,-2 -5.0937,-4.5 -1,-1 -0.5,-1.5 -1.5937,-2.09375 -1.5,-1 -21,-12.5 2.5,-6.59375 5.5937,-3 3.0937,-0.5 3.625,-3.125 1.6876,-8 -8.5938,0 z m 534.5938,7 -5.6876,1 0.094,4 -4.0938,5.125 -0.5,6 2,1.09375 1.0938,-0.0937 4.0938,-1 4,-1 1.5937,1.5 1.5,3 2.0937,1.5 3.625,-3 0,-2.5 -1.125,-9.625 -2.5937,-4 -6.0937,-2 z m 29.3124,29.625 -3.125,1.59375 -4.5937,1.5 -6.1875,1 -13.2188,6.09375 -4.0937,6.09375 -3.0937,4.5 4.5937,3.5 3.5937,0.5 1.125,1 1,1.5 0.5,4.59375 3.0938,-1 1.5,-5.59375 0.5,-1 -0.5,-6.09375 3.5,-4.5 5.6875,-1 6.5937,-1.59375 6.7188,-4 2,-4.09375 -3.0938,-2.5 -2.5,-0.5 z m -6.125,38.375 -2.5,0.5 -2.0937,0 -5.5937,0.5 -3.5938,2 -1.5,4.125 -2,2.5 -5.7188,2 -2,0.0937 -3.0937,-0.5 -0.5,-4.59375 -3.5937,-5 -1,4.5 -3.5938,5.59375 -4.0938,2 -1,3 0.5938,8.59375 1.5,3 -1.5,3.59375 -1,8 4.5938,2.59375 10.1874,-9.6875 5.625,-7 6.1876,-0.59375 1.5,-2 1.5,-1.5 5.5937,-6.09375 3.0937,-4.5 3,-4.625 1,-6.5 z m 67.8126,47.625 -5.0938,2.09375 -4.5938,2 -3.625,5.59375 0.5,5.5 -3.5,4.09375 -3.5937,2.5 0.5,3 1,2.5 3.5937,2.5 5.125,0.5 4.0938,-0.5 3.5938,2.5 4.0937,4 7.2187,5.09375 4.5938,-0.59375 5.0938,-4.5 4.0937,-3.59375 1.5,-3.5 3.5937,-3.5 -1,-3.09375 -2.0937,-4 3.0937,-5 1.5,-6.09375 1.5,-6 -1.5,1 -2.0937,1.5 -1,1.5 -4.0937,1 -1.5,2.5 -0.5,3.09375 -4.5938,1 -3.0938,-2.5 -4.625,-2.5 -0.5,-5.59375 -2.0937,-1 -5.5937,-1.5 z"
     id="rect4"
     inkscape:connector-curvature="0" />
  <path
	 style="fill:#9FAEC0"
	 stroke="#9FAEC0"
	 stroke-width="10"
	 transform="translate(0, 100)"
     d="m 68.1562,664.84375 -0.9688,47.96875 -0.375,33.09375 -0.7187,46.78125 -0.1875,18.40625 0,1 -5,265.81255 -0.5,27 -1.0938,74.2812 -0.2187,3.8125 -0.1875,12.5938 -2.875,135.5937 3616.25,0 -0.375,-19 -1.5937,-62.875 -1.4063,-51.5 -0.4062,-16.7187 -1.8125,-71.4063 -4.5,-164.28125 -0.1875,-7.09375 -0.1875,-4.71875 -0.7188,-24 L 3659.5,848.1875 3655.5937,709 l -1.25,-44.15625 -1592.8125,0 -10.8437,5.75 -10.6875,6.09375 -6.1876,2.5 -11.2187,5.125 -25.5937,2.59375 -7.1876,-2 -8.7187,-3.5 -9.1875,-5.5 -11.8125,-6 -1.5937,-1 -7.0938,-4 -0.094,-0.0625 -1883.1562,0 z"
     id="rect6"
     inkscape:connector-curvature="0" />
  <path
	 style="fill:#9FAEC0"
	 stroke="#9FAEC0"
	 stroke-width="10"
	 transform="translate(0, 75)"
     d="m 56.0312,1331.1875 -1.3438,63.4063 -0.7812,25.5 -0.094,5.7187 -4.2187,141.7813 -7.2813,243 -1.5,48 -4.3437,138.9687 3510.8125,0 0.3125,-0.4687 2.9063,-4.0937 3,-5.0938 2.9062,-4.2188 2.9063,-4.0937 1.375,-4.5937 1.4062,-5.5938 0.8125,-4 0.5,-6.0938 0.094,-1.5 0.5937,-4.625 1.9063,-6.5937 0.9062,-3.5937 0.9063,-3.5 1.375,-5 0.9062,-3.0938 0.4063,-0.7188 2.5,-4.5 2.5,-4.0937 6,-5.1875 6,-2.7188 4.5,-3.5937 4,-2.7813 4,-3.9062 0.8125,-1.0938 1.7812,-2.8125 1,-5.1875 0,-5.125 -0.5937,-4.6875 -0.3125,-1.5 -0.6875,-3.3125 0.5,-2.1875 0.6875,-2.5937 1.9062,-4.5938 3.5,-6.8125 0.5938,-1.1875 2.7187,-5.3125 1.1875,-2.3125 1,-2.2812 1.5938,-6.5 0.9062,-5.5938 -0.5937,-5.3125 -0.4063,-3.1875 -1.0937,-2 -1.5,-4.125 -1.5938,-3 -2,-4 -2.0937,-3.375 -1,-4.2187 -0.5,-4 0.6875,-5.7813 1.4062,-5.625 1.4063,-4.6875 0.375,-2.9062 -0.5,-3.5938 -0.094,-0.9062 -0.5937,-3 -1.9063,-4.1875 -2.0937,-1.9063 -0.3125,-0.4062 -3.2813,-2.0938 -0.4062,-0.3125 -2.5938,-1.375 -4.0937,-2.9062 -3.125,-2 -1.5938,-2.5 -0.1875,-1.0938 0,-1.3125 0.4063,-1 0.5,-1 2.5,-2.5937 4,-3.2188 3.5,-3.0937 1.2812,-1.4063 1.3125,-1.5 0.4063,-1.6875 0.1875,-1.1875 0.4062,-3.125 -0.5937,-5.5937 -1.125,-8.5 0.125,-2.1875 0.1875,-2.5938 0.3125,-6.625 0.5,-2.7812 0.375,-2 2.625,-7 3,-6.5938 3,-7 2.5937,-7.625 1,-6.1875 -0.094,-5.9062 -0.4062,-0.9063 -1.0938,-2.5937 -0.625,-4 -2,-4.5938 -2.0937,-4 -4.0938,-5 -2.4062,-3.5 -2.5938,-4.3125 -4.3125,-7.2812 -2.5,-9.0938 -1.5937,-4.5 -1.5938,-5 -0.6875,-4 -0.4061,-2.7187 -0.5,-2.2813 -1.5937,-3 -2.5,-4.4062 -0.8125,-1 -1.4063,-2 -2,-3.2188 -2.4062,-4.5937 -1.5938,-4.5 -2.6875,-5 -3.2187,-4 -10.5,-9.1875 -3.875,-4.2188 -2.125,-5.6875 -0.375,-3.4062 0.2812,-3 0.3125,-2.1875 1.9063,-3.9063 0.375,-0.5 1.625,-2.1875 4.5,-4.2187 3.0937,-3.2813 2.7813,-3.4062 3.9062,-4.7188 2,-3.5 1.2188,-1.5 1.7812,-2.1875 4.2188,-3.8125 2.1875,-1.6875 4.0937,-2.9062 3.8125,-1.6875 4.6875,-1.9063 3.0938,-1.5 5.125,-1.5937 3.5937,0.5 3.5938,0.9062 4.0937,3.5938 2.5938,2.4062 3.625,3.0938 3.375,1 2.7187,0 2.0938,-1.2188 2.3125,-1.5 4,-2.5937 4.375,-4.4063 4.125,-2.875 5,-3.8125 6.5937,-2.6875 8.5938,-2.2187 8.0937,-4.2813 2.3125,-1.2187 -0.094,-5.6875 -0.5,-26.2188 -0.125,-7.875 -2.4062,-116.625 -3616.2501,0 z"
     id="rect8"
     inkscape:connector-curvature="0" />
  <path
	 style="fill:#9FAEC0"
	 stroke="#9FAEC0"
	 stroke-width="10"
	 transform="translate(0, 50)"
     d="m 36.4687,1997.5625 -0.375,12.0313 -3.2813,43.2187 -0.7187,9.5938 -4.5937,133.7812 -1.9063,61.9063 -0.9063,37 -5.5,211.0937 -3.8124,157.7188 3300.8437,0 4.7813,-4.3125 4,-3.5937 6.8125,-5.6876 5.1875,-5 1.5,-1.5 3,-3.125 1.9062,-1.375 3.5938,-2.625 4.0937,-3.375 4.5938,-2.2187 3.5,-1.0937 1.5,0 4,-0.094 5.7187,-0.2188 4.0938,0.4063 3.5937,0.5 4.5938,0.2187 4.125,-0.625 5,-2.6874 4.5,-4.6876 2.5,-4.125 2.375,-4.7812 1,-2.5938 2.125,-8.125 1.875,-10.0937 0.5,-4 0.5,-6 0.5,-5.4063 -0.094,-0.875 -0.4063,-4.8124 -0.5,-5 -0.5,-5.4063 0.5,-4.5 0.4063,-4.1875 0.3125,-1.9062 0.5,-2 1.1875,-3.1876 2.5937,-2.5 2.625,-2.125 3,-1.5 3.5938,-1.1874 5.1875,-2.3126 4,-2.0937 0.7187,-0.7813 2.375,-2.7187 2.5,-3.5937 1,-5 -0.5937,-3.8126 -1.5938,-2.7812 -1.1875,-2.3125 -0.9062,-1.6875 -3.4063,-5.5 -3.0937,-4.3125 -1.5938,-2.2813 -1.625,-2.2187 -2.5,-3.2813 -2.5937,-2.9062 -0.5,-0.5938 -3.0938,-3.4062 -3.6875,-3.7188 -4,-4.2812 -2.2187,-4.9062 -1.7813,-3.9063 -0.625,-6.0937 0.9063,-3.6876 2.5,-5.125 0.5,-0.5 2.8125,-3 4,-4.1874 6.5,-4.9063 7.1875,-6.0937 3,-2.4063 1.8125,-1.6875 3.9062,-4.7188 2.5938,-5.375 1.4062,-5 0.2813,-2.7187 0.2187,-2.9063 0.5,-5.1874 -0.5,-3.0938 -1.125,-6.3125 -0.5937,-2.9063 -0.4063,-2.0937 -1.0937,-5 -1.0938,-4.6875 0.094,-4.9062 0.4063,-1.8126 0.6875,-2.375 2.125,-2 2.2812,-1.9062 1.0938,-0.5 5.2187,-3.2188 3,-1.7812 6.5938,-4.0938 4.0937,-4.125 2.5938,-2.5 2,-2.5 2.125,-3.875 0.2812,-3.7187 -0.5937,-4 -0.3125,-1.7813 -0.5,-1.7187 -1.5938,-3.5937 -3.0937,-4.3126 -3.0938,-3.6874 -1.5,-2.8126 -0.8125,-1.875 -2.6875,-5.5 -1.8125,-5.8124 -1,-4.0938 0.5938,-4.0938 2.125,-4 0.5937,-0.4062 3,-1.3125 5.5938,-1.2813 3.5937,0.5 3.5938,0.875 3,1.9063 3.3125,1.9063 1.3125,0.8124 4.5937,2.5 4.5,1.875 2.5,0 3.0938,-0.5937 1.3125,-0.9063 1.2812,-1.0937 1.3125,-3.6875 0.2813,-5 -0.094,-0.8125 -1,-3.6875 -1.6875,-4.5 -2.9063,-6.9062 -2.1875,-6.9063 -1.4062,-5.5937 -0.3125,-2 -0.094,-2.5938 1.4063,-5 2.9062,-4.7188 5.5,-5.0937 4.1875,-2.9063 2.8125,-3.5 2,-2.0937 1.875,-4.5 0.9063,-4.5937 0.094,-2 0,-3.4063 -0.5,-6.0937 -1.0937,-6.5 -0.2813,-2.3126 -0.8125,-5.2812 -1.0937,-9 0,-7.0938 0.2812,-2.2187 0.2188,-1.7813 0.5937,-5.625 0.1875,-0.7812 1.2188,-4.2188 0.5,-1.5 2,-6.0937 0.4062,-1.0937 0.5,-1.6876 0.6875,-2.2187 0.5,-3.1875 0.4063,-3.0938 0.094,-1 0,-3.3124 -0.094,-5 -0.5,-4 -1.0938,-3.6876 -1.625,-4.125 -1.875,-3.7812 -1.5,-4.0938 -0.625,-4 0.625,-2.9062 0.375,-1.5938 0.625,-1.625 1.6875,-3.5937 2.3125,-3.2813 0.375,-0.5 3.125,-3.625 3.0938,-3 4.5,-4.0937 0.9062,-0.7813 6,-6 1.875,-3.3124 1,-5.5 -0.094,-7.5938 0,-6.5938 -2.0938,-6 -0.5937,-7 0.4062,-3.625 0.2813,-2.1874 0.5937,-4.6876 0.7188,-4.625 0.9062,-5 0.7813,-3.375 0.8125,-1.7187 1,-4.5937 4.5937,-8.5 4.6875,-9.1876 4.0938,-6.25 -3510.8125,0 z"
     id="rect10"
     inkscape:connector-curvature="0" />
  <path
	 style="fill:#9FAEC0"
	 stroke="#9FAEC0"
	 stroke-width="10"
	 transform="translate(0, 25)"
     d="m 15.375,2663.9063 -0.4688,18.7812 -1.2188,42.3125 -0.2812,8.6875 -1.7188,58.3125 -2,61.9063 -2.375,51.1875 -0.8124,15.7186 -1.5938,52.7813 -2.7188,88.0937 -0.5937,39.4063 L 0,3194.1874 14,3191 l 15.9062,-7 0.9062,-0.5 2.5,-1.9063 4,-3.4063 3.6876,-5.2812 4.5937,-6.5 6.5937,-9.4062 6.7188,-4.6876 1.2812,-0.4062 4.625,-1.0938 0.5938,0.094 4.7812,1.2812 4.4063,2.3126 3.5937,2.3124 4.8126,3.375 4.5937,5.125 4.7187,5.5 7.1876,10.5 8.1874,12.0938 1.3126,1.6875 4.4062,5.9063 2.5938,2 3.5937,2.1874 2.5,1.3126 6.2187,1.5 3.5938,1 5.0938,2 4.4062,2.4062 9.4062,9.1875 5.0938,4.8125 12.2812,7.4062 6.7188,1.2813 14.0938,-1 3.8124,-1.4063 13.7813,-4.6874 7.9063,-3.5938 5.5937,-2.5938 7.8125,-8.7187 1.7812,-2.0937 7.3126,-3.3126 10.1874,3.8126 11.4063,4.1874 1,0.2188 11.5937,-2.5938 6.3126,-3.9062 1.5937,-1.2188 0.9063,-0.875 7.1874,-8.625 8.3126,-9.875 3.3124,-2.3124 3.2813,-2 3.0937,-0.6876 3.3126,-0.7187 0.5,0.094 5.9062,1.8126 1.5,1 11.1875,10.8124 2.9063,6.5938 1.9062,11.0938 0,1.6874 0.094,7 -0.5,15.625 0,2.5 1.5,6.5938 0.6874,1.5938 5.4063,10 15,8.5 8.8125,1 13.7812,0.9062 2.8126,0.5 20.6874,5.5 14.7188,7.4062 7.5,5.1876 7.6875,7 5.7187,8.0937 7.5,15.7187 0.6876,1.6876 1.6874,8.2812 1953.8438,0 1.4687,-3.5938 0.4063,-4.7812 0,-5.5 1,-5.5938 2,-4.5 3.0937,-4.625 3.5,-2 2.8125,-1.6874 0.875,-0.4063 1.9063,-0.1875 4.5937,-0.5 8.4063,0.6875 0.8125,0.094 5.7812,2.3127 4.7188,2.9061 4.5937,3.6875 2.8125,4.5937 2.375,7.5 1.625,6.5 2.5313,5.0938 189.75,0 0.3125,-0.7811 0.5,-2.8127 0.1875,-2.2812 0.5,-5 0,-1.2188 -0.094,-3.875 -1.1875,-6 -1.3125,-4.625 -2.6875,-3.875 -4.7187,-5.7187 -4.5,-4.7813 -1.7813,-1.625 -2.8125,-2.5 -5.6875,-5 -5.625,-4.5 -4.6875,-5.5 -3.5937,-7.5 -0.5938,-1.875 -2.2187,-6.125 -0.7813,-2.2812 -0.9062,-2.2188 -1.2188,-3.5937 0,-4.5 0.4063,-3.5 0.3125,-0.5 1.5937,-3 2,-1.0936 2.5938,0 2.8125,0.5 3.5937,1.5 1.8125,0.5936 2.2813,0.9064 5.7187,1.5 11.7813,-0.5939 6.0937,-2.0938 5.4063,-3.125 1.7187,-1.1873 2.5938,-2.1877 3.6875,-4.3123 0.5937,-1 2.3125,-4.3127 2.4063,-6 0.7812,-3.6873 0.4063,-2.4064 0.5,-4 0,-3.5936 -0.2813,-5.5 0,-2.9064 -0.125,-2.0936 -0.1875,-7 -0.1875,-6.0939 -0.125,-1.8125 -0.2812,-2.6875 -0.5938,-7.5 -2,-7.5938 -3.125,-8.625 -3.1875,-7.7812 -1.5,-5.2188 -0.3125,-2.2812 0,-1.5 0.3125,-4.5 0,-1.3125 0,-1.2813 2.0938,-3.2187 2.3125,-2.9063 2.5,-2.0937 3,-2.5936 2.4062,-2.0939 2.5938,-3.5938 1.4062,-4 1.0938,-3.625 2.1875,-4.5937 1.4062,-3.0936 2.5,-3.5939 2.5,-2.5938 3,-1.625 5.0938,-1.5 10.4062,-1 3,-1.0937 2.5,-1.0936 1.9063,-2.1877 0.4062,-1.7187 0.2813,-2.5 0.5,-4.1875 0,-4.4061 0.3125,-5.1877 -0.5938,-3.5 -1.3125,-4.4062 -1,-4.0938 -0.5,-3.9062 0.094,-1.5 0.5937,-2.5938 1.4063,-3.625 3.5,-5.5937 4.5,-4.4063 2,-1.875 2,-1.5 3.3125,-1.8123 3,-1.4064 9.1875,-2.5 6.8125,-1 8.5937,0.4064 2.6875,0.3123 1.4063,0.1877 3.0937,0.5936 4.125,1.4064 4.0938,0.9061 0.7812,0 3.3125,-0.4061 2.6875,-0.6877 1.9063,-0.4062 3.3125,-0.5 1.5937,0.2812 4.0938,0.625 5.4062,1 3.9063,1.7813 6.2812,3.3125 2.625,1 4.5938,1.2812 1.2812,0.3127 2.3125,0.3123 1.5938,-0.4062 2,-0.9061 2,-2.6877 0.4062,-2.4062 0.3125,-2.2188 0.2813,-3 0.094,-6.375 0.4062,-6.2187 0,-7.5 0.5,-7.0936 0.7188,-8 1.375,-7.0939 0.8125,-7 0.8125,-5.5938 -0.125,-4 0.4062,-4.125 0.3125,-1.5 1.0938,-5 0.6875,-1.875 1.125,-2.7187 2.5,-3.5936 3.375,-4.1876 3.5,-3.625 4.125,-2.6874 4.6875,-2 3,-1.3126 2.5937,-1.1874 4.4063,-2 4.5,-2.0939 9.5,-6.3125 2.3125,-1.4063 1.2812,-0.875 4.5938,-4 5.125,-5.125 4.1875,-5.6874 4.4062,-6.6876 1.5,-2.5 1.9063,-3.2187 2,-2.7813 2.7812,-3.3124 3.0938,-3.6876 5.125,-3.4062 4.5937,-2 4.5,-0.5 6.7813,0.4062 6.2187,2 1.5938,1 4.5,3 3.5937,3 3.5938,3.5 3.625,5 2.5,3.5938 0.5937,1.0939 3.2813,7.5 2.3125,6.9061 1.9062,5.5 0.2813,1 2.125,7.5939 2,5.8124 2.6875,5.6876 4.1875,5.1874 4.8125,4.4062 6.6875,2.4064 3.7187,0.9061 0.5,-0.094 3,-0.125 2.6875,-0.1873 6.2188,-2.0939 2.375,-0.8125 4.5,-1.9063 8.5,-6.7812 9.625,-5.8125 6.5,-4.1875 3.2812,-2.3125 3,-2 2.5938,-2.5 2.2187,-1.9063 1.9063,-1.6873 2.1875,-1.5 1.4062,-1 5.0938,-2.9064 3.5937,-1.6875 2.4063,-1.2188 1.5,-0.875 4,-3.125 1.6875,-1 1.8125,-1.0937 3.5937,-1.5936 3.7188,-0.5939 0.7812,-0.2188 3.5938,-1.5 5.5,-2 3.625,-1.1874 2.5937,-0.6876 7.6875,-0.2187 6.2188,1.8125 1.375,0.4062 2.125,0.2813 8.1875,0.5 3.5937,-2.0936 2.0938,-2 1.9062,-5 1.0938,-5.0939 1,-4.4061 0.625,-1.9064 1.875,-6.2813 1.5,-3 1.5,-1.625 3.3125,-3.375 0.8125,-0.8124 2.1875,-2.4063 4,-4.0937 5.5937,-8.4063 0.5,-0.5937 2.3125,-2.3126 1.5938,-1.5 2.3125,-1.6874 5.0937,-3.5 5.5938,-2.0938 6.0937,-2 5.2188,-0.5938 2.0937,-0.2187 5.5938,-0.7813 4.0937,-1 4,-1.625 3.3125,-2.5937 2.9063,-4.4063 4.0937,-7.5 1.2813,-2.5937 2.9062,-5.9063 0.8125,-1.1874 6.0938,-10.5938 5.8125,-11.8125 0.2812,-0.5 6.5938,-8.7813 2.9062,-3.9062 2.8125,-3.2188 5.2813,-6.2812 2.8125,-3.0938 8,-7.3124 4.9062,-5.1876 1,-1 4,-4.2187 4.4063,-6.6875 1.6875,-2.0938 3.0937,-3.625 4.0938,-3.5 2.125,-1.5937 8.375,-7.4063 4,-5.0937 5.4062,-5.9063 3.0938,-3.2812 11.2187,-11.0938 8.6875,-9.125 3.3125,-3.1874 5.4063,-4.9063 2.4062,-2.1875 -3300.8437,0 z"
     id="rect12"
     inkscape:connector-curvature="0" />
  <path
	 style="fill:#9FAEC0"
	 stroke="#9FAEC0"
	 stroke-width="10"
     d="m 446.1874,3330.2813 1.7188,8.5312 0.6875,3.375 0.5937,12.7188 4.8126,13.6875 24.1874,36.9063 7.625,11.6874 10.5938,18.3126 2.1875,3.8124 4.5937,17.2813 -0.094,6 -0.1875,3.3125 -1.5,34.9062 2.1875,11.2813 0.5,2.4063 0.9063,4.0937 3.1874,8.2187 1.125,1.5 5,5.5938 10.7813,7.4062 1.0937,0.5938 21.4063,6.2812 3.2187,0.9063 19.875,3.5937 29,10.625 36.5,13.375 21.5,0.625 3.5,0 2.3126,-0.4062 23.9062,-5.8125 21.5,-2.9063 13.4062,-4.0937 8.1876,-1 0.6874,-0.094 7.625,-0.9064 14.6876,4.9064 2.9062,2.1873 12.5938,9.4063 17.4062,6 6.6875,1.5 16.2187,3.7187 1.2813,0.2813 5.5937,1.4064 1.4063,0.5936 7.5,4.0937 1.9063,1.4063 0.6874,0.8125 7.3126,12.0939 0.3124,0.5936 1.1876,5 0.8124,3.5937 2.875,13.4063 0.8126,2.7187 3.5937,5 11.7187,8.6877 12.875,4.3123 12,3.875 5,4.2188 4.625,10.0939 0.5938,1.9061 0.7812,2.6875 3.3126,15.4064 2.0937,9 0.8125,1.5 5.0938,8.5 0.8124,1.0936 6.6876,4 4.4062,1.0937 19.4062,3.3127 12.2813,2 11.0937,7 9.125,5.6873 23.375,8.4063 2.5,0.5 6.7188,-0.4063 7.4062,-4.5937 5.1876,-5.6875 0.5937,-0.5 2.5,-5.5938 1.0937,-2.4062 0.625,-5.7188 0.375,-3.875 1,-10 2.5,-8.125 1.9063,-3.5 3,-5.1873 5.3125,-5.4064 8.7812,-3.6875 12.3126,-2.8125 13.5,-3.0936 0.8124,-0.1877 23.0938,-7.4062 13.4062,-4.4061 14.5,-1.4064 1.7813,0.094 1.3125,0.3126 14.1875,4.4062 5,3.6875 15,11.5 10,11.4063 4.0937,2.3124 2.5,1.375 13.625,2 0.5938,0.125 39.6875,6 7,1.375 9.3125,2.5 8.4062,2.3126 8.0938,4.1874 25.7812,17.8126 0.8126,0.6874 3.9062,8.625 3.6875,16.875 1.7187,7.9063 4.1876,5.8125 6.0937,4.5938 9.9063,3.1874 7.8124,-3.7812 8.1876,-8.9062 3.4062,-3.6876 5.0938,-5.625 2.5,-3 7.6874,-4.5937 8.2188,-5 6.1875,0 5.3125,0.9063 0.4062,0.094 12.6876,7 7.3124,3.9063 5.7813,1.3124 4.7187,0.5938 1,0 1.0938,-0.094 25.2812,-3.4062 11.2188,-1.5938 1.5938,-0.4062 2.4062,-1.3125 9,-6.7813 5.5,-7 1.0938,-1.625 6.0937,-16.0937 2.7187,-7.0937 8.5,-15 0.5938,-0.6876 8.9062,-6.4062 2.1876,-1 13.9062,-6.5 1,-0.5 20.4062,-9.5938 8,-7.8124 0.6876,-1 10.3124,-20.5 5.5938,-5.1876 13.7812,-6.625 1.3126,0.125 15.6874,2.6876 14.9063,2.5 7.5,-2.5938 1.7187,-0.7188 3.5938,-2.5 13.9062,-10.1874 2.875,-2 1.8126,-1 13.5,-5.9063 27.8124,-7.7813 5.6876,1.5938 2.5,0.9062 2.3124,1.875 2.5,2.4063 2.375,2.7187 1,1.5938 4.125,10.5 0.375,6.1875 -3,12.2187 -0.2812,1.1876 -2,8.0937 -2.5,19.5937 -0.094,1.4063 2.0938,5.5937 0.9062,2.125 3.5,6 8.2813,14.5 1.2187,5.5 1.0938,5.5938 0.5,9 0.094,9.5938 0.5,10.5 0.5937,10.5937 0.5937,5 0.4063,3.0937 0.2187,0.9063 6.875,19.8125 0.3126,0.5938 8.1874,10.8124 6.125,4.875 6.6876,5.625 6.6874,4 0.625,-0.3124 19,10.1874 3,1.125 7.6876,2 12.3124,0 17.7813,-0.3124 5.2187,-0.094 13.7813,1.4062 3.5937,2.5 1.2188,0.7813 6.0938,5.0937 7.1874,4.5 6.7188,4.5 1.9062,2.2188 7.2813,11 1.3125,2.6875 7.9062,16.2187 8,8.7813 5.5,7.3125 1.0938,1.5 5.2812,7.0938 8.125,5.9062 8.6876,4.5 8.3124,4 5.5938,3.0938 4.6875,3.9062 6.0937,12.9062 1.7188,10.6876 3.0938,20.1874 4.6874,12.5 0.9063,2.7188 2.2187,3.5 4.1876,3.9062 3.6874,2.875 2.2188,1.2188 2.6875,1.4062 8.2187,3.375 5.875,1.2188 1.3126,0.2812 7.1874,0 9.3126,-1 8,-1.2812 10.4062,-3.4062 0.6875,-0.1876 8.7187,-3 4,-2.125 1,-0.5 5.0938,-2.6874 4,-2.0938 6.1875,-2 4.5937,-1.5 5.125,-1.5938 6.5,-1.625 12.5,-3.5 11.5,-3.375 3.875,-1.125 7.7188,-3.6874 4.0937,-1.5938 2.4063,-1 2.5937,-1.0938 1.0938,-0.625 2.5937,-0.6874 3.9063,-1 1.3125,0.094 3,0.4063 2,0.5 3.5937,1 2.5938,0.5 5.0937,1.5 2.625,0 4.0938,-0.6876 5.5937,-0.625 3.1875,-0.5 1.5,-0.2812 6,-1.5938 6.625,-1.7187 4.5938,-1.0937 5.5937,-1.1876 1.5938,-0.5 2.7187,-1.625 3.7813,-1.6874 4.4062,-3.3126 3.0938,-3 3,-4.5937 0.2187,-0.5937 1.375,-5.4063 0.625,-2.2813 0.5,-2.8124 0.875,-6 1,-4 1,-4.5938 1.7188,-3.2188 1.9062,-4.2812 1.375,-7.0938 0.8125,-5.3124 0.8125,-8.5 0.7813,-6.5938 0.4062,-5.5938 0.8125,-7 0.875,-5.3124 1.8125,-4.9063 1.9063,-5.0937 2,-7.5 0.4062,-3.0938 0.5,-5 0.5,-3 -0.5,-7.5938 0,-9.3124 0.094,-2.3126 0.5,-4.7812 1.4063,-4.2188 0.5,-1.5937 1.2812,-2.5937 2.8125,-3.4063 0.2813,-0.2813 2.4062,-2 3.5,-3.125 5.5,-4.6874 4.0938,-3.5 1.2187,-0.6876 2.6875,-1.125 4.0938,-0.5937 5.7187,-0.1875 1.5,0.2812 3.7813,0.7188 5.625,1.5938 6.0937,1.9062 6.7813,2 7.2187,1.0938 2.5,0.3124 7.1875,-1 0.7188,-0.125 5.5,-0.375 2.6875,-0.9062 3.3125,-1.5 2.5,-1.7188 1.6875,-1.5 2.5,-1.875 1.9062,-1.7187 4,-4.5937 2.4063,-4.5938 1.875,-6.9062 0.4062,-2.9063 0.7188,-4.5937 -0.625,-4.8126 -0.5938,-4.5937 -1.9062,-10.5 -3.2813,-7.4063 -0.3125,-0.875 -4.1875,-11.625 -3.4062,-11.5 -2.3125,-9 -0.375,-2 -0.7188,-4.5937 0,-1.0937 0.2188,-3.3126 0.875,-5.0937 2.4062,-6.0937 1.9063,-4.5938 0.9062,-4.5 0.1875,-8 -1.4062,-4.2188 -0.7813,-1.875 -1.5,-3.8124 -1.8125,-4.5938 -3.4062,-9.5 -1.1875,-5.5 -0.1875,-6 -0.125,-5.2188 -0.094,-3.875 -1.0938,-4 -1.9062,-4.125 -3.5938,-3.6874 -2.5937,-3 -3.0938,-1.4063 -2.5,-2 -3.125,-2 -0.875,-0.7813 -1.4062,-2 -1.0938,-2.5 -0.8125,-4.5 0.5,-5.625 0.3125,-5 1,-3.5 1.2813,-3.2812 4.5,-7 3.5937,-3.0938 5.125,-5 2.0938,-1.7187 1.6875,-1.0937 3.5,-2.6876 4,-1.625 0.5937,-0.2812 4,-1.7188 5.625,-2.5 0.5,-0.1874 4.6875,-1.9063 6.4063,-4.1875 4,-3.5938 4.4062,-4.8124 3.5938,-4.5 3.5,-6.0938 2.0937,-6.5938 1.4063,-8 0.7812,-8.2187 -0.1875,-5.5 -0.5937,-5.5 -1.5938,-5.5 -1.125,-4 -0.2812,-1.5 -0.7188,-6.5937 0.4063,-4.5 0.2187,-1.9063 0.375,-1.5937 2.125,-5 2.5,-4.0938 4,-3.8125 3.1875,-3.2813 3.3125,-4.4062 2.875,-6.0938 0.7188,-1.5 4.0937,-7.7187 3.3125,-6.4063 2,-4.0937 3,-7.0937 0.875,-1.8126 0.7188,-1.6874 1.0937,-3.5938 0.5,-1.3125 1.4063,-2.5937 0.5937,-1 1.9063,-4.5938 0.5,-1.3125 1.4062,-3.7813 0.375,-1.5 0.8125,-2 1.5938,-4.625 2,-3.875 2.0937,-2.7187 1.8125,-2.0937 1.0938,-0.8126 3.9062,-2.375 5.1875,-3.3124 4.9063,-2.5938 4.5937,-2.0938 0.4063,-0.3124 6.4062,-4.6876 3.8125,-4.3124 1.875,-2.1876 0.9063,-1.5 0.4375,-1.0312 -1953.8438,0 z m 2009.1563,0 0.062,0.125 0.9063,1.2812 2.375,2.9063 1.8125,1.0937 2,1 1.3125,0.4063 2.6875,0.2187 4.5937,-0.125 3.5938,-1.0937 0.8125,-0.2813 2.8125,-0.8124 2.375,-1.1876 2,-0.5 1.2187,0 3,-0.2187 1.1875,0.3125 2.4063,0.7812 3.8125,1.9063 2.0937,2.5 2.5938,3.8125 2.1875,5 1.3125,2.7812 1.0937,2 2.5938,5 3.125,5 2.5937,4.5 1,3 1,3.125 1.5938,5.0938 0.5,1.7812 5.5,9.4063 3.1875,6.8125 1.7187,4.5938 1,3.4062 -0.5,3.5 -1.5,3.5938 -3.0937,4.5 -3.625,4.5 -4.2813,5 -3.5,3.5937 -2.9062,3.0937 -1.0938,1.125 -1.4062,3.0938 -1.9063,3.5938 -0.6875,2.6874 0,1.5 0.2813,1.8126 1.625,3 2.0937,2.8124 1.0938,1.5938 6.9062,5.7812 2.0938,1.5 5.5,3.5 8.1875,3.625 5.125,0.5 3,0.2813 5.0937,-2.1875 0.4063,-0.3125 5.0937,-4.4063 1.6875,-1.1874 3.3125,-2.5 2.9063,-2.5938 1.5937,-1.5 4,-3.9062 0.4063,-0.3126 3.6875,-3.6874 1.9062,-2.4063 1.4063,-2.0937 3.375,-5.5938 1.5,-4 1,-6.0938 0.5,-5.5 0,-4.7187 0.5,-4.4063 0.125,-1.5937 0.5937,-3.0937 2,-4.5938 1.6875,-3 1.2188,-1.8125 3,-4 3.375,-3 3.8125,-2.1875 0.9062,0 2.5,-0.094 4.7813,0.7813 2.4062,1.0937 0.7188,0.4063 2.6875,1.5 2.9062,2.9063 4.1875,5.5 1,0.8124 2.5938,1.6876 4.125,3.5 4.0937,3 1.2813,0.8124 2.7187,1.1876 4.1875,1.4062 1,0.2812 2.0938,0.3126 4.125,0 0.5,-0.094 1.5,-0.8125 1.5937,-0.9063 1,-0.6874 2.5938,-3.0938 0.8125,-1.8125 0.375,-1.7813 -0.094,-3.125 -0.094,-1.2812 -1.0937,-3.5938 -2,-2.5 -2.8125,-3.9062 -2.0938,-2.9062 -3.6875,-4 -3.9062,-5.8126 -1.5,-4.0937 -1,-4.9063 0.5,-8.5937 1.9062,-6.0937 2.5938,-4.9063 0.5937,-1.0937 2,-3.9063 1.5938,-3.9063 2.9062,-4.5937 1.5938,-3.8125 -189.75,0 z"
     id="rect14"
     inkscape:connector-curvature="0" />
</svg>
