<?xml version="1.0" encoding="UTF-8" standalone="no"?>
<svg
   xmlns:dc="http://purl.org/dc/elements/1.1/"
   xmlns:cc="http://creativecommons.org/ns#"
   xmlns:rdf="http://www.w3.org/1999/02/22-rdf-syntax-ns#"
   xmlns:svg="http://www.w3.org/2000/svg"
   xmlns="http://www.w3.org/2000/svg"
   xmlns:sodipodi="http://sodipodi.sourceforge.net/DTD/sodipodi-0.dtd"
   xmlns:inkscape="http://www.inkscape.org/namespaces/inkscape"
   width="7729.8125"
   height="3826.1562"
   viewBox="0 0 7729.8125 3826.1562"
   id="svg2"
   version="1.1"
   inkscape:version="0.48.1 "
   sodipodi:docname="AJAX.svg">
  <metadata
     id="metadata20">
    <rdf:RDF>
      <cc:Work
         rdf:about="">
        <dc:format>image/svg+xml</dc:format>
        <dc:type
           rdf:resource="http://purl.org/dc/dcmitype/StillImage" />
      </cc:Work>
    </rdf:RDF>
  </metadata>
  <defs
     id="defs18" />
  <sodipodi:namedview
     pagecolor="#ffffff"
     bordercolor="#666666"
     borderopacity="1"
     objecttolerance="10"
     gridtolerance="10"
     guidetolerance="10"
     inkscape:pageopacity="0"
     inkscape:pageshadow="2"
     inkscape:window-width="1280"
     inkscape:window-height="1004"
     id="namedview16"
     showgrid="false"
     fit-margin-top="0"
     fit-margin-left="0"
     fit-margin-right="0"
     fit-margin-bottom="0"
     inkscape:zoom="0.13768412"
     inkscape:cx="5322.4337"
     inkscape:cy="1687.3712"
     inkscape:window-x="-8"
     inkscape:window-y="-8"
     inkscape:window-maximized="1"
     inkscape:current-layer="svg2" />
  <path
	 style="fill:#9FAEC0"
	 stroke="#9FAEC0"
	 stroke-width="10"
	 transform="translate(0, 125)"
     d="M 29.9062,0 26,72 15.8125,260.3125 l -5.4063,101 -5,91.78125 L 0,552 l 750.5938,38.09375 261.3124,8.09375 218.7813,10.125 478.7187,20 41.3126,1.59375 5756.625,0 -3.75,-106.40625 -2.6876,-76.59375 0,-0.90625 -4.3124,-106.6875 -7.7813,-259.125 -214,6.90625 -154.5,5 -0.4063,0.71875 -34.4062,0.78125 -292,5.5 -5.6875,0.21875 -104.125,2 0,0.6875 -221,4.59375 -14.5938,0.3125 -10.5937,0.1875 -113.4063,2.09375 -32.5,0.8125 -0.9062,0 -8.1875,0.1875 -23.0938,0.625 -84.0937,1.28125 -19.5,-0.0937 -106.7188,1.6875 -8.1875,0.3125 -31.3125,0.40625 -20.5,0.28125 -199.5937,2.625 -11.5938,0.0937 -2,0 -186.5,3.28125 -156.3125,1.625 -89.1875,0.78125 L 5239,124 l 0,-0.8125 -45.5,0.90625 -65.0938,0.0937 -124.7187,0.125 -45.5938,0 -65.0937,0.1875 -184.1875,0.0937 -53.125,0 -86,-0.0937 -138.0937,-0.3125 -55.7813,-0.1875 L 4186.5,123.0937 4169.5,123 4034,122.09375 3993.5938,121.8125 3588.8125,117 l -356,-4.59375 -45.5,-0.59375 -78.625,-1.21875 L 2698.4062,103.5 2697,103.4063 l -78.0938,-1.59375 -15.8124,-0.40625 -467.9063,-13 -276.0937,-8.8125 -8.5,-0.1875 -101,-2.3125 -178.6876,-5.09375 -245.7187,-7.5 -10,-0.3125 -322.7813,-10.78125 -62.3124,-2.3125 -35.5938,-1.5 -12.1875,-0.1875 -0.5,-0.0937 -251,-14.3125 L 607.4062,33.59385 570,31.40635 512.5938,28.0001 495,26.90635 472,25.8126 l -30,-1.5 -22.6875,-1 -100.5,-4.40625 -16.625,-1 -6.5,-0.40625 -70.1875,-6.6875 -4.5938,-0.5 -10.0937,-0.5 L 29.9062,10e-5 z"
     id="rect4"
     inkscape:connector-curvature="0" />
  <path
	 style="fill:#9FAEC0"
	 stroke="#9FAEC0"
	 stroke-width="10"
	 transform="translate(0, 100)"
     d="m 1750.7188,629.90625 82.5937,3.1875 52.375,1.59375 171.7187,5.21875 139.9063,4.6875 202,5 156.375,4.09375 127.2187,3.125 -3.7187,183 -0.375,23.78125 L 2676,1001.5 l -2.9062,150 -2.2813,117.6563 4945.0625,0 -10.6875,-66.6563 -4.1875,-25.6875 -17.8125,-103.2187 -4.375,-25.5 -6.9063,-40.2813 -2.2187,-12.90625 -4.5,-26.71875 -13.5,-79.375 -14.5,-78.8125 -29.5937,-173.3125 -0.25,-6.78125 -5756.625,0 z"
     id="rect6"
     inkscape:connector-curvature="0" />
  <path
	 style="fill:#9FAEC0"
	 stroke="#9FAEC0"
	 stroke-width="10"
	 transform="translate(0, 75)"
     d="m 2670.8125,1269.1563 0,0.1562 -1.8125,77.0938 -2,86 -3.5938,178.2812 -0.5937,22.5 -4.4063,182 -0.5,37.125 -1.375,56.0938 5060.375,0 -0.094,-21.2188 0.094,-6.6875 -1.5,-2.9063 -0.2187,-6.6874 1.5,-21.3126 -4.1875,-16 -19.5938,-106.0937 -0.2187,-1.5 -14.0937,-81.9063 -6.2813,-37 -3.625,-20.9062 -3.7813,-21.5 -11.8124,-68.375 -7.5938,-43.4062 -1,-6 -27.6875,-172 -0.9375,-5.75 -4945.0625,0 z"
     id="rect8"
     inkscape:connector-curvature="0" />
  <path
	 style="fill:#9FAEC0"
	 stroke="#9FAEC0"
	 stroke-width="10"
	 transform="translate(0, 50)"
     d="m 2656.5312,1908.4063 -2.125,87.4062 -0.7187,26.5938 -1.7813,72.6874 -0.4062,24 -3.4062,168.9063 -4.5,191.8125 -1.625,67.8438 5078.1874,0 -1.3437,-180.25 -1.9063,-459 -5060.375,0 z"
     id="rect10"
     inkscape:connector-curvature="0" />
  <path
	 style="fill:#9FAEC0"
	 stroke="#9FAEC0"
	 stroke-width="10"
	 transform="translate(0, 25)"
     d="m 2641.9688,2547.6563 -1.2813,54.0312 -4.875,209.125 L 2647,2809 l 7.9062,-2.4063 1.2813,-0.6874 7.3125,-4.2188 1.5938,-1 3.5937,-2.5 2.9063,-2.2812 6.3124,-5 1.1876,-1 5.5937,-2.5 0.7187,0.094 7.1876,1 3.3124,1 13.7813,6.8125 7.9063,8.2812 9.7187,10.2188 2.0937,1.0938 6.0938,3.4062 4.5,4.375 8.5,7.8125 5.5938,3.0937 4.5,3.0938 2.5,3.625 1.9062,3.5938 2,5.0937 1.9062,5.0937 4.5,6.9063 6.0938,6.6875 6.4062,6.4062 9.4063,11.3126 7.5,9.7812 6,8.125 4.5937,9.0938 5.5,11 0.4063,0.5937 34.875,34.3125 8.9063,10.0938 4.7187,3.0937 3.2813,1.6875 6.3124,3 2.1876,1.125 6.3124,2.875 5.6876,4.3125 0.4062,0.6875 1.8125,4.3125 2.5,5.8125 1.0937,2.1875 5.2813,7.8125 2.3125,2.6875 0.5938,0.8125 7.9062,3.875 1.5,0.5 6.5938,1.625 1,0.2812 4,0.5938 15.5,2 0.8124,0.2188 9.6876,1.6874 13.3124,0.5 3.2813,0.094 6.9063,1.5 0.7187,0.3125 2.875,1.0937 2.3125,0.4063 3.9062,0.5937 3.1876,0.2188 2.3124,0.094 4.1876,-0.2188 4.0937,-2.0938 4.8125,-2 7.5,-8.7812 2.0938,-4.7188 1.9062,-3.6874 0.1875,-1.5938 1.7187,-11.625 0.9063,-5.1875 0.5937,-1.3125 2.4063,-5.7812 0.5,-0.5938 3.7813,-1.125 0.8124,-0.1875 6.9063,-0.9063 6.375,1 1.2187,0.3126 8.2813,2.6874 1.125,-0.1874 9.5937,-1.4063 22.6876,5.4063 6.7187,3.2812 5.5937,5.7188 8.7813,5.9062 8.125,7.1875 4.5,2.6875 0,1 4.2813,1.8125 2.7187,1.8125 10.7813,5 7.7187,3.5 13.7813,3.6875 7.5,0.4063 10.2187,-0.8126 6,0.3126 5,-2.3126 3.2813,-3.6874 0.9062,-1 1.6875,-4.4063 1.5,-4.0937 1.4063,-3.0938 2.9062,-5.8125 2.6875,-5.3125 2.2187,-4.5 0.5,-0.875 0.5,-3.9062 -0.7187,-6.7188 -1.0937,-2.6875 -0.7813,-1.5937 -1.7187,-5.7188 -0.9063,-3.5938 -0.375,-6 1.1875,-9.0937 2.1875,-6 4.3125,-5.9063 5.6875,-4.1874 4.8125,-0.9063 0.5,0.4063 1.3125,1.0937 11.375,9.4063 0.5,0.4062 2.625,6 2.875,4.5 9.125,9.7812 13.6875,13.8126 3.3125,2.5937 1.6875,0.8125 5.1875,2.5938 1.125,-0.5 3.6875,0.5937 5.6875,0.5937 3,1.5938 0.7187,0.5 1.2813,1.125 1.5,2.5 1.625,1.6875 2.375,0.9063 3,0.5 1.7187,0.2812 3.5,1.4062 4.5938,1.5938 4.5,2.2188 3.5,2.5937 1.3125,1.8125 1.1875,3.2812 -0.5938,3.5 -1.0937,4 0,3.8126 1.2813,2.4062 3,3.5938 1.0937,0.2812 2.5,2.2188 4,3.5937 4.5,3.5937 6.5,6.2188 2,3.0938 1,2.5 0,1.5 -0.094,2.5937 1.5937,3.0937 1.9063,2.5 2.4062,3.0938 5.5938,3.625 4.5937,2.1875 3.5,2.5937 3,2.5 0.9063,2.2188 2,10.2812 4,6.4063 -2.0938,3.5 -4.5938,3.5937 -1,2.9063 2.5938,13.1875 -0.4062,3.5 0.5937,7.4062 1.125,2.5 1.5,1 0.875,1.5 4.2187,2 6.6876,2.5 1.3124,3 -3.0937,10.4063 -2,4.3125 -1,3.2812 2.2813,2.5 1.4062,1 0.4062,4.8126 -2.0937,9.5937 -0.625,1.9063 2.625,12 0.75,1.5 4350.9687,0 -3.625,-311.5938 -0.4062,-33.625 -0.094,-15.0938 0,-4.5 -0.094,-29.5937 0.094,-44.5937 0,-32.0938 -0.5937,-57.625 -0.2187,-26.1875 -0.094,-2 0,-2 -0.3125,-10.0937 0,-2.0938 2.3125,-20.9062 -0.3438,-47.25 -5078.1874,0 z"
     id="rect12"
     inkscape:connector-curvature="0" />
  <path
	 style="fill:#9FAEC0"
	 stroke="#9FAEC0"
	 stroke-width="10"
     d="m 3372.5625,3186.9063 0.25,0.5 -0.2187,5.6874 0.4062,6.3126 2.1875,5.2812 15.2187,4.2188 4.2813,1.0937 8.625,2.5937 4.2813,0.094 6.7187,-1.1875 7.875,-9.0937 6.9063,-1.5 3.7187,0.4062 1.5937,2.5938 -0.3124,3.0937 -4.0938,9.9063 6.0938,3.6874 9.0937,-2.1874 1.4063,-0.9063 1.5,0.5 6.2187,0.5937 4.375,-5.0937 5.2187,0.094 5.6876,1.0938 5.4062,-3.2812 6.5938,2.0937 6.7187,2.5937 5.1875,2 1.8125,4.4063 10.2813,3.1875 5.0937,-0.7812 2.4063,-3.9063 2.3124,-4.6875 1.7813,-0.625 12.7187,2.8125 6.0938,0.6875 3.3125,0.5 8.2813,-6.0938 -1.6876,-2.5 0.094,-2.6874 4.6875,-4.7188 7.3125,-3.7812 3.6875,0.5 3.4063,1.4062 3.5,3.2812 3.5937,11.4063 2.4063,3.9063 2.5,2.0937 2.9062,0.1875 1.9062,-0.5 2.7813,-2.1875 0.625,-2 -0.3125,-3.6875 0.094,-2.7188 2.0937,-2.0937 2,-0.4063 4.8125,0.9063 5.5938,4.8125 16.3124,16.5938 8.5,11.2812 10,6.625 12.5,4.0938 8.0938,6.2812 11.6875,1.4062 2.125,2.8126 -0.125,4.5937 -2.2813,5.5 0.7813,3.5937 5.125,3.4063 6.1875,0.6875 2.3125,-2.375 0.094,-5 0.4063,-4.9062 2.5,-0.8126 14.875,5.0938 2.2187,-0.1875 3.6876,-4.5937 1.5937,-0.5 22,7.0937 5.125,6 3.875,7.3125 2.5,0.5938 4.7187,-3.2188 2.1876,0.125 5.5937,5.5938 14.4063,5.5937 3.8124,2.5937 1.6876,8.2188 2.7187,1.1875 11.2813,-0.5 3.5,-0.8125 3,-9 2.2187,-1.5938 15.0937,-0.4062 3.7813,2 0.4063,3.3125 2.8124,0.094 6.5938,-4.5 2.5,0 6.8125,2.7188 3.2813,0.094 15.7187,-15.5938 13.6875,-10 8.3125,-7.9062 22.7813,7.6874 11.3124,0.2188 7.9063,-3.9062 2.375,0.094 5.7187,2.8125 7.6876,6.1875 7.7187,4 6.2813,5.4063 4.3124,8.5937 5.6876,3.4063 5.5937,-0.2188 3,1 0.5,2.5 -0.1875,2.5 -1.1875,2.125 -2.9063,0.5 -2.7187,-1.625 -1.5937,0 -1,1.9062 -0.2813,4.9063 1.5,1.9063 5,2.6874 6.375,1.7188 7.9063,1.5 3,5.375 0.5937,5.7188 5,10.4062 0.4063,0.5 15.8124,18.5938 4,2.2812 0,2.125 3,4.1875 3.7813,0.3125 3.625,0.5938 1.875,0.7812 1.9063,1.9062 2.0937,1.5 0.625,3.5938 1.1875,1.5 4.3125,0.125 8.375,-3.8125 3.4063,-3.5937 4.2187,-6.0938 4.7813,0.7812 4.3124,0.9063 5.7813,-1.5937 3.5,-6.5938 4.125,-4.2188 6.5,-1.7812 4.0937,0.094 2.7813,1.0937 3.125,1.6875 4.0937,-1.2812 2.4063,-1.0938 1.6875,-2.2188 2,-2.2812 1.3125,-3.8125 0,-2.4063 -1.125,-2.9062 0.125,-2.6875 0.6875,-0.9063 2.4062,-0.4062 3.5938,0.8125 3.3125,0.8125 1.5,-4.8125 0.094,-4.5 0.1876,-14.6875 0.094,-4.5 6,-3.7188 4.3125,0.3126 3.4062,0.094 2.4063,-2.3125 0.094,-2.6875 -0.9062,-2.1875 -0.1875,-4 3.2813,-7.4062 7.0937,-6.0938 3,-5.9062 10,0 21.625,5.9062 3.2813,2 4.8124,0.5938 3.2813,2.1874 3,3.9063 7.125,3.5937 4.2813,2 7.2187,5.2188 6.6875,0.875 4.5938,1.2188 13.3124,1.1874 10,1.7188 6.6876,-0.8125 8.2187,-1.6875 4.7813,-1.3125 6.5937,3 4.2187,2.5 5.6876,4 9,4.5937 4.7187,3 10.875,0.8126 2.4063,0 10.0937,0.7812 9.9063,2.125 4.4062,-2.3125 3.9062,-3.1875 5.2813,-3.7188 2.5,-2.7812 5,-8.125 3.4063,-4.6875 0.5,-2.3125 5.9062,-5.6875 3,-4.1875 4.9062,-4.7188 11.5,-3.0937 1,0.094 5.6876,1.5938 3.3124,3.9062 0.094,2.8126 1.1875,1 8.9063,13.0937 0.5937,13.8125 -5.2813,23.375 -17,14.8125 -4.9062,11 4.5938,12.4063 3.7187,4.6874 9.5937,10.4063 6,4.6875 8.6876,4.125 2.5,2.5 1.5,2.375 0.094,2.2188 -1.7813,2.9062 -2.5937,1.375 -2.3125,1.3125 -2.5,-0.3125 -2.0938,-2 -1.4062,-2.5938 -3.0938,-1.0937 -2.8124,-0.1875 -2.2813,1.5 -0.7187,3.0938 1.3124,2.5937 7.5,11.0937 5.1876,2.7188 5.8124,5.6875 1.9063,4.1875 -0.8125,2.625 -4.0938,1.1875 -0.7187,1 0.4063,2.1875 0.094,0.125 4.7187,2.0938 23.2813,6.7812 19.5,3.3125 6.7187,0.094 18.6876,-0.5 15.8124,-3.5 4.9063,-2.1874 9.5,0.1874 6.875,9.8126 6.2187,3.5 8.0938,-1.7188 3.3125,2 -4.2187,18.625 -2.6876,12 -6,10.375 -6.3124,4.125 -3.9063,3.2812 -0.094,3.8126 5.7187,3.5 9.5,3.1874 3.6875,4.9063 -0.8125,12.4063 -10.6875,6.5 -10,0.6874 -4.3125,1.3126 -3.1875,11 3.1875,6.2812 1.8125,3 2.6875,3.2188 5.8125,3.6874 4.8125,3 7.875,2.3126 6.125,0.5 5.875,0.5 9.4063,3.5 6.5937,2.6874 6.9063,4.9063 9.0937,6.4063 8.625,4.5 9.1875,4.9062 6.5938,2 8.5937,2.1875 6.3125,0.094 7.5938,-1.4062 1.0937,-0.1875 7.625,-2.1875 9.875,-3.125 7.8125,-5.875 1.3125,-1.3125 6.1875,-4.8125 14.5938,-9.5938 1.7187,-2 1.875,-5.9062 4.3125,-4.1875 4.3125,-2.0937 2.7813,0 1.7187,0.4062 3.0937,0 1.2813,-2.5 2.125,-5.2188 0.094,-5.0937 -1.7187,-5 -0.094,-3.3125 2.4062,-4.0938 3.5,-2.5937 5.5938,1.9063 1.2187,-0.3126 4.2813,0.094 4.7187,-5.6875 -2.8125,-13.0937 -0.8125,-3.4063 9.125,-2.8125 18.375,0.3125 4.8125,-3.3125 6.9062,-4.7812 9.4063,-11.9063 5.5,-11.5 4.5,-7.5937 0.6875,-1 6.0938,-9.5 7.7187,-6.2188 7.7813,-3.7812 8.7187,0.9062 10.1875,1 8.6875,2.0938 11.7188,4.6874 7,6 0.4062,0.5938 15.875,10 7.7188,12.625 8.7812,2.2812 -5.6875,37.7188 4.3125,12 5.875,9.5938 16.125,-0.3126 0.2813,0.094 6.0937,1 7.7188,-0.875 5.1875,-1.4062 7.8125,-3.3126 11.1875,-6.5 9,-4.0937 9.3125,-2.8125 2.2812,-0.375 5.9063,-0.9062 7.0937,0.094 7.2188,2.1875 9.5937,4.3125 9.4063,7.4063 7.0937,7.0937 2.4063,6.5937 1.4062,7.5938 0,8.625 -0.625,6.5 -2.375,7.0938 -0.2187,1 -2.6875,10 -2.2188,8.0937 0.2188,8 1.0937,6.5937 2.6875,5.0938 4,5.125 5.4063,3.0938 12.2187,4.1874 11.875,2.5 11.7188,-0.2812 20.5,-0.5 11.9062,-4.3125 5.7813,-4.9063 9.5937,-10.2812 4.7188,-7.5 2.6875,-8 2.0937,-7 0.625,-10.125 0.1875,-4 1.3125,-4 3.0938,-2.5 2.7812,0.5 0.8125,0.125 2.6875,2.5 0.5,4.6875 0.5,3.8125 0.4063,3.0938 2.2187,1.1874 2,0.094 3.5,-1.1875 2.5938,-3 3.9062,-5.6875 2.1875,-8.5 -0.1875,-3.4062 -0.125,-3.2188 -1,-3.5 1.625,-2.5 3.0938,-0.5 3.5,2.625 4.5,4.6875 3.7812,3.0937 1.2188,1.0938 7.7812,7.125 8.125,4.6875 8.875,2.3125 5.125,1.1875 4.5938,-0.9063 3.6875,-4.5 2.5,-7.4062 0.2187,-0.5938 2.875,-9 0.625,-7.5937 2.7813,-7.5 3.7187,-6.4063 6.5938,-6 6.1875,-3.9062 5.7187,-1.5 6.5938,1.125 6.9062,1.875 7.0938,3.2188 7,6.2812 4.9062,6.625 3.5,7.5938 2.5,7.0937 4.375,12.6875 3.7188,12.7188 2.5937,9 -0.094,5.2812 -2.0938,5 -4.3125,4.4062 -4,2.9063 -6.8125,3.1875 -4.6875,2.2188 -0.6875,0.5937 -3.5,2.8125 -4.2187,5.375 -3.1875,6 -0.7188,6 -0.094,5.625 0.4062,6.1875 1.8125,5.4063 3.5,4.6874 4.1875,5.5938 1.6875,3.625 1,3 -1.5,3.875 -1.875,5.2188 -0.125,6 2,4.5937 2.9063,4.0937 6,8.7188 6.5937,11.5938 9.2188,11.5 9,6.6874 9.0937,4.8126 9.6875,2.6874 11.2188,2.2188 9.7812,-1.7188 7.7188,-4.6874 6.9062,-6.5 5.0938,-6.9063 3.6875,-8 1.5937,-7.5937 0.625,-9.0938 -1.4062,-8.5 -3,-10.125 -2.5,-8.5938 -0.8125,-2.5937 -0.2813,-5.0937 -0.125,-2.5 -0.094,-1.5938 -0.4062,-7.625 1.7187,-5.5 4.6875,-4.875 8.0938,-4.4062 10.9062,-1.9063 8.4063,-2.0937 3.9062,-1.3126 1.6875,-0.5937 3.2188,-3 1.375,-4.3125 -1,-5.0938 -2.1875,-3.6874 -2.4063,-3.0938 -4,-1.4062 -3.6875,-1.0938 -6.5,-2 -6.0937,-1.125 -5.125,-0.094 -3.6875,-0.5 -2.5,-1.5937 -1.8125,-2.6875 -0.6875,-0.9062 0.1875,-4.5 3.125,-5 4.5937,-4.5 4.2813,-1.4063 5.125,-0.8125 4.0937,1.125 3.5,2.5938 3.9063,4.7812 3.5937,4.4062 4,4.8126 2.5,2.4062 3.0938,0.6875 4.0937,1.0937 6.0938,-0.9062 2.625,-1.5 4.5937,-3.5 4.2813,-4.1875 5.2187,-5.0937 6.9063,-9.9063 9.5,-11.4063 6.7812,-7.4062 4.9063,-8.375 1.6875,-7 0.4062,-1.5 -0.7812,-7.7188 -0.125,-0.9062 -0.6875,-6.6875 -2.1875,-6 -0.625,-1.5937 -5.6875,-16.3126 -1.5,-4.5 -1.8125,-12.1874 0.125,-4.5 1.375,-5.4063 1.4062,-1.5937 2.5,-1 2.5938,1.5937 1.7187,2.1875 1,4.5 2.5938,3.9062 3.5937,2.7188 4.5,2.1875 4.5,-1 4.2188,-2.5 5.2812,-3.8125 4.2188,-2.875 0.7812,-0.625 6.4063,-4.375 7,-4.8125 5.5,-1.8125 5.1875,-0.375 5.5,2.0938 3.8125,2.5937 3.5,4 3,4.5937 2,5.0938 1.4062,4.625 0.5938,3.6875 0.4062,4.5 0.7813,7.0937 0.125,0.8126 1.2812,5.7812 1,5 1,5.4062 2.9063,6.5938 5.4062,12.2188 0.5938,1.5 3.9062,10.1874 0.5938,1.3126 5.5,11.7812 4.6875,8.625 4.4062,6.1875 5.0938,4.1875 4.9062,0.9062 5.8125,-1.1874 3.6875,-2.9063 3.4063,-4.3125 3.4062,-4.6875 7.4063,-5.8125 8.375,-4.7812 7.7187,-0.9063 1.0938,0.094 5.5,1 6,1.5938 5.1875,1.5 5.4062,3.4062 5.3125,4.3126 2.6875,4.5 2.0938,5.5 2.2187,5.6874 1.6875,5.2188 1.7188,4.875 3.875,7.2188 3,4.0937 3.125,1.5 4.5937,1.0937 5,-0.9062 5.7813,-1 6,-1.1875 10.3125,-2.1875 10.9062,-1.2188 7.6875,-3 6.8125,-6.2812 3.5938,-5.125 3.4062,-7.2812 3.6875,-8 1.8125,-8.0938 0.1875,-4.2188 0.2188,-2.7812 0.5,-7.8125 0.094,-1.3125 1.1875,-12.5938 0.8125,-2.2812 3.4063,-10.5 3.7812,-7.9062 0.5,-1 4.5,-4.2188 4.5938,-0.875 7.125,1.1875 5.1875,3.0937 5.4062,5.2188 4.1875,4 6.5938,6.5938 3.7187,0.9062 18.7813,0.094 10.7187,0 8.6875,0.094 3,4.0937 0.5,4 -2.6875,5 -3.5,3.0938 -4.7187,4.125 -5.2813,4.7812 -0.4062,0.5 -5.4063,5.4063 -5.5937,5.5 -3.3125,4.9063 -1.875,3.5937 -0.4063,3.9063 2.4063,6.0937 3,4.0937 5,3.7188 5.0937,3.0938 5.5938,3.4062 4.5,2.6875 4.9062,4.5 4.1875,3.6875 7,3.5 5,1.7188 1.7188,0.5937 5.5,-0.6875 6.6875,-0.9062 8.9062,-1.0938 0.9063,-0.125 13.7812,-1 1.3125,0.9062 3.1875,2.2188 4.7188,4.2812 3.2812,4.5 1.9063,6.5938 1,6.625 1.1875,7.0938 1.4062,6.5937 1.9063,5 4,4.6875 4.6875,3.625 3.5,0 7.625,-0.625 5.5937,-0.5 8.7813,-2.7812 5.7187,-3.4063 7.2813,-1.3125 7.125,-0.375 7.6875,0.5938 9.5937,1.2812 9.2188,2.8125 2.7812,2.9063 4.2188,4.2812 3.2812,8.2188 2.8125,6.5937 6.0938,8.0937 0.5,0.5938 6.9062,9.2188 11,9.9062 3.0938,3 3.4062,3.1875 6.2813,8.5 3,13.0937 6.8125,18 4.6875,3.4063 10,1.3125 23.2187,-11.3125 10.0938,-21.8125 2.3125,-15.2812 -1.2188,-10.5938 6.3125,-21.9062 6.9063,-10.9063 14.375,-2.9063 18.5,8.2188 9.9062,4.5938 6.5938,5.5 7,6.5 6.7187,0.094 24.5,-5.5 11.0938,-3.5 12.1875,-12.0937 6.2187,-16.2188 2.1875,-13.2812 0.9063,-15.4063 -5.4063,3.6875 -3.4062,2.3125 -7.0938,-3.5937 -0.1875,-9.0938 8.1875,-5.5 9.5938,-1.2188 10.5,0.3126 -1.1875,-9.0938 -0.6875,-10.625 4,-4.1875 20,0.094 11.375,5.5938 5.2187,3.5 6.5938,0.2188 1.1875,-6.2188 -0.7813,-8.5938 -1.3125,-6.7812 13.4063,2.2812 33.6875,11.0938 13,-6.375 4.2187,-12.8125 3.4063,-3.1875 3.7812,1 1.8125,3.875 -1.5937,7.625 -0.125,3.875 1.9062,1 14.9063,-5.7812 8.4062,-8.9063 -0.8125,-8.5937 -5.6875,-1.2188 -3.2187,-4.375 2,-5.7188 7.7187,0.7188 9.4063,5.0938 0.094,14.4062 31.2812,-5.8125 8.2188,-5 5.5937,-12.3125 0.6875,-10.6875 -1.875,-1.5 0.2813,-2.0937 0.8125,-1.2188 2.2812,0.8125 4.7188,2.4063 11.5,3.6874 26.7812,18.5938 27.4063,13.7188 12.8125,12.9062 5,2.875 7.1875,0.7188 7.3125,-3.4063 3.4062,-5.9063 -2.125,-11 0.7188,-4.5 8.0937,-3.5 7.1875,-0.6874 12.9063,3.1874 6,7.5 10.7187,8.2188 4.1875,-2.125 9,-4.875 3.8125,-7.4062 -2.7187,-10.0938 -4.1875,-6.125 0.1875,-2.1875 -2.4063,-3.1875 -0.375,-7 3.1875,-7.625 5.1875,-4.2812 6.7188,-3.9063 5.6875,-0.3125 0.4062,0.125 0.1875,0 14.9063,4.6875 10.2187,7.9063 13.0938,-0.7188 9.5,-8.2812 7.1875,-10.4063 6.7187,-3.9063 8.0938,-3.6874 23.5,1.2812 3.9062,-1.6875 4.7813,-5.0937 3.5,-7.3126 11.2187,-3.6874 8,-6.0938 3.7813,-6.4062 2.3125,-9.5938 2.2812,0.094 7,6.4062 3.4063,1.1875 11.7187,2 5.0938,0.6875 0.5937,0.625 4.1875,0.875 6.125,11.4062 4,11 -1,8 -0.125,3.0938 -1.0937,5 0.5,4.625 2,4 2.4062,5.0938 2.5938,2.5937 4,1 4.7187,-0.9063 1,-0.7812 3.5,-1.4062 6.5937,-4.9063 6.7813,-9 4,-2.6875 3.9063,-0.625 2.5,4.3125 -1.5938,16.9063 2.3125,2.9062 11.5937,0.2812 13,-5.5937 4.7813,-4 7.7187,-4.6875 5,0.7812 1.9063,2.5 0.2813,4.5938 -0.4063,8 1.7187,1.8125 6.1876,0.5 7.3124,0.9063 25.0938,2.5937 18,-1.0937 16.3125,-1.8126 6.2813,-1.2812 24.0937,-4.4062 6.2187,-0.8126 2.2813,-5 -0.1875,-11 3.5,-1.9062 7.0938,1.8125 5.2187,5.0937 2.7813,1.5938 1.5937,1.625 4,3.1875 5,3 3.625,2.0937 6.5937,0.094 5.6876,-1.875 2.0937,-1.125 2.625,-2.6875 -0.2187,-3.5 -0.094,-4.1875 -0.1875,-3.9062 -1.7187,-4.9063 -2.5938,-5 2,-7.5937 2.4062,-2.9063 0.6876,-1.9063 1.0937,-3.5 0.9063,-0.2812 0.3124,-0.5 6.6876,-1.125 2.9062,4.625 0,9.2812 0.094,14.0938 2.8124,-0.5 4.5,-2.1875 3.7813,-4.1875 1.7187,-4 1.6876,-6 1.0937,-6 0.3125,-7 -1.3125,-5.7188 -1.0937,-4.4062 -0.9063,-5.5 -0.375,-4.1875 1,-3.9063 2.0937,-3.5 2.6876,-2.7812 4.5937,-4.7188 2.5,-3.4062 4.8125,-6.5938 0.5938,-3.5 2,-2.9062 3.5937,-1.375 6.2187,0.5938 9.1876,2.5 16.7187,5.1874 10.5937,4.8126 5.5,4.6874 2.0938,2.2188 1.4062,1.375 3.7813,2.4062 4.8125,0.8126 4.9062,-0.094 8.9063,-0.2188 11.7813,-0.5 8.9062,2.3126 4,5.5 1.0938,5.9062 -4.6876,12.5 -2.0937,6.0938 1.1875,1.5 10.1875,-0.4063 12.125,-7.8125 4.375,-5.7812 4.125,-2.8126 6.0937,-0.6874 3.9063,1.0937 1.1875,2.5 1,4.3125 -0.5938,4.6875 -7,5.5 -5.0937,3.5 -4.3125,4 -1.5938,0.6875 2.6876,8.8125 13.9062,6.4063 2.8125,1 5.0937,-1.9063 3.1876,-9.9063 -4,-7.5 -1.7813,-3.5 -0.3125,-2.1874 0.4062,-3 3.5938,2.7812 5.3125,1.4062 0.2813,0.2188 3.9062,0.375 0.6875,0.8125 0.625,1.5 1.2813,1.5 1.5,2.9063 0,5.5 -1.2813,9.0937 0.1875,5.4063 5.4062,4.0937 14.1876,8.3125 5.2187,7.1875 6.2813,2.0937 8.7187,-2.5937 4.875,-4.0937 2.7187,-1.0938 6.0938,1.1875 2.6875,3.0937 2.3125,3 1.9062,3.2188 0.094,0.5938 12.0938,1.5937 6,-9 3.7187,-0.5937 2.7813,3.5 2.9062,19.4062 -0.1875,3.7812 2,2.3126 9.5937,20.6874 1.6876,5.8126 4.2187,4.5 5,1.2812 5.7813,-1.2812 8.0937,-4.7188 0,-2.375 1.3125,-6.4062 -1.0938,-10.9063 3.9063,0.4063 2.5,1.5937 4.2813,4.0937 1.7187,2.2188 1.6875,4.0938 -2.5938,9.2812 -3.9062,7.8125 -2.8125,9.0937 3.8125,8.0938 6.1875,9.7188 4.3125,2.2812 4.6875,1.625 14.3125,7.2812 10.3125,5.8126 1.5937,7 -1.5,3.1874 6,6.3126 2.7813,2.2812 15.5,4.5 18.125,-0.7812 1.2813,-0.4063 0.9062,-1.0937 0.094,-2.5938 -0.7813,-2.625 -2.7187,-4.875 0.3124,-11.4062 3.5,-8.5938 4.6876,-0.625 5.4062,3.8125 8.9062,16.5937 0,6.7188 -0.5,2.375 1.6876,1.4062 3,1.8126 1.7187,0.6874 4,-1.7812 6.0937,-4.125 1.6876,-2.875 3.8124,-8.7188 4,-3.1874 4,-4.7188 4.1876,-2.7812 4.5937,0 7,3.6874 1.2187,6.3126 -0.8124,6.5 -10.5938,4.4062 -6.1875,2 -5.5,2.6875 -3.125,8.4063 12.125,4.7812 5.875,0.8125 5.125,-1.3125 3.5937,-4 5.5,-2.6875 3.5938,10.4063 -11.5938,10 0.6876,5.7812 1.9062,4.7188 3,2 7.4062,0.4062 6.9063,3.875 2.7813,9.625 4.4062,0.6875 6.8125,0 3.6875,-4.0937 0.9062,-3.7188 -0.5,-6.375 -4,-1.4062 -9.5,-5.7188 -1.3124,-6.2812 5.9062,-0.5 9.9062,3.5937 14.4063,8.0937 2.5937,3.7188 -2.3124,4.6875 -5.9063,1.5937 -3.0937,3.7188 0.4062,2.5 4.0938,3 19.7187,1.6875 10.375,-6.0937 5.3125,-2.8126 21,-10.2812 3.4062,-0.3125 5.1876,4.6875 -6,26.7188 -5,4 -6.6876,-4 -6,-1.3126 -4.2187,4 -1.5937,3 0.5937,3.8126 4.8125,3.9062 4.9062,0.875 4.5,-0.1875 14.5,-4.5 3.9063,-3.5937 2,-5.3126 1.1875,-4.0937 0.9062,-5.5937 1.9063,-1.9063 6.375,0.5937 4.9063,3.2188 2.5,4.5938 1.3124,5.6874 5.9063,6.3126 4.875,0.9062 5.3125,-2.5 2.3125,-2.2188 1.7813,-9.6874 -0.2813,-2.7188 -1.4063,-3.5 -1.0937,-4.1875 3.7813,-0.5937 8.5,8.5937 3.5,16.5937 -3.6876,6.9063 -5,4.3125 -2.0937,7.5 -0.125,1.5938 8.7187,-0.094 5,-3.7188 4.4063,-5.2812 8.375,-6.7188 6,-2.5 3.8125,0.094 3,0.125 1.4062,6.5 -1.3124,5.2812 -4.2813,5.0938 -5.7187,2.5 -6.4063,1.7188 -5,3.1874 -0.5937,8.7188 0.7187,3 7.0937,1 7.9063,-0.8125 5.7813,-4.4063 4.3124,-4.4062 3.0938,-3.6875 4.5938,-3.1875 5.3124,-1 8.1876,1.375 0.3124,4.9062 -5.8124,3.5938 -4.1876,2.5 -2.3124,3.4062 -1.2813,6.4063 0.7813,1.1563 25.5312,0 6.0625,-2.0626 3.9063,-2.5 4.2187,-2.9062 1.875,-1.7812 0.5,-3.0938 1.125,-11.7188 -1.125,-88.5937 -0.5937,-52.0937 -1.4063,-158.0938 -0.375,-33.625 0,-2.6875 -1.125,-116.1875 -1.5937,-157.5 -0.063,-6.4062 -4350.9687,0 z"
     id="rect14"
     inkscape:connector-curvature="0" />
</svg>
