<?xml version="1.0" encoding="UTF-8" standalone="no"?>
<svg
   xmlns:dc="http://purl.org/dc/elements/1.1/"
   xmlns:cc="http://creativecommons.org/ns#"
   xmlns:rdf="http://www.w3.org/1999/02/22-rdf-syntax-ns#"
   xmlns:svg="http://www.w3.org/2000/svg"
   xmlns="http://www.w3.org/2000/svg"
   xmlns:sodipodi="http://sodipodi.sourceforge.net/DTD/sodipodi-0.dtd"
   xmlns:inkscape="http://www.inkscape.org/namespaces/inkscape"
   width="6450.5"
   height="4810.4062"
   viewBox="0 0 6450.5 4810.4062"
   id="svg2"
   version="1.1"
   inkscape:version="0.48.1 "
   sodipodi:docname="AJAX.svg">
  <metadata
     id="metadata20">
    <rdf:RDF>
      <cc:Work
         rdf:about="">
        <dc:format>image/svg+xml</dc:format>
        <dc:type
           rdf:resource="http://purl.org/dc/dcmitype/StillImage" />
      </cc:Work>
    </rdf:RDF>
  </metadata>
  <defs
     id="defs18" />
  <sodipodi:namedview
     pagecolor="#ffffff"
     bordercolor="#666666"
     borderopacity="1"
     objecttolerance="10"
     gridtolerance="10"
     guidetolerance="10"
     inkscape:pageopacity="0"
     inkscape:pageshadow="2"
     inkscape:window-width="1280"
     inkscape:window-height="1004"
     id="namedview16"
     showgrid="false"
     fit-margin-top="0"
     fit-margin-left="0"
     fit-margin-right="0"
     fit-margin-bottom="0"
     inkscape:zoom="0.097357373"
     inkscape:cx="3240.8476"
     inkscape:cy="1983.7519"
     inkscape:window-x="-8"
     inkscape:window-y="-8"
     inkscape:window-maximized="1"
     inkscape:current-layer="svg2" />
  <path
	 style="fill:#9FAEC0"
	 stroke="#9FAEC0"
	 stroke-width="10"
	 transform="translate(0, 125)"
     d="m 581.4062,0 -1,0.5 -1,2 -2,0.59375 -2.0937,0.5 -0.5,2 1,3.09375 2.0937,4.5 5,3.625 6.5938,4.59375 4.5938,3 1,-2 -1.5,-1 -2,-1.59375 L 588,8.59375 585.5,3 l -1,-1 -2.0938,-1.5 -1,-0.5 z m 22.7813,21.40625 -2,0.5 -0.5,2.5 3.625,3.59375 4,2 5.0937,1 3.5,1 2.0938,-2.5 1,-1 1,-1.09375 -2,-2.5 -2.0938,-1 -3.5,-0.5 -3.5937,-1 -3.5,-0.5 -3.125,-0.5 z M 990.0938,37.5 l -2,1 -0.5,1.09375 -1,0.5 0,1.5 1.5,0 4.5,-0.5 3.0937,0 -0.5,-1.5 L 993.0938,38 l -3,-0.5 z m 4.5937,5.59375 -2.5937,0.5 0,1.09375 1.0937,1 3,1.5 2.5,1 2.125,1.5 -2.125,-0.5 -2,-1 -1.5,-0.5 0.5,1.5 11.7187,6.125 4.5,0 1,-1 -3,-3.125 -5.0937,-6.09375 -5.625,-1.5 -1.5,-0.5 -3,0 z M 947,51.40625 939.9062,56.5 l 1,2 12.6876,-1.59375 2,-1.5 -4.5,-4 -4.0938,0 z m 47.6875,0.90625 -1,2.5 0.5,3.59375 7.625,7.59375 9.5937,-2.59375 1.5,-0.5 3.5938,-1.5 1.5,-1 -1,-2.59375 -2,-1 -4.0938,0 -3,0.5 -11.2187,-5 -2,0 z M 983,54.90625 l -1.5,1.5 -2,0 -5.0938,3.09375 0.5,2 3.0938,1.5 4,1 5.5938,3.09375 1,-1.59375 -1.5,-2.5 -2.0938,-7.09375 -2,-1 z M 934.9062,58.5 l -2.0937,3.09375 -0.5,1.5 1,1.5 2.5937,0 2.5,1.5 0,3.59375 1.5,0.5 1.5938,-1 0.5,-2.59375 1,0 1.5,-0.5 1.5,-1.5 0,-2 -1,-2.09375 -1.5,0 -2,0.5 -2.0938,0 -1,-1 -2,-1 -1.5,-0.5 z M 588,60.59375 l -1.5,1 0,6.09375 1,3.625 1.5,2.5 3.5938,7.6875 4.0937,8.09375 4.5,9.71875 3.125,7.59375 3.5,8.09375 2.5937,4.59375 3.5,5.09375 2.5938,5.125 3,13.1875 3,7.6875 1.5938,5.5 3,9.71875 5.0937,14.78125 3.625,10.71875 1,5.59375 0.5,2.5 2,14.1875 0.5,7.71875 0.5937,7.59375 0.5,4.59375 1.5,4.09375 0.5,8.125 0,5.59375 1.5,5.59375 0,4.09375 -1,4.59375 0,4 0.5,4.625 1,4.09375 0.094,9.59375 1,13.8125 4,-1.625 2.0938,0 1.5,1.625 2,3 1,2.09375 -2.5,0 -1.5,2.5 -2,5.09375 -1.0938,3.59375 -2,5 -2.5,3.09375 -1,-1 0,-2 1,-3.09375 2.5,-7.09375 0.5,-1.59375 0,-1 -0.5,-2 -1,-1.5 -0.5,0 -0.5,3.5 -2.5938,7.1875 -2,5.59375 -1.5,7.625 -2,7.09375 0,5.09375 -2.0937,3.09375 -2,1 -2.5,0 -3.625,0.5 -2.5,0.5 -4.5937,1.5 -6.5938,2.09375 -3,3 -2,2.625 -1.5938,3 0,5.59375 -1.5,2.59375 -2.5,3 -4.0937,2.09375 -3.5,2 -2.625,1 -1,1.59375 0.5,2.5 0.5,2.625 -1,3 0,2 2.125,1.59375 2.5,1.5 0.5,3 2.5937,2.59375 1.5,3 0,4.09375 1,3.59375 1.5,2 3.0938,0.5 0.5,1.5 1,3.125 0,2 0.5,2.59375 1.5,1 1,2 0.5938,2 -1.0938,1.09375 1.0938,2 3.5,-0.5 2,0.5 1,2 -3.5,0.5 -2,1.59375 -0.5,2 -0.5,3 0,5.59375 -1,3.125 0.5,3 0.5,3.09375 0.5,2.5 -0.5,5.09375 0.5,3.59375 0,5.59375 -0.5,3.5 -1.5,3.625 -0.5,2.5 0.5,2.59375 0,4.09375 0.5,8.09375 0,6.59375 -1,5.125 -0.5,4.59375 1,3.5 0,4.09375 -1,5.59375 -1.5,5.59375 -0.5,3.625 -0.5938,2.5 0.5938,2.5 -1.0938,2.09375 -2,1.5 1,2 0,2.09375 -0.5,2.5 0,6.09375 -1,1.5 -1,4.09375 0.5,1 0.5,1.625 -0.5,2 -1,2 -1.5,1 -1,1.09375 -2.0938,1.5 -1,3 -2.5,1.59375 0.5,3 -1.5,2.09375 1.5,2 -1,2 0.5,2.09375 2.5,-0.59375 3.0938,-1 2.5,0 2,0.5 0.5938,2.09375 1,1 -0.5,1.5 -1.5938,1.5 0,2.125 0.5938,2.5 -0.5938,2.5 0.5938,1.09375 0.5,2.5 0.5,1 0.5,2.09375 1,2 3,2 3.0937,1.5 3,3.09375 3.125,5.09375 1,4.5 1,6.125 0.5937,3.59375 0,7.09375 0.5,6.09375 1,8.21875 -0.5,4 -0.5,5.09375 0,7.09375 1,3.09375 -0.5,3.5 -0.5,3.09375 -0.5,5.625 1,3 0,3.59375 -1,3.5 0,3.59375 0.5,1 1,0 1.5938,-2 3,-8.1875 1,-4.5 -3.5938,-12.71875 2.0938,-6.6875 7.5938,-7.59375 2.5,-6.125 2,-5.59375 3.5937,0.5 5.625,-1.5 5.5937,-1 2,0 1,1 0,3.5 -0.5,1 0,1.09375 0.5,2.5 0.5,0.5 2.0938,1 1,0 0.5,-1.5 -0.5,-1.5 -2.0938,-10.6875 0.5,-4.59375 0.5,-3 2.0938,-3.09375 1,0.5 1,1.59375 0.5,1 -1.5,3 -1.5,6.59375 3,8.6875 2.0938,3 1,6.125 -2.0938,6.09375 -4,1.59375 -13.1875,-2.09375 -10.7187,-2 -3,0.5 -3.0938,3.09375 0,3.5 1.0938,9.1875 -1.0938,7.625 -2.5,5.59375 -3,6.59375 -4.5938,3.09375 -0.5,0 -2,6.59375 -1,6.625 -0.5,8.09375 -2.0937,6.09375 -1,5.59375 -0.5,5.59375 -1.5,5.625 -0.5,3.59375 0,3 -2,5.59375 -1,6.09375 -0.5,5.59375 -0.5,7.125 -0.5,5.09375 -0.8125,3.375 914.5,0 -6.0938,-6.46875 -3.5,-9.125 -1.0937,-6.09375 0.5,-1.5 1,-4.09375 1.5,-8.59375 2.5937,-3.59375 3.5,-3.125 4.5938,-4 5,-5.09375 5.0938,-4.09375 -3.0938,-7.59375 -4.5938,-12.71875 -2,-8.1875 -0.094,-12.6875 4,-15.21875 2.5,-17.28125 1.5,-9.21875 0.5,-5.09375 -1.5,-5 -1.125,-6.09375 0,-5.09375 2.625,-4.625 2.5,-3.09375 -0.125,-10.59375 -2,-7.59375 -1.5,-6.09375 -8.1875,-11.21875 -4.0938,-12.6875 -4.5937,-7.09375 -3.125,-8.625 -0.5,-5.59375 0,-10.1875 5.5,-16.3125 1,-3.59375 2.5,-6.09375 0.5,-3.5 -0.5,-2.59375 -0.5,-0.5 -1,1 -1,3.09375 -1,4.59375 -2,4.09375 -4.0937,7.09375 -1,2.5 -7.0938,4.125 0,-2.5 1.5,-2.625 3.0938,-2.5 0,-2.09375 -4.0938,2.09375 -2.5,1.5 -1,2.125 -1,2 -0.5,2 -1,2.09375 -1,0.5 -2.0938,-0.5 -1.5,0.5 -2,1 -1,2.09375 -0.5,2 0,4.09375 -1.5,2.5 -2.0937,0.5 -3,1.09375 -1.5,1.5 -1.625,2.5 -1.5,3.125 -2,2.5 -1,4.59375 -3.5,4.59375 -0.5,1 -3.0937,3.09375 -4,1 -2.0938,-1 3.5938,-2 1,-0.59375 0,-5 2,-1.09375 2,-1.5 2.0937,-2.5 1,-3.09375 2.5,-5.625 5,-9.1875 4.125,-7.59375 2.5,-1.5 3,-3.59375 1.5937,1 1.5,0.5 2,-1 -0.5,-1 -1.5,-1.125 -1,-1 -1.5937,-0.5 -1,-1 1,-1 2.0937,0 1,-1 1,-1.59375 1,-1 1,1 -0.5,1.09375 -0.5,2 2.5938,0.5 1,0 1.5,-1.5 3,-1.59375 2.5938,0 2.5,0.5 1.5,-2.5 4.0937,-6.1875 1,-3.5 0.5,-2 -2.0937,-1.09375 -2,-0.5 2,-1.5 2.5937,-1 2.5,-1 -0.5,-5.625 -1.5937,-4.09375 -1.5,-6.59375 -5.5938,-11.1875 -8.6875,-30.5 0.5,-6.125 -0.625,-5.09375 0,-8.59375 -2,1 -1.5,2.09375 -1,2 -1.0937,-1.5 1.0937,-2.59375 0.5,-3.5 1,-3.09375 1,-4.09375 0.4063,-6.625 -0.5,-8.09375 -1.5,-12.1875 -2.5938,-5.09375 -2.5,-5.125 -5.5938,-7.59375 -11.2187,-9.59375 -6.0937,-6.59375 -3.5938,-4.59375 -2.5938,-7.625 -2.5,-9.1875 -0.5937,-12.6875 -5.125,-8.125 -4.5937,-25.375 -3.0938,-7.625 -5.5938,-13.78125 -5.0937,-9.59375 -4,-3.125 -12.2187,-8.09375 -8.1876,-5 -12.2187,-5.09375 -8.5937,-5.09375 -11.1876,-8.09375 -14.2187,-12.625 -7.5937,-3.59375 -9.1876,-2 -6,-1.5 -7.7187,-3.5 -2.5,-7.6875 -3.0937,-2.5 -3,-5.59375 -4.0938,-4.125 -1.5,-1 -7.0938,-9.09375 -10.2187,-5.59375 -7.0937,-4.5 -5.5938,-3.59375 -11.6875,-1 -9.625,-1 -10.0937,-0.5 -3.0938,-0.5 -4,-1 -0.5,0 -11.1875,-4 -3.625,-3.59375 -5.0937,-6.625 -2.5,-0.5 -7.0938,3.125 -6.5938,3.59375 -4.5,4.09375 -7.0937,8.09375 -1.5,4.09375 -9.125,10.71875 -4.0937,10.6875 -1.5,0.5 -3,2.09375 -7.5938,2.5 -7.0938,1.625 -10.7187,2 -6.0937,-0.40625 -8.0938,-3.09375 -5.5938,-3.5 -8.0937,-1 -10.625,0.5 -13.1875,-2 -16.8125,-1.5 -7.5937,-1.5 -14.6876,-3.5 -8.0937,-5.125 -9.2187,-10.1875 -12.6876,-12.6875 -8.0937,-6.625 -2.5,-10.09375 -1.625,-10.1875 -1,-5.09375 -1,-3.125 -1.5,-4.5 -9.6875,-6.59375 -6.5938,-3.09375 -6.0937,-6.09375 -5.625,-11.21875 -8.5937,-5.5 -4.5938,-3.09375 -6.5938,-1.5 -7.0937,1 -9.125,-0.5 -7.5937,-1 -4.5938,1.59375 -3.5,4.625 0,1 3,-1 3.0938,-2.125 0.5,0 0.5,0.5 -1.5,2.125 -1,1 0,4.09375 -9.1876,4 -6,5.6875 -1.5937,2 -8.625,6.09375 -1.5,1.625 -4,1 -0.5,0.5 0,1.5 0.5,1.5 1.5,2.09375 -1.5,1 -2,5.59375 -1.0937,6.59375 -4,3.59375 -4.0938,1 -5.5,-2 -2.5938,-0.5 -5.0937,3.625 -4,2 -3,1 -2.125,0 -5,1.09375 -2.5937,1 -5,3.59375 -5.0938,2 -3.5938,1.5 -8.5937,0 -2.5,-1 -1.625,-1 -3,-3.5 -4.0937,0 -5,2.5 -11.6876,3.09375 -8.0937,-2 -5.625,0.5 -3.5,0.5 -2.0937,-0.5 -2.5,-0.5 -3.5,-3.09375 -2.5938,-3 -2,-3.59375 -0.5,-1 -2.0938,1 -1,1.09375 -2.5,0 -1,-1.59375 -5.5937,-8.59375 -0.5,-5.625 -5.625,-4.59375 -1,-3.5 -1,-2.59375 4.5,-5.59375 2.125,-2 1,-2.59375 0,-2.5 -2.625,0.5 -5.5,4.59375 -2.0937,4.09375 -3,1.5 0,2.5 -3.5938,4.09375 -3.5,1.5 -7.0938,-0.40625 -7.0937,0 -20.3125,5.125 -9.5938,-3.125 -5.0937,0.625 -3,1 -4.625,4.09375 -4.5937,1.5 0,4.09375 3.0937,3 7.125,6.59375 3.5,2.59375 5.0937,2 3.0938,-0.5 3,-2.09375 10.0938,3.59375 4.5937,12.71875 -3.5,6.09375 0.5,3.09375 2.5,2.5 3.625,-2.5 2.5,-1.09375 3.5937,1.59375 2,3.5 5.5938,1.5 3,2.09375 2,5.125 -0.5,2 -1,1.5 -2,-6.125 -4.5938,-2 -5,-2 -3.0937,-2.59375 -7.125,2.59375 2,8.625 -0.5,4.59375 1.625,4.59375 2,3.59375 -0.5,3 0,4.09375 3.5937,4 6,3.625 3.5938,7.09375 1,5.59375 2.0938,4.59375 2.5,4.59375 -4.5938,-3.09375 -1.5,-2.5 -0.5,-2.59375 -3.0938,-8.59375 -2,-2.59375 -4,-1.5 -6.0937,-1 -2.625,-1 -2,-6.125 -0.5,-9.1875 -0.5,-15.6875 -3.0937,-10.21875 -2.5,-6.59375 2,-5.09375 0.5,-6.59375 -1,-2.125 -3.0938,0 -1,1.625 0,3 -2,2.59375 -3,-1.09375 -0.5938,-3 -0.5,-1 -2,0.5 -1.5,1 -0.5,3.09375 -1,4 -3.0937,0 -3.5,2.09375 -4.125,5.09375 -4.5,8.09375 -5.5937,6.71875 -0.5,-4.09375 3,-8.71875 2.5,-6.09375 -1.5,-2.5 -4,-3.09375 -6.0938,-5.09375 -2.0938,-1 -5.5,0 -1.5937,-0.5 -1,1.5 -1,0.59375 -1,0 -1.5,-2.59375 -1.5,-0.5 -1.625,0 -1.5,-0.5 -4,-7.625 0,-3.09375 1,-3 0.5,-1.09375 1.5,-2.5 -0.5,-1.5 -2,1 -2.0937,5.09375 -2.5,7.59375 -1,2.125 -0.5,0.5 -5.0938,2 -2,0.5 5,-4.625 1.0938,-1 2,-5.59375 2.5,-5.09375 0.5,-2 -1.5,-1 -0.5,1 -1.5,2.5 -0.5,1.09375 -2.0938,1.5 -1.5,-0.5 -0.5,-0.5 -1,-0.5 -0.5,-2.09375 1,-2 -0.5,-1 -1.5,0 -1,2.5 -1.0938,2.09375 -1.5,0.5 -1.5,0 0.5,-1 1.5,-3.59375 2.5938,-4.09375 0.5,-1.5 -0.5,-3.09375 -6.5938,-3 -2.0937,-3.625 -6.125,-3 -4.5,-2.09375 -1,-0.5 -0.5,-2 0.5,-1.5 0,-1.59375 -3.5937,-2 -4,0 -4.0938,-0.5 -1.5,-1.5 -1,1 -0.5,2 0,1.59375 -0.5,2.5 0,1.59375 -1.5938,0.5 -1.5,0.5 -0.5,0 -0.5,-1 -0.5,-1.09375 2,-4 1,-1.09375 -1,-0.5 -1.5,0 -0.5,1.09375 -1.5,1 -0.5,2 -0.5,1.5 -0.5937,0.59375 -1,-0.59375 -0.5,-1.5 -0.5,0 -2,1 -11.7187,-15.1875 -1.5,-4.59375 -1.5,-2.5 1,-1.125 1.5,0 0,-1 0.5,-2 4.5937,2 1,1.5 2.5,2.625 3.625,1 -0.5,-1.5 -1.5,-3.625 -7.125,-4.59375 -3.5937,-2 -5.5938,-1 z M 1015,66 l -4.5938,0.5 -5.0937,1.5 -3.5,1.09375 -2.5,2.5 0,2.09375 -0.5,4 0.5,1.625 2.5,2 4.0937,4.59375 4,0.5 L 1013.5,92 l 6.5938,3.5 4.5937,4.09375 3,-1.09375 0.5,-1 0,-9.59375 3.5,-2.59375 0,-5.125 -3.5,-11.1875 -1,0 -3.0937,0.5 -2,0.5 -2.5938,-0.5 -2,-2.5 -2.5,-1 z m -85.1875,13.90625 -2.5,0.5 -2,1.59375 -7.125,2.5 -3.0937,0.5 -2.5,0.5 -1.5,1.09375 0,2 -1.5938,1 -1.5,1 -1.5,1.09375 -1,0.5 1,2.5 6.0938,-1 0.5,2.5 7.0937,-2.5 2.5,-3.09375 8.125,-8.1875 -1,-2.5 z m -31.9063,17.90625 -5.0937,1.5 -0.5,2.09375 4.0937,2.5 -0.5,2.5 2,0.5 1.5,4.59375 -3.5,2.59375 6.0938,2 5.5938,3 3.5,-3.5 0.5,-5.09375 1,-7.09375 -1.5,-3.09375 -8.0938,-2 -5.0938,-0.5 z m -23.8124,24.5 -3.0938,1.5 -0.5,0.5 -4,1 -4.0938,1.59375 -4,0.5 -5.0937,0 -2,1 -1,2.09375 1.5,2.5 7.0937,1 1.5,-1 2,-3.09375 6.5938,-1.5 2.5938,-1.5 5.5,-1.59375 1,-2 -2.5,-1 -1.5,0 z m -33.5,4.09375 -1.5,0.5 -2.5,0 -1.5938,1 -0.5,1.09375 0,1 1.5,0.5 2.0938,0 2,-1 0.5,-1.09375 0.5,-1 -0.5,-1 z m 398.0937,6.28125 0,1.5 1.625,1 2,1.5 4.5937,6.125 4.5,2.59375 2.5938,2 6.5938,0.5 7.0937,1 2,-0.5 1,-3.59375 -1,-1 -4.5937,0 -5,-1 -5.0938,-4.625 -6.0938,-2 -6.0937,-3 -4.125,-0.5 z M 1185,170.5 l -4.5,2 -2.5,2.09375 -7.6875,2.5 -3.5,0.5 -5.625,0.59375 -7.5937,0 -3,0.5 -3.0938,0 0.5,3.125 5.0938,1.5 6.5937,0 8.625,-0.125 6.5937,-1 6.5938,-2 4.0938,-1.59375 2,-4.59375 -0.5,-2 0,-1.5 -2.0938,0 z m 4892,108.5 -67.9062,3.5 -45.5938,2.40625 -19.3125,1 -12.5937,0.6875 -4.0938,0.3125 -93.8125,4.28125 -97.875,4.625 -20.8125,0.5 -76.0937,1.78125 -48.7188,1.3125 -7.0937,0.90625 -40.5938,0.5 -106.5,3.09375 -37,1 -85.8125,3.1875 -8.0937,0.40625 -53.1875,2.6875 -14.7188,0.8125 -47.1875,1.5 -4.0937,0.1875 -42.0938,1.21875 -60.625,1.5 -36.2812,0.90625 -9.5938,0.1875 -86.7187,2.6875 -8.0938,0.21875 -39.4062,0.90625 -48.9063,1.375 -78.0937,2.21875 -4.5938,0.0937 -295.1875,8.8125 -4.625,-0.21875 -3.5,6.09375 -4.5,6.71875 -5.5,8.6875 -5.5,6.71875 -8.5937,6.6875 -4.5,5.59375 -7,3.8125 -8.0938,3 -8.0938,3.78125 -8.0937,3.90625 -6.125,3.71875 -6.5,4.09375 -7.0937,4.59375 -5.5,3.09375 -4.5938,3.09375 -11.5938,4.40625 -9.5937,2.5 -10.7187,1.59375 -9.0938,2.625 -6.5,1.59375 -6.0938,1.09375 -5.5937,2.09375 -9.625,-0.78125 -14.2813,-3.125 -13.7187,-4.6875 -11.6875,-3.5 -9.1875,-0.90625 -4.8125,0.3125 -3.8125,0.0937 -5.5937,0.5 -9.5938,1.59375 -6.0938,0.59375 -2.5,-0.5 -8.0937,1.625 -6.125,1.78125 -3.5,1.90625 -6.5937,3.3125 -9.5938,3.59375 -13.1875,2.5 -6.125,1.59375 -9.0937,1.59375 -10.5938,1.59375 -6.0938,1.8125 -6.5937,0.90625 -5.625,1.5 -9.5937,-0.8125 -1.5,-0.0937 -6.0938,0.0937 -6.0938,0.5 -7.5937,2.09375 -8.625,2.625 -11.0937,5.1875 -7.5938,3.6875 -4.5938,1 -3.5,1.125 -5.0937,0 -10.7187,-1.71875 -9.5938,-4.6875 -11.3125,-6.8125 -8.0937,-4.90625 -1.0938,-0.59375 -5,-1.6875 -2.9062,-0.59375 -2.1876,-0.40625 -6.5937,1.59375 -9.125,3.59375 -7.0937,3.3125 -2.5,1.90625 -4.5,5.28125 -5.5938,7.21875 -4,5.875 -2.5,4.3125 -5,9 -3.9062,8.1875 -3,4.3125 -2.5938,4.09375 -4.5,6.90625 -0.5,0.59375 -4.5,5.09375 -4.5,4.125 -5.0938,2 -8.0937,-0.40625 -5.125,0.5 -6.0937,0.59375 -5,0.59375 -2.0938,0.21875 -6,0.0937 -5.5938,-1 -7.5937,2.09375 -7.625,2.59375 -11.6875,3.09375 -8.5938,0.90625 -8.5937,-0.90625 -7.125,-0.5 -0.5937,0.125 -5.5,0.5 -11.1876,2.28125 -12.7187,1.40625 -11.5937,3.6875 -18.1876,8.3125 -11.5937,5.09375 -7.125,2.40625 -7.0937,2.3125 -4.5938,1.78125 -9.5938,-0.90625 -8.5937,0.90625 -7.2187,-1 -9.5938,0.0937 -6.5938,0.5 -5.0937,1.3125 -7.625,2.40625 -3,3.09375 -6.5,5.3125 -5.0937,3.375 -1,0.71875 -7.0938,2.90625 -6,4.09375 -5.0938,4.1875 -4,4.09375 -7.0937,3.3125 -7.625,3.90625 -9.5937,4.40625 -10.0938,0.5 -2.5938,2.375 -6,2.3125 -9.0937,3.59375 -5.125,0.3125 -7.0937,0.59375 -10.6876,3.40625 -8,3.90625 -7.0937,3.09375 -5.125,2.59375 -10.5937,6.40625 -5,3.09375 -5.0938,4.3125 -4.5,14.28125 -5,4.3125 -3.5,6.5 -5,6.09375 -6.5938,3.09375 -4.0937,1.5 -3.5,0.8125 -3.625,0.78125 -5,0.625 -9.1875,1.59375 -6.0938,-1.5 -6.5937,0.5 -14.2187,1.1875 -7.0938,1 -7.5938,2.09375 -7.5937,3.125 -7.625,1.59375 -5,1.59375 -10.1875,4.09375 -11.0938,1.09375 -8.0937,2.125 -8.125,1.78125 -9.6875,1.40625 -3,-0.3125 -4.0938,0.625 -7.5937,1.59375 -4.625,1.5 -6,1.40625 -8.6875,2.09375 -5,0.6875 -9.6875,1.09375 -5.5,0.3125 -6.125,1.09375 -5.0937,1 -6.0938,1.09375 -5.5938,0.625 -8.5937,-1.8125 -7.7187,-5.6875 -6.0938,-5.125 -5.0938,-3.5 -7.7187,-6.09375 -5.5937,-6.28125 -6.0938,-7.125 -5.1875,-7.09375 -5.125,-6.5 -6.5937,-3.78125 -7.6876,-3 -6.5937,-0.90625 -8.125,-2 -5.5937,0 -8.5938,0.59375 -7.0938,0.59375 -9.7187,0.21875 -7.0937,2.59375 -6,3.59375 -5,3.3125 -1.0938,0.6875 -5.5938,4.3125 -6.5,4.28125 -5.0937,5.21875 -4.5,5.59375 -4.5,4.59375 -4.625,2.09375 -7.0937,1.5 -6.0938,2.8125 -7.5938,1.40625 -4.5,3.09375 -6.5937,2.78125 -7.625,3.40625 -8.0937,2.8125 -6.0938,2.90625 -7.0938,2.78125 -11.0937,4.59375 -5.625,2.40625 -14.1875,5.09375 -9.0938,3.71875 -7.5937,3.09375 -11.125,3.59375 -6.5937,3.59375 -7.0938,5.625 -4.5,4.59375 -4.5938,4.90625 -3.5,3.78125 -2.5,3.09375 -4.5937,2.8125 -7.125,4.09375 -5,1.59375 -4.0937,-0.5 -1.5,-0.78125 -3.0938,-1.40625 -4.0938,-4.59375 -6.5937,-6.3125 -4.625,-3.09375 -4.5937,-0.90625 -6.0938,1.5 -9.5938,3.40625 -5,2.3125 -3.5937,1.78125 -3,1.09375 -3.125,-0.28125 -3.5937,-2.21875 -5.5938,-3.59375 -5.5938,-2.5 -3,-1 -3.0937,1.59375 -4.5,2.625 -3.625,0.1875 -6.5937,0 -8.0938,0.59375 -7.0938,0 -5.0937,-2.5 -11.7187,1.09375 -7.0938,2.625 -10.0938,9.1875 -4,9.6875 -5,3.40625 -4.5937,4.09375 -3,3.5 -1.5,4.125 -3,3.78125 -3.625,4.09375 -1.4063,1.09375 3586.3751,0 2.0312,-3.59375 1,-5.28125 0.125,-0.59375 1.375,-7.21875 1,-3.90625 1,-4 0.125,-0.59375 0.5938,-2.09375 0.5,-3.3125 0.1875,-1.6875 0.094,-0.59375 1.625,-1.90625 1.2812,-0.59375 0.8125,-0.0937 1.6875,-0.40625 2.7188,-1.21875 0.7812,-0.375 1.3125,-0.625 1.7813,-3.375 0.2187,-0.5 2.0938,-3.3125 1,-1.59375 0.8125,-1.09375 2.1875,-3 2.1875,-1.71875 1.125,-0.90625 2.375,-1.28125 2.8125,-2.09375 1.9062,-1.3125 0.5938,-0.59375 0.6875,-2.21875 0.3125,-0.875 0.5,-1.40625 -0.5938,-3 -0.5937,-2.8125 0.375,-2.5 0.2187,-0.78125 1.4063,-2.21875 1.5937,-1.78125 0.9063,-1.125 3,-4.6875 0.375,-0.40625 2.2187,-6.59375 2.4063,-5.59375 0.1875,-0.5 -0.4063,-5.59375 -0.2812,-0.625 -1.5,-4.09375 -1,-2.40625 -0.2188,-0.5 -1.2812,-1.6875 -0.7188,-0.90625 -3.2812,-4.1875 -1.3125,-4 -0.3125,-0.5 -1,-1.09375 -0.375,-0.5 -2.625,-0.625 -2.1875,-2.375 -1.4063,-3.71875 -0.9062,-4.1875 -2.0938,-5.59375 -0.4062,-0.71875 -12.1875,-10.78125 -9.3125,-10.125 -4.2813,-7.59375 -4.0937,-0.78125 -6.5,-10.625 -4,-6 -1.625,-9.875 -1.6875,-12.21875 -0.5938,-6 1,-19 -10.5937,-18.5 -7.3125,-2.90625 -3.8125,-3.1875 -10.2813,-10.1875 -8.5937,-6.40625 -7.125,-5.59375 -15.0938,-1.21875 -10.2812,-0.78125 -5.2188,-2.125 -12.4062,4.90625 -6.1875,1.3125 -5.3125,-1.21875 -15.7813,-15.875 -5.9062,-13.625 -4.6875,-10 -4.5,-4.28125 -8.2188,-3.71875 -7.2812,-0.59375 -4.7188,-0.0937 -7,0.59375 -5,3.3125 -10.1875,8.1875 -5.7187,0.90625 -4.0938,-3.1875 -4.4062,-2.71875 -3.6875,-2.90625 -5.4063,-1.78125 -3.5,-5.5 -0.6875,-6.3125 0.094,-5.78125 -2.3125,-7.21875 0.125,-10.1875 -6,-4.3125 -5.5,-3.09375 -3.4062,-5.59375 -2.9063,-5.71875 -5.6875,-4.28125 -16.3125,-9.21875 -12.5,-12.1875 -10.6875,-15.3125 -2.625,-9.59375 -3.2812,-12.09375 -0.4063,-6.3125 -1.6875,-8.59375 -2.3125,-5.90625 -2.9062,-3.6875 -3,-1.1875 -4.9063,-1.3125 -1.875,-4.59375 -2.2187,-7.90625 2.0937,-7 -15.5,-13.3125 -2.1875,-7.6875 z m -4609,47.90625 -1,0.5 -1.5938,2.09375 1.0938,2.5 0,1 -1.0938,0 -1,0.59375 0.5,1.5 3.5938,4.5 2,2.59375 0.5938,1 2,2 1.5,0 0,-3.5 -1,-3.09375 -0.5,-3.5 L 1471,331.5 l -2,-3 -1,-1.59375 z M 2495.5938,661.3125 2493,661.5 l -3.5,0.3125 -8.5938,4.78125 -4,1.90625 -8.0937,1 -4.625,1.09375 -4.0937,0.21875 -7.0938,0.28125 -5,1.09375 -9.6875,2.625 -4.5,2 -2.125,1.09375 -6.0937,1.1875 -3,1.09375 L 2415,682 l -11.1875,1.09375 -3.5,-0.78125 -4.625,0.5 -5.0937,-0.125 -10.0938,4.125 -3.5938,2.1875 -5,2.40625 -4.0937,1.28125 -5,1.5 -4.625,0.5 -5.0937,-0.375 -7.0938,-1 -6.5938,-1 -4.0937,-0.21875 -5.625,-1 -7.5937,-0.78125 -4.5938,-1.71875 -10.0938,-1.6875 -6.0937,-2.59375 -7.2187,-1.71875 -5.5938,-1.6875 -7.0938,-1.5 -8.5937,0.5 -6.625,2.09375 -5.5937,2 -5,1.90625 -3.5938,2 -8.5938,4.40625 -6.0937,3.28125 -3.5,1.3125 -6.125,3.28125 -6.0937,4.625 -3,3.59375 -7.5938,4.28125 -1.5,9 -1,4 -1,5.625 -1.5,4.09375 -3,3.09375 -4.0938,1.5 -3.5,1.09375 -3.5937,1.5 -2,1 -3.5,1.8125 -3.625,2 -4,1.59375 1,3.8125 1,4.09375 -3.5,1 -6.5937,0.59375 -2.5,1 -2.5938,2 -3.5,3.59375 -6.0938,4.59375 -5.0937,3.125 -7.625,5.09375 -4.5,2.59375 -3.5937,1 -9.0938,2.59375 -7.0938,1.5 -1,0.6875 645.8438,0 -2.8438,-4.78125 -0.094,-13 -0.5,-4.5 -1.625,-10.6875 -3.0937,-10.21875 -2.5938,-5.78125 -4.5938,-8.625 -5.5937,-5.59375 -5.125,-1.1875 -14.2813,-5 -9.5937,-1.71875 -4.125,-3.09375 -11.1875,-1.6875 -4.5938,-2.5 -9.2187,-7.8125 -7.0937,-7.09375 -4.5938,-2.1875 -6.0938,-1.5 -6.0937,0.5 -4.125,-0.5 -4.5,-1.21875 -5.0937,-1.78125 -4.5938,-2 -7.5938,0.0937 -6.0937,0.5 -6.125,1.09375 -7.5937,4.09375 -3,2.5 -5.5938,2.8125 -4.5938,1.59375 -10.5937,2.40625 -5.625,0 -8.5937,-2.3125 -5.6876,-5.5 -3.5,-1.1875 -5.5937,-1.8125 -7.125,-1.1875 -4.0937,-3.09375 -6.0938,-3.8125 -7.1875,-5 -4,-3.5 -9.7187,-4.8125 -4.0938,-2 -9.0938,-1.5 -8.2187,-1.6875 -7.0937,-0.6875 z m -959.5,71.1875 -2,2 -1.5,5.59375 -3,3.09375 -4.0938,2.625 -2.5,1.5 0.5,2 -3.5,4.59375 -0.5938,-0.5 0.5,-2.5 -0.5,-2.59375 -1.5,1.5 -1.5,5.59375 -1,4.59375 0.5,3.59375 2.0938,5 2,9.71875 1,7.96875 77.4375,0 -0.625,-0.0937 -13.3125,-9.09375 -10.6875,-6.59375 -23.4063,-19.6875 -5.5937,-6.125 -5.625,-7.59375 -2.5937,-3.09375 -0.5,-1.5 z m 16.8124,11.09375 1.0938,2.59375 5,5.5 9.1875,8.71875 3.625,1.5 1.5,2 5.5937,4 8.6876,5.09375 12.2187,7.59375 8.5937,-1.59375 -1,-1.5 -4.5937,-3.5 -6.625,-4.59375 -2,-0.5 -1.5937,1 -3.5,-3 -3.0938,-5.09375 -3.5938,-3.5 -11.2187,-7.125 -2,1 -8.0937,-4 -4.5938,-4.09375 -2.5938,-0.5 -1,0 z"
     id="rect4"
     inkscape:connector-curvature="0" />
  <path
	 style="fill:#9FAEC0"
	 stroke="#9FAEC0"
	 stroke-width="10"
	 transform="translate(0, 100)"
     d="m 606,786.28125 -0.3125,1.21875 -4,5.59375 1.5,2.5 2,1 5.625,1.59375 5.0937,1.5 2.0938,7.625 12.6875,5.09375 3,-1.09375 4.125,1.5 3,0.59375 0.5,-2.09375 0.5,-1.5 7.0937,-3.625 1.5938,0 2,1 -0.5,1.625 -2,1.5 -3.5938,1 -0.5,1.5 -1.5,4.09375 -2.0937,1.5 -2.5,0.5 -2,1.59375 1,3 1,3.59375 3.5937,2.5 1,2 1,1.09375 -1.5,2 1,2 1,1 0.5,1.625 -0.5,2.5 -1.5,1.5 0.5,2.09375 L 649.5,852 l 1.5,2.5 1.5,1 1.0938,1.5 -1.5938,4.59375 -1.5,3.59375 1.5,1 4.0938,1.5 1.5,0 -0.5,2 -0.5,3.125 -0.5,1 4.0937,1 5.625,0 4,-2 1.5937,1 1,2 3,-1.5 1.5938,-0.5 1.5,2 -0.5,1.5 -6.5938,2.09375 -2.5937,2 -2,2.59375 -2.5,2 -2.125,0.5 -0.5,0.5 -2,1 0,3.59375 -1,3.5 -0.5,1.09375 -1.5,1 -3.5937,0.5 -1,2.5 -2,1.625 -1.0938,1 2.5938,5.09375 -1,0.5 -1.5938,0.5 -3.5,-3.09375 -2.0938,-2.5 -3.5,-3.125 -1.5,-3.5 -4.0937,-4.09375 -2,-2.5 -3.625,-4.59375 -5.0937,-2.5 -5.5938,-8.09375 -4.5938,-5.59375 -3,-2 -1.5,0.5 -7.7187,2.5 -1.5,-2.5 -0.5,-9.71875 0.5,-3.5 -1,-3.09375 -0.5,-0.5 -1,1 -0.5,3.09375 -1.0937,6.09375 0.5937,5.125 -0.5,5 -1.0937,5.59375 -1,3.09375 -1.5,1 -3,1.5 -3.0938,0.5 -1,1.09375 -0.5,1.5 0.5,2 -0.5,1 -2.5,1.09375 2,1.5 3,3 2.0938,3.625 0.5,2.5 -0.5,2.59375 -1,1.5 -2.0938,3 -0.5,1 -0.5,2.09375 -0.5,2.5 1,3.09375 1.0938,4.5 1.5,3.09375 2,3.5 1.5,3.125 1.5937,2.5 1,3.09375 2.5,2.5 2.625,4.09375 1.5,1 1,3 0.5,2.59375 0,1 3.0937,3.5 3,1.59375 2.5938,2 0.5,4.125 0.5,3.5 1.5,3.09375 -1,3.5 0,1.5 1,2.09375 0.5938,2.5 0.5,1.5 1,3.09375 0,1.5 -3.0938,4.09375 -0.5,2.5 -0.5,2 -2,2.625 -3.0938,2 -2,3.0937 -7.0937,7.0938 -4.125,5.0938 -1.5,0.5 -1.5,-0.5 1,-2.0938 2.625,-9.0938 2,-11.7187 1,-17.28125 1,-4 1.5,-0.5 1.5,0.5 2.5937,-0.5 -0.5,-1.59375 -2.0937,-2.5 -1.5,-2 1,-2.625 0,-2 -2,-2 -1,-1.09375 1,-2 -2.125,-0.5 -1,2 -1,3.09375 0,4.625 -0.5,5.59375 -1,6.09375 -0.5,5 0,3.59375 -0.5,6.09375 -3,16.8125 -1.5937,6 -1,7.6875 -1,5.625 -1.5,5.5 -1.5,5.0937 -2,4.0938 -1.5938,0.5 -1.5,2 -2,2.5938 -2,0.5 -3.0938,0.5 -2.5,1 -1.0937,2.0937 -1,3 -1.5,0 -2,-0.5 -2.625,0 -4,2 -0.5,1.625 0.5,2 1,1.5 3,1 3.625,0 4.5937,-1 7.0938,-1 3.5,-0.5 2.5938,1 1.5,2.5 1.5,3.0937 0,5.5 2.0937,7.6876 1.5,7.5937 0.5,3.5 -0.5,4.125 1.125,4.0937 1,3.5 0,8.0938 -0.5,2.5938 -1,5.5937 0.5,4.5 -1,3.625 1.5,2.5 0.5,0 1,-0.5 1,-3.5 2.0937,0 1.5,0.5 1.5,-2.125 0,-3.5 -1,-5.0937 1,-0.5 1.5,-0.5 1.5938,-1.5 1.5,-1.0938 4,-3 2.0938,-1 2.5,0 0.5,2 -0.5,2.5 1,2.0938 0.5,2 -2,2 -2.5,2.0937 -0.5,0.5 -2.0938,2.5 -1.5,2 -2,3.625 -1.5,3.5937 -1.5938,3 -3,3.5938 -1.5,2 -1.5,0.5 -1.5937,0 0,-1.5 1,-3.5938 -2,0 -2,1.0938 -1,2.5 -0.5,3.5 0,2.0938 -0.625,2.5 -0.5,4.0937 -1,1.5 -1,2.5 -0.5,1.625 -0.5,2.5 0,1 -0.5,2.0937 -0.5,2 -1.5,4.0938 0,4.5 -1,6.5938 -1.0937,3.0937 -1.5,3 -2.5,3.125 -1,2 -0.5,0.5 2,0.5 0.5,-0.5 2,0 2.0937,0.5 0.5,3.0937 0,7.0938 1,5 -0.5,3.5938 -0.5,4.0937 -0.5,3.5 0,6.125 -1,2.5 -0.5,2.5937 -0.5,3.5 0,8.1876 1,2.5 -0.5,1.5 -1,2.5937 -1,1.5 -0.5,1.5 0.5,1 2,2 1.5,-1 0,-4.5 2.125,-4.0937 1.5,-3 3,-3.0938 2.0937,-5.0938 0.5,-4.5937 -1,-3 0.5,-3.625 -2.5937,-8.0937 -2,-3.5 2,-5.5938 3,-5.0938 1.5937,0.5 0,1.5 -1.5937,2.5938 -1.5,2.5 -1,2.0938 1,1.5 0.5,2 1.0937,3.0937 0.5,1 1.5,3.5 1.5,3.125 0,3 -1,2 1.5,0 2.5938,0.5 3.5,5.0937 5.0938,3.0938 2.0937,4 1,3.0938 -0.5,3 -0.5,2 -0.5,2.0937 -1,1.5 0,2 -1.0937,1 -1.5,-0.5 -2.5,-5.5937 -1.5938,-6.5 -2,-6.5938 -2,-3.0938 -1.5938,-0.5 -1,2 -1,4.0938 -0.5,2.5 -0.5,2.5938 -2,5.0937 -3.0937,3 -1,1 -2,2.125 -3.625,2.5 -0.5,0.5 -1.5,1 -1,1.5 -0.5,2.0937 -1.0937,2.5 0.094,2.5938 -0.5937,2.5 -0.5,3.5938 -1,2 -2,3.5 -0.5,3.5937 -0.5,6.125 -1,6.0937 -1.5,8.0938 -1,5.5938 -0.5938,4.5937 -1.5,2.5 -1.5,2 0.5,1.5 0,2.625 -1,2 -1,4.0937 -2,0.5 -2.0938,1 -1,1.5 -1.5,2.5938 -1.5,1 -1.5937,2 -1.5,2.0938 -2,3.5 -1,2 0,1.0937 -1,1.5 0.5,0.5 0.5,1.5 -1,2.5 0,1.625 0.5,1.5 -0.5,1 -1.125,1 -1,1 -2,1.5937 -1,2.5 -0.5,2 0,3.0938 0.5,2 0,1.5 -0.5,2.0938 -1,1.5 -0.5,1.5 1,2.5 3,0 4.125,1.0937 3.5937,1 2.5,1.5 0.5,2 1,2 2.0938,1.625 2.5,1 2.0938,0.5 1.5,1.5 0.5,3 2,3.0937 4.5937,3 1,1 -2,0.5 -2.5,-1 -2.5937,-1 -2,-0.5 -0.5,-0.5 0,-1 -0.5,-2 -2.0938,-2.5937 -3,-2 -2.0938,-1 -2.5,-3.625 -2.5937,-2.5 -1.5,-0.5 -3,0 1.5,3.625 1,2 0.5,1.5 -1,2 -1.5,1.0937 -0.5,1.5 0,2 -0.5,1 -1.125,1 -1.5,1.0938 -0.5,2.5 1.5,2.5 1.125,2.5938 1,3 -0.5,3.5937 -1,5 -1,5.125 -1.625,7.5937 -0.5,6.5938 -1,8.0938 -1.5,11.2187 0,4.5937 -0.5,3 -0.5,2.5938 -0.5,3 -1,2.5 -1,1.0938 -0.5,2 0,2 1,2.5937 -2,6 -2.0937,5.125 -0.5,4.5937 -0.5,3 -1.5,9.1876 1,4 0.5,0.5 1.5937,-0.5 2.5,-0.5 2,0.5 1.625,0.5 0,2.5937 -1.5,2 0,1.5 -1.125,1 -1.5,1 -0.5,2.625 0.5,2.5 1,2 2.625,1.0937 3,-1.0937 0.5,0 2.0937,0.5 0.5,2.5937 -2,2 0,4.5938 0.5,2 0,1 -1.5,3.0938 0,2 -4.5937,0.5 -1,0.5 -1.625,0 -5.0937,3.0937 -2,0.5 -1,0 0,-2.0937 2,-3 0,-5.0938 1,-7.5938 0.5,-5.0937 0.5,-4.5 1.5937,-4.125 1.5,-2 -0.5,-1.5 -1.0937,-0.5 -1.5,2 -1,3 -1,3.125 -1.5,3 -1.5,3.0937 -0.5938,4 -0.5,3.5938 -1,5.5938 -1,4 -2,4.0937 -1,6.625 -0.5,5.0937 0,4 -3.0938,8.5938 -3.5,11.1875 -4.0937,9.125 -0.2187,1.2813 5637.7499,0 2.8438,-3.9063 0.5,-0.5 3.625,-5.6875 0.5,-0.9062 2.5937,-5.2813 2.1875,-5 2.5,-4.625 4.0938,-6.0937 1.5,-5 1.625,-5.5938 0.2812,-0.8125 2.5938,-3.1875 3.8125,-5.9062 3.0937,-3.7813 0.5938,-0.8125 0.9062,-1 1.5,-1.5 1.0938,-0.8125 2.8125,-2.875 4,-6.625 0.4062,-0.6875 1.4063,-2.4062 1.6875,-3.2813 0.5,-0.8125 2.1875,-7.8125 1.8125,-6.375 1.1875,-4.9063 0.9062,-4.2187 0.8125,-2.5937 0.2813,-1.0938 2,-5.5 0.5,-1.5938 2,-8.0937 0.5,-1.125 1.7187,-8.1875 0.5,-4.6875 0.1875,-2.3125 -0.094,-4.1875 -0.094,-0.9063 -0.3125,-0.5937 -2.7812,-5.9063 -3.2188,-7.5937 -3.5937,-5.5 -0.6875,-0.8125 -2.9063,-7.5 1.5938,-3.4062 3,-2.7813 4.1875,-4.125 3.625,-3.5 0.5,-0.375 0.5937,-0.8125 1.7813,-4.1875 -0.2813,-5.3125 -0.2187,-0.5938 -3.1875,-1.5 -0.8125,-0.3124 -3.0938,1.0937 -2.4062,4.7187 -2.6875,5.4063 -2.9063,2.6875 -2.4062,-1.0938 -0.375,-0.2187 -1.7188,-2.6875 1.0938,-6 1.3125,-6.0938 3,-6.4062 0.5937,-3 1,-6.0938 0.094,-0.5 -0.6875,-6.5937 -1.3125,-11.625 0,-3 0.125,-1.5 1.1875,-4.5 5.5938,-5.875 2.3125,-2.3125 0.5,-0.3125 1.5937,-1.2813 3,-2.7187 2,-2.2813 3,-3.3124 0.3125,-0.4063 1.875,-2.1875 2.8125,-3.0938 1.8125,-2 1.5938,-1.7187 1,-1.1875 2.5,-3.0938 3.5,-4.9062 0.4062,-0.6875 2.0938,-4.4063 1.5937,-3.4062 0.5938,-1.3125 1.4062,-2.5 2.3125,-4.0937 0.7813,-1.4063 2.5937,-5.2813 -0.2812,-1.3124 0.7812,-3.5 -0.2812,-1.1876 -0.5,-3 -0.9063,-2.7187 -0.1875,-0.7813 -0.2187,-6.0937 2,-4.3125 0.2187,-0.5 5.2813,-7.4062 1.7187,-1.6876 2,-1.7187 3.5,-1.875 4.6875,-3.9063 0.5938,-0.5 4,-6.4062 0.3125,-0.4062 3.0937,-6.2813 0.3125,-0.7187 0.875,-3.6876 1.125,-4 0.2813,-0.5937 1.7187,-2.9063 0.5,-1.0937 2.1875,-2.7187 3.9063,-4.7813 2.5937,-8.5 0.3125,-2 1,-7.125 0,-6.1875 -0.125,-3 0.2188,-2 0.5937,-4.5938 0.1875,-1 2,-8.0937 0.625,-2.3125 3.875,-13.5938 0.4063,-2.5 0.7187,-5.4062 0.375,-3 1.125,-6.9062 0.5938,-4.4063 0.9062,-6.7813 1.6875,-11.2187 2.3125,-14.2813 1.2813,-5.5937 0.5,-2.3125 2.0937,-10.5938 1.125,-1.5 5.875,-8.2187 1.4063,-0.7813 2.5937,-4.0937 1.125,-1.4063 0.5938,-0.9062 0.9062,-2 1.5938,-5.0938 0.094,-6.2187 -0.1875,-7.5 -0.125,-1.5937 -2.0938,-9.6876 -0.5937,-2.8124 -0.5,-3.5 0,-1.1876 0.1875,-8.2187 0.9062,-4 1,-4.5937 2.8125,-5.9063 2.4063,-5.0937 3.6875,-8.5938 3.0937,-6.3125 0.9063,-2 2,-4.1875 2.3125,-4.5 3.7812,-6.6875 1.2188,-2.21875 4.6875,-8.90625 1.3125,-2.375 2.1875,-6.3125 3.0937,-7.1875 3,-6.5 1.2188,-2.71875 3.875,-5.78125 0.5,-0.71875 2.8125,-2.6875 1,-0.8125 3,-3.40625 3.5,-3.875 2.5,-6.625 1.0937,-6.375 -0.4062,-7.3125 -0.2813,-4.3125 0.2813,-1.09375 1.625,-8 5.1875,-8.28125 4.0937,-4.8125 2,-1.8125 7,-7 0.7188,-0.375 3.2812,-4.5 0.5938,-0.90625 0.9062,-1.59375 1.4063,-3.5 -0.3125,-2.5 -0.2813,-3.125 0,-0.59375 -1.2187,-4 -1.1875,-3.90625 -0.094,-0.5 -0.094,-4.09375 0,-7.59375 -0.125,-2 0.125,-2.09375 0,-4.59375 -0.3125,-5 0.3125,-1.40625 0.5,-1.59375 0.375,-0.8125 1.3125,-1.90625 0.5,-0.5 4.5937,-3.78125 0.7188,-1.21875 1.1875,-3.6875 1.1875,-3.40625 0.3125,-1.09375 2.5937,-4 0.062,-0.125 -3586.375,0 -2.5937,2.03125 -3,0.78125 -3.0937,1 -6.0938,1.8125 -9.0938,2.59375 -8.0937,1.09375 -7.625,0.3125 -8.1875,-5.8125 -2.25,-3.8125 -645.8438,0 -2,1.40625 -6.0937,1.5 -7.125,4.125 -22.2813,14.28125 -4.5937,-1 -4,1.09375 -6.625,5.625 -10.1875,2.59375 -2.5,0.5 -14.6875,3.09375 -5.125,1.09375 -9.5937,2 -8.1876,3.59375 -5.5,1.625 -5.5937,2.5 -3.625,2.09375 -3,2.5 -3.5,6.6875 -5.0937,4.59375 -4.5,3.5 -3.0938,1.125 -5.0938,1 -7.5937,-1 -0.5,-2 4.5937,-1.625 9.5938,-0.5 4.5938,-5.59375 4.5,-4.59375 0.5,-4.59375 -5.5938,3.09375 -7.5938,4.09375 -20.2187,12.8125 -10.6875,2 -11.6875,4.6875 -9.625,3.59375 -9.6875,-2 -10.5938,0 -10.7187,0.625 -12.1875,3.09375 -8.0938,1.5 -3.5937,-2 -14.8125,-13.09375 -8.0938,-9.71875 -1.5937,-4.5 -3,-2.09375 -3.125,0.59375 -3,-5.09375 -6.0937,-0.5 -7.6876,-0.5 -9.5937,2.59375 -2.5,1.5 -4.625,2.09375 -9.0937,1 -9.1876,0.625 -7.0937,2.09375 -11.7187,2 -9.5938,-3 -19.8125,0.0937 -15.7813,-5.5 -8.0937,-2 -9.7187,-4.09375 -7.5938,-7.59375 -23,-17.71875 -15.1875,-7.5 -14.2187,-2 -10.6876,-0.5 -15.3124,-2 -5,0 -5.0938,-0.40625 -12.5625,-1.90625 -77.4375,0 0.094,0.625 -0.5938,-0.625 -914.5,0 z m 1089.8125,13.8125 0.5937,3.5 6.5938,8.59375 3.0938,3.125 5,2 6.5937,-0.125 5.7187,8.21875 1.5,0.5 6.5938,0.40625 8.0938,4.09375 3.0937,0.5 7.625,-2.09375 4.0937,-0.5 9.0938,1 5.0938,-1.625 -6.0938,-4.5 -8.1875,-3 -9.625,-3.09375 -6.5937,0.0937 -12.1876,-3.5 -2.0937,-0.5 3.5937,7.125 0.5,3 -3,-1 -1.5937,-2.5 -1,-2.625 -1,-2.5 -7.125,-3 -4.0937,-1.5 -5.5938,-3.59375 -3.0938,-3 -5.5937,-3.5 z"
     id="rect6"
     inkscape:connector-curvature="0" />
  <path
	 style="fill:#9FAEC0"
	 stroke="#9FAEC0"
	 stroke-width="10"
	 transform="translate(0, 75)"
     d="m 501.5938,1592.5938 -0.7813,4.3124 -1,5.0938 -1,1.5 -2,3.0938 -1.625,0.5 -2,1 0,2 0.5,1.5 -0.5,1.5937 -1,0.5 -1.5,0.5 -1.5937,-0.5 -0.5,0 -1,1.5 1,2.5 -0.5,2.125 -1,2 0,1 0.5,1.5 0,2.0937 -0.5,1.5 -1,2 0.5,2 1,0.5 1.5937,-0.5 0.5,2.5938 0,3 -1.0937,3.5938 -0.5,2.5 -1.5,1 -1.5,0.5 -1,1 -0.5,1.5937 0,1 -1.5938,1 -1.5,2 0,2.125 0.5,2 -0.5,1.5 0,1.5 1,1 1.5938,0 1,0.5 0.5,1.5937 -0.5,0.5 -1.5,0 -1,0.5 -0.5938,0 -0.5,2 0,6.5938 -0.5,1.5 -1,1.5 0,4.0938 1,3 2.0938,1.5937 1.5,2 1,2.5 0.5,4.125 0.5937,3.5 0,3.5937 1,4 -0.5,2.5938 -1.5,1.5 0,1 1,1.5 1,1 2,3.0938 2.125,3 0.5,3.0937 0,4.5 -1.5,5.625 -1,8.5937 -3.125,12.6876 -2,9.0937 -2,8.7187 -2.0937,9.0938 -2.5,5.0938 -1,1 -2.5938,0 -0.5,0.5 -0.5,1 0.5,2 1.5938,1.5937 1,0.5 2.5,0.5 2.0937,-0.5 2.5,0 1.5,1 2.125,2.5 1,2.5 1,4.125 0.5,1.5 0,3.0937 -1,2 -1,2.5 -1,2.5938 -1,6 -1,3.0938 -1,3.5 -1.125,4.0937 -1,3.5 -0.5,3.625 0.5,5.0937 0.125,2 -0.625,2.5 1.125,1.5 2,-0.5 1.5,-0.5 1.5937,-1.5 1.5,-1 1,-1.5 1,-2.0937 2,-2 1.5938,-1.5 2,0 2,2 5.0938,3 3.5937,1.5937 6.125,-1.5937 5.5937,0 5.0938,1.5 4.5938,7.0937 1,4.0938 -1,2 -3.5938,3.0938 -2,3 1.5,3.5937 1.0938,4.5 0.5,3.625 -2.5938,3 -3.5,5.0937 -1,2.5 -2.0938,3.5938 0,1.5 1.0938,1 4.5,2 8.1875,0 2,1.5 6.7187,5.5938 7.0938,3 7.5938,1.5 3.0937,-1.5 2,-3.5 1.5,-5.0938 2.625,-2.5 2,-1.5938 3.5937,-1 3,1.5 -3,3.5938 -4.0937,1 -1,7.5938 -6.625,5.5937 -6.0937,0 -5.0938,-1 -3.0938,-1 -3.5,-2 -4.5937,-3.0937 -4.125,-3 -3.0937,0 -5,-1 -6.6876,-1.5 -4.5937,-2.5938 0,-6 2.5937,-4.0938 5.0938,-7.0937 0.5,-3.625 -1.0938,-5.5 -2,-3.0937 -2.5,-1 -1.5937,0.5 -2.5,5.5937 -1,2 -2.625,1.625 -1.5,2 0,1.5 1,1 0,1 -0.5,1.0937 -1,0.5 -1,-0.5 -1.5,0 -1.5937,-1.0937 0,-1.5 1,-2 2.5937,-4.125 1,-4.5 1.5,-2.5937 1.5,-2 2.625,-1.5 1,-0.5 1,0 0,-1.5 -2,-0.5 -3.125,0.5 -2.5,1.5 -2.5937,0.5 -3,-3.5938 -1,-2.5 -0.5938,-1 0,-1.5 -0.5,-3.5938 -1,-0.5 -6.5938,4.5938 -5.0937,2.5 -5.125,1.5938 0,3.5 -1,4.5937 -0.5,3.5 0,4.125 -0.5,4 0,4.5937 -1,4.0938 -1,5.5 -0.5,8.6875 -0.5,7 -0.5,5.625 -1.5,4.5937 -1,7.0938 0,6.0938 -0.5,6.5937 -1.5937,5 -1,5.125 -1.5,5.0937 0,5 -0.5,6.0938 -1,4.5938 -0.5,3.5 -1,4.0937 -1,2.5 -1.5938,2.625 0.094,5 0,9.1875 0.5,7.0938 0,7 0.5,6.0937 -0.5,5.125 0,9.5937 -1,5.0938 -0.5,5.5938 -1,9.5937 -1,4.125 0,2.5 1,3.5 0,3.5937 0.5,2.5 0.5,0.5 2.0937,1 1.5,0 0.5,-2 -0.5,-2 0,-4.0937 5.625,-5.125 6.0937,-3.5 5.5938,-7.0937 3.5938,-0.5 2,-2 2,-1.0938 4.0937,3.0938 2.125,2.5 1,2 1.5,2.5937 1.5,-1.0937 1.5937,-2 3.5,0.5 1,4.0937 0.5938,1.5 -2.0938,4.625 -0.5,6 -1,2.5937 -1.5,2.5 2,1.5 9.1876,2 2.5,-0.5 5.0937,3.0938 5.7187,6.5 -4.0937,0 -5.125,-1 -6.5937,0.5938 -6.1876,-1.5938 -2,1.5938 -2.5,6.0937 -0.5,-1.0937 -2.5937,-10.5938 -2.625,-5.5938 -2,1 -1,-1 -1,-6 -2.0937,-2.5937 -2,-1.5 -3.0938,1 -0.5,2.5937 0.5,5.5 -1.5,5.5938 -1.5,2 -1,0 -0.5,-0.5 1,-1.5 0.5,-1.5 0,-3.5938 1,-1.5 -1.5,-3 -0.5,-1.5 0.5,-2.5937 1,-0.5 0,-1 -1.5,-1.5 -1.5938,0.5 -0.5,1.5 0,1.5 -1.5,1.0937 -3.0937,2.5 -3,1.5 -2.125,2.5 -1.5,1.0938 -1,0.5 -2,0.5 -1.0937,1 -3,2 -0.5,2.0938 0.5,3 -1.5,5.5937 -1,7.125 -1.5,7.5937 -1.0938,4.5 -0.5,4.0938 -0.5,2.5 -1,2.5 -1.5,3.5938 -0.5,2 1,3.0937 0,6.625 -1,3 -0.5,2 -0.5,1.5 -0.5,4.0937 -1.5,8.5938 -1,3.5938 -1.5938,3.5 -1.5,5.0937 0.5,5 -1.5,3.625 -1.5,2.5 -1,2.5937 0,2 -1,3.5 -1.5937,3.0938 -2,3 -0.5,2 0.5,3.0938 2,3 2.0937,0.5 1,1 -0.5,1.5937 0,1 -1.5,0.5 -1.5937,1 -2,2 -0.5,3.625 -1.5,3.5 -1,3.0937 -0.5,3 -0.5,4 0,2.0938 1,2.5 1,1.5 0.5,1.5 -1.5,2.0938 -0.5,0.5 -2.125,1.5 -0.5,1 0.5,2 1.125,1.5937 1,3 0.5,2.5 0,1 0.5,1.625 1,1.5 0,2 -1,2.5 -1,3.5937 -1,2.5 -0.5,4.5938 0,3 -0.5,4.0938 0.5,2 1,6.0937 0,4.5 -1,3.625 0,5.5937 -1,2.5 -0.5,2.5 -0.5,4.5938 0,5.5938 -0.5,2 0,2.5 -0.5,4.0937 -0.5,5 0.5,5.125 -1,8.5937 -0.5,4.5938 -0.5,3.5 0.5,2.5 0.5,3.0938 -0.5,4 -0.5,1.5937 -1,5.5 -1.5,9.125 -2,10.6875 -1.5,3.5 -1.625,1 -1.5,2.0938 -1,2 0,1.5 1.5,2 1,1.5937 -0.5,1.5 0,7.625 -1.5313,3.0625 5735.0625,0 2.2813,-1.1875 4.4062,-1.5937 4.4063,-1.6876 1.7812,-0.5937 4.5,-2.2187 2.5,-1.1876 2.0938,-1.3124 4.125,-4 0.5,-0.5 1.875,-2.0938 3.2187,-4.4062 0.4063,-0.5938 1.375,-4.5938 0.625,-2 0.6875,-3.4062 0.6875,-5.1875 0.125,-1.125 0.2812,-2.5 0.2188,-2 0.1875,-2.5937 0.3125,-2.4063 0.2812,-1.6875 1.2188,-3.8125 0.094,-1.5 0.094,-1.1875 0.5,-1 1.9062,-3 0.6875,-1 2.4063,-3.6875 0.9062,-1.4063 0.5938,-1.0937 2.9062,-8.625 0.6875,0 1.4063,-4.6875 0,-6.0938 -0.9063,-6 -3.6875,-4.8124 -0.9062,-0.7813 -3.6875,-3.4063 -11.8125,-7.3124 -4.4063,-2.2813 -1.5937,-0.8125 -3.6875,-2 -2.9063,-1.5938 -5,-2.0937 -2.7187,-0.2187 -4.375,-0.2813 -5.3125,0.6875 -4.4063,0.5938 -3.1875,-1.0938 -1.5,-0.5 -0.4062,-0.1875 -0.4063,-0.5 -2.9062,-5.7187 -0.7813,-3.5 -1,-4.5 -0.4062,-2.4063 0,-1.0937 0.1875,-4.0938 -0.2813,-9.5 0,-0.6875 0.2813,-2.4063 0.3125,-1.9062 -0.8125,-6.1875 -1.7813,-4.7187 -0.4062,-0.4063 -2.9063,-2.6875 -3,-2.9062 -4.9062,-1.9063 -1.375,-0.5 -1.2188,-0.094 -2.4062,0.094 -6.5938,0.2187 -5.5937,0.1876 -0.5938,0.094 -5.5,-0.7813 -5.3125,-0.5937 -1.9062,-0.3125 -4.1875,-0.3125 -4,1.5 -0.4063,0.3125 -1.1875,1 -1.2187,1.1875 -2.6875,5.2187 -1.1875,5.0938 -0.9063,1.5 -2.0937,3.4062 -2.8125,0.5938 -0.4063,0.094 -3.1875,-2.2813 -6,-4.625 -2.5937,-1.5937 -5.625,-3.2813 -1.1875,-0.7187 -4.0938,-4.6876 -1.5,-1.7187 -1.7187,-2.2813 -2.7813,-7.0937 -3.7187,-8.4063 -1.875,-4.9062 -5.625,-3.6875 -1.5938,-1 -7,-3.9063 -1.9062,-0.4062 -1.2813,-0.3125 -1.3125,-0.1875 -2.1875,0 -0.7187,0.3125 -4.375,2.5 -3.5,5.6875 -1.5,4.3125 -0.4063,0.7813 -4.0937,7.0937 -2.3125,4.5 -1,0.625 -2.3125,1.5 -0.875,0.2813 -1.625,0.094 -3.0938,0.3125 -0.4062,0 -4.2813,-1.9062 -5.4062,-1.0938 -5.5,-0.9062 -1.0938,-0.1876 -6.9062,-2.7187 -9.0938,-7.2813 -0.9062,-0.9062 -5.3125,-5.9062 -1.5,-3.5938 -1,-2.5 -4.1875,-5.0938 -6.0938,-5.0937 -1.3125,-2.5 -1.9062,-4.2187 -0.2813,-3.0938 0.2813,-0.6875 0.5,-1.3125 2.125,-2.8125 0.7812,-1 4.0938,-2.875 3.4062,-3.7187 0.9063,-1.2813 4.0937,-6.9063 1.2188,-2.3124 2.1875,-4.4063 0.5937,-1.5937 0.8125,-3.4063 0.1875,-1.0937 0.5,-4.4063 -1,-4.5937 -1.9062,-5.0938 -0.1875,-0.5 -4.3125,-5.9062 -4.0938,-5.5938 -0.4062,-0.5938 -5.2813,-4.3124 -2.4062,-2.0938 -2.5938,-2.1875 -5.2187,-3.9063 -1.875,-1.4062 -4.9063,-4.1875 -1,-1.625 -7,-11.875 -0.5937,-1 -1,-3.625 0.1875,-1 1.5937,-6.7813 0.094,-0.5 1.9062,-3.5 0.7188,-1.5 1.6875,-2.7187 4.5,-5.0937 2.1875,-3.4063 0.4062,-0.5937 2.3125,-4.5938 1.9063,-6.8125 0.2812,-1.0937 1.0938,-5.6876 0.4062,-0.4062 0.3125,-0.5 -0.094,-2.5 -0.5,-3.4062 -0.3125,-5.1876 -0.094,-3.5 -0.4062,-4.5937 -0.094,-4.5 0,-1 -1.5,-8.625 -1.4062,-2.7813 -2.0938,-4.3124 -0.4062,-0.5938 -1.4063,-4.3125 -0.5,-1.0937 -1.5937,-4.0938 -0.6875,-4.5 -0.3125,-2.0938 1.5937,-5.2187 2.9063,-2.6875 5,-1 0.4062,-0.094 3.0938,-1.5 2.3125,-1.2187 2.1875,-1.375 0.9062,-0.8125 2,-2.8125 0.7813,-1.0937 1.5,-4.2813 1.2187,-3.125 1.4063,-4.0937 1.1875,-5.4063 0.5,-2.5 3.3125,-6.7813 2.2812,-2.2187 1.0938,-1 3.4062,-2.0937 0.9063,-0.5 3.0937,-0.7813 1,-0.3125 4,-1 0.5,-0.094 2.8125,-1.4062 2.1875,-1.3125 0.8125,-0.5937 2.7813,-4.2813 0.4062,-0.625 1.5,-2.375 0.8125,-1.625 0.1875,-0.7813 1.0938,-5.5937 1.4062,-8.125 0.7188,-4.7813 0.094,-0.8124 -0.2187,-1.1876 -0.6875,-5.5 -0.4063,-1.5 -0.6875,-3.5 1.4063,-7.0937 0.7812,-0.625 0.9063,-0.6875 1,-0.9062 3.8125,-3.5 0.5,-0.4063 2.7812,-2.875 2.0938,-3.125 0.5,-0.7813 1.9062,-7.3124 0.5,-2.1876 0.094,-6.2187 0.7187,-6.0937 -0.2187,-2.2813 0.125,-2.3125 -0.5,-4 -0.125,-1.3125 0.4062,-4.375 0.094,-1.625 2.8125,-8.375 2.0937,-3.4063 1.0938,-1.9062 1.5,-2 2.2187,-3 1.2813,-1.8125 0.9062,-1.375 1.3125,-2.9063 2.6875,-8.0937 0.9063,-6.5 -0.5,-7.3125 -0.4063,-4.5 1.3125,-3.5 1.7813,-3.5938 0.625,-0.7187 4.5937,-4.375 2.1875,-4.2187 1.5,-4 -0.094,-3.0938 -0.1875,-4.1875 0.1875,-4.625 1.5937,-4.1875 0.4063,-1.0938 2.8125,-4.3124 1.0937,-1.7813 1.5938,-3.125 3.0937,-5 1.8125,-2.7813 0,-5.5937 0.4063,-7.625 0.094,-5.5 0,-1.1875 0.5,-2 1,-2.1875 0.2813,-0.625 1.9062,-1.1875 3,-2.5938 2,-3.5937 1,-2.7187 0.7188,-1.6876 0.7812,-2.3124 0.4063,-0.6876 1.5,-1.3124 4.1875,-3.5 0.9062,-0.7813 4.2188,-3.125 1.0937,-0.7813 2.7813,-1.4062 7.125,-3.0938 0.875,-0.4062 5.2187,-1.1875 5.5938,-1.2187 4,-0.9063 0.6875,-0.1875 3.8125,-2.4062 3.5,-2.4063 1.1875,-0.875 5.125,-6 1.6875,-2.125 1.6875,-1.5937 2.8125,-2.9063 0.6875,-0.6875 1,-0.5 8.625,-3.8125 1.375,-0.5937 8.3125,-3.5938 1.4062,-0.5938 3.9063,-2.4062 0.5937,-0.3125 2.5,-4.375 0,-1.5 0.7813,-2.8125 -0.2813,-0.6875 0.094,-3.625 -0.4062,-4.5937 -0.094,-0.9063 1.3125,-4.5937 1.1875,-4.1876 0.6875,-0.8124 2,-3.1876 3.1562,-4.3124 -5637.7499,0 z"
     id="rect8"
     inkscape:connector-curvature="0" />
  <path
	 style="fill:#9FAEC0"
	 stroke="#9FAEC0"
	 stroke-width="10"
	 transform="translate(0, 50)"
     d="m 411.6562,2398.875 -0.9687,1.9375 0,1.5937 1.5,1 0.625,1.5 -0.625,4 0.625,3.0938 1,3 0,3.5938 -1.5,5.5 -1.5,7.0937 -1.125,10.2187 -1.5,8.0938 -1,8.0938 0,7.0937 -2,6.5 0,7.125 -0.5,7.0937 -0.5,2 -1.5,6.0938 -2,8.5938 -1.5937,4.0937 -1,3 0.5,0.5 1.0937,4.625 3,2 2.625,2.5 0.5,-0.5 0.5,-2 0.5,-1.5 0,-2 0.5,-2.125 0.5,0 1,1.5 0,4.625 -0.5,2 -1,2.5937 -0.5,2 0.5,2 1.5937,7.0938 1.5,3.5 1.5,6.5938 0,2.5937 -1,6.5 -1.5,4.625 0,8.0937 3.5938,4.5 3.5938,4.0938 4.5937,2 3,-1.5 2.125,-3.5938 4.5,-1.5 3.0937,-3.5 5.5938,-1 1.5,1 0.5,-4.5937 1.5938,-4.5 2.5,-2.625 3.5937,-2.5 2,-2 3.125,-2.0937 1,-2 -0.5,-2.5 3,1.5 2.0937,3 0,2.5937 -4.0937,5 -2.5,1.5 -4.625,1.125 -2.5937,1.5 -1,3.5 0,2.5937 1.5,1 2.0937,0.5 4.125,-2.0937 7.5937,-3.5 10.6876,-4.625 4.5937,-2 4.625,-1 5.5937,-0.5 3,0.5 -1,2 -2.5,1 -4.5937,2.5 -8.7187,1.125 -0.5,0 -4.5938,1.5 -4.5938,2.5 -1,0.5 -0.5,1 4.0938,0 1,1.0937 0.5,1 -1.5,1.5 -1.5,1 -2.0938,1 -0.5,2.5 0.5,2.0938 0,1.5 -0.5,3.5 -1,2.0938 -0.5,2.5 -1,1.5 -2,1 -0.5,-0.5 -0.5937,-1 -0.5,-1.5 1,-2.5 0.5937,-4.0938 -1.5937,-1.5 -6.625,-1.5 -6.0937,0 -3.5938,-2 -2,3 -0.5,1 -3.5938,0 -2.0937,0.5 -1,1.5 -3,1.0938 -5.125,0 -6.0937,-2.5938 -2.0938,-2 -7.0938,-6 -1.0937,-11.1875 0.5,-4 2.5937,-7.125 -0.5,-3.0937 -4.2187,-22.1876 -3.5,-2.5937 0.5,5.0937 0,4.0938 -1.5,5 -1.5,6.0938 -0.5937,4 -1,9.2187 -1.5,11.5937 0,7.0938 -0.5,5.5938 -3,17.2187 -1,7.5937 -0.5,7.5938 -1,6 -1.5,10.6875 -1,7.125 -1.5,7.5937 -0.5938,5 -1.5,5.0938 -1,3.5 -1,1.5 -0.5,3.5938 0.5,2 0,6.5937 -1,3 -0.5,1.625 1,1 1,0 2.0938,-0.5 1.5,0 0.5,1.5 0,1 -1.5,0.5 -1,0 -2.5938,1 -1.5,1.5 -1,2.0937 -0.5,6 -0.5,3.5938 -0.5,3.5 -1.5938,4.5938 -1.5,7.0937 -1,9.625 -2,12.0937 -1,5.5938 -0.5,3 0,1.5938 1,0.5 1.5,-0.5938 1.5938,1.0938 0,1 1,0.5 -3.0938,1 -1.5,0.5 -0.5,1.5 -1.5,4.0937 -1.5,8.125 -3.0937,11.0937 -1.5,10.5938 -2,7.5938 -1,5.5937 -1.625,6.625 -1,5.5 -1,6.5937 -0.5,4.5938 -1.5,3.5 -1,2.5938 -1,3.5 -0.5,4.5 -1.5937,4.5937 -2.5,10.125 -1.5,6.0937 -0.5,4 -0.5,2.0938 -1,5.5 -1.0938,5.0938 -1.5,4.5937 -1.5,6 -2,4.625 -2.0938,5.5937 -1,3 -1,4.5 0.5,2.0938 6.0938,-5.0938 8.1875,-13.7187 9.7187,-4.5 6.5938,-5.5937 2,-5.5938 -2.5938,-6.5 -1,-3.5938 1.5,-3 -1,-3.5937 2.0938,-3 -2.0938,-3.5 5.0938,-11.2187 4.0938,-5 2.5,-2.5938 0.5,-0.5 12.3124,-4 3,-0.5938 L 395,2815 l 5.6875,6 5.625,12.6875 0,5.5 -1,4.625 0,3 1.5,3.0937 4.0937,-2.0937 7.1876,1 2.5,1.5937 1,2 5.5937,0 2.625,-1.5937 4.5937,-4.5 1.5,4.5 -2.5,5.5937 -0.5,3 -2.5937,1.0938 -1,3 3.5937,1.5 9.6876,4 9.2187,3.5938 12.6875,0.5 2.0938,0 17.8124,-2.0938 19.4063,1.5 10.6875,4.5938 10.8125,1.5 7.5937,6.5 6.0938,3.0937 13.3125,7 5.5937,5.125 6.1876,13.5937 -0.5,2.5938 -3.0938,-1.0938 -2.5,-4 -7.1875,-11.5937 -1,-1.5 -15.3125,-6.125 -12.8125,-4 -13.2813,-9.0937 -12.7187,-1.5 -8.6875,-1 -8.1875,0.5 -10.2187,0 -12.6876,2.5937 -9.7187,0 -18.875,-12.6875 -3.625,-1.5 -3.5937,-2 -4.5938,-1.5 -3,0 -1.5938,1.5 -2,1 -0.5,-3 -1,-5.5938 -5.0937,-5.5 -7.2187,-5.0937 -0.5,0 -0.5,-6.625 -2.0938,-8.5937 -3.0938,-0.5 -2.5,1.5937 -3.0937,4 -3,7.625 -1,5.5937 -1.5,1 -2.625,1 0.5,2 -1.5,2.5938 0,4 -3.5937,1 0,3.5938 0.5937,1.5 1,1.5 1,2 -3.5937,1 -2,4.5937 -3.5938,2.5 -5.0938,1.5 -4,2.125 -3.0937,1 -0.5,4 2,4.5937 -3,4 -4.125,1.0938 -1.5,-2.5938 -3.0937,2.0938 -4.5938,4 -3.5,3 -0.5,2.0938 0,4 -1.0938,1 -1.5,0.5 -1.5,1 -1,2.5937 0,2 -0.5,2.5 0,5.125 -1.5937,3 -1,5.0937 -1,3.5 0,2.5938 -0.5,4 -1,4.0938 -1.5,5 -1.5,5.0937 -0.5,6.125 -1.625,4.5 -1,4.5937 -1.5,6.5 -1,6.0938 -1,5.0938 -2.5937,5.5 -1.5,6.0937 -1.5,5.625 -1,3.5 -0.5,4.5937 -1,2 0,4.5938 -1.5,1.9062 0,1.1876 -1.5938,3.9062 -0.5,1 -2,4.5938 -1.5,5.0937 -1.0938,4 -1.5,3.625 -0.5,4 -1,4 -2,6.0937 -3.5937,10.0938 -3.5,9.0938 -2.125,4.5937 -1.5,5.625 -1,5.5 -2,4.5937 -2.0937,4.5 -2,4.5938 -2,5.5938 -2.5938,6.5 -3,8.0937 -4.0938,11.7187 -2.5,5 -2.5937,7.5938 -1.5,2.5 -1.5,3.0938 -1.625,1.5 -1,1.5 0,2 -0.5,3.5937 -2,4.5 -4.0937,7.125 -5.0938,11.0937 -4.5938,10.1876 -3.1874,6.0937 11.6562,0 0.2188,-1.0937 1.5937,-0.5 1.5,-1 6.625,-3.0938 1,-3 0,-6.5938 1.5937,-4.5 2,-2.5 4.0938,-5.5937 5.0938,-5.625 7.5937,-2 3.625,-1 4.0937,-1 2,-1 0.5,-4.5937 1,-2 5.0938,3.5 3.5938,1.5 1.5,-1.5 1,-6.0938 0,-2.5 0.5,-5 1.5937,-4.0938 1,-2.5 0.5,-3.0937 0.5,-2.5 0.5,1 3.125,4.0937 4.5937,-0.5 2,0 2.5938,-1.0937 1,-3 4.5938,0 1.5,-0.5 1.5,-4.125 1.5,-5.5 1.0937,-2 2,-1.0937 2.625,0 3.5,1 -0.5,2.0937 -2.5,2 -2.125,0.5 -1,2 -2,5.125 -1,3.5 -2.5937,3.5937 -5.5938,3.5 -5.0938,4.0938 -4.5937,4 0,4.0938 2.0937,3 4.5938,0.5 4.0938,0 2.5,4 1.5937,3.5937 1.5,3 2.125,2.5 4.5,0 4.0937,0.5 -2.5,3.125 -2.0937,1.5 -1.5,3.5 -2.5,4.0937 0,2 0.5,2 0.5,2.5938 0.5,1.5 -1.5,1.5 0,1 1,0.5 4.0937,3 3.0938,1 0.031,0.1875 5799.7501,0 -10.7813,-220.375 -6.0937,-130.125 -5.0938,-107.6875 -1.5,-31.3125 -0.125,-1.5 0.125,-1.0937 1.7813,-7 0.4062,-1.2813 1.5,-5.625 0.3125,-1.375 -3.7187,-3.125 -5.7813,-4.1875 1.7813,-9 5.9062,-6.0938 3.6875,2.6876 5.2188,-0.5938 1.9062,-2.5938 -1,-3.5937 -0.7187,-4.8125 -2.0938,-2.5 -5.5937,-3.0938 -1,-3.8124 8.4062,-4.5938 9.5938,-2.3125 6.5,0.625 5.2812,-3.5 0.7188,-3.9063 -0.5938,-7.5937 -0.2187,-5.3125 0.9062,-4.1875 1,-4 1.3125,-5.7187 0.5938,-2.6876 1.6875,-5.5937 1,-1.8125 2.5937,-4.0938 1,-1.5 1.625,-1.8124 1.7813,-2.5 0.5937,-0.9063 1.2188,-4 0.2812,-4.0937 -0.2812,-3.6876 0,-4 -0.4063,-2.7187 -1.1875,-1.2813 -1.9062,-2.4062 -0.9063,-0.8125 -1.6875,-2.5937 -1.7187,-2.7813 0.5937,-4 3,-6.4063 0.5,-0.5937 1.4063,-3 0,-3.9063 -0.9063,-1.5 -0.5,-0.7187 -1.875,-0.875 -0.9062,-0.625 -3.0938,-0.875 -3.625,-0.8125 -2.6875,-2.9062 -0.3125,-1.9063 0.9063,-2 2.4062,-2.375 2.6875,-2 2.625,-1.9063 2.7813,-1.8124 1.0937,-0.6876 2.3125,-2.3124 0.5938,-0.5 1.8125,-2.7813 3.5937,-5.4063 1.4063,-2 0.9062,-0.5 3.5,-1.4062 0.5,-0.3125 1.875,-0.6875 0.7188,-0.5938 0.9062,-1.5937 0.875,-3.4063 -1,-1.8124 -1.2812,-2.5 -2.0938,-4.0938 -0.9062,-4 -0.4063,-1.5 0.3125,-0.5 0.7813,-1.8125 1.2187,-1.7813 0.6875,-1.2187 2,-1.6875 1.5938,-5.1875 -0.5938,-5.4063 -0.3125,-3.5937 -0.875,-4 -1.625,-3.5 -1.875,-4.5 -4.8125,-3.625 -2.5937,-2 -2.2188,-1.6875 -4.375,-2.5 -4.125,-2.3125 -3,-1.6875 -3.2812,-2.6875 -0.2188,-0.625 -1.5,-3.5937 -0.875,-1.9063 -1.3125,-10.5937 -0.5,-3.0938 -0.1875,-3.4062 -0.2187,-2.6876 -0.9063,-4.5 0.125,-1.8124 0.375,-5.9063 1.9063,-2.5937 0.4062,-0.5938 5,-2.5 1.2188,-0.625 -5735.0626,0 z m -119.0624,771.8125 -9.1876,4 -2.5937,1.625 -2.5,4 -3.625,4.0937 -3.5,7 -1.5937,1.5938 -3.5,4 -6.0938,3.5938 -1.0938,2.5 -0.75,2.0937 52.0626,0 0.7812,-2.6875 -0.5,-6.5 -2.5938,-7.0938 1,-5.5937 1.5938,-4 1,-4.625 -3.0938,-2.5 -6.0937,-0.5 -2.625,0 -4.0937,-0.5 -3,-0.5 z"
     id="rect10"
     inkscape:connector-curvature="0" />
  <path
	 style="fill:#9FAEC0"
	 stroke="#9FAEC0"
	 stroke-width="10"
	 transform="translate(0, 25)"
     d="m 231.7188,3205.1875 -1.8126,3.5 -2.5937,3.5 -1.5,5.625 -2.625,3.5 -2.5,3.0937 -1.5,2.5 -1.5937,3.5 -2,3.0938 -1.5,3 -1,3 -2.0938,2.5938 2.5938,2 1.5,0.5 2.5937,-0.5 2.5,-1 3.125,-5.0938 1,-1.5 1,-1 -0.5,-6.0938 3,-3.5 1.5937,-3.0937 0.5,-3.5 2,-0.5 0.5,-1 2.0938,-2.625 2,-1 1.5,-2.5 0.5,-0.5 1.0938,-1 2,-1.5 1,-0.5 0.5,-1.5937 0.2812,-1.4063 -11.6562,0 z m 26.4374,0 -1.25,3.5 -2.5,5.5 -4.0937,7.125 -3.125,3 -3,1.0937 0,1.5 -1,5.5 -1,5.0938 -3.0937,4.5 -3.0938,0.094 -3.5,0.5 -2.0938,1 -1.5,2.5 -1,3 -1.5,3.0937 -0.5,2.5 -1.0937,1.5 0,5.125 -0.5,2.5 -1,2 0.5,2 2.0937,0.5937 2.5,-2.0937 3.0938,-2.5 3,-2.5 3.5938,-0.5 1.5,0.5 2.0937,2.5 2.5,2.5 1.625,1.5 1,0.5 1.5,-0.5 2.0937,-1 0.5,1 -1,1.5 0,3.5937 -1.5937,1.5 -5.125,-4 -2,-0.5 -1.5,-2.0937 -1.0937,-2 -0.5,-1 -1,0.5 -2,4.0937 -1.0938,-2.0937 -1.5,0.5 -2,1 -1.0938,1.5937 0.094,2.5 -3.5938,-1.5 -2.5937,2 0,2 4.0937,4.5938 1.5938,3 0,2 -3.5938,0 -2.0937,0.5 -0.5,1.0938 -0.5,2 0.5,1 0.5937,1 0.5,0 1,0.5 1.5,-0.5 0.5,0 0.5,0.5 -1.5,1.5 -1,2.5 3.5938,3.5937 0,1.5 -1,4.125 -0.5,3 2,2.5 1.5,3.5 0.094,3.5937 3,2 -2,2 0,6.5938 -1.5,0 -1.0938,-1.5 -0.5,-7.0938 -1,-3 -3.0938,-7.0937 0,-3.5 0.5,-3.125 -0.5,-1.5 -1,-0.5 -1,0.5 -0.5,6.125 0,2 0.5,2 0,2.0937 1,1.5 0.5,1 0,4 -0.5,1.5 -1,-1 -1,0 -0.5,1.5 0,5.0938 -2.0937,0 -0.5,-5.5938 1.5,-3 -3,-3.5 1.5,-1 0.5,-1.0937 0.5,-1 -1.5,-1 -1.625,0 0,-2 1.125,-1 1,-1.5 1,-2.625 1,-2 -1,-1.5 -1.5,0.5 -1.125,0.5 -1,-1 1,-2.5 1,-5.0937 -0.5,-3.5 0.5,-2 2.125,-3.0938 -0.5,-1 -1.125,-0.5 -1,1.5 -2,1.5 -1.5937,1.0938 -1,1 -2.5,0.5 2.5,-2.5938 2.5937,-3.5 1,-1.5 -1.5,-3 1.5,-1.5938 0.5,-0.5 -1,-1.5 1.5,-2.5 0,-3.5937 3.125,-2 1.5,-4.5 -1.625,-4.125 -1.5,-1 -0.5,0 -0.5,-3 -1,-1.5 -4.5937,0.5 -2.0938,-0.5 -4.0938,-2 -2,1.5 -1,2.5 -2.0937,2 -2,1.5 -2,2.125 -3.125,0.5 -2,0 -1.5937,-0.5 -1.5,0 -1,0.5 -1,1.5 -1.5938,1.5 -2,0.5 -1.5,0 -1.5938,-0.5 -1.5,0.5 -0.5,0.5 0,2.0937 1,1.5 -0.5,2 -2,0.5 -3.0937,1 -1.5,1 -1.625,1 -1.5,2.0938 0,5 -1,1 -2,1 -1.5937,1.5938 -0.5,2.5 0,2 -1.5,0.5 -1,0 -1,2 -0.5938,2.0937 -1,2.5 -1.5,0.5 -1,1.5 0,3.625 1.5,1 1,0.5 1.0938,0.5 1,1.5 0.5,2 1.5,4.5937 0.5937,3.5 2,2.5 1.5,2.5938 -0.5,4 0,7.5938 0.625,1.5 2,2.5 0.5,2.0937 0.5,3 -1,3 -1.5,3.125 -1,4 -0.5,3.5 0,3.0937 -0.5,4 -1,3.5938 -2.625,6.5 -1,5.5938 -1,4.5 -1,3.0937 -1.5937,3.5 -0.5,4.625 0.5937,3.5 0,3 -1,3.5937 -0.5937,4.5 -1.5,5.5938 -1,9.0938 -1.5,10.0937 -2,5.125 -2.5938,6 -2,6.5937 -3.0938,7.0938 -0.5,4 -1.5,6.0938 -1,4 -1.5,2.5937 -1.5937,4 -1.5,2.5 -1,4.125 0,2 -2,4 -1.125,1.0937 -1,3 -1,4.5 -0.5,0.5 -1,3.0938 -1,0.5 -1,3.5 -2.0937,2.5938 -2,2.5 0,1.5 0.5,2 -1,4.0937 0,4 1.5,3.5 0.5,3.125 1.0937,2.5 -1.5937,3.5 -1,3.0937 -1.5,4.5 -0.5,2.5938 0,3.5 -0.5,5 -1,5.0938 -2.5938,11.0937 -2,11.625 -2.5,6.5937 -2.5938,7.5938 -2,5.5938 -0.5,6.5 0,4.0937 -2,4 -2.0937,3.625 -1.5,3 -1,4 0,1 -1,2.5937 -1,3.5 -1.625,3.5938 -1.5,2.5 -1.5,4.5 -2,7.5938 -3.5937,8.5937 -2.5,8.125 -2.0938,6.5937 -2.5,6 -3.0938,5.5938 -5.5937,15.6875 -5.625,12.625 -5.0937,10.5937 -7.5938,13.5938 -5.5938,8.0938 -2,4.5937 -3.0937,6.625 -4.125,6 -3.5,4.5937 -1.5937,1.5 -1.5,1.5 -1.5,0 -1.5938,0.5 -0.5,0.5 0,3 1.0938,2.5938 -1.0938,4.5 -2.5,5.5938 -2,3.5 -0.5,3 1,4.5937 -3.5938,-1.5 -2.5,2 -0.5,3.5 -3.0937,4.625 -3.125,2.5 -3,1 -2.5937,0 -0.5,-1 -1.5,-0.5 -1.5938,1 -1,2.5937 0.5,2 2.5938,1 3.0937,0.5 3.5,3.5 7.2187,6.5938 4.5938,5.5 3.0938,7.5938 2,5.5937 2.0937,5 1.5,6.125 1.625,6.5937 1,6.5 1,5.5938 0.094,7.5938 1,7.5 1.5938,8.0937 0.5,7.625 1,4 0.5,5.0937 0,3.5 -1,3.0938 1,3.5 0.5938,3.5 -0.5,1.5 0,1.5938 2,-0.5938 1,-1.5 1.5,-1.5 1.5937,-3 2,-1.5 2.625,-0.5 1.5,0 1.5,-1.0938 1.5937,-1 2,0.5 3.5938,1.5938 6.5938,5.5 5.2187,6.0938 2.5,4.5 1.0937,4.0937 -0.5,3.5 1,2.5 1.5,2.5 1.5938,2.125 1,3 1,5 0.5,3.5937 1.0938,4 1,1 0.5,1.5 0,3.0938 1,3 4.0937,2.5 1.625,3.0938 -0.5,1.5 -1.125,2 0,3 -0.5,1.5 -1.5,2.5937 0,3 1,2 2.125,0.5 3.5937,0.5 3.5,2 2.5938,2.625 6.1875,4.5 1.6563,1.1875 6064.1562,0 -2.3125,-42.8125 -1.1875,-24.6875 -3,-61.0938 -2.1875,-59.5937 -1.125,-19.9063 -1,-16.5937 -0.6875,-11.5 -1.5,-31.3125 -2.3125,-48.4062 -1.5,-32.2813 -3.375,-70 -0.4063,-8.3125 -0.3125,-8.4062 -1.5937,-32.2813 -2.4063,-49 -0.6875,-12.9063 -0.5937,-18.9062 -0.625,-11.9062 -4,-84.6876 -0.7813,-16.0937 -7.125,-145.625 -5799.75,0 0.4688,3.9063 -0.5,4 1,0 5.0938,2.0937 3.5937,2.5 0,3.5 1,2 2.625,3.125 2,3 1.0937,3.5 -0.5,4.0937 -1.0937,3 0.5937,3.0938 -0.5937,1 -6.125,-1.5 -2.5,-2.5938 -1.0937,-7 0,-3.0937 -1,-1 -1,0 -4.0938,3 -3.0938,1.0937 -9.7187,-1.5 -1.5,-0.5937 -1,1.0937 -2.5937,4 -0.5,-3.5 0.5,-4.5937 -1.5,-3.5 -5.0938,-5.125 -1.0938,-1.5 1.0938,-3.5 1,-4.0937 1,-2.5 0.7188,-2.4063 -52.0626,0 z"
     id="rect12"
     inkscape:connector-curvature="0" />
  <path
	 style="fill:#9FAEC0"
	 stroke="#9FAEC0"
	 stroke-width="10"
     d="m 107.3438,4011.5 1.8437,1.3125 2.125,0.5 2,0 1.5937,1 1,3.0937 2,5 0.5938,2 -0.5,4.5938 -0.5938,1 -0.5,3.5 0.5938,1.5 -1.0938,1.5938 0.5938,1 2,1.5 2.5938,2 0.5,2.5 0,3.5937 -1,3 2,1 1.5,2 0.5937,4.125 0.5,5 0,5.5937 -0.5,6 0,5.0938 -0.5,3 -1.5,3.5 -1,1.0938 -2.0937,-0.5938 -0.5,1.0938 0.5,3 2.0937,0.5 2,0.5 2.125,2 1.5,3 0.5,3.0937 1.5937,4 -1.0937,1.5 -1,1.5 1.0937,2.125 1,0 1,2 0.5,2.5 0.5,3.5 0,5.0937 -3,7.5938 -2.5,9.0938 -2.5937,8 -2.5,10.0937 -4.125,9.125 -2.5,6.0937 -3.0937,6.5938 -2,5.5 -2.0938,6.0938 -1.5,4.5 -1.5,2 -1,1.5937 1,3 0.5,3.5 -1,3.125 -1,2 0,3 0.5,1.5 -1.5,2.5 -1,1.5937 1.5,3.5 0.5,5 -0.5,2.5938 -0.5,2 -2,1 -1.0938,2.5 1.5938,2.5938 0,1.5 -1,2.5 -2.5938,4.5 -2.5,7.0937 -3.5937,7.125 -1,5.5 1,4.5937 2.0937,4 2,1.5 5.6876,-1.5 7.0937,-1.5 4.125,-1 2.5937,-4.5937 3,-2 5.5938,0 7.1875,-3 2.5,-7.125 3.625,-2 0.5,7 0,6.125 -3.5,3.5 -13.3125,2.0937 -3.5938,1.5 -2.5,1.5 -3.5937,3 -5.125,1.0938 -5.0937,2 -4.0938,0.5 -1,2.5 0,6.5938 0.5,10.0937 0,19.7187 -0.5,6 -0.5,6.5938 0.5938,7 0,6.0938 -0.5,6.0937 -1.5,5 -1,6.625 0.5,2 -1,2 -0.5938,1.5 0.5938,3.0937 0,2.5 -1,3 -1.5938,1.5 -1,1 -1.5,3.5938 0,6 1.5,2.5 1.0938,0.5938 1,-0.5938 1.5,-1 2.0937,0 2,1.5938 2.625,2.5 1.5,2.5 1,2 1.5937,5.5937 1,5 0,3.5 1.5938,5.625 0.5,6.5937 0,4.5 -0.5,4.5 0,10.5938 0.5,2.0938 -1,2 -0.5,3 0.5,2.5 0,4.0937 -1,2.5 -1.5,2.5 -0.5,1 -0.5,3.125 0.5,1.5 2,2 2.5938,2 1,2.5 1.5937,2.5937 1,2 2.125,2 1.5,2 1.5,2.5 0,1.5 1.5937,0.5938 2,2 0.5,2 1.5938,1.5 2,0.5 1.0938,4 1.5,3.5938 2.0937,2.5 0,3.5 -0.5,3.0937 -1.0937,2 1.0937,2 1.5,1 1,1.5 0.5,2.5 -1,2.625 0,4 -0.5,2 2.125,2 2,1.5937 1.0937,3.5 3,5 0,2.5938 0.5938,1.5 1,1.5 1,1 -0.5,3.5 0.5,2 0,2.5938 -1,3 -1.5,1 -0.5,2 1,1.5 0.5,2.0937 0.5,3.5 -0.5,2 -1,1 -1.5,0.5 -1.5938,0.5 0.094,2 1,3.125 1,3 1.5938,4 0.5,2.0937 2,2 1.5937,3 1,3 1,3.0938 0.5,2 -0.5,3 -0.5,2 0,4.5938 -0.5,3 -1,2 -1.5,1.5 0,1.5 0.5,2.5937 1.5,2 0.625,1 1,3 0.5,2.5 -0.5,1.625 -1,3 0.5,2 1,1 2.5937,0.5 1,0.5 0.5,0.5 1.0938,1 0.5,2.5937 2,3 3.0938,4 2.5937,3 3.625,3.5938 2,1.5 1.5937,2.5 1.5,3 2.0938,4.5938 0.5,2.5 1,2 2.0938,2 2,2 2.5937,2.0937 4.625,3 2,2 1.0937,4 0.5,4.125 0.5,2.5 1.5,1 2.0938,1 2.5938,1 1.5,1 0.5,1.5 -0.5,2.5937 2,0.5 2.0937,-0.5 1.5,1.5 6.7187,-1.5 6.0938,3 3.0938,3 2.5937,4.5 1.5,3.0938 2.125,1.5 1,2 0.5,3.5 2.0937,0.5 2,0.5 1,0.5 2.0938,0.5 2,1.5 3.0938,3.0938 2.0937,3 1.5,3 1.625,2.5 4.0937,2.5937 4.5938,4.5 3.5938,3 2,3.125 1.0937,4 24,1.5 45,3.5937 8.7187,0.5938 9.2813,0.3125 0.5,0.094 24.125,0.7813 55.6875,2.4063 7.1875,0 10.2187,0.5 21.5938,0.5 1.9062,0.094 62.0938,2.3125 53.5938,2.3125 25.7187,0.7813 11.0937,0.3124 1.5938,0 62.9062,2.5 10.9063,0.4063 23.875,1 26.125,-3.625 87.1875,3.125 49.0938,1.6875 41.3124,1.4062 47.7813,1.1876 4.4063,0.2187 9.5,0.5 1.2187,-0.125 0.5937,0 48.7813,-1.1875 11.8125,-0.3125 26.8125,-0.6875 13.5937,-0.5938 2.2813,-0.094 24.3125,-1.4063 35,-2.2187 53.8125,6 16.875,1.9063 1.3125,0.094 14.5938,0.2187 16.3124,0.1876 93.5,1 141.1876,1.9062 14.9062,0.094 27.8125,0.2187 33.2813,0.5 31.7187,0.2813 2.875,0.094 14,-0.1875 48.125,-0.8125 142.1875,-0.094 3.0938,0.3124 32.2187,0.5938 16.875,0.4062 15.4063,0.2813 18.8124,0.4063 30.2813,0.5 16.4063,0.2187 1.4062,0.094 13.9062,0.5 14.4063,0.5 1.375,0 18.9063,0.7813 15,0.4063 7.5937,0.2187 111.625,4.375 36.875,1.4063 37.8125,1.4062 1.0938,0 2.5937,0.094 55.3125,1.3124 107.4062,2.2813 11.7813,0.4063 4.7187,0.4062 8.5,0.5938 22.1876,0.2187 9.0937,0.2813 112,2.3124 21.7187,0.094 88.5,0.1875 6.5,0 2.1876,0.125 14.2187,0.094 2.1875,0 14.6875,0.1876 41.625,0.4062 14.2813,0.094 8,0.094 89.0937,0 1.2187,0.125 86.5938,4.5937 16.0938,-0.2187 25.0937,-0.1875 57.3125,-0.4062 242,-1.5938 48.9062,-0.3125 35.2813,-0.2813 48.9063,-0.4062 111.8124,-1.1875 13.5,-0.2187 5.6876,0 67.3124,-1.1876 79.2813,-1 7.9063,-0.094 8.4062,-0.125 33.8125,-0.6875 6.875,0 21.5,-0.094 115.125,-2.4062 0.5937,0 28.6876,-0.3125 10.5937,0 16.4063,0.125 2.7187,0 22.5,0.094 107.2813,-0.7187 64.2187,-0.094 41.1875,-0.094 1.0938,0 2,-0.5 5.4062,0.1875 1.1875,0 114.125,-3.1875 26.875,-0.6875 148.8125,-4 80.4062,-2.4063 116.1876,-1.7187 108.7187,-2.2813 3.375,-0.094 149.8125,-5.8125 134.8125,-5.0938 65.375,-2.5937 30.8125,-1.2187 64.9062,-2.6876 16.9063,-0.7187 15.2812,-0.5937 33.3125,-1.4063 16.4063,-0.6875 47,-2.0938 29.6875,-1.4062 19.4062,-0.6875 76.6875,-3.4063 80.8125,-3.2187 18.5,-0.7813 27.5,-1.2187 0.5938,0 47.5,-2 5.6875,-0.2813 32.2187,-1.3124 15.4063,-0.6876 28.5,-1.2187 3.6875,-0.1875 44.5,-2.0938 23.4062,-1.0937 21.5938,-0.9063 11.5937,-0.5937 74.0938,-2.8125 94.3125,-4.3125 46.0937,-2.6875 166.2188,-9.3125 0.5,0 -0.125,-0.6875 -2.375,-49.5 -0.5,-9.5938 -0.3125,-7 -3.6875,-80.7187 -0.7188,-16.1875 -6.9062,-148.8125 -2.2813,-51.5 -1.2187,-22.6875 -1.875,-36.8125 -0.8125,-16.5937 -1,-19.6876 -0.6875,-13.7187 -0.4063,-9.5 -3.3125,-75.6875 -3.2812,-67.6875 -3.125,-70.7187 -0.6875,-12.5938 -6064.1562,0 z"
     id="rect14"
     inkscape:connector-curvature="0" />
</svg>
