<?xml version="1.0" encoding="UTF-8" standalone="no"?>
<svg
   xmlns:dc="http://purl.org/dc/elements/1.1/"
   xmlns:cc="http://creativecommons.org/ns#"
   xmlns:rdf="http://www.w3.org/1999/02/22-rdf-syntax-ns#"
   xmlns:svg="http://www.w3.org/2000/svg"
   xmlns="http://www.w3.org/2000/svg"
   xmlns:sodipodi="http://sodipodi.sourceforge.net/DTD/sodipodi-0.dtd"
   xmlns:inkscape="http://www.inkscape.org/namespaces/inkscape"
   width="4950.3125"
   height="2839.7188"
   viewBox="0 0 4950.3125 2839.7188"
   id="svg2"
   version="1.1"
   inkscape:version="0.48.1 "
   sodipodi:docname="AJAX.svg">
  <metadata
     id="metadata20">
    <rdf:RDF>
      <cc:Work
         rdf:about="">
        <dc:format>image/svg+xml</dc:format>
        <dc:type
           rdf:resource="http://purl.org/dc/dcmitype/StillImage" />
      </cc:Work>
    </rdf:RDF>
  </metadata>
  <defs
     id="defs18" />
  <sodipodi:namedview
     pagecolor="#ffffff"
     bordercolor="#666666"
     borderopacity="1"
     objecttolerance="10"
     gridtolerance="10"
     guidetolerance="10"
     inkscape:pageopacity="0"
     inkscape:pageshadow="2"
     inkscape:window-width="1280"
     inkscape:window-height="1004"
     id="namedview16"
     showgrid="false"
     fit-margin-top="0"
     fit-margin-left="0"
     fit-margin-right="0"
     fit-margin-bottom="0"
     inkscape:zoom="0.13768412"
     inkscape:cx="2382.5243"
     inkscape:cy="832.71008"
     inkscape:window-x="-8"
     inkscape:window-y="-8"
     inkscape:window-maximized="1"
     inkscape:current-layer="svg2" />
  <path
	 style="fill:#9FAEC0"
	 stroke="#9FAEC0"
	 stroke-width="10"
	 transform="translate(0, 125)"
     d="m 700.75,0 -3.25,2.21875 -9.6875,3.59375 -6.7187,2.5 -8.0938,4.125 -5.0938,5 -8.7187,6.59375 -7.1875,5 -7.0938,3.59375 -4.5937,2.5 -9.7187,3.59375 -5.0938,2 -4.0938,-1 -5.7187,-2.5 -7.0937,0 -4.5938,3 -7.1875,6.09375 -5.625,4 -7.0937,3.125 -6.1876,2 -9.2187,2 -7.0937,3.59375 -4.0938,3.5 -4.0938,4.09375 -8.7187,4 -10.1875,4.59375 -8.6875,5 -6.625,4.59375 -6.1875,4.5 -6.5938,5.625 -6.7187,4.5 -8.0937,5.59375 -3.5938,3.5 -4.5938,3.09375 -13.3124,5 -7.6876,4.09375 -4,2.5 -6.2187,2.5 -2.5,1.5 -3.0937,0.5 -2.5938,-1 -2.5,-1 -5.5938,0.5 -0.5937,2.09375 -1.5,3.5 -4.625,3 -9.6875,4.625 -4.0938,2.5 -5.0937,3.59375 -8.7187,3 -8.1876,4 -5.0937,2.09375 -4.625,1.5 -5.0937,1 -3.0938,-2.5 0.5,-5.09375 2.0938,-2 3,-1 2.0937,-3 1.5,-2.59375 1,-4 0.5,-3.5 4.125,-1 2.0937,-1.625 2.5,-5 2.5938,-2 3.5938,-1 6.5937,-0.0937 5.125,0 3.5937,-0.5 3.0938,-0.5 3,-0.5 0.5,-2.5 1.0938,-2.5 1.5,-2 2.5937,-1.59375 2,2.09375 3.125,2 4.5937,-0.5 1.5,-1.09375 0,-2.5 -1,-3 0.5,-3.5 0.5,-4.09375 -3.0937,-1.5 -5.125,1 -8.1875,-1 -2.5,-2.5 -3.5938,1 -5.0937,4.09375 -4.125,4 -3.5937,3.5 -6.0938,-0.5 -5.0938,1.59375 -4.5937,1.5 -1.125,2.5 -1,6.09375 -5.0937,10.125 -3.5,5.5 -6.1876,9.09375 -3,5.59375 -2.0937,5 -2,4.59375 -2.625,3.5 -7.5937,3.5 -14.2813,9.59375 -13.3125,6.625 -10.8125,3.59375 -13.2813,5 -12.2187,9.59375 -11.7813,7.59375 -14.3124,8.59375 -15.2813,7.125 -12.8125,5.5 -15.8125,6.59375 -10.7813,4 -22,4.59375 -2.5,1 -11.3124,7.59375 -4.5938,3 -15.3125,4.59375 -9.1875,3 -8.1875,4.125 -6.125,5 -13.2813,5.09375 -10.3124,4.5 -10.6876,2 L 75.0938,299.43755 71,399.0313 l -1,42.90625 -0.875,32.6875 4503.4688,0 -0.6876,-0.6875 -1.5937,-1 -2.5,-1 -2.125,-1.5 -1.6875,-0.90625 -0.6875,-0.5 -1.2187,-1.09375 -1.5,-1.625 -1.2813,-2.1875 -0.8125,-2.5 0.094,-2.8125 -0.1876,-4 0,-4 -0.5,-1.78125 -0.094,-2 -1.125,-1.5 -2.0937,-0.90625 -3.0938,-0.90625 -3.4062,-0.40625 -2.6876,-0.5 -2.4062,-0.59375 -2.8125,-1.28125 -2.2813,-2.125 -1.4062,-0.78125 -1,-0.5 -1.8125,-0.5 -0.375,-0.21875 -3.4063,0.90625 -2.0937,0.40625 -0.7187,0.0937 -3.2813,0.59375 -2.8125,-0.375 -2.5938,-1 -2.2187,-2.21875 -1.875,-3.28125 -1.125,-4.3125 -0.094,-2.59375 -0.4063,-2.21875 -0.375,-3.09375 -1.4063,-2.09375 -1.5937,-1 -2,0 -1.8125,0.8125 -1.9062,1.59375 -0.7813,1.78125 -1.125,2.5 -1.7813,2.3125 -2.0937,0.90625 -3,-1 -1.5,-1.5 -2.125,-1.59375 -3.0937,-1.40625 -4.7813,-1.21875 -2.4063,0.125 -0.5,0.0937 -2.2187,0.5 -1.875,0.40625 -0.5,0.1875 -2.625,2 -1.875,3 -2.625,2.09375 -1.5,1.09375 -2,1.125 -2.0937,-0.40625 -2.5938,-1.5 -1.5,-1.3125 -1,-1 -1.5938,-1 -1.5937,-1.09375 -4.125,0.1875 -1.6875,0.21875 -1.9062,0.40625 -3,0.875 -2.5,0.5 -3.1876,0.3125 -1.4062,-0.6875 -1.9062,-2.21875 -0.7813,-1.59375 -0.3125,-2.8125 0.5,-2.1875 1,-1.59375 1.0938,-1.71875 0.2187,-2.1875 -0.4063,-1.90625 -0.5937,-2 -1,-3.5 -1.125,-2.1875 -1.5,-0.8125 -2.6875,-1.6875 -0.4062,-0.21875 -2.5,-2.09375 -1.2813,-2.5 -0.125,-3.09375 1,-2 1.4063,-2.09375 1,-3 0.4062,-2 0,-3 -0.1875,-2.90625 -0.5,-2.6875 -1.625,-3 -1.875,-3 -1.5,-3 -1.125,-4.5 -0.5,-4 0,-2.625 -1.5937,-4 -0.9063,-3.09375 -0.875,-2.28125 -2.3125,-2.625 -3.5938,-3.78125 -3.0937,-3.40625 -2.125,-2.40625 -0.5937,-1.09375 -0.4063,-0.90625 -1.1875,-1.09375 -1.5,0.0937 -1.5938,0.40625 -1.9062,1.1875 -2,1.5 -1.5,1 -2.5938,0.71875 -0.5,-0.3125 -1.5937,-0.6875 -2,-0.59375 -1.5,-1.5 -2.125,-3.625 -1.5,-2.09375 -1.5937,-2.40625 -3.9063,-5.6875 -4.7813,-3.8125 -3.0937,-1.5 -1.625,-1 -2,-0.78125 -1.1875,-1.40625 -1,-1.5 -0.6875,-1.40625 -0.4063,-1.6875 0.6876,-2.21875 0.5,-1.09375 0.5,-1 0.7187,-2 -0.2187,-2.5 -0.5938,-2.5 -0.5,-3.40625 -2.0938,-2.875 -1.5937,-2 -3.125,-2.5 -5.1875,-2.3125 -106.6875,3.1875 -95.3125,2.8125 -2.5938,0.0937 -1.0937,0 -131.3125,3.40625 -72.5938,1.8125 -212.9062,4.1875 -8.6875,0 -25,0.5 -195.4063,3.90625 -69.0937,0.0937 -72.2187,0 -7.1876,0.0937 -28.5937,-0.0937 -42.5,0 -206.2187,1.8125 -10.7813,0.28125 -16.2187,0.21875 -29.7813,0.5 -122.8125,2.59375 -52.5,1.40625 -217.6875,0.375 -141,1.90625 -65.2188,0.8125 -12.1875,0.1875 -40,0.0937 -97.2187,0.21875 -80.875,0.0937 -23.2188,-0.1875 -177.5937,-1.625 -14.8125,0 -53.0938,-0.0937 -12.7812,-0.40625 -31.7188,0.21875 -115.2812,-0.5 -120.2188,-0.40625 -93.0937,-0.5 -10.8125,-0.0937 -139.6875,-1.71875 -18,-0.1875 -20.9063,0 -7.6875,-0.0937 -16.9062,-0.3125 -53.3125,-0.78125 -72.0938,-0.8125 -91.6875,-1 -216.49995,-3.59375 -73.40625,-1.59375 -125.3125,-3 0.40625,-24.71875 0.5,-30.28125 2.90625,-153 2.5,-85.4375 -7.25,0 z"
     id="rect4"
     inkscape:connector-curvature="0" />
  <path
	 style="fill:#9FAEC0"
	 stroke="#9FAEC0"
	 stroke-width="10"
	 transform="translate(0, 100)"
     d="m 69.125,474.625 -2.2188,81.90625 -1.3124,43.28125 -1.5,49 -4.9063,144.21875 -0.375,7.09375 0,2.90625 -0.4063,16.90625 -0.2187,11.375 L 58,841.4375 54.9062,949.25 l 4860.5,0 -0.094,-0.125 -3.5,-4.09375 -1.9063,-2.71875 -1,-2.59375 -1.5937,-2.90625 -1.8125,-1.28125 -2.5938,-1.90625 -3.5,-1.09375 -2.5937,-0.5 -3.625,-1 -2.5,-1.40625 -2.1875,-1.8125 -1.5,-2.28125 -1.5,-4.5 -1.1875,-3.09375 0.094,-1 0.2813,-2.21875 0.2187,-2.5 0.5,-2.28125 1,-3.625 1,-7 -1.2187,-2.78125 -1.5937,-1.3125 -2.5,-0.59375 -1.9063,0.1875 -2.1875,1.90625 -1.5,1.40625 -2.4062,2.3125 -2.0938,1 -1.5,0 -4.0938,0.1875 -3.5937,-1.09375 -0.625,-0.21875 -4.0937,-1 -3.5,0.625 -0.5,0.1875 -3.0938,0.90625 -3,1.59375 -3.0938,1.59375 -3.5937,0 -2,-0.40625 -2.125,-1.59375 -2.1875,-4.28125 -1.3125,-2.71875 -1.375,-2.78125 -1.625,-3 -1.0937,-3 -1.5938,-2.40625 -2.0938,-1 -3.0937,0.0937 -3,1.59375 -2.625,2.5 -1.5,1.40625 -2.375,1.8125 -2,1.59375 -1.8125,1 -1,0.5 -2.5938,0.1875 -1.5,-0.40625 -3.3124,-1.09375 -2.2813,-2 -3.2187,-2.28125 -0.2813,-0.3125 -3.8125,-2.1875 -5.0938,-2.5 -4.5,-0.71875 -2.4062,-0.28125 -0.6875,-0.125 -3.125,1.125 -3.5,2.09375 -4.6875,2 -5.0938,2.1875 -5.4062,0.21875 -2.3125,-0.90625 -1.5,-1.90625 -0.375,-2.59375 0.375,-2.5 1.9063,-2.09375 1.5,-3 -0.1876,-2.71875 -1.3124,-2.1875 -1.6876,-1.71875 -0.8124,-0.59375 -0.9063,-0.6875 -2.2813,-1 -3,-1.09375 -0.7187,-0.625 -2.375,-2.28125 -2.625,-4 -0.5,-2.8125 -1.1875,-3 -1.5,-2.5 -2.5,-1.1875 -2.1875,-1.21875 -2.625,-1.375 -3.5937,-2.125 -2.9063,-2.28125 -3,-1.71875 -3.1875,-0.78125 -3,0.6875 -3.9062,1.8125 -2.7813,2.59375 -3.2187,2 -4.0938,1.5 -5.5938,0.8125 -7,-1.3125 -4.8124,-0.90625 -3.0938,-2.09375 -2.1875,-2.3125 -0.625,-4 0.4063,-5.09375 0.8124,-6.59375 0.5938,-4.09375 -0.1875,-1 -0.125,-1.5 -0.375,-2.90625 -1.9063,-2 -2,-2 -3.0937,0 -3.125,1 -2.5,0.59375 -2.5937,-0.5 -0.5,-0.59375 -1,-1.40625 1,-2.28125 0.5,-2.3125 0.4062,-1.3125 0,-2.6875 -0.5938,-2.3125 -1.2187,-2.875 -1.7813,-2.8125 -2.0937,-2.5 -4.625,-3.09375 -3.5937,-1.40625 -2,-1.5 -1.5938,-2 -0.9062,-2.59375 -0.1876,-2.90625 1.0938,-1.59375 1.4062,-1.40625 0.6876,-0.40625 1.2187,-1.6875 0.5,-2.59375 -0.8125,-3 -1.5,-3.5 -2.0938,-3.5 -2.7187,-3.90625 -4.0937,-4.09375 -2.6876,-2.21875 -2.9062,-1.5 -2.5,-3.09375 -1.6875,-1.09375 -1.9063,-4.21875 -2.8124,-6.1875 -1,-1.8125 -2.6876,-3.78125 -1.9062,-2.21875 -2.1875,-3.09375 -2.7187,-1.6875 -2.5938,-1.5 -2.8125,-2.71875 -3,-4.1875 -1.6875,-2.1875 -1,-1.21875 -1.5938,-2.5 -0.5937,-3 0.5,-1 2,-1.59375 1.7813,0 2.5,0.3125 1.8124,-0.5 1,-1 1.0938,-2.40625 -0.1875,-2.5 1.375,-1.5 1.625,-1.8125 2.5937,1 1.4063,0.8125 2.0937,0 2.5,-0.59375 1.5,-2 0,-2 -1.5,-6 -1.0937,-4.125 -1.3125,-5 -0.8125,-7.59375 -1.0937,-9 -0.1876,-3.90625 -0.7187,-4.6875 -0.6875,-4 -1,-2.90625 -1.8125,-3.78125 -0.5,-0.625 -1.5,-2.5 -1.5,-1.6875 0,-1.8125 0.8125,-2.09375 1.3125,-1.6875 1.5,-2.59375 0.5,-2.5 0.094,-2.3125 -0.2187,-4.8125 -2.5937,-7 -0.2813,-0.5 -2.2187,-4 -2.5,-3.6875 -2.5938,-3 -2.0938,-2.90625 -0.5937,-3 1,-2.5 0.5,-0.1875 2,-0.5 3.1875,-0.71875 0.4062,-0.0937 0.9063,0.21875 1.1875,0.1875 2.5,-0.5 2.0938,-1 1,-2 -0.1876,-1.40625 -0.5937,-3.5 -1.2187,-3.28125 -1.0938,-3.71875 -1.0938,-4.78125 -0.2187,-5.3125 0.125,-4.1875 0,-4.125 -0.125,-5.78125 -1,-5.8125 -1.2813,-5.6875 -2.3124,-4.3125 -2.5,-4.1875 -2.6876,-2.40625 -4.5937,-2.40625 -4.125,-1 -3.5937,-0.5 -4.0938,0.5 -4.5938,0.59375 -3.5,0.40625 -2.5937,-0.90625 -2.7187,-2.6875 -1,-2.8125 -0.5938,-3 0.094,-3.59375 1.2187,-4.5 0.2813,-0.90625 0.5937,-1.59375 1.5,-3.09375 1.5,-2.09375 1.5,-1.5 1.5,-1.09375 2.5,-0.90625 2.125,-0.40625 0.375,-0.0937 2.125,0 0.5,-0.0937 2,-0.3125 0.5,-0.40625 1.5,-1.59375 1.6875,-1.6875 0.8125,-2.90625 0.6875,-2.71875 0.3125,-1.1875 0.2813,-2.1875 -0.1876,-2.125 -0.5,-2 -1,-1 -3.0937,-1.5 -2.625,-0.5 -4.0937,0 -2,0.5 -2.0938,-0.0937 -0.4062,0 -2.5938,-0.90625 -1.5938,-0.375 -1.3124,-1.3125 -4503.4688,0 z"
     id="rect6"
     inkscape:connector-curvature="0" />
  <path
	 style="fill:#9FAEC0"
	 stroke="#9FAEC0"
	 stroke-width="10"
	 transform="translate(0, 75)"
     d="m 54.9062,949.25 -1.7187,59.0625 -4,139.2188 -1.875,61.4062 -0.7187,24 -0.094,4.6875 -0.1875,7 -4.8125,164.3126 -0.4688,14.9374 4543.625,0 -0.25,-1.25 -1,-2 -1.5937,-1.5 -2,-0.5 -3.8125,-1.1874 -1.5938,-1 -1.8124,-0.7188 -2,-1.6875 -0.4063,-0.4063 -0.6875,-1.4062 -1,-2.0938 0.9062,-3 1.6876,-2.4062 1.2187,-2.2812 0.1875,-1.125 0,-4.2813 0.094,-2.8125 1.4062,-1.6875 2.5,-1.9063 3.5,-2.5937 4.4062,-3.9063 1.4063,-1.4062 3.5,-3.4062 4,-3.5938 6.0937,-2.5938 5.0938,-2.1875 4,-2.5 3.4062,-2 2.1876,-1.3125 1.2187,-0.6875 5.0937,-1.5 6.1876,-2.9063 6.5937,-3.7187 1.2187,-1 4.9063,-4.0938 1.375,-0.9062 1.7187,-1.0938 3.1876,-2 2,-1.5937 3,-2.6875 2.5,-1.9063 2,-2.5 2,-1.5 1.5937,-1.5937 1.3125,-1 0.1875,-2.4063 0,-1.5937 0.5,-2 0.5,-2.5 1.5,-1.625 3,-4 0.9063,-2.5938 1.7187,-5.6875 1,-1.8125 1,-2.5 0.875,-1.9062 1.5,-1.7813 1.5,-0.5937 1.9063,-0.9063 1.2187,-1.5937 1.7813,-1.9063 2.5,-2.0937 3,-1.7188 3.0937,-1.2812 2.4063,-1.5 3.5937,-1 3.125,-1.125 0.5,-0.375 2,-2.125 4.0937,-3.5938 3.0938,-4 1.5,-2.5937 1,-2.9063 0,-1.5937 -0.5,-1.5 -1.0938,-0.5 -2.2187,0.6875 -1.375,0.7187 -0.625,0.4063 -1.875,1.7812 -1.4063,1.7188 -2.7187,1.7812 -2.375,2 -2,0.5938 -2.2187,0.5 -1.5938,-0.2813 -1,-1.4062 -0.5,-1.5938 0,-1.2187 0.5,-1 1.5,-3.0938 0.3125,-0.9062 1.5,-3.5 2.2813,-6.1875 2.4062,-3.0938 2.5938,-3 0.4062,-0.5 1,-0.7187 2.5,-1.7813 0.9062,0 1.5938,-0.4062 2.5,-0.1875 1.3125,-0.625 2.2813,-1.375 2.4062,-2.7188 2.5,-1.4062 0.6875,-0.5938 2.8125,-2.1875 2.0938,-1.8125 0.9062,-1.4062 1.0938,-1.5938 0.4062,-2.0937 1.9062,-1.9063 0.9063,-1.0937 2,-1.0938 2.0937,-0.5937 2.9063,-1.8125 3.5937,-2.4063 4.9063,-4.2812 3.6875,-3 3.8125,-4.8125 3.375,-4.8125 1.9063,-3 2.7187,-4.7813 2.5,-6.5 1.375,-3.5937 1.125,-1.8125 1,-2.5938 1.1875,-1.7187 1.8125,-1.875 1.5,-1.4063 2.6875,-2 2.4062,-3.5937 1.5938,-2.5 0.3125,-0.9063 1.1875,-2.7187 0.6875,-1.875 0.4063,-2.3125 0.9062,-2.5938 0.9062,-3 2.4063,-5.0937 2.375,-5.2188 2,-4.5 1.3125,-2.6875 1.9062,-3.5937 1.4063,-2.5 0.6875,-1 0.5938,-1.5 1.0937,-3.5 0.4063,-2.5 -0.5938,-2 -0.5,-0.625 -0.5938,-1.0938 -2.0937,-2.4062 -1.9063,-2.5 -0.5,-3 0.094,-1.5 2.5,-3.875 0.8125,-2.3125 0.375,-3 0.9063,-2.5938 0.5,-2.2187 1.8124,-2.6875 1.5938,-2.5 2.5,-2.0938 1.9062,-0.9062 2.9063,-3.1875 1.5,-3.9063 -0.125,-1.0937 0.4063,-3.125 0.4062,-3 0.9062,-3.5938 1.2813,-2.1875 0.8125,-2.2187 0.094,-2.5 1,-3.0938 1.5,-2.2812 1.5,-2.7188 1.5,-3.1875 1.5937,-2.9062 1.5,-2.5 2,-2.5938 2.625,-2.5 0.2813,-0.3125 2.0937,-1.4062 2.5,-2.0938 3,-2.6875 3.9063,-3.0937 5,-4.3125 4.5937,-3 1.2187,-1.5938 0.5938,-0.7187 0.5,-0.875 0.5,-1.125 -0.094,-2 -0.5937,-1.5 -1,-1.5 -0.625,-1.5 0,-2.375 0.9063,-1.3125 1,-1.0938 2.0937,-1 2.4063,-0.5 2,-0.5 3.8124,0 3.0938,-0.9062 0.8125,-0.3125 2,-0.7813 2.6875,-1.2187 2.1875,-1.5938 1.625,-1.9062 1.2813,-3.5 1.0937,-3.5 1.3125,-3.28125 1.6875,-2.3125 0.7187,-1.28125 2.7813,-2.3125 2.625,-1.5 3.5937,-1.09375 3.5,-1 1.9063,-0.21875 2.6875,-0.28125 3.5938,0.5 3.7187,-0.0937 2.5,-0.625 3,-1.375 4.0937,-2.125 4,-2 4.1876,-1.59375 0.8124,-0.40625 2.6876,-1.59375 5.3124,-3.1875 3.4063,-2.59375 0.875,-2.5 0,-2 -1.0937,-2.5 -1.9063,-2.40625 -0.375,-0.40625 -2.125,-2.8125 -2,-1.78125 -2.1875,-2.5 -4.5938,-5.28125 -4860.5,0 z"
     id="rect8"
     inkscape:connector-curvature="0" />
  <path
	 style="fill:#9FAEC0"
	 stroke="#9FAEC0"
	 stroke-width="10"
	 transform="translate(0, 50)"
     d="m 41.0312,1423.875 -1.7187,56.5625 -0.5,16.5937 -1.625,51.5 -2,63 -4.7813,135.5 -0.4062,7.9063 -0.9062,26.1875 -0.1876,5.6875 -3.25,111.6875 4620.2188,0 -0.375,-2.2812 -1.0938,-4.0938 -1.8124,-3.3125 -3.6876,-3.375 -2.7187,-2.9063 -3.6875,-3.4063 -5.0938,-5.0937 -5,-5.2187 -3.2187,-3.2813 -1.5937,-1.5937 -2.4063,-2.125 -3.5937,-2.5 -5,-1.875 -6.7813,-2 -0.5,-0.125 -6.7187,-0.875 -7.1876,-0.5 -4.0937,0.5937 -1.5,0.4063 -3,1.5937 -2.125,1.5 -2.5937,2.0937 -2.7813,2.1876 -2.5,2.125 -3.9063,2.0937 -4.2187,0.7813 -4.5937,-0.5938 -3.5938,-1.0938 -3.5,-0.8124 -4.1875,-2.6876 -4.625,-4.5 -2.5,-5.4062 0,-4 0.5,-3.2812 1,-4.8126 0,-1.8124 -0.094,-2.1876 -1.2813,-4.8124 -1.2187,-5 -1.6876,-4.875 -2.2187,-3 -0.2813,-1.4063 -0.5937,-2.2187 -0.8125,-1.875 -0.094,-2.5 0.4063,-2 1.5,-1.125 2.5937,-1.0938 1.5,-0.2812 0.5938,-0.7188 0.9062,-1.2812 1,-3 0,-2.125 -0.4062,-5.2813 -0.6875,-4 -0.625,-2.5 -1.0937,-3.5937 -1.9063,-2.625 -1,-1.0938 -1.5937,-2 -1.5,-1 -0.5,-2 -0.094,-2.5 0.4062,-2.5938 0.6876,-1.9062 1.3124,-3.5 1.6876,-2.0938 2.5,-3 5.0937,-5.0937 2,-2.2187 2.3125,-2.375 0.9062,-3.125 0.4063,-3 -1.2187,-3.5938 -1.9063,-1.4062 -3.0937,-0.375 -4.1876,-0.5 -3.9062,-0.625 -3.5938,-1.5938 -2.3124,-1.9062 -1.2813,-2.2813 -1.125,-4.5 0.125,-1.0937 0.5937,-4.5 1.2813,-6.625 1.9063,-6.0938 2.7187,-6.2812 2,-3.5 2,-2.625 1.5,-1.5938 0.1875,-0.5938 0.8125,-2.0937 0.2813,-1.8125 0.4062,-1.5938 0.8125,-2.1874 1.5,-2.4063 0.5,-2.5937 -1,-3 -1.625,-2.5 -1.2813,-1.7188 -3.8124,-3.7812 -1.5,-1.2188 -1.6876,-1.6875 -1.4062,-2.2187 -1.0938,-3.2813 0.4063,-1.7187 1.0937,-2 3.0938,-2.875 4.5,-3.2188 3,-1.1875 2.6875,-1.8125 1.9063,-3.1875 1.5,-3 0.8124,-2.5937 0.4063,-3.125 0.5,-2 0.875,-1.7813 1.5,-2 2.125,-1.5 2.5937,-0.5 0.4063,-0.094 2.5,0 3.6875,0.375 3.5938,0.625 3.5937,1 3.2187,0.7812 0.4063,0.2188 3.5937,0.875 2.5,0.5 2.0938,-0.375 0.5,0 1,-0.625 0.4062,-0.5938 1.0938,-1.4062 1.6875,-2.2813 1.4063,-2.8125 1.3124,-2.9062 1.9063,-2.1876 1.5,-2 2.375,-2 3.2187,-0.8124 2.9063,-1.7813 1.5937,-1.5 3.2813,-4 2.4063,-4.0937 1.4062,-3.625 0.5,-2.0938 1,-2.9062 1,-2.375 0.4062,-0.5 4.1876,-4.2188 1.7187,-1.4062 2,-2.5 0.7813,-2.1876 1,-3.5 0,-4.5937 -0.2813,-1.4063 -0.7187,-3 -2.0938,-2.5937 -2.0938,-2.3125 -2.0937,-1.9062 -1.7187,-2.5 -1.0938,-2.5 -0.1875,-2.5 1,-3 1.5,-2.0938 1.5,-0.7812 3,-0.9063 3.0937,-0.5937 3.0938,-0.125 2.5938,0.9062 1.2187,0.2188 0.875,0.375 2.5,0.7187 2.125,-0.2187 2,-0.5 1.6875,-1.7813 0.9062,-1.8125 0.7813,-2.5 1.3125,-3.1875 1.4062,-1.8125 2.1876,-2.5 0.8124,-2.0938 1,-3 -0.2187,-3.8124 -1.5,-4.5938 -2.375,-4.9062 -4.2187,-4.7813 -2.5,-4.2187 -2.5938,-3.375 -0.4062,-0.4063 -1.6876,-2.5 -2.2187,-3.5 -1,-2.8125 -1.1875,-3 -0.3125,-3.2812 -1.0937,-3.5 -1.0938,-3.7188 -1,-3 -1.3125,-2.5 -2.1875,-2.9062 -2.0938,-2 -2,-0.7813 -2.2187,-1.3125 -2.0937,-2.0938 -1.9063,-2.3124 -3.1875,-5 -5.0938,-8.5 -4,-7.875 -2.7187,-3.4063 -1.0937,-2 -3.2813,-5.9063 -1.125,-2.5 -0.5937,-2.5 -0.094,-2 -0.3438,-1.75 -4543.625,0 z"
     id="rect10"
     inkscape:connector-curvature="0" />
  <path
	 style="fill:#9FAEC0"
	 stroke="#9FAEC0"
	 stroke-width="10"
	 transform="translate(0, 25)"
     d="m 25.6562,1898.5 -1.8437,64.125 -0.4063,11.5938 -2.4062,76 -3.5,125.5 -4.4062,140.3125 -1.7188,57.0937 4838.0312,0 0.2813,-0.1875 2.5,-2.2187 1.8125,-2.5939 0.9062,-3.5 0.5,-4.5936 1.5,-4 0.9063,-3.8125 1.7813,-3.4063 1.8124,-2.6875 2.0938,-2 2.5,-1.0937 3.0938,-1.0937 3.5937,-0.2188 3.625,0.9062 4.6875,1.6875 0.4062,0.2188 4.7813,2.1875 2.9063,0.8125 2.7187,0.4062 0.5937,0.1875 2.5938,-0.094 2.3125,-0.5936 2.0937,-1 2.0938,-1.8127 0.4062,-0.3123 2.0938,-2 2.5,-2 2.4062,-2.5 3,-2.0939 3.2813,-1.5 0.625,-0.2811 2.375,-1 4.2187,-0.625 3.7813,-0.1877 2.8125,-0.094 2.5938,-1 3.5,-2.5 3.5937,-3 4,-3.5936 3.9063,-4.2189 1.9062,-4.5937 0.4062,-0.8125 1.4063,-3.7813 -0.5,-6.3125 -1.9063,-4.5938 -2.7187,-4.4062 -3.5,-4.1875 -3.1875,-2.4063 -0.5938,-0.5937 -2.3124,-2.0937 -1.6876,-2 -0.9062,-0.4063 -3.6875,-1.4063 -2.125,-0.9062 -2.0937,-1.4062 -2.5938,-2.0938 -2.0938,-1.7812 -1.5937,-2.5 -0.8125,-1.8125 -1.1875,-3.0938 -0.4063,-2.5 -1.0937,-2.5 -2.2187,-2.9062 -2,-3.5 -1.5,-3.5 -1.5938,-3 -2,-3.5 -2.1875,-2.8125 -1,-1.0938 -2,-1.5938 -3.625,-3.1874 -2.5937,-1.3126 -5.0938,-4 -4.6875,-2.6874 -0.5,-0.3126 -4.2187,-2.5 -3.6876,-2 -4.5937,-2 -4.4063,-1.6874 -3.5937,-1.7188 -6.2187,-3.9062 -6.2813,-3.2813 -1.9063,-0.8125 -1.8124,-1.5938 -0.2813,-0.3124 -1.3125,-1.5938 -1.8125,-3 -2.5937,-4 -2.1876,-3.2812 -1.3124,-3.8126 -2,-3.6874 -1.7813,-4.2188 -1.7187,-5.1875 -2.4063,-5.9063 -2.0937,-4.5 -4.2813,-6.9062 -1.4063,-1.6875 -2.4062,-2.7187 -3.4062,-4.0938 -4.5,-5.0938 -4.2813,-5.1874 -2.4063,-1.4063 -2.0937,-1.4063 -2.5,-2 -2,-0.6874 -3.2187,-1.4063 -2,-0.4063 -2.5938,-0.5 -3.0938,-0.5 -3.5937,-1 -3.125,-1.6874 -0.5,-0.2188 -2.5,-2.1875 -3.375,-2.8125 -6.4063,-6.7812 -2.2187,-2.4063 -2.0937,-2.4063 -3,-3.4062 -3.5,-3.5 -2.1876,-3.4062 -1.0937,-3.5 -1.5,-7 -1.125,-7.6876 -2.375,-9.3124 -3.3125,-9.375 -2.4062,-5 -2.4063,-4.8126 -1.875,-3.6874 -1.8125,-3.4063 -1.8125,-2.7187 -1.5,-2.5938 -2.1875,-2.2812 -0.4062,-0.3126 -2.5938,-1.8124 -2.9062,-1.5938 -1.7813,-0.7812 -3.7187,-1.8126 -0.9063,-0.4062 -1.1875,-0.5938 -2.0938,-0.9062 -3.3124,-1.9062 -3.5938,-1 -2.0938,-0.2813 -0.8124,0 -2.2813,0.4063 -2.5,0.5937 -2.4063,0.9063 -5.5,2.6874 -4.4062,1.5 -2.5938,1 -4.0937,1 -2.5,0.094 -3.125,-1 -3.5937,-1.5938 -3.0938,-2.4062 -2.0938,-1.4062 -2.4062,-2.1876 -2.6875,-1.9062 -3.125,-1.5 -2,-0.5 -2.5937,-2 -2.1876,-1.4062 -0.9062,-2.0938 -1.0938,-3 -0.9062,-4.6875 -1.1875,-5 -0.125,-1.5 -0.1875,-0.5 -0.9062,-3 -1.4063,-3.4063 -1.5,-3 -1.1875,-3.8124 -0.5938,-3.6876 -0.3124,-2 0,-1.5937 0.5,-3 0,-3 0.9062,-3.5937 0.9062,-3 0.6876,-3.625 1.5,-8 0.4062,-2.5 0.9062,-4.5 0.094,-3.5938 -0.5938,-6 -0.3124,-9.0938 -0.7813,-9 -0.3125,-2.5937 -0.5,-2.0937 -0.5938,-3.5 -0.3124,-6 0.094,-0.9063 0.3125,-4.2187 -0.094,-1.875 -0.094,-2.625 0.2813,-5 -0.2188,-1.3126 -4620.2188,0 z"
     id="rect12"
     inkscape:connector-curvature="0" />
  <path
	 style="fill:#9FAEC0"
	 stroke="#9FAEC0"
	 stroke-width="10"
     d="m 11.375,2373.125 -0.062,2.5 -3.3125,98.4063 -2.0938,61.7813 -0.8124,37.7187 -4.6876,195 -0.4062,36.6875 79.5,2.2188 199.9062,5.1874 237,5.4063 50.6876,0.9063 80.4062,2 198.59375,4.5937 45.09375,0.9063 73.90625,0.7812 1,0.094 1,-0.094 57.99995,0.9062 240.5,3.0938 108.2188,0.7188 53.2812,0.375 36.4063,0.2187 40,0.094 236.4062,3.3126 90.1875,0.5 32.9063,0.094 114.8125,0.094 93.875,0 139.4063,-0.3124 228.2187,2.625 175.375,0.5937 6.625,0 57.5,0.1875 152.1875,-0.5938 80.5938,-0.4062 104,-1.1875 3.0937,-0.094 133.8125,-2.3126 44.0938,-0.8124 75.5937,-1.375 112.125,-1.8126 10.2813,-0.5937 125.5937,-1.0937 106.625,-2.3126 39.5,-1.1874 5.0937,0.375 9.1876,-0.7813 72.9062,-1.8125 106.5938,-2.6875 194.8124,-4.7187 13.0938,-0.2813 1.8125,-8.8125 3,-9.2812 4.1875,-9.625 4.8125,-9.0938 6.1875,-10.5938 8.0938,-11 9.2187,-10.8124 2.375,-2.2813 5.3125,-5.3125 10.0938,-9 10.7187,-9.5 12.875,-9.4062 9.625,-5.0938 16.1875,-8 0.5,-0.1875 13.1875,-5.2187 13.8125,-4.375 14.8125,-3.5 1.5,-0.4063 15.875,-2.4063 14.8125,-1.0937 11.6875,-0.3125 12.9063,0.2188 13.4062,1.875 11.8125,3 11.875,3.8124 14.5,4.4063 14,5.7813 11.5,5.2187 16.5,9.9063 7.125,4.0937 24,-19.3125 14.2813,-12.5 5.4062,-6.1875 6.5,-5.3125 5,-3.4062 4,-2.5 4.0938,-2.0938 1.4062,-0.5938 3.5938,-1.1874 4.0937,-1.3126 5.125,-0.5 5.0937,-0.1874 6.1876,0.2812 8.4062,1.3125 8.0938,1.0937 5.7187,-0.6874 5.1875,-0.8126 4.9062,-1.1874 5.5938,-1.7188 6.0938,-2 6,-1.5 6,-1.5938 10.2187,-4.0937 9.2813,-4.4063 6.0937,-4.0937 1.125,-0.8125 5.5,-4.9062 6.0937,-6.0938 1.4063,-2.2812 0.6875,-0.625 1.6875,-1.1876 0.8125,-0.5 1.8125,-1.5 2.7813,-1.1874 0.9062,-0.125 1.8125,-0.375 3.5937,-0.3126 6,0.4063 6.6876,0 5.8124,-0.4063 4.4063,-1.1874 2.6875,-0.8126 0.4062,-0.094 3.1876,-2.5 3.3124,-3.5937 0.6876,-0.625 2.3124,-3.5 2.4063,-4.0938 1.375,-3.5938 0.8125,-4.5 0.3125,-1.6874 0.2813,-3.3126 0,-4.5 -0.5938,-3 -1,-3.0937 -1.5,-4 -1.0938,-3 -1,-4.5 -1.0937,-4.5937 -0.5,-4.5 -0.5,-4 -0.625,-4.4063 0.5,-4 0.4063,-2.8125 1.0937,-3.4062 1.125,-2.5 2.5,-3.0938 3.0937,-3.4062 0.9063,-0.875 1.5937,-1.3126 4.5938,-3.5 6.6875,-4.6874 6.125,-2.4063 3.5,-1.5 6.5937,-2.2187 6.5938,-2.2813 5.5938,-3 3.9062,-3.4063 3.5,-3.3124 3,-3.6876 2.8125,-3.4062 1,-2.0938 0.5,-1 1.375,-3 1.4063,-3.0937 0.9062,-3.5937 2.0938,-3.5 1,-2.5 2.7187,-2.8126 1.875,-2.3124 3.125,-2 3.5,-2.0938 8.1875,-3 5.5,-2 5.1875,-2.7812 1.9063,-1.3126 2.8124,-2.0937 3.5938,-2.9063 0.4062,-0.3124 3.5938,-2.875 3.0938,-3 0.8124,-1.2188 2.1876,-2.9062 4.0937,-5.0938 2,-2.5 3,-2.5 3.5,-3.0938 2.2187,-2 1.2813,-1.1874 5,-3.2188 6.3125,-3.4062 10.1875,-7.2813 8,-5.8125 3.9063,-2.5 4.0937,-1 1.2187,0 2.9063,-0.094 5.6875,-0.5937 3,-0.4063 3.0938,-1.0937 3.0937,-1 3.625,-1 3,-1.0937 2.5937,-1.3126 4.0938,-1.5937 4.5938,-1.7187 3.7187,-1.5938 3.0937,-1.5938 3.0938,-1.4062 2.9062,-1.5 3,-1.5 1.5,-1.5938 1.9063,-2.0937 1.375,-2.2187 1.3125,-2.1876 1.8125,-2.1874 2,-2 2.2813,-1.9063 3.5937,-2 2.7187,-1.9063 -4838.0312,0 z"
     id="rect14"
     inkscape:connector-curvature="0" />
</svg>
