<?xml version="1.0" encoding="UTF-8" standalone="no"?>
<svg
   xmlns:dc="http://purl.org/dc/elements/1.1/"
   xmlns:cc="http://creativecommons.org/ns#"
   xmlns:rdf="http://www.w3.org/1999/02/22-rdf-syntax-ns#"
   xmlns:svg="http://www.w3.org/2000/svg"
   xmlns="http://www.w3.org/2000/svg"
   xmlns:sodipodi="http://sodipodi.sourceforge.net/DTD/sodipodi-0.dtd"
   xmlns:inkscape="http://www.inkscape.org/namespaces/inkscape"
   width="6416"
   height="9720"
   viewBox="0 0 6416 9720"
   id="svg2"
   version="1.1"
   inkscape:version="0.48.1 "
   sodipodi:docname="AJAX.svg">
  <metadata
     id="metadata20">
    <rdf:RDF>
      <cc:Work
         rdf:about="">
        <dc:format>image/svg+xml</dc:format>
        <dc:type
           rdf:resource="http://purl.org/dc/dcmitype/StillImage" />
      </cc:Work>
    </rdf:RDF>
  </metadata>
  <defs
     id="defs18" />
  <sodipodi:namedview
     pagecolor="#ffffff"
     bordercolor="#666666"
     borderopacity="1"
     objecttolerance="10"
     gridtolerance="10"
     guidetolerance="10"
     inkscape:pageopacity="0"
     inkscape:pageshadow="2"
     inkscape:window-width="1280"
     inkscape:window-height="1004"
     id="namedview16"
     showgrid="false"
     fit-margin-top="0"
     fit-margin-left="0"
     fit-margin-right="0"
     fit-margin-bottom="0"
     inkscape:zoom="0.068842059"
     inkscape:cx="5284.0672"
     inkscape:cy="4861.1205"
     inkscape:window-x="-8"
     inkscape:window-y="-8"
     inkscape:window-maximized="1"
     inkscape:current-layer="svg2" />
  <path
	 style="fill:#9FAEC0"
	 stroke="#9FAEC0"
	 stroke-width="10"
	 transform="translate(0, 125)"
     d="m 4233,0 -388,6 -594,22 -317,11 -184,7 -906,34 -1075,37 6,556 2,236 4,213 4.1875,239.0312 3431.2188,0 L 4220,848 l 7,-469 6,-379 z m 346,1341 -94.4375,20.0312 98.375,0 L 4579,1341 z"
     id="rect4"
     inkscape:connector-curvature="0" />
  <path
	 style="fill:#9FAEC0"
	 stroke="#9FAEC0"
	 stroke-width="10"
	 transform="translate(0, 100)"
     d="M 785.1875,1361.0312 801,2266 l 11.7813,482.3437 3368.0937,0 L 4172,2709 l -10,-75 5,-56 36,-35 5,-30 -16,-26 -25,-35 -36,-15 -31,-30 -15,-45 -52,-126 16,-21 51,26 30,-6 41,-141 21,-55 25,-41 0,-40 10,-46 5,-40 46,-86 51,56 -5,65 -5,81 -35,86 -56,111 -41,86 -15,70 10,15 82,86 36,91 26,90 20,76 -17.0937,49.3437 511.3124,0 L 4755,2700 l -66,-38 -10,-20 -16,-30 -10,-30 -10,-36 -26,-30 -25,-30 -16,-20 -10,-30 0,-106 -16,-41 -15,-50 5,-40 0,-36 25,-40 16,-25 15,-31 0,-25 -11,-25 -10,-40 5,-20 26,-76 15,-46 5,-40 -5,-40 -16,-76 -10,-60 -21,-101 -5,-56 10,-40 10,-30 -6.0625,-30.9688 -98.375,0 L 4216,1418 l 0.4063,-56.9688 -3431.2188,0 z"
     id="rect6"
     inkscape:connector-curvature="0" />
  <path
	 style="fill:#9FAEC0"
	 stroke="#9FAEC0"
	 stroke-width="10"
	 transform="translate(0, 75)"
     d="M 812.7813,2748.3437 826,3290 l 6,323 9.5937,522.6874 3162.5626,0 L 3996,4086 l -5,-35 0,-30 10,-66 -56,-20 -36,-15 -26,-15 -20,-35 -31,10 -26,5 -46,30 -36,5 -30,-25 0,-50 -1,-61 -10,-126 102,35 103,10 138,5 -5,-55 20,-16 16,66 56,25 26,-25 30,30 -25,86 31,40 61,55 41,-5 26,-80 -11,-56 10,-50 41,-51 26,-45 -5,-81 4,-71 -5,-25 -5,-35 143,-51 -5,-25 -138,0 -51,-20 -36,-30 -31,-45 15,-66 -5,-50 -5,-41 46,-40 -10,-20 -47,-10 -15,-35 0,-46 -31,-50 5,-15 5,-36 -10,-55 -7.125,-31.6563 -3368.0937,0 z m 3516.125,0 L 4311,2800 l 25,35 41,15 26,66 0,80 57,-10 20,50 36,41 41,60 16,66 0,35 20,30 36,10 36,-5 51,5 46,20 46,35 26,46 16,85 20,10 20,-25 5,-60 16,-41 41,-45 -21,-91 -67,-75 -97,-76 -41,-81 5,-45 5,-50 10,-51 51,0 41,50 -36,66 21,61 41,50 41,15 26,10 20,-5 10,-81 26,-35 41,-31 36,91 10,56 -15,40 0,50 -5,61 0,45 -15,41 -36,70 -15,31 -26,60 -15,46 0,75 10,56 -5,50 -25,35 -56,56 -21,45 1,71 0,91 5,40 15,10 11,20 46,0 15,-50 15,-36 56,-116 62,10 30,66 52,50 10,91 36,45 51,-15 10,-76 26,-30 -5,-45 30,-41 72,-40 31,-26 10,-75 -47,-116 -77,-111 -41,-86 5,-40 0,-35 31,-15 41,105 46,71 21,10 71,-30 15,-71 16,-56 0,-41 -283,-402 -190,-109 -196.7813,-111.6563 -511.3124,0 z M 5751,3779 l -20,92 -36,60 -15,121 -10,51 -8.9063,32.6874 632.3125,0 L 6310,4065 l -11,-80 -363,-95 5,-30 -164,-40 -26,-41 z m -1151,150 -51,5 -21,50 31,96 5,35 -25.1875,20.6874 102.1875,0 0,-50.6874 10,-45 -31,-86 -20,-25 z m 937,144 -49.5938,62.6874 75.0625,0 L 5562,4083 l -25,-10 z m -451,51 -25.5938,11.6874 52.4688,0 L 5086,4124 z"
     id="rect8"
     inkscape:connector-curvature="0" />
  <path
	 style="fill:#9FAEC0"
	 stroke="#9FAEC0"
	 stroke-width="10"
	 transform="translate(0, 50)"
     d="M 841.5937,4135.6874 843,4213 l 0,15 -10,439 -4,171 0,166 -21.7813,519.0312 3124.5938,0 L 3927,5448 l -57,-207 21,-25 -16,-5 -25,5 -10,-35 0,-21 15,-25 -21,-30 -66,-45 -16,-76 -51,-20 -21,-65 26,-51 61,30 67,-35 107,-31 77,-25 46,-55 -16,-86 -81,-5 -21,-45 46,-46 61,-40 -31,-71 -76,-30 25,-30 67,0 -6,-66 -10,-35 -20,-56 4,-75 -1.8437,-11.3126 -3162.5626,0 z m 3697.2188,0 L 4508,4161 l -25,30 -11,71 77,80 82,5 31,20 10,76 -20,106 -35,86 0,121 10,85 62,30 66,-40 97,-121 76,-222 -15,-81 -26,-35 -56,-50 -164,-96 -26,-50 0,-40.3126 -102.1875,0 z m 521.5937,0 L 5040,4145 l -15,25 -5,50 41,25 36,5 20,-25 5,-20 11,-10 -1,-36 0,-15 -19.125,-8.3126 -52.4688,0 z m 427,0 L 5465,4164 l -158,66 -56,50 -41,86 -51,15 -36,41 -20,196 -67,111 -5,21 -15,55 -51,162 -46,70 -30,41 -46,90 -25,101 -10,137 5,75 -17.3125,42.0312 695.2187,0 L 5509,5409 l -56,-50 -1,-162 -15,-80 5,-116 15,-86 -83,-141 36,-192 5,-121 87,-30 46,-10 20,-20 15,-56 0,-91 -20,-60 -0.5313,-58.3126 -75.0625,0 z m 173.6875,0 L 5655,4158 l -16,71 6,55 -10,81 0,25 10,106 0,66 26,40 20,30 16,30 0,36 -10,20 -21,20 -20,40 -25,61 20,20 5,20 5,51 1,25 10,106 -15,35 -57,-20 -30,10 25,56 0,65 1,40 82,46 20,35 -30,76 -5,35 25,60 -5.2188,24.0312 709.3438,0 L 6311,4706 l -46,-56 -26,-45 -10,-35 -5,-46 5,-45 5,-35 5,-36 10,-25 15,-25 15,-20 16,-31 0,-50 -11,-25 -5,-35 14.4062,-61.3126 -632.3125,0 z M 4320,4953 l -46,25 -61,141 -25,187 -51,192 8.0937,25.0312 241.75,0 L 4383,5321 l 45,-111 -5,-56 -5,-50 -5,-71 -41,-70 -52,-10 z m 380,549 -4.8438,21.0312 69.3438,0 L 4700,5502 z"
     id="rect10"
     inkscape:connector-curvature="0" />
  <path
	 style="fill:#9FAEC0"
	 stroke="#9FAEC0"
	 stroke-width="10"
	 transform="translate(0, 25)"
     d="M 807.2187,5523.0312 774,6314 l -13,358 -21,32 -149,-46 -25,11 -26,20 -20,15 -62,40 -20,10 -20,11 -16,10 -10,20 -11,25 -6,20 5,25 0,31 1.1563,14.375 2728.0624,0 L 3126,6861 l 15,-66 26,-65 0,-56 77,-10 5,55 -5,66 25,35 11,20 0,30 -10,26 3.5937,14.375 270.5,0 L 3572,6860 l 46,-66 20,-75 -21,-106 0,-81 10,-30 21,-25 87,-51 56,-15 20,-86 36,-50 -36,-101 10,-66 20,-20 62,0 10,-101 -31,-70 0,-182 56,-116 -6.1875,-95.9688 -3124.5938,0 z m 3337.875,0 L 4189,5659 l 51,70 -20,51 -5,40 30,45 -56,11 -97,-25 -21,45 32,202 -5,70 -31,76 -10,45 26,46 51,-46 25,-40 5,-81 41,0 15,-40 5,-46 11,-25 10,-40 51,10 97,-11 31,-50 -57,-121 5,-55 31,-46 30,-50 0,-26 -51,-35 -10,-25 15,-25 -1.1563,-59.9688 -241.75,0 z m 550.0625,0 L 4685,5567 l 36,30 -10,51 0,30 10,20 -5,61 0,105 26,66 16,75 -77,41 -41,35 -31,5 -20,-10 -11,-80 -66,86 -56,50 -67,51 -10,50 31,35 10,56 31,30 46,-35 36,-21 46,25 46,-20 61,-45 36,-31 87,66 36,15 36,-121 51,-56 0,-106 15,-85 102,-21 31,45 56,10 26,-35 0,-35 51,-15 87,35 31,30 15,15 5,15 6,10 -11,25 -10,51 36,5 36,-91 15,-35 -36,-51 -26,-50 26,-81 20,-70 56,-76 26,-86 1.9062,-11.9688 -695.2187,0 L 4792,5532 l -27.5,-8.9688 -69.3438,0 z m 987.625,0 L 5678,5545 l 10,30 42,40 10,20 -21,46 -35,45 10,56 31,35 36,60 36,46 26,110 -16,91 -25,71 -25,75 35,15 36,-20 36,-30 36,-15 56,-5 36,-26 0,-45 25,-35 31,-36 26,0 25,-30 56,-15 46,-31 36,-40 5,-56 10,-45 51,-25 31,-16 36,-5 46,-6 -5,-55 -16,-197 -2.875,-28.9688 -709.3438,0 z"
     id="rect12"
     inkscape:connector-curvature="0" />
  <path
	 style="fill:#9FAEC0"
	 stroke="#9FAEC0"
	 stroke-width="10"
     d="M 381.1563,6910.375 382,6921 l 0,30 18,31 18,19 10,21 11,30 10,30 -5,61 -10,60 -11,45 -10,26 -5,35 11,35 10,46 22,44 14,31 10,30 0,31 -10,35 -21,25 -35,25 -62,45 -41,30 0,31 -20,66 -15,5 -46,61 -103,5 -82,5 -30,20 -10,56 15,15 20,10 72,-36 72,-20 36,0 10,60 31,-10 112,-85 149,-61 220,-46 87,-15 76,-20 36,-16 31,0 31,5 30,-15 93,15 122,-25 72,0 77,-11 77,-20 107,-91 205,-71 169,-66 35,-15 52,-20 112,-51 56,-30 108,-20 102,0 36,-21 15,0 16,-5 10,-5 41,-5 51,-15 36,-20 31,-11 15,-5 56,-10 67,-10 31,0 71,10 16,-5 41,-10 56,-21 51,-5 5,-55 -10,-46 10,-30 31,-30 -1,-30 19.2187,-56.625 -2728.0624,0 z m 2892.4374,0 6.4063,25.625 -5,35 -21,20 -10,16 -20,20 -36,20 -31,35 -20,16 -10,30 5,35 31,15 56,30 51,25 26,36 31,40 56,15 15,-35 -20,-86 20,-50 20,-61 51,-76 67,-91 8.0937,-14.625 -270.5,0 z M 2587,8762 l -36,5 26,191 -5,66 -31,50 -20,21 72,100 21,66 -67,40 -72,-55 -36,-56 -20,21 -41,60 -66,51 -26,151 0,141 -10,40 46,66 67,-15 118,-51 77,-15 92,-6 82,-10 81,-40 26,-36 -77,-130 -62,-121 -5,-96 36,-156 -11,-182 -159,-100 z"
     id="rect14"
     inkscape:connector-curvature="0" />
</svg>
