<?xml version="1.0" encoding="UTF-8" standalone="no"?>
<svg
   xmlns:dc="http://purl.org/dc/elements/1.1/"
   xmlns:cc="http://creativecommons.org/ns#"
   xmlns:rdf="http://www.w3.org/1999/02/22-rdf-syntax-ns#"
   xmlns:svg="http://www.w3.org/2000/svg"
   xmlns="http://www.w3.org/2000/svg"
   xmlns:sodipodi="http://sodipodi.sourceforge.net/DTD/sodipodi-0.dtd"
   xmlns:inkscape="http://www.inkscape.org/namespaces/inkscape"
   width="6226.3125"
   height="3831.7188"
   viewBox="0 0 6226.3125 3831.7188"
   id="svg2"
   version="1.1"
   inkscape:version="0.48.1 "
   sodipodi:docname="AJAX.svg">
  <metadata
     id="metadata20">
    <rdf:RDF>
      <cc:Work
         rdf:about="">
        <dc:format>image/svg+xml</dc:format>
        <dc:type
           rdf:resource="http://purl.org/dc/dcmitype/StillImage" />
      </cc:Work>
    </rdf:RDF>
  </metadata>
  <defs
     id="defs18" />
  <sodipodi:namedview
     pagecolor="#ffffff"
     bordercolor="#666666"
     borderopacity="1"
     objecttolerance="10"
     gridtolerance="10"
     guidetolerance="10"
     inkscape:pageopacity="0"
     inkscape:pageshadow="2"
     inkscape:window-width="1280"
     inkscape:window-height="1004"
     id="namedview16"
     showgrid="false"
     fit-margin-top="0"
     fit-margin-left="0"
     fit-margin-right="0"
     fit-margin-bottom="0"
     inkscape:zoom="0.097357373"
     inkscape:cx="2968.0976"
     inkscape:cy="2791.6428"
     inkscape:window-x="-8"
     inkscape:window-y="-8"
     inkscape:window-maximized="1"
     inkscape:current-layer="svg2" />
  <path
	 style="fill:#9FAEC0"
	 stroke="#9FAEC0"
	 stroke-width="10"
	 transform="translate(0, 125)"
     d="M 5947.1874,0 5772,7.8124 l -148.6875,7.5938 -14.9063,0.6875 -2.3125,0.094 L 5428,23.094 l -97.9063,4 -15.1875,0.5937 -81.7187,3.3126 -94.7813,3.9062 -116.2187,4.1875 -172.5,6.3125 -18.7813,0.094 -6.0937,0.1874 -119.7188,3.625 -16.1875,0.5938 -125.8125,3.5938 -5.0937,0.1874 -289.1875,5.3126 -0.5,0 -213.125,2.1874 -2.5938,0 -555.0937,5.3126 -13.6876,0 -80.2187,0.6874 -29.4063,0.2188 -93.2812,0.5938 -5.0938,0.094 -350.125,0.4063 -41.5937,-0.5 -40.5937,0.094 -308.5938,-0.4063 -29.9062,-0.094 -63.9063,-0.1875 -709.9063,-9.4062 -0.5,0 -327.7812,-6.1876 -17.2188,-0.4062 -80.1874,-2 -3.5,-0.094 -12.1876,-0.4062 -13.7187,-0.5 -19.2813,-0.5 L 1210.0937,46.813 1095.5,43.9068 999.5937,41.313 958.5,40.0943 145.6874,10.9068 l -1.5937,41.5938 -1.1875,29.4062 -1.7188,43.7812 -1.2812,34.125 -0.7188,16.2813 -0.875,24 -3.7187,100 -0.5937,13.0937 -0.1876,6.8126 -0.4062,8.5937 -0.5938,15.8125 -0.9062,21.2812 -2.5,56.4063 -0.8125,18.3125 -7.1563,183.7812 5895.4688,0 -4.8125,-1.7812 -4.0937,-1.5938 -5.5,-2.125 -5.5938,-1.7812 -5.7188,-1.7188 -8.0937,-2.5 -3,-1.5937 -6.4063,-3.5 -5.875,-3.1875 -6.4062,-3.5 -6.3125,-3.5 -4.0937,-2.2188 -5.3126,-4.0937 -6.5,-5 -2.5,0 -5.0937,-0.1875 -18.1875,0.7812 -3.0938,0.2188 -6.2187,-0.2188 -6.5937,-0.1874 -9.5,-0.1876 -2.0938,-0.8124 -2,-1 -11.5938,-10.0938 -3.625,-4.4062 -3,-3.6876 -7.1875,-8.125 -17.5,-22.1874 -0.5,-0.5938 -2.8125,-5.4062 -3.6875,-7.9063 -3.0937,-6.7813 -4.0938,-6.5 -3.9062,-16.125 -1.0938,-3 -1,-2.5937 -7.8125,-14.6875 -1.0937,-2 -7.5938,-10.5 -2,-2.2188 -7.5,-8.6874 -6,-7.4063 -6.8125,-8.0937 -3.4062,-4.1876 -8.2813,-9.9062 -8.3125,-9.0938 -3.8125,-4.2187 -6,-7.5 -1.6875,-1.9063 -4.6875,-6.6874 -3.3125,-5.5938 -4.0937,-4.5938 -1.5,-4.5 -0.094,-3.125 0.5,-5 0.375,-5.6874 2.5,-17.9063 0.125,-0.6875 2.875,-6.5938 1.125,-2.125 4.375,-6.7812 4.5,-7.7188 3.125,-2.0937 4.7812,-3.2813 2.3125,-1.625 2.5,-1.5937 7.6875,-4.4063 6.9063,-3.875 1.5937,-0.9062 9.5,-6.4062 8.8125,-9.6876 4.7813,-5.3124 0.625,-0.6876 4.375,-5.5 3.3125,-4.125 1,-1.1874 3,-2.8126 2.8125,-2.6874 4.6875,-5 2.3125,-2.4063 4.1875,-2.2813 5.4062,-3 7.6875,-4.4062 5.9063,-3.3125 5,-3 7.5937,-4.9063 2.9063,-1.6874 9.8125,-6.8126 4,-4.5937 5.2812,-8.1875 2.4063,-3.9062 1.5,-3 1.1874,-3.4063 0.8126,-1.9063 1.8124,-5.5937 0.7813,-3 1.2187,-4.0937 2.6876,-6.3126 1.3124,-2.875 0.875,-2.8124 1.5,-4.9063 5.125,-4.5937 2.0938,-2.9063 1.6875,-2.2813 5.2187,-4.7187 2,-1.9063 2.6876,-3.375 2.8124,-3.8124 0.375,-0.5 4.8126,-7.9063 3.0937,-5.2813 1.0937,-1.8124 2.125,-4.9063 3,-5.6875 0.5,-0.8125 0.375,-0.9063 0.7188,-2.2812 0.5,-2.5 0.9062,-6.2188 1.0938,-7.375 1.2812,-8.5 -0.094,-4.9062 0,-4.9062 0.7187,-7.8126 0.094,-2.2812 1.5938,-13 1.3124,-18.9062 0.5,-7.3126 0.094,-0.7812 -0.7188,-4.8125 -0.1874,-2.2813 -0.094,-2.2187 -0.7188,-5.5937 0,-5.5938 -0.094,-6.0938 0.2187,-3.125 1.875,-4.1874 z"
     id="rect4"
     inkscape:connector-curvature="0" />
  <path
	 style="fill:#9FAEC0"
	 stroke="#9FAEC0"
	 stroke-width="10"
	 transform="translate(0, 100)"
     d="m 121.4374,624.1874 -5.5312,142 -2,55.125 -1.3125,34.5938 -0.2813,6.4062 -0.3124,9.2813 -0.5938,14.2187 -4.3125,106.6876 -2.7813,68.4062 -13.7187,-0.5938 -0.7813,18.7813 -7.7187,186.625 6013.5937,0 -0.7812,-15.125 -9.7188,-192.2813 -14.7812,-293.4062 -0.5938,-12.9062 -1.2187,-14.6876 -0.094,-1.625 0,-0.1874 -0.1876,-12 -0.2187,-15.4063 -0.094,-4.0937 -0.094,-4.9063 -1.7188,-5.7813 -3.7812,-4.4062 -0.4062,-0.5 -2.3126,-2.3125 -4.2812,-3.9063 -2.5938,-6.5 0.1876,-2.875 -0.8126,-2.7187 -2.5,-6.1875 -0.6874,-1.8125 -1.4063,-3.5 -1.7813,-4 -1.9062,-4.2813 -3.8125,-5 -2.9063,-3.8124 -6.0937,-7.8126 -2.7813,-2.375 -3,-2.4062 -3.4062,-2.8125 -5,-1.9063 -5895.4688,0 z"
     id="rect6"
     inkscape:connector-curvature="0" />
  <path
	 style="fill:#9FAEC0"
	 stroke="#9FAEC0"
	 stroke-width="10"
	 transform="translate(0, 75)"
     d="M 82.0937,1265.7187 71,1534.5 l -1.4063,36.0937 -2.7813,72.3125 -10.75,264.3125 6071.6563,0 L 6109.5,1540.5 l -4.6876,-93.8126 0,-1.5 -0.125,-1.5937 -9,-177.875 -6013.5937,0 z"
     id="rect8"
     inkscape:connector-curvature="0" />
  <path
	 style="fill:#9FAEC0"
	 stroke="#9FAEC0"
	 stroke-width="10"
	 transform="translate(0, 50)"
     d="m 56.0624,1907.2187 -2.4687,60.6875 -1.2813,32.9063 -0.4062,8.5937 0,2.7813 -0.3125,5.3125 -1.1875,28.4062 L 50,2056 l -0.3126,7.0937 -3.7812,88.5938 -0.7188,16.2187 -0.1874,5.2813 -3,74.7187 -0.5938,15.7813 -1.3125,30.8125 -0.5937,16.1875 -1.0938,22 -0.094,2.3125 -2.2187,55.1875 -1.5,38.125 -0.5937,11 -1,21.375 -0.5938,14 -0.5,13.2187 -1.9062,46.5 -0.5313,14.3125 6130.5313,0 -12.0938,-237.4062 0.5938,0 -0.094,-1.5 -19.8125,-385 -0.875,-17.5938 -6071.6563,0 z"
     id="rect10"
     inkscape:connector-curvature="0" />
  <path
	 style="fill:#9FAEC0"
	 stroke="#9FAEC0"
	 stroke-width="10"
	 transform="translate(0, 25)"
     d="M 29.4687,2548.7187 29,2561.9062 l -3.4063,80.4063 -0.2813,7.5 -2.7187,70.7812 -0.7813,23.3125 -0.2187,6.0938 -0.5,10.5937 -0.6875,15.7188 -1.0938,34.875 -1.5,36.4062 -4,102.2188 -3.8124,94.5 -0.6876,16.1875 -3.625,76.8125 -2.1562,52.9062 6165.5,0 5.875,-6.125 5.1875,1 5,-2.4062 5.2187,-10.5 -0.625,-1.2813 3,-6.0937 0,-3.5 -1,-3.4063 -2.1874,-2.4062 -3.1876,-1.8125 0.1876,-3.5 0.5,-2 3.8124,-2.375 3.7813,-6.8125 3.8125,-7 3.1875,-7.6875 0.5,-11.125 -5.0937,-11 -10.5,-8.7813 -8.0938,-5.3125 0.5,-25.5937 -2.3125,-9.3125 -4.5937,-9.5938 -1.0938,-8 0.5938,-13.0937 -4.9063,-10.6875 -7.5937,-6 -0.6876,0.094 -9,1.1875 -6.125,5.4063 -9.2812,1.4062 -13.4062,-8 -7,0.7813 -5.5938,-1 -5.5938,3.125 -1.5,1.1875 -3.125,-1.1875 -2.0937,-3 -2,-3.3125 -1.7813,-2.9063 -0.8124,-4.9062 1.5,-3.5 0.5,-1.875 5.4062,-2.9063 5.7812,-2.9062 -2.5937,-9.0938 -2.2813,-1.8125 -1.9062,-2.1875 -1.0938,-1.3125 -0.4062,-0.5 -5.8125,-1.9062 -1.2813,-3.375 -5.3124,-3.125 -6.8126,-1.5 -2,-4.875 5.2188,-6 -2,-3.5 1,-9.125 -3.7188,-0.5 -3,-2 5.125,-4.0938 8.5938,0.9063 9.4062,-0.6875 10.6876,0.094 9.5,-4.7187 3.5,-12.5938 -2.1876,-7.4062 -2.625,-20.875 3.5,-9.125 0,-10.1875 -1.6874,-16.5938 4.5937,-4.4062 -1.0937,-4.8125 0.4062,-15.0938 -5.0938,-6.0937 -7.125,0.1875 -4.0937,-2.0938 -4.6875,-3 -5.2188,-2.9062 -2.7812,-3.875 -2.5938,-6.8125 -7.3124,-3 -2.0938,-4.5 -2.0938,-4 1,-3.5938 -1,-3 -11.7187,-1.9062 -5.6875,-4.5 -4.0938,-4 -0.625,-9.6875 1.7188,-7 3.0938,-6.3125 5.0937,-7 0.5937,-9.5938 -3.1874,-17.2187 -7.0938,-2.875 -2.7188,-2.3125 -0.1874,-3 -0.5938,-1.5 115.6875,-6.3125 -0.094,-10.5938 -7,-137.875 -6130.5313,0 z"
     id="rect12"
     inkscape:connector-curvature="0" />
  <path
	 style="fill:#9FAEC0"
	 stroke="#9FAEC0"
	 stroke-width="10"
     d="M 3.5312,3190.2187 0,3276.8125 l 0.5937,0 28.5,1.2812 70.5,3.3125 91.9063,4.1875 18.9062,0.8125 15.4062,0.6875 31.0938,1.4063 6.6875,0.3125 7.5937,0.2812 15.3126,0.7188 52.6874,2.1875 10,0.4062 5.8126,0.1875 2.5,0.094 51.5937,1.9062 15.4063,0.5 21.1874,0.8125 6.9063,0.094 26.5937,1 3,0.094 65.2188,2.2187 47.1875,2.0938 15.8125,0.6875 15.2812,0.5937 46.4063,2.2188 0.5937,0 30.7188,0.6875 16.2812,0.5 34.125,1.5 17.5,0.5 44.375,1.4062 43.5,1.4063 1.4063,0 71.0937,1.9062 95.5,2.375 2,0 230,3.125 0,4.0938 61.8126,2.0937 41.4062,0.9063 243.5938,5.1875 67,1.8125 29,0.6875 173.0937,4.2187 61.5,1.375 366.8125,3.8125 388.7812,2.6875 64.3126,-0.2812 226.9062,-1.3125 159.4062,-1.6875 0,-1 162,-0.5938 282.7813,-2.625 4.3125,0 93.9062,-2 228.3751,-2.0937 313.7187,-7.2813 145.2813,-2.5 119.2187,-2.3125 12.2813,-0.4062 19.4062,-0.5 3.5938,-0.094 2,3.6875 3.7187,6.8125 1,1.6875 4.0938,7 4.6875,8 2.3125,4.3125 2.5937,4.5 3.7188,7 1.7812,3.4062 1.4063,2.1875 3.5,8.5 2.1875,2.4063 3.5,3.5937 0.5,0.5938 2.7187,2.625 0.9063,0.7812 2.5937,1.5938 4,2.5 1,0.5 4.0938,2.125 1,0.1875 5.5937,0.9062 1.0938,0.094 2.5,0.3125 3.7187,-0.125 5,0.9063 4.0938,0.7187 4.1875,0.7813 3.5,2.0937 3.125,1.625 3.6875,1.5 2.9062,1.1875 5.0938,3.1875 3.6875,2.8125 3.125,3 3.1875,4 0.3125,0.5 4.1875,6.1875 7.6875,6 9.8125,4.2188 8.0937,2.9062 8.3125,3 11.7813,3.5 0,0.7813 24.8125,9 1.5937,0.5937 13.5938,3.4063 2.3125,0.3125 5.5937,0.7812 1.8125,0.3125 2.6875,1 4.2188,1.5 2.1875,1.1875 7.4062,4.4063 6.7813,4.0937 1.8125,1.3125 9.1875,6.5 2.4062,1.4063 3.4063,1.6875 5.3125,2.3125 0.7812,0.2812 5.8125,2.4063 6.5938,2.4062 4.6875,1.4063 0.9062,0.1875 3.5938,0.9062 0.625,0 4,0.094 2.0937,-0.1875 5,-0.5 2.5938,-0.4062 3,-0.5938 2.1875,0.1875 -1.6875,-2.9062 16.5937,21.9062 12.5938,6.8125 15.625,15.7813 22.1875,15.125 9.4062,15.2814 18,6.7188 18.1875,1.375 17.5,-3.6875 1.8125,-1 15.5938,-3.6875 11.8125,-4.7188 9.7812,-4.5 6.2188,-4.1875 5.1875,-5.3125 8,-6.2812 4.0937,-4.9063 16.0938,-23.8125 2.8125,-7.0937 4.3125,-7.4063 2.875,-10.6875 0.5,-6.8125 2.2187,-3.5 0,-3.9062 -1.0937,-3.0938 0.375,-4.4062 3.625,-3.0938 11.6875,-6.5 14.0937,-3.7812 7.8125,-0.7188 2.1875,0.2188 6.5938,5 6.8125,6.7812 16.5,18.5938 3.4062,2.125 4.9063,1.1875 6.5937,0.5 5.9063,-1.1875 5.7812,-2.2188 4.8125,-4.1875 4.5938,-5.3125 7.0937,-8.5937 5.4063,-7.8125 3.5937,-1.0938 4.8125,0 6.4063,1.5938 4.2812,2.125 7.5,5.375 3,3.125 1,4 1.7188,4.875 3.2812,4.625 5.5938,5.375 3.5,1.8125 3.2187,0.5 4.2813,0 3.7187,-1.1875 5.1875,-3.3125 3.2188,-3.6875 5.5,-9 2.1875,-3.5 7.5,-12.4063 3.5937,-2.9062 5,-2.6875 7.9063,-1.3125 5.4062,0.5937 1.6875,1.0938 1,2.9062 0.7188,4.0938 -0.4063,5.8125 0.6875,4.0937 1.8125,3.3125 2.0938,1.9063 3.1875,1 4.2187,0.1875 5.6875,-0.5 16.8125,-2.8125 16.6875,-3.1875 2.9063,-2 6.6875,-5.9063 5.3125,-6.1875 2.5937,-1.9062 23,-7.5938 5.5,-1.5937 2.7188,-0.3125 1.875,0.5 1.4062,2.6875 0,6.5 0.4063,4.3125 1.3125,1.3125 6,-0.3125 2.875,0.5 2.7187,2.5 3.0938,4.1875 3.1875,1.5 5.2187,0.5 5,-1.0938 8.6875,-6.0937 3.2188,-4.9063 5.5,-5.7812 5.375,-3.5 4.7187,-2 5.0938,0.094 5.4062,1.0938 11.4063,-0.5938 0.375,-0.094 4.4062,-2 2.0938,-3.5 0.9062,-2.8125 1.5,-0.9063 10,-1.9062 7.4063,0.9062 8.9062,2.9063 6.6875,1.8125 8.4063,-1.2188 1.0937,0.4063 4.7188,3.3125 3.5,0.6875 3.5937,-0.094 0.5,0.1875 9.7813,8.7187 18.3125,3 15.1875,-4.2187 24.625,9.2187 2,3.375 0.5937,17 6.9063,20.625 8,4.0938 23.2812,1.6875 11.0938,3 0.5,0.094 6,1.7187 0.7187,0.2813 4.1875,1.9062 0.7188,0.5938 2.6875,2.2187 1.5,3.4063 1.4062,2.375 1.2813,9.4062 0.9062,3.5 0.7188,2.5 2.5,1.5 3.2812,0.8125 3.0938,0.6875 4.4062,1 4.2188,1.3125 4.5937,1.4063 2.5,0.2812 2.6875,0.5938 6.5938,1.4062 1.9062,0.5 10.7188,1.3125 7.875,0.7813 1.8125,-0.094 3.3125,-0.2813 5.0937,-0.8125 4.6875,-0.6875 5,-0.9062 8.2188,-0.5 3.375,0.2812 1.2187,0.2188 4.5938,-0.2188 5.0937,1 2.5938,0.5 4.125,-0.094 2.5,-1 1.5937,-0.5938 3,0.5 3.9063,-1.0937 3.2812,0.4062 4.0938,0.375 1.8125,0.3125 7.6875,3.9063 3.5,3.1875 0.7187,0.7187 2.9063,4.375 2.1875,3.3125 0.8125,3.3125 0.875,2.1875 -0.375,3.4063 -0.3125,2.0937 -1.1875,3.6875 -0.5,0.625 -0.7188,5.7813 -0.4062,3.5 0.125,1 5,3.5937 1.875,1 7.7187,0.3125 4,-1.5937 2.7813,-2.3125 5,-6.4063 1.7187,-1.1875 2.5,-1.9062 3.1875,-1.5 4.0938,-2.0938 0.625,-0.094 3,0.094 11.6875,0.4063 2.1875,0 3,0.6875 7.625,1.8125 5.1875,1.1875 2.0937,0.4062 3.4063,1 6.3125,2 5.5937,1.6875 4.5938,3.2188 2.8124,1.1875 9.5938,7.4062 6.6875,3.5 1,0.1875 4.5937,0.625 4.125,0.6875 4.0938,2 3.5938,4.1875 3.5937,5.3125 0.094,1 0.4063,4.8125 0,0.7813 0.2187,4.5 0.1876,2.2187 0.094,1.2813 0.7187,5.2187 0.5,3.875 3.375,2.5 0.7188,0.625 4,2.6875 4,2.8125 5.0938,1 4.9062,1.0938 1.6875,0 4.5937,0.094 4.4063,0.094 0.7187,-0.094 14.7813,-3.0937 2.2187,-0.4063 1.375,-0.3125 5,-1.0937 1.4063,-0.1875 3.3125,-0.094 3.0938,0 1.8124,0.1875 1.1876,0 3.0937,0.094 3.5937,0 3.125,0.094 3,0.8125 3.5938,1.5 3.5938,0.9062 4.8124,1.5938 1,0.9062 1.0938,1.7813 6.0938,9 -0.5,0.8125 -5.9063,11.5 -1.5937,2.9062 -1.9063,2.1875 -2.5937,3 -0.5,0.8125 -2.4063,3.6875 -2.5937,4 -1.5,2.7188 -0.1876,1.2812 -1.7187,9.5938 -0.6875,3.7187 3.5,4.2813 6.4062,8 1,1.125 8.6876,6.5937 3,3 1.1874,0.6875 6.7188,4.0938 4.4062,2.8125 2.2813,1.6875 4.4063,3.2187 2.8124,2.1875 4.0938,3.0938 6,4.7187 4.0938,4.0938 3,2.8125 1.1874,1 1.8126,1.5937 3.0937,2.5938 3.4063,2.8125 1.9062,1.5937 1.9062,3.4063 0.5,0.6875 1.7813,3.1875 1.9063,3.3125 0.3124,1 0.875,4.0937 0.625,4.3125 0.375,2.5938 -0.094,2.0937 -0.7813,4.4063 -1,3.3125 -0.625,1.7812 -0.1874,1.2188 0.094,1.375 0.094,3.125 2,1.875 3.125,2.9062 0.7813,0.5 4.7187,2.5938 3.7813,2.125 3.2187,-0.2188 1.6876,-0.1875 2.4062,-0.9062 4,-1.6875 2.9062,-1.9063 1.6876,-1.2187 5.6874,-4.875 0.5,-0.4063 4.5,-2.8125 4.625,-2.9062 1,-0.6875 2.5,-0.8125 3.0938,-1 2.4062,-0.7813 3.1876,-0.8125 1,-0.1875 7.6874,1 2,0.5938 4.2188,1.1875 3.5,3 4.0938,3.5 4.5,6.7187 1.0937,1.9063 2,3.0937 3.8125,5.2813 3.0938,4.5 1.9062,2.2187 2.1875,2.2813 3.8125,4 3.0938,1.5 2.3437,1.0312 11.125,0 0.625,-0.2187 4.7187,-1.6875 2.875,-1.2188 0.7188,-0.4062 3.9062,-2.1875 5.875,-2.1875 5.625,-2.2188 -7.5,-0.9062 -8.125,-2.1875 -3.5937,-1.5 -2.0937,-1.8125 -1,-5.7813 1,-2.5 0.094,-3.8125 -1.6875,-3.1875 -6.0938,-2 -4.125,0 -2.5937,-1.5 -1.0937,-8.5937 10.3124,-5.625 1.7813,-3.6875 0.094,-4.5938 -1.375,-17.5937 -1.7187,-8.5 -5.9063,-3 -7.5,1.6875 -3.5937,-5.0938 -0.094,-5 1,-3.5 2.4062,-2.2187 3.0938,0.8125 3.5,-0.8125 0.8124,-3.0938 0.375,-1.4062 -2.5,-1 -3.1874,-0.1875 -2.3126,-2.9063 -1.375,-4.9062 2.6876,-2.5938 -5.6876,-2.7812 -2.125,-6.4063 -1.1874,-2.4062 -0.1876,-2.5 -1.4062,-5 -4.3125,-8.8125 -3.2813,-1.6875 -3,0.6875 -1.5,0.8125 -0.4062,0.9062 -3.3125,3.2813 -1.5,0.625 -3.4063,-1.2188 -2.0937,-2.5 0,-3 0.7187,-1.5 1.375,-1.5937 1.4063,-0.5 1.0937,-0.1875 4.625,-2.8125 3,-3.5938 0,-5.5937 -1,-1.8125 -1.7187,-1.8125 -2,-1.875 -2.5937,-4 -1.6876,-2.8125 -1.3124,-0.1875 -3,-1.9063 -2.6876,-1.8125 -2.8124,-3.4062 -0.8126,-9 -1.2812,-3.5 -4.8125,-2.5938 -4.5,1.9063 -3.2813,1.8125 -2.5,0 -0.4062,-9.4063 -4.8125,-5.7187 -2.0937,-1 -6.0938,0.5 -2,0.125 -0.5938,-3.625 1,-2 0.094,-2.375 -9.9062,-8.8125 -2.5938,0.1875 -5.5938,-7.5938 -2.8124,-1.9062 -2.6876,-0.7813 -2.7187,1.2813 -3,-1.5 -2.5937,1 -2.5,1.625 -2.0938,-3.125 -4.5938,-7 -2,0.7187 -2.2187,-1.8125 -0.5,-3.9062 2,-4.5938 0.5,-2.5 -0.5,-2 -5.0937,-3 -1.5938,-4.5 1.0938,-4.0937 -3.4063,-4.1875 -0.2813,-2.8125 2.5,-4.5938 0.1876,-2 1.8124,-9.5937 3.7813,-3 3.3125,-1.125 2.5938,-1.875 -3.3126,-3.3125 -1.0937,0.094 -4.2813,-0.5 -4.7187,-3.5 -0.5,-3.5 0.5,-2.4062 2.5937,-3.1875 5.5,-6.5938 4.125,-7.5937 9.1876,-4.125 2.4062,-1.6875 0.094,-4.9063 9.6874,-7.5 -3.6874,-7.6875 1.5,-4 2.8124,-6.0937 2.7813,-4.125 0.7187,-2.7813 3.7813,-3.9062 -1.0937,-7.5 1.3124,-3.0938 -0.625,-0.5 0.8126,-2.5937 3.1874,0.7812 3.5,0.8125 3.8126,7.6875 2.0937,0.3125 2,-1.0937 -0.1875,-7.9063 1.5,-1.0937 0.5,-0.5 1.5,0.5937 2.5,-1.7187 -1.5938,-7 0.094,-4 4.0938,-2.0938 2,-2 4.0937,-1.5937 -0.094,-2.5 -4.5938,-5 -2.0938,-3 0,-2 1,-2.5938 -1,-3 0.5938,-4 3.4062,-4.5937 4.375,-0.5 0.7188,-3.125 -3.7188,-2.2813 -0.7812,-3.5 3.1875,-3.8125 7.5,-2.5937 0.4063,-3 -2.0938,-2.5 -1.9062,-0.8125 -1.6876,-1.875 -3.625,0.1875 -1,-2 1,-11.0938 -0.094,-1.5 -0.5,-9.0937 5.2187,-9 4.375,-8.5 5.5,3.5937 0.2188,-3.5 -0.094,-6 1.7813,-4.3125 5.8125,-0.7812 1.6875,-1.9063 -1.7813,-5.2187 1.375,-5.375 5.2188,-6 -1.5,-2.3125 -3,-9 -3.2188,-2.5 -3.2812,-1 -3.9062,-4.1875 -0.094,-8.4063 3.5938,-5.5937 -0.5938,-3.625 10.5,-7.375 4,-7.4063 -0.3125,-7 -3.6875,-8.0937 -13.8125,-7.4063 -0.2813,-4.9062 4.0938,-6.4063 -1.8125,-2.9062 -3.0937,0.2187 -3.0938,-0.2187 -2.5938,-0.7813 1.7813,-3.7187 0.8125,-2.5938 6.9062,-3.5937 7.375,-3.1875 5.5,-1.4063 7.8438,-8.1875 -6165.5,0 z"
     id="rect14"
     inkscape:connector-curvature="0" />
</svg>
