<?xml version="1.0" encoding="UTF-8" standalone="no"?>
<svg
   xmlns:dc="http://purl.org/dc/elements/1.1/"
   xmlns:cc="http://creativecommons.org/ns#"
   xmlns:rdf="http://www.w3.org/1999/02/22-rdf-syntax-ns#"
   xmlns:svg="http://www.w3.org/2000/svg"
   xmlns="http://www.w3.org/2000/svg"
   xmlns:sodipodi="http://sodipodi.sourceforge.net/DTD/sodipodi-0.dtd"
   xmlns:inkscape="http://www.inkscape.org/namespaces/inkscape"
   width="4419.4062"
   height="3522"
   viewBox="0 0 4419.4062 3522"
   id="svg2"
   version="1.1"
   inkscape:version="0.48.1 "
   sodipodi:docname="AJAX.svg">
  <metadata
     id="metadata20">
    <rdf:RDF>
      <cc:Work
         rdf:about="">
        <dc:format>image/svg+xml</dc:format>
        <dc:type
           rdf:resource="http://purl.org/dc/dcmitype/StillImage" />
      </cc:Work>
    </rdf:RDF>
  </metadata>
  <defs
     id="defs18" />
  <sodipodi:namedview
     pagecolor="#ffffff"
     bordercolor="#666666"
     borderopacity="1"
     objecttolerance="10"
     gridtolerance="10"
     guidetolerance="10"
     inkscape:pageopacity="0"
     inkscape:pageshadow="2"
     inkscape:window-width="1280"
     inkscape:window-height="1004"
     id="namedview16"
     showgrid="false"
     fit-margin-top="0"
     fit-margin-left="0"
     fit-margin-right="0"
     fit-margin-bottom="0"
     inkscape:zoom="0.097357373"
     inkscape:cx="1904.2932"
     inkscape:cy="762.38331"
     inkscape:window-x="-8"
     inkscape:window-y="-8"
     inkscape:window-maximized="1"
     inkscape:current-layer="svg2" />
  <path
	 style="fill:#9FAEC0"
	 stroke="#9FAEC0"
	 stroke-width="10"
	 transform="translate(0, 125)"
     d="m 890,0 -1,0.3124 -2.3124,1.3126 -2.2813,1.7812 -1.2187,1.3125 -1.5,2 -0.875,1.6875 -1.2188,1.3125 -2.4062,1.1875 -2.5938,1.4062 -3.5,2.0938 -3.6875,2 -4.5,3.5938 -3.0937,5 -1.5,3.5 -0.5,3.125 0.5,3 -0.5,2.5 -1.125,1.5 -2,2 -2,2.5937 -2.0938,3 -1.2812,2.5937 -1.8126,2.4063 -2,1.5 -2.0937,1.5 -2.7187,0.7813 -4.375,0.2187 -3.125,0 -2.0938,-0.5 -1.1875,-1.0937 -0.5,-2 0.5,-2.5 1,-2.125 1.5,-2 0.5,-1.5 -0.5937,-2 -1,-2 -2.125,0 -3.1876,1.125 -2.9062,1 -5.5938,1 -5.5937,0.094 -4.0937,-0.5 -5.625,3.0937 -2.7813,1.9063 -0.4063,0.5937 -2.1874,4.4063 -0.5,2 -1.5,2.0937 -3.125,1 -0.6876,-0.3124 -1.4062,-0.6876 -1.5,-1.5937 -2.5938,-0.5 -2,0.5 -2.0937,0.6875 -2.2187,0.7188 -2.5938,-0.5 -1.5,0.094 -1.9062,1.2813 -1.6876,1.2187 -0.9062,0.4063 -1.0938,0.6874 -5.5937,4 -3,0.5 -2,0 -2.5937,-1 -0.125,-0.9062 -1,-2.5 -2.5938,-2.5 -2.4062,-1.0938 -4.0938,-0.5 -4.0938,0.5 -2.0937,2 -0.9063,3 -1.1874,4.3126 -2.5,2.5937 -2.125,1 -2.5,3.0937 -2.5,3 -2.5938,2 -2,0.5938 -2.5938,-0.5 -1.5,0.5 -2.5937,1 -4.0937,0 -3.125,0.5 -5,2.2188 -3.0938,1 -3.6875,-0.3126 -4.0937,-0.3124 -1.9063,0.2187 -1.7187,0.2813 -4,1.3124 -3.6876,1.1876 -4.4062,2.9062 -3.5938,3.5938 -2,2.5 -2.5,2.125 -2.0937,1 -2.8125,-1 -1,-1.625 -0.5,-1.5 -1,-1.5 -2.0938,-0.5 -2,0.5 -2.5937,2 -2.3125,2.2187 -2.5,3.0937 -2.9062,2.8126 -3.1876,1.7812 -3.0937,1 -5.0937,1.0938 -4.125,-0.5 -2.0938,-0.5 -0.5,-1.5 -1.0938,-2 0.5,-2 0,-1.5 -0.5,-1.5 -1,-1 -1.0937,-0.5 -1.5,0.5 -4.0937,2.125 -3.5,3 -2.4063,2 -1.5,2 0,3.5937 1,2 1.0937,2 1,2.5 0,3 -0.5,2.5 -1.0937,1.5937 -2.0937,1.8126 -1.4063,1.2812 -2.0937,0.9062 -2,0.5 -3.625,0 -2.0938,0.5 -2,1 -1.5938,1.5 -2,1.5 -3,0.8126 -2.6874,0.1874 -2.9063,-0.094 -3.0937,0.5 -2.5,1 -3.125,2.0937 -3.5,4.5938 -2.5,4 -2.0938,2.0938 -1.7812,1.5 -2,0.5 -1,0 -2.125,-1 -1.5,-0.5 -2.0938,0.5 -1.1875,1.125 -0.3125,1.875 -0.6875,2.125 -0.5,2.375 -0.5,2.2187 -0.4063,1.2813 -1,1 -1.5937,0.2187 -2.0937,0.5937 -3.5,0.5938 -1,0.2188 -3.7188,0.7812 -3,0 -2,-0.1875 -2.0938,-0.3125 -1.5937,-1 -1,-2 -0.5937,-1.5 0.5,-3 1,-4.5 1,-3.0938 0.1874,-2.4062 -0.5,-2.5 -1.3124,-1.0938 -2.0938,-1 -1.5,0.5 -23,6.5 -4,1.0938 -42,11.7188 -10.5938,3 -15.9062,5 -9.7812,2.7812 -29,8.7188 -4.2188,1.2812 -67.9062,20.3125 -56.5938,16.9063 -33.2812,10.0937 0.6874,2.5 0.5938,1.7813 0,1.5 0.9062,1 1.9063,1.8124 0.2813,0.5 0.3124,1.8126 -1,2.5 -1.5937,2.1874 -1.3125,1.4063 -1.9062,1.7813 -2.2813,2.2187 -1.8125,2.2813 -0.7812,1.3124 -0.3126,0.6876 -1.0937,1 -1,1.4062 -1.0937,0.8125 -0.7188,0.6875 -1,1.5938 -0.5,0.9062 -0.2812,0.7188 -0.8126,1.875 -0.9062,2.2187 -0.094,3.1875 1,2.0938 0.5938,2 -0.6875,1.5 -0.7187,1 -0.1876,0.625 1.5938,1.5 1.2188,0.875 1.6874,1.7187 0.3126,0.5 0,1.5937 -0.125,0.8126 -0.5,0.5 -0.6876,0.375 -1.0937,-0.7813 -0.5937,-0.5937 -2,-1.625 -2.125,-0.5 -1,0.2187 -0.7813,0.4063 -1.7187,2.0937 0.3124,2.7813 1.5,2 3.0938,3.125 2,1.5 2,2.0937 1.0938,2.5 0,1.5 -0.1876,0.5937 -1.9062,1.4063 -1,0.5 -1.1875,0.5 -2.0937,0.4063 -2.5,-1.125 -1.625,-2.375 -1.375,-1.125 -2.5,1 -0.5,2.2187 -0.2188,1.1875 -0.2812,1.9062 -0.4063,1.3126 -0.4063,0.7812 -2.0937,1.0938 -2.2187,1.3124 -2.0938,1.5 -1.9062,1 -3,-0.094 -2.0938,-0.5 -2.5,-2.5 -1.5,-1.5937 -2.0938,-1 -0.8124,0 -1,0.1874 -2,1.4063 -0.5938,1.7813 -0.2812,1.5 -0.125,3.3124 0.4062,3.3126 -0.4062,2.7812 -0.2813,1.3125 -1.4063,0.6875 -1.9062,-0.5 -2,-2.5 -2.0938,-1 -1.1874,0.5 -1.4063,0.5 -2.5,2 -0.7187,0.7188 -1.375,1.2812 -4,4.0938 -2.3126,2.8124 -1.3124,2.1876 -1.5938,3 -2,2.5 -0.5938,0.8124 -0.9062,0.9063 -1.1875,0.7813 -1.4063,0.625 -1.5,0 -1.5937,0.5 -1.5,2 -0.5937,1.375 -1.125,2.125 -2,-0.125 -0.875,0 -1.125,1.125 -0.5,1 -0.5,2.5 0.5,4.0937 -0.1876,1.0937 -0.5937,1.1876 -1.0937,1.625 -1.5,0.375 -1.625,0 -1.1876,-0.1876 -1.1874,-1.5 -0.3126,-0.5 -0.8124,-1.9062 -0.2813,-0.9062 -0.3125,-0.6876 -1.9062,-0.5 -0.5,0.5 -0.7813,1 -0.5,0.9063 -0.5937,1 -0.4063,0.5 -2,2 -2.0937,1 -2,1 -3.625,0.5 -9.7813,0 -0.4063,0.094 -2.0937,2 0,1.5 1.5,2.1876 0.9063,2 0.1874,0.7187 0,2.1875 -0.8124,1.0938 -0.875,0.9062 -0.9063,0.4062 -1.5,0.1876 -3.4063,0.4062 -3.3124,0 -0.5938,0.3125 0.2188,1.0937 1.0937,1.5938 1.0937,1.7188 0.3126,0.7812 0.5,2 -1,2 -2.125,2 -1.2813,1.2188 -0.2187,3.2812 0.4062,2.5 0.4062,2.5938 0,0.7187 -0.3124,1.7813 -1.7813,0.5 -1.8125,-0.5938 -0.5,-0.1875 -2,-1.7187 -2.5938,-1.5 -1.5937,-0.5938 -0.5937,-0.1875 -2.4063,0.9063 -1.8125,2.0937 -0.5,2 -0.5938,2.5 -1.1874,2.4063 -1,2.5 0.5,2.5 1.5,1.5 0.875,2.6874 0,1.1876 -0.375,2.7187 0,2.0937 -0.2188,1 -0.4062,2.3126 -0.375,1.1874 -0.8126,1.5 -2.0937,2 -2.2187,0.4063 -1.5938,-0.3125 -0.9062,-0.1875 -2.5938,-1.4063 -2.0938,-2 -2,-1.0937 -0.8124,0 -1.5938,0.1875 -2.0938,1.3125 -1.0937,2.0937 -0.9063,1.1876 -1.6874,1.3124 -2.5,0.5 -1.625,-0.5 -2.875,-1.5937 -0.5,-0.2187 -0.7188,-0.1876 -1,0.5 -1.0938,1.5 -0.4062,1.6876 0.8125,2.3124 1.6875,2.5 1.5,2.0938 0.9062,2.5 -0.5,2.0938 -1.5,1 -2.9062,1.4062 -3.5938,2.0938 -2.9062,2.2187 -3.5938,3 -1.6874,1.5 -1,1.2813 -3.125,4 -0.094,2.625 0.094,4.5 0.2187,2.2812 0.5937,2.8125 0.094,1.6875 0.3125,2.9062 0.4063,4 -0.125,3.5938 -0.5,4 -0.094,4 0.4062,3.0938 -0.3124,0.8124 -1.1876,1.3126 -0.5937,0.1874 -2.2187,0.5 -1.2813,1.3126 -0.5937,0.7812 -1.7188,3 -1,1.5 -1.4062,1.3125 -2.1876,1.1875 -1.5937,2.5 -1,1.5 -0.7187,1.4062 -0.375,0.5 -1.625,1.4063 -1.1876,0.9063 -1.4062,1.0937 -2.2812,1.2813 -2.4063,1.625 -2.5937,3 -2.625,3.5 -2.1876,3.5 -0.5,2.5 -0.5,4 0.5,3.5937 0.8126,3.5 0.2812,1 0.2188,0.5 1.2812,3.5 0.5,1.0937 1.0938,2 0.5,2 -1.0938,2.5 -2,2 -1.0938,2.5 0.8126,1.6876 1.6874,1.4062 3.1876,1.5 0.5,0.2188 1.625,0.7812 2.1874,2.2188 1,2.0937 0.4063,0.6875 0.5,3.5 -1.0937,1.7188 -0.4063,0.875 -0.5937,2.5 0.5937,1.4062 0.2813,0.8125 1.3124,0.5 1.4063,0.2813 1.7813,0.3124 1.2187,0 2.5937,0.094 5.0938,2.0938 2.5,2.625 2,2.5 0.7188,0.7812 1.2812,1.3125 2.8125,1.1875 0.5,0.3125 4.5937,0.4063 3.5938,-0.125 1.2188,0.625 1,0.375 0.1562,0.1562 3459.5313,0 -9.8125,-9.4375 -126.5938,-121.9063 -11.0937,-0.094 -16.4063,-0.2187 -34,-0.2813 -166.9062,-1.0937 -47.0938,0 -215.7812,-1.9063 -98.8125,-1 -113.8125,-0.7187 -107,-0.5938 -106.5938,-0.5938 -108,-0.8124 6.4062,-70.2813 5.4063,-60 -52.8125,-73.9063 -18.1875,-25.5 -22.8125,-32 -14.7812,-20.1874 -27,-36.9063 -5.625,3.5 -92.0938,62.6875 -3.2812,2.2188 -2.625,-4 -1.5,-1.5 -1.6876,-2.8126 -1.9062,-2.1874 -2.2812,-3.3126 -1.8126,-2.8124 -1.8124,-3.1876 -0.6876,-2.8124 -0.9062,-3.7813 0.4062,-5.8125 0.5,-7.2812 1,-5 1.0938,-3.8126 1.0938,-4 0.8124,-2.5937 0.9063,-3.3125 1.7813,-2.0938 1.5,-1.5937 4.625,-2.5937 1.5,-0.9063 2.5937,-0.5 2,-1 1.5937,-2.0937 0.6876,-1.9063 0.3124,-2.5937 0,-4.5 -1.5,-5.625 -0.5,-3 -1.5937,-3 -2.5,-3 -1.5937,-1.5 -2.625,-0.875 -2,-0.7188 -2.0938,-0.7812 -0.9062,-1.2188 -1.0938,-2.5 -0.094,-3.2812 0.5,-3 1.4063,-3.125 2.2813,-4.6876 2.625,-3.5 -21.4063,-1.4062 -103,-7 -29.8125,-2 -103.5,-6.0938 -35.4062,-2 -77.375,-4.4062 -62.625,-3 -92.2813,-4.5938 -58.8125,-2.9062 -21.6875,-1.1875 -52.8125,-2.5 -97.0938,-5.3125 -41,-2.1875 -47,-2.5937 -164.6874,-9.125 -3,-0.094 -55.4063,-2.5 -63.5937,-3.0938 -2.5,0.5 -3.125,0.5938 -2,0.4062 -2.0938,1.5938 -1.5,0.5 -1.5,0.5938 -4.0938,1.5 -2,0.5 -2.5937,0.5 -1.5,0.5 -1.5937,1 -2.5,1.625 -2.7188,1.5 -3,0.5 -2.5,0.094 -3.1875,-0.094 -1.4063,-0.9063 -0.5937,-0.3125 -2,-1.0938 -2.5937,-1 -2,-0.5 -2.7188,0.5 -2.4062,0.5938 -2.0938,-0.2812 -3.0938,-0.7188 -1,-1 -1.5,-1 -2.0937,-1 -2,0.5 -2.5937,1.5938 -2,2 -1.625,1.5 -0.5,0.7187 -1.5,1.9063 -1.5,2.5 -2.1876,1.5 -2,0 -1.5937,-1 -2.5,-2 -3.0937,-3.5 -2,-2.5 -1.125,-2.625 0,-2 1.125,-1.5 1.5,-1.5 1,-1.375 0.5,-1.125 -0.625,-2.375 -1,-2.125 -1.5,-3.0938 L 896.9996,7.125 894.6872,3.4062 893.0934,0.8124 891.0622,0 889.9996,0 z"
     id="rect4"
     inkscape:connector-curvature="0" />
  <path
	 style="fill:#9FAEC0"
	 stroke="#9FAEC0"
	 stroke-width="10"
	 transform="translate(0, 100)"
     d="m 45.4688,590.1562 1.2188,1.25 1,1.2188 1.625,3.5 1,3.5937 3.0937,4.5 3.2813,3.1875 1.8124,1.8125 6.9063,4.4063 4.5,3.0937 2.5,1.5 7.5937,4.6875 5.6876,3.9062 0.4062,0.3126 5,3.1874 3.8125,4.5938 3.0937,4 2.0938,4.59375 2,4 3.0938,3 4.125,2 2.5,0.3125 2.0937,0.1875 4.6875,0.40625 7.5938,0.71875 4.9062,1.59375 2.9062,1.5 1.0938,0.6875 3.5938,2 3,2.09375 2.4062,0.5 2.8125,-0.78125 3.9063,-1.59375 2.7812,-0.40625 3.5938,0.0937 2.5,0.5 3.4062,0.8125 3.5,1 3.0938,0.875 1.625,1.5 1,2.125 -1.625,1.5 -1.375,0.5 -2.625,2.5 -1,3 0.4062,2.5 2,2 2.5,1.09375 2.5,0.5 2.3125,1.5 1.2813,1.6875 -0.094,1.21875 0,3.28125 0.9062,2 1.3126,1.8125 5.2812,3.09375 3,1.90625 3,3.59375 1.5938,2.5 1.125,3.09375 0.5,3 2.5937,3.09375 2,0.5 1.5937,0.5 2,0 3.0938,0.125 2.0938,1.59375 0.5,2.09375 0,2.1875 0.5,0.8125 0.5,0.5 1.5,0.5 1.5,0.59375 2.125,1 1.5,2.21875 1.2812,1.1875 3.9062,4.8125 1.6876,2.59375 0.8124,1.90625 0.6876,1.59375 1.5,3.09375 1,2 0.5,1.1875 0.4062,0.71875 2.5938,1.6875 2.5,0.59375 3.125,-0.5 3.0937,0.125 3,1.09375 2.5937,1.5 2,2.59375 0.094,1.09375 0,2.40625 -1,2 -0.6875,1.09375 -0.8125,1.40625 -0.4062,1.6875 0,0.8125 1,2.5 0.9062,2.09375 3.0938,3.5 5.125,5.5 1.375,1.21875 2.5,1.59375 1.125,0.28125 4.1874,0 2.6876,0.40625 2.4062,0 1.0938,0.59375 0.8124,0.5 1.5,2 0.1876,1.625 0.2187,1 0.9063,1.875 1.0937,1.625 2.7813,3.6875 1.2187,1.3125 1.5,1.09375 4,2.6875 5.5937,2.59375 5.0938,1.625 1.5938,1 2.2187,1.5 5.0937,3.09375 4.0938,2 3.7188,1.40625 1.375,1.09375 1.2187,0.90625 0.5,0.59375 1.4063,1 2.5937,1 2.5,-0.5 3.1875,-1.8125 0.9062,-0.6875 1,-1 2.0938,-3 1.5,-1.5 2.8125,-1.8125 2.7813,-0.78125 2.625,-0.125 2.5937,0.5 1.5,0.5 2.2813,0.625 2,-0.125 1.625,-0.78125 0.7812,-0.5 1.5,-0.59375 1.5938,-0.3125 1.9062,0 1.0938,0.3125 1,0.28125 0.8124,0.5 1.0938,0.59375 0.7188,0.625 1.7812,1.5 0.5,0.28125 3,2.21875 2,0 3.0938,-1.40625 2.625,-1.5 3.6874,-2.90625 1.5,-0.1875 2.3126,0 3.5937,0.5 1.0937,0.1875 1.6876,0.6875 3.125,1.21875 0.6874,0.40625 2.8126,0.5 3.0937,-0.5 2.5937,-0.90625 2.8126,-2 3.875,-1.3125 2,-0.28125 1.2187,0 4,0.5 5.0937,1.375 7.0938,3.8125 3,2 2.4062,1.8125 1.1876,1.5 1.3124,1.59375 1.4063,2 0.5937,0.90625 1.5938,3 1,2.09375 0.8125,2 0.2813,0.5 2.4062,2.5 0.5,0.40625 1.7188,1.6875 2,1.5 0.875,1.40625 1.3124,3.28125 1.4063,3.3125 2.5937,9.59375 1,4.21875 1.0938,4.375 1,5.5 2.5,5.40625 1.4062,2.90625 0.6876,3.3125 0,4.09375 0.5,3.5 0.5,3 1.125,3.5 1,3 1.375,3.59375 1.5,4 0.4062,5.09375 0.3125,1.90625 0.1875,1.09375 1.4062,4.09375 1.6876,2.21875 1.8124,3.28125 0.4063,3.125 0.094,0.875 0,2.5 0.3126,2.71875 0,2 0.2812,4.5 0.094,1.40625 0.9062,3 1,1.78125 2,2 0.7188,0.90625 1.375,1.40625 2.125,1.59375 0.5,0.40625 5.875,3.90625 2,1.09375 5.125,4.6875 3.0937,2.59375 2.2813,2.3125 1.9062,1.59375 1.7188,1.71875 1.7812,3.28125 1.8125,4.5 1.2813,2.8125 0.5,1.59375 1.8124,10.1875 2.5938,8.125 0.7188,2.1875 1.5937,3.90625 2.4063,5.59375 2.375,5.4062 3.125,5.0938 2.5937,4 1.4063,2.1875 2.875,3.2187 4,3.5938 4.125,3.0937 3.5,3.5 2,2.7188 2.5,4.0937 1.375,4.5 1.4062,5.5938 0.8125,3.3125 0.094,0.7812 1.4063,8.0938 1,5 0.4063,2.125 0.2812,2.0937 1.5,5.0938 0,3.4062 -0.5,5.0938 -0.5938,3 0.094,3.0937 1,3 1.0938,2.5 0,2.9063 -0.5,3.1875 -1,3 0.4062,1.9062 1,2.5 1.5938,2.5938 1.5,2.625 0.7187,1.0937 0.9063,1.4063 1,2.0937 1.1874,3.5 0.9063,6 0,4.5 -0.2187,4.0938 -0.094,3.5937 1,2.5 0.7188,1.9063 0.6874,2.1875 1.4063,2.9062 1.5937,4 3.5,7.8125 1.5938,5.7813 1.5938,4.2187 0.625,1.1875 2,2.5 2,2.0938 0.4374,0.2812 3531.2813,0 -63.4375,-63.0625 -110.1875,-109.7187 -1.4062,-1.375 -61.6875,-60.625 -2.8125,-2.6875 -188.3125,-184.09375 -103,-99.09375 -10.0938,-9.71875 -62.0937,-59.75005 -3459.5313,0 z"
     id="rect6"
     inkscape:connector-curvature="0" />
  <path
	 style="fill:#9FAEC0"
	 stroke="#9FAEC0"
	 stroke-width="10"
	 transform="translate(0, 75)"
     d="m 576.75,1180.2812 3.5626,2.3438 3.6874,2.5 0.5938,0.2812 2.5,1.2188 3.5,1.5 1.3125,0.375 2.0937,0.9062 2.8126,1 0.5,0.3125 2,2 2.5937,2.5 0.9063,0.6875 1.2812,1.3125 2.9062,2.5 2.5,2.5938 2.5938,4.0937 2.5,4.5938 4.7188,9.4062 2.1874,3.9063 0.9063,1.5937 3.0937,5.0938 3.5,3.125 2.5938,1.875 1.4062,1 2,1.7187 1.5,1.9063 1.3126,3.5 0.5,2.6875 0,2.5 -1.625,4.0937 -0.5938,3.5 1,5 0.7188,2.0938 1,2.3125 3.0937,3 2.5937,1.9062 3.0938,1 3,1.0938 2.0938,1.0937 2.5,3.5 1.5,3 1.625,3.5 1.5,3 1.2812,1.5938 1.3125,1.5 2,1.625 2.0937,2.375 1.5,3 2,3 2.5938,2.625 3.0938,2.5 3.125,3 1,1.1875 0.7812,1.4062 0.5938,1.9063 0.125,1.0937 -0.5,3.5 0,1.5 0.094,2 0.9063,3.5938 1.5937,5 0.2813,1.6875 3,5.625 4.4062,8.0937 1.8125,4.7813 0.6875,1.8125 1.9062,6.0937 0.8126,2.8125 0.5937,1.7813 0.4063,1.3125 1,2.3125 1.2812,2.6875 2.3125,3.9062 1.5,3.5 1,2.5938 0.5,1.4062 1.0937,3.5 0.5,3.5938 0.9063,3.1875 3.1875,4.125 0.5938,1.1875 0.4062,0.5 4.0938,3.5937 2.5,2.5938 4,1.8125 4.125,1.0937 3.1874,0.5 4.0938,1 1.7188,0.3125 1.875,0.1875 4.125,0.5 4.5937,0.9063 3.2813,1.6875 1.125,0.4062 2.7812,1.5938 2.7188,1.8125 0.375,0.4062 2.5,3.7813 1.3124,2 1.3126,2.125 2.0937,2.5 0.5,0.375 1.5937,2.9062 1.9063,3.2188 1.6875,2.375 1.9062,2.7187 4,5.5 2.0938,3.0938 5.5938,5.1875 8.5,6.7187 8.4062,7.4063 2.0938,1.875 14.7187,11.9062 11.4063,9.7188 4.6874,3.7812 1.9063,1.5 2.6875,1.8125 3.5938,1.5 5,1.4063 5.125,1.1875 6.0937,1.0937 5.0937,1.7188 2,0.7812 1.6876,0.8125 3.125,2 5.5937,5.5938 13.1875,12 6.8125,5.0937 3.0937,0.5 3.3126,0.2188 1.0937,0 2.1875,0.2812 2.5938,1.5 2.625,2.0938 1.5,1.4062 4.0937,3.5938 13.7813,13.125 14.9062,12.5937 3.5,3.6875 1.9062,3.0938 1.5,3.5 0.4063,1.4062 0.2813,2.4063 0.5,4.0937 0.625,4 1.875,4.9063 1.625,1.1875 1.875,0.7187 0.7187,0.1875 3.5,0.5 3.6875,1.0938 2.9062,2.625 5,4.5937 7.0938,6.1875 3.9062,4.0938 8.1876,8.2187 4.125,5 1.5,2.6875 1.1874,2.5938 1.3126,2.9062 0.5937,1.9063 0.9063,3 1.1874,3.5937 1.9063,3.8125 0.9063,3.0938 -0.125,3.5 0.3124,1.6875 1.1876,3.4062 0.8124,2.7188 0.094,3.0937 0,0.9063 -0.5,3 0,3.5 0.2188,1.6875 0.5,2.8125 2,5.0937 2.5,3.5938 3.5,4.5 3.5937,3.5 3.7813,3.4062 2.625,2.9063 2.7812,3.2812 0.8125,0.8125 1.4063,2.0938 1.6874,3.0937 0.1876,0.5938 2.5,3 1.8124,1.7187 1.6876,2.4063 0.5,0.5 0.7187,1.375 0.5,3.125 0.5,2.5 0,7.5937 -0.5,5.5938 0,5.4062 1,5.5938 0.5,2.3125 0.6875,1.875 2.9062,8.625 1.0938,2 1,1.2812 5.0938,6.0938 1.4687,1.4375 2990.2188,0 30.5312,-40.5313 9.6875,-11.0937 29.3125,-26.6875 19.5,-25.125 6.0937,-5.5938 7.1875,-6.5 7.7188,-8.5937 36.4062,-32.6875 9.7813,-8 28.7187,-19.7188 10.1875,-8 2.0938,-2 6.7187,-5.0937 14.2813,-7.5 22.5937,-13.0938 13.8125,-7.5 11.3125,-6 9.1875,-4 24.5938,-9.5937 17.4062,-6 12.3125,-5 13.2813,-4.5 14.4062,-4 5.5938,-1.5 10.7187,-4.5 0.5938,-2.625 -9.8125,0.5 -9.1875,-2 -2.5,-3 -0.5,-4.5938 -1,-6.5 -2.0938,-2.0937 -2,-1 -2.625,1.5 -2,1 -8.1875,4.5937 -11.3125,3 -9.1875,-0.094 -3.0937,-2.5 0.5937,-1.5 2,-1 6.6875,-1.5 8.7188,-0.5 7.0937,-3 1.5938,-5 4.0937,-2.0937 3.625,-0.4063 2.5,-1.0937 1.5938,-3.5 1.5,-0.5 -67.5,-66 -99.8125,-97.9063 -18.4063,-18 -102.1562,-101.5312 -3531.2813,0 z M 4401.8126,1469 l -0.8125,1.8125 2.0937,3 3,2.5 2.0938,4.5937 -0.5938,4.5 1.5938,2.0938 2,2 4.625,0 2.5937,-1.5 0.5,-2.5 -17.0937,-16.5 z"
     id="rect8"
     inkscape:connector-curvature="0" />
  <path
	 style="fill:#9FAEC0"
	 stroke="#9FAEC0"
	 stroke-width="10"
	 transform="translate(0, 50)"
     d="m 1055.1563,1770.4375 3.3437,3.2812 1.3126,1.2813 4.1874,2.125 3.5,1.1875 1,0.3125 4.0938,1 2,0.5937 1.5938,0.4063 3.125,1.5 2.5,2 2.0937,3 1.4063,2.5937 2.6874,4.5 2.4063,3.1875 0.6875,0.8125 2.0938,2.1875 3.125,2.0938 3,1.625 0.5,0.094 2.5,0.094 3.0937,0 4.0937,-1.5 3,-2 3.3126,-2.4063 3.0937,-1.5 2.2813,-0.1875 2.125,0 2.5,0.5 2.0937,0.9063 2.1875,2.0937 1.5,1.5 2.5,2.5938 2,2.5937 1.4062,2.2188 0.5,0.7812 3.1876,2 3,2 4.5,1.9063 3.2187,1.5937 4.0937,2.5 1.6876,1.0938 2.125,1.5 4.375,3.5 3.125,2.2187 3.5937,2.0938 4.0937,1.5937 4.5,2.0938 2.5938,2.125 1.7188,2 0.875,1 2.625,3.375 0.6874,0.8125 3.3126,4.4062 6.1874,7.5 1.6876,3.0938 1.3124,1.4062 2.0938,2.5938 0.4062,0.4062 3.1876,2.5938 5.125,4.0937 0.6874,0.5 1.3126,1 1.5937,1.4063 0.5937,0.8125 0,2 1,2.0937 1.0938,1.4063 0.9062,1.0937 2,2.0938 2.5,3.0937 4.4063,6.5938 2,3.625 2.5,4.2812 0.4063,0.7188 1,3.0937 0.5,3 0,4.5 0.5,5.0938 2.0937,3 2.5,3 2.5937,1.5 3.0938,1.0937 4,1 4.5,1.9063 3.7188,1.1875 4.0937,1.9062 2,0.8125 1.5,1 2,1 1.0937,0.5 3,2.0938 1.0938,0.5937 1.9062,1 2.1876,0.8125 0.625,0.2813 1.875,0.8125 1.7187,0.6875 2.5,1 3.7813,2.2187 1.8124,0.7813 1.5938,1 2.0938,1.8125 0.625,0.5 2.375,2.8125 2,3.375 2.625,6.2187 0.875,2.5938 0.9062,1.9062 3,4.0938 1.4062,2.9062 0.5,3.0938 -0.094,2.5 -1.5,2.5937 -2.5,2 -1.7187,0.5938 -0.875,0.3125 -3.625,1.0937 -2.6876,0.9063 -2.4062,1.5937 -0.5938,0.7188 -0.4062,1.375 0,0.9062 0.3125,1.7188 0.4063,1.0937 0.6874,1.4063 1.3126,2.1875 2,3.0937 0.2812,2.2188 0,2.875 -1.5,2.9062 -2.0938,2 -2.0937,1 -1.5,0.2188 -3.4063,0 -3,-0.4063 -0.5937,0 -1.9063,0.4063 -1.9062,1.5 -0.6875,2.5937 1,3 2.5,2 2.5,1.5938 2.5937,1.9062 1.0938,1.5 0.3125,0.5938 1.0937,3 -0.5,4.5 0,1.0937 0.3126,2.7188 1.7812,4.2812 2.5,3.5 2.0938,3.0938 0.4062,0.8125 0.5,1.4062 -0.5,1.4063 -0.5,1.1875 -1.5,2 -1,0.5 -1,0.1875 -1.2812,0 -1.4063,-0.2813 -1.5937,-0.8125 -1.3126,-0.9062 -0.8124,-0.5938 -1.2813,-0.9062 -2,-1 -2.0937,0 -0.4063,0.3125 -2.0937,1.6875 -1,3 0.094,0.8125 0.6875,2.1875 2.5,2.625 2.8125,2.375 3.0937,4.125 0.094,0.7812 -0.094,2.4063 -0.5,3.9062 -1.0937,2.5 -1.0937,2.5938 1,1.5937 1.6874,0.9063 2.5,0.5 1.3126,-0.3125 2.7812,-0.6875 4.5938,-0.5 1.4062,0.9062 1.7188,0.5938 1.375,-0.5938 2,-0.9062 2.625,-1.5 3.1874,0 0.6876,0.4062 0.8124,0.7813 -0.5,1.2187 -2,1.5938 -2.3124,1.5937 -1.375,1 -0.9063,0.9063 -1.3125,1.5937 -0.5938,0.9063 -0.5,2 1.4063,2.0937 2.5,2 2.5937,1 1.5,2 1.5,1.5 -0.094,2.2188 -1,2 -0.7187,1.5 -0.1876,1.2812 1.0938,1 1.9062,-0.4062 1.4063,-2.2813 0.4063,-0.7187 0.2812,-1.5 0.5,-2.7813 0.5,-3.8125 2.0938,-3.5 0.9062,-0.1875 1.7188,0 0.7812,0.7813 0.7188,0.9062 0.5,2.4063 -0.5,3 -0.625,2.5937 0.625,2.5938 1.5,1 2,0.8125 0.5937,0.094 2.2813,1 0.2187,0.7187 0.2813,1 -1.0938,2.5 1,1.5 1.9062,0 3,-1 1.5,0 0.8126,0.094 1,1 -0.125,2.5938 -0.5,3 -0.094,2.5 0.5,1.4062 0.5,1 2.5938,0.5 1.3124,-0.3125 1.1876,-0.4062 0.7187,-0.6875 0.9063,-1.1875 2.0937,-2.625 2.5,-1.375 2.5937,-0.5 2,1 0.5,2.5 0,2.0937 1,2 2.0938,1 1.4062,-0.5 1.5938,-1.4062 0.7188,-0.6875 1.875,-1.5 2,-0.5 1.4062,0.2812 1.7188,0.5938 1.7812,2.3125 0.5938,2.6875 -1,1.625 -0.5938,2.5 -0.5,1.5 -0.5,0.5 -1.2812,0.1875 -2.125,-0.5 -1.5,-0.5938 -2.0938,-0.5 -2.5,0 -1,0.5 -0.5938,1.0938 -0.5,0.9062 -0.3124,1.0938 0,2.5937 -0.094,2.5 0.5,3 2,1.5938 2.2188,1.625 1.375,0.7812 4.125,0.5 2,0.7188 0.875,0.1875 2.625,1.5 0.875,3.0937 1.625,2.5 1.875,1.5938 1.8124,0.9062 1.8126,1.2188 0.5937,1 0.1875,2.375 -0.5,2.125 -0.5938,2 1.5938,1.5 2,1.0937 2.0938,1.0938 1.5,1 0,2.3125 -0.5,1.0937 -1.5,1 -3,-0.3125 -1.5938,-0.7812 -2.1875,-1.4063 -1.4063,-2.0937 -1.5,-2 -2.1874,-0.9063 -2.4063,-0.094 -1,1.5 -0.5,1.5 0.094,0.875 0.6876,1.5 1.5,1.9063 2.125,2.0937 1.5,1.125 0.375,1.5938 0,0.6875 -0.1876,0.9062 -1.4062,0.9063 -2,0 -2.2812,-0.5 -2,-0.094 -1.625,1.0937 -0.2813,0.6875 0,0.5938 0.4063,2.3125 0.2812,0.9062 0.8125,1.4063 0.6875,1.2812 0.7188,0.9063 2.5,2.5 3.5937,3 5,2.5937 4.2813,3.5 3.2187,4.3125 2.1875,1.7813 0.7188,0.5 5.0937,1 3.6875,1.4062 3,1.5938 2.5,2 1.5,3.125 0,2.5937 1.0938,3.9063 1.5,1.5 1.5,1 2.125,0.5 1,0.5 1.5,0.5937 4.7812,1.7813 7.5,1.2187 4.0938,-1 2.125,-1.5 0.5,-2.0937 -0.625,-1.8125 -0.5938,-1.5 -0.2812,-0.8125 -0.7188,-2.2813 0.094,-1.5 2.125,-2 1,0 1.5,0.2813 2.5937,1.625 0.6875,0.5937 4.3125,4.2813 1.0937,3.125 1,3.0937 0.5,0.9063 0.5938,1.0937 1.4062,2.5 0.6876,0.9063 1.4062,2.0937 1.5938,2.0938 1,2.5 0.2187,1.3125 0.094,1.1875 -0.3124,2.5 -1.0938,2 -2,2.0937 -1,1 -1.5,1 -1.7812,1.4063 -0.625,0.5 -1.0938,1.5 0.4062,2.5937 0,1 -0.5,1.5 -1.5,1 -1.0937,1.4063 0,2.0937 1,2 1.5937,4.7188 0.3126,0.875 1.875,6.625 2.5,5.5937 2.9062,4.5938 4.2188,4.5 6.0937,6 4.6875,4.4062 1.9062,1.6875 5.1876,4.5938 5.125,4 3,3.5 2.5937,2.5 2.2813,2.3125 2.125,0.5937 2.5,1.0938 3.2812,2.125 2.5938,1.875 2.125,2.125 2.0937,0.5937 2.5937,1.1875 0.9063,0.2188 2,0.5 3.0937,0.5937 10.1876,3 9.2187,4 7.6875,3.0938 4.5,2.8125 0.9062,0.5937 4,3.6875 3,3.5 0.4063,0.4063 3.5,2.6875 1.0937,0.5937 22.7188,0 4.875,-0.6875 4.2188,-0.094 1.5624,0.7812 2116.3751,0 4.25,-4.5937 5.5937,-4.0938 7.2188,0.094 7.0937,1 6.1875,-3 4.0938,-3.0938 4.125,0.094 2.5,-1.5937 3.0937,-2.5 2.5938,-2.5 2.5,-1.5 0,-2 -3.0938,0.5 -1,-1 2.0938,-3.5938 3.5937,0 5.0938,-6 4.625,-8.0937 -0.5,-5.5 -4.625,-4.0938 -5.5938,-3 -6.0937,-4.625 -7.1875,-1.5 -7.625,-2 -6.6875,-0.5 -5.0938,-0.094 -1,-0.5 -4.0937,-1 -4.125,-1.5 -3.5938,-2.5 -4.0937,-2.0937 -4.5938,-3 -1.5,-2 5.0938,-1 8.1875,0 9.2187,-0.5 7.1875,3 3.5,0.5937 2.5938,0.5 6.125,1 6.1875,0.5 7.0937,-1.5 3.0938,0 5.625,2 4.5937,3.5938 7.1875,4 4.5938,5.125 1.5,6.0937 -1.5938,5 -5.0937,6.5 -1.5,3.5938 3.5,-2 4.5937,0 5.7188,-3.5 7.0937,-2.5938 1.5938,-6 0.5,-7.0937 -6.0938,-8.625 -4.0937,-4.5 -3.5,-5.0938 -2.625,-5 -3,-3.0937 -6.1875,-1 -7.0938,0.5 -6.2187,0.5 -3.5938,-2 -3,-2.5938 -5.0937,-2 -2.0938,-0.5 -2.5,-1 -3.0937,-2 -2,-3.5937 0,-1 0.5,-2 6.0937,0.5 7.1875,-1 2,0 6.2188,-3 4.5937,-3 3.0938,-3.5 1,-0.5 3.0937,-2.625 4.5938,-1 3.625,3.125 3,3.5 1.5,3 3.0937,3.5937 5.5938,1.5 4.0937,1 3.5938,2.5938 4.625,4.5 1,3.5 1,6.0937 0.5,6.0938 0,6.5 -1.125,5.125 -0.5,6.5 2,15.1875 2.125,-3 4.5937,-17.1875 3.5938,-8.125 7.1875,-7.5 6.125,-3.5 8.1875,-4.5938 3.5937,-3 2.5938,-3.5 3.625,-3.5937 5.0937,-8.5 3.5938,-11.0938 -3,-4.5937 -2.0938,0 0,3.0937 -3.0937,4 -1,6 -1.125,2.5938 -2.5,0.5 -2.5938,6 -3.0937,2.5 -3.5,-2.5 2.5,-6.5938 3.5937,-4.5 2.0938,-7.0937 -5.0938,-3 -3.0937,-4 -2.5,-8.125 2.0937,-8.5938 2,-12.0937 0.094,-6.5938 -2.5937,-7 -8.0938,-8.0937 -7.1875,-3.625 -8.2187,-3.5 -7.5938,-2.5938 -8.1875,-1 -7.2187,-2 -6.5938,-3.0937 -3.5937,-1 -5.0938,-5 -3,-3.0938 -6.2187,-6 -4.5,-8.5937 -3.5938,-7.125 -2.5937,-4.5 -2.5,-9.0938 0.5,-6.5937 3.0937,-7 -1,-8.0938 -3,-8.0937 3.5938,-8.125 0.5,-7.5 4.5937,-8.5938 -1.5,-7.0937 -1.5,-3.5 1.5,-3 4.625,2 2.5938,3.5 2,-7 5.6875,-8.0938 2,-10.0937 0.5937,-8.125 0,-5 1.5,-4 3.125,-0.5 1,4 -0.5,6.625 0.5,6.5 -2.125,15.0937 1.5,5.0938 3.125,1 1,0.5 2.5938,-3.5 0,-7.5938 1,-9.0937 4.0937,-7 6.6875,-9.625 5.7188,-6 6.5937,-6.5938 1.0938,-0.5 5.0937,-7 4.625,-6.0937 2.0938,-7.5938 4.0937,-4.5 3,-4.5 3.0938,-3.5937 5.0937,-5 7.7188,-5.5 1.5937,-2.5 3,-1.625 2.0938,1.625 0.5,1 -1,5 -3.0938,3.5 -4.5937,7.5937 -6.7188,6.5938 -3.0937,3.5 -4.5938,2 -3.0937,3 -1.5,7.0937 -2.5938,5.5 -7.7187,8.0938 -4.5938,4.5 -4.5937,5.625 -4.5938,5 -3.625,8.0937 -3.0937,9 -2.0938,6.5938 -1.5,7.0937 -2.5937,13.5938 -3.5938,8.5 -2.625,6.625 -2.5,1.5 -2.0937,-0.5 -1.5,-2 -1.5938,-2.5 -3,-4.625 -3.5937,3.5 -2.0938,6.625 3.0938,1 3.5937,2 1.5,2.0937 -1.5,3.5 -1.5937,1.5 -2,3 -1.0938,5.0938 2.5938,8.5937 6.5937,4 4.5938,1.5 6.0937,1.5 8.2188,-3 3.0937,-3.5 5.0938,1 6.2187,-1 5.0938,0.5 5.5937,-1 7.6875,0.094 5.125,-1 4.0938,4 4.0937,5.625 0.5,6.5 -4.6875,8.5938 1.5,11.5937 -1.5,4 1.5,9.0938 1,7.0937 6.5938,19.7188 5.0937,15.6875 3.5,8.5 1,3.5937 1.0938,2.5 2.5,0.5 2.5937,0 2,-1.5 -3,-9.0937 -4.0937,-16.5938 -3,-10.1875 2.5937,-18.125 2.125,-12.5937 2,-12.5938 3.6875,-13.1875 3.0938,-10 1,-11.7187 1.5937,-12.0938 -2.5937,-2 -3.5938,-1 1.5938,-6.0937 -1.5,-2 -11.7813,-5 4.5938,-2.5938 -0.5,-4 -2.5,-5.125 0,-3 0.5,-5 0.5,-4.5937 1.5937,-3 3.5938,-0.5 2.5,7.5937 1.5,4 -1,4.625 -1.5938,4 0,3.5 2.0938,1.5938 2.5,-0.5 1.5937,-5.0938 3.125,-6 3.5938,-1.5 2,1.5 -1.5938,4 -4.625,8.5938 0.5,4 3.625,-2 3.0938,-6 2,-3.5938 2.5937,-18.625 0.094,-13.1875 1.5,-9.5937 2.5938,-7.5 2.625,-6.0938 3.5937,-7 5.0938,-9.125 3.0937,-7.0937 4.5938,-10 3.125,-9.0938 4.5937,-7.0937 5.1875,-7 6.2188,-14.0938 3,-7.125 5.1875,-8.0937 6.0937,-8.5 4.7188,-9.5938 5.5937,-7.0937 6.6875,-9.5 8.7188,-7.5938 7.6875,-7.5 5.0937,-7.125 4.7188,-8.0937 4.0937,-6.5 3.0938,-5.0938 3.5,1.5938 1.5937,-3.5938 3.5938,-7 3.625,-8.5937 4.5937,-7.5938 4.0938,-7 4.5937,-6 1.0938,-1.125 16.4062,-22.5937 7.2188,-7.0938 11.5625,-15.375 -2990.2188,0 z M 3805.3126,2131 l -3.625,1.5 -4.0938,1.125 -1,3 2.5,3 4.0938,3 3,2.5937 3.625,1.5 2.5937,-0.5 -1.5,-8.0937 -1,-4 -2.0937,-2.625 -2.5,-0.5 z m 16.7812,12.7187 -1.5,1 0,5.5 2,0.094 2,-1.5938 2.0938,-1 1,-1.5 -2.5,-2 -3.0938,-0.5 z m -47.5937,8.5 -3,2 -0.5938,1 6.1875,6.5938 4,3 5.2188,1 1.5,-1 1,-3 -2,-5.0938 -6.125,-1 -3.5938,-1 -2.5937,-2.5 z m 29.6875,1 -4.5938,0.5 -0.5,3.0938 1.5,4 3,3 3.0938,1.0937 3.625,1.5 2.5,1 2.5937,-2 -2,-3.5937 -3.5937,-1 -1.5,-4.5 -1,-2 -3.125,-1.0938 z m -39.0938,103.9063 -2.5937,1.0937 -3.0938,1.5 -3,1 -2.5937,2 -4.625,3.5 0,3 1,2.5938 2.625,1 4.5937,-3.5 5.0938,-1.5938 3.5937,0.094 3,0.5 2.5938,0 2.5,-0.5 1.125,-1 -0.5,-4.5938 -2.125,-2 -2,-1 -2.5938,-1.5 -3,-0.5937 z m 19.4063,15.6875 -2.0938,1.5 1,5.0937 1.5,4.5 2.0938,1.5938 0.5,2 0,2.5 1.5,-0.5 0.5,-5.5938 -0.5,-7 -2,-3.0937 -1.5,-0.5 -1,-0.5 z"
     id="rect10"
     inkscape:connector-curvature="0" />
  <path
	 style="fill:#9FAEC0"
	 stroke="#9FAEC0"
	 stroke-width="10"
	 transform="translate(0, 25)"
     d="m 1550,2360.5937 1.5,0.8125 3.5938,1 3,0.5 3.0938,0 3.625,-0.5 5.0937,-1.4062 2.5937,-0.375 0.2188,-0.031 -22.7188,0 z m 33.375,0 1.4376,0.7188 2,2.0937 -0.125,2.5 -1.0938,2 -0.7812,1.5938 -1.625,3 0,2 1,1.5 1.3124,0.5 1.5,-1 1.0938,-0.6875 1,-0.8125 1.5938,-3 1.625,-0.875 2,0.5 0.6874,0.6875 0.5,0.6875 1,1.5 0.5,1 0.1876,1.2187 -0.375,1.5938 -0.7188,1.9062 -2,1.5 -0.5938,1.5 0.8126,1.6875 1.6874,0.9063 1.0938,0.6875 3,0.125 4.5938,0 2,0.5937 2.125,0.9063 1,1.5 0.875,1.5 2,2.0937 1.7187,0.9063 1.4063,0.6875 1,1.5 0.094,0.9062 0.2813,1.5938 0.625,1.3125 1.1874,1.6875 1.5,2 2,2 0.8126,0.5 0.875,0.3125 1.5,-0.5 0.4062,-1.5 0,-1.3125 -0.2812,-0.8125 0.094,-0.875 0.5,-1.9063 1.7813,-0.5 0.5,0.2813 1.8124,1.125 1.1876,1.6875 1.7187,2.9062 0.2813,0.6875 0.125,0.8125 -0.4063,1.0938 -0.5,1.4062 -1.0937,0.6875 -0.5,0.4063 -2.125,0.9062 -1,0.6875 -0.5,0.5 0.4062,2.3125 2.5,1.6875 2.2188,0.5 3.875,1.3125 0.7187,0.1875 2.5,-1.5 2.0937,-1.5 2.5,-2.2812 0.9063,0 1.6875,0.2812 1.5938,1.5 0.4062,1.3125 0.5,1 2.4062,3.0938 2.5938,1.5937 1.7188,0.094 1.7812,-0.094 1.5938,0.094 2.2187,1.5 0.5937,1.125 0.4063,0.875 0.5,2.125 1.1875,1.5 0.4062,0.375 4.0938,2.625 1.5,0.5 1.5,1 3.0938,0 2,1.5 0.5,1.5 -0.375,0.875 -1.625,1 -0.7813,0.4062 -0.7187,0.8125 -0.5938,1.6875 0.4062,2.0938 1,1 3.0938,1.625 0.5,1.5 -0.094,2 -0.1874,0.875 -0.3126,1.125 -0.094,2 1.5,1.5937 1.5,-1 1.0937,-2 1.9063,-0.9062 1,-0.1875 1.7813,-0.3125 1.5,1 1.625,1.3125 1.875,1.375 2,0.5 1.3124,0.3125 0.6876,0.1875 1,2.3125 0,1.0937 -2.0938,1.5 -0.9062,0.5 -1.5938,1 -2.5938,1 -1,1 -0.094,1.4063 1,1.6875 2,0.625 3.0937,1 1.5,2.5937 -0.094,3.0938 -1.0937,1.9062 -1.625,3 -1.0938,3.4063 -0.094,4 -1,4.5 -1.8124,8.1875 -0.375,2.5937 -0.3126,1.4063 -1,2.5937 -1.5937,1.4063 -2,0.5 -1.5,-1.5 -0.4063,-0.6875 -0.5937,-0.9063 -0.8125,-1.4062 -0.7812,-1.0938 -1.4063,0 -1,0.094 -0.2187,0.5 0,4.5937 1.125,6.5 0.2812,1.9063 1,3 2.5,4.0937 2.8125,2 1.5937,2 0.5,2.0938 -1.0937,2.625 -0.5,2.5 0.5,3 1.9063,2.5937 2,2.0938 2.7812,2.8125 4.8125,3.375 1,0.8125 1.5,1.3125 1.0937,1 0.3126,0.5937 1,2.5938 -0.5,0.9062 -1,1.5 -0.5,2 0.375,2 1.5,1 0.5,0.6875 0.5,0.9063 1.5,1.4062 0.4062,2.5938 0,3.5937 0.2188,1.8125 0.1874,1.1875 0,1.5 -0.094,1.5 0.5,2.5938 1.5,1 1,1 1.5937,0 1,-1 1.5938,-1.875 0.5,-1.5 2.0938,-0.5 0.625,0 1.7812,0.2812 1.5,1.0938 1.7188,2 0.2812,1.8125 0,1.8125 -0.4062,1.5 -1,0.5 -2.5938,0.5 -2.5938,0 -2,0.5 -1.5937,1.5 -2,3 -0.9063,1.875 -0.9062,2.2187 -0.5,2 1.3125,2.5 2.5937,1.5 2,1 2.5938,-0.3125 1.5938,-1.5 2.625,-0.4062 0.6874,0.2187 1.1876,0.5 1,1.4063 0.5,0.5937 0.9062,1.1875 0.7188,0.7188 3,1.6875 2,1 2.0937,1 1.5,2 0.4063,2.0937 -0.625,4 -0.1876,1.2188 -0.5937,1.2812 -1.5,4 -1.5,3.5 -1.5937,3.5 -0.9063,2.7188 -0.094,3 0,2 0.875,0.875 1.5,0.5 1.7187,-0.375 1.5,-2.5 2.0937,-2.5 2.5,-1.625 2.5,0.2187 0.5,0.5 0.5938,0.9063 0.7188,1.6874 0.1874,1 -0.094,2.5 1.1875,2.8126 1,0.2812 0.8125,0 1.6875,-0.2812 1.0938,-0.5 1.3124,-0.2188 1.3126,-0.4062 2.5937,0.625 2,1.0937 0.7813,0.2813 1.9062,3.2187 2.5,3.0937 1.4062,2.3126 0.5938,2.6874 -0.5938,1.5 -1,1.5 -2,0.5 -1.8124,-0.5 -1.375,0.5 -0.8126,1.1876 0.8126,1.7187 2,1.5937 1.6874,2.0938 0.5,2 -1,1.5 -0.5,1.5 1.5,1 2,1.0938 1.0938,1.4062 -0.5,1.7188 -2.5938,2.375 -0.9062,0.9062 -1.6875,2.0938 0,2 0.5937,2 0.3126,1.5 0.1874,0.625 -0.5937,2 -1,1.5 -0.5,1 0.2813,0.7812 0.5,0.7188 1.3124,2 2.5,2.5 0,1.0937 -1,2 -1,1.5 -1.5937,1.5 -2,2.0937 -0.5937,1.9063 0,1.5 1.5,1.5937 1.6874,0.9063 1.8126,0.5937 3.2812,0.5 2.5,1.5 0.7188,1.4063 -0.2188,1.5 -0.5,0.6875 -2,0.5938 -2.9062,0.4062 -3.2813,0.9062 -2.4063,1.5 -0.5937,1.5938 1,1.5 4.5937,0 2,1 1.6876,1.5 0.3124,1.8125 0.5,0.7813 0.5938,0.5 1.5,0.625 2.5938,1.375 0.4062,1.3124 0.094,2.1876 1,1 1.8124,1.4062 1,1 0,0.7188 -0.1874,0.375 -3.2188,1.2187 -1.4062,0.4063 -1.6876,0.875 -0.6874,0.3124 -2.2188,1.3126 -0.7812,0.6874 -0.7188,1 0.4062,1.4063 2.0938,1 8.2188,0 0.7812,0.4063 1.3125,1 0.5937,1 0.3126,0.5937 0,1.9063 -1,1.5937 -0.9063,1.1875 -2.0937,2.0938 -0.7188,0.5 -0.5938,0.8124 -0.5,0.8126 0,1.5 -0.4062,1.0937 -0.4062,0.5937 -1,1 -1.875,1.3126 -0.5,2.5 0.375,3 1.3124,1.2812 0.6876,0.5 1.5,1.5 0,1.8125 -0.875,1.4063 -0.625,0.875 -2,2.125 -0.5938,0.875 0.4062,1.7187 1.5,2.0937 -0.9062,1.8126 -1.9062,1.7812 -0.375,0.3125 -2.8126,0.9063 -1.0937,0.875 -1.3125,1.2187 -2.0938,2.5 -0.5937,3 1.5,2.5 1,0.5937 1.9063,1.5 0.6874,0.5 1.4063,1.3126 1.1875,1.0937 2,1.5937 1.8125,0.1876 1.7813,0.3124 1.9062,0.4063 3,2 0.4062,1.6875 0.5,2.3125 0,3.0937 1.4063,3 2,2.5938 1.5,2.0938 0.5,2.5 -0.5937,2.625 -2.125,2.375 0,2.5 0.9062,3.125 1.8125,2 2.1875,2.0937 0.4062,1.5937 -0.8124,0.8126 -2.2813,-0.5 -1.4063,-1.5 -2.6874,-0.125 -1.9063,2 0.4063,1.5 0.5,1.2187 2.875,0.9063 3.2187,1.0937 2.0937,0.4063 0.5,0.1874 1.5,2.4063 0.4063,2.6875 -1.5,2.3125 -2.2187,2.0937 -2.0938,2.5 -2.5938,2.1876 -1,0.7187 -3.8124,1.6875 -4.375,2.3125 -2.7188,3.4063 -1,1.875 -0.5938,3.9062 0.5,1.2188 0.9063,1.5937 1.0937,1.9063 0.4063,0.5937 1.7813,2.2813 2.2187,3.9062 1.1875,1.5938 1.2188,1.5 5.0937,6.2187 3.5,4.5 3.9063,4.6875 2.2812,3.4062 2.5,3.5938 1.5938,1.7188 1,1.5937 3.2187,3.1875 2.2813,2 2.125,0 1.5937,-0.5 2,-1 1.5937,-1 2,0.5938 1.5,2.125 0.8126,1.0937 0.5937,1 1.5937,1.5 1.5,1 -0.5937,3.5 0,0.7813 -0.094,1.3124 1.5,1.5 1.5937,0 2.0937,-2.4062 2.3126,-1 2.2812,0.5938 0.2188,0.7187 -0.5,4.4063 -0.5,1.375 0.2812,0.5 1.2188,1.625 1.5937,1 3.5,2.5937 8.1875,5 6.5938,2 8.625,2 0.25,0.031 16.5,0 1.625,-0.5313 2,-1 0.8124,-0.3125 1.8126,-0.5938 0.875,0.3126 0.625,0.094 0.5312,2.0313 4.1562,0 0.9063,-0.8438 1.1875,0.5938 0.3438,0.25 693.5624,0 0,-0.4376 3,-2.0937 5,2.5313 120.4063,0 3.9062,-3.4376 2,-3.5 5.5938,-1.5 3.5937,-1.5 2.0938,-2 -1.5938,-11.0937 -1,-5.0937 0,-14.125 2.5938,-5.5938 2.5937,-5.5 -1.0937,-4.0938 -4.5938,-2.5 -2.5,4 -6.6875,10.5938 -7.125,1 -6.6875,-4.5 -3,-9.5938 -2.5937,-6.5937 0.5937,-8.0937 1.5,-6 2.5938,-2.625 5.0937,-0.5 4.125,1.125 7.0938,0 -1.5,-4.625 1.5,-3.5 3.5937,-2.5 5.5938,-3.0938 -3.5,-2 -7.1875,-4 -3.0938,-3.5938 -2.5,-4.5 -2,-4.0937 0,-2.5 0.5,-2 3.5938,-1.5 2,2 2.5,7.5937 4.5937,1.5 9.1875,4.5938 5.125,4 0,5.0938 -3.625,5 -5.0937,6.625 -4.5938,7.5 -5.5937,3.0937 -6.0938,-0.5937 -5.125,-1 -2.0937,2.5 -2,6.0937 1.5,4.0937 3,5 2.0937,4.0938 3,0.5 3.125,-3.5938 4.0938,-6 4.5937,-3.5937 7.6875,0 8.2188,3.5937 1,3.5 0,2.5938 -0.5938,5 -0.5,2 -1.5,4.0938 -2.125,6.5 -0.5,5.125 0.5,10.5937 3.625,7.0937 2,8 -3.125,5.5938 -0.9687,0.8438 180.25,0 0.625,-0.625 -1,-4.5 -2.5938,-3.625 -5.0937,-1.5 -5.0938,2 -1,-5 -4.125,-2.5938 -5.5937,-2 -4.0938,-1 -4.0937,-5.0938 -6.5938,-12.0937 -1.5,-3 -2.125,-4.5937 -3,2.5 -1.5937,-4.5 -6.0938,-4 -3.5937,-1.125 -6.5938,-2.5 -4.625,-1.5 -2.5,-5.5938 -2.0937,-5.5 -3,-2.0938 -3.5938,2.5938 -5.5937,0.5 -1.5938,-0.5 -3.5,-1.0938 -3.125,0.5 -0.5,0.5 -1.5937,4.5938 -4.0938,2.5 -4,-2 -1.5937,-3.0938 -8.0938,-0.5 -3.625,0 -2.0937,-2 1.5937,-6.5937 0.5,-0.5 2.625,-5 0.5,-5.0937 4.0938,1.5937 5.0937,3 5.0938,1.5 4.0937,-3 4.625,0 0.5,5.5937 5.5938,-0.5 4.5937,-6.0937 4.0938,-6.0937 2.5937,-6 2.5,-5.125 4.625,-4.5 7.1875,-2 6.5938,-2.5 3.0937,-4.5938 2.625,-5 1,-4.5938 -1.5,-3 -2.125,-1 -3.5937,3.5 -2.5,2.5 -3.0938,-2.5 1,-9.0937 3.5938,-5 3.5937,-2.5 3.625,-1 3.0938,-0.5 4,2 3.0937,-0.5 5.5938,-3.5937 4.0937,-2 0.625,-3 -3.125,-4 1.5,-4.625 4.125,-1 4.0938,0.5 3.5937,-4 0.5,-5.0938 0.5,-3.5 3.0938,-1 3.0937,3 2.5,2 1.5,-1 2.125,-3.5 2,-3.5 4.0938,0.5 4.0937,1 3.5938,0 1.5,1 0,4.5938 -1.5,5 -1,2 -0.5938,0.5 -4.0937,3.625 -4.5938,0 -3.5,2 -6.2187,6 -3,1 -4.0938,1.5 -3.0937,1.0937 -1.5,1.5 0.5,2.5 2.5,2.5 2.0937,2.5 1.5,3.5937 -1,4 -3.0937,2 -6.0938,-0.5 -4.625,-0.5 -5.0937,0.5 -1.0938,-1 -1,-1 -4.0937,-0.5 0.5,3 1.5937,6.0938 -0.5937,5 -1,5.0938 -3.0938,3.5 -3,2.5 -3.625,1.5 -3.0937,3.625 -1.5,6 1.5,3.5937 0,6.5 -1,4.5937 -2.0938,6 -3.0937,-1 -3,-0.5 -2.0938,0.5 -0.5,3 3.0938,5.5938 3.5,2 4.0937,1 3.0938,1.5938 4.0937,2.5 8.2188,2 5.5937,0 3,4.625 1,5.5 2.0938,5.0937 2,6.5937 6.0937,4.5 1.625,1.5 2.5,0 1.5938,-2.5 1,-3 0.5,-3.5 7.1875,-1 -2.0938,5 -3.0937,3.5 7.6875,10.0938 1.5,2.0938 4.5937,3 3.125,4.125 4.0938,4.5 1.2187,3.625 13.4688,0 0.094,-0.031 3,-4.0937 5.2187,-5 4.5938,-5.125 7.5937,-9.5938 2.5938,1.5938 2.5,-1.5938 8.7187,-4.5 9.1875,-4.5 14.9063,-6.0938 17.4062,-4 13.7813,-4 8.625,-3 6.1875,0 9.1875,-3.5 8.2187,-1 10.1875,0 10.2188,-0.5 6.5937,5 4.0938,0 2.5937,-1.5 1.5,-0.5 4.0938,-4.5 2.125,-5.5937 -1.125,-5.5 -8.0938,-7.5937 -8.1875,-4.125 -2.5,0.5 -5.7187,-2 -6.5938,-3.5 -4.0937,-1.5 -6.5938,-1.5938 -5.0937,-1 -3.125,-1 -1.5,-1 2,-2 8.2187,-0.5 6.0938,-0.5 4.5937,-0.5 2.5938,-3.5938 2.625,-5 2.5,-5 4.0937,-5.5937 3.0938,-4 3.5937,-5.0937 0,-8.125 -1,-5.5 2.5,-6.5938 3.5938,-2.5 -0.5,7.0938 0,6 1.5,4.125 2.625,5.5 -1.125,5.5937 -3,4.5 -4.5938,3.0937 -4.0937,2.5 -1.5938,5.5 -2,9.0938 2.5,4.0938 7.6875,2 12.2188,-3 2.0937,-4.0938 4.5938,0.5938 7.0937,-5.0938 3.5938,-3 5.2187,-2.5 3.5,-3.5938 3.0938,-1 0.5,3.5938 -3.0938,4.5 -4.5937,5.5938 -3.625,3.5 -1.5,2 7.2187,-0.5 7.5938,-6.5 10.8125,-5.0938 5.5937,-3.5 8.6875,-4.5 8.2188,-5.0938 8.6875,-6.5 13.3125,-9.0937 11.1875,-9.0937 -7.5938,-12.125 4.5938,-1 6.0937,-7.0938 5.7188,-13.5938 3.5937,-9.5937 2.5938,-8.5937 1,-5.5 -2.5938,-3.125 -3,0.5 -3.5937,9.625 -5.125,3 -3.0938,-2.5 -4.0937,0 -1,-2 0,-7.125 0.5,-3.5 0.5,-3.5938 -4.5,-4.5 0.5,-2.5 1,-1 -2,-3.0938 -3.5938,2 -10.8125,0.5 -6.5937,-0.5 -10.1875,-1.5 -6.125,-3.5937 -2.5938,-0.5 -5.0937,-1 -3.5938,-1.5 -2.5,-1.5 -4.5937,-5.5937 -0.5,-0.5 -3.125,-6 -3,-8.125 -4.5938,-4.0938 -6.6875,-9.0938 -2,-9.0937 3.5938,-5 0,-6.0937 2.5937,-8.625 -5.0937,-8 -2.5938,-3.5938 -2.5,-1 -5.0937,-1 -7.7188,0 -7.6875,1 -5.0937,2 -3.125,1 -3.5,-0.5 -4.0938,-3.5938 -3.0937,-2.5 -3,-5.5 1,-1.0937 5.0937,3.0937 7.7188,0 7.0937,-1.5 2.0938,-1 4.0937,-3.5 4.5938,-2.0937 6.125,0 10.1875,5.5937 5.5937,7.0938 3.5938,5.5938 1.5,5 0,13.125 -0.5,9.0937 1,5.0937 3,6.5 4.625,5.5938 5.5937,6.0938 6.1875,8.125 4,2 6.7188,0 4.5937,-5 0.5,-7.125 0,-7.5938 -3.5,-6.0938 -4.0937,-6 -2.125,-2.5 -2,-7.5937 2.625,-5.0937 0,-6 -1.5,-4.125 -1.125,-5.5 0.125,-2.0938 0,-8 -0.5,-5.0938 -2.625,-3.5 -6.5938,-4.0937 -7.1875,-5 -3,-4.5938 -6.0937,-8.625 -3.125,-8.5937 -1,-6.5 0,-1.5 -0.5,-6.0938 1.5,-8.0937 1.625,-6.5 2.5937,-8.0938 2.5,-2 3.0938,-2 3.5937,-1.625 7.5938,-2 4.625,-1 2.0937,-2 2,-6 -1.5,-4.5937 -1,-6.5 0.5,-2.5938 4.0938,-3.5 3.0937,-2.5 3.0938,-1.5 -5.6875,9.5938 -0.5,8 2,1 5.0937,3.0937 1.0938,2.5 -1.0938,4 -3,3.125 -6.1875,3.5 -5.5937,2 -6.125,2.5 -6.1875,5.0938 -0.5,1.5 -3.0938,4.5 -2,8.5937 2,9.0938 2,7.0937 5.0938,9.125 6.0937,6.5 4.0938,2.0938 1.625,0.5 4,2 5.1875,3.5 1,4.0937 1.5,7 1.5,7.0938 0,3.5938 3.0937,3.5 4.5938,0 2,-3 4.625,-2.5 4.0937,-2.0938 3.5938,-5 0.5,-6.0938 -0.5,-5 0.5,-10.0937 2.0937,-5.0938 3.0938,-3 3.625,-1.5 5.5937,-1.5 2.5,-2 3.0938,-5.125 2.0937,-3.5 5.5938,-3 7.125,0 3.0937,-3 3.5938,-4.5937 3.0937,-7.5 4.0938,-5.5938 4.125,-4 0,-17.6875 2.5937,-3 3.5938,-4.125 3,-2.5 3.5937,-1.5 3.5938,0 2.625,0.5 1.5,1.625 3.0937,0 3,-2.125 6.6875,-2 5.0938,-0.5 6.125,-1 5.0937,-1 4.5938,-1 2.5937,0 -0.5,6.125 -5.6875,0.5 -6.0937,1.5 -5.125,0.5 -3.5938,0 -6.0937,2 -4.0938,2 -2.5937,2 -7.625,-1.5 -2.5938,-1 0,4.5 -2,3.0938 -3.0937,9.5 -0.5938,5.0937 -4.5937,17.0938 -3.125,5.0937 -2,5 -3.0938,3.125 -5.5937,4.5 -8.6875,3 -7.2188,2.5 -4.5937,1 -3.5938,1 -4.5937,1.5938 -1.5,2.5 -1.5,4 1.5,6.0937 2,5 1,5.5938 0,4 -2.5,3.5938 -2.125,3 -2,2.5 -0.5938,3.5 -1,4.625 -1.5,3 -1.5937,2 -3.5938,5.0937 -2,5.5 1,13.6875 -2.5937,2 -0.5,6.5 2,2.0938 4.5937,1 8.6875,-1 4.5938,-3.5938 4.625,-1.5 4.5937,4.0938 2.0938,4 2.5,4.125 2.5937,3 2.5,3 3.0938,1.5937 2,1 5.125,1 3.5937,3 -2.5937,2 -8.625,1 -2.5938,2.5937 0.5,1 1,2.5 6.2188,2.5 9.0937,2.0938 6.6875,-1.5 7.2188,-4.5938 12.1875,-6 5.0937,-3.5 2.0938,-3.0937 3.125,-3.5 5.5937,-0.5 4.5938,-4 1.5,-1.5 8.1875,-4.5937 6.2187,-3 6.5938,-4.5 16.4062,-5.125 4.0938,-2.5 9.6875,-2 6.625,-1.5 6.1875,-2 4.5937,-3 4.5938,-9.0938 -1,-3 -1.5,-3.0938 -3.0938,-4.5 -0.5,-3 3.5938,-1 5.125,3 2,-3 2.0937,-3.0937 8.1875,-7.5 2,-5.0937 0.5,-2 0.094,-3.0001 -5.0937,-5.625 -1.5938,-3 3.0938,-1 3.5937,1.5 3,1.5 5.125,-2 6.1875,-5 5.5938,-3.5937 4.5937,-3 5.7188,-4 3.5,-1.5 6.1875,-1.5 3.0937,-3.5 -0.5,-3.5938 -4.5937,-4.5 -3.0938,-2.5937 -1.5,-4 2.5,-1 3.0938,1.5 3.0937,1 0.5,0.5 3,3.0937 1.125,1 3.5,0 5.6875,-3.5 8.6875,-6.5937 7.625,-4 7.1875,-2.5 6.6875,-3.0938 5.625,-2.5 10.1875,-2.5 8.1875,-3 5.625,-2.5 3.0938,-8.125 2.5937,-10.5937 -1,-8.0938 -0.5,-1 -0.5,-1.5 -1.5937,-0.5 -2,2.5 -8.7188,1.5 -0.5,3.0938 -6.1875,0.5 -4.0937,0.5 -5.0938,1 -2,4.5 -5.7187,4 -2.5,3.5937 -4.5938,2 -3.5937,-1 -1,-4.5937 4.0937,-2.5 3.5938,-2.5 2.5,-0.5 2.0937,-4.5938 -3.0937,-5.5 -2,-3.5937 -5.0938,1 -3.0937,-1.5 -3.5938,-1 -1,-4 3.5938,-2.5938 5.0937,2.0938 2.5938,-1.5 -1.5,-7.0938 0,-2.5 2,-3.125 -0.5,-3 4.0937,-6.5937 1.5,-3 0.625,-4 0.5,-4.0938 0.5,-4 4.0938,-3 2.5937,-4.0937 5.0938,-3 3.5937,-3.5 3.625,-4 2.5,-6.0938 -3.5,-3.5 0,-2.625 2,-3.5 4.5938,-3 4.0937,-2.5 3.5938,-3 6.0937,-5.5937 4.125,-3 3.5938,-0.5 4.0937,-4.5 4.5938,-1.0938 4.5937,-1 2.625,-1.5 2,-1.5 0,-2 -5.125,-2.5 3.125,-1.5 3.5938,-0.5 5.5937,-1 7.1875,1 2.5,0 1.625,-3 2.5,-1 3.5938,0 1.5,3 0.5,2 0,3 0.5,2.5938 1.0937,1.5 1,1.5 3.5,4 4.0938,1.5937 2.5937,2.5 1.5,2 1,2 0.5,2.625 0,3 3.625,1 3.5938,-1 1.5,-2 1.5937,-6.625 0.5,-4 1,-1.5 1.5938,-4.5937 3,3.5937 -1,8.625 -1.0938,5 -1.5,4 -5.0937,1.5 -1.5938,2.5938 -4.625,1.5 -3.5,2 -3.5937,3.5 -1.5938,4.5937 2.0938,2 3.5937,-1 2.5,-1 5.625,-3 5.1875,-2.0937 3.5,-2 14.9063,-6.5 10.1875,-2 6.0937,-2 10.3125,-2 6.0938,-1 5.5937,-1 4.625,0.5 4.0938,-2 4.0937,-2.5 5.5938,2 7.7187,1 8.6875,2.5937 4.0938,1 3.5937,-1 2,-4.0937 -3,-5 -5.5937,-4.0938 -7.1875,-1 -7.2188,0.5 -6.0937,-1 -4.0938,-2 -2.5,-4.125 -3.5937,-1.5 -3.5938,1.5 -3.125,2 -1,4.125 -1.5,3 -2.5937,3 -5.5938,-1.5 2.5938,-5.625 -3.5938,0 -5.5937,1 -3.5938,-2 0.5,-3.5 6.0938,-0.5 9.7812,-4 4.625,-2.0937 4.0938,-2 3.5,-1.5 2.0937,1 5.0938,1.0937 3.0937,5.5 1.5,2 4.125,-1.5 4.5938,0 4.5937,-2 3,2.625 4.0938,3.5 4.0937,1.5 2.625,-3.5 1.5,-8.125 -3,-3.5 -4.625,0 -4.0937,-3.0937 -2.0938,-3.5 -6.5937,-1.5 -3.5938,-1.0938 -4.125,-1 -3.5,-3.5 2,0 7.7188,-3.5 4.5937,2.5 4.0938,1.5 3,-0.5 1.5937,-1.5 0,-3.5 -3.0937,-6.0937 -1.5,-5.5 5.5937,-3.5938 8.2188,-6.5 7.1875,-3 5.5937,-2 2.125,-2.625 2.5938,-3 0.8437,-0.9062 -2116.375,0 z m 2120.5313,17.125 -2.5,1 -2.5937,5.5 0,11.6875 -4.125,-0.5937 -3.0938,-1 -1.5,1 -1,2.5937 0.5,3.5 2,3.5 1,5.0938 0,5.5 1,8.125 -2.0937,3.5 -3.5,1.5 -2.5938,0 -1.5,1.5937 0,3.5 2.5,5 0,2.0938 -2.0937,4 -2.5,2 -2.625,1.5 -2,2.5 0.5,2.5937 4.625,0 6.5937,-4.0937 4.5938,-6 2.5937,-7.5938 4.0938,-10.0937 2.125,-6 2.5937,-8.125 1.5,-10.5938 0.5938,-7.5937 0,-8.5 -1,-5.0938 -2.0938,-2 z m -164.7187,56.1875 -2.0938,2.5938 0.5,2 3.5938,0.5 2.625,-2 -2.125,-3.0938 -2.5,0 z m -24.0938,37.9063 -2.0937,1 -2.5938,3 1.5938,2 2,0.5 2.0937,-3 3,-1 -1.5,-2.5 -2.5,0 z m -12.9062,17.5937 -3,1 -3.0938,2 -1.5,3.0938 -3.5937,4 -3.0938,1 -2,-0.5 -3.5937,3 -1.125,3 2.625,3.625 5.0937,-1.5 6.0938,-4.625 4.6875,-4 3,-4 1.125,-3.0938 -1.625,-3 z m -340.2813,182.8125 -1.5,1.5 -1.5,3.5 0.5,2.5 2.5,5.5937 2.0938,1 4.0937,-3 1.5,-3.5937 -0.5,-4.5 -1,-2 -3.5937,-1 -2.5938,0 z m 12.1875,39.9063 -2,2 -0.5,2 3.5938,2 3.5,-1 1.125,-3 -5.7188,-2 z"
     id="rect12"
     inkscape:connector-curvature="0" />
  <path
	 style="fill:#9FAEC0"
	 stroke="#9FAEC0"
	 stroke-width="10"
     d="m 1851.5626,2950.75 5.3437,0.6562 8.1875,0.3125 2.9688,-0.9687 -16.5,0 z m 24.7812,0 0.1562,0.5624 0,3 0.4063,1.5 1.5937,0.5938 0.5938,-1.0938 0.2188,-0.9062 0.6874,-3.1875 0.5,-0.4687 -4.1562,0 z m 6.5938,0 0.6562,0.4687 0.9062,1.7813 -0.094,1.125 0,1.875 -0.094,1 0.5,1.4062 0.7812,0.2188 0.7188,0 1.375,-0.8126 2.5,-1.5 2.625,1 0.2812,1.5 0.2188,1.0938 0,2 0.5,1.9062 1.0937,1.5938 1.5,2 0.4063,2 -0.9063,3.0938 -0.5,2 0.5,2 1,2.625 0.7813,1 0.7187,1 2.5937,3.5 5,4.0937 8.3126,5.5 5,3 3.5,1.5 2.1874,0.5937 3.9063,0.094 2.5937,0.094 1.4063,0.3124 1.2813,0.5 1.625,2.5 0.375,2.5 -0.094,0.8126 -0.6875,2 -0.7187,1.6874 -0.375,0.9063 -0.5,2.6875 0.2812,2.3125 1,2.5937 2,2.5 7.3125,7.8126 4.2813,4.6874 5.9062,6.0938 12,11.9062 3.9062,4 2.5,1.0938 2.5,0 2.0938,1.0938 1.5,2 -0.5,1.4062 -1.5,1 -1.5,0.7188 -0.5938,2.375 0.4063,2 0,1.625 -1.4063,0.875 -1.6874,0.625 -1.9063,0.6874 -0.5,0.1876 -2.2187,0.5 -1.2813,0.9062 -1.0937,1.2188 -1,2 0,0.6874 0.1874,0.6876 1,2 2,1.625 0.9063,1.5937 -1,1.9063 -1.5,1 -2.5937,2.0937 -1.625,2.7813 -0.5,3.625 0.8124,4.0937 1.4063,5.5 1.5,3.9063 0.9063,1.7812 4.0937,6.0938 7.9063,9.3124 6.875,9.6876 3,4.125 1,3.5937 0.4062,2 -0.5938,4 -1.0937,3.0937 -0.5937,1.5938 -0.5,0.8125 1.5,3.0937 2.5,3.0938 2,1.5938 3.5,4.625 1,1.5 0,2 -0.2188,0.6874 -0.6875,1.3126 -0.3125,0.5937 -0.1875,1.2813 0.1875,0.7187 1.4062,1.9063 2,1.5937 1.5,1 1.6876,1.5937 0.625,1.5 0.1874,0.5938 0.094,2.3125 1,2.0937 0.8125,0.5 0.6875,0.5 2.0938,0.5 0.9062,1.8126 -0.4062,1.6874 -1,1.5 -0.5938,1.5 0.5,1.9063 0.5938,0.1875 1,0 2,-0.5938 0.5,-0.1874 1.9062,-1.3126 1.7188,-2.5 1,-2.5 1.0937,-2.5 1.5,-0.8124 0.5,-0.1876 2,1 2.0937,2 1,2 1.8126,2.0938 0.5,0.7188 3.0937,2 3,1.5937 0.9063,1.5937 0.375,1.0938 -1,2.5 -1.5938,2.0938 -1.5,2.5 -0.9062,1.625 -1.1876,1.875 0,2 1,0.9062 1.8126,0.9062 1.1874,1.5938 1,2.5 0.1876,1.7188 0,10.5 -0.5,2 0.5,1.6874 1.2187,1.1876 1.2813,0.2187 2,0.5937 1.5,2 0.125,2 0,0.9063 0.2812,1.5937 0.4062,3.5938 1.4063,8.0938 0.4063,3 -0.5,2 -1.125,1.5 -1.375,1.125 -1.625,1 -0.5,2.5 1,2 -0.1876,1 -0.1874,1.0937 -1.4063,0.7813 -2,0.625 -2.0937,1 -0.4063,0.5937 -0.3125,0.5 -0.9062,1.2813 -1.1876,0.2187 -1.4062,0.1875 -1.5,0 -1.5,1 -0.5938,1.5 0.9063,2.4062 0.094,1.5 -2,1.5 -2.5937,0.5 -2.0937,0.5 -1.5,3 -1.125,3 -0.375,3.5938 1.5,2 0,1 -1,2 -2.5,1.5 -2,1.5 -2.2188,2.9062 -1,2 -0.094,1.1876 0.5938,2.4062 1.9062,2 1.5,1.5938 3.5,3.625 2.4063,2.5937 1,0.9063 0,2.1874 -0.5,2 -1.0937,1.4063 -2.5,1 -1.125,0.5 -1.5,2 1.5,1.5 2,1.0937 2,0.5 2.625,0.5 2,1.6876 1.5,1.5 0.375,1.125 0.5,1.5 2,2 2,1.5937 2.125,1.5 1.7812,1.7813 1.5,2.5 2.5938,3.4062 1.5,3.0938 0.5,1.625 1.5,1.875 1.4062,0.625 1.7188,0.094 2.375,0.5 1.5,1.0937 0,1.5 -0.7813,0.8126 -3.2187,0.875 -0.5938,0.3124 -2.0938,1.4063 0,1.5 1.3126,2.5 2,2 1.0937,2.5937 0.4063,1.5 1.5937,2.5 1.5,1 1,1.5 1.0937,2.1876 0.3126,1.125 -0.8126,1.1874 -1.5937,1.0938 -2.7187,0 -2.5938,-0.4062 -3.5,-0.5 -4,1.9062 -1.9062,1.5938 -1.5,3.3124 0.5,1.5 0.9062,0.9063 0.7188,0.5937 1.875,1.0938 0.5,2.0938 2,4 1.4062,2.625 1.5938,1 1.125,0.375 1.875,1.2187 1,1.5937 0.5,2.0938 -2.2813,2.2188 -2.5,2.1874 -2.0937,2.4063 -0.5,3.0937 -0.125,2 2,2.5 0.9062,4.0938 1,2.0938 0,1 0.9062,3.5 -0.3124,1.9062 -0.1876,1.5938 -0.094,3.625 0.4063,2.375 2,2.125 2.5937,1.5 3,1 1.5,0.5937 3.5937,0.7813 2.5938,0 3.5,0.125 3.0938,0.5937 2,2 1.9062,2.0937 1.5,2.5 1.5,1.5938 0.5,0.5 2.5938,3 4.9062,4.8125 4,3.0937 4.5938,2.5938 2,1.5 3.625,1.5 2.5937,0.5 1.5,0.5 1.4063,0.3125 3.0937,-1 2.5937,-0.4063 3.5938,-2.4062 3.0938,-2.5 6.2187,-2.4062 3.4063,-1.375 3.6874,-1.3126 7.0938,-2 2.5938,0.1876 3.7187,0.3124 4.0937,0.1876 4.5938,0.125 5.4062,0.875 1.1876,0.3124 4,2 3,3.0938 2.125,4 1.875,3.2188 1.9062,4.5937 3,3.5 5.9062,3.9063 6.1876,2.5 8.625,2.6874 4.5937,2.0938 3,3.0938 1.2813,0.9062 4.2187,4.3125 5,5.1875 3.4063,3 3.5,2.0938 2.5937,0.9062 2.4063,1 2.6874,0.9062 6.0938,1.0938 1.5938,0.094 -1.5938,-3.5938 -1.5,-4.5 2.5,-1 2.0938,-1 2,2.5 5.125,2 4.5937,2.5938 6.5937,-6.0938 5.6876,-9.5938 3.5,-4 3.625,-3.5937 2.0937,-4 0,-4.0937 0,-4 2,-4.625 1.5937,1 3,6.625 6.6876,-3 4.625,-6.625 4,-4.5 4.5937,-6.5938 7.6875,-9.5938 4.0938,-11.0937 3.125,-9.5937 2,-5.625 4.0937,-4 -1.5,-5.5938 -0.5,-4 -2.5937,-1 -4.125,-1 -4.5938,2 -6.0938,3.5 -5.0937,4.5938 -4.5937,2.5 -4.125,3 -4.5938,1.5 -1,-1 -1,-0.5 0.5,-1 3.5938,-4 3.5,-3.5938 2.625,-3 4.0937,-3.5 4.5937,-5.0938 2.5,0 2.5938,-0.5 1.5,-0.5 6.2188,-0.5 2,-1.5 3.0937,-1 4.5937,-2 4,-5.0937 6.1876,-8.0937 6.625,-6 6.6874,-3.625 7.5938,-3.5 3.5938,-6.0938 0.5,-6.5 -4.5938,-1 -7.0938,-2.5938 -7.1874,-1 -4.625,-2 -4.5938,-2.5937 -5.0938,-2.5 -7.5937,-3.5 -9.2187,-1.5937 -3.0938,-1.5 -9.1875,4.0937 -4.0937,5 -4,2.5 -5.7188,2.0937 -6.0938,-0.5937 -4.0937,-4 1.0937,-6.0937 3,-5.5 4.0938,-5.625 3.5938,-4.5 1,-5.0938 -3,-1.5 -3.5938,-0.5 -1.5938,-1 0.5938,-1.5 3.5,-2.5938 5.7188,-5 4.5937,-0.5 6.5937,3.5 2,6.5938 -1,5.5938 -4.0937,3 -3,3.5 -2.0937,2.625 2,2 1.0937,1 4.5937,-2.5 5.0938,-1.5 6.0938,-1 4.625,-1.125 5.0937,0 6.0937,2.625 5.5938,3.5 2.0938,3.5937 3,1 8.2187,1.5 6.0937,-3 4.5938,3 6.7188,-0.5 2,-7.0937 -2.5,-9.125 7.0937,-19.6876 1.0937,-7 0.5,-4.5937 2.5938,-5 3.5,7.5 -1,8.5937 -1,6.0938 -0.5938,7.0938 0,11.125 1.0938,5.5 -1.0938,9.0937 -1.5,8.0937 -3.0937,12.1876 -3.5937,7.5 -5.125,7.625 -6.5938,10.0937 -4.0938,7.0937 -1.5937,3 1.5937,2 2.5,-1.5 3.5938,-4 5.5938,-5.5937 -2,8.5937 -16.875,15.6876 -3.625,5.5 -2,4.625 -3.0938,6 -6.0938,8.0937 0,3.0937 2,6 2.5938,2.5938 3,1.5 5.0938,0 1.625,-1 5.0937,-3.0938 5.5937,-4 9.1876,-7.5937 4.125,-2 9.6874,-6.5937 11.1876,-5.5 7.7187,-4 7.0937,-4.125 7.1876,-4 7.7187,-4.5938 7.5937,-7 7.1876,-9.0938 5.625,-7.0937 6.6874,-11.5937 4.5938,-8.125 2.5,-4 5.0938,-6.0938 6.7187,-7.5938 6.5937,-7.5 6.6876,-6.0937 3,-7.5937 -2.5,-6 -2,-4.625 -2.0938,-4.5 -7.0938,-5.5938 -5.5937,-5.5938 -7.7187,-5 -4.0938,-3.5937 -4.5938,-4.5 -4,-5.0937 -5.0937,-4.5 -4.0937,-4.125 -3.625,-2.5 -3.5938,-0.5 -4.0938,1 -5.0937,3.5 -3,5.125 -1.5937,2.5 -1,1 -1.5,1 -1.625,-4.5 -0.5,-4.125 -5.5938,-5 -3,-2.5938 -5.1875,3.0938 -4.5937,-0.094 2.5937,-2 2.0937,-5.5 -1.5937,-4.0938 -2.5,-2 -3.0937,-2 3.0937,-2.5 -1.5937,-3.0937 -2,-3.5 -2,-4.5937 -4.125,-6 -2.5938,-6.125 -2.5,-6.5938 -3.5938,-4 -5.0937,-1.5 -3.5937,1.5 -3,6.5 -0.625,11.2188 -0.5,8.5937 -1,6.5 -4.0938,3 -8.1875,3.5937 -7.5937,1 -4.125,-0.5 -5.5938,-1 -4.0938,-4.0937 -4.0937,-3 -2.5,-4.0937 -3.0937,-3.5 -3.125,-3 -3,-1.625 -5.0938,0.5 -4.0938,0.5 -6.6874,1.625 -7.625,-2.125 -6.1876,-6.5 -6.0937,-8.5938 -0.5,-5.0938 0,-3.5 6.6875,2 1,-1.5 0,-10.0937 2.5,-2 3.0938,6 2.625,6.5937 3.5,5 6.6874,2.0938 7.5938,1 5.0938,2.5 4.125,2.5938 3.5937,2 4.5937,3 3,4.125 4.0938,3.5 10.2188,3 3.5937,-0.5 4.5937,-2 2.5938,-6.625 0,-5 -0.5,-5.5938 1,-4 2,-4 3.0938,-3.5938 0.5,-5.5 -2.5,-5.0937 -1.5938,-2.5 -2,-1.5 -2,-1.0937 -2.0938,-3 -1.5,-6.125 -0.5,-4 -2.5937,-4 -3.5,-2.5938 -4.0937,-2 -5.625,-1.5 -3.0938,-2 -2,-4.0938 3.5,-1 6.2188,0 5.0937,0.5 5.5937,4.5938 4.0938,5.5 3.5,5.5938 2.5938,5.625 2,2.5 3.125,-1.5 3.5937,-5.125 2,-5.5 3.5937,-3.0938 -2,-10.5938 -1.5937,-4 -3,-9.0937 -2.5937,-6.5937 -4.625,-4 -3,0.5 -1.5938,1.5 -3,-1.5 -1,-4.125 -2.5938,-5.5 -3.5937,-3.5938 -3,-2.5 -2.5937,-2 -3.5,-2 -1.125,-0.5 -0.5,-3.0938 3.125,-2 5.0937,-0.5 3.5937,-3.5 -1,-4.0937 -2.0937,-4.5 -1.5,-5.5937 0,-7.125 -0.5,-5.5 -3.0937,-6.0938 -2.5,-3.5 -1.625,-4.0938 -1,-4.5 -1.5,-3 -1.5,-1.5937 -1.0938,0 -2.5,-2 -1,-2.5 -0.5,-3.5 2.5,-2.0937 3.5938,-0.5 3.125,-2.5 1,-4 -1,-6.125 -2.625,-7.0938 -3,-4 -2.0938,-6.0938 -0.5,-6.5 -1,-7.0937 -2.5,-6.0937 -4.0938,-4 -3.5937,-4.125 -4.5937,-3.5 -4.125,-2.5 -6.0938,-5.5938 -2,-4.5 0,-3.0938 1.5,-1.5 5.0938,3.5 4.125,3.0938 4.5937,1 3,0 3.5937,1 3.0938,1.5 1,4.5938 0.5,3.5 2.5938,2.5 3,1.125 5.125,2 2.0937,0.5 1.5,1.5 0.5,3.5 -1,4.0937 -0.5,5 1,2.5937 2.5,2.5 2.0937,2 2,2 2.0938,0.5 4.0938,0.5 4,-1 3.125,-1 3.0937,0 4.5937,2.0938 2,-2.5938 0.5,-4 1.0938,-5.5937 1.5,-3 2,0 2.0938,1.5 1,6.0937 -0.5,4.5 -1,3.0938 -1.5938,3 -1.5,5.5 -0.5,1.5938 -1.0938,5.5 -2,3.5 -5.5937,2.625 -3.5937,2 -4.625,1.5 -2,2.5 0.5,2 2,1.5937 0.5,1 1.5,2.5 0.625,6.5937 -0.125,7.5 0.625,5.5938 -0.125,5.5938 2.125,3.5 1,3.5 3.0937,6.125 1.5,3.5 3.0937,5.0937 1.5,4 1.5,5.0937 0.5,3 2.0938,2.5938 4,5 6.2188,12.0938 4,8.125 3.0937,8.5937 2.5937,4.5937 3.5,4.5 3.5938,5.0938 6.0938,3 5.125,4.0938 5.0937,2 3.5937,-1.5 4.0938,-1 4.0938,0.5 -2.5938,5 0,4.125 10.2188,10.0937 3.5937,4.5 9.1875,11.6875 5.5938,8.5938 3,6.5 2.625,4.125 4.5937,4.5 5.0937,2.5937 5.0938,2.5 7.0938,2 6.2187,-2.5 0.5,-11.0937 1,-6.125 -0.5,-10.0938 1,-5 0.094,-6.0938 -1.0937,-2.5 0.5937,-2.5937 -1.5937,-6.5 -4.5937,-7.5937 -3.5,-4.125 -6.7188,-2.5 -4.0938,-1.5 -2,-6.0938 0.5,-6.5 3.5938,-4.5938 3.5938,-5.5 -0.5,-9.5937 -1.5,-6.0937 -0.5938,-4.625 1.0938,-3.5 1,-3.5 -2,-5.0938 -4.0938,-5 -1.5,-7.5938 -1.0938,-7.0937 0.5938,-3 4,-2 3.5938,-1.5937 5.625,-0.5 2.5937,-1 0.5,-3 -2,-2.5 -2.5937,-2.5 -1.5,-3.625 1,-5 0.5,-2.0938 -3,-2.5 -3.625,0.5 -3.5938,0 -1.5,-2 4.0938,-3.5 4.125,-1.5938 3.5,1.0938 1.5937,0.5 4.5937,3 4.5938,5.5938 2.5,6.5 1,8.125 -1.5,4.5937 -4.5938,5 -4.5937,3.5 -1.5937,3.0937 1.0937,4.5 2,2 0.5,7.5938 0,3.5938 -1,5.5 -2.0937,4.625 1.5,4 1.0937,3.5 2.5,5.5937 -0.5,4.5 0,4.5937 -3.0937,5.5938 -1,4 -1,3.5 2.5,2.0938 3.5937,2.5 3.0937,0 2,2 6.0938,3 2.5938,-4 2.5,-6.0938 2.125,-4 2.5937,-3.5 5.0937,-4.0938 4.0938,2.0938 -0.5938,5.5 -5.0937,5.0938 -4.0937,5 -1.5,7.625 -0.5,7.0937 0,5 0.5,7.0937 0,2.5 0.5,3 1.5,7.5938 1,5.5938 -0.5,5.5 1,4.125 0.5,4 -0.5,4.0937 0,5.5 -0.5,4.0937 -0.5,4 0.5,5.0938 6.0937,3 -3.0937,1.5 -1.5,1.5 -0.5,3.5938 1.5,3.5 4.0937,2 -3.0937,0 -3,1.625 -1.125,1 -1,0.5 -0.5,5.5 4.625,2.5937 2.5937,2 8.5937,2.5 6.1876,1 7.125,-3.5 3.5937,-3.5 4.0937,-4.5937 7.0938,-5.5 6.2188,-6.125 3.5937,-6 2.5,-6.5938 5.0937,-6.5938 7.6876,-6 4.625,-5.5937 4.5937,-8.0937 1.5,-4.5 2.0937,-7.125 4.0938,7.625 -0.5,3.5 -1.5938,4.5937 -3.5937,5.5 -3,4.5937 -6.2187,5.5 -4.0938,4.5938 -4,5.5 -1.5938,7.0938 -2,6.125 3,3.5 5.0938,-0.5 9.7188,-2.5 3.0937,-2 7.6875,-6.125 9.7188,-3.5 6.5937,-4.0938 4.0937,-4.5 9.6876,-7.0938 10.2187,-6.5 7.6875,-4.5937 5.0938,1.0937 10.8124,-5.5937 9.6876,-5.5 4.125,-2.0937 4,-1 7.1874,-0.5 6.0938,-0.5 1.0938,-4.5 -3.5938,-4.125 -3.0938,-3 -6.5937,-8.0938 -4.5937,-2 -5.625,-1.5 -5.0938,-4.5938 -4.0938,-4.5 1,-3.0937 -0.5,-5 12.3126,8.0937 3.5,3 4.5937,2.5 3.5937,3.0938 4.5938,1.5 3.5938,-2 2.5,-4.0938 2.125,-7.5 6.0937,-13.1874 4.6875,-11.125 1.5,-10.5938 2.5937,-12.0938 -2.5937,-6.5937 1,-7 -1,-4.5937 -1.5,-2 -2.5,-2 -2.0938,0 -3.0937,0.5 -1.5,3.5 -1,3.5 -3.0937,5.0937 -2.5,2 -2.125,4.5 -2.5938,2.5937 -2.5,3.5 -6.6875,7.5938 -4.5937,-0.5 -2.5,-1.5938 -2,0.5 -5.7188,1.5938 -1.5,3.5 -1.5938,2.5 -2.5,2 -1,2.5938 -3.0937,0.5 -3.0937,1 -3.5,3 0,2.5 -1.125,4.625 0,2 -5.0938,1.5 -3.0938,3 -3,2 -3.5937,1.5937 -6.0937,3.5 -6.2188,2.5 -3,-0.5 -5.5938,0 -4.0937,0.5 -1.5937,1.5 -3,6.5937 -4.625,0.5 -2.0938,-2 1.0938,-3.5937 -1.0938,-4 -5.0938,-2.5937 -0.5,-1.5 -0.5,-3 3.0938,-2.5 8.7188,-5.125 7.0937,-3 3.0937,-2.5 3.5938,-3.5938 8.0938,-3 11.8124,-1 3.5938,-1.5 1.5,-4 -1.5,-3.5938 -1.5,-2.5 -1.0938,-2 2.5938,-4.0937 3.5938,-2 7.125,-2 5.0937,-0.5 5.6875,1 2.5,0.5 1.5,0.5 1.5938,-3 2.5,-2.5 1.625,-2.5 3,0.5 3.0937,4.5 3.0937,-1 4.5938,-5.5 4.0938,-7.0937 -1.5938,-2 -2.5,-2.625 -3.5938,-6 -4.5937,-13.6876 -2,-5 -2,-5.0937 -3.0937,-3.5 -3.625,-3.0937 -4.5938,-1 -5.5938,-0.5 -5.0937,0.5 -6.5937,0.5 -4.625,-4.5 -7.6876,-0.5 -7.1874,0.375 -7.625,3.125 -4.0938,-2 -5.5938,-3.125 -7.1874,-2.5 -8.125,-1 -5.0938,1.5 -5.6875,3.5 -8.0937,0.5 -4.125,0.5 -5.0938,2 -4.0938,2.5 -4.0937,3.125 -4.0937,2.5 -2.625,-0.5 1.125,-5.125 2.5,-5.5 6.6874,-3.0938 12.6876,-3 16.4062,-6 8.7188,-6.0938 4.5937,-4 -2.0937,-5.5937 -3.5,-7 -3.125,-4.0937 -4.5938,-1 -7.0938,1 -8.6874,2 -7.7188,-1 -7.5938,-0.5 -6.1874,-4.625 -3.5,-7.5 -1.125,-3.0938 -3,-2 -1.5,0 -4.0938,-0.5 -8.1875,1.5 -9.7187,0 -11.7813,1 -9.2187,0 -5.0938,-2 -5.0938,1 -4.0937,2.5 -4.5937,2 -4.625,1 -1.5,-3.5 4.625,-6.0938 5.0937,-4.5 -1.5,-6.5937 -5.5937,-4.0937 -9.2188,-2 -7.6875,-2 -8.0937,-3.625 -7.2188,-3.5 -2,-4.5 3.5,-1.5938 1.5938,0 9.2187,1.5938 11.6875,5.5 8.2188,2.625 4.0937,3 6.5937,1 5.0938,2.5937 5.5938,3 3.625,3 4.5937,2.5937 6.0937,-1.0937 3.0938,-3 5.0938,-2 5.625,0.5 6.1874,-0.5 18.9063,4.0937 6.5937,3.5 10.1876,5.0938 4.125,0.5 4.0937,-0.5 4.5937,-0.5 5.0938,-8.5938 -4.0938,-5.5937 -2.5,-5.5 -3.5937,-5.0937 -5.0937,-4 -6.625,-2.625 -3.0938,-3 0,-1.5 4.5938,-0.5 1.5,0 2.125,-4.5 -2.125,-6.0938 -0.5,-4.0938 1.625,-2 7.5937,1.5938 5.0937,6 2.0938,6.5938 2.5,9.125 2.5938,4.5 5.625,6.0937 1.5,6.0937 1.5,6.5 1.0937,2.0938 3.5,1 5.0937,-0.5 4.5938,0 3.5938,-1 3.625,1 3,0 2.5937,-1.5 2.0937,-3.5938 -1.5937,-3 -6.5937,-6.0937 -7.7188,-8.5937 -3.5,-6.5 -2.5938,-10.625 -4.5937,-10.0938 -1,-6.0938 0.094,-4.0624 -693.5624,0 z m 701.5624,0 1.0938,0.5624 2.0938,5.5 2,5.0938 3.125,7.5938 1,10.125 1,5 3,3 4.0937,3.0937 3.5937,0.5 1,0 6.0938,2 3.0938,2.5 4.125,4.0937 2.5,5 2.5937,4.0938 0.5,0.5 3.0937,5.0938 2.5,4 6.0938,4.5 5.7188,0.625 5.5937,0.5 7.0937,0 8.1876,-1.5 3.125,-1.5 3,-1 5.0937,-0.5 4.5937,-1.625 4.5938,1.125 3.5938,1.5 5.125,3 4.5937,0 2.5938,-2 3.5937,-4 0.5,-5.125 0.5,-6.5938 0.5,-4.5 0.5,-5.0938 1.5938,-1.5 0.5,0.5 3.5,4.5938 4.125,13.5938 -2,9.625 -2.625,6.0937 -9.6875,11.0937 0,5 1.5,5.0938 6.5937,2.5 9.7188,-1.5 6.6875,-3 4.0937,-1.5 2,-5.5938 0,-4.5 7.7188,-1 4.0937,-2 2.5,-3.0937 4.0938,-4 3.0937,-3.5 2.5938,-5.0937 -3.5938,-3.5 -1.5,-2.5 -4.5937,-8.625 -4.0938,-6.0938 -2.5,-4.5938 -4.5937,-5.5 -8.7188,-4.5937 -7.6875,-2 -5.0937,0.5 -3.625,-1 -4,-4.0937 -4.0938,-5.5 -3.0937,-3.625 -1,-3.5 2.0937,-6.5938 4,-5 1.3125,-1.1562 -120.4063,0 z m 146.2188,0 -3.0312,2.6562 -5.6875,3.0938 -4.0938,3.5 -3.5,3.5 0.5,3.625 4.0938,0.5 5.0937,4 6.0938,1.5 8.7187,3.5937 6.5938,5.5 7.0937,7.5937 4.0938,5.5938 3.625,8.5938 3.5937,3.5 3.5,3.625 3.5938,5.5 1,5.0937 -0.5,4 -3.0938,0.5 1.5938,3.0937 4,8 4.5937,8.5938 5.0938,-1.5 4.625,-4 5.6875,-4 6.5937,-5.0938 7.7188,-4 6.5937,-7.0937 7.1875,-6.5 5.0938,-3.5937 4.625,-4 6.0937,-5.625 8.1875,-4.5 6.7188,-4 8.1875,-6.0938 13.3125,-5 6.0937,-2.5 4.0938,-4.0938 4.5937,-4 4.0938,-4.5 4.625,-6.5937 3.0937,-2 6.5938,-3.0937 3.4687,-3.375 -180.25,0 z m 193.9063,0 0.2812,0.875 3,2.0937 5.1875,-1 5,-1.9687 -13.4687,0 z m -1.3125,12.5624 -1.5,3 -0.5,6.0938 2,2 3.0937,0.5 2,-2 3.0938,-0.5 1.5,-3.0938 -1.5,-2 -2.5938,-2.5 -3.5,-1 -2.0937,-0.5 z m -328.125,63.6876 -5.0938,1.625 -4.0938,2 -2,3 -0.5,3.5 0.5,4.0937 1.5,3 1.5,3.5 0.5938,3.0937 0.5,3.5 0,3.5938 -0.5938,4.5 7.1876,0 5.125,0.5 9.6874,2 10.6876,2.5938 15.9062,-2 5.5938,-2.5 1.5,-2.5938 2.625,-3.5 1.5,-3.5 -1,-3.5938 -4.125,-3.5 -5.5938,-2.5 -6.5938,-1.5937 -9.1874,-3.5 -7.7188,-5.0937 -6.5938,-4.5 -5.5937,-2 -5.7187,-0.125 z m -252.2813,5.4062 -4.0937,1.5 -3.625,5 4.125,4.5938 2,-0.5 3.0937,-1 3.0937,-4.5938 0,-4 -4.5937,-1 z m -3.7187,92.9062 -4.0938,0.5 0,4.0938 0.5,4 4.5938,0 5.125,-0.5 -2,-4.5 -4.125,-3.5938 z"
     id="rect14"
     inkscape:connector-curvature="0" />
</svg>
