<?xml version="1.0" encoding="UTF-8" standalone="no"?>
<svg
   xmlns:dc="http://purl.org/dc/elements/1.1/"
   xmlns:cc="http://creativecommons.org/ns#"
   xmlns:rdf="http://www.w3.org/1999/02/22-rdf-syntax-ns#"
   xmlns:svg="http://www.w3.org/2000/svg"
   xmlns="http://www.w3.org/2000/svg"
   xmlns:sodipodi="http://sodipodi.sourceforge.net/DTD/sodipodi-0.dtd"
   xmlns:inkscape="http://www.inkscape.org/namespaces/inkscape"
   width="7813.5312"
   height="1915.0938"
   viewBox="0 0 7813.5312 1915.0938"
   id="svg2"
   version="1.1"
   inkscape:version="0.48.1 "
   sodipodi:docname="AJAX.svg">
  <metadata
     id="metadata20">
    <rdf:RDF>
      <cc:Work
         rdf:about="">
        <dc:format>image/svg+xml</dc:format>
        <dc:type
           rdf:resource="http://purl.org/dc/dcmitype/StillImage" />
      </cc:Work>
    </rdf:RDF>
  </metadata>
  <defs
     id="defs18" />
  <sodipodi:namedview
     pagecolor="#ffffff"
     bordercolor="#666666"
     borderopacity="1"
     objecttolerance="10"
     gridtolerance="10"
     guidetolerance="10"
     inkscape:pageopacity="0"
     inkscape:pageshadow="2"
     inkscape:window-width="1280"
     inkscape:window-height="1004"
     id="namedview16"
     showgrid="false"
     fit-margin-top="0"
     fit-margin-left="0"
     fit-margin-right="0"
     fit-margin-bottom="0"
     inkscape:zoom="0.13768412"
     inkscape:cx="3877.3294"
     inkscape:cy="-85.489873"
     inkscape:window-x="-8"
     inkscape:window-y="-8"
     inkscape:window-maximized="1"
     inkscape:current-layer="svg2" />
  <path
	 style="fill:#9FAEC0"
	 stroke="#9FAEC0"
	 stroke-width="10"
	 transform="translate(0, 125)"
     d="m 7790.0938,0 -51.6875,2 -84.0937,2.6875 -5.125,0.094 -27.1876,0.9062 -54.4062,1.2188 -9.5,24.5 -55.9062,2.375 -9.6876,0.4062 -20.0937,0.7188 -4,0.094 -97.4063,4.7813 -76.4062,3 -6.6875,-0.5 -49.5938,3.2187 -181.9062,9.1875 -101.3125,4.5938 -134,6 -62.9063,2.4062 -138.5937,5.4062 -32.0938,1.3126 -208.1875,7.375 -18.5,-5.875 L 6184,84.688 l -16,0 -91.8125,2.7188 -28.5937,0.375 -20.7813,-1.7813 -24.3125,0.4063 -8.1875,9.0937 -5,10.5937 -2,0 -40.7187,0.6876 -82.0938,1.2187 -90.5937,-1.7187 -70.9063,-1.375 -18,-0.3126 -92.5937,1.8126 -85.2188,1.375 -28.875,0.2187 -18.9062,0.094 -201.2187,0.8126 -8.0938,0 -12.2812,-0.2188 -64.625,-0.5938 -113.1876,-1.5937 -44.0937,-0.7187 -5.8125,-0.094 -41,-0.1875 -44.0938,-3 -88.1874,-6.8125 -9.8126,0.094 -11.4062,-0.7813 -78.4062,-2.5937 -74.875,-2.125 -1.5,0 -14.9063,-0.2813 -3.0937,0 -15.9063,-0.3125 -11.3125,-0.4062 -6.0938,0.125 -5.6874,0 -11.3126,-0.4063 -10.8124,-0.5 -11.6876,0.6875 -3.5937,0.3125 -13.8125,0.9063 -6.1875,0.375 -13.4063,0.5 -3,0.125 -16.4062,0.6874 -6.0938,0.5938 -5.6874,0.4062 -2.625,0.5 -11.6876,1.5 -3.0937,0.4063 -2.5937,-0.2187 -20,1.7187 -35.3126,3.1875 -63.5,5.8125 -251,-5.9063 -57.9062,-1.4062 -108.2812,-4.2812 -23.625,-1.4063 L 3737,82.2821 3736.4063,82.1881 3618,73.0006 3553.6876,71.2819 3466.5,69.0006 l -9.5,4 -20.5937,8.9063 -1.9063,-3.2188 -3.6874,-1.4062 -4.625,8.125 -8.0938,4.5937 -24.7812,-21.5 -153.5,4.2813 -232.625,5.4062 -33.5,0.7188 -48.5938,0.2812 -197.5938,0.5 -88.5937,0.3125 -1.5937,0 -43,0.4063 -141,1.375 -46.3126,0.5 -78.3124,0.5 -14.5,0.2187 -6.5938,0 -43,0.4063 3,-33.2188 -46.1875,-4.5 L 2207,44.4069 2089.3126,33.1881 l -18.4063,-1.2812 1.0937,15.5 3.6876,14.0937 7.3124,16.0937 2.0938,14 10.0938,40.6876 7.5,58.3124 -3.6876,14.1876 -0.5,2 -3.0937,11.625 -1.5937,6 -8.7188,7.1874 -2.5938,1.5938 -2.3124,1.5 -5.0938,-0.1875 -20.6875,-0.5 -83.5937,-4.7187 -277.4063,-7.5 -25.3125,-0.6876 -268.1875,-7.0937 -13.4063,-0.4063 -4,-0.094 -106.1874,-1.8125 -131.2188,-5.0938 -177.1875,-7.3124 -2.5937,0.125 -41.5,3 -64,4.7812 -4,8.3125 -5.5,6.5937 -6.3126,7.5938 -7,8.5 -18.9062,13.3125 -4.2812,0.1875 -4.9063,0.3125 -8.8125,-4.4063 -1.1875,-1.6874 -7.0937,-9.4063 0.2812,-4 0.3125,-4.5 0.2813,-6.5937 2.3124,-6.4063 4.1876,-11.5937 -22.7813,-0.9063 -25.9063,-1 5.1876,6.5 5.5,6.9063 3.8124,4.6874 3.3126,8.9063 0.375,1.1875 -0.094,5 -1.7812,4.3125 -2.625,5.7813 -4.5,6.125 -9,5.7812 -0.875,0.5938 -7.625,5 -0.2813,0.625 -2.0937,3.6874 0.5,3.5 3.375,12.0938 0.3124,1 7.8126,12.5938 5.6874,9.4062 4.9063,10.9062 1.5625,3.5626 6877.3125,0 7.625,-6.25 8.5937,-7 3.9063,-2.2188 4,-2.1875 3.2813,-1.8125 3.625,-1.0938 9,-2.6874 4.2812,-1.3126 5.0938,-4.5 2.125,-1.8124 2.7812,-2.5 1,0.5 1.3125,0.625 2.5,4.875 1.7813,3.4062 0.9062,1.8125 2.2188,1.5937 2,0.8126 6.2812,1.7812 3.9062,2.5 3.5,2.2188 2.6876,0.375 7.125,1.125 4.875,1.875 3.125,0.3124 2.7812,0.1876 3.3125,-1.0938 3,-1.0938 6.0937,-2.1874 3,-1.125 3.5938,0.2187 2,0.2813 0.5938,0.2187 3.3124,1.2813 2.1876,0.8124 3.5,0 1.3124,-0.5937 1.4063,-1.4063 1,-2.5937 -1.5937,-2.5 -4,-2.5937 -5.8126,-3.7188 -2.5,-3.0938 -1.5937,-3.1874 -5.2187,-15.9063 -1.375,-2.7187 -2.3126,-4.1876 -0.9062,-1.6874 0.2188,-2.125 0.1874,-2.375 1.4063,-2.9063 0.5937,-1.2187 0.3126,-1.2813 0.5,-2.5 -0.8126,-1.7187 -1.1874,-2.0938 -1.9063,-2.9062 -1.2187,-1.1876 -2.875,-2.6874 -1,-2.125 -0.7188,-7.2813 0.5938,-2.3125 1.9062,-2.0938 1.2188,-1.4062 4.5937,-5.5938 0.5,-0.5937 4.0937,-5 3.5,-7.5937 1,-2.5 0,-6 1.1876,-2.625 1.9062,-2 0.4062,-1.5938 -1,-2.4062 -2,-2.5 1.3126,-2.6876 1.6874,-3.4062 -0.5,-2.0938 -0.5,-2 -0.6874,-2.5 0.5937,-1.9062 2.5937,-3.5938 2.5,-1.9062 0.5938,-0.4062 2.3125,-1.2813 3,-1.3125 2.2813,-1.7812 1.125,-0.9063 0.375,-2.5937 0,-5 -2.0938,-8.5 -0.1875,-3 -0.094,-3 -0.3126,-3.625 -1,-2.7813 -2.5937,-7.2187 0,-3.2813 -0.094,-10.0937 -1.5,-3.7188 -3.125,-4.5938 -2.375,-3.3124 -0.625,-5.1876 -0.1876,-0.8124 0,-6.1876 1,-1.9062 1.5,-2.6875 2.0938,-2.7187 1.8125,-2.2813 2.7813,-3.5937 1,-2.125 2.3124,-4.5938 1.6876,-3.2812 1.125,-2.125 -0.125,-1.375 -0.1876,-1.5 -0.1874,-3 -0.125,-1.7188 1,-1.7812 0.625,-0.9063 0.375,-0.8125 4.125,-2.6875 1.0937,-0.7187 1.5,-2.6876 0.5,-1 0.4063,-6 -1,-6.5937 0.875,-2.5 1.625,-3.0937 23.2187,-26.4063 -23.4375,0 z"
     id="rect4"
     inkscape:connector-curvature="0" />
  <path
	 style="fill:#9FAEC0"
	 stroke="#9FAEC0"
	 stroke-width="10"
	 transform="translate(0, 100)"
     d="m 763.9688,319.6563 2.9375,6.625 2.1875,15.625 -1.9062,15.5937 -8.0938,15.6875 -9,6.5 -14.0938,1.2188 -8.0937,-2.125 -5.5937,-1.375 -11.4063,-2.9063 -7.8125,-0.7187 -13.7812,-1.1876 -9.125,3.6876 -3.1876,3.125 -2.3124,10.5 2.5,11.1874 13.125,16.9063 24.1874,14.0937 14.0938,8.1876 4,2.4062 7.2188,4.0938 3.6874,4.7187 0,9.6875 -0.1874,0.5938 -2.5,8.2187 -6.4063,6.5937 -9,1.1876 -6.5937,0.9062 -7.5,1.0938 -8.7188,3.5 -8.9062,1.9062 -11.5,2.3125 -19,-1.4063 -8.875,-2.9062 -2.2188,-0.6875 -28,-9.2187 -1.4062,0.125 -12.5938,0.2812 -5.1875,1.2188 -4.4063,4.2812 -3,8.4062 2.4063,6.5 0.7813,2 5.4062,5.1876 6.5938,6.2187 12.3124,11.5937 11.1876,9 4.7187,3.6876 4.6875,3.8124 3.8125,5.4063 3.5937,5.2813 1.8126,3 2.0937,3.125 4.7813,6.7812 5.625,4.2188 11.375,8.5 8.3124,6.1874 8.8126,13.5 0.6874,6.4063 -4.0937,12.2813 -13.2187,13.2187 -6.5938,2.4063 -36.7812,13.4062 6513.2812,0 4,-8.2188 L 7158,620.5 l 3.1875,-6.0937 2.625,-2.5 6.0938,-5.7188 11.6875,-7.0938 2.2187,-3.1874 1.5,-2.125 0.875,-1.2813 1.7188,-0.5937 2.0937,-0.8126 3.9063,-1.4062 4.5,-1.6875 2.5937,-2.5937 3.0938,-4.125 2,-1.375 2.5,-1.125 2,0 7.8125,-0.094 4,-0.5 4.6875,-0.5 3.4062,-1.5938 2.9063,-1.3124 5,-2.1876 5,-2.8124 9.7812,-5.375 7.2188,-5.625 3,-0.5 2.5937,0.5 2.4063,0.7187 3.7812,3.2813 0.5,0.4062 3.8125,2.3125 3.6875,0.7813 3.625,-0.2813 1.1875,-0.8125 2,-2 1.5938,-2.5 0.4062,-0.6875 1.5938,-2.4063 3.0937,-1 2.8125,0.1876 2.5938,0.3124 1.5,0.094 2.8125,0.3125 1.2812,-1 1.8125,-3 0.6875,-2.0937 0.8125,-2.5 1.6875,-1.8126 5.9063,-4.8124 1.8125,-2.375 5.1875,-7.3126 1.5938,-2.0937 0.625,-0.8125 2.5937,-1.5 2,-0.5938 3.0937,-0.5 4.0938,1 4.9062,3.1876 2.3126,2.3124 2.5937,2 2.6875,0.5 4.5,0.9063 3.3125,2.2813 3.6875,1.2187 10.4062,1 7.6876,-1.5937 2.9062,-1.125 5.3125,-2 2.5937,1 1.5,2 1.8126,5.625 4.2812,8.7812 4.3125,8.7188 L 7403,570 l 2.4063,6.2813 1.4063,3.125 0.875,1.7812 2.7187,1.2188 2.4063,1.0937 3.7812,0.1875 2.8125,-0.2812 3.7813,-0.625 5.625,-1 15.1874,-0.094 0.6876,0.094 7.7187,0.4062 2.4063,-0.5 3.5937,-2 4.7813,-4.7812 6.4062,-3.9063 1.8125,-2.4063 1.5937,-1.9062 1.1876,-3.6875 1.4062,-2.5937 2.5,-1.2188 2.5938,0.4062 6.8124,2 4.1876,0.6876 2.5,-0.094 2.5,-0.9062 1.8124,-2.5938 3.3126,-5 4.375,-12 3.125,-6.2812 0.7812,-1.7188 8.5,-20.6875 58.5,-115.8125 11.0938,-22.1875 2.7187,-5.2187 3.4063,-6.5 1.875,-3.6876 2.625,-2.4062 1.5,-1.5938 2.7812,-2.4062 5.9062,-3.6875 3,-1 7.1876,-3.5937 2.5,-2 6.2187,-6.125 5.4063,-8.2813 3.1874,-4.9063 4.7813,-3.9374 -6877.3125,0 z"
     id="rect6"
     inkscape:connector-curvature="0" />
  <path
	 style="fill:#9FAEC0"
	 stroke="#9FAEC0"
	 stroke-width="10"
	 transform="translate(0, 75)"
     d="m 635.8126,639.3125 -1.625,0.5938 -5.0938,2.5937 -3.5938,3.5 -6.5937,6.5937 -6,14.5938 -2.0937,25 -0.625,6.5 -0.5938,6.3125 -2,5.59375 -2.5,4 -3.2812,3.1875 -3.625,3.625 -5.375,5.1875 -7.5,7.3125 -9.125,16.1875 -2,6.59375 -2.5,8.5 -0.5,8.3125 -0.375,7.28125 1.0937,7.125 3.5937,5.5 6.5,4.5 8.8126,6.1875 5.5,3.8125 3.5,2.375 4.6874,4.40625 3.0938,2.8125 11,10 0.9062,0.78125 6.5938,6 2.3125,4.71875 8.1875,16.40625 1.7188,4.1875 -5.9063,15.09375 -14,7.90625 -9.5937,-2.90625 -10.625,-13 -21.875,-10.6875 -17.4063,0.6875 -19,7.90625 -13.4063,8.1875 -4.9062,23.3125 1.3125,7.40625 7.1875,5.78125 49,21.8125 5.7188,5.90625 2.0937,6.59375 -7.7187,11.3125 -3.1876,1.875 -3.6874,2.21875 6101.4687,0 0.5312,-0.8125 1.2813,-3.59375 0.3125,-3.5 2.5,-8.8125 2.6875,-4.6875 7.0937,-8.59375 7.625,-7.40625 3.375,-5 2.2188,-5.6875 4,-2.40625 2.9062,-1.09375 2,-0.8125 1.7813,-0.6875 0.5,-2 -0.094,-1.3125 -1.3125,-14.3125 0,-1.28125 -1,-3.90625 -0.1875,-3.5 0.3125,-2.59375 0.5937,-0.8125 3.0938,-1.5 2.3125,-0.1875 5.0937,-0.3125 2.7813,-0.59375 2,-2 3.625,-4.59375 0.5,-1.5 -0.5,-2.5 -1.125,-0.8125 -1,-0.6875 -0.5,-0.3125 -4.0938,-1.6875 -1,-2 0.5,-2 1.5,-3.09375 1.3125,-2.71875 -0.3125,-3.5 -0.5,-3.28125 -2,-4.125 -5.7812,-12 -5.625,-9.875 -1.1875,-3.71875 -1.1875,-2.1875 -0.2188,-2 1.5,-0.59375 1.5938,0.5 7.125,2.28125 3.5,-0.0937 2.5937,-1.5 1.1875,-0.8125 0.3125,-2.59375 -1,-5.6875 0.6875,-3.71875 0.5,-2.6875 1.3125,-1.09375 4.0938,-3.59375 7.5,-2.71875 10,-3.6875 5.5,-1.40625 6.1875,0.5 4.8125,2.1875 3.0937,2.125 5.9063,3.78125 7.6875,3.40625 4.625,3.59375 3.6875,2.90625 2.5937,3.5 2,5.59375 17.5,-3.6875 -1.1875,-7.59375 -0.4062,-3 1.3125,-3.21875 1.6875,-2.78125 2.5937,-3.125 4.7188,-4.375 3.375,-3.125 1.5,-2.59375 0.8125,-2.59375 0.9062,-3.5 0.5,-1.8125 0.5,-1.09375 1.7813,-2.6875 2.125,-3 1,-3.5 -1.125,-2.40625 -3.5,-8.09375 -0.2813,-1.8125 -0.3125,-2.6875 0.4063,-2.8125 0.5,-3.6875 2.0937,-5.09375 1.5,-1.71875 3.0938,-2.90625 2.8125,-1.875 2.3125,-1.71875 10.7812,-3.59375 6.8125,-4.5 6.2813,-4.1875 6.8125,-5.5 3.5937,-2 9.8125,-5.5 0.1875,-0.3125 0.7188,-6 21.375,-11.90625 4,-7.1875 11.7187,-7.3125 11.5,-7.09375 9.5,-2.3125 7.2813,-6.7813 6.125,-1.9062 3,1.8125 7.2812,5.5 4.8125,4 0.1875,6.5 0.2188,0.59375 4,2.5 9.7812,6.5 1.0938,1.5 9.2187,3.59375 1.2813,3.5 -7.375,6.1875 -4.2188,5.40625 0.2188,6.09375 -4.4063,10.8125 -4.5937,5.90625 1.5,8.90625 5,1.375 3.1875,5 0.6875,2.90625 -0.2813,3 -2.5937,9.21875 -0.8125,2.59375 0.5937,2.5 1.4063,1.5 4.1875,1.1875 12.4062,0.8125 6.0938,0.40625 2.5,1 2.3125,0.78125 1.1875,1.21875 2.3125,2.375 2,2.125 2.5,1.5 2.8125,1.09375 3.375,-0.21875 5.625,-2.5 5.0937,-5.09375 6.6875,-4.28125 3.4063,-2.3125 2,-1.5 2,-1.1875 3.3125,-0.40625 5.0937,-2 2.0938,-1.21875 6.4062,-3.59375 5.7813,-1.90625 2.625,-2 3.5937,-3 2.2813,-3 4.9062,-6.09375 1.2188,-1.5 6.2812,-6.6875 3.3125,-2.59375 3,-2.21875 5.1875,-2.90625 0.9063,-0.5 0.5,-0.6875 6.5,-3.90625 32.0937,-65.87505 -6513.2812,0 z"
     id="rect8"
     inkscape:connector-curvature="0" />
  <path
	 style="fill:#9FAEC0"
	 stroke="#9FAEC0"
	 stroke-width="10"
	 transform="translate(0, 50)"
     d="m 572.3126,959 -1,0.59375 -2,1.09375 -3.4063,1.5 L 559.5,965 l -5,2.28125 -3.1874,-0.1875 -4.5,-0.3125 -5.625,-1.78125 -5.5,-1.90625 -4.0938,-1.40625 -3.7812,-1.28125 L 523.5,961 l -2.5937,0.28125 -1.3125,0.21875 -4.9062,2 -3.7813,1.59375 -3.7187,2.8125 -2.875,2.28125 -2.3126,3.5 -2.3124,3.59375 -4.6876,16.5 -0.3124,0.90625 -1.5,5.3125 -2.5,5 -3.375,2.0937 0,0.094 -11.5,11.4062 -23.5,0.8125 -4.125,0.7813 -7,2.5937 -6,3.625 -9.5,7.5 -1,-0.4062 -0.5938,0.4062 -12,-10.7187 -1.6875,-2.9063 -13.4063,-7.5937 -43.0937,22.9062 -4,6.5938 -1.5937,7.4062 0.1874,11.3125 0.094,6.0938 0.2188,9.0937 0.094,7 2.0937,7 6.6876,10.6875 0.3124,0.5 5.5,8.9063 5.1876,6 4.625,5.5 9.5937,5.3125 4.9063,2.6875 5.5937,-0.1875 3.0937,0 5.5938,-0.094 0.5,-0.125 5.0938,-2.2813 3.125,-2.4062 13.2812,-10.5938 0.5938,-0.2187 2.5,-0.2813 2.5,-0.2187 2.3124,2 2.9063,2.7187 2.5,2.1875 4.1875,13.5938 -3.4062,15.125 -6.2813,6.6875 -0.4063,0.3125 -22.3124,10.5937 -8.2813,3.9063 -10.9063,4.0937 -16.8124,6.4063 -7.875,3 -6.2188,2.5 -4.2812,3.1875 -4.9063,3.8125 -2.9063,4.5937 -1.5937,5 2.0937,10.0938 4.3126,9.6875 1.0937,2.5 2.4063,5.3125 3.6874,4.0937 3.5938,3.9063 9.2188,3.4062 11.375,4.0938 2,2.9062 2.3124,9.5 0.6876,2.7813 0.4062,2.9062 -1.1875,5.5 -1.2187,5.0938 -1.5938,3.875 5525.2813,0 4.5312,-4.375 3.2813,-4.0938 1.5,-1.7812 0.8125,-1 2.5937,-2.3125 6.0938,-4.0938 12.9062,-8.5937 4.5,-4.5 2,-3.625 2.0938,-1.5 2.4062,-1.7813 5.7188,-2.3125 2.375,-0.1875 2.8125,-0.2187 1.5,-0.094 0.8125,-0.094 4.1875,1.6875 1.6875,0.7187 1.5,0.5938 2.5,-0.5938 3.625,-1.9062 1.5937,-0.5 3.5938,-0.5938 11.5937,0.2813 3.2188,0.125 1.375,-0.625 4,-1.6875 4.4062,-2 4.5938,-0.8125 2,-0.7813 3.125,-1.2187 3,0.4062 4.0937,-0.5937 2.0938,-0.4063 4,-0.5 5.1875,-0.5937 10.8125,0 4.5937,0.4062 9.2188,2.2813 0.6875,0.125 3.0937,0.375 2.9063,-0.375 1.0937,-0.5 3.5,-1.8125 8,-2.5938 5.5938,-1.7187 4.3125,-1.5938 3.5,-3.0937 1.5937,-1.4063 1.9063,-1.0937 1.6875,-1 2.8125,0.5937 1.8125,0.4063 3,1.1875 2.6875,1.9062 0.4062,0.5 2.6875,3 3.5938,3.9063 3.3125,3 2.6875,1.8125 2.625,0.2812 3.6875,-0.094 4.4062,-0.8125 4.5938,-0.6875 3.8125,-0.5938 2.875,0.4063 5.7187,0.6875 2.1875,0.3125 2.4063,-0.5 4.6875,-1 7.2187,-0.625 8.6875,-0.094 4.5938,0.5 5.7187,2 6.0938,0.5 5.6875,-1.0937 4.8125,-3.1875 2.8125,-1.9063 3.0937,-2.5 4.5,-5.7187 0.4063,-0.5 1.6875,-3.2813 3.0937,-5.8125 7.0938,-10 2.8125,-3.2812 3.3125,-3.8125 3.5,-2.5 6.0937,-8.0938 4.0938,-3.0937 2.0937,-0.5 9.2188,-0.125 5.0937,-1 8.1875,-4.5938 4.5938,-4.5937 3.625,-2 7,-2.0938 3.1875,-1 2.5937,-3.4062 5.5,-7.1875 3.5938,-2.9063 2,-1.5937 3.625,-1.625 4.375,-1.5938 4.5,-1.6875 4.9062,-3.9062 2,-3.5 2.0938,-3.8125 0.5,-3.7813 2.5,-4 4.625,-4.0937 2.6875,-2 2.9062,-0.5 1.7813,-0.5 5.9062,-1.625 7.7188,0.5 3.1875,1.2187 3.8125,2.1875 1.1875,1.3125 1.8125,1.7813 2.875,3 2.7187,0.4062 2.9063,-0.5 3.6875,-1.4062 3.5,-3.6875 2.3125,-6 1.875,-5 1.8125,-3.6875 2.0937,-1.9063 6.4063,-2.5 2.8125,-1.0937 2.375,-2.625 1.5,-1.5938 1.2187,-2.4062 0.1875,-2.5938 0.2188,-2.0937 1.5937,-1.4063 1.7813,-1.2812 2.7187,-1.4063 0.7813,-0.4062 1.9062,-1.5938 1.5,-1.9062 0,-6.3125 -0.094,-2.6875 1.5937,-3.5938 1,-2 -0.094,-3 0,-6.0937 1.9062,-3 1.7813,-2.7188 5,-3.4062 4.125,-4 3,-2.0938 4.5937,-1 4.6875,0.4063 7.0938,0.5 3.2187,1.1875 2,0.8125 2.5,-0.5 4.0938,-2.0938 3.0937,0.5 2.0938,-1 2.5,-1.2187 1.5,-1.2813 2.625,-1.5937 2.375,-0.125 5.3125,2.125 3.6875,-8.5 1.3125,-2.8125 2.5937,-5.9063 7.0938,-7.0938 1.3125,-3 1.0937,-6.5937 0.8125,-3.0938 1.9063,-0.9062 4.0937,-2.09375 2.5,-1 6.6875,0.5 5.5938,-1 3.125,-1.625 3.375,-0.875 2.7187,-0.625 2.5938,0.40625 4.5937,-0.5 3.8125,-1.6875 7.5,-3.5 9.0938,-6.59375 8.5,-6.125 5.3125,-4 3.5937,-1.5 3.4063,-1.59375 2.5937,0.40625 3.0938,0.8125 2.0937,0.28125 3.2188,0.5 2,-0.28125 5.0937,-0.90625 2.0938,-0.40625 1.4062,0.1875 13.5,1.40625 3,0.3125 3.0938,1 2.3125,1.40625 4.375,2.59375 4.125,1 2.5937,-0.5 4.0938,1.5 2.0937,0.6875 5.0938,3.21875 3.5,1.28125 2.625,0.3125 2.5,-0.21875 2.6875,-0.875 4.1875,-3.125 6.7187,-8 5.4063,-5.1875 3.375,-2.8125 2.7187,-2.1875 1.375,-2.09375 -6101.4686,0 z m -267.2188,272.5 -5.0938,1.0938 -4.6874,1 -14.5,3 -1.125,0.3125 -4.2813,0.875 -4,2 -5.5937,12 -0.5,1.2187 -1.5,7 -1.5,6.7813 -2.9063,11.875 99.3437,0 -14.75,-5.875 -1.1874,-6.6875 -1.8126,-4.4063 -2.5,-5.6875 -0.1874,-0.5937 -2.7188,-4.3125 -2.6875,-4.1875 -1,-0.8125 -16.5937,-13.5 -0.8126,-0.1875 -9.4062,-0.9063 z"
     id="rect10"
     inkscape:connector-curvature="0" />
  <path
	 style="fill:#9FAEC0"
	 stroke="#9FAEC0"
	 stroke-width="10"
	 transform="translate(0, 25)"
     d="m 259.4063,1278.6563 -1.3125,5.3437 3.3125,21.0938 14.5,19.9062 7.7813,6.9063 -0.1876,7.0937 -6.8124,16.5938 -5.1876,21.5 -10.6874,6.9062 -5.5,12.0938 14.375,17.9062 -20.875,5.1875 -19.2188,4.5 -3.4062,7.2188 -8.875,15.375 -19.125,22.8125 2.4062,12.9062 -4.0938,24.5 -3.5937,2.4063 -3.7187,1.0937 -3,1 -3.7813,0.2813 -2.5937,0.2187 -3.625,0.2813 -3.6876,0.3125 -6.1874,0.5 -1.4063,0.094 -12.3125,1 -7.4062,6.0937 -0.7813,3.7188 -1.0937,4.4062 0.094,0.6875 -1.9063,13.0938 13.4063,22.5 9.0937,2.2187 34.5,-0.2187 14.5938,14.5937 6.3125,15.4063 0.9063,2.125 5303.9999,0 6.0938,-3.625 3.5,-3.1875 4.5937,-6.5 3.5938,-3.0938 2.7187,-2.3125 4.875,-1.3125 2.625,-0.5 4.5938,0.5 5.4062,2.625 2.7813,3.375 1.7187,5.5 2,6.625 1.25,1.9063 72.0313,0 1,-1.8125 4.0937,-3.2188 2.5,-0.5 2.3125,0.4063 6.8125,1.3125 3.7813,0.6875 1.9062,-0.2813 3.0938,-0.625 5.2187,-3.0937 2.5938,-2.9063 2.5,-3.6875 6.0937,-5.4062 2,-1.6875 9.6875,-4.0938 3.625,-2 4.5938,-2.625 3.9062,-2 2.7813,-2.0937 2.9062,-3.2813 4.0938,-8.4062 3.0937,-2.5 4.2188,-2.9063 4.5,-3.1875 2,-2.5 1.0937,-2 -0.094,-3.5 -1.3125,-3 -3.7812,-4.625 -6.125,-4.7812 -3.375,-4.8125 0.1875,-4.9063 2.5,-6.0937 0.9062,-3.4063 0.094,-4.0937 -0.094,-4.0938 -1.3125,-3.3125 -1.7812,-7.1875 0.5,-2.5 1,-1.5937 1,-0.4063 6.1875,-4.5937 7.5937,-7.7188 2.5938,-3.375 2.2187,-4.7187 1.7813,-5 0.3125,-3.6875 0.1875,-1.8125 -0.2813,-6.2813 -0.3125,-5.3125 -3.1875,-7.0937 -3,-6.5 -2.4062,-3.8125 -2.1875,-2.2813 -1.125,-1.9062 1,-3 2.3125,-1.3125 0.6875,-0.4063 0.7187,-0.2812 2.4063,-1.5938 9.6875,-9.125 3.3125,-4.875 2.1875,-5.7187 2.0937,-4.0938 2.2188,-1.5937 6.5,-5 4.0937,-5.0938 2.7813,-2.625 2.3125,-2.375 0.5,-2 1,-1.625 1,-1 3.0937,-1.5 1.2188,-1.1875 1.2812,-2.3125 1.4063,-2.5 2.1875,-1.5937 3.4062,0.5937 5.2188,1 2.1875,0.4063 1.5,-1.0938 2.5,-2 3.6875,-4.0937 3.5,-4 3.5,-2 4.7187,-1.5938 3,-1 1.5,-0.3125 0.5938,-0.094 2.5,-0.5937 1.4062,-1 3.1875,-2.125 1.5938,-1.5 1.5,-1.875 2,-1.7188 2.625,-1 1.7812,-1.7812 1.2188,-2.8125 0.5,-4.5 -0.5,-4.5 0.5,-2.5 0.5,-3.5938 2.0937,-2.5 5.0938,-6.0937 0.4062,-0.5 4.2813,-6.8125 5.2187,-5.4063 2.6875,-1 2.9063,-0.5 4.5937,-1 5.5,-1.0937 2.5938,0.5 6,1 4.625,-0.5 20.375,-6.1875 4.9062,-3 1.2813,-1.25 -5525.2813,0 -0.1875,0.4375 -4.5,2.9062 -3.7187,3.0938 -1.5938,-0.1875 -12,-4.7188 -3.8437,-1.5312 -99.3438,0 z"
     id="rect12"
     inkscape:connector-curvature="0" />
  <path
	 style="fill:#9FAEC0"
	 stroke="#9FAEC0"
	 stroke-width="10"
     d="m 220.3126,1598.3125 3.875,9.2813 -2.1876,9.5 -7.6874,3 -6.8126,5.8125 -3.3124,5.5 -10,-1.625 -8.0938,0.125 -0.2812,19.5 13.5937,21.6875 10.5,3.6875 10.4063,4.625 7.875,4.2812 -0.875,9.2188 -2.4063,5.5 -2.9063,3.0937 -3.4062,3.6875 -2,2.2188 -5.4062,5.6875 -5.1876,3.3125 -7.1874,0.5937 -11.3126,-4.5 -10.5,-7.0937 -4.1874,-2.7188 -3.9063,-2.6875 -5.0937,-1.9062 -5.2188,-2 -6.0938,0.5 -10.1874,4.6875 -4.5,3.4062 -4.7188,3.7188 -7.1875,7.6875 -1.4063,1.4062 -2.0937,5.5 -1.3125,3.4063 -1.6875,6.0937 -2.4063,9.2813 0.5938,5.2187 0.5938,5.7813 0.3124,1.4062 -8.9062,23.5938 -8.0938,34.9062 -13.8124,3.2188 -19.1876,-6 -8.1874,-2.625 -1.125,-0.094 -4.375,-1.2813 -3.8126,-1.2187 -4.8124,-1.5938 -5,-1.6875 -3.5938,-1 -0.5,-0.2187 -3.5,-0.4063 -3.5938,0.4063 -0.5937,0 -6.0937,0.5937 -0.625,0.2188 -5.6876,1.0937 -3.6874,2.3125 -3.8126,4.875 -3.5,4.3125 -1.8124,6.4063 -1.5938,5.7812 -0.2812,1.2188 -1.7188,7.2812 -0.5938,6.7188 0.6876,5.4062 30,1.1875 356.5,12.8125 147.4062,4.7813 73.4062,2.4062 75.1876,2.1875 189.5,5.4063 41.9062,1.4062 100.8125,2.5 134.9063,3 29.6874,0.8125 83,2 3,0.094 91.3126,1.0938 33.2812,0.4062 107.5938,1.9063 112.3124,1.7812 121.8126,1.8125 29.7812,0.5938 12.7188,0.1875 73.0937,1.5 67.7813,1.3125 3.9062,0.1875 6.9062,0 -0.4062,-0.875 -2.5,-4.9063 1,-6.5 17.9062,0.4063 93.8126,3.375 84.375,0.5 136.9062,2.7187 13.7188,0.2813 42.1874,1 141.9063,2.7187 9.0937,0.1875 348.1876,7.7188 4.9062,0.1875 11.8125,0.3125 297.6875,9.5 43.5938,0 48.7187,-0.125 58.9063,0.4062 273.5937,1.3125 91.6875,-1.5937 7.2188,0 407.0937,1 15.7813,0 221.125,1.6875 119.875,-0.1875 83.9062,-0.7188 16,0 19,-0.2812 2,0.094 28.9062,-0.7188 40.4063,-1.5 103.4063,-4.375 157.2812,-3.4062 3,-0.094 72.3125,-1.8125 79.4063,-1.9063 32.1874,-1 20,-0.5937 18,-0.5938 88,-2.4062 4.1876,0 10.2187,0.094 94.2813,-0.5 37.9062,-0.5 84.0938,-2.0938 4.125,-0.094 54.0937,-1.5937 3.5,-35.5 14.1875,-170.2188 3,-36.4062 1.9062,-21.1875 4.0938,-4.0938 3.0937,-1.5 2.5,-2.3125 3.625,-3.2812 1.2813,-1 10.4062,-8.125 5.5938,-6.5938 3.0937,-2 0.625,-0.375 -5303.9999,0 z m 5349.7499,0 1.3438,2.0938 3.2812,2.7812 4.7188,1.7188 4.2812,1.375 3.125,0 3,-1 2.875,-1.2813 5.3125,-2.3125 6.3125,-1 2.5938,-0.2812 9.5937,-1 6.6875,0 2.2188,1.375 4.4062,2.7187 3,1.2813 3.1875,0.2187 1.5,-0.5 2,-1.5 2.5938,-4.6875 -72.0313,0 z"
     id="rect14"
     inkscape:connector-curvature="0" />
</svg>
