<?xml version="1.0" encoding="UTF-8" standalone="no"?>
<svg
   xmlns:dc="http://purl.org/dc/elements/1.1/"
   xmlns:cc="http://creativecommons.org/ns#"
   xmlns:rdf="http://www.w3.org/1999/02/22-rdf-syntax-ns#"
   xmlns:svg="http://www.w3.org/2000/svg"
   xmlns="http://www.w3.org/2000/svg"
   xmlns:sodipodi="http://sodipodi.sourceforge.net/DTD/sodipodi-0.dtd"
   xmlns:inkscape="http://www.inkscape.org/namespaces/inkscape"
   width="4456.8125"
   height="5566.4062"
   viewBox="0 0 4456.8125 5566.4062"
   id="svg2"
   version="1.1"
   inkscape:version="0.48.1 "
   sodipodi:docname="AJAX.svg">
  <metadata
     id="metadata20">
    <rdf:RDF>
      <cc:Work
         rdf:about="">
        <dc:format>image/svg+xml</dc:format>
        <dc:type
           rdf:resource="http://purl.org/dc/dcmitype/StillImage" />
      </cc:Work>
    </rdf:RDF>
  </metadata>
  <defs
     id="defs18" />
  <sodipodi:namedview
     pagecolor="#ffffff"
     bordercolor="#666666"
     borderopacity="1"
     objecttolerance="10"
     gridtolerance="10"
     guidetolerance="10"
     inkscape:pageopacity="0"
     inkscape:pageshadow="2"
     inkscape:window-width="1280"
     inkscape:window-height="1004"
     id="namedview16"
     showgrid="false"
     fit-margin-top="0"
     fit-margin-left="0"
     fit-margin-right="0"
     fit-margin-bottom="0"
     inkscape:zoom="0.048678687"
     inkscape:cx="5779.886"
     inkscape:cy="-321.43093"
     inkscape:window-x="-8"
     inkscape:window-y="-8"
     inkscape:window-maximized="1"
     inkscape:current-layer="svg2" />
  <path
	 style="fill:#9FAEC0"
	 stroke="#9FAEC0"
	 stroke-width="10"
	 transform="translate(0, 125)"
     d="m 153.4063,0 -0.5938,22.0937 -0.125,1.7188 -0.5938,15 -0.4062,17.7812 -0.7812,31.2188 -1.2188,49.5 -0.7812,31.1875 -0.4063,15.1875 -0.8125,32.8125 -0.7812,32.6875 -1.0938,47.4062 -0.4062,16.7188 -0.5,18.5938 -1.2188,46.9062 L 143.3125,395 142,444.5 l -0.4063,16.5937 -0.4062,13.5 -0.094,3.0938 -0.4062,13.125 0,2.0938 -0.094,8.4062 0,5.0938 -0.094,2.5937 -0.3125,13.5 -0.094,3.6875 -0.5,16.625 -0.5937,16.0938 -0.3125,10 0,7.6874 -0.375,8.4063 -0.125,5.1875 -0.5,13 -0.1875,3.125 0,14 -0.094,3.1875 -0.4063,16.5937 -0.5,16.2188 -0.5,11.375 -0.094,6.7188 -0.3126,9.4062 -0.094,4.1875 -0.4063,11.4063 -0.094,3.2812 -0.5,14.4062 -0.094,2.7188 -0.4063,16.0938 -0.4063,16.1874 -0.5,18.5938 -0.2812,13.125 -0.4062,16.1875 -0.5,17.0937 -0.4063,16.0938 -0.4063,16.2188 -0.4062,17.5937 -0.375,14.1875 -0.4062,11.8125 0,4.8125 -0.5,12.7812 -0.031,1.7813 2512.5,0 -0.4687,-54.875 0,-9.8125 -0.7188,-77.0938 -0.094,-15.6874 -0.1874,-16.0938 -0.2188,-32.7188 -0.1875,-17.1874 -0.094,-15.5938 -0.2188,-16.125 -0.1875,-31.2812 -0.9063,-97.3126 -0.2812,-43.7812 -1.625,-171.5 -0.5,-81.2188 -0.1875,-30.7812 -0.1875,-32.3125 -0.625,-82.1875 -0.375,-71 -323.8125,0.875 -9.0937,0 -49,-1.5938 -4.4063,0.2188 -5.5937,-0.2188 -53.2188,-1.5 -0.875,0 -114.2188,2.2188 -186.5,3.0938 -122.9062,0.6874 -11.1875,-0.094 -13.1875,-0.094 -25.7188,0 -6.5937,-4 -6.5,-0.094 -14.4063,0.1875 -1.0937,0 -8.6875,-0.1875 -27.125,-0.3125 -41.875,0.094 -20.125,-0.094 -94.1875,0 -53.5937,-0.1875 -50.0938,-0.3125 -13,-0.094 -79.4062,-0.3126 -81.9063,-0.5 -12.8125,-0.094 -76.7812,-0.5 -68,-0.9063 -8.4063,-0.094 -6.5,0 -30.6875,0.094 -48.125,0 -15.875,0.094 -59.4062,0 -2.7188,-0.1875 -3.375,-0.094 -15.9062,-0.2188 -204.9063,-2.0938 -20.3125,0 -11.375,-0.1874 -4,0 -33.8125,-0.3126 -47.0937,-0.4062 -26.0938,-0.5938 -8.7188,0.094 -9.7812,0 -30.7188,-0.094 -37.2812,-0.094 -17.4062,-0.094 -9.2188,-0.2188 -7.6875,0 -16.9063,0.125 -56.7812,-0.125 -16.4062,0.2188 -0.5,0 -14.8126,-1 -2.5937,-0.2188 -30.1875,-1.375 -15.3125,-0.7188 -16.4063,-0.5937 -3,-0.1875 L 210.1849,2.9979 194.9037,2.1854 175.3099,1.0916 153.4037,-0.0021 z"
     id="rect4"
     inkscape:connector-curvature="0" />
  <path
	 style="fill:#9FAEC0"
	 stroke="#9FAEC0"
	 stroke-width="10"
	 transform="translate(0, 100)"
     d="m 129.375,912.375 -0.062,2.0313 -0.5,16.1874 -0.4062,16.5938 -0.5,10.3125 0.094,7.3125 -0.5,8.7812 0,5.3126 -0.3125,10.7812 -0.094,5.9062 -0.4062,12.8126 -0.094,4.2812 -0.2812,15.7188 -0.4062,17.0937 -0.4063,16.5937 -0.5,14.0938 -0.4063,11.8125 0,4.9063 -0.5937,10.1874 -0.094,6.9063 -0.3126,16.0937 -0.2812,16.2188 -0.3125,7.6875 -0.6875,23 -0.5,16.0937 -4,139.5938 -0.2188,3.125 -0.6874,18.1875 -1.3126,29.6875 -0.7812,21.5 -1.125,28.9062 -3.1875,82 -0.1875,7 -0.9062,24.8126 -2.0938,54.1874 -5.2188,139.2188 -3.75,107.5938 4245.625,0 -0.9687,-36.7188 -0.9063,-32.1875 -0.5,-18.5 -0.5,-16.6875 -0.7812,-33.3125 -0.625,-16.1875 -0.2813,-8.5 -0.2187,-5.9062 -0.1875,-18.3126 -1.1875,-42.7812 -1.3125,-50.8125 -0.094,-2.0937 -0.4063,-15.5 -0.5937,-18.0938 -1.4063,-46.5 -0.094,-3.4062 -0.2187,-12.8126 -1.0938,-32 -1.6875,-63 -0.5937,-19.6874 -0.4063,-15.5938 -1.2187,-45 -0.375,-21.5 0,-2.2188 -0.4063,-14.9062 -0.5937,-31 -0.625,-18.875 -0.094,-7.8125 -0.7813,-17.9063 -0.5,-23.4062 -1.9062,-57.875 -27.0938,0.094 -18,0.5937 -13.2187,0.1875 -65.5938,1 -18.9062,0.3125 -0.6875,0 -13.2188,0.5 -174.1875,6.4063 -22,0.6874 -1.9062,0.094 -28.7813,0.8125 -3.125,0.094 -67.0937,1.9063 -2,0 -29.7813,0.5937 -14.3125,0.3126 -10.3127,0.1867 -11.6875,0.2188 -16.4062,0.375 -33.7813,0.9062 -68.7187,1.5 -63.5,1.5 -46.9063,1 -48.875,1.0938 -40.7187,1.2188 -7.4063,0.1874 -87,2.5 -28.7812,0.9063 -19.4063,0.5937 -45.6875,1.8126 -3.4062,0.094 -178.8125,1.9063 -4.0938,0 -12.4062,0.1874 -15.7813,0.094 -15.9062,0.2188 -0.8125,0 -15.0938,0.094 -7.1875,0.094 -4.125,0 -4.0937,0.094 -0.1875,0 -16.7188,0.125 -15.875,0.1875 -16.4062,0.094 -112.2188,0.9063 -35.375,0.3125 -192.125,1.5938 -1.8125,-217.0313 -2512.5,0 z"
     id="rect6"
     inkscape:connector-curvature="0" />
  <path
	 style="fill:#9FAEC0"
	 stroke="#9FAEC0"
	 stroke-width="10"
	 transform="translate(0, 75)"
     d="M 98.3437,1844.9063 93.9063,1973.1875 92.5,2026.3125 91.3125,2081.5 88,2233.1875 l -2.0937,85.125 -3.3126,143.0938 -0.6874,32.6875 -2.5938,111.5937 -3.4062,114.8125 -1.6876,56.9375 4295.875,0 -0.4062,-13.625 -0.5938,-20.9062 -2,-72 -0.4062,-16.0938 -2.2813,-81.625 -1.5937,-58.375 -0.3125,-7 -1.5,-56.4062 -0.9063,-32.7188 -0.5,-16.6875 -4.4062,-161.0937 -0.375,-14.0938 -1.9063,-64.9062 -1.5937,-53.5 -0.9063,-32.7188 -0.4062,-12 -0.094,-4.0938 -2.5,-100.9062 -1.5938,-42.1875 -0.4062,-16.0937 -0.3125,-10.0938 -0.1875,-8.5 -0.8125,-31.7188 -0.125,-5.1874 -4245.625,0 z"
     id="rect8"
     inkscape:connector-curvature="0" />
  <path
	 style="fill:#9FAEC0"
	 stroke="#9FAEC0"
	 stroke-width="10"
	 transform="translate(0, 50)"
     d="M 74.2187,2777.4375 73.5,2802 l -0.5,16.0938 -1.6875,53.5937 -0.9062,28 -0.5938,16.625 -0.8125,28.375 -1.5937,52.625 -0.5,14.5938 -2.0938,69.4062 0,1.2813 -4,107.9062 -1.4062,35.8125 -2.5938,73.6875 -0.625,16.5938 -0.5,7.3125 0,1.1875 -0.5938,47.5937 -0.4062,32.7188 -0.6875,62.9062 -0.1875,15.0938 -0.2188,20.5937 -0.094,1.5 -1.1875,47.8125 -0.9062,30.6875 -0.094,7 -1.3125,49.9063 -0.9063,40.2812 -0.75,28.7813 4343.0938,0 -0.8438,-30.4688 -4.2812,-283.8125 -0.2188,-14.0937 -0.094,-4.9063 -0.1875,-10.1875 0.094,-6.9062 -0.4062,-9.1875 -0.5,-35.0938 -0.4063,-14.2187 -0.4057,-16.0938 -2.0938,-81.0937 -0.4062,-15.5938 -2,-73.4062 -0.1875,-7.5938 -0.4063,-16.125 -2.4062,-80.5 -0.375,-16.0937 -2.4063,-81 -0.094,-4.5 -2.625,-92.6875 -0.7812,-28.2188 -0.3125,-10.75 -4295.875,0 z"
     id="rect10"
     inkscape:connector-curvature="0" />
  <path
	 style="fill:#9FAEC0"
	 stroke="#9FAEC0"
	 stroke-width="10"
	 transform="translate(0, 25)"
     d="m 48.3437,3709.9688 -1.4374,54.2187 -0.4063,13.5 -0.5,19.7188 -10.0937,388.9062 -1.4063,54.7812 -0.6875,25.2188 -3.4062,130.2812 -0.094,2.3126 -6.125,138.5937 -0.094,2.1875 -3.0937,102.8125 4411.4375,0 -2.0309,-83.6875 -1.7187,-72.5 -0.094,-7.125 -0.2813,-9.5938 -0.5,-22.5937 -1.125,-48.8125 -0.375,-16.0938 -2.8125,-126.4062 -0.1875,-8 -21,-128.7812 -1.8125,-59.4063 -0.6875,-24.1875 -0.8125,-28.625 -0.8125,-30.1875 -0.375,-16.0937 -1,-39.8125 -0.3125,-9.0938 -0.9063,-38.1875 -0.094,-1 -1.3125,-41.3125 -0.2813,-11.5937 -0.3125,-16.0938 -1,-48.3125 -0.094,-5.5 -1.0625,-39.5312 -4343.0937,0 z"
     id="rect12"
     inkscape:connector-curvature="0" />
  <path
	 style="fill:#9FAEC0"
	 stroke="#9FAEC0"
	 stroke-width="10"
     d="m 21,4642.5 -0.6875,23.3125 -0.125,1.6875 -2.0938,69.6875 -0.5,16.625 -1.5937,49.7812 -0.6875,23.5938 0,1.8125 -0.9062,39.5 L 14,4893 l -0.3125,17.0937 -0.875,40.9063 -1,48.3125 L 11.1875,5023.5 0,5542.8125 l 39.3125,0.375 15.375,0.4062 48.8125,1 15.9063,0.3126 16.4062,0.4062 4.1875,0.094 11.6875,0 22.625,0.5937 17.375,0.4063 8.2188,0.1874 1.7812,0.094 14.125,0.3125 17.5,0.3125 14.7812,0.375 2.0938,0 41,0.625 7.7188,0.094 1.0937,0 9.6875,0.5 4.625,0.1874 14.375,0.094 16.4062,0.125 3.0938,0 15.4062,0.1875 13.3126,0.1875 81.5937,1.625 18.5,0.375 13.8125,0.2188 15.875,0.4062 32.8125,0.5938 29.8125,0.5937 18,0.3125 16.375,0.1875 17.4062,0.3125 16.4063,0.1875 34.4063,0.5 13.2812,0 3.625,0.1875 12.375,0.125 18.4062,0.1875 15.9063,0.1875 4.0937,0 27.7188,0.5 15.875,0.2188 3.125,0 13.375,0.1874 17.9062,0.3126 32.8126,0.5 15.4062,0.094 15.875,0.3125 3.125,0 16.375,0.2812 31.3125,0.4063 1.5937,0 30.8126,0.3125 7.0937,0 13.0937,0.094 12.0938,0.1874 24.125,0.4063 30.2812,0.3125 41.5,0.2812 69.8126,0.5 34.9062,0.5938 73.2812,0.7188 71.9063,0.6874 41,0.3126 45.6875,0.4062 73.9062,0.5 105.5938,1 13.4062,0.094 19,0.1874 15.9063,0.2188 49.1875,0.375 11.8125,0 18.5,0.2188 15.9063,0.094 3.1874,0 40.4063,0.3125 4.0937,0 24.0938,0.094 128.8125,0 9,-0.094 6.9063,0 65.1874,-0.3125 13.8126,-0.094 37.5,0.2812 2,0 14.9062,-0.1875 9.7812,0.094 14.8126,0.3126 19,-0.2188 15.9062,-0.1875 19.5,-0.094 66.6875,-0.4063 74.4063,-0.094 16.4062,-0.4063 17,0 40,-0.4063 0.7812,0 11.5,-0.4062 19.5,0 8.7188,0.125 15.375,0 16.4062,0.094 9.3126,-0.2188 3.5937,0 18.9063,0.2188 5.6874,0 73.4063,-0.8126 1.5,0.094 3.0937,0.3125 1.5,-0.094 3.5938,-0.094 5.125,-0.125 72.375,-0.7812 151.3125,-1.4063 119.1875,-1.3125 23,-0.2812 103.125,-1.2188 63.0938,-0.375 52.9062,-0.3125 1,0 6.0938,4.6875 9.6875,-0.094 119.0937,-1.5937 290.4063,-4.5937 60,-1 204.2187,-4 163.6875,-3.5 41.0938,-1 382.2187,-10 -7.4063,-264.9063 -0.9062,-32.6884 -0.9063,-32.2188 -0.9062,-30.6874 -0.375,-16.5938 -0.7188,-23.9062 -0.7812,-30.5938 -0.4063,-15.7188 -1.9062,-69.4062 -0.1875,-6.875 -0.2188,-7.625 -1,-33.2812 -0.5937,-22.7188 -1.6875,-71.875 -0.3125,-12.5 -0.094,-2.625 -0.4063,-14.5938 -0.3125,-13 -1.1875,-49.9062 -0.094,-5 -0.4062,-13 -2.1875,-68.0938 -0.4063,-17.5937 -0.9687,-39 -4411.4375,0 z"
     id="rect14"
     inkscape:connector-curvature="0" />
</svg>
