<?xml version="1.0" encoding="UTF-8" standalone="no"?>
<svg
   xmlns:dc="http://purl.org/dc/elements/1.1/"
   xmlns:cc="http://creativecommons.org/ns#"
   xmlns:rdf="http://www.w3.org/1999/02/22-rdf-syntax-ns#"
   xmlns:svg="http://www.w3.org/2000/svg"
   xmlns="http://www.w3.org/2000/svg"
   xmlns:sodipodi="http://sodipodi.sourceforge.net/DTD/sodipodi-0.dtd"
   xmlns:inkscape="http://www.inkscape.org/namespaces/inkscape"
   width="1566.9062"
   height="2550"
   viewBox="0 0 1566.9062 2550"
   id="svg2"
   version="1.1"
   inkscape:version="0.48.1 "
   sodipodi:docname="AJAX.svg">
  <metadata
     id="metadata20">
    <rdf:RDF>
      <cc:Work
         rdf:about="">
        <dc:format>image/svg+xml</dc:format>
        <dc:type
           rdf:resource="http://purl.org/dc/dcmitype/StillImage" />
      </cc:Work>
    </rdf:RDF>
  </metadata>
  <defs
     id="defs18" />
  <sodipodi:namedview
     pagecolor="#ffffff"
     bordercolor="#666666"
     borderopacity="1"
     objecttolerance="10"
     gridtolerance="10"
     guidetolerance="10"
     inkscape:pageopacity="0"
     inkscape:pageshadow="2"
     inkscape:window-width="1280"
     inkscape:window-height="1004"
     id="namedview16"
     showgrid="false"
     fit-margin-top="0"
     fit-margin-left="0"
     fit-margin-right="0"
     fit-margin-bottom="0"
     inkscape:zoom="0.19471475"
     inkscape:cx="2267.6625"
     inkscape:cy="782.67743"
     inkscape:window-x="-8"
     inkscape:window-y="-8"
     inkscape:window-maximized="1"
     inkscape:current-layer="svg2" />
  <path
	 style="fill:#9FAEC0"
	 stroke="#9FAEC0"
	 stroke-width="10"
	 transform="translate(0, 125)"
     d="m 1566.9063,0 -28.0937,1.09375 -139.2188,4.59375 -170.9062,5.8125 -23.375,0.59375 -50.9063,0.71875 -74.7187,6.78125 -50.375,-0.78125 -94.12505,2.78125 -130.6875,-4.1875 -27,-0.40625 -52.40625,1.09375 -14.6875,-2 -25.5,-4 L 659.50005,10.6875 501.31255,8 395.00005,10.1875 316.5938,6.8125 207.3126,9.5 l -9.2188,0.0937 -110.4062,2.59375 -4.5,14.3125 -3,9.6875 -0.5938,2.40625 0,3.59375 1,4 1.3125,2.125 0.5,0.6875 1.9063,3.09375 2,3.8125 3.5,5.09375 1.2812,2.40625 0.5938,2.28125 0.2187,1.3125 0,3.59375 -1.0937,2.5 -0.125,4 -0.2813,9.3125 0,0.90625 -0.3125,8.59375 -0.1875,5.6875 0,0.90625 0.4063,4.09375 -0.625,3 -0.094,1.40625 -0.1875,1.6875 -1.5,2.90625 -2.0937,3.21875 -1.5,1.78125 -1.3126,1.21875 -0.9062,0.6875 -1.5,1.5 -2.5,1.5 -1.6875,2.5 -2.0937,2.90625 -1.125,2.5 -1.0938,4.1875 -1.7812,6.90625 -4.125,16.09375 -1.0938,6.40625 -1.2812,7.3125 -0.625,1.28125 -1.1876,2.5 -2.5937,3.59375 -2,4.125 -1.5,3 -0.2187,1.5 -0.094,2 -0.094,4 -0.094,3.1875 1.5,5 2.5937,3.59375 3.5,4.59375 5.0938,4.3125 3,2.5 3.5,2.8125 6.7188,5.59375 3.5937,5 3.4063,5 1.1874,2 1,2.09375 1.0938,3.59375 0.5,3.5 0.4062,3.71875 0.094,1.375 0,2.5 -0.5,4.125 -0.5,3 -1.5938,3.5 -2.5,3.09375 -0.8124,1.28125 -0.6876,1.3125 -1.9062,3.3125 -2.1875,4.78125 -1,2.5 -1,3.59375 -0.2187,1.5 -0.2813,1.5 -1.5,3 -1,3.125 -2.2187,3.59375 -1.875,3 -0.8126,1.59375 -0.5,1.40625 -1.0937,2 -1.0937,3.5 -0.5,6.6875 -0.3126,2.3125 -0.1874,2.28125 -0.5,5.3125 -0.125,1.3125 -1,6.5 -0.875,9 -0.5,12.59375 4.5,4.1875 -4,10.8125 -2.125,6.5 -2,5.09375 -0.2813,1.8125 0,1.375 -0.094,2.90625 0.875,2.59375 -0.5938,2.71875 -1.0938,3 -1.0937,2 -0.3125,0.6875 -0.9062,1.21875 -1.5938,1.5 -1,2 0,2 0.5,1.09375 -0.5,2.5 -1.0938,1 -0.9062,2 -0.5,2.09375 0,1.09375 0.094,0.3125 1447.5,0 0,-0.90625 -0.5,-2 -1.0938,-2.5 0,-3.09375 -1.0937,-1.5 -1.5,-1 -1.5938,-0.5 -1,0.59375 -2,1 -2.5,0.59375 -1.5937,0 -2.125,-0.5 -1,-0.5 -0.5,-1.59375 1,-0.5 1.5,0 1.625,-0.5 0.5,-0.5 0,-1 -1.125,-0.5 -2.5,0 -2,-0.5 -1.0938,-1 -2,-1 -1,-2 0,-2.09375 0.5,-2.5 -0.5937,-2.5 -0.5,-2.09375 -0.5,-1.5 0.5,-1.5 1,-1.5 0,-2.125 -1,-0.5 -1.1875,-0.5 -2.5,-0.5 -1.4063,-1 -1.5,-3 -0.9062,-2.09375 -0.5,-2.5 -0.5938,-2.5 -0.5937,-3 0,-2.09375 -0.125,-3 0.5,-2 -0.5,-2.59375 -1,-1.5 -1.5,-3 -0.5938,-2.8125 -1.5937,-3.5 -3.5938,-5.09375 -5.5,-8.40625 -2.2187,-3.6875 -0.5938,-1.40625 -0.7812,-1.90625 -1.4063,-2.6875 -1,-1 -2,-0.90625 -1.5937,-2.59375 0,-2.5 -0.125,-2.5 -0.5,-2 -0.593,-2.5937 -1,-3 -1.5937,-2.5 -1,-1.5 -1,-2.5 -0.094,-2.125 1.5,-2 1.5,-1.09375 2,-0.5 1,-0.5 1.5,-1 1.5937,-1.09375 2.5,-2 4,-5.1875 1.5,-2.5 1.6875,-2.40625 2.5,-3.09375 5.125,-8.625 2,-2.5 3.0938,-2.59375 3,-2 2,-1.59375 2.5937,-1.5 2,-1 1,-1 1.5,-2.09375 1.0938,-2 -0.094,-2 0.5,-3.09375 0.5,-2 1,-3.625 1.0937,-3 -0.094,-3.1875 -1.3125,-3 -1.0937,-2.5 -1.1875,-3 0.5,-2.5 1,-2 1.5937,-1.59375 1.5938,-1 2,-1.5 4.5,-3.59375 1.5,-2.625 2.5,-4.09375 1,-3.59375 1,-3 0.4062,-3.59375 -1,-2.5 -0.5937,-3 -0.3125,-3.5 0.5,-2.5 1.4062,-2.59375 1.0938,-2 1,-2 -0.4063,-3.21875 0.5,-1.5 1,-2.59375 2,-2.5 2,-1.59375 2.5,-0.8125 2.5,-1.5 1.5,-1.09375 2.125,-1.5 1,-2 4,-5.59375 2,-2.59375 2.0938,-2.5 2,-2 1.5,-2.625 1.5,-2 1.5,-3.59375 1.4062,-2.6875 1.2813,-3.5 2.5937,-1.90625 1.5,-1.59375 1,-1 1.5,-2.09375 1,-1.5 1.5,-1.5 0.5,-1.125 0.5,-1.5 -0.5,-1.5 -1.5937,-1 -1,-0.5 -0.5,-1 -0.5938,-2 -1.5,-2 -1.5937,-2.5 -6.5938,-6.59375 -1.625,-3 -1.5,-3.59375 -1,-3.5 -1.0937,-3 -0.5,-2.09375 -0.4063,-2.59375 0.9063,-0.90625 1.5937,-0.71875 0.625,-0.875 -0.2187,-1.5 -0.5,-1.5 -0.5,-2.5 -0.5,-4.125 0.5,-4 0.4062,-2.59375 0.5,-2 -0.5,-2.59375 -0.5,-1.5 -1,-1 -1,-0.5 -0.5,0 -1.0937,-1 -0.5,-1.5 -0.5,-2.5 -1.5,-2.09375 -1.5938,-2.5 -1.5,-0.5 -1.5,-1.5 -1.7187,-1.8125 -1.0938,-2.59375 -1.5,-1.5 -1.0937,-1 -1.8125,-1.8125 -0.5,-0.6875 -0.9063,-2 1,-1.6875 0.2188,-0.40625 1.6875,-1.71875 1.7187,-1.59375 -0.125,-1 -0.5,-2.5 -0.094,-3.5 1.5,-4.09375 2.5,-2 3.0938,-2.59375 4.5,-2 4.125,-2.09375 5.5,-1.5 4.5937,-0.625 5.5938,1.40625 4.5937,1 1.5938,0.5 2.5,0.90625 1.5,0 1.5,-1.5 1.625,-1.8125 2,-3.59375 2.5,-1.5 2.5937,-1.59375 2,-1 1,-2.5 z"
     id="rect4"
     inkscape:connector-curvature="0" />
  <path
	 style="fill:#9FAEC0"
	 stroke="#9FAEC0"
	 stroke-width="10"
	 transform="translate(0, 100)"
     d="m 53.1876,417.90625 0.125,0.5 1,1.09375 0.375,1.5 -0.094,1.5 -1,2 -1.5938,1.5 -0.9062,2.09375 -2.0938,2.59375 0,4.5 0.5938,2 0,2.40625 -1.5938,4.21875 0,4.09375 0.1876,0.90625 0.625,1.5 1.375,2 1.5,2.59375 1.4062,4.59375 1.9062,4.59375 0.9063,2.71875 0.2813,1.375 0,3 -0.5938,4.625 -0.9062,4 0.625,2.59375 0.5937,1.5 1.0937,3.90625 0.1876,0.59375 1.625,4.59375 2,4 1.1874,2.09375 0.9063,1.5 2,3.90625 2.0937,3.59375 1,1.09375 3.5,3.5 2,1.5 2.0938,1.625 2.0938,2 1.5,1.28125 1.5,1.21875 2,2 2.5,3.09375 0.5,0.5 0.4062,1.09375 0.7188,1.40625 1.5,2.59375 0.5937,0.90625 1.5,2.59375 2.0937,4.59375 2.4063,4.3125 2.4063,3.09375 1.875,2.59375 1.5,2.09375 0.4062,2 0,5.625 1.0938,2.5 1,2.1875 0.5,0.90625 1.4062,4 0.2188,0.6875 4.375,7.21875 3.2187,7.78125 1.1875,3 1.7188,4.59375 1.375,4.625 1.3124,5.09375 0.4063,5.59375 0.094,5.09375 0.094,3 0.094,2.90625 0.4062,7.1875 0.4062,4.625 0.1876,1.375 1.3124,5.8125 0.3126,2 0.2812,3.90625 0.094,5.09375 -1.0938,5 -3,10.1875 -1.9062,3.40625 -0.6876,1.09375 -2.5,4.625 -1.8124,3.1875 -0.5938,1.09375 -2.0938,4.71875 -2.0937,4.1875 -1.8125,5.1875 -1.0938,4 -1.0937,4.125 -1.5937,4.375 -0.625,2 -0.875,2.625 -2.5,4.5 -2.125,3.09375 -3,4 -0.6876,1.59375 -0.5937,2.1875 -2.2187,4.5 -0.5938,2.90625 0,5.09375 0.8125,6 0.2813,1.5 1.9062,4.40625 1.9062,5.59375 2.3126,7.125 0.5,1.59375 1.2812,7.59375 1.0938,6.40625 0.2187,1.28125 0.2813,6.125 0.2187,2.59375 0.1875,3 0.3125,4 0,6.59375 0.1875,1.5 0.5938,2.09375 0.9062,2.5 0.9062,3.5 2,4.5 1,3.59375 0.9063,2.5 0.6875,2 0.5,3.90625 0.4062,5.09375 -0.094,1.8125 -0.3125,2.90625 -0.1875,3.09375 -0.3125,3.5 -0.5,2.5 0,0.0625 1001.0937,0 0.7188,-2.375 0,-2 -0.5,-3.09375 -1.0938,-1.5 -1,-1 -1.5,0 -0.5,-1 -0.5,-2 0.5,-3.09375 2,-6 0.7813,-3.09375 1.0937,-2.71875 1,-1.5 1.7188,-2.28125 3,-2.09375 2.5,-1 3.0937,-1.21875 1.6875,-1.59375 3,-3 2.5,-2.59375 1.5,-2.5 1,-3.09375 1,-3 -0.094,-3.625 0.5,-3 1,-1.78125 1.5,-3.09375 2.0938,-1 1.5,-0.5 3.625,-1 3.5,-1.625 3.5937,-1 6.4063,-3 5.0937,-2.59375 3.6875,-1.6875 5.0938,-2.09375 3.625,-1.8125 4.5937,-1.5 4.7813,-1.59375 5.625,-1 5.375,-0.5 3,0 2.625,0.40625 4,0.5 2.5937,0 3.2813,-0.5 2.5,-0.625 3,-2.5 3,-3.09375 4.625,-3.59375 4.875,-1.40625 3.625,-1 2.5937,0 3,1 3.0938,1.5 3.5937,2 3.5,2.5 4.0938,2 4.625,1.5 3.7812,0.5 4,-0.59375 5.5938,-1.59375 3.625,-2.59375 5.0937,-2.40625 6.5,-3.8125 3,-1.1875 5.5,-2.09375 4.5938,-1.5 4.0937,-2 2.5,-2.125 2,-2.09375 1,-3.5 -0.094,-4.59375 -0.5938,-9.59375 0.1875,-2 0,-2.5 0.2188,-4.09375 1.875,-5.125 4,-5.09375 3.625,-3.59375 4,-3.59375 4,-1.90625 3.5937,-2 4.5938,-1.59375 3.5,-1.5 3.5933,-2.09375 3,-1 2.5937,-1 0.4063,-0.125 2.0937,-0.375 1.625,0.5 4,3 1.5,1 1.5938,0.5 2.5,-0.125 1.5,-1 1.5,-1.59375 1.5,-2.5 2,-1.59375 2.5937,-1.5 3,-0.59375 3.6875,-0.5 3.625,-0.3125 3.5,-0.5 3.5938,-1 3.5,-1.59375 4.5937,-2.5 6.3125,-6.3125 2.875,-2.28125 2.7188,-1.71875 3,-1.5 2.5937,-2.09375 0.9063,-2 1,-2.59375 0.5,-1.5 2,-1.59375 2,-1 2.5937,-1.59375 2.5,-0.8125 3,-3 2,-3.59375 1.5,-4.5 1,-6.59375 0.5,-3.625 0.9063,-1.78125 1.5,-1.5 2,-1.59375 2,-0.625 1.5,-0.5 2.6875,-0.6875 1.0937,-1.40625 0.7188,-1.6875 -0.5938,-1.5 -1.125,-1.40625 -1.0937,-1 -1,-1 -1,-1.5 0,-1.5 1,-2.09375 1.5,-2 2,-2 1.5937,-0.59375 1.5,0 1.5,1.5 -0.5,2.09375 0,1 1.625,0.5 1.0938,0 2.0937,-0.0937 2,-1 1.5,-2.125 2,-2.5 0.5,-2.09375 1,-2 1.5,-1 2,-0.59375 4.0938,0 2,-0.59375 2.5,-0.3125 1.5937,-1 2,-1 1.5,-2 1,-2.59375 1,-4 1,-3.59375 0.5,-1.5 0.5,-1 1.625,-0.5 1.5,1 2,0 0.5,-0.5 0,-1.09375 -0.5,-1 -0.7187,-0.90625 -0.2813,-1.09375 -0.5,-1.5 0.094,-1.8125 0.5938,-0.59375 0.5937,0.28125 1.5938,1 0.625,1.625 1,0.875 1.0937,1.125 1,0 0.4063,-0.625 0.375,-1 0.125,-1.59375 -0.5,-1 -0.8125,-1 -1.5,-2 -1.6875,-2.90625 -2,-2.5 -2.625,-2.09375 -1.5,-2 -1.5938,-2 -1,-1.5 0.5,-1.5 1.5,-0.59375 6.0938,0 2.625,-2.5 3,-4.59375 1.5,-3.09375 0.5,-3 0.5,-3.5 -1,-3.125 -1.5,-2 -4.125,-3 -5.0938,-4.09375 -3.7812,-3.90625 -1.3125,-2.6875 -1,-2.5 -0.5938,-2 0.5,-2.5 2,-2 2,-2.59375 2.0938,-0.5 4.0937,-0.5 4.5,-0.59375 3.0938,0.5 2.5,0.5 2.7187,0.5 2,-0.625 2,-0.5 1.5,-1.5 1,-1.59375 1,-2.5 1,-1.5 1,-0.0937 1.5,0 1.5938,0.5 1,-1 -0.5938,-2 -1,-2.09375 -1.5937,-2 -1,-2.5 0,-2.5 2,-1.59375 1,0 1,1.5 0.094,2.09375 1,1.5 2,-0.59375 2.1875,-0.8125 2,-2 2.4063,-2.59375 0.5,-2 0.4062,-2.3125 -1,-1.5 -1.0937,-1.5 0,-2.09375 -0.5,-0.59375 -1.5,0.28125 -2.125,0.90625 -1.0938,-1 0.094,-0.78125 0.5,-1.21875 0,-1 -0.2813,-0.78125 -1.4062,-1.125 -1.5938,0.71875 -1.3125,1.1875 -1.5,1.09375 -1.6875,-1.09375 0.5,-1.28125 1,-1.5 1,-1.21875 0.094,-1.5 -1,-1 -3.5937,0 -2,0.5 -1.5938,0.0937 -0.5,-1 1,-1.59375 3,-2 1.5938,-0.0937 1,-0.5 1,-1 0,-1.5 -0.5938,-2.09375 -0.5,-3 -0.625,-5.59375 -0.094,-3.5 0.5,-2 0.5,-0.625 1.5,0 2.0938,0.5 1,0.5 1,-0.5 0,-1 -1,-1 -1.5938,-1.5 -1.5,-0.5 -1.5937,-0.5 -1.5,-1 -0.5,-1 1.5,-0.5 2.5937,0.40625 2,1 1.0938,-1.09375 -0.094,-0.6875 -0.9062,-1 -1.5,-1 -1.5,-0.625 -2.0938,-1.375 -1,-0.625 -2,-1.375 -1.5,-0.71875 -1.7812,-1.5 -0.7188,-2.09375 1,-1.1875 2.0938,-1.3125 0.5,-1.5 0,-0.0937 -1447.5,0 z"
     id="rect6"
     inkscape:connector-curvature="0" />
  <path
	 style="fill:#9FAEC0"
	 stroke="#9FAEC0"
	 stroke-width="10"
	 transform="translate(0, 75)"
     d="m 105.5938,844.5625 -0.5938,2.34375 -1.4062,5.6875 -3.0938,6.59375 -2.5937,4.21875 -4.5,3.90625 -4.0937,2.5 -3.5,2.59375 -3.625,2 -2.5,2.09375 -2.1876,2.40625 -2.5,2.6875 -0.6874,0.71875 -1.625,3 -2.1876,5.59375 -2.1874,5.5 -0.4063,0.90625 -1,2 -2.9063,3.375 -2.0937,2.125 -3.0937,2.09375 -1.5,1 -1.7188,1.28125 -2.4062,1.8125 -3.2813,3.09375 -3.0937,2.8125 -1.2188,1.09375 -3.6875,4.09375 -0.9063,3 -0.5,3.09375 -0.3124,1.40625 0,1.40625 -0.5938,3 -0.094,3.5 -0.094,3.3125 0.2813,5.375 -0.1876,6.8125 -0.6874,6.3125 -0.3126,3.1875 -0.5,2.59375 -1.5,4.09375 -2.5937,3 -2.5,3.625 -1.2187,1.6875 -1.375,1.8125 -2.4063,2.875 -2.2187,3.71875 -0.5,3 0,3.59375 0.2187,1.3125 0.4063,2.1875 0.5,2.59375 0,2.81245 -0.2188,5.5938 -0.4062,3.3125 -0.375,2.375 -1.8126,5.7187 -1.4062,4.1875 -5,12.9063 -5,12.5938 -3.5938,8.7187 -2,4.6875 -1.0937,2.4063 -1.7187,4.0937 -0.875,2.0938 -0.9063,3.4062 -0.3125,2.1875 -0.094,1.5 0.4063,2.9063 1,4 1.5937,2.5937 2.8126,2.8125 3.375,3.0938 4,2.0937 4,4.3125 3.7187,4.3125 0.4063,0.5938 2.5937,4.5 2.0937,5 0.5,6.1875 0.4063,2.5937 0.5937,2.9063 0,5.0937 -1.1874,4.5 -0.8126,2.125 -0.8124,2.375 -0.5938,3 -0.5,3.7188 -0.1875,2 -0.5,5.5937 0,3.0938 0.1875,1.8125 0.8125,4.5937 0.9063,4 0.375,1.5 0.3124,2.6875 1.0938,6 0.3125,4.625 0.4063,4.0938 0.2812,3 0,1.5 -0.5,4 -0.6875,4.0937 -0.2187,1.6875 -0.375,2.8125 -0.125,3.5938 0.8124,4 0.5938,3.5937 1,3 1.9062,7.125 0.1876,0.5938 1.5,6.5 1.5,4.0937 0.7187,1.6875 0.7813,3.8125 1.7187,2.3125 0.9063,1.2813 1.5937,2.5 3,3.5 1.1875,1.2187 1,0.875 2,3.125 1.4062,5.375 1.0938,3.125 1,3 0.75,3.9063 970.0625,0 -0.3125,-1.5313 -0.5937,-2.5 1,-2.0937 0.5,-1 1.5,-0.5 2.5937,-1.0938 3,-1 2,-1.5937 0.5,-1.5 1.7188,-2.9063 1,-2.5 1.5,-3 1.1875,-2.5 1.5937,-2.4062 4.4063,-5.2813 6.5,-5.125 5.0937,-3.5 2.5,-2.0937 2.5938,-1.5 2.625,-2 1.5,-2.0938 1,-2 -0.125,-3 0.5,-2.5937 -0.094,-3.5 0.5,-3.5938 0,-3 -1.0938,-2.5 0.1875,-3.5 0.2188,-2.2187 1.9062,-1.7813 1.6875,-1.2187 4,-1 2.5938,-2.0938 3,-3.5937 1.5,-3 0.4062,-2.5938 0,-3.5 0.5,-2.125 1.5,-1 1,-0.5 1.5,-0.5 1.5,-1.0937 0,-1 -0.5,-0.5 -1.5,-1 -3.5937,-1.9063 -2.5938,-0.5 -2,-0.5 -2.125,0 -1.5,0.125 -2,1 -1.5937,0.5 -0.5,-0.5 0,-1 0.5,-2.5 0.5,-2.125 -0.094,-5 0,-2.5 0.094,-2.6875 -0.5938,-1.5 -0.8125,-1.0937 -0.875,-1.8125 -0.5,-2.5 -0.625,-2.5 0.5,-2.5938 1.5,-2.5 1.5,-3.0937 2,-3.0938 1,-3 -0.094,-3 0,-2.625 0.5,-2 1.5,-2.0937 2,0 1.5,0.5 1.0938,1.5 1.5,1.5 1.625,1 1,1 1.5,-1 0.5,-1.5938 -1,-2 -1.625,-1.5 -1,-3 -0.5938,-2.5 0,-1.5 1.0938,-2.0937 1.4062,-0.5 2.2188,1.0937 2.5937,0.3125 1.4063,-0.7187 0.375,-1.5 0.125,-1.5938 0.5,-1.6875 0.875,-2.125 0.3125,-0.5 0.4062,-1.1875 1.5,-1.5 1.0938,-1.5 0.5937,-1.5937 -0.6875,-2.5 -1,-2 0,-4.0938 0.5,-2 2,-2.5 1.5938,-1.625 3,-1.5 2.5937,-1 2,-1.5 0,-1.5937 -0.5,-1.5 -2.0937,-1 -1.5,-1 -0.5,-1.5 0.5,-1 1.5,-1.5 2.5937,-1.0938 2,-1 0.9063,-1 1.5,-1.5 2,-2.5937 1.5,-3 0.5,-2.0938 0.5937,-2.125 -0.6875,-1.375 0.4063,-2.7187 1.0937,-1 1,-0.9063 2,-0.5 2.5938,-0.094 2.3125,0 2.0937,0.4063 1,0.094 1.5938,-0.5938 0.4062,-1.5 0,-1.4062 -0.3125,-1.5938 -1.0937,-1 -2.5,-1.5 -1.5938,-1 -2,-1 -0.094,-1 1,-1.5 1.5937,-0.5937 2,-0.5 2.5,-1.5 1,-1.0938 1,-2 0.5,-4.125 -0.094,-3 -1,-2 -1.625,-1.5 -3,0 -2,2.125 -1.5,1.5 -2.0938,1.0938 -1,0 -1,-0.5 -1.5937,-1.5001 -1.5,-4 -1.0938,-3.5937 0,-2 -0.094,-2.5 0,-2.625 0.7813,-2.6875 1.0937,-2 2.125,-2.4063 1.5,-1.99995 2,-1.09375 2,-1 1.5,-1.09375 1.5,-1.5 0.5,-1 0.5,-1.5 0,-4.59375 -0.125,-2 -1,-2.5 -0.5937,-1.625 -1,-1.5 -1,-2 -0.5938,-3 0,-2.5 0.9063,-4.09375 0,-3.5 0.094,-3.1875 -0.5,-1.8125 -0.6875,-1.5 -1.3125,-2 -1.4063,-2.1875 -1.5937,-1.5 -2.5,-2.90625 -2.0938,-3.5 -2.7187,-5.59375 -2.5,-5.5 -2.5933,-5.09375 -2,-4 -0.5937,-2.5 -1,-2.625 1.5,-4.5 1.5,-2.59375 0.9062,-2.09375 0.5938,-1.5 0.5937,-2 0.5,-2 0,-3 1.0938,-2.59375 1,-3.5 1,-2.59375 0.4062,-3 0.5,-2.5 0.5,-3.125 0.4063,-4.5 0,-3.09375 1.5,-4.59375 0.9062,-3 0.5,-4.09375 -1,-3.59375 -1.7187,-3.125 -1.5938,-2.5 -1,-1.78125 -1,-2.59375 -0.1875,-3 -0.4062,-5.125 0.1875,-0.625 -1001.0938,0 z"
     id="rect8"
     inkscape:connector-curvature="0" />
  <path
	 style="fill:#9FAEC0"
	 stroke="#9FAEC0"
	 stroke-width="10"
	 transform="translate(0, 50)"
     d="m 50.3438,1271.2188 0.25,1.375 0,4.3125 -0.5938,2.7812 -1.1874,4.5 -1.125,4 -0.5938,3.3125 -0.094,0.8125 0.094,3.2813 1,2.5937 2,3 1.5938,2 0.5,1.9063 0,3.2187 -0.5938,2.2813 -1.5938,2 -1.9062,2.2187 -2,2.0938 -1.5938,1.5 -2,2 -2.5,3.5937 -1.5937,2.5 -0.5,2.5938 0,1 0.2813,1.4062 -0.094,2 1.5,2.5938 1.8125,2.8125 0.5937,0.7812 1.5,2.125 1.9063,2.5938 1,1.5 0.5,1 1.0937,2.5 0.3126,0.5937 1,3 0.875,1.8125 1.5,2.875 2.125,2.7188 1.5,2.5 2.6874,3.4062 1,1.1875 3.5,3.0938 1.9063,3.7187 0.5,2 1.1875,4.2813 0.5,2.0937 1.5,5.4063 -0.094,4 -0.094,1.5937 -0.3125,2.125 -1.4062,3.2813 -1.5938,3.3125 -1.5,2.5937 -1.6875,2.5938 -0.9063,1.3125 -1.5,2.5937 -2.3124,3.6875 -0.7813,1.3125 -1.5937,4.0938 -1.4063,4.0937 0,2 0.1875,2.4063 -0.094,3 0.4063,3.4062 -0.5937,3.1875 -1.125,3 -1.2813,2.3125 -0.5937,0.8125 -1.5,1.5938 -3,2.1875 -2.125,1.5 -2.5,1.9062 -2.0938,1.5 -1,2.5 -1.5,3.0938 -0.6875,1.5937 -0.2187,0.8125 -1.0938,3.5 -1.0938,3 -1.5937,3.5 -1.7187,3.5 -1.5938,1.9063 -1.5938,2 -1.0937,2.4062 -0.5,3.5938 -0.7187,3.0937 -0.5938,2.9063 -0.7812,3.0937 -1,4.5938 -2.5,8 -0.7188,2 -0.2812,1.0937 -1.5,2 -1.625,2.5 -1.0938,2.8125 -1.0938,2.4063 -1,1.0937 -2.0937,2 -1.5937,2.4063 -1.125,2 -1.6876,3 -1,3.5937 0,2.5 0.1876,1.4063 0.625,2.0937 1.875,4.5938 1.9062,3 2.4062,5.3125 0.5,1.7812 0.1876,1.5 0,4.125 -1.5,3.0938 -2,2 0,1.9062 0.5,2.5938 0.7187,1.6875 0.2813,0.8125 0,2.5 -0.5,2.5937 -1.5,2 -1.5938,2 -1.5,3.5938 -0.1875,1 -0.094,1.5 -0.625,3.5 0.4062,3.5 1.5,3.0937 2.0938,2 3.125,2.5 1.0937,0.7188 1.4063,0.9062 4.5937,3.5 3.0937,2.5 2.5,2 3.0938,1 2,0.5 1.0938,0 0.9062,-0.2187 2.7188,-1.4063 1,-2 1.0937,-2 1.9063,-1.375 1.5,-1.625 0.875,-1.1875 0.4062,-0.6875 1.2188,-2.4062 -0.5,-1.5938 -1,-1.625 -0.5,-2.5937 0.5,-2.5 0.5,-1.5 0.5,-1 -0.125,-0.9063 -0.375,-1.6875 0,-4 1.5937,-2 2,-2.0937 1.5,-1.5 2.0937,-2.5 0.5,-2.5 -0.4062,-2.3125 -0.094,-0.7813 -0.094,-2.5 1.0937,-5.2187 1.5,-4.4063 0.1876,-0.6875 0.3124,-0.8125 0,-2.0937 2.5,-2 2,-0.5938 1.0938,-0.4062 3.0938,0.5 2,0 2.125,0.3125 1.375,0 4.2187,-0.3125 0.5,0.094 1.5,0.4062 3.0937,-0.4062 4,-0.5938 0.6876,-0.2812 0.9062,-0.2188 1.5,0 2.5,-0.094 2,0.5 2.0938,0.094 3.125,-1.4062 3,-0.375 1.0937,0 1,0.1875 2.5,2 1.5937,1 2,-0.5 2.0938,-1 2.5,-0.5 0.5,2.5937 0,1.5 -0.5,2 0.5,1 1,1.5 0.094,1 0,1.5938 -0.5938,1.5 -0.4062,1.125 0.5,1 1,0.875 1,2 3.3124,2.8125 1.8126,3.3125 0.5,4 0.5,3.2812 -0.5,3.8125 -0.5,2.5 0,1.5938 0.2812,1.1875 0.2188,1.3125 0,1.5 -0.4063,1.9062 -1,2.5938 -1.0937,2.0937 0,3.5 1,0.4063 1.5937,0.094 2.5,-0.5 2,0.094 1.9063,1.125 1,1 0.5937,1.0937 1.7813,2.4063 2.5,1.6875 4,2.0937 4,2.2188 2.125,1.375 4.0937,4.125 1.5,1.375 1.0937,1.125 1.5,2.5 1.5938,2.5 1.5,4.5 0.3125,4.0937 0.1875,1.4063 0.2188,1.1875 0.375,3 0.9062,3 1,2.6875 1.4062,3 0.5,3.125 -0.094,1.375 -0.7187,3.5 -1.5,3 -1,3.125 -1,3 0,3 0.5,3.0937 0,5.5 -0.1876,5.5938 -0.5624,13.375 703.9687,0 -0.90625,-2.6875 -2.09375,-3.0938 -2.71875,-2.7812 -4.09375,-3.5 -1.40625,-1.7188 -0.28125,-0.4062 -2,-2.2813 -0.21875,-4.0937 0,-3.125 1.625,-4.5 2,-4.0938 2.375,-3.7812 3.125,-5.625 3,-5 1.59375,-5.5938 1,-6.0937 -0.3125,-4.4063 -0.0937,-4.1875 -0.5,-4 -0.1875,-4.0937 0.5,-4 1,-4.125 1,-3.5 1,-2.5 2.09375,-3.0938 3,-2 2.59375,-2 5,-2.0937 8.09375,-4.0938 4.5,-3.0937 3,-2.125 2.8125,-1.7813 2.5,-2.5937 2.78125,-2.8125 1.40625,-2.5938 0.40625,-0.7187 0.6875,-1.875 0.40625,-3.2188 -0.59375,-2.5 -0.90625,-2.1875 -1.59375,-3 -1.59375,-4.0937 0,-2 1,-3.5 1,-2.3125 2,-3.0938 1.59375,-1.5 0,-2.5 -0.59375,-2.0937 -0.5,-2.5 0.90625,-1.2188 2,-2.0937 3.5,-2.1875 0.59375,-0.7188 1.1875,-1.9062 1,-2.5 1,-2.5938 0,-2.5 -0.5,-2 0,-2 0.5,-2.0937 0.5,-1 2.5,-2.5 2.59375,-5.0938 3,-5.5 1.5,-4.0937 1.40625,-3.5 0.59375,-2.625 -0.5,-2.5 -1,-3.0938 -1.28125,-4.5 0.1875,-6.5937 0.5,-5 0.5,-4.0938 1.09375,-3.5 0.90625,-4.0937 1.5,-2.5 1.59375,-2.125 5.5,-6.5938 4.5,-5.0937 3,-4.0938 2,-2.5937 1.8125,-2.7188 2.5,-2.0937 2.59375,-1.5938 4.09375,-2.0937 3.5,-2 5.125,-3 3.09375,-2.5 3.59375,-1 3.5,-2.125 2.59375,-1.5938 2.5,-2 2,-3.0937 2.5,-5.0938 2.5,-4.5937 2.5,-4 4,-4.625 3.5,-2.0938 2.09375,-1 2.5,-1.6875 1.21875,-1.2187 1.09375,-2.5 0.0937,-2.5 -0.1875,-2.5 -0.5,-3.0938 0,-2 1.5,-3 1.09375,-1.5937 1.5,-1.5 2.49995,-3 2.5938,-4.5938 1,-3 1.5,-2.5937 1.5,-2.5 2.5937,-2.5 1,-2.625 0.5,-3.5 -0.7812,-3.5 -1.0938,-3.6875 -0.7187,-2.9063 -0.5,-2.5 -0.5938,-2.0937 1.0938,-2 1,-3 1,-2.0938 1.5,-4 0,-5.0937 -0.5,-5.5 -1.5938,-4.625 -1,-6.0938 -0.6875,-2.6875 -0.625,-3.3125 0.2188,-4.0937 1.6875,-2.5 3.0937,-2 2,-0.5938 3,-1 2.125,-1.0937 1.5,-1 0.5,-2 0.375,-2.625 -0.5,-2 -1.5937,-1.5 -1,-2 -0.1875,-0.9688 -970.0625,0 z"
     id="rect10"
     inkscape:connector-curvature="0" />
  <path
	 style="fill:#9FAEC0"
	 stroke="#9FAEC0"
	 stroke-width="10"
	 transform="translate(0, 25)"
     d="m 149.9376,1697.875 -2.3438,54.3125 -0.9062,18.8125 -3.1876,125.8125 -0.094,4.2812 0,1.7188 -5.4063,137.0938 -1.9062,47.7812 -1.4062,36.8438 675.5937,0 0.40625,-0.625 1.125,-2.5 0.5,-2.5 -0.3125,-2.9063 -0.5,-2.5 -2.1875,-4.8125 -2.21875,-4.5 -4,-6.2812 -2.09375,-2 -1.5,-2.5 -1.09375,-3 -1.59375,-2 -0.5,-3.5938 0.5,-3 0.375,-3 0.71875,-4.625 0.28125,-5.5 0.125,-1.0938 -0.40625,-2 0.5,-3.0937 0.5,-3 0.5,-2.1875 1,-2.125 1.09375,-1.6875 0.90625,-1.3125 1,-2 0.5,-2.0938 0,-3 -0.5,-2.5 -1.59375,-2.2812 -1,-2.5 -0.625,-2.5 0.125,-1.8125 2.5,-3.5937 3.59375,-3.5 2,-2.0938 0.90625,-1 0.375,-1.8125 -0.0937,-3.5 -1,-2.8125 -0.5,-3.5 -0.6875,-5 1,-3.5938 1.5,-3.5 1,-3 1,-4.0937 0.5,-2.4063 -0.3125,-2.1874 -0.1875,-1.4063 -1,-3.5937 -0.5,-3 -1.09375,-3 -0.71875,-3.5938 0.59375,-2.625 0.3125,-1.0938 0.59375,-1.6874 0.90625,-3 0.8125,-2.2188 1.09375,-1.5 2.5,-1.5 3.59375,-3.0938 2,-2 3.59375,-4.0937 2.5,-4.5 2,-4.0937 4,-9.2188 0.90625,-3.5 1.5,-4.5938 0.8125,-4.0937 0.5,-3.5937 1.09375,-3.9063 1,-3.0937 2,-3.5938 2,-4.5 0.40625,-3.125 -0.5,-1.5 -2.125,-2.5 -2.59375,-2.5 -3.09375,-4.5 -1.59375,-4.5 0.5,-3.5938 0.6875,-4.0937 -0.40625,-2.0937 1,-2 2.125,-3.9063 1.5,-2.5938 1.5,-2 3,-3.5937 3.09375,-2.625 1.40625,-3 -0.5,-2 -1,-1.5 -2.125,-1 -2.59375,-0.5 -3,0.625 -3.59375,-1 -4.09375,-2.5 -2.09375,-3 -0.625,-3.5 -0.5,-2.5 -0.0937,-5.125 0.5,-4 0.3125,-3.6875 1.6875,-2.4063 1.5,-2.0937 2.5,-3.5938 1,-2 0.40625,-2 0.5,-4.5937 1,-3.5 0.40625,-4.625 0.5,-4.5 0.40625,-4.5938 0.5,-4.5937 1.375,-4.5 1.8125,-9.1875 2,-11.625 1,-4.5938 1.90625,-7.5937 0.59375,-3.8125 0.3125,-4 -0.3125,-3.7813 -0.0937,-3.5937 -0.8125,-2.8125 1.09375,-2.6875 2,-3.625 1.8125,-5.7813 2,-5.5937 0.5,-3 0.5,-3.5 0,-4.125 -0.5,-3.5 -0.0937,-0.3125 -703.9687,0 z"
     id="rect12"
     inkscape:connector-curvature="0" />
  <path
	 style="fill:#9FAEC0"
	 stroke="#9FAEC0"
	 stroke-width="10"
     d="m 134.6876,2124.5313 -0.1876,5.2812 -3.5,47.5 -2.9062,111.6875 -0.5938,17.9063 -0.1874,3.9062 -4.125,109.5 -0.5,10.5938 -5.5938,-1.5 -0.9062,12.5 -0.094,3.1874 0,4 -0.5,3.5938 0,3.5 -0.4062,2.8125 -1.5,2.8125 -0.5938,0.5 -1,1.5 1.8125,11.1875 2.4063,13.4063 4.6874,22.0937 3.9063,18.4063 2.6875,0.1874 3.8125,0.3126 43.5937,1.6874 112.5938,4.0938 43.90625,1.3125 76.09375,2.0937 18.40625,0.5 52.3125,1.4063 191.5,6.0937 125.59375,3.4063 -1.09375,-1.9063 -2.40625,-4.4062 -4.90625,-7.5938 -3.6875,-6 -1.125,-3 -0.5,-3.0937 -0.0937,-3 -0.5,-3 -1,-3 -1.5,-3.5937 -2.09375,-3 -3.59375,-2.5 -2,-2.5 -2.21875,-2.0938 -1.59375,-1 -1.78125,-0.4062 -2.125,0 -2.5,0.5937 -1.59375,1.9063 -2,1.5937 -2.59375,2.5 -1.6875,0.4063 -1.90625,-0.7188 -0.5,-1.5 -0.71875,-2 0,-2 2,-2 0.3125,-2.2812 -0.0937,-2.5938 -0.5,-3.125 -0.90625,-3.0938 -0.5,-1.5 -1.5,-2 -1.59375,-2 -2.09375,-1.5 -2.5,-1 -3.125,-3 -3.1875,-3.5 -2.5,-2.5 -1.5,-3 -2.59375,-4 -2.09375,-3.5 -2,-6.0937 -2.625,-8.0937 -1.5,-6 -1.09375,-2.5938 -0.5,-3.5 0,-4 0.5,-5.625 0,-5 -0.5,-2 -1.09375,-2.5938 -1,-2.5 -1.5,-3.5 -1.3125,-3.4062 -1.1875,-3.6875 0.0937,-3.5 -0.1875,-5.0937 0.5,-4.5 1,-3.5938 1,-4.5 1.5,-3 1.5,-2.125 3.59375,-2.5 3.09375,-2.5 3,-2.5938 1.40625,-3 2,-3.5937 1,-2.5 1,-3.5 0.1875,-3.0937 0.71875,-3.5 0.5,-2 0.5,-1.5938 1.5,-2.5 1,-2.625 -0.0937,-3 -0.5,-3 -0.125,-3.5 -1,-2 -0.0937,-3.5938 0.5,-3 0,-2 -0.59375,-3.0937 -1,-3 -0.59375,-2.5 -1.3125,-3.5 -0.78125,-2.5 0,-2.0937 0.875,-3.5 1,-2 2.625,-1.5938 2.5,-2 2.5,-1.625 2.59375,-1.5 2.5,-1.0938 4,-0.7812 6.09375,-2.125 6.1875,-1.5 6.125,-2.5 2,-1.5938 1.59375,-1.5 4.5,0 1.59375,-0.5 1.5,-1 3.5,-2.5937 1,-2 1.5,-2.5937 1,-2.5 0.5,-2.5938 -0.0937,-2.5 -0.3125,-2.125 -0.40625,-1.0938 -0.28125,-1.7812 -0.3125,-2.125 0.71875,-2.0938 1.5,-1.9062 1.5,-1.5 1.5,-1.0938 2.09375,-1.5 2,-1.0937 2,-1 2.5,-0.8125 2.5,-4.0938 0.5,-2 0,-2.5 -0.5,-1.7812 -1.09375,-2.5 -2.5,-2 -4.21875,-3 -3.59375,-3.4062 -2.09375,-4.5938 -0.40625,-5.5 0.0937,-4.125 0.5,-2.5938 0.59375,-2.4062 0,-3.0938 -0.59375,-2.5 -1,-2.5 -1.59375,-2.5 -1.5,-3 -0.59375,-3.5 0.5,-2.5937 1,-2.5 2,-1.5 2.5,-2.0937 3,-3.0938 4.1875,-3.9062 L 805,2164.5 l 0.5,-0.6875 1.3125,-2.5 1,-3.5 0.6875,-2 0.3125,-2.125 -0.5,-3 0,-3 -0.625,-3.0938 -1,-3 -0.5,-3 -0.5,-2.5937 0,-3 0.5,-2.5 1,-1.5 1.5,-2.0937 1.59375,-2.375 -675.59375,0 z"
     id="rect14"
     inkscape:connector-curvature="0" />
</svg>
