<?xml version="1.0" encoding="UTF-8" standalone="no"?>
<svg
   xmlns:dc="http://purl.org/dc/elements/1.1/"
   xmlns:cc="http://creativecommons.org/ns#"
   xmlns:rdf="http://www.w3.org/1999/02/22-rdf-syntax-ns#"
   xmlns:svg="http://www.w3.org/2000/svg"
   xmlns="http://www.w3.org/2000/svg"
   xmlns:sodipodi="http://sodipodi.sourceforge.net/DTD/sodipodi-0.dtd"
   xmlns:inkscape="http://www.inkscape.org/namespaces/inkscape"
   width="5919.875"
   height="3855.5938"
   viewBox="0 0 5919.875 3855.5938"
   id="svg2"
   version="1.1"
   inkscape:version="0.48.1 "
   sodipodi:docname="AJAX.svg">
  <metadata
     id="metadata20">
    <rdf:RDF>
      <cc:Work
         rdf:about="">
        <dc:format>image/svg+xml</dc:format>
        <dc:type
           rdf:resource="http://purl.org/dc/dcmitype/StillImage" />
      </cc:Work>
    </rdf:RDF>
  </metadata>
  <defs
     id="defs18" />
  <sodipodi:namedview
     pagecolor="#ffffff"
     bordercolor="#666666"
     borderopacity="1"
     objecttolerance="10"
     gridtolerance="10"
     guidetolerance="10"
     inkscape:pageopacity="0"
     inkscape:pageshadow="2"
     inkscape:window-width="1280"
     inkscape:window-height="1004"
     id="namedview16"
     showgrid="false"
     fit-margin-top="0"
     fit-margin-left="0"
     fit-margin-right="0"
     fit-margin-bottom="0"
     inkscape:zoom="0.097357373"
     inkscape:cx="3562.0281"
     inkscape:cy="2690.0732"
     inkscape:window-x="-8"
     inkscape:window-y="-8"
     inkscape:window-maximized="1"
     inkscape:current-layer="svg2" />
  <path
	 style="fill:#9FAEC0"
	 stroke="#9FAEC0"
	 stroke-width="10"
	 transform="translate(0, 125)"
     d="m 5689.6875,0 -95.7813,3.4063 -199.6875,7.5 L 5348,12.5938 5047.5,23.9063 4980.3125,26.0938 4869.9062,29 l -36.0937,0.5938 -205.3125,4.5 -95.7812,2.2188 -68.3126,1.5937 -63.1874,1.5937 -32.5938,0.5 -120.4062,2.6876 -8.5938,0 -334.7188,3.625 -129.9062,1.375 -15.5938,0.5 -31.5937,0.5 -32.0937,0 -94.9063,0.9062 -84.3125,0.9062 -627.1875,-2.6874 -104.9063,-0.4063 -10.5,0 L 2698.125,46.5 2454.8125,43.4063 2401.125,43.0938 2251.5,41.8126 l -18,-0.125 -16.0938,-0.5938 -70.6874,-1.4062 -55.2188,-2.875 -32.0938,-1.7188 -5.5,-0.5938 -91.7812,-2.5937 -460.5,-14 -0.125,5.0937 2.9062,4.6876 1.5,5.125 0,3.0937 2.9063,2.5937 5.5,4.6876 1,1.5 0.5,3.125 0.5,1 1.5,0 1,1.0937 0,1 -1.0937,11.2813 -2.5,0 -2.0938,1 -3.5,2.625 -2,1.5 -1.5,-1 -8.5,-3.7188 -17,-10.4062 -2.5,-3.0938 -0.4062,-2.0938 0,-2.0937 0.5,-2 2.5,-2.5937 2.5937,-2.5 1,-0.5 3,-1 2.5,-1.625 0.5,-2.5 0.094,-3.0938 -1.5,-0.5 -0.5,-0.5 -1.5937,2 -1,2 -3.5,2.0938 -1.5,1 -2.5937,2.5 -2,1.125 -1.5,1 -3,4.5937 -0.5938,1 -0.5,4.5937 -1,2.0938 -3.125,3.5938 -2.5,1.5 -1,1 -2.5938,4.625 -2,1 -1.5,0.5 -1,1 -1.5,4.6874 -1.5937,2.5 0.5,1.5938 0.5,2 -0.5,1.5938 -1.5,1.5 -0.5937,1.5 0.5,2.625 3.5,2.5937 5,4.1875 6.5,3.0938 3.5,1.625 3.5,0 4,-1 3,-2 2.0937,-2.625 3,-1.5 1,-2.0938 -0.5,-1 1.5937,-0.5 2.5,-1 6.5,4.2188 5.4063,5.6874 2,3.0938 1,3.5938 0.9063,5.625 -1.5938,11.2812 -3.5,2.5938 -4.625,2 -4.5,1.5 -2.5,1.5 -6.5938,7.7187 -2,2.5937 -3.0937,1.5 -4.5,-0.5937 -2.5,0 -1,1 0.5,2.0937 2.4063,5.6876 3.5,3.625 4.5,4.0937 15.9062,14.5937 5.5,6.6876 2,1.5 2,1.625 3.5,1.5937 5.5,4.5937 4.5,2.0938 3,3.5938 2.375,4.2187 1,3.0937 1.9062,10.3126 0.9063,10.2812 -0.5,7.0938 -0.094,4.2187 -0.5938,8.6875 0,4.5938 -0.625,7.2187 0,8.1875 0.5,2.0938 0.9062,1.5 2,0.125 3.5938,-1.625 2,-1 -0.5,-1 -1.5,-1.5938 -1,-1 0.5,-3.0938 -0.375,-2 -1,-2.5937 -0.5,-2.5937 1,-1.5 3,-1 2,0.5 1,1.5937 1,1.5 2,0.5 2.0938,-1.5 4,0 2.5,-0.5 0.5,-0.5 4,5.1875 2.9062,5.7188 1.5,3.5937 3,1 1,1.5937 1,1 2,-0.5 0.5,0.5 1,2.5938 1.5,0.5 2,-1 2.5,1.0938 1.5,2 -1,2.625 -1.125,2.0937 0.5,2.5 0,1.5937 -2,4.0938 -4.5938,7.5938 -2.0937,5.7187 -2.5,4.0937 0,2 -1.0937,2.0938 -0.5,0.5 -2,1 -1,2.5938 -3.5938,9.2187 -1.625,4.5937 0,2.5938 1.5,1 1,1 1,-0.5 2,-0.5 0.5,0.5938 1,0 1,3.125 0,2 1.5,1.5937 0.5,3.5937 0.4062,2 2,2.0938 1.5,2.0938 0.5,2 2,0 4.5938,-8.6876 5.125,-10.1874 0,-1 1.5938,-2.625 16.6874,-20.375 3.5938,-3.125 0,-2.5938 0.5,-3 1.5,-1.5938 2.5,-0.5 2.625,-3.5 1,-2.0937 0,-2 -0.5,-2.0937 1.0938,-0.5 2,1.5937 0.4062,0.5 1.5938,-2.0937 2,-1.5 0.5,1 0.5,1.5937 2.5,0 2,-1.5 1,-2.0937 0.094,-2 0.5,-1.625 1,0 1,-0.5 0.5,0.5 0.5,3.625 1,0.5937 1,-0.5 1,-1.5937 0.5,-1.5 -0.5,-1 0,-1.125 2,-0.5 1,0.5 1,1.625 3,0 2,-0.5 2,2.0937 2.5,0.5 4,1.5937 2.5937,-1 1.5,0.5 2.5,1.0938 3.9063,5.0938 3,2.625 2.5,3.0937 2.5,1.0937 1.5,0 4,2.5938 1,4.0938 1,2 4,1.125 1.5,-0.5 2,1 1.5,0.094 1,0.5 2.5,2.0937 -0.5,1 0.5,1.5 1.5,0 1.5,-0.5 1,-1 0,3.0938 1,2.5938 0.5,2.5 -0.5937,1.625 -2.5,-1.125 -1,0 -0.5,2.125 1,1.5 0.5,1.0937 -2.5,1 -1.5,0 -1,2 1.4062,1.5937 0,1 0.5,0.5 -2,2 -1.5,0 -1,1.0938 -1.5,3 -1.625,4.5938 -0.5,4.125 -1.5,1.0937 -4.0938,0.4063 -1.5,0 -2,2.0937 0,1.5 -0.5,2.0937 0,1 -2.0937,1.5 0.5,2.5938 2,4.0938 1.5,3.625 0,2.5937 -0.094,1.5 3,7.7813 1.5,4.125 1.5,2 2.5,0.094 -1,-1.5937 0.5,-1 -1,-1 -1.5,-3.125 0,-2.5938 1,-1 3.5937,0 2.4063,3.5938 1,3.625 1.5,7.1874 0.4062,5.6876 0.5,4.125 -0.625,4.5937 -1.5,3.5937 -1.5,2 -2.5,-0.5 -1,1.5 0.4062,2.5938 0,1 -2.5,0 -1.5,-2.5938 -1,-2 -2.5,-1.5937 -2.5,0 -0.5,3.0937 2.5,4.5938 1.5,2.5938 1,1.5 1.4063,2.625 2,1.5937 2,0.5 2.0937,0 1,1.0937 1,1 0.4063,2.5938 1.5,3.5938 2.5,3.125 6.5,6.1874 4.9063,7.1876 5.5,5.2187 2,1.5 3.5,2.0937 1.5,1.5938 1.5,1.5 2.5,1.0938 2.5,1.5 0.5,3.125 0,2.0937 2,1 1.5,1 0.5,0.5937 0.5,2 1,2.5938 2.5,0.5 0,1.5938 0.9062,2.5 1,2.125 1.5,1.5 2,0.5937 0.5,1.5 0,4.5937 -1,1.5938 -1,0 -0.5,1 -1.625,4.0938 -1.5,4.125 -0.5938,2.5 0,2.5937 -1,2.5937 -3.5,2 -2,0.5 -1.5937,1.5 -0.5,2.0938 1,1 1,0 -1.5,1.5938 -5.0937,2 -0.4063,-1.0938 -1.0937,0.5938 -0.5,1 -1,2.5 -2,2.125 -2,0.5 -2.5938,0.5 -1.5,2 -1,1 1,1.5937 4,1 1.5,1.0937 0.5,1 -1,1 -4,-1 -2.5,-1.5937 -2.5,-2.0937 0,1.5937 -2.5,0.5 -3.125,-1.5937 -2.5,-1.5 -2.5,-0.625 -0.375,-2 0,-1.5938 -1,-1.5 -0.5,-4.0938 0,-1.0937 -5,-3.0937 -0.5,-3.625 -1,-0.5 -21.625,-0.6876 -2.5,-1.5 -3.5,0 -3.5,-1.0937 -0.5,-1.5 -2,-1.5937 -2,-0.5 -2.5,-0.625 -1.5,-5.0938 -1,-2.5938 -1.5,-0.5 -1,0 0.5,1 -1.5,2.5938 -1,1 -1,0 -0.5,1.5 1,1.5938 1.4062,3.125 0,1 -1.5,0.5 0.5,3.5937 1,0.5 2,-0.5 0.5,-1 -0.5,-2.0937 2,-0.5 2.0938,0 0.5,1.0937 0.4062,2 5.0938,-0.4063 1.5,0.5 2.5,2.5938 7,5.7188 3.5,1.5 5,1.5937 6,0.5937 1,0.5 1.5,3.5938 2,3.0938 0.9062,4.125 -1,4.5937 1,2.5937 -0.094,4.5938 1,3.0938 2.5,2.625 1.5,1.5 1.5,1.5937 0.5,-0.5 0.5,0.5 0,5.5937 2,2.5938 0.9063,2.5938 -0.5,4.125 1.5,1.5 2.5,0.094 2.5,1 0,1 -2,0.5 -3,0.5 -3.0938,4.5937 -0.5,2.0938 1,2.5 1,2.5938 -2.125,11.8124 2.9062,9.8126 2,6.1874 0.4063,2.5 2,1.5938 3,2.0938 1.5,2.5 0,1.125 -1,1.5 -0.5,1 0.5,1 0.5,2.0937 -2,2 -1.0937,1.5937 0,1.875 4017.4062,0 -6.5,-164.5624 -0.125,-2.5 -2.375,-88.4063 -0.4063,-14.9063 -4.8125,-175.6874 -0.094,-5.9063 -2.8438,-106.7187 -1.7812,-64.1876 z m -4352.4687,249.5 -1.0938,2 1.5,1.0938 5,4.0938 6,2.125 4,0.094 3.5938,-1 1.5,-2.0937 0,-1 -0.5,-1.5 -2,-0.125 -2,0.5 -3,0.5 -3,-1 -3,0.5 -2.5,-2.0938 -3.5,-1.0938 -1,-1 z m 45.5,22.5 -2.5938,1 -2.5,0 -2,1 -3.5,2.5 -0.625,2.0938 1,0.5 1.625,-1 1,-0.5 1.5,2 1.5,0.5938 1,-1.0938 -0.5,-2 2.5,-1 1.5,1 2,1.5938 3,-0.5 3.5,0.5 4.5,2.125 2.0938,-0.5 3,0 2,1.0937 1,-1 -1.5,-1.0937 -1.5,-1 -3,0 -2,1 -0.5,-2.625 -2.5,-1.0938 -3,-1 -4.5,-1.5938 -1.5,-1 -1,0 z m -10.2188,10.1876 0,2.5 2,2.125 1.5,3.0937 1.5,0.5 2,0.5937 1,0 1,1 -2.0938,1 -3.5,-0.5 0,1.5 2.5,0.5 3.5,1.0938 3,2.5938 4,1.625 0,-2.125 -1.9062,-1.5 -3,-1.5938 -1.5,-1.5938 1,-1 3,-0.5 0.5,0 1,3.0938 3.5,2.5938 1,2.125 3,-0.5 2,-2 -1,-3.125 -3,-2.0938 -3.5,-3.5938 -1.5,-0.094 0.5,2.0937 -1.5,-0.5 -2,-2.5937 -4.5,-3.0937 -0.5,-0.5 -1,-0.125 -0.5,1.125 -2,1 -1.5,-0.5 -1,-1.625 -2,-1 z m 58.2188,14.3124 -1.5938,0.5 0,1 -2,1 -1,-0.5 -1.5,1 0,1.0938 1.5,1 2,0 2.5,1.0938 2.5,3.125 2,0.5 2,-1 0.5,-1.5 1,0 1,-0.5 0,-1.125 0.5938,-1 -1.5,-1 -1,0 -2.5938,-1.0938 -1.4062,-1 -3,-1.5938 z m 90.7812,5.3126 -0.5,2.0937 -0.5,2 -1.5938,6.1875 -3.0937,7.7188 0,3.0937 2,2.5 -3.0937,4.5937 3,3.1876 0,3.5 1,2.625 5.5,-0.4063 4.5,0 2.5,1 0.5,2.0937 4.5,2.5938 2.5,1.5938 2.5,7.7187 2.4062,8.1875 4,4.7188 -0.5,2 0.375,4.0937 2.5,7.1875 3.5,0.094 0.5,1 16.4062,21.7187 3,2.5937 1.5,3.5938 3.4063,3.5938 5.5937,0.625 4,0.5 2.5,4.0937 4.9063,6.7813 1.5937,-1.5938 0,-3 -1.5,-1.5938 1,-2.5937 -0.5,-4.0937 -2.4062,-4.125 -1.5,-7.6876 -1.375,-5.1874 0.5,-3 -1,-2.125 -1,-0.5 -1.5,1.5 -2,-0.5 2,-3.0938 -3,-6.1875 -0.4062,-0.5 -0.5938,2.0937 -0.5,-0.5937 -2,-0.5 -1.5,-2.0937 -1.9062,-4.125 -2.5,-4.5938 -3.5,-3.5938 -5.5,-2.0937 -4,-1.5937 -1,-3.125 -1.5,-0.5 -1,1 -2,-3.5938 -2.9063,-6.1875 -2.5,-5.7187 -3.5,-2.5938 -2.5,-2.0938 1.5937,-5.5937 -4.5,-6.2187 -3,-5.6876 0.094,-6.0937 -5.5,-3.7187 -2,-1.5 -0.5,-3.5938 -6.5,-4.1875 -0.5,-1.5 -2,-0.5937 -1,0 z m -216.6875,20.375 -4,0.5 -4.5,0.5 -1.5937,2 -2.5,2 -5,1 -2.5,-1 -1,-0.5 -3.5938,1.5 -2,4.625 -0.625,3.5937 -2.5,3.5 -4.5,1 -6.0938,2.5937 -5.5,1.5 0.5,1 2.5,1 5.5,0.5938 8.5,2.0938 2.5,3.125 4.5,3.6874 0.4063,4.5938 -2,4.0938 -3.5937,5.625 0.5,1.5 6.5,-1.4063 18.6874,-10.7187 1.5938,-3.5938 0.5,-4.5938 -0.375,-4.5937 -2.5,-2.5937 0.5,-1.5 2,-0.5 2,0.5 0.5,-0.5 1.0938,-1.5 -1,-1.625 -2.5,0 -0.5,-2.5938 0,-2.5938 0.094,-6.0937 1,-3.5937 0,-1.625 -1,-1 z m 83.3125,11.5 -6.5,1.5 -6.125,-0.094 -3.5,0.5 -4.5,1.5 -4,0 -4.5938,1.5 -6,-1.5938 -3,0 0.5,1.5 3.5,2.0938 -0.5937,4.5938 -2.5,6.7187 -2.5937,4.0937 -4,1.5 -4.0938,1.5 1.5,2.5938 0.5,0.5 0,2.5938 -4.625,3.5 -4,2 -7.0938,4.625 -4,2 0.5,1.5937 -3.5937,3 0.5,2.5937 -3,2 -4.5937,3.0938 -2.5,3 -6.5938,4.0938 -4.125,5.625 0.5,5.0937 -7.6875,11.2813 -4,3.5 -1,1.125 -2.0937,2.5 1,8.1874 0.4062,2.5938 0.5,5.7188 0.5,1.5 2,2.0937 2,1 1.5,0.5 4,-2.5 2,-2.5 2.5938,-0.5 0.5,-1.5937 0,-5.625 2.5,0 1.0937,-1 -1,-8.1876 1,0.5 2,0.5 0,1.5 -0.5,2.0938 0.5,3.0938 1.9063,5.625 0.5,4.1874 2,4.5938 1.4062,1 -0.5,1.0938 0.5,3.125 2,3 -1,1.5937 -0.5,0.5 -3.125,1 -3.5,1.5 -3.5,0 -1,2 1.5,2.5937 0.4062,1.5 3.0938,0.094 3,1 4.5,-1 0,-2.5 -2,-2.0938 2.625,-4.0937 2.5,0.5 4,1.5937 1.5,-0.5 1,-3.5937 -0.9062,-4.0937 -2,-1 0,-2.125 1.5,-2.5 0.5937,-2.0938 -0.5,-1 -0.5,0 1,-3.0938 -1.5,-1 -2.5,-0.5937 -0.5,-2.5 -2,0.5 -0.5,-3.0937 0.5,-2.125 0.5937,-1.5 1,0 0.5,-1 -1,-2.5938 -2.5,-0.5 -2,-1.5938 -0.5,-1.5 0.5,-1.5937 2,-1 0.5938,-1.5 0.5,-2.0937 1.5,-3.125 3.5,0.625 1.5,2.5937 0,1.5 1.5,1 0.5,0.5937 1,2.5 2.5,2.5938 0.4062,2.0938 2,1.625 4.5938,-1.625 1.5,-0.5 2,-1 1,3.125 1,1.5937 0.5,2.5 3,0.094 1.5,2.5 -2,-1 -1.5938,3.0938 1.5,3.0938 -3,-0.094 -1.5,1.5938 2.9063,3.625 1.5,3.0937 -1,3.5937 1,3.0938 -2,-0.094 -1.0937,2.0938 2.5,2.0938 1,3.625 2.5,2 3,-0.4063 3,-0.5 2,0 0.5,1.5 -0.5,2.0937 0.5,1.5 1.5,1.0938 1.5,0 0.5,2 2.5,-1 -0.5,-2 3.5,1.5 2.5,1.5938 2.5,1 0,-1.5 6.5937,-1.5 -0.5,-2 1,-2.0938 3.5937,-0.5 -0.094,1.0938 -2,0.4062 -0.5,1.5938 2,0.5 1.5,2.125 0.5,2 4.5,-1.5 1,3.0937 4,-1 0,-1.5 -0.9063,-2.0937 1,-1.5 1.5,2.5937 1.5,1 2.5,-1.5 2.5,-0.5 2,-2.5937 1.0938,-1.5 -0.5,-2.625 3,-0.375 2,-0.5 -0.5,-1.625 0.625,-2 1,-2.0938 0.5,-2 -1.5,-1.0938 -0.5,-1 1,-2.0937 1,-0.5 -3,-2 -2.4062,-3.0937 -1,-3.125 -2.5,-1.0938 -1.5,-2.5938 0.5,-1.5 -1,-4.5937 -1,0 -1,-1.0937 1.0937,-1.5 -0.5,-3.125 -1,-1 -0.5,-2.5938 -0.5,-3.0938 -4.4063,-4.0937 -2.5,-3.0937 -3.5,-3.125 -2.5,-0.5938 -3,-1 -2,-3.5938 -2.4062,-12.4062 0,-3.5938 0.5,-1 1.625,-1.5 0,-2.5937 -1.5,-3.0937 -2.5,-2.625 -1,-3.5938 0.094,-2.5 0,-1.0938 -3.5,-2.5937 0,-2 2,-0.5 1,-0.5 -0.9063,-2.0937 2.5,-0.5 2,-1 2,-1.5 1.5,-1 0.5,0 2.5,3.0937 1.5,0 1,1 1,0 -0.5,-3.0937 0.5937,-3.625 3.5,1.625 5.5,3.6874 2.9063,5.5938 1,3.0938 -1,2.125 1,1.5 0,2.0937 -0.5,1 -0.094,1 -1,3.5937 -0.5,1 1,1.5938 0,3.0938 -1.0938,4.125 0.375,10.1874 4.4062,10.3126 0.5,3.0937 2,0.5937 1.5938,-2.5937 0,-1 1.5,0 1.5,1.5 1.9062,5.6875 2.5,3.0938 1.5,2.125 3.4063,8.1874 1.5,1.5938 0.5,1 -1,1 1,2.0938 1.5,2.125 2,0 1.5,2 1.5,0.5937 1,0 0.5,2 3,-1 2,-2.5 1.0937,-1 0.4063,2 -0.5,2.5937 1,2 1,2.5938 -2.0937,9.2188 -1.0938,3.5937 1,2.0937 2,-0.5 1.5938,-1 0.5,0 0,2 0.5,0 1,-0.5 0.5,-2 2,-0.5 0.5,-1 -0.5,-2.0937 2.0937,-1.5 1.5,0 1.5,1.5 2.5,0.094 1.5,1.5 -0.094,2.0938 4.0937,0 0.5,1 0.5,0.5938 1,-1.0938 -0.5,-2 -1.5,-4.6875 -2.4063,-7.2187 -2.5,-3.0938 0,-2 7.0938,-7.6875 0.5,-2.5 1.625,-1.5937 -1,-3.125 3.5,-1.5 3,1.125 1,-1.625 -0.5,-1 3.5938,-1 1,0 -1.5,-3.0938 5,-2 0,1.5938 1.5,0.5 2.0937,-2.0938 2.5,0.5938 2.5,-1 3,-4.5938 6.0937,-4.5938 1.0938,-4.0937 0.5,-2.0937 3.5,-2 4,-1.5 1.625,-1 -1.5,-1.625 -6.5,-4.5938 -14.125,-4.7812 -7.375,-4.625 -4.125,-1.5938 -3,-2.0938 -0.875,-1 -1,-1.5937 -4,-1.5937 -3,-3.625 -4,-4.0938 -4,-1.5938 -2,-3.0937 -2.5,-1 -14.5,-10.9063 -6.5,-2.6874 -5,-3.125 -4,0.5 -3.5,-0.5 -4,-5.1876 -2.5,-2.0937 -4,-0.5 -5,-1.0937 -2,-2.125 -3,-1 z m 199.5,1 -1.625,1.5 2,0 2,4.2187 4,2.5937 -1,2 -0.5,2.0938 0.4062,5.0938 -1.5,0 -4,-2.0938 -6.5,-4.0938 -4,2 -3,-0.5937 -2.5,-3.5937 -3,0.5 1,1.5937 4.9063,8.1875 6,8.3125 2.5,0 3,3.0937 7,0.5938 4.5937,-3.5938 3,-4.0937 L 1600,353.8126 1596.5,342 l -3.375,-3.6874 -1,-1 -2.5,-2.625 -2,0 z m -107.7188,11.5 -0.5,1 0.5,3.625 1,2.5937 0.4063,3.0937 1,3.5938 1,1 1.5,-0.5 -0.5,-1 -0.9063,-2.5938 -0.5,-4.0937 0,-2 -0.5,-2.5937 -1,-1 -0.5,-0.625 -0.5,-0.5 -0.5,0 z m -338.6874,6.5 -4.5,2 -0.5,1.5 0.4062,2.625 4,3.5937 0,5.1875 5,1 2,1.5938 0.875,4.625 2.5,2.5937 6,3.6875 7,3.0938 6.5,2.125 1.5,2.5937 1.5,0 2.5,-2 0.625,-4.0937 0,-2.125 -2,-1.5 -1.5,0 -1,-0.5938 -1,-1.5 -3,-2.0938 -2.5,-1 -2.5,-2.0937 -2,-0.5 -2,-2.0937 1,-0.5 2.5938,0.5 15,5.2812 5.5,3.0938 0.4062,3.625 1,2.0937 2.5,-1 -0.4062,-3.0937 -2.5,-4.2188 1.5,-2.5 2,1 1.5937,-3 -3.5,-0.5938 -3,-3.5937 -1,-2.5937 -1.5,0 -4.5937,3.5937 0.5,1.5 0,2.5937 -1.5,-0.5 -11.5,-4.8124 -2,-1.5 -3,0.5 -1,-3.5938 -0.5,-2.5938 1,0 2.0937,-0.5 -0.5,-1.5 -1.5,-3.0937 -4,-0.5937 -4.5937,0.5 -4,-1.125 -4,0 z m 51.5937,21.5 -2.5937,0.5 -1.5,1.5 1,1.625 1,2 4,1.5937 3.5,2.0937 4,3.5938 4,2.0938 3,1.125 1,-0.625 -1,-2 -2.5,-2.0938 -1.5,-2.0938 -3,-0.5 -1.5,-1.5 0,-1.5937 -3.9063,-3.0937 -1.5,-2.125 -2.5,-0.5 z m -0.3125,24.125 -3.5,1 -2,1 2,1.5937 5,2.0937 8.5,4.6876 13.5,7.8124 7.5,2.5938 5,0.094 0.5,-3.0938 -2,-0.5 -2,-1.0938 -2,-1 -1.375,-3.5937 -3.5,-2.5937 -5,-1.625 -6.625,0 -5,-1.5938 -5,-4.1875 -1.5,-1 -2.5,-0.5937 z m 422.125,5.375 -1,0.5 -0.5,0.625 0,3 -0.625,2.5937 -1.5,2.5937 -1.5,-0.094 -0.5,1.5937 2,0.5 2,0 2.5,-0.5 0.5,2.0938 -0.5,3.0938 1.5,0.5 2,-0.5 0,-1.5 -0.5,-2.0938 -1.5,-2.0938 0.125,-4.0937 -0.5,-1 -2,-3.0937 0,-2.125 z m -414.8125,24 -3.5937,1.5 0.5,1 -1,4.125 -1,0.5 -1.0938,2.0937 -0.5,1 -0.5,2 1.5,1.0937 2,0 1,1 -0.5,2.0938 -2.5,0 -4.125,0.4062 -3,2.0938 -1.5,2.5 -0.5,1.5938 0.9062,2 0.5,2.125 -2.5,1.5 -2,0 0.5,2.5937 -2.0937,3 0,2.5937 2,-1 1.5,-2.5937 3.5937,-1 0.5,-3 1,-1.5937 3,-0.5 2.5938,1.0937 2,-1.5 -0.5,-1.5937 1.5,-1.5 1.5,-2.125 1.625,-3.5 0,-1.0938 1.5,-0.5 1,0.5938 1,0.5 -0.5,1 -0.5,1.5 1,1.625 2,2.0937 0.5,0.5 -1.625,2 -3,3.0937 -1,2 -1.5,-0.5 -1.0938,0.5 0.5,1 1.5,0 0,1.5938 -0.5,0.5 -1,0.5 -3,0.5 -2,0 -0.5,-0.5938 -1.5,-1 -0.5,2.0938 0.9063,3.5938 0.5,1.5 1.5,0.5 0.5,3.125 2,2.5937 0,1.5 -0.094,1.5937 -3,-2.0937 -0.9063,-1.5 -1.5,-1.0937 -0.5,-0.5 -1,0 -2,-0.5 -0.5,-2.125 -1,-1.5 1,-2.0938 1,-1.5 -1.5,0 -2.5,1.5 -1,0.5 -2,0 -0.5,1 0.9063,2.0938 -0.5,3 -1,1.625 -1.5,2.5 0.4062,2.0937 2,1.5 1.5,1.0937 0,2 1,1.0938 1,-0.5 1.5,2.5 2.5,-3.5 2.0938,-2.5938 2,-2 1,0.5 -0.5,3.5938 -0.5938,2 -0.5,3.0938 -2,1.5 -2.5,-0.5 -4,0 -2,-2.0938 -1.5,-1 -1.5,0.5 -2.625,3 0,4.0938 0.9062,5.7187 3,7.1875 0.4063,2.5938 1,1.5 2.5937,-0.5 1.5,0.625 -1.0937,1 -0.5,1 0.5,5.0937 1,1.0937 1.5,0 0.5,1 -2.0937,1.5 -2.5,4.0938 0,4.0938 1.4062,3.625 1.5,3.0937 2.5,3.0937 0.5,3.0938 2.5,2.0938 0.875,0.5 0,1.5 -0.5,2.125 0,1.5 3,0.5937 1.5,1.5 0.5,2.0937 0,2 5.4062,6.1876 1.5,4.7187 2.5,2.5937 3,0 2,0.5 4.5,6.6876 3.5,1.125 1.5,-0.5 1.5,1.5 2,0.5937 1,-1.5937 1,0.5937 0.5,2 2.5,1.5937 2.5,3.5938 1.5,2.0938 1,1 1.5,-0.5 0.5,-1.5 1.5,1 0.5,-0.5 0.5,-1 1,-0.5 1.5,0.5 1,1.5 1.5,1.125 1.5,-0.5 1,0.5 0.5,1 1,1.0937 0.5,-1.5937 -0.4062,-1.5 0,-1.625 -1.5,-3 1,-1.0938 1.5,0 1,-1.5 1.625,-1.5 1.375,1.5 4.125,2.0938 -0.125,1.625 -1.5,4.0937 -2,0.5 -1.5938,2 1,3.5937 2.5,5.1876 4,2 3,1.125 2.5,1.5937 0,2 2.5,3.0937 3,1.0938 3,2 1.4063,3.0938 2.5937,-1.5 0.5,-1 0,-1 1.5,1 1.5,2.125 2.5,0 0.5,1.5 1.5,1.0937 4,-1.5 4,2.5937 3,-1 3.0938,0.5 4,2.0938 3,-0.5 3.5,1.0938 7.3125,1.1874 13.7187,0 -0.4062,-1.0624 -0.5,-2 0.094,-3.125 2,-1 -0.5,-2.0938 0,-2 -2,-1.5938 -3,-2.0937 -0.5,-0.5 -1.5,1 0,1.5937 1,2 1.5,1.5938 1,2 -0.5938,0.5 -2.5,-0.5 -1,-2 -1.5,-0.094 -2,0.5 -0.5,0 -4,-0.5 -4,1 -1.5,0.5 -1.5,-2.5937 -5.5,-3.0937 -2,-2.125 -2.5,-2.0938 -2,-1.5 -0.5,-3.0938 0.094,-4.5937 1,-3.5937 -0.5,-3.125 -2.5,-1 -2.5,-2.5938 0.094,-2.5938 -2,-1 -1,-3.0937 -2.5,0 -1,-2.0937 3,-1.5 1,-1.625 -0.5,-2.5 -1.9063,-2.5938 -1,-1.5938 0.5,-2 2,0.5 1.5,-1 1.5,-1.5 -2,-1.0937 -2,-1.5 0.5938,-1.5 1.5,-2.5937 0.5,-1.5 -1,-1.125 -1.5,-2 2.125,-1.5938 1.5,-2 1.5,-2.5938 1.5,0.094 6.5,2.0938 3.5,2 1.5,1.625 0.5,1.5 2.5,0.5937 2,0.5 1.5938,-0.5 2.5,1 2.5,0.094 2,-2.5937 1,-2 2.5,-0.5 2.0937,-1 -0.5,-2.0937 0,-3.625 3.0937,-2.5 -0.5,-1.5938 -1,0 -1,0.5 -1.5937,0.5 -2,1 -1.5,-1 0,-1 0.5937,-2.5938 0,-2 -2,-1.0937 -1,-1 -1.5,0 -2,-0.5937 -3,0.5 -2.5937,1 1,2.0937 -1,3.5937 -2.0937,2.5 -3,-0.5 -2,-3.0937 0.094,-2.0937 -3.5,-2.625 -3.5,-2 -4,-1.5938 -1,-1.5938 0,-1 3,-2 -0.5,-1 0,-2.5937 1.0937,-1 3,0 1,-1 3.5,0 0.5,-1.5 0.094,-5.7187 -1,-1.5 -3,-2.0938 -0.5,-1 0,-3.0938 -2.5,-2.5937 -3,-1.0937 -3,-1.5 -5,-0.625 -4.5,-1 -6.5,-3.6876 -2.5,-2.0937 -0.5,-2 -0.375,-3.5937 -2,-1.625 -3,-4.0938 -4.5,-5.6875 -6.5,-5.7187 -0.9062,-2.0938 -1,-1.5 -1.5,-1.0938 -1.0938,1.0938 -2.5,-0.094 -6,-4.0937 -5.5,-2.0937 -2.5,0.5 -2,-2.625 -1,-1.5938 1.5938,0.094 2,-1.5938 4.0937,-10.6875 -0.5,-2.0937 -2,-1.5 -0.5,-1.625 0.5937,-2 -1,-1.0938 -3,-2 -1.5,-1.5938 -2.5,0.5 -2.5937,0 -1.4063,-1.5937 -1.5937,1 0,1.0937 -1,2 -1.5,-0.5 -3,-1.0937 -1.5,-0.5 -2.5,2 -3.0937,-0.5 -3,0.5 -0.5,-0.5 -2,-1.5937 -3,0.5 0.5,-1.5 6.5937,-1 0,-1.625 -1.5,-0.5 -3.5,1 -1.5,-1 z m -24.1875,1.8124 -1,1 1,2.0938 -0.5,1.5 -3.125,4.0938 -1,2.625 -1.5938,2 -1.5,-0.5 -1.5,0 -2,2.5 -1,2.0937 -0.5,2 -1.5937,2.5937 -1,1.5 -1,0.5 -1,2.0938 -1.0937,3.5938 1,2.5 0.5,4.125 0.4062,2.0937 3.0938,0.5 1,-1.5 0.5,-1 -0.5,-2.0937 0.5,-0.5 2.5,-1.5 1.0937,-2 0.5,-2.625 1,-0.5 1.5,1 1,1.625 0,3.0937 -1.0937,3.5 0,3.0937 2,2.0938 0.5,1 3,-1.5 0,-2.5938 0.094,-3.5 -2,-3.0937 -0.5,-1.0937 2,-2.5 1.5937,-1.625 1.5,-2 2,0 1,-1 -1,-1.5 -2,-0.5938 -2,0.5 -2.5,2 -1.0937,2.5938 -2,0 -1.5,-2.0938 0.5937,-2.5 1.5,-2.5938 2.5,-0.5 2,-0.5 0.5938,-2 -1.5,-0.5937 -2.0938,0 0.094,-1.5 3,-1 2,-2.0937 1,-1.5 -0.375,-2 -1,-3.625 -0.5,-3.5938 -1.5,-0.5938 z m 95.5,4.9063 -1,0.5 -1.125,1.5937 -1,2 1,1.0938 1,1.5 -0.5,1.5 0.5,1.5938 4,1.625 0.5,-2.125 2.5,0.5 2,1.625 0.5,-1 -1,-1.625 -0.375,-3.5938 -0.5,-2 -1,-1.0938 -1.5,0.5 -0.625,1.5938 -1.5,0 -1,-1.0938 1,-0.5 -0.375,-1.5 -1.5,-1.0937 z m 275.875,0.6875 -4,1 -2.0938,1 -1.5,1 -1.5,0.5 -4.5,2.5 -2.5,0 -1.5937,1 0,1.5938 1,4.625 2,0 1,-0.5 1.5,1.5937 2.5,1 4.5,4.1875 5.5,1 3,1.5938 3.5,1.625 3.5,0 1.5937,-1.5 0.5,-2.125 -1,-1 -2,-1.5938 0,-2 0.5,-2.5938 0,-2.5937 -2.9062,-3.0937 -2.5,-1 -1.5,-2.125 -0.5,-3.0938 -2.5,-1 z m -30.375,22.4062 -1,1 -0.5,1 -1,1 -1.5,1 -3.625,1 1,3.0938 -0.5,3.0938 -0.5,1.5 -3,0.5 -0.5938,5.2187 0.5,3.5937 -1,-0.094 -5.5937,3.5937 0.5,5.0938 -1.0937,5.2188 -1,2 6.5,9.7812 4,-1 1.5,2.0938 3,3.125 -1.5938,3.5937 -2.5,6.0937 1.875,5.1876 -0.5,4.625 0.4062,3.0937 2,1.5 5.0938,-1 4.5,-0.4063 5.625,-2.5937 2,1.0937 5.5,0 2.5,-1 1.5938,-4.5937 0.5,-2.5937 -1.5,-2 -2.5,-2.625 -1.5,0.5 -1,2.5 -3.0938,1.125 -0.9062,-3.125 2.5,-3.0938 6.0937,-1 0.5,-2.5938 5.5,-4 1.0937,-2.0937 1,0.5937 0.9063,2 1.5937,-2 0,-2.0937 3,-1 -0.5,-1.5 -3,0 -1.5,-3.7187 -2.4062,-4.0938 -7.5,-4.6875 -8.5,-10.8125 0.5,-1 3,1.5 3,1.5938 0,-2.0938 -2.375,-3.0938 0,-3 0.5,-1.5937 1,-2 0.5,-1.5937 -4.4062,-4.125 -2.0938,1.5 3.5,2.125 -0.5,0.5 -3.5,0 -1,-2.125 -1,-3.0938 -3.5,-1.5 -1,-1.5938 -0.4062,-1.5 -3.5938,0 z m -184,8.3126 -2.5,0.5 -0.125,4.0937 -3,-0.094 -1,-2 -2,0 -2.5,-0.125 -2.5,2.125 -2.5,-1.125 -5.5938,4.125 -3,1.5 -5.0937,2 -1,-2.625 -1.5,-1 -4,0 1,1.5 0.5,2.125 -1.5,1.5 -1.5,1 1.5,1.0937 3,1.5 6,-1.5 2.5,-0.5 0.5,2.5937 3,3.0938 2.5,2.5938 2,3.625 1.4063,2.0937 -1,1.5 1,1.5937 2.5937,-2.5937 0.9063,7.1875 5,4.2188 -2,0.5 -3.0938,0.375 -7.4062,-6.6876 0.4062,4.5938 4,3.0938 1.5,2.125 0,2.0937 1.5,1.5 4,-0.5 1.5,-2.5 3,0 0.5,5.0937 1,1.0938 3,-1.5 1,2 2,-1 3,1.5938 2,3.125 4.0938,-1.5 0.5,-2.125 1,-2.5 -0.5,-3.0938 -1,-1.5938 -1.9063,-2 -3.5,-1.5937 2,-2 3.5,-0.5 0,2.5 3,1.5937 2,0.5 0,-1 -1,-2.0937 0.5,-1.5 1,-1.5 1.5937,-0.5 4.5,-1 2,1 2.5,2.0937 1,-0.5 0,-1 -1.5,-1.0937 -0.5,-1.5 1,-1 2.5,0.5 0,1.5 2,-0.5 8.2188,-9.0937 2.5,-3.125 0.5938,-4.5938 -0.5,-0.5 -0.5,-1.0938 -5.5,-2.5937 -3.5,-1 -7.5938,-0.094 -1.5,0.5 -2.625,5.5937 2,4.1875 -3.5,1 -1.5,-2.0938 -2.5,-0.5 -1.5,-1.5937 -0.5,-2.0937 1,-1 1.625,-2 0,-4.125 -3,0 -12.625,-3.6876 -4,-2.0937 1.125,-4.5937 z m 110.5,12.6874 1,1.5 -0.625,1 -2,1 -6,1 -3.5938,2 0.5,3.0938 1.5,3.0938 -0.5,1 -2.5,2.125 0.4063,3.0937 1,3.0937 -0.5,2.5 0.9063,7.1876 -1.5,3.625 2.5,3.5937 2,-1 4,0.5 0,2.5937 -5.5938,3.5938 3.5,8.2188 2.5,0.5 -0.125,2.0937 1,3.0937 2.5,3.5938 4.5,-0.5 0.5,-1 -0.375,-2.5938 0.5,0 3,-1 -1.5,-4.0937 2.5,0.5 2,1.5937 2.5938,-1.5 3.5,-3.5937 2.5937,-3.5937 2.5,0 1.5,-2 1.5,-2.625 4.0937,-4.5 1,-4.6876 -1.4062,-3.5937 -1.5,-2.5 -2.5,-4.2187 -2,-5.5938 -0.875,-2.5938 -2,-2.5937 -3,-2.0937 -14,-9.3126 -3.5,0 z m 124.5938,1.9063 -2.5,0.5 -2.5,2.5937 0.4062,1.5 -0.625,10.8126 0.5,5.6874 4.5,5.5938 0,3.0938 -0.5938,1.625 -5.0937,9.6874 -1,4.0938 -0.1875,15.9062 0.5,4.0938 2,2.0938 9.5,3.125 3,1.0937 4.0938,-2.5937 8.0937,-5.125 11.5937,-4.5 5,-1 4.5,3.7187 5.5,3.0937 3,3.0938 2,0.5 -0.5,-3.5938 -1.5,-1.5 -0.4062,-2.0937 1,-1 -0.5,-3.0937 -1.5,-5.7188 -1.375,-3.5938 0,-2 -1,-1.5937 -6,-4.0937 -2.5,-1.125 -2.5,0.5 -2.5,-3.5938 -3.5,-2.0938 -3.5,-1.5 -11.5,-11.4062 -1.5,-1 -1.5,-4.1875 -3.5,-3.0937 -0.9062,-4.625 -1,-4.0938 -3,-2.5938 -2.5,-1.5937 z m -177,12.5 -0.094,1.5937 -1,0 -2,0.5 -2,2.5 -1.5,2.0938 -0.625,2 0.5,4.0938 1,1.625 0.5,1.5 -1,1 -3.0938,1.5 -2.5,1.0937 -3,3.5 -4.0937,2 -3.5,0.5 -2,-1 -2,-1.0937 -1,1.0937 -0.5937,3.5937 -1,2.5 -0.5,4.5938 -0.094,3.5938 1.5,3.625 1,3.0937 0,3.0937 0.375,4.0938 0.5,2.5938 2,1.5 0.5,1.625 0,1.5 -0.5938,2.0937 0,1.5 -0.5,3.0937 0,2 -2.0937,2.5938 -3,3.5938 -2,1.5 -1.5,0.5 -0.5,-1 -1,-1.5938 -1,-0.5 -1,0 0.4063,1.5 -1,2.0938 -1.5,1.5 -1.5,-1 0.5,-1.5938 2.5937,-3 1,-2.5938 0,-1.5 4,-1 1.5937,-1.5937 1.5,-3 2,-1 1,-0.5937 -2.4062,-3.625 -0.5,-0.5 1,-1 0.5,-1 -0.5,-0.5 -4.5938,1 -2,2 -2.5,3 -1.5937,2.625 0.5,4.0937 -1,4.0937 -3.0937,4.0938 -2.0938,6.0938 -1,7.7187 -0.7188,16.5 -0.5,2.5 -0.094,3.5937 -1,2.5938 0,3 1,1.5938 0,2 0.4063,4.2187 1,1.5 1,1 1.5,0 2,-0.4063 0,-1.5937 0.5937,-1 2,-0.5 1,0.5 0.5,-0.5 0,-1.5 4.5,1 1.5,2.0937 0.5,1 1,1.0938 1.5,0.5 0.1563,0.7812 51.8124,0 0.8438,-1.375 1,-1.5937 0,-1 -1,0 -1.5,0.5 -1.5,1 -2.5,-0.5 -1,0 -0.5,1.5 -0.5,0.5 -1.5,0.5 -1,-0.5 -0.5,-0.5 -0.5,-1 -0.5,-1.0937 -2,0 -0.5,-1 1,-0.5 1.5,-0.5 1,0 0.5,-2.125 0,-1.5 2,-0.5 0.5938,-1.5 0,-1.5938 0.5,-2 0,-3.0938 1.5,-2 0.5937,-3.0937 0.5,-3.5937 -2,-0.5 -0.5,-1.125 -0.5,-2.5 1,-0.5 1.0937,-1.5938 -4.5,-2.0938 -2,-3.0937 -3,-7.2187 -2,-1.5 -3,-3.0938 -0.9062,-2.0938 0.5,-3.0937 1.5,-2.5 3,-1.5 1.125,-4.0937 1.5,-3.625 1.0938,-3.0938 1,-3.5938 0.094,-6.0937 1,-2.0937 1.5,-2.5 2.0937,-4.625 2,-0.5 1,-0.5 -2,-1.0938 -0.5,-0.5 2.5938,-4.0938 -1.5,-1.5 -3.5938,0.4063 -4,1 -4,1.5 -2.5,-1 -2,-2.0937 -0.5,-2 2,-1.625 1,-3.5 1.0938,-4.0938 -3,0.5 -2.5,-0.5938 -1.5,-1 -0.5,-1.0937 1,-2 -0.5,-2.0937 -1.5,-2.5 1.125,-7.2188 1.5,-3.5938 0,-1 -0.4062,-0.5 -0.5,-0.5937 -1,0 z m 62.2812,54.4063 -4,0.5 -6.0938,0 -5,-0.125 -4.5,1 -3.5937,2.125 -2.5,2.5 -0.5,2 1,2.0937 -0.094,3.0937 -2,0.5 -1,-2.0937 -1,-1 -1.5,2.5 1.5,4.1875 0,1.5 3,-1.5 3,0 0,1.5 -1.5,3.5938 3.5,1.625 2,2.0937 0.9062,2.5 3,2.0937 1,3.5938 -0.5,4.0938 -1.125,1.625 -4.5,2 0.5,2 0.5,1.5937 -2.5,0.5 4.9062,4.5937 1.5938,-0.5 -1,-3.0937 -0.5,-2 3.625,-4.5937 10.0938,-7.125 4.0937,-5.5938 2,-3.0938 1.5,-4.0937 4.0937,-2 1,-2.5937 -2,-1.5 -1.5,1.5 -2.5,1.5 -3,-1.5 -1,-3.625 0.5,-2.0938 0.5,-2.5938 1.5938,-1.5 3.5,-1 2.5,-2.5 -0.5,-1.5937 -4.5,-0.5 -3,-0.5937 z m 143.7188,5.6874 -6.5,1 -4.5,1 -3.0938,2.5938 -8,4.5 -9.125,3.5938 -2.5938,1.5 -9.5,2 -3.5937,2.5 -4.5,2 -4,0 -0.5,-3.0938 -2,-2.5938 -3,0 -2.5937,2 -2,4.0938 -1.5,2.5938 -1.5938,1.5 -3.5,1 -2,2 1.5,1.125 -0.5,1 -1.125,2.5937 0,2 3.5,1.0937 7.125,-0.5 1.5,-1 1,1.5 0.5,0.5938 1,-0.5 0.5,-1.0938 0,-1.5 -0.5,-1 1.0938,-1.0937 1.5,0.094 1,1 0.4062,2.5938 1,3 5.5,5.2188 2,2.0937 0.5,1.5 0,1.0937 -1.5,2 1.375,2.0938 4.5,4.0938 1.5,4.125 -1.5,4.0937 0.4062,3.5937 0.5,1.875 94.4063,0 -0.3125,-0.6874 -1,-1.5 -4,-3.6876 -1,-2.5 -2,-3.5937 -1.875,-5.7187 -4.5,-13.375 -3.4062,-8.2188 -0.5,-2.5938 -1.5,-1 -2.5,0.5 -4,1.5 -2.5938,2 -3,2.5938 -1.5,2 -0.125,3.0938 -1,2 -1.5,0.5 0,1.125 2.5,3.5937 -0.094,3.0937 2.5,12.8126 -0.5937,4.5937 0,1.5937 -1.5,1 -3,0 -1.5,-1.0937 -2,-0.5 -1,-0.5 -1,-2.0937 0.5,-4.125 -2,-1.5 -1.5,-5.6876 -0.4063,-4.5937 2,-1.5937 -0.5,-3.625 -0.9062,-9.1876 1.625,-9.1874 1.5938,-6.7188 -4,-3.0938 -2,-6.6874 -0.9063,-6.7188 -1.5,-0.5 -3.0937,-1.5938 z m -63.0938,40.0938 -1.625,0.5 -2,1 -3.5,0.5 -3,1.5 -6.5938,0 -0.5,2 -1,3.0938 -1.0937,1.5 1.5,1.125 2.5,1.5 2.5,1.5937 4.0937,-0.5 3.5,-0.5 1,-1 3,-1 1.0938,-1 -0.5,-1.5 -2,-1.0937 0.5,-1.5 0,-1.625 2,-3 0.5,-1 -0.375,-0.5938 z m -101.7188,7.5 -1.5,1.5 -0.5,2 -2.5937,1.5938 -1,0.5 -1.5,1.5 -0.5,1.5 0,2.125 2,-0.5 1,-0.5 1,-1 0.5,0.5 0,1 -0.5,0.5 -0.5,1 -1.0937,2.0937 -0.5,1.5 2,0 2.0937,-1 2,1.0937 -0.5937,1 -0.5,2 -1.5,1 -1,-0.5 -1.4688,3.375 7.5312,0 -0.5624,-1.7812 0,-2.5938 0.5937,-1.5 1.5,-3.5937 2,-3 1.5937,-3.0937 -1,-1 -2,-2.625 -2.5,-3.0938 -2.5,0 z m 90.9063,11.4062 -0.5,0.5938 -1,-0.094 -1.5,1.0938 -2.5,0.5 -2,-0.5938 -1.0937,2.0938 0.5,2.5 1.5,2.5938 1.5,0.5 1,1.125 0.5624,0.5624 6.875,0 2.1563,-2.5624 -1.5,-1 -0.5,-2.125 -1,-2.0938 -1,-2.5 -1.5,-0.5938 z"
     id="rect4"
     inkscape:connector-curvature="0" />
  <path
	 style="fill:#9FAEC0"
	 stroke="#9FAEC0"
	 stroke-width="10"
	 transform="translate(0, 100)"
     d="m 1316.8125,622.875 2.6875,0.4376 2,0 3,2.0937 1.5,2 2.125,-0.5 1.5,-0.5 1.5,-2 -0.5938,-1.5313 -13.7187,0 z m 46.1563,0 0.3437,1.8126 0,2 -0.094,2.625 0.5,1.5 2.5,1.5937 2.5,0 2.0937,-1 0.5,-0.5 2.5,0.5 0.5,1 1,1.5937 1.5,-0.5 0,-1.5937 -0.5,-2 0.5,-0.5 1.5,-0.5 1,0.5 2,1.5937 0.5,1 -0.5,0.5 -1,0.5 -0.5,0 0,1 1,1.0938 3,-1 2,-0.5 2,0.5 0.5,0.5 1.5,0 1.0937,-0.5 0.5,0 5,2.5938 1.5,1.625 1.5,0 0.5,0.5 1,1.5937 -0.5937,3 -0.5,2.5937 -1.5,-0.5 -1,-0.5937 0,3.0937 -3.0937,0.5 -1.5,-1 -0.4063,-1.0937 1.5,-1.5 1,-1.5 -0.5,-0.5 -2,-0.5937 -2,-0.5 -0.5,1.5 -2.5937,0.5 -1.5,-1 -1.5,0 -2,2.5 0,1.5937 5,1 2.5,2.5937 0.5,3.0938 -1.5938,1.5 -2.5,0 -1,1.5938 -1.5,2 -3.5,0 -1.625,1 -0.5,1 1,0.5 2,0 2.5,2.625 1,1.0937 0.5,0 2.625,-0.5 4,0 5,-2.5 2.0938,-1 1,1 0.4062,2.0937 1.0938,-0.5937 2.5,-0.4063 3.5,0 0,-2.0937 0.5,-1 -0.5,-2 -5.5,-1.0937 -0.5,-1 1,-2.625 2.5937,-1.5 2.5,2 4,1.625 3,0 0.5,1.0937 0.5,1.5 2,0 1,-1.5 -1,-0.5 -1,-2.0937 -0.5,-1 0,-1 0.5,-0.5 3.5937,0 -0.5,1.5 1.4063,1.5937 2,1 1.0937,0 1,-0.5 0,-2.5937 2,1.0937 1.5,1 0.5,1.5937 -0.5,0.5 -1,0.5 -0.5,1 0.4063,1 3.0937,0.094 3,1.5 2.5,1.5938 1,0 1.5,-1 1,-1 0.5,-1.0938 0,-1.5 1,-0.5 1.5938,0 0.5,0.5 2,1.0938 0.5,-1.0938 -2,-5.5938 -3.5,0.5 -2,-0.094 -1,-1 3.5,-4.5937 1.5,0 -0.375,-2.5 0.5,-1.625 0.5,-1 -0.5,-1.5 0,-2.0938 -0.5,-1 0.5,-0.5 1.5,1.5 1,0.5 1.5938,-1.5 1,-1.5 0.5,-1 -0.5,-2.0938 -3,-3.5937 -1,-1 -2.5,0.4063 -2,-0.5 -1.5,-1.5 -2,-2.125 -0.4376,-1.3126 -7.5312,0 -0.5312,1.2188 -2.5938,3.0938 -2,2.5 -3,1 -2.625,0.5 -2,2.625 -2,1.5 -1.5,-1.5 -1.5,0.5 -1,-0.625 -0.5,-1 -0.5,-0.5 0.5,-0.5 3,-2 2.125,-4.0938 1.6562,-2.7188 -51.8124,0 z m 156.3124,0 0.9376,0.9376 1,0 1.5,1.5937 1.5,0 1.5,-2 0.4374,-0.5313 -6.875,0 z m 36.125,0 1,3.8126 0.5,3 -1.0937,2.625 -1.5,0 -2,-1 -0.5,2 -1,5.0937 -4.5937,3.5937 -3.5,1 -1,-1 -1,-0.5937 -0.5,-0.5 -1,1.5 0.2812,13.4063 2,7.1874 3,3.5938 3.5,2.5938 0,3.125 2.5,0.5 1.5,-0.5 2,-0.5 1,0 1.5,-1.5 1,0 0.5,4.5937 -0.5,2.0937 -1.5,0 -1.5,-0.5937 -1,0 -0.5938,1 0.5,1.5937 0.5,1.5 1.5,1.0938 1,0 0.5,-0.5 0.5938,-1.5938 0.5,0 0.4062,1.0938 1,1 4.5938,-0.5 2,-0.5 3,-1 1,-2 3.625,-2.5938 2.5,-1 1,1.0938 1,1.5 3,0.5 3.5,-0.4062 1.0938,-1.0938 0,-1.5 1,-6.1875 2,-1.5 2.0937,-1 3,1.0937 3.5,0 3.5,-1 3.5937,-3.0937 2,0 3,-1.5 1.5938,-3.5 2,-6.2187 -1.5,-2.0938 0.625,-5.0938 1,-2 4,-1 2.5,1 2,1.5938 3.0938,0 4.5,-0.5 2.5,-3.5938 1.5937,-4.5937 1,-0.5 1.5,0.5 -0.5,3.0937 -2.0937,2.5938 0.5,3.5938 1.5,1 -5.0938,11.3124 -2.125,5.5938 -1,3.0938 0,2 -0.5938,2.625 -3,0 -3,-1.125 -3,1 -1.5,1.5 2.5,2.125 2.5,-0.5 3,0 3.5,-1 1,1.0937 3,7.1875 0,2.5 -0.5,1.5938 -1.5937,0.5 -0.5,2 2.5,3.625 5,4.6874 4,4.5938 2,2.5938 0,2.125 -0.5,0.5 1.9063,11.7812 -1.0938,4.5938 2.5,0 5.5938,-1 1.5,0.125 0.5,1.5 1.5,1 3,1.5937 2.5,0.5 2,1.0937 1.5,-0.5 -1,-2.0937 -0.5,-2.5937 2.0937,-5.125 0.5,-2.5 2.5,0.5 0.5,1 1,3.125 1.5,1 2,-0.5 1,-0.5 1.5937,-0.5 0.4063,1.0937 -1,1.5 -1,1 -1,0 0,2.0937 2,1.5 1,1.5938 2,0.5 -0.5,1 0,1.5 -1.5,-0.5 -1.5937,1 -1.5,0 -2,0.5 -1.5,-0.5 -1.5,0 -2,1.5 -1.5,2.0938 -0.094,2 -1.5,1 -0.5,1.625 3,1.5 3,0 2.0938,-1.5 1.5,-2.5 1,-2.125 1.5,-2 1,0 1,1.5 2,2.625 1.5,3.5937 1,1 1.5,-1 1.5,0 0.5,2.0937 2,-0.5 0,2.5938 6,6.7188 4.5,4.0937 10.5,8.7813 1.5,1.625 3.5,1 4.5,0 3,2.0937 4,4.6875 2,0.5 0,3.5938 6.5,3.125 2.5,1 1.5,1.0937 2.5,0 1.5,1 1.5937,1.0937 0.4063,2.5 1,4.0938 0.5,2.0938 0,3.125 1.5,2.5 4.5,-0.4063 1.5,-1.5937 2,-1.5 2,0.5 1,2.0937 -1.5,3.0937 -2,4.5938 -0.094,2 2.5938,0.5 3.5,-2 3.5,-3 1,2 -1.5,1 -2,2.0938 -4.0938,1 1.5,2.625 8.0938,1 1.5,-2 2,-0.5 0,1 -1,1.5937 -2,3 -2.5938,3.5937 -3,4.0938 -3.125,3 -0.5,2.0938 -0.5,1 -2,3.125 -2.0938,4 -2.5,2.0937 -0.094,6.0937 -1,7.6876 -0.5,0 -1,-1 -1,-7.1876 -1.5,-1 -0.5,3.5938 -1,1.5 0.4063,2 -0.5,2.5938 -0.5,2 0.5,2.125 -2,1.5 0.4062,3.0937 0.5,3.5937 -1,0.5 -1,0.5 -4,-3.5937 -7,-4.2187 -3,-3.5938 -4,-2 -7,-2.6875 -4.5,-3.5937 -9.625,-2.625 -1.5,-1.5938 -3.5,-3.0938 -3,-1 -1,2 -2,2.0938 -2.0938,3 -0.5,5.2188 -3.0937,5.5937 -4,2.5 -5.5937,1 -2.5,-1.5937 -3,-2.5 -3,-2.625 -1.5,-0.5938 -5,1 -3.0938,2.0938 -6,2.5 -7.125,2 -5.6875,14.8124 0.5,9.1876 0.9063,7.2187 -3,5.0937 -1.7188,13.9063 4,11.2813 0.9062,4.125 -0.5,4.0937 -0.5,2 -3.0937,2.5937 5.5,16.4063 1.5,1.0937 1.5,1.5 0.9063,1.5 -0.5,1.5938 -0.5,1 1.5,4.0938 3.5,7.7187 2.9062,7.1875 -2,4.0938 1.375,6.7187 1.5,1 2,4.0937 6,3.1876 4,3.625 1.5,2.5 1.5,3.0937 1.5,1.5937 3,-1.5 1.625,-2.0937 3.5,-3.5 0.5,-1.5937 1.5938,-2 2.5,-0.5 5,0 11.5,17 1.9062,7.1874 5.5938,3.0938 4.5,1.5938 1.5,-0.5 5.5,2.125 5,10.2812 4.5,4.5938 5,3.125 4,5.6874 3.9062,5.0938 3.375,16.5 3.125,2.5 2.5,1.5938 3.5,3.125 11.5,2.0937 2.0938,-1.5 0.5,-2.5937 -1.5,-3 -2,-2.625 -1.5,-1.5938 -2.5,-4.5938 -1.9063,-7.1874 -5.5,-8.7188 -0.5,-4.5938 -12,-13.5 -1.5,-3.5 -5.5,-4.1874 -2.4063,-5.125 -2.5,-3.0938 -4.5937,-1.0938 -1,-1 -0.9063,-3.0937 -2.5,-5.5937 -2.5,-1.625 -5.5937,-1.5938 -0.5,0 -2.5,-2.0938 -1.5,-2.5 -1.4063,-6.6874 -4,-6.2188 -4,-5.0938 -4,-3.6874 -1.4062,-7.7188 -0.5,-4.0938 -1.5,-3 -5.5,-2.5937 -2,-2.0937 0.5,-4.125 -1.875,-5.6876 -0.4062,-13.3124 2.5,-3 3.0937,-3.0938 4.5,-2.5 3,2 4.5937,-2 1.5,-1 0.5,-3.5938 4.0938,-3.5 1,-2.0937 1,-2.5 2.5,-1 -0.375,-7.2187 -2,-1.0938 -1.5,1.5938 -1,-0.5938 -0.5,-1 -1.5,-5.5938 0.5,-4.0937 -1.4062,-3.0937 1,-3.625 3,-2 8.5937,-4.5938 4,0.5 1.5,1.5938 2,3.625 0.5,3.5937 9,2.5937 3.5937,-0.5 5.5,-1.5 2.5,0 2,-0.4062 2.5938,-3.0938 0.5,0.5 1.5,4.5938 1,2.0938 1,-0.5 0.5,-0.5 0.5,-3.0938 2,-2.5 2.625,-4.5938 1.5,-3.5937 2,1 -1,1.5937 -0.5,2 -1.5,3.5938 -1.625,1.5 -1,2.5938 0,1 0.5,1.5 3,1.125 2,1.5 2,4.0937 1,4.6875 2.5,1 0.5,1 -0.5938,4.5938 1.5,3.125 -1,3.0937 0.5,2.0937 0.9063,4.5938 0,1.5 1.5,3.0938 2,0.5 -0.5,6.7187 2,1 -3.5937,7.1875 -0.5,2 -0.5,1.5938 -3.0938,2.5 -1,5.625 -1.625,4.0937 -0.5,3.5937 0.4062,3.5938 -0.4062,2.0938 -0.094,2 0.5,2.125 1.5,1.5 0,3.0937 0.5,5.0937 -1.0937,4.5938 -1.5,3.5938 1.5,2.625 3,4.5937 -1.0937,3.5937 0.5,4.0938 0.5937,1 5.9063,8.8125 3.5,5.5937 0.9062,3.0938 0.5,4.0938 1,5.125 2,3.5937 4.5,1.5937 6,3.0938 3,5.7188 0.5,1 0,2.0937 0.5,1.5 2,3.5937 11,7.3126 0.5,2 2,3.5937 1.875,3.5937 3,3.0938 1.625,-0.5 0,-2.0938 0.5,-0.5 2.5,0.5938 2.5,1 2.5,1.5938 2,2 2.5,4.7187 0,3.5 -5,-2 0,-2.0937 -1,-1 -3.125,0.5 -3.5,1 -0.5,2 2.5,3.5937 6,2.0937 2.625,1.4063 4.875,2.7813 9.125,6.2187 5.5,5.0937 10.5,6.8126 3.5,0.5 4.5938,-2.5 0.5,-5.7188 5.5937,-5.5938 5.0937,-4 3.5,1.5 2,3.0938 -3.0937,1 -1.5,2.5938 1,1 3,2.125 4,1 6.0937,-1 4.0938,-0.8126 3.5,-0.6874 6,4.1874 3,3.0938 -4.5938,-0.5938 -4.5,-3.0937 -3.5,0.5 -0.5,1 2,1.0937 1.5,2.5 0.5,5.6876 -2.5,-4.0938 -2,-2.5938 -6.0937,-2.0937 -5.5,1.5 -4.0937,1 0,4.5937 -1.5,5.5938 -3.0938,4.0938 -0.5,4.125 -1.625,3.5937 0,4.5937 -2.5,-0.5 -3,2 -0.094,2.5938 0.5,3.5938 0.5,1.5 3,0 0.5,1.625 -0.5,2 -1.5,2 -2.5937,1.5937 -3,1.5 0,2.5 -1.5,2.5937 1.5,2.0938 1,-0.5938 2,-3.5 2,-1.5937 1.5,1.0937 -1,3.5938 0.5,2.5 -1,1.5938 -0.5,2 -2.0937,2 -3.5,1 -0.5,2.125 -1.5938,2.5 -6,6.0937 -4.625,3.5937 -2.5,2 -3.5938,1 -5,1 -7.5937,2 -5.5,0 -4.5937,2 -9.0938,4.5938 -4.5,-0.094 -5.125,1.5 -0.5,1.5938 -1.5938,6.0938 -1,5.125 -0.5937,7.6874 0,3.0938 -1,2.5 -1.5,3.5938 -1.5937,2 -2.5,3.125 -2.5938,5.0937 0,1.5 -0.5,2.0937 0,2.5 -4.625,9.1876 -0.5,1.5 0.9062,3.125 -0.5,1.5937 -1.5,3.5 -0.5,4.5937 -0.4687,1.5313 3955.5938,0 -5.5313,-132.3437 -3.1875,-76.1876 -7.4062,-215.9062 -0.5,-12.6875 -8.2813,-209.5313 -4017.4062,0 0,1.2188 -0.5,1.5 0.5,2 -0.5,1.5938 -2.5,-1.5938 -1,-0.5 -2.0938,1 -1.5,1.5 0.5,2.0938 1,1.5 0.5,2.125 -1.5,1.5 -1,-1 -0.5,-2.625 -2,-2.5 -2,-1.0938 -2,-1 -3,0.5 -2.625,-0.094 -0.5,1.5938 -1,-1.0938 -1,-1.5 -1,0 -2,1.5 -1,0 -1,-1.5 0,-1.5937 -1,-1.5 -1,-1.5937 -2.5,1.5 0.5,1.0937 -1,2.5 -5.5,-1.5 -2.5,-2.5937 -0.6875,-1.4376 -94.4063,0 z M 43.7188,633 l -1,2.5938 -3.0938,0.5 -1.5,2 -3,0 -6.5,-4.6875 -5.125,2 -4,3.5 -3.5938,1 -2,3.5937 0.4063,5.0938 1.5,1.0938 0.5,3 -1.5937,1.625 0.5,2 5.5,-0.4063 4.5,3.0937 1.5,4.0938 3,2.0938 1.4062,2.125 0,2.5937 -1.625,4.5937 7,8.8126 1.4062,3.0937 4,3.0937 4,4.6876 2.5,-0.5 2,-2.0938 2.0938,-0.5 3,-0.4062 4.5,2.125 2.4062,4.5937 1.4063,7.1875 -1.5,5.7188 -1.5937,2 -2.5,-0.625 -1,-1 -1,0.5 0,3.625 0.4062,1.5 1.5,1.0937 1,-0.5 2,1.5 -1.125,9.7813 -1.5938,6.625 -3.0937,4.0937 -6,1 -2.5,-1.5937 -0.5,0.5 -0.5937,1 0,2.0937 -1,2 -2.5,0.5 -0.5938,5.0937 0.375,2.5938 1.5,0.5 1.9062,8.2188 1,3.5937 -1.0937,4.6875 -0.5,2.5 -1.5937,5.5938 -0.5938,4.125 -2.5,3.5937 L 37,789 l -6.5938,3.5 0,1 -0.5937,3.0938 -1,1 -3,0 -1.5,0.4062 -0.5,1.5938 -0.094,2 3.0937,0.5938 0.4063,4.125 1.5,2.0937 0.4062,4.5937 1.5,2.5938 3,4.5938 1.375,5.7187 -3.6875,12.6875 -1.0937,5.7188 -4.2188,9.6874 -2.5938,6.5938 -5.0937,5.5938 -3.5,-0.094 -2,1 -3.0937,3.5938 -4.5938,5.625 -4.125,1.5 -1,5.0937 0.4062,4.0937 0,3.0938 1.4063,2 4,2.7188 4.9063,11.2812 0.4062,5.5938 3.5,4.7187 1.875,9.1875 -3.5938,2.0938 0,1 0.5,1 4,2.625 3.5,3.6874 4.9063,6.6876 0.9063,8.7187 0,4.0937 1.9062,3.5938 1,2.5938 -2.125,5.125 -2.5938,3.5 -2.0937,11.7812 -0.5937,3.5938 1.4062,9.2187 -1.125,6.1875 2,4.0938 2,2.125 1.4062,4.0937 1.9063,10.7813 0.3125,10.7187 -1,5.1875 0.375,5.0938 -0.5,2.5 1.4062,2.625 1,2.0937 0.3126,12.2813 -1.5,1.5 -1,1.5 0.4062,3.125 2.5,5.1874 0.375,4.0938 2,3.5938 1.5,4.625 0.9062,6.1874 -1.5937,3.5 -2.5,1.5 0.5,1.5938 1.4063,3.5938 -1.5,0.5 -2,0.5 0,1 0.4062,2.625 2.5938,0.5 2,0.5 2.5,0.094 3,4.5937 -3.5938,3.5938 3,3.0938 0.7812,8.7187 2,1.5937 4,2.5938 4,6.7188 2.9063,6.1874 0.9063,7.6876 0.4062,8.2187 -1.625,7.5937 -0.094,6.1876 6.5,4.7187 1,2 -0.5937,4.0937 0,1 -0.5,2.5938 3,3.5938 2.4063,5.2187 6.5,3.5937 2,2.0938 1.5,3.0938 -0.5938,3.625 -2.5,2.5 1,1.5 1.5,1.0937 3.5,-2 4.5938,-3 1.5,-3.0937 2.5937,-1 11.5,6.7812 2.9063,6.2188 1.5,2 2,1.0937 1,-1 3.0937,-1.5 3.4063,5.0937 -1,2.0938 -0.094,6.0938 1,4.125 2.5,2.0937 2,3.0937 -1.625,3.5938 0,1.5 4,-1 2.5,2.0938 3.5,4.125 -1.0938,5.1874 0,1 1,0.5 10.0938,2.1876 2.4062,3.125 0.5,3 1.75,1.2187 1415,0 0.3438,-0.5313 0,-1.5 -1.375,-6.1874 -3.625,2 -0.375,-2 2,-1.5 3,-0.5 2,1 1.4688,9.2187 4.0312,0 0.5,-2.5313 2.0938,-3 1,-1.0937 1.5,-1 -1,-2 -3.5,-2.5937 -6,-1.125 -8.0938,0 -4.5,-1.5938 -2,-3.0938 -1,-4.5937 -5,-4.7187 -0.5,-3 1.5938,-4.5938 -0.4063,-9.7812 -1.9063,-14.3126 -2.0937,1.5 -1.5,2 -3,3.0938 -3.0937,6.0938 -5.5938,4.625 -1.5,-1.125 0,-3 0.094,-9.1876 -0.4063,-8.1874 -3,-6.2188 0.5,-2.0938 1.0937,-4.5937 1.5,-4.5937 2.5938,-6.625 0,-3.5938 -1.5,-0.5 -2,0.5 -0.5,2.5 -1.0938,3.0938 -1.5,4.125 -1,2 -1.5937,-1 -0.9063,-1.5 0.5,-1.125 0,-2.5 -1.5,-1.5938 0,-1.5 4,-0.5 -0.5,-1 0.5938,-2.0938 2.5,-2 4,-0.5 1.625,-1.5 -0.5,-2 -1.5,-6.1874 -2,-0.5 -2,1.5 -3.625,-1.125 -3.5,-1.5 -3,0 -2.5,-0.5938 -1.5,-2 -3.5,-6.6875 -1.5,-0.5 0,-1.0937 -0.375,-3.125 -2.625,-0.5 -0.375,-2 -1.5,-3.5938 -1.5,-2.0938 1,-4.5937 0.5938,-5.5937 -6,-12.4063 -0.4063,-5.5937 -2.5,-0.5 1,-1.625 1.5,-3 -0.5,-1.5938 -0.5,0 -1,1 -1.5,0.5 -1,-0.5 0.5,-2.5 1.5,-1.5938 2.0937,-1 -2,-4.0937 -4,-0.5 -5.0937,0.4063 -0.5,1.5937 -2,1.5 -1.5,1 -1,0 -1.5,-1.5 1.5,-3.0937 -1,-3.125 -3.5,-5.0938 -3,-2.5938 -2.5,-1.5937 -1,-4.0937 -2.4063,-4.125 0.5,-2 1,-3.5938 1.5938,-4.0938 -4,-3.0937 -4,-4.7187 -5,-4.5938 -1,-6.1875 -3.375,-8.7187 -6.5,-4.1876 -0.5,-2.5 0.5,-3.5937 1.5,-0.5 4.0938,-2.5 1,-3.0937 -0.5,-2.625 0.5937,-0.5 4,-2.5 12.1875,-7.0938 11.625,-5 4.5,-3.5938 0.094,-3.5937 -6.5,-8.7187 -3.5,-4.6876 0,-3.5937 0.5937,-3 3,-4.0937 1.5937,-2.625 -1.5,0 -2.0937,0.5 -2,0 -5.5,-1.0938 -4.5,0.5 -5.5937,0.5 -21.2188,4.4062 -6,1 -8.0938,2 -1,-1.5937 -3.5,-0.5 -1.5,1.5 -2.0937,2.5937 -0.5,3.0938 -6.0937,4 0,2.0938 -2,1.5 -8.5938,5 -15.8125,13.7187 0,1.5937 1,2 1,1.5938 3,5.0938 -0.5937,4.125 -2.5,6.1874 -3.0938,5.0938 -4.625,4 0.5,2.0938 1.5,0.5 3,-1 2.625,0.5 15.5,13 5.875,8.7187 4.5,3.6875 5,4.5938 5.5,2.125 2,3.0937 0.5,4.5937 -2.1875,14.8126 -3.5937,12.7812 -1.0938,8.7188 -6.125,7.6874 -3.0938,5.5938 -6.5,3.5 -11.5937,-0.094 -5.0937,3.5938 -3,1 -1.5,-2.0938 2,-2.5 4.0937,-2.5937 4,-4 4.5937,-5.0937 3.0938,-5.625 1,-6.6876 0.125,-4.5937 -2.5,-6.7187 -2.9062,-13.7813 -2.5,-1.0937 -0.4063,-4.625 -1,-3.0938 0,-2 -4.5,-0.094 -6.0937,-2.5937 -6.5,-4.5937 -15.5,-5.3126 -3,-2.0937 -3.5,-6.5937 -0.5,-3.625 1.0937,-3.0938 4.6875,-16.9062 3,-7.0938 1.125,-2.5938 -6.125,-0.5 -7,-0.5937 -6,-1.0937 -3.5938,-2.125 -28.6874,2.4062 -4,2.5 -7.0938,1.5 -4.5,0.4062 -5.125,4.5938 -4.0938,2 -8,1.5 -7.0937,2.5 0,1 2.5,0.5938 4,-0.5 6.5937,-1.5 0.5,1.5 -2.5937,1.625 1.5,1 1.5,1.5 3.5,3.0937 5,5.1875 1.5,4.0938 1,2.125 -1.5,1.5 -3.0937,7.6874 -0.5938,2.5 0.5,2.0938 2,2.5938 3.5,3.625 0,2.5 1.875,9.7812 1,6.0938 -2.5938,4.625 -1.5,0 -2,-0.5 -3,-0.5 -3.5,-3.7188 -3,-4.0938 0.5,-2 -3,-6.6874 -9.4062,-12.4063 -7,-6.2187 0.5,-2.5938 1,-1.5 1.125,-2.5 -0.5,-5.6875 -1,-4.0937 0.5938,-2 -1,-8.2188 -1.4063,-3.0938 -1.0937,0.5 -0.5,1 -1.5,0.5 -0.5,-1 0.5,-1.0937 2.0937,-2.5 1,-3.0937 1,-2 1,1.5 0.5,2.5937 0,1.5 0.5,1.5937 1,0 0.5,-1 1,-0.5 -1,-2.5937 -1.4063,-5.5937 -2.5,-7.8126 -4.9062,-8.6874 -2,-3.125 -3,-6.1876 -3.375,-6.1874 -2.5,-1.5 -4.125,-1.125 -2.5,-2.0938 -4,-3.0938 -4.375,-4.5937 -8,-8.3125 -6.5,-8.1875 -5,-4.7187 -2,-2.5938 -1.5,0.5 -0.5,3.0938 -2,1 -2,-1.5938 -4.125,-1.5 -0.5,-0.5 -3.5,1 -1,-1.5938 -4,-0.5 -3,-0.5937 -2,0 0,1.5 -6.0938,0 -6.5937,3 -7,1.5 -3,-0.5937 -0.5,-0.5 -1,0 2.5,-2.5 4.0937,-3.625 4.5,-4.5 3.0938,-3.5938 5.625,-7.0938 7.5938,-6.0937 3.5937,-2 0.5,0 -0.5937,2 0,3.5937 0.5,3.5938 0,1 -0.5938,2.5938 -1,4.125 -0.5,1 1,0.5 0.5,1 1.5,-1 0.5,-2.5 0.5,-3.625 6.6875,-12.2813 5.5937,-1.5 2.5,-1.5 2,-1 3.5938,-1 4,-1 2.5,0.094 2,-1.5937 1.625,-2 -1,-2.0937 -2.5,0.5 -4.625,2 -4,2.0937 -3.0938,2 -5,1 -5.0937,0.9063 -4.5,0 -5.5,1 -6.0937,4.5 -8.7188,8.1874 -6.5938,7.5938 -2.5,4.0938 -5.5937,5.625 -3.5937,4.5937 -2,2 -3.0938,3.5937 -1.5,1.5 -3.625,2 -3.5,3.5938 -5.5938,4.5 -6.5937,4.0938 -11.6875,7.625 -7,3 -4.625,-2.625 -6.5,0.9062 -2,-0.5 -3,-2.5938 -5.0938,0 -4.5,-1.0937 -1.5,-2.0937 -1,-1 -12.0937,5 -8.5937,2 -6,-0.625 -0.5,0 -7.0938,1 -7,-3.1876 -4.5,-1.5 -9.125,-0.094 -10.5938,3 -4,-0.094 -6.0937,0 -9.5,-1.7188 -8,-2.5938 -4.0937,-2.0937 -3.5,-0.5 -3,-1.5937 -8,-2.625 -7,-3.1876 -4.5,-2.0937 -2.5,-2.5 -3,-6.7187 8.5937,-3 7.0937,-1 8,-0.875 4.5938,1 1.5,0 4.5,0.5937 4.5,1.0937 2,0.5 3.125,-0.5 -0.5,-1.5 -4,-1.5937 -11.125,-1.5937 -3,-0.625 -11.5938,0.4062 -8.5937,1.5 -6.5,1.5 -5.0937,2.5 -6.5938,2.5 -14.625,-0.1875 -10.5938,1 -7.5,-2.7187 -3,-3.5938 -4.4062,-8.6875 -4.5,-4.7187 -7,-2.5938 -5.0938,-0.5938 -4,1.5 -1.5,3.0938 -3.5937,1.5 -4,2.5 -2.0937,4.0938 -1.5,1 -13.7188,3.5 -4.5,-2.0938 -5.5,-0.094 -1.5,-1.5 -4.5,-0.5937 -9.0938,-1.5937 -3,-1.625 -5.5,-3.5938 -1,-2.0938 2.0938,-2 1.5,-1.5 -0.5,-1.5937 -1.5,-2.0937 -1.5,-0.5 -1.5,-1 -3,-2.125 -1,-2.5938 -3.5,1 -2,-2.5938 -4,-2.5937 -4,-1 -5.5,-2.0937 -6.5,-1.625 -2.0938,1 -2.9062,-2.5938 -6.5938,0.9062 0,-3.5937 -5.5,0 2,1.5 0,2.5937 -2.0937,2.5938 -8.5937,3.5 -4,-1.5938 -2,-2.5937 1.5937,-1.5 -0.5,-2.5937 -3.5937,0.5 -3.5,1.5 0,3.0937 -2.5938,1 -2,-1.5937 -3.5,-1.125 -7.5,0 -7.625,1.9062 -8.0938,4.0938 -9.0937,-0.5938 -9,-0.094 -14.0937,-2.1874 -4,-5.2188 -3,1 -5.0938,2.5 -9.625,2.5 -10,-0.094 -5.0938,-0.5937 0.094,-1.5 -1.5,-2.5937 -0.5,-1.5 -2,1 -2,0 -1.5,-2.125 -3.5938,0 -4,0.9062 -4.5,0 -4.5,-1.0938 -6.0937,0.5 -10.0937,-1.1874 -9.5,-1.625 -2,-3.0938 -1.5,-2.5938 -2.5,0.5 -3,0 -21.2188,0.3126 -3,-1.125 -4,-3.0938 -6.5,0.5 -3.5,-5.1875 -2,0.5 -6.5,-0.5937 -5.5938,-1.125 -1.4062,-3.0938 -3.5938,0 -8,-0.5938 -6,-2.0937 -4.5,-3.2187 -4,-2 -0.9062,-7.1876 -3.0938,1.5 -11.5,-8.9062 -16,-6.7812 -0.5,-1 -4,-0.125 -0.5,-3.0938 -0.4062,-2 0.5,-3.5938 0,-2 -2.5,-1.0937 0,-1 1.625,-1 2,0.5 1,1.5 0.375,5.1875 1.5,0.5 1.625,-4.0938 -1.5,-3.0937 2,-3.5 0.5938,-2.0937 -3,-1.625 -3.5,-2 -13.5938,-3.7813 -6,-2.0937 -2,-3.625 -8,-3.1876 -2,-3.0937 -12.5,-5.7187 -4.5,-2.6876 -2.5,-2 -6,-3.1874 -0.4062,-3.625 -21,-8.375 -1.5,-5.2188 -4,-0.5 -4,-2.0938 -1.5,-3.0937 -1.5,-1 -3,-0.094 -3,-2.125 -3,-1 -1,1 -1.0938,4.625 -3.5,2.5 -6.125,2.5 -6.5,-0.625 -5.5938,-1.5938 -1.9062,-2.5 -8.0938,-0.5938 -3,-3.1874 1.0938,-3 0,-3.125 -6.5,-4.6876 -9.5,-3.1874 -14,-3.7188 -1.5,-2.0938 -6.5,-6.6874 -3,-3.7188 -5,-1 -3,0.4062 -2,0.5 -9.0938,2 -3.5,-1.5937 -8,-4.2187 -5,-4.6876 -3.4062,-4.5937 -4,-1.5937 0.5,-3.625 -4.5,-3.0938 -4.5,-2.5938 -4.5,-0.094 -4,-1.0937 -3.5,-3.625 -1.5,-1 -0.5,-2.5938 -5.375,-5.6875 -10.5,-5.3125 -3,-4.5938 -4,-2.0937 -5,-4.2187 -5.9062,-3.5938 -1,-1.0938 -5,-2.5937 -3.5,-5.2187 -3,-0.5 -3,-3.0938 -4.5,-1.5938 -2,-2.5937 -3,-1.0937 -5,-0.5 -4,-0.625 -4.5,-4.0938 -6.9063,-6.7812 -3,-4.125 -4.5,-5.1876 -3,-0.094 -3.5,-1 -2.5,-3.0937 -2.9063,-2.125 -3.5937,0.5 -2,-2.5938 -5,1.4062 -2.5,1.5938 -4.5937,2.5 -8.5938,0.4062 -5,-0.094 -1.5,-2.5937 -2.9062,-5.125 -0.9063,-6.1876 -3.5,-2.5937 -1.5,-3.5937 1,-1 1.0937,-3.125 -2,-1.5938 -12.0937,-1.5938 -2.4063,-2.0937 -1.5937,1 -2,2.5 -4,0 -4.5,-3.2187 -1.5,0 -3.5937,1.5 -5.5,-1.0938 -3.5,-1.5938 z m 1546,45.1876 -4.0938,1.5 -1.5,2.125 -2.625,3 -4.5,6.1874 -2.5938,4.0938 -4,-0.5938 -3,0 1,-1.5 1.5,-0.5 1.5,-2.5937 -0.4062,-3.5937 -3,-1 -6.0938,0.875 -5,2.125 -3.5,-0.125 -4.5937,-0.5 -2,2 -0.094,5.7187 0.9062,15.4063 -2.125,10.6874 -3.5938,12.3126 -3.5937,6.5937 -4.0937,5.6875 -3.5,6.0938 -4.0938,6.625 -3.125,6.1874 -2,2 -3.0938,2.5 0.5,1.0938 -3.5,6.0938 -2.0937,4.625 -5.0937,5.5937 -4.5938,6.0937 -1.5,1 -4.625,9.1876 -2.5938,6.7187 0,5.0937 -3.5937,7.1876 -5.5937,7.625 -5.0938,8.6874 -9.7188,15.3126 -1.0937,9.6874 -1,1.5938 -2.5937,5.0938 -3.0938,12.8124 0.5,5.0938 6.875,5.7188 7.125,2.5937 4,3.5937 4.875,7.3126 2.5,4.0937 10.125,4.6875 6.5,2.5938 7,8.7187 3.375,3.0937 4.5,5.6876 5.4062,17.5 2,6.7187 2.5,1 3.5,-3 4.5938,-2.5937 10.625,-4 7,0.5937 6.0938,0.5 13,6.7813 5,8.8124 4.7812,25.5938 1.4062,14.9062 -3.5937,13.3126 -2.5937,10.6874 -4.0938,8.1876 -2.625,7.7187 0.4062,6.5937 4.5,5.1876 4.5,7.2187 4.4063,9.7813 0,9.7187 -5.1875,10.1875 -6.5,2.5 4.5,5.2188 7.375,10.7812 7,8.2188 15.625,5.7812 10,6.2188 1,7.6874 2,3.5938 -1.125,6.2188 -6.0938,11.1874 -1.0937,2 4,4.0938 4,2.5938 17.6875,-5.5 0.625,-3.5938 3.5,-5.5938 5.5938,-4.5 12.5937,-4 9.5937,0 6,4.1876 3,8.2187 8,7.6875 8.4063,15.4062 1.5,9.3126 -1.0937,8.1874 -3.0938,4 -1,4.0938 1.5,6.2188 1.5,4.0937 5.375,6.6875 1.5,4.5938 8.125,1.125 5,1.5937 3,-1.5937 2.5938,-1.5 5.5,2.0937 4,4.6875 5.5,5.5938 7,1.625 1.5937,-9.7188 -0.4063,-6.1875 -1,-4.0937 6.5938,-8.125 3.125,-4.5938 6,-3 2.5938,-3.0938 -0.5,-3.0937 0.5,-6.0937 2.5937,-4.625 2.0937,-8.1876 -1,-9.1874 -1.9062,-9.8126 -0.5,-6.0937 -2.375,-4.5937 -4.125,-2.625 -3.875,-7.1876 -3.5,-12.8124 0.094,-10.7813 0.094,-12.3125 -1.9063,-7.6875 -5.5937,-1.0937 -13.0937,-2.625 -10,-7.7813 -6,0 -5.5,-2.5937 -7,-5.7188 -5.0938,-4.0938 -2.9062,-7.1874 -5,-7.2188 -5.5,-10.2812 -2,-1.125 -5.5,-6.0938 -3.9063,-4.6875 -4,-5.7187 -2.5,-6.0938 -3.5,0.5 -5.5937,-0.5938 -10,-2.0937 -6.5938,-0.094 2.875,12.375 6,16.9062 -4.6875,9.2188 1.5,4.5937 2.5,8.7813 2.4063,14.3124 -4.0938,5.5938 -1,5.0938 -3.625,4.125 -0.5938,5.6874 -6.5,3 -5.0937,1 -3.5,0.5 0,-2.0937 0.5,-3.5937 0.5937,-4.625 1,-4.5938 0.5938,-5.5938 0.5,-6.1874 0.125,-3.625 -1,-5.0938 -3.5,-4.0938 -3.5,-2.0937 1,-4.5937 1.5938,-5.625 -0.5,-7.1876 -0.4063,-7.6874 -3,-1 -2.5,-1.625 -2.5,-5.0938 -3.9063,-10.2812 -3,-6.7188 -2.5,-5.5938 2.0938,-4.0937 4,-4.0937 1.625,-2 3,-5.125 -0.4062,-7.1876 -2.5,-5.6874 -3,-5.125 0.094,-8.1876 -1.4063,-11.3124 -4,-5.1876 -3,-3.0937 -1.5,-7.7187 -1.9062,-10.1876 -1.375,-14.4062 -9.5,-10.7812 -2.9062,-7.7188 -4,-9.7812 -2,0.5 -4,-2.125 -4.5,-5.6876 -3.5,-3.5937 -1,0 -4.5,0.5 -5,-3.5937 -4,-3.7188 -5.0938,2 -4,1.5938 -5,-2.0938 -3,1.5 -4.625,0.5 -6,-0.5938 -4.5938,1 -4.5,2.5 -7.0937,3.5938 -9.5937,1.9062 -2.9063,-4.5937 -2,-5.7187 -2,-1 -1.5,-3.0938 0,-5.5938 6.0937,-1.5 10.0938,-3.5 9.125,-2.5 5.5,2.0938 3.5,-1 3.0938,-2.5938 5,2.0938 6,-1.5 5.0937,-1 5.5937,-7.5938 1.0938,-6.6874 1,-6.625 -2,-5.1876 -5.875,-8.1874 1.5,-7.2188 3.0938,-3.5938 4.5,-2 3.5937,-3.5 3.5,-0.5 1.5,-0.5 2.5,1.5 1.5,3.0938 0,4.0938 -3,0.5 -7.0937,2 2,2.125 3.5,6.1874 5,4.0938 4,0.5 2.5,-2.5 -2.4063,-5.6875 3.5,-6.0937 2.5937,-3.125 0,-2 1.5,-1 1.0938,-6.1876 0.5,-2.5 6.625,-2 10,-2 7.5938,1.5938 13,10.3125 2.9062,6.1875 -2,5.5938 0.375,5.7187 3.125,1 0.5,-3 1,-4.0937 0.5938,-3.625 4.5,-0.5 12.5937,-0.375 8.5937,-4.625 3.5,-5.0938 6.0938,-3 3,-3.5938 1.625,-5.0937 -1.5,-7.7187 -8.9062,-15.5 -6,-2.5938 -1.5,-1.5 -2,-3.5938 -5,-3.0937 -3.5,-3.0937 -5,-6.7188 -8.5,-6.7812 -8.5,-4.7188 -11.5,-3.5938 -2,-1.5937 -3,-2.0937 0,-1.5 2,-1 4.0937,-3.625 2.5,-5.5938 3.5937,-3.5938 1.5,-3.5 -3.9062,-7.8124 -0.5,-2 0,-4.0938 1.125,-6.1875 0.5,-6.0937 -1,-1.625 -1.5,0.5 0.5,1.125 -0.5,3 -3,-0.5 -2,-2.625 -1.5,-3.5938 0.5,-4.0938 -1.9062,-4.0937 -2,-1.5937 -3,-2.5 -1.5,-0.625 z m -249.8126,302.2187 -1.5,1 -2.5937,2.5937 -3.5937,4.0938 -2.5,2 0,2 0.5,1.0938 3.5,0.5 3,-1 3.5937,-1 1.5,-1.5 1.5,-1 2,-1 2.0937,-0.5 2.5,-1 2,2 2,0 0.5,-2.5 -5.5,-1.5938 -3.5,-2.0938 -2.5,-1 -3,-1.0937 z m 175.4063,37.7813 -9.0937,2 -22.7188,8.5 -4.0938,7.2187 2,3.0937 2.5,-2.0937 0.5,-2.5 2.5938,-2.0937 3.5,-1 4,-0.4063 2.5,6.0937 3,7.6876 1.9062,7.2187 3,5.1875 3.4063,11.8125 4.0937,-0.5 1.9063,3.0937 0.5,7.1876 -1.5,0.5 -0.5,-2.0938 -2,-3.5938 -4,-1 -2,1.5 -0.094,3.5938 1,4.5938 1.5,5.625 6.9062,8.7812 -1,3.5938 -4.125,6.625 -2,2.5937 -0.094,3.5 -2.5,-0.5 0,-1.5 0.094,-3.0937 -0.5,-7.7188 -1.375,-6.1875 -3,-1.5 -2,-1.0937 -1,-3.5 2.0938,-6.7188 -2,-2.5938 -0.5,-4.0937 -2.4063,-13.8125 2.5,-4.0938 -0.9063,-3.5937 -1.5,-3.0937 -2,-2.625 -0.5,-1.5 -0.5,-6.1876 -0.9062,-4.5937 -2.5938,1.5 -1.5,2.5937 -3,3.5 -4.0937,-1 -1,3.5938 -1,4.5938 1.9063,6.125 0.9062,11.2812 -3.125,10.8125 0.5,2 4,7.1875 0,2.0938 0.9062,3.625 7,9.7812 4,1 3.5,1.5938 0,2 -2.5,0 11,8.8124 4,0.5 1.5,4.1876 6,3.625 8.5938,-4.125 4.125,-5.5938 -1,-2 0,-3.0938 1.5938,-6.5937 0,-5.2187 -1.5,-1.5 -3,-2.0938 -2.4063,-5.0938 -2,-9.3124 -0.9063,-9.6876 -0.9062,-11.8124 0.625,-6.6876 -4.5,-15.4062 -0.4062,-3 0,-3.0938 1.5937,-4.5937 4,-4.0937 -5,-3.125 z M 1784.5,1116.5 l -4,1.5 -1,2.5 2.4062,4.0938 2.5,4.2188 0,2 13.0938,5.6874 2.5,1.5938 3,-1.5 -1.5,-3.0938 -2,-2.5937 -1.5,-4.5937 -3,-1.125 -2.5,-1 -3,-2.5938 -0.5,-3.5938 -4.5,-1.5 z m -213.2812,85 -3.5,1.5 -1.0938,1.5938 -1,4.0938 -2,2 0.5,0.5 1.5,0.5 1.5,1.125 0.5,1.5 -0.5,1.5 -1.125,3.0937 1,1.5 5.625,0.094 3.5,2.0938 4.5,1 2,3.5938 3.5,5.7187 6.5,8.6875 -0.625,2.5938 -1,-0.5 -5,-3.0938 0,2.5 1,5.7188 3.9062,7.1874 3.5,8.1876 1.2188,5.3437 44.5312,0 -0.4374,-1.9375 -3,-4.0938 -0.4063,-2.0937 -1,-3.0937 -1,-4.625 -3,-4.5938 2.5937,-13.2812 -5.5,-0.625 -3.5,0 -3,-3.0938 -4,-3.5938 -2,-1 -4.5937,-0.5937 -10.5937,-0.5937 -10.5,-0.625 -4.5938,-2 -2.4062,-2.5938 -4.5,-7.1875 -2,-5.7187 0,-5.0938 -2,-1.5 -3.5,-0.094 z"
     id="rect6"
     inkscape:connector-curvature="0" />
  <path
	 style="fill:#9FAEC0"
	 stroke="#9FAEC0"
	 stroke-width="10"
	 transform="translate(0, 75)"
     d="m 140.6562,1269.5313 1.25,0.875 2.5,3.5937 2,-1.5 2.5,-1 4.5938,1.0938 2.5,3.0938 -0.094,1.5 3.5938,-0.375 1.9062,3.0937 1.5,5.0937 0.4063,7.1876 1,4.125 1.9063,3.5937 -0.5,4.0937 -0.5938,2 0,3.0938 -0.625,4.0938 0,2 4.9062,9.8124 0.5,4.5938 0,2.0938 -3.5937,0.5 -1,1.5 2,2.125 2.5,1 2,0 3,-1 3,2.0937 2,1.5937 2.5937,0 1,-1 1,0.5 2,2.0938 0.9063,4.0938 4,6.7187 2.5,2.5937 6,3.5938 1.4063,5.2188 3,5.0937 2.4062,6.1875 1.875,13.8125 -1.0938,5.6875 1.5,3.5938 0.4063,2.5 1.3125,15.4062 2.875,15.9062 1.9062,4.5938 4,9.3125 0.9063,1.5 4.4063,14.9063 -0.5938,4.5937 2.875,11.7813 0.4062,7.2187 1,2 2,5.6875 1.4063,6.7188 -0.094,9.6874 3.7812,16.4063 2.4062,8.6875 0,3.0938 0.9063,8.7187 1.9063,8.1875 2.2812,16.4062 1.3125,17.4063 0,4.5937 0.9063,7.1876 0.9062,7.7187 0.2812,13.7813 1.9063,10.2187 0.5,5.1875 1.4063,7.0938 -1.0938,5.7187 0,1.5 0.6875,24.5 1.1875,22 -0.5,1.5938 -1.5,0 -1.5,0.5 0,1 1,1 2,1.5937 -0.094,3.5 -1,2.0938 -1,1.5 1.5,1.5 1.4063,2.625 0,4.0937 0.4063,11.2813 -1.0938,8.625 -0.125,5.1875 0,2.5 5,4.1875 0.9062,1.5 0.5,4.125 1.9063,8.1875 0.9063,8.1875 0,4.625 -1.0938,3.5937 0,3.5 -0.125,3.5938 1.5,3.5937 1,2.0938 -0.094,4.625 0.5,2 0.5,1.5937 4.5,1.5 6.0938,1.5938 3,2.0937 3.5,1.0938 7.125,1.125 3.5,-0.5 5.5,5.6875 1,2.5937 -1,0.5 -0.625,1 -7,-5.1875 -7.5,-2.0937 -2.5938,0.375 3.5,8.8125 1.4063,8.1875 1.9063,7.125 1.5,5.6875 3.2812,13.8125 1.5,4.0937 1.5,2.0938 1.5,1 0.5,0 0,-1.5 0.5,-1.5 1.125,-0.5 3.5,-0.5 5,1.0937 3.5938,2.5938 4.4062,4.625 5,5.1875 1.5,4.5937 7.1875,28.2188 2.5937,11.3437 997.7188,0 2.5,-1.8437 6,0.5937 2.0938,0 20.2812,-11.0937 0,-5.125 -2,-7.1875 -0.375,-5.5938 4,2.0938 -1,3.5 2,3.0937 0.375,3.0938 12.2188,-3.5 4.0937,-6.0938 0.5,-4.0937 5.5937,-7.5938 4.2188,-15.3125 -3,-2.5937 5.5938,-8.5938 -3.5,0.5 3.5937,-11.2187 0.5937,-8.6875 -3.5937,2.5 -2.4063,-9.6875 4.5938,-5.625 3.7188,-15.2813 -2.5,-9.2187 5.5937,-1 5.4063,12.3125 -1.0938,9.1875 -2.5,5.125 0.375,9.1875 3.5,8.1875 2.5,4.125 -1.5938,5.0937 3.5,1.5 9.2188,-5 5.5,-3.5 -1,4.5938 0.875,6.0937 -3.5,5.5938 0.9062,6.7187 5.5,3.0938 9.7188,-1 0.875,3.0937 -5.5,2.5 -9.0938,0.4063 -1,-4.5938 -2,0.5 -0.094,3.0938 -3.0937,11.1875 -0.5938,9.7187 0.375,12.2813 6.2188,-7.0938 1.9062,3.0938 -5.125,7.625 -2.0938,9.1875 -0.5937,1.6562 32.5313,0 1.4687,-2.4687 6.1875,-14.7813 6.125,-11.7187 4.6875,-12.6875 -2,-0.5 -2.5937,3.5 -1.5,-1.5 2.0937,-8.1875 -3,-6.125 3.0937,-0.5 1.9063,2.5 2,4.125 1,0.094 9.1875,-4.0938 3.625,-6.125 6,-3.5 7.1875,-4.5937 -0.5,-1.5 -4.5937,-0.5 -1.4063,-8.1875 3,-2 4.5,7.0937 6.5937,-5 11.7188,-5 13.0938,-4.5 13.1874,-6.5937 -1.5,-4.5938 -2.5,0.5 2.0938,-7.7187 -2.5,-4.0938 3.625,-4 0,-4.0937 0,-3.5938 5.5938,-5.625 0,9.2188 -0.094,1.5937 -3.5,6.5938 0.375,4.0937 3,12.3125 1.9062,10.1875 -4.0937,2 -4.5,0.5 -2.5937,4.625 0.5,4.0938 -8.0938,2.5 -5.125,5.5 0.5,3.5937 -2,1 -3.0938,-1.5 -8.5937,9.5938 4,5.2187 2.5,-1 2.5,2.5 3.5937,-3 0.5,1 -2.5937,10.1875 2,3.0938 -5.0937,0.5 -7.0938,4.5 -0.5,-2 1.5,-3.0938 5.5938,-2.5 -1,-4.0937 -4.5,-1.5938 -6.5938,2.5 -0.625,9.6875 -2,5.0938 -7.6875,10.2187 1.5,3.0938 7,6.6875 0,2.5 -0.5625,0.5625 46.0938,0 -0.031,-0.1563 4,-1 0.4375,1.1563 39.9688,0 -5.5,-7.0625 -1.5,-4.5938 -5.4063,-20.5 -0.9063,-2.5937 -2.5,-4.5938 -0.5,-2 4.5,1 2,2.5938 0,4.5937 1.5,0.5 5.5938,-8.0937 6.7188,-11.2188 2.5,-8.6875 2.6874,-11.1875 6.5938,-6.625 4.125,-4 -6.5,-9.7812 -4,-6.2188 -2,-6.5937 1.0938,-5.5938 1,-4.0937 0.5,-2.0938 3.5937,-7.625 4.0937,-5.0937 -1.5,-3.0938 -2.5,-2.5 -2,-2.5937 1,0 5,2.5937 4.0938,-3.5937 2.625,-3.5 -1,-8.2188 0.5,-3.5937 -0.9062,-5.5938 0,-4.0937 0.5,-3.0938 0.5937,-2.5 2,-1.5 1,-4.125 -0.9063,-4.5937 0.5,-5.0938 0.5,-1.5937 0,-2 0.5938,-1.5 4.5,-3.0938 2.125,-2.5 2,-3.125 0.5,-3 0.094,-3.5937 0.5,-2.5938 2,-2 6.1874,-9.1875 1,-1 0.5,-1 1,-1 0,-4.625 1.5938,-1 2,-1.5 2,-2.5937 2.125,-1.5 -0.5,-1.5 -3,-4.6875 -1.5,-2 -1.5,-2.5938 -4.125,-0.5 -4,0 -24.1875,-3.8125 0.5937,-5.0937 0.5,-3.5938 1,-3.1249 2.5938,-5 2.125,-6.6876 0,-3.5937 -2.5,-7.0937 0,-3.6251 1.0938,-2.5938 3,-3 3.0937,-1.5 0.5,-1 0,-1.5938 -6.5,-3.5937 -0.5,-0.5 -2.5937,0.5 -1,1.5 0.5,2.5937 0,1 -0.5,0 -1.5,-1.5937 -0.5,-4.0937 -1,-1 3.0937,-3.625 2,-3 0,-1.5 -1,-0.5938 -1.5,0.5 -0.5,-1 -0.5,-0.5 1,-3.0938 -0.5,-2 0.5937,-3.0937 0,-2.5 -3,-1.5937 -2,0 -2.0937,2.5 -3.5,2.0937 -6.0937,0.9063 -1.5,3.0937 -2.0938,4.0937 -1.5,2 -1.5,1 -2.625,1.5 -0.5,3.5938 -2.5938,2 -2,1.5938 -2,3 -4.5937,5.125 -4.0937,7.5938 -1,2.0937 -4.0938,3.5 -2,0.5 -2,-0.5 -2.625,-1 -2,-0.094 -2,1 -1,2.5937 -2.0938,1 -6.5,1 -2.5,-0.5937 -1.5937,1.0937 -0.5,1 -1.5,1.5 -3.5937,2 -2,0 -3.5,-0.5 -3,-1.5937 -2,0.5 -1,0 -2.0938,3.0937 -2,3 -1.125,2 -3.5,1 -3,1 -2.0938,2.0939 -5,0.4062 -0.5,0 -1.5937,1.5938 -0.5,-1.0938 -3.5,0 -2,-0.5 1,-1 2.5937,-2.0938 6.5,-1.4063 3.0938,-2.5937 3.5,-2.5 2.625,-5.5937 0.5,-3.625 4.5938,-3 3.0937,-2 1,-2.0938 3,-3 1.5,-0.5 2.5937,-1 2.5,-1.5938 2,0.094 2.5938,0.5 2.5,0 2,-1 1,-1.5 1.625,-1.5 2,-0.5 2.5,0.5 2,-0.5 1.5938,-3.5938 0.5,-3.5937 -1,-5.5937 -2,-0.5 -0.5,-0.5 -1,-4.125 -2.5,-1.0938 -5,0 -3,-1.5938 -3.0938,0 -0.5,-1 0.5938,-2.5937 -4,-4.0937 -2,-2 -1.5938,-0.125 -1,7.7187 -1,1 -3.625,-1.5 -1,-2.0937 -0.875,-2.625 -0.5,-1 2,-3 1.5,-2.0938 0.094,-4.5938 0.5,-2 0,-2.0937 -1.5,-3.5937 -2,-1 -1,1 -1,2.5937 0.4062,6.5937 -0.5,2.5938 -0.5,3.5938 -0.125,3 0.5,4.125 -1.5,1.5 -0.5,0 -0.5,-2 0,-3.125 -0.5,-3.5938 0,-2 0.125,-3.5938 0,-1 -2,0 -2.125,2.5 2,3.0938 -1,3.5938 1.4062,5.625 1,3.5937 0.5,2 2,-0.5 0,3.0937 1.5,3.0938 0.5,1.5 -6.5937,-1 -1.5,-2.0938 0.5937,-2 0,-8.6874 -1.5,0 0,5.0937 -1,0 -4.5,-6.7187 -1,-1.0938 1,-6.0938 0.5938,-0.5 1.5,-1 1,-0.5 0,-2 -1.5,-1.5937 1.125,-12.8125 -4.5,-4.0938 -2.5,1.5 -0.5,1.5 -1.625,3.5938 -4,0 -3,-2.5938 -1.5,-5.0937 2.125,-10.2187 1.5938,-8.6876 1.5,-3.0937 1.0937,-6.0937 4.0937,-7.7188 3,-3 3.5938,-2.5 4,-1.5 1,3 0,1.5938 2,3.125 5,6.6874 -3.5938,9.5939 -0.5937,4.5938 3.5,3.125 4.5937,3.6874 2.5,2 1.5,2.5938 -0.094,4.5938 -1,4.125 0,3 3,2.5937 -0.094,2.5937 1,4.0938 2.5,3.5938 4,6.125 1.5,1.0937 1.5,3.0937 8.0937,1.5938 4,2.5 1.5,3.0938 1,1.625 3.9063,6.5937 2,2.0937 4.0937,1.0938 2,-2.0938 2.0937,-5.5937 2,-4.0937 3.5938,-7.625 3.625,-11.1876 1.0938,-3.5937 -1,-2.0937 -3,-3.625 -1,-1 3.0937,-10.1876 0.5937,-7.6874 1,-2.5 1.5938,-16.4063 -1.5,-1 -5.5,-0.5937 -1.5,-2.5 -0.5,-4.625 0,-1.0938 -5,-1.5 -1,-2.0938 -2,-1.5 -4,-0.094 -1,-0.5 0,-2 4,-0.5 2.625,-2 0.5,-9.8125 -1.9062,-7.5938 -1,-9.8124 0.5937,-5.5938 0,-3.0938 -1.5,-3.5937 1.0937,-3 0.5,-1.5937 0,-1 -1,-1 -3,1 -0.5,-2.125 6.5938,-2.5 0.5,-2.5 -2.5,-0.5938 -3,-3 -7.5938,-0.094 -1,1.5 4.5,2.0938 1,3.5938 -1.5,0 -1,-1 -2.5937,-1.0938 -5.5,-0.5 2.5,-2.0938 0.094,-9.1874 -1.5,-1.5 -3.0937,5.0936 -1.4063,-7.7186 -3.0937,2.5 -5.9063,-12.7814 -2.5,-4.0936 -1,-2.625 1.0938,-3.0939 2,-5.5938 2.625,-4.0937 2.5,-5.0936 1,1.5936 -0.5,3.5937 0.5,2.5 0.5,3.5938 0.875,3.0939 3,4.625 1.5,0.5 1,0.5936 1,5.0937 9.625,3.5938 1,2.0939 0.375,3.125 -2.5,-0.625 -1.5,1.625 0.5,2.5 0.5,3.5936 1.5,0.5 2,-2 2.5,-1.5 5.125,0 2.5,3.5937 2,4.0938 1.375,3.0939 -0.5,1.5 -0.5,2.125 1,1 2,2.0936 3,1 1.5,2.0937 4,2.0938 2.125,-2.0938 1,-4.0937 3,-0.4063 0.094,-2.5937 -0.5,-3.0936 4.5937,-6.125 3,-3 2.5937,-0.5 6.0938,-6.5939 0,-3.0938 1.5,-3.0937 2,0.094 2.625,-1.0936 4.0938,-12.2187 0,-4.0938 -2.5,-4.0939 -1.9063,-3.0936 -2.5,-2.5937 -1,-4.625 3.0937,-7.0938 -0.5,-2.0939 -2.5,-2.5936 0,-3 4.5,3.0936 1.5,2 -0.5,3.0939 0.5,1 1.5,3.5938 -0.094,2.125 0.5,1 1.5,4.0937 7.5937,0.5936 7.5,2.0939 4.5938,1.5 5.5,2.5938 4.5,0.125 7.125,-2 5.5,1.5 5.0938,-0.4063 4,-1.5 4.0937,-1.5 1.5,-1.5937 -0.5,-3.625 -0.5,-2 2.0937,-4.5938 -0.5,-4.5939 -0.4062,-7.1874 -2,0 -2,-2.125 -2.5,-3.5938 -1,-2.5 -0.5,-1.5938 0,-2 1,-2.5937 -1.5,-3 -4.5,-0.5937 -2.5,-2.625 -3.5,-1 -6,-8.1876 0,-1.5936 1,-1.5 3.125,-0.5 3.5,-0.5 3.5,-2 6.6875,-9.2187 -1,-4.5938 0.5,-3.0939 0,-2 -6.5,-6.1874 -2.5,-1.5 -1.5,-1.125 -1,-1.5 -2.5,-1.0938 -2,-3.5938 -1,-5.0937 0.094,-4.0937 -1.5,-4.625 1.5,-3.0938 0.5938,-2.5 -1.5,-4.5938 0,-4.5937 -0.5,-2.0937 -2.375,-6.7188 -2,-3.5938 0.5,-1.5 1.5,-4.0937 0.094,-5.0937 -1.5626,-6.7813 -44.5312,0 2.1875,9.4687 -0.5937,7.1876 0,1.625 -0.5,5.0937 -1.5938,5.0937 1,1 2.5,4.5938 2.875,12.3125 -1.5,6.6875 -2.0938,3.5938 2,6.625 3,-1 0,2.5937 -1.5,1 -3.0937,1.5 -2.5,2 -3.0937,3.5937 -0.4063,-1.5 -1.5,-2.0937 -2.5,-3.0937 -1,-2.625 1,-5.5938 -0.9063,-11.7812 0.5938,-4.125 0.5,-7.0938 0.625,-4.5938 2,-2.5937 -1,-1.5 -18.125,-1.7187 -7.1875,7.625 -0.5,4.6874 -3.0937,4 0.5,2.5938 -1.5,3.5938 -2.5,1.5 -4.5938,-0.094 -2.5,2.5939 -3.625,3 -5.0938,4.125 -2.5,1.5 -3.0937,6.0936 -2.5,5.0937 -5.5937,1.5 -3.5,3.5938 -5.7188,7.5939 -3,0.5 -3.5,2 -0.5938,3.625 -4.6874,18.375 -1,2.5 -3.5,2.625 -4.5938,2.5 -1,1 -2.625,3.0936 -4,2 -3.5938,1.5 -1.5,2 -3.0937,8.6875 -1.5937,8.2189 -2,3.5 -1.5938,5.1874 -1,3.5 -7.125,1.5 -0.5,5.0938 -3.5938,3.0938 -0.5937,7.125 -1.5,0.5 -2.5,3.5937 0.4063,7.6875 -0.5,5.5938 1.4062,3.625 1.5,3.0937 1.5,2 -1,5.0937 -1.625,4.0938 -0.5,8.2188 -2.0938,7.1874 -0.094,4.5938 -2,4.5 -3.5937,4.0938 -4,0 -4.0938,3 -3.5,1.5 -4.125,-0.5 -3.5,5.125 0.9062,4.0937 -1.5,2 -2,-2.5937 -2.5,-3.625 -3,0.5 -2.5,2 -4.0937,1.5 -4.5937,2.625 -6.5938,5 -4,2.5937 -6.125,2 -3,3 -2.0938,2 -1,-1 0.094,-3.5937 0,-3 1.5,-3.125 3.125,-5.5938 2,-2.5938 0,-1 -3,0.5 -11.625,4.5 -6.0938,4.0938 -0.5,1.5 -2.0937,5.5938 -8.5937,8.125 -1,-1.5 -1.5938,0 -6.5,1.5 -10.2188,7 -5,1 -8.5937,1.5 -2.5937,0.5 -0.5,3 -1.5,3.5937 1.4062,6.1875 -2,5.0938 -3.125,8.125 -3.5938,2.5937 -3,2.5 -3.5937,4.0937 -6.0937,3 0,1 -1.5,0.5 -1.5,-1 -5.5938,-0.094 -7,1 -0.625,2 -5.5938,12.7813 0.5,1.5 1.4063,3.125 -5.5,1 1.5,3 -0.5937,3.0937 -1.5,1.5 -4.5,0.5 -0.5938,2 -3.5,6.0937 -3.625,3.5938 -3.0938,3.5 -10.1874,13.8125 -3.5938,3.5 -3,-0.5 -7.125,10.1875 -4.6875,9.0937 1,3.625 -1.5937,13.2813 -2.0938,7.0937 -4.625,3.125 -3.5938,8.0938 -3.5,4.0937 -6.6874,5.5 -2,3.0938 -6.7188,9.7187 0,2 -2,4.5938 -3.0938,2 -2,2.5 -5.0937,6.0937 -0.5937,2.0938 0,3.5937 -1.5,3 -5.0938,5.625 -6.2188,11.1875 -2.0937,8.0938 -1,2.5937 -2.5937,0.5 -0.5,1 -7.2188,16.3125 -2.5,2.5 -1.0938,1.5938 1,2 1.5,2.0937 2,6.125 0.9063,7.1875 1.5,1.5 15.1875,2.1875 2,-1 0.5,-1 2.625,-1.5 6,1.5 11.0938,5.3125 5,0 1,-1 0,-1.5937 1.5937,-2 6.5937,-3 1.5,2.0937 0.4063,2.5 -1.5,1.5 -5.5,0 -0.5,0.5 -0.094,3.0938 -1,3.5 2,3.5937 5.5,3.125 8.5937,1.0938 6.5937,-3.5 0.5,-3.5938 6.2188,-13.2187 3.5938,-5.5938 15.1874,-5 5.5938,-3 1,-3.5937 3,-2.5 8.125,-1.5 12.6875,-4.5 29.4063,-15.5938 2.5,0.5938 2.0937,1 2,-4.5938 1.0937,-3 3,-1 5.5938,-1.5 6,0.5 1.625,-2.5 4.5,-2 0,-3.625 2.0938,1 4,-0.375 3.0937,-4.125 4.5,-5.0937 1.0937,-3 3.5,1 1,-3.5938 1.5938,1.0938 3,-3.0938 1,1.5938 -4.0938,6.0937 1,3.625 1.5,4.5938 -6.5937,2.5 -9.6875,10.0937 -3.625,2.5938 -9.0938,10.5937 -6.0937,2.5 -7.0937,5.625 -12.8126,12.1875 -2,0.4063 -3,0.5 -3.5,-0.5 -5.5937,2 -5.0937,4 -7.0938,1 -5.625,1.5 -9.5938,0.9062 -5,0.5 -1,0 -17.2812,11.5938 -10.125,6.0937 -2.5938,4 -3.0937,4.5938 -7.5937,3 -5.5,0 -4.5938,1.5 -4,-2.0938 -3.625,1 -6,-0.094 -8.0938,0.5 -2.5,-6.7187 -3,1.5 -7.0937,-4.0938 -6.5,-0.5937 -4,-1.0938 -4.0937,1.5 -0.5,3.0938 -1.7188,14.8125 -5.5938,1.5 -0.5,4.0937 -1.5,-0.5937 0,-3 -1,-1.625 -2,4.625 -3.0937,0 -1,-1.5 0.5937,-3.125 -6.0937,-2.0938 -4,-1.5937 -3.5,-3.0938 -5.5,-2.5937 -1,-0.5 -1,-1 -0.5,-1 -1.5,-1.625 0,-1 0.5,-3.5938 1,-1 2.5937,-4.0937 -1,-2.5 -0.5,-3.0938 0.094,-3.0937 0,-1 0.5,-1 2,-0.5 3,-0.5 0.125,-1.5 0.5,-0.5 1.0938,-9.7188 3.0937,-14.2812 4.1875,-9.2188 5.125,-10.6875 2.0938,-6.0937 1,-4.625 4.5937,-8.0938 6.6875,-12.6875 3.625,-6.7187 1.0938,-8.5938 4.0937,-5.0937 5.0937,-4.0938 3.5938,-5.5937 3.5,-3 0.625,-3.625 2.5,-3.5 2.5938,-2.0938 1.5,-1.5 4.0937,-5.0937 10.6875,-10.5938 3.625,-6.5937 0.5,-1 1.5,-3.625 -0.9062,-3.0938 6.1874,-17.2812 -1,-4.125 2.5,-3.5938 4.0938,-3 2.125,-5.5938 2.0938,-5.0937 -3,-3.0937 0.5,-2 1,-1.125 3,-1 4.0937,-3 2.5,-2.5 2.5937,-3.5938 5.0938,-2.5 2.5,-3.5938 -0.5,-3 2.125,-1.5937 3.5938,-6.5937 1,-3.5 2.0937,-6.2188 3.5,-3.5 4.5937,-6.0938 7.2188,-11.6874 0.5,-1.625 0.5938,-2 4.0937,-10.6876 4,-0.5 2.5937,0 6.5938,-4.5 4.625,-6.0937 1,-0.5 3,1.5 7.0938,-4.5 0.5,-5.0937 2.0937,-0.5 1,-1 1.5937,-11.8126 1,-0.5 1.5,-1.5 3.5938,-1 3,2.0938 4,3.0938 6,0.5 3.125,-2.5 0.5,-2.5938 2,-1 -0.5,-1.5 -0.4062,-1 -2,-4.5938 0,-2.0937 2,-2.5 0.094,-3.0937 -2.5937,0.5 -2.5,2 -4.5938,2.5 -2.5,-0.5 -0.5,-1.5 4.5938,-2.625 3.5,-3 0.5937,-1 2,-3.5938 5.0937,-2.5 1.5,-2 0.5,-3.5938 1.5938,-7.1874 1,-1 1.625,-1 2,-2.5 -0.5,-2.125 -1,-4.0938 -0.4062,-6.5938 -0.5,-2.0937 1,-3.5937 3.0937,-1.5 3,-2.5 1.6875,-15.9063 2.125,-8.0937 1.5,0 2.5,2 2.5,0.094 0.5938,-4.5937 -3.5938,-3.125 0.5938,-2.0938 1,-6.0938 2,0.5 2.0937,0 5,-0.4062 1.9063,9.7188 4.0937,1.5937 2,-3.0937 -1,-4.125 -0.4063,-3.0938 0.5,-3.5 1.5,-3.5938 1.0938,-9.1874 -0.375,-3.125 -3,-3.0938 -3.5,-4.0938 -3,-5.6874 -0.5,-6.625 -1.4062,-7.6876 -0.9063,-9.6874 1.5,-6.2188 1.0937,-3.5938 -0.5,-3 -2.5,-3.0937 -1.5,-3.5937 4.5938,-1.5 1,-3.625 0.125,-4.5938 1,-7.6875 2.5938,-1 3.5,1.5937 2,3.0938 2.4062,10.8125 1.5,4.0937 0.375,3.5 0.5,6.1876 -1,3.125 -3.0938,2.5 0.5,5.5937 -0.094,9.1875 1.5,3.0938 3,2.125 7.0937,-2 7.0938,-4.5 3.5,-7.2188 2.7188,-11.1875 0.5,-8.7187 -2,0 -0.4063,-3.5938 -3.5,-9.2812 2.5937,-4 -0.5,-7.7188 1.5938,-4.0938 2,-6.0937 2.125,-1.5937 1.5,-4 3.0938,-1 0,-3.125 -3,-1.0938 0,-5.5938 -1,-1 1,-1.5937 1.5937,-2 3,3.5937 2.4063,5.6876 0.4062,10.2187 -0.5,3.5937 -2.5,-1.0937 -1,-2.5 -1.5,1 0.5,3.0937 0.875,5.0938 7.5,8.8125 3,5.5937 -0.5,3.0938 -1.0938,4.5938 0.5,2.5 1,2.625 4.5,3.5937 0.5,3.0937 -1.0937,5.5938 -0.5937,10.3125 -1.5938,8.0937 -2,3.0938 0.5,3.0938 -1.625,2 -2,1 0,3.625 0.5,2.5937 -0.5938,3 -1.5,2.0937 -1.5,2.5 0.5,2.5938 -1.0937,1.5 -4.0937,8.2188 -2.5,4.5 -1.0938,4.0937 1,8.1875 -0.125,3.0938 -3.0938,7.625 -0.5,2.5937 0.5,3.5937 -0.5,3.0938 -2.0937,3.5 -3,1.5 -4.0937,2 -1.5,2.5938 -1.0938,5.625 -1.5,6.0937 -1.625,6.6875 1,3.0938 4.5,3.125 7,5.5937 4.5,0.094 3.625,-1 1.5,-2.5937 -0.5,-1.5 -2,-3.0937 -3,-4.125 3.5938,-1.5 4.9062,10.3124 1.5938,-0.5 4.5,-1 6.0937,-0.5 1.5,-1.5 3.5,-2 2.5937,-2.0937 -1,-3 -4,-4.7187 -4.5,-5.5938 1.5,-2.5938 1.0938,-4.0937 0,-3.5937 -1.375,-6.125 1,-4.5938 3.0938,-7.6875 5.0937,-9.5937 1.5937,-3.125 3,-2.5 4,0 1.5938,-1.5 1,-1 0,-1.5938 0.5,-2.5 0,-1.0938 -0.5,-1 -0.875,-4.0937 3,-4.0937 3.0938,-9.125 1.0937,-6.6876 2.5,-2.5 -1.5,-3.0937 1.0937,-7.2187 0,-4.0938 2.0938,-2.5 0.5,-2.0938 -1.5,-2 -1.5,-3.0937 0,-2.5937 2.125,-4 4.0938,-8.7188 5,2.0938 2.0937,0.5 7,-3 7.0937,-6.0938 3.0938,-2.5 3.125,-5.0938 1.5,0 8.0938,-3.5 5.0937,-6.0937 2.0937,-8.7187 -2,-11.7813 -5.2812,-19.5 3,-1.5 1.5,2.5 7.5,1.0937 11.0938,1.0938 8.5,3.7188 9.5937,-2 4.0937,-2.5 1.5,-3.625 1.0938,-5.5938 1.6562,-2.5625 -1415,0 z m 1418.4376,0 0.4062,2.5625 1.625,0.5 1.5,-2 0.5,-1 0,-0.062 -4.0312,0 z m 218.8437,0 -1.625,5.1563 0.5,2.5 1.5,2.625 -0.5937,5.5937 0,3.0937 -2.5938,3.0938 -1,2 0,2.5938 0.5,3.625 -0.5,4 -0.625,3.0937 -2.5,4.5937 -2.0938,3.0938 -3,1 -6.0937,2.5 -1,2.5 -3.5937,3.5938 -5,6.125 -9.2188,12.1874 -10.1875,10.1876 -2,3.125 -1.0937,4 1,4.6874 1,5.0938 -0.5938,6.0938 -1.5,4.125 -2.625,4.0937 0.125,3 1.375,3.5937 1,2.0938 1.5,4.5938 3,4.625 0.9062,3.5937 3.0938,2.0937 0.9062,4.0938 -2.0937,9.2188 2.5,9.1874 1.5,6.6876 2.4063,8.7187 -1,5.5937 -0.5938,3.5938 -0.5,2.5938 -2,2 0,2 -0.125,4.125 -2,1.5937 -3.5,3.5 -6.5938,4.5937 -2.5937,0.5 -3,2 -2.5937,4.0938 0,2 2.5,3.5938 -1,3.625 -1.5938,6.0937 -2,5.5937 -1.125,3.5938 -1.5,0 -4.5,1 -2.0938,1.5 -2,1.5 -1.5,2.0938 -3.5937,2 -4.5,0.5 -1.5,2 0.9063,2.125 4.0937,2 4.5,4.6874 4.5,7.1876 -0.094,4.125 0.5,2 10.5,9.2812 10.0937,4.0938 9.0937,3.7187 6,5.6875 2.5,1.5 7,7.7188 3.5,5.1874 4,1.5 3.5,3.0938 0,7.2188 -0.5937,5.5937 -1.5,4.0937 0.4063,7.6876 -0.5,2.5 1,6.2187 0,1.5 -1.0938,1 -2.5,2.5937 -0.5,1.5 0.875,8.1876 2,6.625 3.5,9.7812 1.5,2 0.5,2.0938 3,3.625 3,3.0937 4,3.5938 11.5,12.8125 -0.5,3.5937 0.5,1 0.9062,3.0938 1,1 2.5,3.0937 2,2.0938 -1,0 -6.5,-0.5938 0,-1 -1,-3.5937 -1.5,-5.5938 -1.5,-4.0937 -2,-2.625 -5,-5.5938 -3.5,-3.0937 -6.5,-6.1875 -0.5,-1.125 -1.5,-2 -2,1.5 -0.5,0 -1,-1.5 -1,-4.5938 0.5,-3.0938 -1.4062,-6.6874 -3.0938,-1 0.094,-1.5 0.5,-5.7188 -0.5,-4.0938 -0.5,-2.5 -2.5,-1.5937 -5,-3.0937 -4,-4.125 -3.5,-6.6876 -2,-4.0937 -4,-4.0937 -2,-4.125 -0.5,-1.5 -0.375,-1.0938 -2.625,0.5 -1.5,0 -2,2.5938 -2.5938,3.5 -1.5,2.125 -2,2 -3.0937,3 -5.0937,3.5937 -2.5,1.5 -2.5,0.5 -2.0938,0.5 -1,2.5937 2,1 4.5938,3.5938 0.9062,1.5 0.5,1.5938 1.5,3.125 1.5,4.5937 3,4.0937 0.5,2 0.5,2.0938 0,1 0.5,1.5 -0.125,3.5938 -0.5,2.625 0.5,0.5 1,3.5937 0,3.5937 0.5,3.5 -0.5938,2.0938 -2,2 -1.5,2 0,1.5938 2.5,2 2,2.625 0.5,1 -1.5937,2.5937 -2,4.5938 4.5,8.6875 3.4063,6.7187 6.5,7.1875 7.5937,5.7188 2.5,2 3.4063,10.7812 -2,3 -2,3.0938 -4.0938,7.125 1.375,9.6875 -1,1.5937 -8.6875,9.0938 1,1.5 15.0937,6.3125 5.0938,2.5937 0.5,2.5 -1.5938,2.5938 2.5,8.2187 0.9063,6.5938 -0.5,5.0937 0.5,2.5938 8,6.2187 4,7.6875 3,3.5938 1.9063,11.2187 -0.5,5.5938 -0.5938,8.6875 1,10.8125 -0.125,13.8125 -0.094,10.1875 -3.5937,2 -10.0937,3 -23.8126,7.5 -1.5,3.0937 -2.5937,5.0938 -3.5,1 -3,-3.5938 -1,-1.0937 -8.6875,7.0937 -2.5,1.5 -10.625,3.0938 -4.5938,0.4062 -5,0 -3.5937,10.7188 -4.0937,1.5 -3,1 -1.4063,5.8437 4085.7187,0 -4.4062,-100.25 -7.3125,-172.2187 -5.5938,-130.1876 -10.1875,-243.9687 -3955.5937,0 z m -167.3125,179.5625 -2.625,0.5 -7.5938,7.5938 -2,3.625 -0.5937,4.5937 0.5,3 0.5,2.5937 -1.0937,4.0938 -0.5,10.7188 0.4062,5.1874 0,2.5 2.5,3.5938 0.5,2.0938 2,2.5 0,1.625 -6.125,-1.625 0.5,3.625 0,2 -3.0938,3.5937 -0.5,-1.5937 0.094,-8.7188 -1,-1 -2.5,0 -2.5938,2 -2.5,4.5938 -4.5937,4.125 -2.5,1.5 1,4.0937 2.4063,7.6875 1.5,3.5938 2.5,3.125 2,1 3,-0.5 1.5937,-1 0.5,1 -0.5937,1.5937 -4.5,2.5 -1.5938,2 0,6.6875 1,5.0938 -0.625,3.625 -1.5,3 0,2.5937 2.5,2.5937 0.4062,4 -2,6.6876 0.4063,3.625 -0.5,3 1,5.6874 0.5,2 1.5,3.0938 2,2.5938 3,1 3,-2 1.5937,-2.5938 1.5,-4 3.0938,-2.5938 3.5,-2 1.5,1 0.5,4.5938 6,3.2188 2.5,3.5937 1,3 6.4062,13.4063 0.5,3.5937 5.0938,1 5,-0.5 5.625,-0.4063 3,-0.5 2.5,-3.5937 2.5938,-2 5.5937,-2 3.5,-0.5 1.5,-1.5 -3,-2.5937 -7,-1.625 -5.0937,-2.5938 -4,-3.0938 -10.5938,-3.5937 4.0938,-1 3,0 1.5,-1 8.0937,2.0937 1.5,-1 -2.4063,-7.1874 1,-3.125 1,-3.5 -2,-5.1876 -0.4062,-3.5937 -1.5,-1 -2.0938,0 -0.5,1 -5.5,2.5 -4.0937,-2 -4.5,-1.5937 -3.5,-0.5 -2,-3.125 -0.5,-1.0938 -2.5,-1 -2,-1.5 -0.5,-2.0938 1,0 2.5,1.0938 4,1 1.5,2.5938 0.5,2 5.0937,-2 4,0 3.5938,-2 5,-2.5 6.5,7.2187 1,0 1.125,-0.5 -1.5,-3.5937 -1,-2.5 0,-3.125 3.5938,-5.0938 -1.5,-1 -5.5938,-4.1875 -4,-5.0937 -5.9062,-7.7188 -1,-1.5938 -3.5938,-1 5.5938,-3 3.0937,-2.5937 5.5,-2.5 1.0937,-2 -2,-2.0937 -3.5937,-2.625 -0.9063,-3.0938 0,-3.5 -0.4062,-9.2812 1,-2 2,-4.125 -0.375,-6.0938 1.5,-7.1875 -1.4062,-7.0937 -2.5,-2.625 -4.5938,-0.094 -6,-1.5 -1.5,0.5 -0.125,6.0938 0,1 -2.5,2.125 -3.5938,1.5 -3.5,2.5 -1.5,-1.5 -2.0937,3 -2.5,1 -1,-2 5.5937,-5.625 4.5938,0 0,-2.5 4,0 -1,-3.5938 -7.5,-5.1875 -0.5,-0.5 -1,-3.5937 -0.875,-4.625 -3,-4.0938 z m 30.6875,194.0938 -4,1.5 0,1.5 2.4063,5.7187 1.5,4.5937 1,2.0001 1,1.0937 6.0937,2.0938 4,-1 -1,-3.0938 0.5937,-4.0938 1.5,-2.5 1.5,-2.0937 0.5,-0.5 -1.5,-1 -7.5,-3.7187 -3,-0.5 -3.0937,0 z m 17.4063,38.5 -1,3.5 0.4062,2.125 0,2.5 -3.125,17.375 -0.094,5.125 -3,4.5937 -8.0937,3 -4.1875,10.6875 -3,1.5 -0.5,2.5938 -4.125,3.5 -0.5,5.7187 -3.0938,3.5 0,2.5938 -0.5937,6.0937 0,9.2188 1.4063,8.6875 -3.5938,11.6875 1.5,4.125 -5.625,5.5937 -0.5938,4.5938 -5.5937,6.5937 0.5,4.0938 4,8.2187 5,9.1875 -1.5937,5.7188 -1,4 -2.5938,3.0937 -3,3 -1.125,5.5938 -1.5938,8.1875 0,6.7187 2.5,5.5938 0.4063,1.5 6,7.6875 4.5937,0.125 5.5,4.0937 8.5938,-2 0,-2.5 -0.375,-8.2187 0.5938,-11.2813 1,-2.5 3.0937,-6.5937 0,-4.625 1.6875,-13.7813 1.5,-6.0937 3.125,-2.625 5.5,-3 6.5938,1.125 7.0937,2.5937 1.5,-0.5 3,-4.0937 1.0937,-2.5 -1.5,-3.125 -1,-1.5938 -4.0937,-0.5 -3,2 -2.5937,3.0938 -2.5,-3.5938 0.094,-2.5937 2.5,-4 16.6875,-5 0.5,0.5 1,2.5 0.5,3.5937 0.9062,8.2188 2.5938,1.5937 -0.094,4.5938 -5,1.5 -2.5937,1.5 -3.5937,5.5937 -5.0938,6.0938 -2.5,-0.094 -3.5,-3.5938 -3,1.5938 0,2.5 -2.625,6.0937 -3.0938,5.125 -0.5,4.5938 -2.5937,3.5937 1,4.5938 2,4.5937 5.5,3.125 8.0937,0.5938 1.5,-3.0938 0,-2.5 2.0938,-3.625 2,-4.5937 7.2188,-10.1875 1,0 2.5937,-3.5 7.5937,-3 4.5,-3.5938 9.0938,-4 3.625,-3 6.0938,-0.5 4.5,-3.625 2.0937,-0.5 5.5,-0.375 2.0937,-3.625 -9.0937,-8.1875 -4.5,-3.0937 -13.0937,-1.0938 -10.5938,-2.2187 -7.5,-4.0938 -1,-1 -1.5,-12.3125 0.094,-1.5 3,-2.0937 3.5,0.094 2.5937,-1.0938 0,-2 -1.5,-1 -1.5,-2.5937 -1,-1 -6,-11.3125 2.0937,-6.0938 0.5,-4.0937 -2,-4.0938 -1.5,-4.0937 1.0938,-2.125 1,-2.5 4.625,-7.0938 0,-1.0937 -3,-3 -4,-5.1875 -0.5,-3.125 -3,-3.5938 -6.5,-6.0937 -1,-2.0938 -0.5,-6.5937 1.0938,-3.125 2,-4.5938 1.5937,-3.5937 -1,-2 -1,-3.0938 -2.5,-1.5 -5.0937,-3.5937 -3.5,-0.625 -3,-1 z M 1603,1893.9063 l -6,1.5 9.9062,18 0.7813,2.75 24.0313,0 -0.5,-0.5625 -4.5,-7.1875 -2.0938,0 1,4.0938 -1.5,0.5 -13,-12.4063 -5.125,-4.0937 -3,-2.5938 z m -233.375,12 -14.3125,9.0938 -2.0937,1.1562 11.75,0 1.0312,-2.5625 6.125,-4.5937 -2.5,-3.0938 z m 121.5938,9.1875 -3.5,0.4063 -0.094,0.6562 3.7188,0 -0.125,-1.0625 z"
     id="rect8"
     inkscape:connector-curvature="0" />
  <path
	 style="fill:#9FAEC0"
	 stroke="#9FAEC0"
	 stroke-width="10"
	 transform="translate(0, 50)"
     d="m 328.4062,1916.1563 1.8126,8.0313 2.4062,10.3125 1.875,9.1875 -0.094,5.125 2,5.6875 1.9063,9.1875 2.9063,11.3125 0.4062,4.5937 1,6.5938 -0.625,5.625 2.9062,12.7812 2.3126,16.4063 0.4062,10.1875 1.375,8.2187 2.5,4.5938 0.5,3.0937 -0.5938,3.5938 3.4063,10.2187 -0.5,1.5 -1,4.5938 0.3125,10.8125 0,7.0937 1.875,9.6875 0.4062,3.5938 0.5,3.125 -1,2.5 1.4063,6.1875 0.5,3.5937 -1.5937,1 1,7.0938 -0.094,7.7187 0.2812,19.4063 1.0938,29.5937 -1.6875,15.7813 -1,6.125 1.4063,5.6875 -0.5,2 -1.5938,2.5 0,7.1875 -0.8125,24 -5.9063,24.4062 -0.5937,10.7188 1,4.0937 3,-0.5 10.1875,-2.4062 1.5,-2.5 -0.5,-2.5938 -5.5,-4.0937 -1,-4.125 0.625,-3.0938 3.5938,-3 6,0.5938 5.0937,1.5 9.0937,-1.375 3.0938,-4 0,-4.625 -2.875,-10.7813 -2.4062,-9.2187 -0.9063,-11.6875 1.0937,-8.1875 1.0938,-7.125 0,-3.0938 -0.875,-3.0937 -5.5,-6.1875 0,-6.125 -2.9062,-8.1875 1.0937,-5.0938 3.0937,-7.0937 10.2188,-7.5 18.6875,-3.4063 16.6875,1.6875 12.125,1.5938 2.5,0.625 2.5938,0.5 1.5,0 1.5,1.5937 4.5,4.0938 0.5,0.5 4,2.0937 1.5,-2 6,5.2188 5.5937,1.5937 2,1 7.4063,15.4063 0.5,2 -1.5938,4.5937 0.5,2.0938 4.5938,0.5 1.9062,2.5937 0.5,3.5938 -4.125,4.5 -4.5938,3.625 -2,3 3,3.0937 1,2 5,5.6875 9.5,3.2188 8.0938,1.0937 14.2188,-0.9062 15.5937,0.6875 14.6875,1.7187 10.625,2.0938 0.5,1.5 -1.625,2.0937 -2,0.5 -4,-2.0937 -16.1875,2.4062 -4.5937,2.5 1.5,2.5 13.1874,-1.4062 8.0938,0.094 7.5,-0.4063 2.125,-2 3,1.5 3,0.125 2,2.5 3.0938,0.5938 2.5,2 9.0937,-0.9063 2,0.5938 3.5,-1 6.0937,3.0937 4,0 3.5938,0.125 2.5,4.0938 2.5,-1.5 2.5,4.0937 2,0.5 4,0 1.625,-3 3.5,0.5 2.0938,-0.4062 3.5,-2.5938 2.5937,-2 4.0937,-3 2.5,0 0.5,0.5 0,1.0938 -5.0937,3 -3.5937,6.5937 -2.5938,3.5 -17.2188,3.9063 -11.1874,2 -11.2188,9 -11.6875,2.5 -24.3125,6.9062 -7.0938,1.4063 -2,0 -2.0937,0.5 -3,2 -13.1875,5.5 -4.125,1 -6.0938,-1.0938 -2.5,1 -7,-2.125 -3.5937,-0.094 -3.5,1.5 -4.0937,5.0938 -2.5938,5.625 -1.625,5.5937 -0.5938,4.5 4.5938,0.094 4.5,1.0938 1.5,3 -1.0938,5.5937 -1.9062,-6.5937 -4.0938,-0.094 -5.5,0.5 -2.5,-2.0938 -3,-4.0937 -1.5,0 -5.0937,3 -4.0937,-0.5 -7.0938,2.375 -6.125,3 -5.0938,6.125 -5.1874,9.5937 -1.0938,8.6875 -1.625,5.0938 -3,2.5 -5.5938,1 -1.0937,4 9.5937,1.2187 5.5938,-3 6.7188,-5.0937 4.5937,-4 5.5,0.5937 8.0937,3.5938 -0.5,1 -12.6874,-1.0938 -2,1 -5.7188,8.5938 6.5,5.6875 6.625,3.125 3.875,7.6875 3.625,1.5937 0.875,3.5938 -1.5,0.4062 -0.5,3.5938 -3.5938,-1 -1.5,1.5 -0.5937,8.125 -2.5,0 -0.9063,-7.7188 -1,-4.5937 -3.5,-3.5938 -2.5,-5.5937 -5,-3.125 -1,-0.5 1.0938,-5.0938 -9.0938,0.4063 -0.094,5.0937 -5.0937,4 -2.5938,1 -1.5,2.5 -4.125,3.5938 0,-2.5938 -2,-1.5 1.625,-5.0937 1.5938,-2 1,0 1.5,1.5 4,-0.5 0.094,-3.5 1.5,-1 -0.5,-2.5938 -4.5,0.5 -1.5,-2.5937 -2.5937,0.5 -0.5,-1 1.0937,-3.625 -2.5,-3.0938 -6.5937,3 -1,0 -1,-4.5937 -2.5,2 -1.5,-1 -2.5,-8.6875 -3.9063,-9.8125 5.5937,-1.4063 2.0938,-9.1875 2.125,-4.5937 -2,-6.125 -2,-2.5938 -6,-1.5937 -4.625,-1.0938 -0.875,-5.5937 2.5,-0.5 0,-2 -6.5,-0.625 -4.7188,8.125 -1.5,1.5 -4.5,-2.625 -3.5937,-0.5 -3,1 0,2 2,2.125 5.8125,17.875 4.875,20 2.4062,11.7187 6.2188,31.6875 1.6875,24.5 1.4063,15.4063 1.2812,20.4062 -1.1875,10.1875 0.4063,16.3125 -0.094,3.0938 -1.5,5 -2.125,5.5937 1.4062,6.2188 0.5,5.5937 6,2.5938 6.0938,3.0937 4.5,2.5938 6,0.625 1.625,0 5.5,3.0937 3.5,1.5938 4.5,2.5937 2.5938,1.5938 3,-0.5 0.5937,-5.0938 -0.5,-3.5937 -1.5,-2.0938 -4.0937,2 -0.5,-2 5.0937,-2.5 3.0937,2.0938 6.5,0 3,2.5937 2.0938,0.5938 1.9062,4.125 2,1.5 3.5938,2.5937 4,4.0938 4,3.0937 3.5,1.0938 1.5,2 5.125,0.625 3,2.5937 3.5,2.0938 6.0938,0.5 3,-1 0,-3 -8,-2.0938 -7.5938,-4.7187 -3,-3.0938 1.0938,-2 10,3.5938 2.5937,-0.375 -5.5,-6.2188 -4.5937,-2.5937 -0.9063,-2.5938 9.0937,-0.9062 0.094,-12.8125 3.125,-1.5 4,2.625 3,3.0937 3,1.0938 4.5,4.0937 5.0938,3.5938 3.5,1.125 11.0937,1.0937 6.5937,-1.9062 3.0938,0.5 2,-1 -3,-9.6875 2.125,-5.625 5.1875,-6.0938 1,-0.5 9.5937,-1.9062 1,4.125 2.5,-1 -0.5,3 -1.5937,4.0937 0,2 5.0937,-1.4062 2,4.0937 2.9063,5.5938 5.5937,3.625 3.5,0.5937 2.5,0.5 2,3.0938 5.5938,1.0937 1.5,1 2,5.0938 2,1.625 6,-0.5 0.5,2.0937 -6.0938,2.4063 -0.5,0.5937 1.5,2 4.0938,0.094 -0.5938,5.5938 0.5,2 7.5938,-1.5 1.5,2.5937 -4.5938,2 3,8.7188 3,2.5937 3,3.5938 3.5,3.0937 0.5,1.5 -1.3124,0.625 5180.75,0 -8.2188,-183.9062 -12.2187,-271.5 -1.0938,-27 -6.4062,-144.5938 -0.875,-19.6562 -4085.7188,0 -0.1875,0.75 7.5938,2.5937 4,2.0938 2.5,-0.5 6.0937,0.5937 5,5.125 4,6.1875 5.5,5.5938 5,3.0937 -0.5,3.125 -13.0937,-10.8125 -3.5,5 6,3.1875 4.5,4.125 1,3.5938 3,2 1.5,1.5937 0,2.5 -2.5,0 -5.5,-4.5937 -1.5,-3.0938 -5.0938,-4.625 -6,-0.094 -1.625,3.0938 8.625,5.625 -2.125,2.5937 -5.5,-5.7187 -3,1 5,8.2187 -2.5,0.5 -5.5,-7.7187 -3.0938,1.5 7,7.2187 -2,2.0938 -6,-7.1875 -1.5,1 4.9063,19.375 -2.5937,1 -3.4063,-14.2813 -2.5,-6.5937 -1.5,-2.625 -3,-3.0938 -3.5,-3.0937 -6.5,-4.0938 -7.5937,-1.5937 -6.5,-5.2188 -11.5,-13.2812 -5.5,-6.1563 -24.0313,0 2.7187,9.5313 -0.094,8.625 -4.5937,8.6875 -5.5938,10.6875 -6.7188,10.7187 -2.5937,5 -2,5.6875 -6.1875,8.5938 -2.625,18.4062 -4.5938,3 -5.0937,8.0938 -2.5937,7.2187 -2.0938,10.6875 -0.125,6.0938 -9.5938,12.7187 -12.1874,7.5938 -2.0938,7.5937 -4.2188,13.3125 -9.6874,13.1875 -7.5938,2.5 -4,1 -3.125,3 -14.2812,17.2188 -3.0938,7.6875 -2.5,6.0937 -5.2188,6.0938 -8.0937,4.5 -1,-1 -4,-4.5938 -4.0937,3.5 -3,-1 -3.5,1 -1.5,-3.0937 -3.5938,0 0.5,4.5937 -1.5,-0.094 -2.5,-2 0.375,11.6875 -4.0938,5.625 -3,0 3.7188,-24.5 -9.625,-4.125 -8.5,-6.1875 0,-3.5937 -0.5,-0.5 -2.5,-3.0938 -3,-2.125 -10.0938,-1.5937 0,-2.5 -7.5,-4.1875 -0.4062,-15.8125 -3,-4.5938 -1.875,-8.6875 -5.625,2.5 -1,-1.625 3.125,-6.0937 -3.5,-7.1875 -4.625,2.0937 -0.5,-2.5937 -0.375,-6.0938 -3,-8.7187 -4,1 -2.125,6.5937 -3.1875,17.8125 -2.1875,26.0938 0.875,12.2187 3.4062,10.7813 -0.5,5.0937 0.4063,10.2188 -4.5937,1.5 -1.4063,-6.7188 1,-4.5937 -0.4063,-4.5938 -2,-7.0937 -6.5,-12.3125 -2.5,-5.6875 -5.0937,7.0937 -3,-2.5 5.6875,-9.1875 -5,-6.125 2,-1.5937 5,4.7187 3,-1 -1.375,-10.3125 4.0938,-0.9062 -1.4063,-15.9063 -4.5937,0.5 -1.5,-3.0937 -2.5,0.5 0,1.5 -6.5938,1.5 0,2.5937 3.5,2 1,2.625 -5.625,3 -2.375,-6.625 -8.2188,4.5 -1,1 -4.5937,8.125 -4.5937,1.5 -1,3.0938 -2,-0.5 -1,-4.0938 -4.5938,2 -0.5,3 -5.125,0.5 0.5,8.6875 9.9062,15.9063 0.5,9.1875 -2.6874,12.7187 -3.0938,7.6875 -2,7.5938 -3.7188,9.7187 1.5,5.0938 1,0.5 3.0938,-1 1.5,-3 2,2.5937 -3.5938,4.5 1,5.5938 3.9063,13.9062 -2.5937,4 -2,-0.5 -2.5,-5.5937 -0.4063,-7.2188 -3,1 -0.5937,2.625 0.5,7.5938 -2.5938,4.5937 -0.5,-1 -2,-5.1875 -1.4062,-8.625 -6,-11.7812 -2.9063,-9.8125 -8.0937,-5.0938 3.5937,-8.1875 3.5937,-7.625 -2.9062,-7.1875 4.5,-3 3.125,-7.5937 -2.3125,-25.0938 2.1875,-12.7187 -1.5,-1.0938 -3.5938,7.1875 -8.7812,13.7188 -2,6.5937 5.375,10.3125 0.5,3 -10.6875,14.1875 -2,-1 -16.3125,11.5938 -4.0938,3 -21.2812,13.5937 -0.625,7.2188 1.5,4.0937 10,5.1875 3.9062,19.4063 -2,1 -1.5937,7.0937 -3,-0.5 1.5937,-10.6875 -0.4062,-7.6875 -4.5938,-4.125 -5,-4.5937 -8,-9.7813 1.0938,-9.2187 5.625,-7.0938 5.5938,-2 1,-2.5 7.5937,-1 3.0937,-9.5937 3.0938,-4.0938 0,-2 -5,-3.7187 0,-1.5 6.625,-0.4063 3,2.5 13.6875,-3.875 1.5,-2.625 -2,-2.5937 -4,-2 0.5,-2.0938 1.0937,-5.5937 1.5938,-8.5938 4.625,-9.2187 4.5938,-3 7.0937,-8.0938 1.1875,-11.8125 2,-0.5 1.9062,8.7188 1.5,1.0937 9.8126,-14.8125 0,-8.6875 0.094,-4 -9.0937,-3.1875 -2,-2.5 -3,-7.2187 -4,1 1.5,3 1.4062,6.2187 -3.625,5.5938 -2.5,4 -9.1875,8.0937 -3.5937,3.5938 0,5.5937 -2.0938,4.125 -6.625,2.5 -4.0938,8.5938 -3,-1 2.5938,-6.0938 -0.5,-3.125 -6.0938,-1.0937 -8.5937,3.5 -3.5937,4.0937 2,4.125 4.0937,0.5 1,1.5938 -5.0937,6.0937 -9.8126,15.6875 -10.5937,6 -10.6875,3.5 -2.5,-0.5 1.5,-4.0937 -1.5,-1 -13.125,2.9062 -3.0938,4.0938 -5.5937,4.5937 -4.0937,7.625 -1,-8.2187 -3.5,4.0937 -0.5,-2.0937 2.0937,-9.6875 5.0937,-1.5 6.5938,-6.5 10.7188,-8.0938 9.5937,2.5938 16.1875,-3.9063 0.125,-11.3125 1.5,-2 1.0938,-15.7812 -1.5,-1.0938 -1.5,2.0938 -1.5,-0.5938 0,-2.5 -6.5938,1 -7,-0.625 -7.625,3 -1.5938,3 -8.0937,7.125 -12.3125,10.5938 -3,-2 -0.875,-5.7188 5.5,-1.375 7.6875,-6.125 8.0937,-8.0937 14.2188,-5 2.5,0.5 2.0938,1.0937 8.0937,-2.5 2,2 6,3.2188 2.5,0 3.5937,-5.5938 6.7188,-10.2187 13.6875,-3.9063 7,3.125 8.5937,-4.5 3.0938,-5.125 1.625,-9.6875 4.5938,-3.5937 2.0937,-3 3,-3.5938 -0.5,-3.5 -2.5,-4.125 -3.5,2 -3,-0.5937 -7.0937,-2.5938 -5,0 -10.2188,2.5 -1,3.5 -4,-2.0937 -5.5938,2 -1.5,-3 -5,-3.5938 -2.5,-1.625 -7.0937,1 -9.5937,-2.1875 -5.5938,0 -8.625,0.9063 -8.0938,2 -2.5,-1.5 -3.5,-3.0938 -4,-3.125 -2,-1.5937 -6.0937,2.5 -8.5937,0.5 -0.4063,-6.1875 4,-1.5 5.0937,-0.4063 6.0938,-5.5937 12.2188,-11.0938 12.7812,-17.3125 2,1 2.625,-2 -0.5,-5.0937 2.5938,-2.5 12.5937,-5 5.5937,2.0937 -10.6874,10.5938 -5.5938,3 -10.7188,9.0937 2,4.625 7,4.1875 3.5,7.1875 -6.5937,-0.094 -4,-5.6875 -20.3125,14.6875 0.5,2 4.5,0.5938 3,3.625 11.125,-2 8.0938,-0.4063 12.5937,2.6875 10.1875,-3.5 6,4.0938 -0.5938,4.625 4.0938,2.0937 6.125,-1.5 17.1875,-5 6,1.0938 1,3.5937 4.5937,-3.5937 3,0.094 4.5938,1.5 1,-3 -1.5,-7.1875 -3.5,-1.5 0.625,-4.5938 0,-5.2187 4.5938,-0.9063 1,-6.1875 -0.9063,-9.1875 0,-2 -2,0 -0.5,-6.2187 2.5937,0.5937 5,0.5 2.2188,-16.7812 -2.5,-3.0938 2.5938,-15.8125 4.1874,-10.1875 3,0.5 0.5,2.5938 9.2188,-6.75 -997.7188,0 z m 1024.8126,0 -8,4.4375 -3.0938,2.5 -0.5,2.5 3,4.7188 -0.5,0.5 -3,-1.125 -3.625,1 -1,-1 3.125,-6.0938 -11.125,2.5 -6.0938,-1.0937 -4.0937,4.5 -1.5,3.0937 -1.0937,9.7188 0.4062,13.2812 -1.125,5.5938 0,3.125 -0.5,1.5 -3.5938,1 -1.5,7.5937 0.9063,6.1875 4,9.2188 4.5,2.5937 6.5,7.6875 3,5.7188 7,8.6875 2.9063,14.3125 1.9062,11.7812 3.5,7.7188 1,5.0937 -2.625,7.5938 2.5,-1 3.625,-5.0938 8.0938,-3.5 5.5937,-8.0937 7.3125,-18.3125 3.5938,-10.1875 -1,-8.2188 -8.4063,-15.4062 -2,-3.5938 1.0937,-6.0937 -6.0937,-4.0938 -4.9063,-9.3125 1,-8.5937 3.7188,-19.9063 -3.5,-3.0937 -0.4062,-4.0938 5.0937,-6.5937 5.5937,-4.625 2.0626,-5.0313 -11.75,0 z m 59.5937,0 -1.9063,5.4375 -7.1874,6.5938 -3.5938,5.625 -2.5,1 -3.125,8.0937 -4.5938,2 -4.5937,14.7813 -3.6875,10.7187 3,9.6875 1.5,3.5938 8,7.8125 10.5938,6.1875 0,2 -7.0938,1 0.375,6.625 2,5.1875 14.9062,25.5937 9.2188,-5 1,2 -5.125,5.0938 -1.0938,3 3,6.7187 2,5.5938 3,3.5937 4.5938,-2.5 5.625,-3.5 1,-3.5937 3.5938,-5.5938 -1.5,-2 2.5937,-10.2187 4.0937,-5.5938 1.5,-4.0937 -2.5,-1 -4.0937,6.5937 -2.5,-7.1875 0.5937,-7.0937 -4,-2.125 4.5938,-9.1875 1.125,-9.0938 2,-0.5 2.5,6.0938 -2.125,7.0937 0,5.7188 1,0.5 8.125,-4 7.0938,-6.625 2.0937,-4.0938 -1,-6.0937 -0.9063,-8.1875 2.5,-3.625 0.094,-5.5938 1.5,-3.5937 -1.5,-2.5 -5.0938,4.5 -6.5,-4.5938 2.7188,-17.9062 -3.625,-0.5 -1,5.5937 -4.5938,1 -5.5,2.5 -0.5,-4.0937 4.5938,-6.0938 1.5,-4.5937 -1,-3 -4,0.875 -7.5938,5.125 -2,-3.125 -0.5,-1.5 7.5938,-5.5938 4.125,-5.0937 0.094,-8.6875 3.625,-6.1563 -32.5313,0 z m 74.8125,0 -0.4062,3.4375 -1.7188,11.8125 2,3.5938 4.125,1.5 0.5,-3 2.0938,-4.5938 3.5,-4.0937 7.5937,2.5937 10.5,5.6875 1,3.5938 -1,3.625 -5.5937,-0.625 -5,-5.5938 0,9.2188 2.4062,3.5937 5.5938,6.0938 7.9062,11.8125 9,12.875 6,7.7187 2.5,3.5938 0,8.1875 4.5,2 2,4.125 9.0938,3.6875 2,-6.5938 3.0937,-1 2.5,-4.5937 2.5937,-8.2188 -0.4062,-3.5937 -4.5938,-0.5 -1.5,-3.5938 -3,3.5938 -1,-0.5938 -0.5,-6.0937 -2,-5.625 -9.5,-10.2813 -4.5,-0.5937 -0.5,-2.5 -0.5,-6.7188 -4,-0.5 -4.0937,3.5 -5,-1.5 -4,-6.1875 1,-3.5937 2.5937,-5 5,1 7.0938,1.5937 3.5,4.5938 7,3.0937 10.2188,-1.9062 2.5,-2 -2,-5.6875 -2.5,-7.1875 -3.5,-4.125 -5.4063,-8.1875 -0.4687,-1.8438 -46.0938,0 -3.0312,3.0313 -2,6.125 -2.0938,0.5 -0.4062,-2.125 1,-4.5 -0.375,-3.0313 -3.7188,0 z m 61.125,0 1.0625,2.9375 6,7.7188 7.5,7.6875 1,3.0937 -1.5,4.0938 0.4063,4.625 -6.0938,6 1,1.0937 2.5,5.5938 4.5,5.0937 5.0938,0.5938 5.5,-3.5 4.0937,-3.0938 3.5937,-6.5937 1,-1 9.7188,-9.5938 2.5938,-6.7187 -1,-8.6875 -2.5,-3.5938 -4.5,-5.75 -39.9688,0 z m -168.3438,23.0313 -5.5937,6.625 0.4063,4.5937 -2,3.5938 5.5,4.0937 2.0937,-3.5 3.0937,-9.6875 3,-2 -0.5,-1.0937 -3,-1.5 -3,-1.125 z m 97.0938,48.3125 -0.5,3.0937 -1.5938,4.5938 -4.5,3 -3.5937,7.125 -4.5937,5.5937 -5.5938,3 0.5,2.0938 3.5,3.5937 5,2.5938 3.5,0.5 3.5938,2.625 6,-2 5.5,6.6875 4.0937,1 4,0.5 4.0937,1.0937 7.5938,-2 4.5,0 2,-1 1.125,-1.5 7,-0.4062 2.5938,-4.0938 1.5,-5.5937 -2.9063,-6.6875 -3.5,-4.625 -6.5937,-0.5938 -2.5,2.5938 -3.0938,-0.5938 -1.5,-3.5 0.5938,-3.5937 -0.5,-3.0938 -5,-1 0,-4.0937 -1.5,-2.625 -2.5,-2.5938 -3.5938,0 -1.5,1 -2,1.5 -7.125,-2.0937 -2.5,-0.5 z m -170.2812,1.1875 -3.0938,5.125 0,1 3,8.1875 2.5,1.0937 2,2.5 0,4.5938 -2.625,9.2187 0.5,2.0938 0.5,0.5 7.125,-3 0.875,2.5 -5,2.5 -1.5938,2.5937 1.5,2 2.5938,0.5938 -0.094,1.5 -1,6.125 1.5,1.0937 2,-4.0937 1,0.5 0.5,3.0937 4,3.0938 -1,3.5 7.5,8.8125 2,0.5 1.5938,-2 0,-5.625 -2.5,-1.5938 -2,-6.6875 -4,-3.5937 3.625,-7.125 -1.5,-2.5 -3,-0.094 -1,-1.5 -0.5,-3.0938 -1.9062,-7.6875 0,-5.625 -2,-3.0937 -3.5,-5.0938 -3,-7.1875 -5,-3.125 z m 165.9062,47.3125 -1.5,1 -3.125,4.0937 -6.5938,4 -5.0937,8.7188 -1.5937,8.0937 5,4.0938 -0.5,3.0937 -3.5938,-2.0937 -4.5,0.5 -4.625,2 -1.5,3.5937 0.5,4.5938 3,2 5,0.125 -0.5,3.5 2,3.5937 11,15.4063 6,-0.4063 1.5,4.5938 3.625,-1 2.5,-2.5 0.5938,-5.0938 -2.5,-5.7187 -2.5938,1 -0.5,1.5 -1.5,1.125 -3.5,-6.7188 -1.4062,-7.1875 2,-1 4,8.6875 5.5,-1.5 -0.4063,-2.5 -3.0937,-2.0937 -0.9063,-3.5938 1,0 4.5,4.1875 4.5,0 3.5,3.5938 5.0937,-0.5 -1.4062,-9.6875 -4.5938,-4.0938 1.5938,-4.0937 5.625,-1 1.5938,-11.7188 1,-3.5937 -4.5,-7.6875 -4,-2 -6,-3.125 -6.0938,-2.5938 -4.5,-1.5937 z m 55.375,23.9062 -3.5938,6.5938 -0.5937,6.6875 -0.5,2 -1.5,3.625 -0.5937,2.5 1.5,2.0937 5.0937,-6.0937 3.5937,-8.2188 -0.9062,-8.6875 -2.5,-0.5 z m -945.7812,481.0938 -15.2188,7 -16.2812,9 -2.5,1 -6.0938,4.8125 62.4062,0 -0.2187,-1.125 -5.5,-8.7813 -8,-9.2187 -8.5937,-2.6875 z"
     id="rect10"
     inkscape:connector-curvature="0" />
  <path
	 style="fill:#9FAEC0"
	 stroke="#9FAEC0"
	 stroke-width="10"
	 transform="translate(0, 25)"
     d="m 542.625,2562.8126 -1.625,1.2812 -11.1875,2.4063 -3.0937,4 -3,3.5937 2.5,4.0938 -1.3126,20.9062 -4,1.5 -1.5937,1.5 -4,1 0.4063,3 -5.5,1 1.9062,4.5938 2,4.125 1.5,1 3.5938,-2.5 1.5,3.0937 4,1.5938 2,3.0937 -3.5,0.4063 -3.5938,-2.0938 -4.5,3.0938 6.375,8.6875 6.625,3.625 4,1.5937 1.5,4.0938 -0.125,5.5937 1,4.5938 3.5,2.125 8.125,-2 -0.5,3.5937 -1,3 -2.625,1.5 -4.5,-3.0937 -3.5938,5.0937 -1.5,-1.5937 0,-5 -3.5,-4.2188 -0.4062,-3.5 3,-4.0937 -0.375,-3.5938 -10.625,-1.5937 -7.5938,-4.7188 -8,-7.1875 -4,-5.5937 -1.5,-5.125 -4.5,-5.1875 0,3.5937 1.9063,10.7188 -1.5937,9.1875 2.9062,14.3125 3,3.5937 6.5,3.0938 4,5.5937 5,5.7188 3,10.1875 1.875,6.6875 -1.0938,5.125 1.5,1.5 2.5938,1.5937 0.4062,3.5 5,5.1875 1.5,7.0938 5,0.625 3.5,4.0937 0.5,3.0938 0,2 -1.5937,3.5937 2.0937,1 -0.5937,1.5 -1.5,1.5 -2.1875,13.3125 2.5,8.6875 4.5,2.0938 -5.125,3.5 -5.5938,2 3.5,3 -1,2.125 -5,-3.625 -3,-3.5938 -2,-1.0937 -2.5,-3.0938 -1.0937,2.0938 -5.0937,1.4062 1,6.1875 -0.5938,3.5 -4.125,4.0938 0.5,3 -8.5938,5 -5.5937,3 -0.5937,2.625 1.5,6.0937 -1.0938,4.0938 1,3 2,2.5937 1,6.0938 4,0.125 6.5,6.1875 5.0938,2 6.9062,12.4062 -1,4.5 -1.125,4.5938 4,6.1875 2,2 5.625,0.125 5,1.5937 6.0938,2.0938 4.5,4.0937 3.5,1 0.5,3.5938 5.0937,2.125 3.5,-1.5 2.5,1.5937 5.5,10.1875 3.4063,10.7188 0.5,5.0937 -1.0938,9.1875 -1,-2.0937 -5.4062,-18.4063 -5,-8.6875 -6,-3.5937 -7.0938,-4.125 -4,-2.5938 -2,-3.0937 -3.5,-1.5938 -25.3125,-4.3125 -4,-2.5937 0,-2 -1,-2.0938 2.5937,-7.0937 0.5938,-8.125 -2.5,-4.5938 -4,-2.5937 -2.5,-0.094 -1.6875,11.6875 2,1.5937 2.5,9.7188 -2.5937,2.5 4,4.5937 2.9062,9.8125 -6.625,4 -2,1.5 -3.0938,3.5 -1.0937,3.5938 -0.5,4.5 -3.0937,0.5 -3,-1 -2.5938,5.5 -1.625,10.6875 0.9062,7.7187 -2.5,3.5 1.9063,11.7813 -3.5937,-2.0938 -2,2 -2.5,-7.6875 -6,-3.625 -8.0938,0.4063 -5.625,0.5 -4.0938,4 -2,1 -1.5937,0 -2,-3.0938 -1.5,0 -3,2 -6.5,-7.6875 0,-3.625 -0.6875,-31.0937 0.5938,-11.6875 -0.4063,-8.5938 -1.3125,-13.8125 -3,-11.1875 1.2188,-10.7187 0.5,-4.0938 0.5937,-4.5937 0,-1 -1.5,-2.0938 -1,-5.625 -2.1875,-24 3.5938,-10.0937 3.5937,-4.5938 -0.9063,-12.1875 0.7188,-19.4062 0.6875,-11.2188 1.0937,-9.0937 1.5938,-8.6875 0.125,-8.7188 -1.4062,-13.1875 -5,-9.3125 -3.9063,-5.5937 -1,-3.0938 -2,-7.0937 -4.4063,-11.3125 -0.9062,-13.7813 3.125,-8.125 1,1.5 1.375,12.8125 9.2188,-6.5 2,0 -1.9063,-5.5937 -11.5937,-6.3125 -6.5938,1 -7.2188,7 -1.5,6.0937 -0.6874,8.7188 0.7812,22.4062 0.9062,14.2813 -0.2812,27 1,49.5 0,43.3125 -0.7188,23 -1.6874,10.0937 -0.094,14.3125 0.875,4.5938 -0.5,6.5937 0.4062,6.0938 -1.6874,20.4062 -0.7188,13.1875 -1.0938,7.2188 -1.0937,13.6875 -1.0937,5.5937 1,4.625 0.4062,2.5 -1.625,6.6875 -1.0938,7.0938 0,6.5937 -0.094,12.2188 -2.1875,11.1875 -2.125,8.0937 -1.0938,4.625 0,2.5938 -0.5,2.5 -7.1874,3 -3,3 -1.5938,2 0,2.0937 2.5,1 2.5,1.5938 1,1.5 -10.2188,11.5937 -4.0937,6.125 -1.5937,4 2.4062,7.6875 1.5,1.5 12.7812,-9 7.2188,-5 0.5,0 4.5,4.0938 3,0 1.5,1.5937 4,5.625 1,1.0938 4.0938,-4.5938 -0.4063,-3.5 -2.5,-3.125 -0.5,-1.0937 0.5,-1 -1,-1 -2.5937,0.5 -2.4063,-3.5938 -2.5937,-0.5 -0.9063,-10.1875 3.0937,-3.125 -2,-3.5 5.5938,-2 2.625,-5.0937 8.5938,-0.9063 5.6874,-6.5937 2,-2 3.0938,-1 3.5,2.5937 7.125,1.125 4.5,1.0938 7.5938,4.0937 7,6.1875 5,4.125 -0.5938,9.6875 6,6.1875 2.5,6.125 4,5.6875 1.5,4.5938 8,7.2187 4,5.0938 3.5,4.0937 3.5,4.5938 4,4.0937 5.5938,4.2188 4.5,2.0937 6.5937,2.5938 6.5937,1.5937 7,0.5 5.0938,-0.375 3.625,-5.125 4.5938,-0.875 7.6874,-6.625 0.5,-3.5 6.0938,-3.5 4.125,-1 1,-2.0937 -1,-4 1.0938,-1.5 2,-1 6.0937,1 3,-0.4063 2.5937,0.5 2.5,-0.5 3.5938,-6.5937 2.125,-4 5.5938,-5.0938 5.0937,0.5938 8.0937,3.0937 4,4.625 5,5.1875 3,1.5 3.5938,-0.9062 4.625,-1.5 1,-2 0,-2.0938 3.0938,-1 1.5,-3.5 0.5937,-4.0937 3.5937,-5.5938 1.5,0.094 2,1 1,1.5 2.5,0.094 2,2 3.5938,-0.5 4,0.094 0.7188,-11.1875 3,-2 4.5937,-1.5 1.5,-2 1.0937,-4.0937 -1.5,-1 1,-1.5 2,-1 4.0938,1.5 1.5,4.5937 1,1.0938 4.5,-1 2.625,0.5 2.5,0 3.0938,-3 2.5,-2.5 1.5937,-0.5 0.4063,2 -5.0938,7.0937 -1.5,2 1,3.0938 3.5,3.625 1.5,3.5937 1.375,4.0938 -1,6.0937 -0.5938,2 -1,5.5938 0.9063,4.125 1.5,1.5 2,3.0937 2.0937,1.5 3,1.5938 4.5,0.094 7.5938,0 8.625,1.5937 8.5938,2.7188 4.0937,2.5 4,-0.4063 5.0937,2.0938 6.0938,-1 7.125,1.0937 5,1.125 4.0938,-1.5 7.0937,0 2,-0.5 4.5937,2.0938 0.5,-3 1,-1 2,0 3.5938,-0.5 1.5,-2 3.125,1.5 5,-0.9063 9.6875,-1 2,-2.5 1,1 4.5937,2.5938 6.0938,-1.9063 5.125,-3.0937 7.0938,-1.9063 5.5937,0 4,-0.375 7.0937,1.5 5.5938,2.5938 5,3.0937 3.5,0.094 2,3.0938 1,2.5 0.5,1 2,3.125 2.5,3.5937 3.5,4.5938 1,2.0937 2.5,2 1.125,0 4.5,5.7188 3,4.0937 0,2.5 -0.625,2.5938 -0.5,1 1,4.5937 3,6.0938 2.5,3.625 1.5,4.0937 5.5,6.6875 3.5,2 2.5,1.0938 7.125,5.125 2,3.5937 2,4.5938 12.0938,7.6875 5.5,4.7187 5,4.5938 2.5,4.0937 3.5,5.0938 4,4.125 2.5937,2.0937 3,3.5938 2.5,5.0937 5,3.5938 3,1 19.6875,7.9062 7.625,2.0938 8.0938,-1 9.1874,-3.5 7.7188,-4.5 9.6875,-8 1.5,-2.0938 3.5937,-2 6.5938,-1.9062 7.125,-1.5 2,-1 9.6875,-5 9.1875,-4 9.125,-3.5 5.0938,-3 8.6874,-2 5.5,0.625 9.5938,3.5937 10.2188,-0.9062 1.5,0.5 8.0937,4.1875 4.5,4.125 5.5,4.5937 7.0937,3.5938 5.5938,2.0937 5.5,2.0938 5.625,0 4.0938,0.125 9.5,5.6875 5.0937,3.5937 2.5,4.5938 4.4063,12.2187 2,4.0938 3.0937,3.0937 5,2.0938 5.0937,0.5 3.5,1.125 4.0938,1 4.5,4.0937 3,3.0938 3,3.5937 4.125,2.5938 4.625,3.7812 4657.1562,0 0.2188,-1.9687 0.1875,-0.8125 2.6875,-8.5 3,-8.375 1.9062,-3.125 0.5,-0.875 2.4063,-3.8125 0.4062,-0.5 1.5938,-3.9063 1.1875,-2.6875 0.125,-0.5 0.094,-5.5937 -0.3125,-2.625 -0.094,-0.875 1.3125,-5.3125 0.5,-1.1875 0.7812,-2 3,-5.3125 0.5938,-1.0938 1.5,-2.3125 0.094,-0.7812 0.1875,-4 -0.3125,-3.3125 -2.1875,-1.8125 -2.5,-1.5 -2.3125,-0.5938 -4.7813,-3.6875 -0.4062,-0.5937 -3,-3.7188 -3.5,-7 -3.1875,-3 -4.9063,-4.5937 -5.4062,-5.1875 -1.1875,-2.5 -0.5,-2.5 -0.094,-1.125 0.9062,-9.0938 0.5,-4.6875 1.3125,-3.9062 0.4063,-3.1875 0.2812,-7.4063 0,-0.7187 -1,-7.2813 -0.094,-0.8125 -2.5,-10.0937 -1.0937,-3 -2.7188,-5.5 -0.6875,-1.3125 -2.3125,-3.5 -0.6875,-1.0938 -4.8125,-4.7812 -3.875,-4.3125 -2.625,-2.3125 -2.875,-4.1875 -0.3125,-0.5938 -0.094,-2.8125 0.094,-1.0937 0.8125,-4.6875 0.7813,-4.125 0,-3.5938 -1.5,-4.4062 -3.0938,-4.1875 -3,-3.5 -3.5937,-2.0938 -6,-3.9062 -2.7188,-3.1875 -4.5937,-4.5 -2.5938,-4.4063 -1.4062,-5 -0.4063,-6.0937 -2.2812,-5.9063 -4,-4.4062 -3.5938,-2.1875 -5.125,-2 -7.5,-1.8125 -4.0937,-2.1875 -2.9063,-4 -2.7812,-6.7188 0,-6.0937 2.5937,-5.5938 3.4063,-7.7187 3.4062,-4.5 2.0938,-3.6875 3.5,-10.6875 2.2812,-11.125 2.125,-13.375 -0.6245,-9.7186 -0.875,-4 -3.625,-3.5937 -5.6875,-127.5938 -7.4688,-167.0937 -5180.7499,0 -0.7813,0.375 1.5,5.125 2.4063,9.1875 3,4.6875 5.5937,-3.5938 4.0937,-4 9.2188,-4.5 7.5938,-0.4062 3.5,1.5 -5.0938,3 -5.625,-0.5 -1,0.5 -2,2.5 -8.6875,7.125 -8.5937,0.875 -4,-3.0938 -3.5,-9.6875 -1.6876,-9.0937 -62.4062,0 z"
     id="rect12"
     inkscape:connector-curvature="0" />
  <path
	 style="fill:#9FAEC0"
	 stroke="#9FAEC0"
	 stroke-width="10"
     d="m 1225.75,3209.4688 2.875,2.3438 4.5,4.6875 2.0938,3.5 2,2.5937 1.4062,3.5938 2.0938,3.125 10,7.6875 5.0937,2.5937 5.5937,0.5 6.5938,0.094 4,-1.5 4.625,-3.0937 1.5,-1 4.5938,-0.4063 0.5,1.5 -4.0938,1.5 -4,2 -3.125,1 -0.5,1.5 7.625,-2.5 4.0938,-1.5 4.5937,-0.875 3,0 0.5,0.5 -4.5937,3 -3.5,0.5 -2.5938,0.5 -1,0 1.5,2.5 2.5938,-1 1,2.0938 3.5,2.5937 5,3.5938 2.5,2 3.0937,0 2.5,3.0937 3.5,3.625 1,1 1,2.0938 0.5,4.5937 -0.094,10.0938 0,2.5937 1.5,6.125 1,4.0938 -0.5938,2.5 0,3.0937 -1.5,1.5 -1.125,0.5 1.125,-4.5937 0,-3 -1,-0.5938 -1,0.5 -1.125,4.5938 -0.5,5.0937 -0.5,2.5 -0.094,3.0938 -0.5,1.5 0,3.0937 2.5,1.5 2,1.625 -0.5,4 1.5,4.0938 2.5,3.0937 3.5,6.0938 3,1.5937 3,5.125 2.5,5.5938 1.5,5.0937 -0.5,1.5 -0.5,3.0938 1,3 6,9.2187 2,5.0938 3.5,6.6875 3.5,4.5937 3,3.125 3,4.5938 2,4 2.5,2.5937 3.0938,2.5938 2,1 3,1.0937 11.625,9.7188 -0.5,4.0937 -4.125,3.5 -4.5938,4 -1.0937,4.0938 0,3.0937 -0.5,2.5 -1.0937,4.125 -0.5,2.5 -1,2.5 -2.0938,3.0938 0,2.5 -0.5,4.0937 -0.625,5.0938 4,9.0937 4.5,6.2188 1.5,3 2.5,3.5937 3,8.1875 1,2 2,6.125 1,4.0938 -2.0938,3.0937 0,2.5 -0.5,2.5 0,3.0938 1,1 0,1.5 -1.0937,1.5937 0,1.5 1.5,3.125 -0.5,4 -0.5,1.5 -2.5937,4.5938 0.5,2.5 0,1.5937 -1.5938,5.5938 -2.125,4.5 -0.5,5.0937 -0.5,4.125 1,2.5 -0.094,3.0938 -2,4 0.4063,3.5937 2.0937,3.5938 0.4063,2.5 2.5,3.5937 2,4.625 3.5937,3 -0.094,5.0938 4.5937,7.1875 2.4063,7.5937 2,5.125 1.5,6.0938 -0.125,9.6875 0,6.0937 0.9063,6.125 -0.5,7.5938 -1.125,13.7812 -2.0938,10.125 -0.5938,6.5938 -1.5937,5.0937 -0.5,5.0938 -4.7187,18.2188 -0.094,6.0937 2,4.5937 1,4.0938 1.5,6.5938 2,3.125 3.5,4.0937 1,2.5 1,3.0937 5.0938,6.0938 5,2.5938 9.625,4.125 8.5937,3.1874 8.0937,6.5938 4.5938,4.0938 3.5,4.125 8.0938,6.1874 12.625,8.6876 9.5937,5.2187 6.0937,2.5937 3.5938,0.5 7.0938,0.5 5.625,-1.4062 0.5,-2.5938 5.0937,-1.5 17.6875,7.8126 9.5938,2.0937 13.2187,6.1875 13.1875,2.5938 12.5938,6.2187 4.125,1.5937 4,1 3.0937,1.5938 5,2 11.1875,3.7188 7.0938,2.0937 5.125,0.5 11.5937,2.5937 6.5937,2.0938 5.5938,1.0938 9.0938,2.625 2.625,0 8.0937,-2 14.7813,-4 5.5,1.5937 2.125,-1.5 1.5,-1 2.5,0.5 -0.5,2.5937 -1,1 -2.5,1 -0.125,1.5 2.125,0 4.5937,-1 6.5937,-0.4062 9.5938,0.5 6.0938,2.0938 3.5,1 3.125,2.625 2,1 3.5,2.0937 4.5937,5.0937 8.5937,8.1876 7.5938,0.625 0.5,0 6.5938,1.5 13.2187,-0.9063 9.0937,2.0936 6.5938,1.5939 2.5938,0 6.125,-0.5 10.0937,-0.4062 10.1875,-0.5 16.8125,-2.875 10.1875,-5.5 5.5938,-5.625 8.7187,-5.5 8.5937,-4.5 7.6876,-3 6.625,-4.0938 6.5937,-3 6.0937,-1.5 5.5938,2.0938 2,-0.5 3.0938,-3.5 4.625,-2 5.5937,-2.5 7.5937,-2 2,1 8.1876,0.625 7.625,-0.5 10.6874,-3 2.5,-4 4.5938,-2 5.5938,-2.5 4.625,-3.625 3.0937,-2.5 3,-1 4.0937,1.125 2.5,-1 5.0938,-5.625 2.0938,-4.0938 3.625,-0.9062 3.5,0.5 5.0937,0 7.0937,0.125 5.5938,0 3.5,-0.5 4.5938,-1.5 4.625,-2.5 4.5937,-5.625 3.0937,-5 2,-3.0938 2.5938,-1.5 9.0938,0.5938 0.5,2.5 4.125,-1.5 3.5937,-2 3.5,-1.6876 2.0937,-1 3.5,-1.5 3.5938,-1 4,-1.5 3.0938,-3.0937 1.625,-4 1,-5.5937 1,-4.125 1.5937,-8.875 7.6875,-4.2188 3,-3.5938 6.0938,-4.5 6.2187,-3.3124 3.5,-1.1876 6.0937,-3.3124 8.6876,-4.2813 3.625,-2 5,-1.8125 5.5937,-2 6.6875,-1.9062 8.5938,-0.5 7.125,1.625 5.5937,1.7812 7.0937,1.8125 6,2.5936 10.1876,1.8126 4.5,1.7812 7.7187,0.8125 5.5,1.0937 4.0937,0.1876 6.5938,1.125 7.0938,1 5.125,0.5937 4.5937,-0.5 5,-1.5 4.0937,-1.2187 5.0938,-2.2813 3.5938,-2.3125 10.125,-4 5.0937,0.3125 4.5937,-0.5 3.5,0.7813 11.1876,-0.875 7.625,-1.8126 3.0937,-1 6.0937,-1.1874 2,-1 4.5938,-2 9.7188,-2.5 5,-1 7.1874,-0.3126 4,-0.1874 4.5938,-1 8.0938,-0.9063 4.125,-1.8125 8.5937,-4.7812 3.5,-0.3126 2.5937,-0.1874 7.1876,0.7812 8.125,1.9062 9.0937,1.5 4,2.0938 9.6875,4.8125 4,3.5937 7.0938,5.0938 6.125,3.9062 4,3.0938 7.0937,1.2188 5.5937,1.875 3.5938,1.2187 5.5,5.5937 8.5938,2.4063 5.625,0 10.6874,-2.2187 4.5938,-1.5 5.5938,-2.7813 3,-2.5 7.7187,-4 6.0937,-1 6.0938,-0.5 7.5938,0 4.5,2.0937 5.125,1.8126 4.5937,1.2812 4,0.5 6.0937,-0.5 6.0938,1.5938 4.5938,2.3124 7,7.0938 9.2187,8 4.5,2.5 11.1875,1.8125 4,3.0937 9.7188,1.8126 14.1874,5.1874 5,1.1876 5.5938,5.7187 4.5,8.5937 2.5,5.9063 3,10.1875 1.5,10.7188 0.5,4.5 0,13 5,8.5937 8.0938,5.9063 7.625,-0.2188 8.1874,-1 9.0938,-2.5 6.0938,-1.6875 3.125,-1 3,-0.8125 4.0937,-3 3.5937,-4.0938 3,-3.8124 1.5938,-4 3,-3.5938 4.5938,-4 5.125,-3.2812 4.0937,-9.7188 10.1875,-9.0938 7.0938,-2.5 11.7187,-1 5.0937,2.5938 7.0938,0 8.0938,-0.4062 6.625,0 3.5937,-0.1876 4.5,-2.5 3.0937,-1.5937 3,1.0937 5.5938,2.5 5.5938,3.5938 3.5,2.3125 3.125,0.2813 3,-1 3.5937,-1.7813 5.0937,-2.3125 9.5938,-3.2812 6.2188,-1.5 4.5,1.0937 4.5937,3 6.5937,6.4063 4,4.5937 3.0938,1.5937 1.5,0.6876 4,0.5 5.0938,-1.5 7.125,-4 4.5937,-2.7813 2.5937,-3 3.5,-3.8125 4.5938,-4.7812 4.5938,-4.625 7.125,-5.5 6.5937,-3.5938 11.1875,-3.5 7.7188,-3 9.0937,-3.5 14.1875,-5.0938 5.5938,-2.3124 11.2187,-4.5 7.0937,-2.7813 6.1876,-2.8125 8.125,-2.6875 7.5937,-3.3125 6.5937,-2.6875 4.5938,-3.0937 7.5938,-1.3126 6.125,-2.6874 7.0937,-1.5 4.5937,-2 4.5938,-4.625 4.5938,-5.5938 5.125,-5 6.5937,-4.4062 5.5937,-4.0938 1,-0.7812 5.0938,-3.2188 6.0938,-3.5 7.125,-2.5 9.6874,-0.1875 7.0938,-0.5 8.5938,-0.5 5.625,0 8.0937,2.0937 6.5937,1 7.5938,3.0938 6.5938,3.8125 5.125,6.5937 5,7.1876 6.0937,7.125 5.5937,6.375 7.5938,6.125 5,3.5937 6.0938,5.0937 7.625,5.8126 8.5937,1.875 5.5937,-0.5 6.0938,-1 5.0938,-1 6.125,-1 5.5937,-0.2813 9.5937,-1 5.0938,-0.7187 8.5938,-2 6.125,-1.2813 4.5937,-1.5 7.5937,-1.5 4.0938,-0.5 3,0.1875 9.7188,-1.1875 8.0937,-1.8125 8.1875,-2 11.0938,-1 10.2187,-4 5.0937,-1.5 7.5938,-1.5 7.5938,-3.0938 7.625,-2 7.0937,-1 7.1875,-0.5 7.0938,-0.5 6.625,-0.4062 6.0937,1.5 9.0937,-1.5 5.0938,-0.5 3.5,-0.7812 3.5938,-0.7188 4.125,-1.5 6.5937,-3.0938 5.0937,-6.0937 3.5,-6.3125 5.0938,-4.2812 4.5938,-14.2188 5.125,-4.4062 5.0937,-3 10.6875,-6.2813 5,-2.5937 7.0938,-3 8.2187,-3.8125 10.5937,-3.3125 7.1876,-0.5 5,-0.1875 9.2187,-3.5938 6.0937,-2.2187 2.5,-2.375 10.1876,-0.4063 9.625,-4.3125 7.5937,-3.7812 7.1875,-3.3125 4,-4.0938 5.0938,-4 6.125,-4.0937 7.0937,-2.8125 1,-0.6875 5.0937,-3.4063 6.5938,-5.3125 3.0938,-3 7.625,-2.2812 5.0937,-1.2188 6.5937,-0.5 9.5938,0 7.0938,1 8.625,-0.7812 9.6874,1.0937 4.5938,-1.8125 7.0938,-2.2812 7.125,-2.2188 11.6874,-5.0937 18.1876,-8.0938 11.7187,-3.5937 12.6875,-1.3125 11.2188,-2.1875 5.5937,-0.5 0.5,0 7.0937,0.5 8.5938,1 8.5938,-0.7188 11.7187,-3.0937 7.5937,-2.5 7.5938,-2 5.5938,1 6.125,0 2,-0.1875 5.0937,-0.5 6.0937,-0.5 5.0938,-0.5 8.0938,0.5 5.125,-2 4.5937,-4.125 4.5,-5 0.5,-0.5938 4.5937,-6.9062 2.5938,-4.0938 3,-4.1875 4.0938,-8.2187 5.125,-8.875 2.5,-4.3125 4.0937,-5.9063 5.5,-7.0937 4.5937,-5.3125 2.5938,-1.7813 7.0938,-3.3125 9.125,-3.5 6.5937,-1.5 2.1875,0.4063 2.9062,0.5937 5.0938,1.7188 1,0.6875 8.0938,4.9062 11.125,6.9063 9.6874,4.7812 10.5938,1.9063 5.0938,0 3.625,-1.0938 4.5,-1 7.5937,-3.5 11.1875,-5.0937 8.5938,-2.5 7.7187,-2.125 6,-0.5 6.0937,0 1.5938,0.2187 9.5938,0.7813 5.625,-1.5 6.5937,-0.7813 6.0937,-1.7187 10.5938,-1.5 9.2188,-1.5938 6,-1.5 13.1874,-2.2812 9.6876,-3.625 6.625,-3.1875 3.5,-1.8125 6.0937,-1.7813 8.0937,-1.5 2.5938,0.5 6.0938,-0.5 9.625,-1.5 5.5937,-0.5 3.7813,0 4.8124,-0.3125 9.0938,1 11.7188,3.5 13.6874,4.9063 14.1876,3.3125 9.7187,0.7812 5.5937,-2.0937 6,-1 6.5938,-1.5 9.2188,-2.5938 10.5937,-1.5 9.6875,-2.3125 11.5938,-4.2812 4.625,-3 5.5937,-3.125 7.0937,-4.5938 6.5938,-4.0937 6.0938,-3.5 8.125,-3.9063 8.0937,-3.7812 8.0937,-2.8125 7.0938,-3.8125 4.5938,-5.5938 8.625,-6.5937 5.5937,-6.5938 5.5937,-8.7187 4.5,-6.5938 3.5938,-6.0937 4.5,0.1875 295.3125,-6 4.5937,-0.094 78.0938,-1.5 49,-1 39.3125,-0.5 8.0937,-0.1875 86.6875,-1.9063 9.7188,-0.094 36.2812,-0.5937 60.625,-0.9063 42.0938,-0.9062 4,-0.094 47.1875,-1.0938 14.7187,-0.7187 53.2813,-2.2813 8.0937,-0.3125 85.7188,-2.4062 37.0937,-0.6875 106.5,-2.2188 40.5938,-0.1875 7.0937,-0.6875 48.7188,-1 76.0937,-1.125 20.8125,-0.2812 97.875,-3.9063 93.9063,-3.5 4,-0.1875 12.7187,-0.625 19.2813,-0.875 45.5937,-2 67.9063,-2.9062 -0.4063,-0.9063 -1.5,-3.6875 -2.0937,-4.9062 -1.0938,-4.5 -1.5,-5.0938 -1.4062,-3.125 -0.4063,-0.7812 -1.7812,-2.7188 -0.3125,-0.6875 -1.5,-3.1875 -1,-5.625 0,-0.6875 -0.2813,-2.5 -0.092,-4.4063 -1.875,-3.2812 -1.7188,-2.9063 -0.5,-0.9062 -1.9062,-1.9063 -3,-3.0937 -2,-6.5 -0.094,-0.9063 -0.5,-4.0937 -0.6876,-2.4063 -1.0937,-3.5937 -0.625,-1.4063 -0.7813,-1.6875 -0.4062,-0.5937 -2.8125,-3.625 -1.5938,-1.6875 -3.9062,-3.0938 -1.0938,-0.8125 -2.4062,-1.2812 -1,-0.625 -1.5,-0.5 -2.0938,-0.094 -5.5937,-0.1875 -1.4063,-1 -1.2812,-0.9063 -0.5,-0.5 -0.625,-1 -1.5,-3.0937 -0.5,-1.2188 -0.875,-2.1875 0.6875,-4.4062 0.094,-0.5938 1,-2.6875 0.3125,-0.3125 2,-1.9062 3,-2.1875 4.0938,-1 0.5937,-0.2188 1.9063,-0.5 1,-0.2812 1.5,-0.7188 0.5937,-0.5 3,-6 0.2188,-1.5 0.2812,-2.7187 -4657.1562,0 z"
     id="rect14"
     inkscape:connector-curvature="0" />
</svg>
