<?xml version="1.0" encoding="UTF-8" standalone="no"?>
<svg
   xmlns:dc="http://purl.org/dc/elements/1.1/"
   xmlns:cc="http://creativecommons.org/ns#"
   xmlns:rdf="http://www.w3.org/1999/02/22-rdf-syntax-ns#"
   xmlns:svg="http://www.w3.org/2000/svg"
   xmlns="http://www.w3.org/2000/svg"
   xmlns:sodipodi="http://sodipodi.sourceforge.net/DTD/sodipodi-0.dtd"
   xmlns:inkscape="http://www.inkscape.org/namespaces/inkscape"
   width="4269.6875"
   height="3804.625"
   viewBox="0 0 4269.6875 3804.625"
   id="svg2"
   version="1.1"
   inkscape:version="0.48.1 "
   sodipodi:docname="AJAX.svg">
  <metadata
     id="metadata20">
    <rdf:RDF>
      <cc:Work
         rdf:about="">
        <dc:format>image/svg+xml</dc:format>
        <dc:type
           rdf:resource="http://purl.org/dc/dcmitype/StillImage" />
      </cc:Work>
    </rdf:RDF>
  </metadata>
  <defs
     id="defs18" />
  <sodipodi:namedview
     pagecolor="#ffffff"
     bordercolor="#666666"
     borderopacity="1"
     objecttolerance="10"
     gridtolerance="10"
     guidetolerance="10"
     inkscape:pageopacity="0"
     inkscape:pageshadow="2"
     inkscape:window-width="1280"
     inkscape:window-height="1004"
     id="namedview16"
     showgrid="false"
     fit-margin-top="0"
     fit-margin-left="0"
     fit-margin-right="0"
     fit-margin-bottom="0"
     inkscape:zoom="0.13768412"
     inkscape:cx="3112.5669"
     inkscape:cy="1251.1507"
     inkscape:window-x="-8"
     inkscape:window-y="-8"
     inkscape:window-maximized="1"
     inkscape:current-layer="svg2" />
  <path
	 style="fill:#9FAEC0"
	 stroke="#9FAEC0"
	 stroke-width="10"
	 transform="translate(0, 125)"
     d="m 1840.7812,0 -7.1875,1.75 -4.4062,1.5937 L 1827,4.25 l -5.0938,3.5937 -4.2187,2.9063 -4.5,4.1875 -4.0938,2.59375 -2.2812,1.40625 -2.125,1.09375 -2.6875,0 -3.4063,-1.09375 -3.5,-3.1875 -2.5937,-2.5 -4,-3.7187 -3.5938,-0.9063 -3.5,-0.5937 -5.2187,1.4062 -3.0938,1.5 -4.7812,1.8125 -3.8125,1.5937 -4.1875,2.7813 -2.2188,1.625 -4.2812,3.6875 -1.9063,2.1875 -1.0937,1.5 -2.125,3.40625 -4,4.59375 -2.875,3.3125 -3.2188,3.1875 -4.5937,4.125 -1.6875,2.1875 -0.4063,0.5 -1.9062,3.90625 -0.5,2.1875 -0.3125,2.90625 0.4062,3.5 1.9063,5.6875 3.8125,4.3125 10.2812,9.40625 3.0938,4.1875 2.5,4.90625 1.625,4.59375 2.2812,4.71875 1.9063,3.28125 1.4062,1.90625 0.6875,1.09375 2.4063,4.40625 1.5,3 0.5,2.40625 0.3125,2.6875 0.5937,4 1.5,5.09375 1.4063,4.5 2.375,9.125 4.125,7.5 2.5,4.28125 2.2812,3.5 4,5.09375 2,4 1.9063,4.71875 0.5,4 1.0937,2.6875 0.3125,0.90625 -0.094,5.90625 -1.125,6.09375 -2.7812,7.5 -3.0938,7 -3.2187,6.5 -2.6875,7 -0.5,2 -0.5,2.8125 -0.5,6.5 -0.3125,2.59375 -0.094,2.1875 0.9063,8.59375 0.4062,5.5 -0.4062,3.125 -0.2188,1.1875 -0.5,1.6875 -1.2812,1.5 -1.4063,1.40625 -3.5,3 -4.0937,3.09375 -2.5,2.5 -0.5,1 -0.5938,1 0.094,1.3125 0.1875,1.09375 1.4062,2.59375 3.0938,2 4,3 2.5937,1.40625 0.5,0.3125 3.125,2.28125 0.375,0.3125 2,2 1.8125,4.1875 0.5,3 0.094,0.90625 0.5,3.71875 -0.5,2.875 -1.5937,4.625 -1.4063,5.59375 -1,5.78125 0.5,4 0.8125,4.21875 2.0938,3.5 2,4 1.4062,3.09375 1.4063,4.09375 1.0937,2 0.2813,3.3125 0.5,5.1875 -1.0938,5.59375 -1.5937,6.5 -1.0938,2.21875 -1.3125,2.28125 -2.7812,5.21875 -0.625,1.28125 -3.6875,6.71875 -2,4.5 -0.8125,2.59375 -0.5938,2.09375 0.7188,3.40625 0.1875,1.5 0.5,4.6875 -0.094,5.125 -1,5.09375 -1.9063,2.78125 -0.8125,1.125 -4.1875,3.875 -4,2.625 -4.5937,3.5 -6.0938,2.59375 -6.125,5 -2.5937,4 -2.6875,4.5 -0.3125,0.6875 -1,3.09375 -1.5,5 -1,3.40625 -1,3.59375 -2,6.625 -0.6875,4.5 -0.2188,1.5 -0.5937,6.09375 -0.9063,4 -1.5,5.59375 -1.5,4.5 -3.0937,4.09375 -3,4.09375 -3.0938,5 -3,4 -4.5937,6.625 -4.8125,9.09375 -4.7813,8.40625 -1.125,4.59375 -0.875,1.59375 -0.8125,3.5 -1.0937,4.90625 -0.8125,4.59375 -0.6875,4.6875 -0.4063,2.21875 -0.4062,3.5 0.4062,7.09375 2,6 -0.1875,6.59375 -0.125,7.59375 -1.1875,5.5 -1.9062,3.21875 -3.2813,3.1875 -2.8125,2.71875 -1,0.78125 -4.5937,3.90625 -3.0938,3 -3.2187,3.5 -0.4063,0.5 -2.375,3.3125 -1.8125,3.5 -0.5937,1.59375 -0.5,1.59375 -0.5938,2.90625 0.5,4 1.375,4.09375 1.8125,3.90625 0.5625,1.5625 182.7813,0 0.062,-50.96875 -0.094,-59.6875 -0.2187,-140.3125 -0.5,-125.59375 -0.094,-76 0,-11.5 L 1852.9376,0 1840.7813,0 z"
     id="rect4"
     inkscape:connector-curvature="0" />
  <path
	 style="fill:#9FAEC0"
	 stroke="#9FAEC0"
	 stroke-width="10"
	 transform="translate(0, 100)"
     d="m 1671.5625,634.40625 0.9375,2.53125 1,3.6875 0.5,4 -0.094,5.125 -0.094,3.1875 -0.125,1.09375 -0.375,3.09375 -0.625,3.125 -1.2812,3.875 -0.5,1.125 -2.0938,6.09375 -0.5,1.40625 -1.3125,4.1875 -0.3125,0.8125 -0.5937,5.59375 -0.2813,1.6875 -0.3125,2.3125 -0.1875,7 0.875,9.09375 0.625,5.3125 0.2813,2.28125 0.9062,6.5 0.4063,6.09375 -0.094,3.40625 -0.2187,2 -0.9063,4.59375 -2.0937,4.5 -2,2 -1.6875,2 -1.0938,1.40625 -4.3125,2.8125 -5.5937,5 -3.0938,4.59375 -1.5,5 0.094,2.59375 0.094,2 1.4062,5.71875 2,6.875 2.7813,6.90625 1.5,4.5 0.9062,3.8125 0.094,0.78125 -0.375,5 -1.3125,3.71875 -1.4063,1.09375 -1.2812,0.8125 -3.125,0.59375 -2.5,-0.0937 -4.5,-2.125 -4.5938,-2.59375 -1.1875,-0.78125 -3.2187,-2 -3,-1.90625 -3.5938,-1 -3.5937,-0.59375 -5.6875,1.1875 -2.9063,1.1875 -0.5937,0.40625 -2.3125,4 -0.5938,4.09375 0.7813,4.125 1.7187,5.78125 2.5938,5.59375 0.8125,1.90625 1.375,2.8125 3,3.78125 3,4.40625 1.5,3.59375 0.4062,1.71875 0.3125,1.78125 0.5938,4 -0.5,3.71875 -2.0938,3.78125 -2.0937,2.5 -2.7188,2.5 -4.0937,3.90625 -6.8125,3.90625 -3,1.8125 -5.2813,3.09375 -1,0.5 -2.5,1.78125 -2,2 -0.8125,2.40625 -0.5,1.8125 -0.094,4.78125 0.9062,4.71875 1,5.09375 0.4063,2.09375 0.5,2.90625 0.875,6.3125 0.4062,3.09375 -0.5,5.28125 -0.4062,2.8125 -0.2813,2.6875 -1.5937,5 -2.625,5.3125 -4,4.59375 -1.875,1.71875 -3.125,2.28125 -7.1875,5.90625 -6.6875,4.8125 -7,7 -0.4063,0.5 -2.5937,5 -1.125,3.78125 0.5,6 1.625,4 2.1875,4.90625 3.8125,4.40625 3.6875,3.78125 3,3.5 0.5,0.625 2.5937,3 2.3125,3.28125 1.5,2.21875 1.5938,2.28125 3,4.4062 3.3125,5.5938 0.7812,1.7187 1.2188,2.375 1.5,2.8125 0.5937,3.8125 -1.0937,5.0001 -2.7188,3.5 -2.4062,2.5937 -0.6875,0.7813 -4.0938,2.125 -5.2187,2.0937 -3.5938,1.1875 -3.0937,1.4063 -2.5938,2 -2.7187,2.5 -1.2813,3.0937 -0.5937,2 -0.2188,1.9063 -0.5937,4.1875 -0.5938,4.5 0.4063,5.3125 0.375,5.0937 0.3125,4.8125 0.094,0.9063 -0.5937,5.375 -0.6875,5.9062 -0.625,4.0938 -2.1875,10 -2.1875,8 -1.125,2.7187 -2.5,4.6875 -2.5938,4.0938 -4.5,4.5 -5.1875,2.625 -4.0937,0.5 -4.625,-0.3125 -3.5,-0.5938 -4.1875,-0.5 -5.5938,0 -4.0937,0.094 -1.4063,0 -3.5937,1 -4.625,2 -4.1875,3.4063 -3.5938,2.5 -2,1.2812 -3.0937,3 -1.5,1.5 -5.3125,4.9063 -6.9063,5.5 -4.1875,3.5 -7.3125,6.4062 -5.4062,4.8125 -3.5,3.0938 -8.875,8.9062 -11.5,10.7813 -3.125,3.2187 -5.5,5.7813 -4.0938,5 -8.5937,7.2187 -2.1875,1.5 -4.125,3.5 -3.1875,3.375 -1.8125,2.2188 -4.5,6.5937 -4.0938,4.0938 -1,0.9062 -5.0937,5.0938 -8.0938,7.0937 -2.9062,3.125 -5.5,6.0938 -2.8125,3.0937 -3.0938,3.9063 -4.2187,5.4687 1387.0312,0 0.1875,-53.0625 3.3125,0.2813 -0.094,-10.0938 -0.125,-9.9062 -1.2812,-95.4063 -1,-95.2813 -45.0938,0.5938 -198.7187,1.8125 -80.2812,0.5937 -50.8125,0.7813 -237,2.2187 -200,1.2813 -79.5,0.4062 -0.8125,-36.68745 -1.5938,-195 -0.4062,-37.8125 0.125,-61.6875 0.031,-47.4375 -182.7812,0 z m 2190.3437,374.34375 -4.5938,2.1875 -3,2.5937 -1.9062,2.5938 -2.0938,2.4062 -2.625,5.8126 -1.5937,1.5 -1,1 -1.5,2 -1.0937,0.5937 -3,1.5 -1.5,-0.094 -0.5,-0.094 -1.5938,0.094 -0.4062,0 -1.5938,0.094 -4.0938,0.5938 -5.125,0 -1.875,1 -2.125,0.9062 -1.5,1.5 -1,1.5938 -0.5,0.9062 0,1.1875 0.125,0.9063 0.375,1.0937 0.4063,0.625 0.3125,0.7813 2.1875,1.9062 0.7187,1.0938 0.375,0.3125 1.4063,1.6875 0.7187,2.8125 -1,1.4062 -0.625,1.375 -0.7812,0.9063 -4.5,4.0937 -5,4.3125 -2.3125,2 -3.0937,2.5 -3.5,3.5938 -2.5938,2.5 -0.3125,0.4062 -2.6875,3.1875 -2.4062,3.3125 -1.8126,3.8125 -0.875,4 0.094,2.5 -0.5,2.5 0,1 -0.3125,1.5938 -0.4063,1.4062 -1.1874,1 -1.6876,1.0938 -2,0.1875 -2.625,0.094 -6.0937,-1.6875 -1.1875,-0.4062 -5.3125,-1.6875 -5.2813,-2.5938 -5.7187,-2.2187 -7.7813,-3.4063 -7.4062,-3.5937 -2.7188,-0.9063 -5.5,-1.5 -0.6874,-0.5937 -1.0938,0 -10.0938,-2 -7.3124,-1.7813 -3.3126,-0.9062 -1.7812,-0.4063 -1.7188,0.5 -0.7812,2.4063 0,0.5937 0.5,0.9063 1.0938,1.6875 1.8124,2.9062 1.0938,3 -0.5,1.5 -1.0938,1.8125 -1.9062,0.6875 -1.5938,-0.4062 -1,0.2187 -2.625,-0.4062 -2.0937,-1 -2,-0.9063 -2.0937,-0.4062 -1.5938,-1 -2.5,0.094 -1,0.5 -1.5,1 -1.5938,1.5 -0.4062,3.125 0.5,3 4.0938,5 1.5937,2.5 0.4063,0.875 1.0937,2 0.094,2 -1,1.625 -1.5,1 -1.5937,0.5938 -1,0 -1,-0.5 -1.5937,0 -1.4063,-0.5 -2.1875,-0.8125 -2,-0.4063 -1.5938,-1.5 -1.125,-0.375 -3.0937,-1.9062 -2,-1.4063 -2,-2 -3.0937,-2.5937 -4,-2 -4.0938,-1.0938 -3.0938,-0.9062 -3.2187,-0.8125 -1.5,-0.5 -4.1875,0 -2,1 -0.7188,0.4062 -1.5937,1 -1.0937,2 -0.5,2.8125 0.6874,1.6875 1.2188,2.8125 0.5,1.1875 4.1875,5.6875 3.0937,2.625 0.4063,0.375 1.8125,1.9063 3.0938,2.4062 5,2.6875 2,0.9063 1,0.8125 2.1874,0.7812 3,1.4063 3.125,2.5 1.6876,3.5 1,3.5 -0.6876,3.5 -2,2.0937 -3,2.125 -3,1.0938 -1.625,0.5937 -5.5937,-0.8125 -6,-2.5 -3.1875,-2.2812 -3.0938,-1.5 -3.7187,-2.3125 -1.5,-0.5938 -0.7813,-0.3125 -3.125,-0.875 -2.0937,-0.9062 -2.1875,0.094 -3.5938,-0.5 -3.125,0.094 -1,0 -1.5,1 -2.2812,1.9062 -1.8125,2.1875 -0.1875,2.3125 1.6875,4.8125 4.9063,8.0938 6.6874,5.0937 7.125,4.5938 5.6876,1.5 0.3124,0.4062 2.7813,2.5938 2.0937,1.5 1.5,1.5 3,4.8125 -0.094,2.5937 0.094,1.5938 -1.5,1 -1,0.5 -1.375,-0.4063 -1,-0.094 -1,-0.5937 -1.8124,-1.1875 -0.5938,-1 -0.7188,-1.7188 -1.0937,-1.4062 -1.4063,-1.1875 -0.5,-0.3125 -0.5937,-0.2813 -1.1875,-0.4062 -1.3125,0 -1,0.5937 -1,0.5 -0.5,1 0.5,1.5 0.8125,1.9063 1.2812,2.1875 1.3126,2.125 1,2.1875 0.094,1.8125 0.094,1.1875 -1.0937,0.8125 -2.5,0.375 -2.0937,-0.375 -2.5938,-2.5 -1.5938,-2.5 -2.625,-3 -1,-1.5 -2.5937,-2.9063 -1.9063,-0.8125 -1.2812,-0.1875 -1.4062,0 -2.3126,1.4063 -1.0937,0.875 -0.1875,1.125 0,1.5937 0.9062,1.4063 1.5938,1.5 1.5938,0.875 1.5937,0.7187 1.0937,1.5 0.5,1.5 0,2 -0.5,0.5 -0.375,0.1875 -1.2187,0.094 -0.5,-0.1875 -4.5,3.5 0.3125,0.9063 -0.8125,3.6875 0.4063,4.4062 -0.4063,2 -1.4063,2.5938 -0.5,1.5 -1.875,3.0937 -1.7187,1 -1.5937,1 -0.5,0 -1.9063,-0.094 -1.4063,-0.2812 -1.7812,-1 -1.0938,-0.3125 -1.5,-0.6875 -2,-1 -2.5,-0.125 -2.625,0.125 -2,1 -2.1874,0.5937 -2.5,1.4063 -2.9063,0.375 -2.1875,-0.5 -1.9062,-0.875 -4.3126,-2.3125 -2.5937,-2 -2.0937,-1.5 -2.5,-0.4063 -2.0938,0.2188 -1.5938,-0.5 -0.5,0.094 -3,0.1875 -3.8124,0.5 -0.8126,0.094 -5.0937,1.4062 -0.5,0.094 -7.1875,2.2188 -0.4062,0.1875 -4.1876,1.3125 -4,1 -3,0.5 -0.625,0 -3,-0.3125 -2.6874,-0.5938 -1.5938,-1 -2,-1.1875 -2.5938,-2.4062 -1.125,-2 -1.5,-0.9063 -3.5937,-1.5 -1.5937,0.094 -4.0938,0 -1.9062,-0.6875 -0.5938,-0.9062 -0.5938,-2.0938 0.375,-1.4062 0.5,-1.5 0.125,-1.0938 -0.5,-1.4062 -1.5,-0.4063 -2.4062,0.9063 -2.5,1.0937 -1.0938,1 -2,0.5938 -1.5,0.4062 -1.3124,0.094 -1.5,-0.5 -3.4063,-1.875 -3.1875,-1.8125 -4.7188,-0.9062 -4.0937,-0.2813 -3.5,1.0938 -5.5937,1 -2.5938,0.7812 -1.5,0.125 -3.0938,0.5938 -3,0.5 -1.625,0.094 -1.6874,0 -3.4063,-0.5 -2.2813,-0.3125 -1.3124,-0.5938 -1.0938,-0.2812 -1,-0.4063 -2.5938,-0.9062 -1.7187,-0.9063 -0.4063,-0.1875 -1.5937,-0.5937 -0.5,-0.2188 -2.5937,-0.5 -1.5,-0.4062 -5.6876,-1.7813 -1.625,-1.5 -0.5,-0.5 -2.2812,-1.3125 -1.8125,-0.9062 -1.6875,-1.5 -0.4062,-0.375 -2.4063,-2.2188 -1.6875,-1.9062 -1,-1 -1.5938,-1 -3.625,-0.875 -1.375,-0.8125 -1.625,-0.4063 -2.0937,-1 -2,-0.9062 -2.1875,-1.875 -2,-1.5 -2.5938,-1 -1.5,-0.9063 -4.7187,-3 -3.0937,-5 -3.5938,-6.2187 -1.0938,-1.7813 -0.7187,-4.5937 0,-1.125 -0.5,-2.0938 -0.5937,-0.9062 -1.5938,-1 -1,-0.2813 -0.5,0.1875 -0.8125,0.2188 -1.1875,1.1875 -0.4062,0.8125 -0.8126,2.0937 -0.2812,1.0938 -0.2188,1.1875 -0.5937,0.2187 -1.5937,0 -3.0938,-0.3125 -1.5,-0.2812 -1.5,0 -1,0.094 -2.2188,0 -2.375,-1.0938 -2.2187,-1.9062 -1.5,-1.4063 -0.9063,-0.5937 -1.1874,-2.9063 0,-2 -1,-1.8125 -1.1876,-2.875 -1,-1.125 -1.4062,-1.5937 -0.5938,-0.5938 -1,-0.5 -0.2187,-0.5937 0,-1.5938 0.094,-1.9062 0.3126,-1.2188 0.4062,-1.6875 1.0938,-1.1875 1,-1 1.8124,-1.4062 1,-0.5 1.5938,-1 1.5938,-0.5 3,-0.5938 2.0937,-0.125 1.5,0.5 2.0937,0.4063 2.125,1.4062 2.5,0.3125 1.5938,-0.5 5.0938,-1.625 2,-1.0937 1.5,-1.5 1.5,-2 0.8124,-3.0938 -1.2187,-4.1875 -1.1875,-1.2187 -2.5938,-3 -4,-1.9063 -0.5,-0.2812 -2.2187,-0.8125 -2.5,-0.1875 -1.5,0.5 -4.1875,1.7812 -2,2 -2,1.625 -0.9062,0.375 -1.5,0.7188 -1,0.2812 -3.0938,-0.5 -2.5938,-0.5 -1.2187,-0.375 -2.4063,-1.125 -1.0937,-1 -1.0937,-3 -0.5938,-2.5 0.5,-1.875 1.5,-3.5 1,-3.625 1.5,-2 1.5,-2.0937 1.6875,-2.0938 2,-2.1875 0.9063,-2.2187 0,-1.5 -1,-0.5 -2.0938,0 -1,0.2187 -1,0.7813 -1.5938,0.8125 -2,2.2812 -1.9062,2.4063 -1.5,1.5937 -1.5,2.5 -1.5,0.5 -1.2188,0.125 -1.2812,-0.125 -1.5938,-0.2812 -1.5,0.5937 -1,0.5938 -2.3124,1.8125 -1.0938,0.9062 -1.4062,2.5938 -1.6876,1.4062 -0.4062,2.5 -0.4062,3.5938 1.0937,8.1875 0.8125,4 0.5938,2.5 0.6874,2.5 -0.5937,2 -0.1875,0.5 -0.7188,1 -0.875,0.5 -0.625,-0.094 -1,0.094 -3.0937,-0.4063 -3,0 -0.9063,0.3125 -1.7812,1.8125 -0.3125,2 -0.5937,2 -0.1876,1.5 -0.4062,2 -1,2 -1,1.0938 -0.5,1 -1.5,1 -0.9062,1.5937 -1.0938,1.4063 -0.4062,1.1875 -0.5938,0.4062 -0.5,0.1875 -1,0.625 -0.5938,0.6875 -1,1.5 -1,2.5 -0.2187,1.4063 0,1.5937 0.094,1.4063 0,0.5937 1.125,1.5 1.1876,1.5 0.4062,0.4063 1.4062,1.7812 2.7813,1.8125 2.5,2 2.2187,3 0.7813,3 -0.5,2.6875 -1.2813,2.4063 -2.625,1.5 -3.0937,0.5 -1.5937,0 -3.5,-0.9063 -2,-1.1875 -2.0938,-1.8125 -2.8125,-1 -2.0937,-0.375 -2.3126,0.1875 -2.5937,0.5938 -2.0937,1.7187 -1.9063,2.5938 -0.5,4.9062 -0.7813,4.0938 -2,3.5937 -0.3124,0.4063 -3.5938,5.1875 -0.4062,0.4062 -2,2.8125 -1.5,1.2813 -3.0938,2 -0.9062,0.9062 -2,1.5938 -0.5,1.5 0,1 -0.094,2.0937 0.094,0.625 -0.3126,1.875 -0.5,1.5 -2.2812,5.125 -1,2.5 -1.0938,0.5 -1.5,0.5938 -1,0 -2.625,-0.5 -1.5,-0.5 -1,-0.3125 -1.5937,-0.4063 -1.5,0 -1.5,0.125 -1,0.5 -1,1.0938 0,1.5 1.0937,0.5 0.5,1.4062 0.4063,1.6875 -0.4063,2.1875 -1.5937,1.8125 -2.2813,0.5 -2,1.0938 -2.4062,0.5 -2,0 -1,2 1,2.5937 0.4062,1.9063 -0.7187,3.2187 -1.6875,4.875 -1.7188,2.8125 -1.5,2 -0.875,1.0938 -1.9062,2.2187 -1.0938,2 -0.4062,2 -0.5,1 -2.5,2.0938 -1.5938,-0.5 -1.125,-0.4063 -1.375,-0.5 -3.3124,-0.6875 -0.4063,-0.8125 -2.5937,2 -0.4063,0.3125 -2.0937,1.7813 -2.5,2 -1.5,2.0937 -1.3126,2.4063 -0.375,1 0.8438,2.2812 986.3125,0 -1.4687,-1.9687 -1.6876,-1.4063 -1,-2.5 -0.3124,-1.0937 0.6874,-1 0.9063,-1.0938 0.5,-0.125 0.5937,-0.1875 1.3126,0.3125 2.8124,0.2813 2.0938,0.5 2.2812,0 2.3126,-0.094 1.5937,-0.094 2,-1.0938 -0.094,-1 -0.6876,-1.8125 -0.4062,-0.5937 -1.5938,-1.5 -2.125,-1.4063 -2.5937,-1.4062 -6.1875,-3.5938 -1.7188,-1.6875 -1.875,-2.3125 -0.3124,-0.5 -0.5938,-1.6875 0.5938,-1.625 0.6874,-1.0937 2.125,-2 3.5938,-2 5.0938,-1.6875 4,-2.2188 2.5937,-0.875 2,-1.5 3,-1.9062 2.2187,-1.4063 0.875,-1.1875 0.8126,-1.625 0.4062,-1.5937 -0.7188,-1.9063 -1.5,-1.5 -1.0937,-0.5 -2,-0.375 -4,-0.3125 -3.1875,0.5938 -2.9062,1.0937 -1,0.625 -3.8126,3.5 -1.2812,1 -1.4062,2.0938 -0.9063,0.6875 -2.5,2.0937 -3.0937,1.125 -2,-0.125 -0.5,0 -3.5938,-1.5937 -3.7188,-1.5 -2.875,-1.1875 -4.2187,-1.2188 -4.5937,0 -1.8126,-0.094 -3.2812,-0.4062 -0.5,0 -2.0938,-0.375 -2.3124,-0.4063 -2.0938,-0.4062 -0.7188,0 -1.875,-1 -2.8124,-1.6875 -0.8126,-2.2188 -0.094,-2.6875 0.8125,-2.3125 3.0938,-1.9062 0.4062,-0.2813 1,-1 1.5938,-1.5 2.5937,-2.8125 1.7187,-2.5 0.7813,-0.6875 1.3125,-1.0937 1.7812,-3.9063 1,-2.5 0.3126,-4.5937 0.1874,-0.7188 -0.094,-1.6875 -0.5,-2 -1,-1.0937 -1.5937,-0.4063 -2,-0.4062 -4.0938,0 -1,1 -0.9062,0.5937 -0.4063,0.5938 -1.0937,2.125 -0.3126,0.5 -0.375,1.7812 -0.5,2 -0.5,2.5 -0.5,1 -1,2.0938 -0.9062,0.8125 -3.5938,2.6875 -1.9062,1 -2,0.625 -1.8125,0.5 -1.7813,0 -1.8124,-0.5 -2.3126,-0.9063 -2.6874,-3.3125 -0.6876,-5.5 0.2813,-3.5 0.9063,-4.0937 0.4062,-2.3125 -0.094,-2.5 -0.625,-2.6875 -1,-2 -1.6874,-2.5 -2.5,-2.3125 -3.8126,-2.5 -1,-1.2813 -1.375,-0.4062 -3.4062,-2.0938 -1.2188,-1.5937 -0.375,-0.4063 -0.7187,-0.9062 -1,-2.8125 -0.5,-2 0.5,-1.5 1,-2.5 1.5,-1.5 1.5,-0.5 2.5937,-1 2.5,-0.5938 0.5,-0.094 3.9063,-0.094 5.9063,-0.4062 9.5,-1.1875 5.8124,-1.5 3.5938,-2 3.5938,-4.5 0.9062,-1.2188 0.5938,-1.4062 1,-1.5 0,-1.5 1,-2.5938 0.094,-1 0.4063,-2 0.6874,-3 -0.2812,-3.5 -0.5,-3.5937 -0.094,-3.5 -0.5,-3 -0.625,-2.5938 -1,-2.4062 -0.2812,-0.8125 -1.0938,-1.5938 -1.2187,-1.0937 -1.5,-1 -2,-1.3125 -2.0937,-0.375 -6.1876,-0.7188 -11.4062,-2.6875 -5.2188,-1.9062 -1.5,-0.4063 -1.5937,-0.5 -2.0937,-1.4062 -1.3126,-1 -2.875,-1.2813 -2.8124,-1.0937 -0.8126,0.375 -2.1874,1.2187 -0.5938,0.9063 0.4062,1.7812 1.1876,2.7188 1.0937,2 1.5,2.5 1.0937,3.0937 -0.5,2 -0.7812,1.5938 -1.3125,0.9062 -0.5,0.2813 -1.1875,0.625 -2.3125,0 -2.0937,-0.125 -2.0938,-0.6875 -7.0938,-1 -11.2187,-2 -4.2813,-1.3125 -1,-1 -1.5,-0.5 -1.125,-1.5 -1.5,-1.5 -0.094,-0.875 -2,-3.625 -1.0937,-2.5 -1.5938,-2.5 -2.5,-2.2813 -2.4062,-0.9062 -2.1876,0.094 -1.9062,0.5938 -1,0.5 -1.0938,1.4062 0.375,2.2188 0.3126,1.5 2.3124,1.875 3.0938,2.125 1.5938,2.7812 0.094,4 -0.2813,5.5938 -0.2187,5.2187 -0.5,4.4063 -1.9063,5.0937 -1.6874,0.9063 -1.5,0.1875 -2.5,0 -2.5938,-1.5 -2.0938,-2.5 0.5,-5.5 -0.2187,-3.4063 -0.4063,-2.5937 -0.2812,-1.5938 -0.4062,-1.9062 -0.9063,-2.3125 -1,-2 -1.5,-1 -2.0937,-0.375 -3.0938,0.094 -4.0938,1.0938 -1,1.5 -2,2.0937 -2.9062,2.2188 -1.2188,1.2812 -0.7812,0.8125 -2.7188,0.7813 -0.7812,0.4062 -7.2188,1.2188 -8,0 -2.1874,-0.2188 -3.1876,-0.9062 -2.7187,-1 -2.0937,-1.375 -4.0938,-4.3125 -2.2188,-3.5938 -6.375,-8.7187 -2.2187,-4 -0.9063,-1.6875 -0.7812,-1.6875 -3.2188,-3.9063 -2.0937,-3.5 -2.2813,-2.9062 -1.625,-1.9063 -2.0937,-1.5 -2.1875,-1.1875 -0.4062,-0.3125 -2.1876,-1.6875 -0.4062,-0.3125 -2.2188,-1.7812 -2.0937,-3 -3.1875,-3.9063 -0.9062,-1.9062 -2,-1.6875 -3.1876,-3.8125 -3,-3.3125 -4.3124,-3.875 -4.0938,-3.3125 -7.4062,-4.0938 -2.8126,-1.4062 -2.5937,-2 -2.6875,-2.1875 -2.4062,-1.4063 -2.6876,-1.8125 -3.625,-2.5 -4.1874,-0.7812 -6.5938,-2.625 -11.5938,-3.2813 -10,-2.3125 -6.125,-1.1875 -10.1874,-3.2187 -9.4063,-3.1875 -8.6875,-0.1875 z m -742.5938,258.0938 -1.3124,1.9687 9.9062,0 -0.094,-0.062 -1.2187,-0.9062 -2.0937,-1 -3.0938,0.094 -2.0938,-0.094 z m -13.125,1.6875 -0.4374,0.2812 0.6874,0 -0.25,-0.2812 z"
     id="rect6"
     inkscape:connector-curvature="0" />
  <path
	 style="fill:#9FAEC0"
	 stroke="#9FAEC0"
	 stroke-width="10"
	 transform="translate(0, 75)"
     d="m 1360.375,1268.8125 -2.4688,3.2188 -0.4062,0.5 -5.9063,11.5937 -6.4062,10.5 -0.7813,1.125 -3.0937,5.7813 -1.4063,2.5937 -4.3125,7.4063 -2.9062,4.3125 -3.375,2.5 -4.125,1.5937 -4.0938,0.9063 -5.5937,0.5937 -2.0938,0.1875 -5.0937,0.5 -6.2188,1.9063 -5.6875,1.9062 -5.2187,3.4063 -2.2813,1.5937 -1.7187,1.4063 -2.2813,2.2812 -0.5,0.7188 -2.0937,2.9062 -3.7188,5.2813 -4.0937,4 -2.3125,2.3125 -0.6875,0.7812 -4.9063,4.9063 -1.5937,3 -2.0938,6.2187 -0.5937,1.875 -1.125,4.4063 -1.1875,5 -2.0938,5 -2.0937,2 -3.625,2 -8.1875,-0.6875 -2.0938,-0.3125 -1.4062,-0.5 -6.1875,-1.9063 -7.7188,0 -2.5937,0.7188 -3.5938,1.0937 -5.5937,1.8125 -3.625,1.5 -0.7813,0.094 -3.8125,0.5 -3.5,1.5 -1.9062,1.0938 -1.6875,1 -4.0938,3 -1.5,0.8125 -2.5,1.1875 -3.5937,1.5 -5.2188,2.9062 -1.4062,0.9063 -2.1875,1.5 -1.9063,1.5937 -2.2812,1.9063 -2.625,2.375 -3.0938,2 -3.2812,2.125 -6.625,4.0937 -9.6875,5.5938 -8.6875,6.5937 -4.625,1.8125 -2.375,0.7813 -6.2188,1.9062 -2.6875,0.2188 -3.5937,0 -3.625,-1 -6.5938,-2.5 -4.6875,-4.4063 -4.0937,-5.4062 -2.625,-5.6875 -1.7813,-5.9063 -2,-7.5937 -0.3125,-1 -1.6875,-5.625 -2.0937,-7 -3.2188,-7.5 -0.5937,-1.0938 -2.3125,-3.6875 -3.5,-5.0937 -3.5,-3.625 -3.5938,-3.0938 -3.5,-2.4062 -0.9062,-0.6875 -1.6875,-1 -6.0938,-2.0938 -6.8125,-0.5937 -4.4062,0.375 -4.6875,1.9062 -5.1875,3.3125 -3.125,3.5938 -3,3.3125 -2,2.6875 -2,3.0937 -1.5938,2.5 -4.5,6.5938 -4.2813,5.625 -5.2187,5 -4.6875,3.875 -1.4063,0.9062 -2.3125,1.3125 -9.5937,6.0938 -4.59375,2 -4.40625,1.9062 -2.6875,1.0938 -3,1.3125 -4.8125,1.875 -4.09375,2.5 -3.5,3.625 -3.59375,4 -2.5,3.5937 -1.21875,2.5938 -0.6875,2 -1.3125,4.9062 -0.28125,1.5938 -0.5,4 0,4 -0.90625,5.5937 -1,7 -1.5,7.0938 -1,8 -0.59375,7 -0.21875,7.625 -0.5,6.0937 -0.1875,6.4063 -0.40625,3 -0.40625,2.1875 -0.5,2.3125 -2,2.6875 -2,0.9062 -1.59375,0.4063 -2.28125,-0.4063 -1.3125,-0.3125 -4.59375,-1.5 -2.5,-1 -6.3125,-3.5 -3.78125,-1.9062 -5.40625,-1 -4.09375,-0.6875 -1.625,-0.3125 -3.28125,0.4062 -1.90625,0.3125 -2.6875,0.5938 -3.3125,0.3125 -0.8125,0 -4.09375,-1 -4.09375,-1.5 -3.09375,-0.625 -1.3125,-0.1875 -2.6875,-0.4063 -8.59375,-0.6875 -6.8125,0.9063 -9.3125,2.2812 -3.09375,1.3125 -3.28125,1.6875 -2,1.5 -2,1.9063 -4.71875,4.3125 -3.5,5.5 -1.5,3.5 -0.6875,2.6875 -0.21875,1.4062 0.40625,4 1,4.0938 1.09375,4.4062 0.625,3.5 -0.5,5.1875 0,4.4063 -0.625,4.0937 -0.375,2.5938 -0.40625,1.7187 -1.90625,2.1875 -2.59375,1 -3.09375,1 -5.125,0.3125 -5.28125,0.4063 -5.09375,1.5 -3,1.375 -2.625,2.625 -2.5,3.5937 -3.78125,7.5938 -1.3125,3.5 -1.5,4 -2.59375,3.5 -2.5,2.0937 -3,2.5 -2.59375,2.0938 -2.40625,2.8125 -2.09375,3.0937 0,2.5938 -0.5,4.625 0,1.375 0.28125,2.3125 1.40625,5.3125 3,7.875 2.90625,8.625 1.8125,7.6875 0.5,7.4062 0.1875,2.7813 0,7.8125 0.0937,7.0937 0,5 0.0937,5.5 0,3.5938 -0.59375,4 -0.5,2.4062 -0.90625,3.5938 -2.375,6 -2.5,4.2187 -0.625,1 -3.78125,4.1875 -2.59375,2.2188 -1.8125,1.1875 -5.5,2.9062 -6.09375,2 -11.90625,0.1875 -5.59375,-1.5937 -2.3125,-0.9063 -1.6875,-0.6875 -3.59375,-1.5 -2.8125,-0.5937 -2.5,-0.125 -2.09375,1.125 -1.71875,3 -0.28125,0.5 -0.5,3.375 0,4.625 1.09375,3.5937 0.8125,2.1875 0.78125,2.3125 2,6.1875 0.59375,1.9063 3.40625,7.5937 4.5,5.5938 5.59375,4.625 5.5,5.1875 2.8125,2.5 1.6875,1.6875 4.40625,4.8125 4.59375,5.9062 2.625,3.9063 1.09375,4.6875 1.09375,6 0,3.8125 0.0937,1.1875 -0.6875,5.0937 -0.3125,2.3125 -0.5,2.6875 -2,4.5938 -3,4.625 -1.6875,3.6875 -2.09375,3.9062 -0.625,1.0938 -2.6875,4.8125 -2.09375,6.0937 -0.71875,8.5938 0.90625,5 1.5,4 3.71875,5.9062 3.59375,4.0938 2.09375,3 2.59375,4 2,2.5 1,3.5937 0.0937,1.3125 0,3.1875 -0.5,1.7188 -0.78125,1.7812 -2.59375,3 -1,0.7188 -1.71875,0.875 -1.40625,0.7187 -0.59375,0.094 -4.09375,-0.094 -2.09375,-0.4062 -1,-0.3125 -4.09375,-1.5 -2.71875,-1.1875 -1.28125,-0.8125 -4.125,-3.0938 -4,-3.5937 -2.5,-1.8125 -1,-0.7813 -4,-5.5937 -2.875,-2.9063 -2.71875,-1.7187 -0.6875,-0.375 -2.3125,-1.125 -4.90625,-0.875 -3.28125,0 -3.8125,2.0937 -3.5,2.9063 -3.1875,4 -1.21875,1.6875 -1.78125,3 -2,4.5937 -0.71875,3.0938 -0.1875,1.625 -0.5,4.2812 -0.0937,4.7188 -0.375,2.9687 2673.15625,0 0.625,-0.375 2.2813,-2.8125 0.8125,-0.7812 1.2812,-1.7188 2.2188,-2.9062 2,-4.0938 0.7812,-1.5 1.5,-2.5937 2,-3.5938 3,-3.5 4.125,-3.5937 5.875,-2.9063 3.2188,-1.8125 3.0938,-1.0937 2.5937,0 2,0.5 1.5,1.5 0.5,1.3125 -0.5,5 -0.4063,4.0937 -0.5,7 -1,6.5938 -0.5,3 0,1 0.3126,1.0937 1.6874,0.5 2.125,-1.1875 2.2813,-2.4062 2.0937,-3.4063 0.4063,-0.5 3.0937,-3.0937 2.8126,-2.6875 2.3124,-0.5 0.375,-0.2188 1.4063,-0.9062 1.5,-1 1.5,-1.1875 0.7187,-0.6875 0.5938,-0.5 1.5938,-1.7188 0.9062,-0.9062 0.7812,-1.1875 0.7188,-0.8125 2.4062,-1.0938 2.1876,-0.5937 1.0937,-0.5938 1.8125,-0.9062 2.0938,-1.0938 3,-3.4062 5.0937,-8.1875 4,-7.625 2.5,-6.0938 2,-3.5 2,-4.5937 1.5,-3 2.5936,-4 1.5,-2 2.5,-1 1.625,-1 0.375,-0.3125 1,-0.5938 2.125,-1.2812 2,-2.625 2.5939,-4.2813 1.5,-3.0937 1.9061,-3.7188 0.5,-0.6875 1.6876,-1.7187 1,-0.5 0.8124,-0.1875 1.1876,0.6875 1.4062,1.8125 0.094,2.5 0.094,2.5937 1.5,0.9063 2.4064,0 0.5936,-0.094 1.5937,-0.5 1,0 1.125,0.6875 0.5938,0.5 1,1.5937 2.0939,2.5 0.5,2 0.5936,2.5 1,1.5 2,0.5 1.5937,-0.5 1,-1 2,-2.5937 3,-4.5938 3,-6.0937 3.625,-7.5 4,-6.5938 8.6876,-12.125 5.5937,-6.0937 9.7187,-13.0938 -17.125,-15.5 9.625,-11.1875 6,-7.625 6.1876,-8.5937 2.9062,-2.6875 3.5938,-3 4,-2.9063 3.0937,-2.1875 3.5,-4.125 2.2187,-2.5937 1,-1.2813 3.0938,-4.125 4.2812,-6.1875 4.3126,-6.9062 3.6874,-5.7813 0.4063,-0.5 5.2187,-5.7187 2.7813,-3.2813 0.7187,-0.625 2,-1.6875 4.0938,-3.0937 3.0938,-1 1,0 2,-0.5938 3,-0.7187 1.1874,-0.4063 4.9063,-2.0937 0.9063,-0.4063 2.3124,-1.5937 3.5,-2.0938 9.0938,-9.0937 2.5938,-3.7188 2.5,-3.875 2.5937,-5 1.3125,-3.125 1.1875,-3.5937 0.4063,-1 2,-4 2.5937,-4.5 4,-4.0938 5.4063,-4.8125 6.0937,-4.0937 4.8125,-5.9063 2.0938,-2.5 0.8124,-1.5937 0.1876,-0.9063 0,-1.0937 -1.0938,-1.4063 -0.5938,-0.375 -1.2187,-0.3125 -2,-0.9062 -1.0937,-0.5 -3.5938,-3 -5.7188,-3.5 -1.1874,-1.2813 -1.4063,-1.625 -1.0937,-1.0937 -1.1876,-1.4063 -1,-3 0.375,-3 0,-2.5 -0.5,-2 -1.5,-1.0937 -2,-0.4063 -0.5937,-0.5 -1.5,-1 -1,-1 -1.0937,-2.5 1,-2.5 1.5,-3.0937 4.5,-6.0938 7.0937,-9.1875 2.0937,-2.8125 4.5,-6.6875 2.2188,-4 1.1875,-2.7187 1.5,-4.0938 0.5937,-1.8125 0.4063,-3.1875 0.094,-0.9062 0,-4.5 -1.0937,-3.4063 -1.7813,-1.6875 -3.125,-2 -3.0937,-1.5 -2.7813,-1.3125 -1.625,-0.875 -0.5,-2.125 1.625,-3.5 2.1876,-2.6875 2,-2.5937 2.4062,-3.4063 0.2812,-0.4062 2.3126,-3.2813 2,-4.625 1,-3 1,-2.375 0.4062,-0.4062 1.5938,-1.2188 3.0937,-2 0.5937,-0.5 1.3126,-1.375 1.6874,-2.2187 1.5,-2.5938 0.4063,-0.9062 1,-1.6875 1.0937,-1.9063 0.9063,-1.3125 3,-4.0937 2.0937,-2.5 4,-4.5938 3.625,-4.5 2.5,-3.5937 1.1876,-1.5 1.6874,-2.9063 3.625,-5.3125 3.375,-7.375 0.9063,-1.8125 1.8125,-4.4062 0.7812,-1.6875 0.5,-2.2188 0.5,-1.875 0.5,-1.7187 0.5,-3.5 0.2188,-1.0938 0.5,-1 3.0938,-2.5 2,-1.5937 1,-2 0,-1 -1.5,-2 -3.5938,-1.5 -0.5,-0.094 -6.5938,-1.7188 -4.8124,-1 -3.0938,-0.5 -1.5,-1.0937 -0.9062,-1.8125 0.8124,-1.7813 2.5938,-4.9062 4.1875,-6.6875 0.9063,-1.4063 1.1874,-2 2.3126,-4 1.5,-2.5937 1.5,-3.125 0.5,-3.5 -0.5938,-3.6875 -0.5,-1.8125 -1.5,-3 -2.0938,-3.5 -2.125,-2 -2.5937,-2.5 -2.0937,-3.5 -1,-4 0.4062,-4.0938 0.4062,-0.6875 1.5,-2.7187 3,-5.5938 2.0938,-2.4062 0.2812,-1 0.3126,-1.1875 0,-2.5938 -0.3126,-1.5937 -0.5,-1.3125 -0.6874,-2.3125 -0.4063,-1.1875 -0.4063,-1.0938 -0.2812,-2 0.5,-3.5 1,-2 1.5,-2.0937 0.5,-1.125 0.5938,-1.7813 0.5,-3 -0.094,-3.3125 0,-5.4062 -0.094,-2.375 -1,-2.5 -0.5,-2.5 0.5,-2.9063 0.1876,-1.4062 0.1874,-0.9063 69.7188,52.2188 17.0938,13.7812 16.4062,13.0938 42.9062,35.4062 85.5938,66.3125 43.5938,33.4063 3,2.6875 32.3124,24.5937 36.7813,28.5 78.9063,62 30.5,24 3.1874,-1.1875 2,-2.2187 0.9063,-4.2813 0.3125,-2.2187 0.5938,-4.2813 0.4062,-2.7187 0.7812,-2.5938 1.4063,-6.5937 1.5,-3.5 2.0937,-4 2.5,-4.5938 2.5,-3 1.7188,-3.9062 1.2812,-4.1875 0.5,-5.625 1.5,-5 1,-5.375 1,-5.7188 1.9063,-7.9062 3,-8.6875 0.2187,-0.5938 2.1876,-7.4062 3,-6.0938 2.5,-4.0937 0.9062,-1 2.7812,-3.625 1.8126,-2.0938 0.5937,-0.9062 0.9063,-1.5 1.3124,-2.5938 0.5,-2 0.1876,-1.5 0.5,-4.5937 -0.5938,-3 -0.5938,-5 0.5,-2.5 1,-2.5938 1.0938,-1.4062 1.9062,-2.5938 1.875,-2.2187 0.5,-0.875 2.625,-4 2,-5.125 1,-5.0938 0.875,-6.5 1.5,-4.5937 2.5,-5 2,-6.0938 2,-4.5 3.625,-5.5 2.5,-5.5937 1.375,-3.125 0.3126,-0.5 0.8124,-2 5.5938,-5.5938 6.2812,-6.1875 -8.375,-2.8125 -1.4062,-0.5 -4.8125,-1.5 -4.0937,-1.4062 -6.1876,-2 -2.625,-1.5 -1.5937,-0.7813 -0.4063,-0.3125 -0.2812,-0.2812 -0.8125,-1.125 -1,-1 -1,-1.5 -0.5937,-1.0938 -0.4063,-4 1,-1.5937 0.5,-1 1.9063,-1.3125 4.5937,-4.5938 2,-4.5937 0.8125,-2.9063 0.1875,-2.5937 0,-4 -0.5937,-2 -0.5,-2.0938 -0.5,-2.5 -0.5,-0.9062 -0.8126,-2 -1.0937,-2.9063 -1.0937,-2.1875 -0.3126,-1.8125 -0.375,-1.6875 0,-2 -0.125,-1.5 1.125,-1 1.2813,-0.7187 1.2187,-0.375 2.5938,-1 1.9062,-0.625 2.0938,0 1,-0.5938 1.0938,-0.9062 0.1874,-0.6875 0.2188,-0.8125 0.094,-1.6875 -0.5938,-1.5938 -0.2188,-1.4062 -1.1874,-4.4063 -2.1876,-7 -4,-7.4062 -4.3124,-6.6875 -0.5938,-2.4063 -1.0938,-3 -0.8124,-1.6875 -0.4063,-0.5937 -1.1875,-1.125 -0.9062,-0.7813 -1.8126,-2.0937 -2.0937,-0.8125 -2.5937,-0.4063 -3.0938,-0.9062 -2.3125,0.125 -3.0937,0.094 -3.0938,-0.4063 -9.9062,-1.6875 -5.1876,-0.9062 -2.5,-1.5 -2.625,-1.3125 -1.5937,-1.9063 -1,-1.7812 -0.5,-1.5 0.3125,-0.7188 0.5938,-1.0937 1.4062,-0.4063 1.7812,-0.6875 1.5,-0.094 0.8126,0.094 2.0937,-0.094 2.7187,-0.094 0.7813,-0.5 2.4063,-1.8125 0.4062,-0.9062 0,-0.6875 -0.4062,-1.3125 0,-1 -1.1876,-0.9063 -1,-2 -4.7187,-2.5 -0.625,-0.8125 -986.3125,0 0.25,0.7188 0,1 0.094,1 -1,2.5937 -0.4063,2 -1.5,2 -3.1875,2.125 -2.0938,1.875 -2.2187,1.3125 -2,0.5938 -2,0.7187 -0.9063,0.5938 -1.0937,2.4062 0.5,1 1.5937,1.375 1.125,1.5 0.5938,1.5 -0.5938,2.2188 -0.8124,1.4062 -1.0938,0.875 -0.9062,0.625 -0.5,0.5938 -0.5938,0.9062 0.7812,0.7813 0.625,0.9062 0.5,1.3125 0.5,1 0.5,1.5 1,1.5 0.094,1 -0.5,0.5 -1,1.5938 -2,1 -2,0.5937 -3.0938,-0.4062 -3.125,-1.5 -6.6874,-3.4063 -6.4063,-3.0937 -7.9063,-5.6875 -6.875,-4.8125 -4.125,-3.2813 -4,-2.7187 -3.1874,-2.2813 -2.0938,-0.9062 -2.9062,-0.5938 -2.5,-0.7187 -1,0.094 -1.5938,0 -3,0.2187 -2.3125,-0.5 -2.5937,-1.5 -2.0938,-4 -1,-2.5 -1.0938,-2.5 -0.5,-1.5 -1.407,-1.0313 -9.9062,0 -0.094,0.125 -0.9062,1.5 -0.5938,2 -0.4062,2.0938 -1,1.5 -1.5,0.5 -1.5938,-0.5 -1.5,-0.9063 -1.2188,-1.875 -0.5937,-1.4062 -1.2813,-1.9063 -0.625,-0.8125 -0.25,-0.3125 -0.6874,0 -2.0626,1.3125 -1.1874,1.2188 -2.9063,2.7812 -3.0937,0.5 -1.5,0.625 -2.5938,0.5 -2.5,0.6875 -3.0938,0.094 -2.625,-0.4062 -2.5937,-1.5 -2.5937,-1.375 -1,-0.4063 -1.5,-1 -0.5,0.5 -1.5,2.5 1,1.5 3.1874,3 1.625,1.9063 1.5938,1.5 -0.094,1.0937 -0.125,1 -0.2812,0.7813 -0.9062,1.5 -0.8126,0.8125 -1.5,0.4062 -1.1874,0.094 -3.4063,0 -1.0937,-0.5 -1.5,0.5 0,1.5 1,1.5 1.0937,1 1.5,1.5 0.5937,2.5938 0,2.5 -1.5,3 -1.375,1.4062 -1.7187,1.1875 -0.9063,0.625 -0.7812,0.5938 -1.5,1.5 -1.3125,2.0937 0,2.5 0.5,2.6875 1.0937,0.8125 1.625,1.5 0.375,2.8125 0.2188,2.0938 -1.7188,0.6875 -1.5,-0.094 -1.875,-0.3125 -1.7187,-0.5938 -0.9063,-0.2812 -2,-0.5 -2.5937,1.0937 -2.0937,1.9063 -0.5938,2.0937 0,4 0.094,3.0938 -1.0938,2 -1.5,2 -1.3125,0.9062 -1.6875,-0.5937 -1.5,0 -1,0.094 -1.5,0.5 -1.0938,1.5937 0.1876,2 -0.3126,1.5 -0.2812,0.9063 -0.2188,3.5937 -1,2.5938 -2,2.0937 -2,0.5 -1,-1 -1.0937,-2 0,-4.375 -0.094,-1.125 -0.1876,-1.375 -0.3124,-2.625 -1.5,-2 -1.5938,-1 -2,0 -1.4062,1.4063 -0.5938,1.2187 -0.9062,2.5 -0.094,3.2813 -1.2188,2 -0.875,1.5937 -1.625,0.5 -1.875,2.625 -0.4062,3 0.5938,3.5 0.5937,1.5 0.5,1.5 1.7187,3.5 1.1876,2.5938 0,2.0937 -1,1.3125 -1.5,0.5938 -1.0938,-0.5 -1.5,-0.9063 -1,-1 -0.5,-2 -1.5938,-2.5 -1.5,-2.0937 -1.625,-1.4063 -1.5,-1 -2.0937,1.0938 -1.7813,1.3125 0.094,1 0.1875,0.5937 0.9063,1.5938 0.5,1.9062 -0.3126,1.4063 -1.0937,1.5 -1.5,0.6875 -2.0937,0.4062 -2,-0.4062 -2,-0.9063 -1.6876,-0.5 -0.4062,-0.094 -0.9062,-0.1875 -0.5938,-0.2187 -2.5938,0.5 -2,3 -2.125,3.125 -1.6874,5.2812 -3,4.0938 -1.4063,3.625 -1.4063,3.0937 -1.5,2.5 -0.875,2.0938 -1,2 -2.2187,0 -2.9063,0.094 -3.2812,0 -3.3125,1 -1.5,1.2187 -1.7813,0.875 -2.625,1 -2.5,0.625 -2,0.5 -2.5937,1.5 -2.0937,1 -1.5,1 -3.1876,0.375 -2,0 -1.5,1.625 0.5938,2 1.5938,2.5 0.5937,2 -0.5,1.5 -2,2.0938 -0.1875,1 -0.4062,0.9062 0.9062,2 0.5938,1.6875 -1.0938,2.4063 -1.4062,2.0937 -1.5,1.0938 -1.5938,0.5 -2,-0.5 -2.5938,-0.5 -2,2 -0.625,2.5 -1.375,1.5937 -2.7187,2.125 -2.1875,0.875 -1.2188,1.125 -2.0937,2.5 -1.5937,3 -1.4063,4.0938 -0.5,2.5 0,3 -0.5,2.5 -0.5,2 -1.2813,1.7812 -0.4062,0.5 -1.3125,2.3125 -0.5,2.5 -3.0937,3.0938 -2,-0.1875 -3.0938,0.5937 -3.5938,-0.4062 -2.125,-1.9063 -1.6874,-1.6875 -2.0938,-1.5937 -0.5,-0.5 -1,-0.5938 -2.9062,0.094 -2.0938,1.5938 -1.5938,1.5 -1.4062,0.6875 -2.5938,0 -6.125,0.7187 -7.0937,5.5 -3,1.4063 -0.9063,2.0937 -0.1874,2 0.5,2.5 0.4062,2.5 -0.4062,1 -1.5938,0.5938 -1.5,1 -1.4062,1.5937 -0.5938,1.4063 -1.4062,2.1875 -2.5,1.625 -2.0938,1.875 -2.5938,1.9062 -3,1.0938 -2.4062,0.5 -1.5,0.5 -0.7188,0.2187 -1.7812,0.5 -1.3125,0.4063 -2.6875,1.1875 -1.5938,2 -0.3124,0.4062 -1.0938,1.6875 -1.4062,1.3125 -1.5938,1 -2.5,1.4063 -1.5,2.0937 -2.5,2.0938 -1.9062,3.5937 -3.3126,3.4063 -3,4.6875 -4.0937,5.625 -6.4063,6.375 -1.1874,0.7187 -2.1876,2.5 -1.4062,1.5 -2,1 -1,1.0938 -1,3 0,2.5 -0.5,3 -1,2 -0.9062,0.6875 -1.4063,1.125 -1.7813,0.7812 -2.125,0.8125 -1.0937,1.5938 -0.7813,1.1875 -1.2187,1 -0.9063,1 -2.0937,0.5 -2,0.625 -1.5,0.375 -2.5,2.125 -1.5937,1 -2,2 -3,0.375 -3.0938,0.125 -4.0938,0.1875 -2.125,0.9062 -1.5,1.5938 -0.7812,2.6875 -0.3125,0.7187 -0.5937,1.7813 -0.4063,0.625 -2,1.375 -1.2813,-0.2813 -1.3124,-0.7187 -1.0938,-0.5 -0.9062,-0.2813 -1.8126,0.094 -3.2812,-0.5 -3.5938,-1 -0.9062,-0.3125 -0.4062,-33.2812 -0.5,-53.2188 0.3124,-193.875 0.094,-27.2187 0,-0.7188 -1387.0313,0 z m -803.18755,505.0313 -4.5,0.4062 -2,0.094 -0.78125,0.4063 -2.90625,1.6875 -3.59375,1.9062 -3.0938,4.5 -2.2187,4.5 -1.0937,5.5 -0.094,5.5 -0.5938,4.7813 -1.9062,4.625 -1,1.5 -1.9062,2.0937 -4,4.1875 -6.4063,4.5938 -0.4063,0.3125 -4.6874,2 -4.9063,2.4062 -5.2813,3.1875 -4,2.4063 -1.125,0.6875 -1.7812,2 -2.2188,2.7187 -2.0937,3.7813 -1.6875,4.7187 -0.9062,1.9063 -0.4063,1.5 -1.5,3.7812 -0.5,1.2188 -2,4.5937 -0.5937,1 -1.4063,2.5 -0.6875,1.4063 -1.0938,3.5 -0.8124,1.6875 -0.8126,1.8125 -3.1874,7 -2.0938,4.0937 -3.5,6.2813 -4.2188,7.625 -0.7812,1.5 -3.0938,6 -1.1562,1.4687 183.5,0 3.75,-4.0937 0.78125,-1 2.90625,-3.375 3.09375,-4.5 1.71875,-3.5 0.5,-3.5 -0.8125,-3.4063 -1.59375,-4.5937 -3.09375,-7 -5.3125,-9.5 -0.5,-1.8125 -1.40625,-5.0938 -1,-3.2187 -0.875,-2.875 -2.5,-4.625 -3,-5.0938 -2.5,-5.0937 -1,-2 -1.21875,-2.8125 -2.09375,-5 -2.59375,-3.875 -2,-2.5 -3.71875,-2.125 -2.375,-0.6875 -1.21875,-0.4063 -3.09375,0.094 -1.09375,0 -1.3125,0.3125 -0.6875,0.1875 -2.5,1.125 -2.8125,0.7813 -0.78125,0.2187 -3.625,1 -4.59375,0.094 -2.6875,-0.4062 -1.3125,-0.3125 -1.59375,-0.875 -0.40625,-0.2188 -1.6875,-1.1875 -2.3125,-2.9062 -0.90625,-1.3125 -0.875,-1.7813 -1.625,-3.5 -1.5,-6.5937 -2.1875,-7.5 -2.6875,-4.625 -4.5,-3.875 -4.71875,-3 -5.6875,-2.4063 -0.8125,-0.2187 -8.40625,-0.7813 z"
     id="rect8"
     inkscape:connector-curvature="0" />
  <path
	 style="fill:#9FAEC0"
	 stroke="#9FAEC0"
	 stroke-width="10"
	 transform="translate(0, 50)"
     d="m 464.1562,1903.2188 -2.25,2.9062 -3.2188,3.2188 -4,3.6875 -2.6874,4 -2.0938,5 -0.5,1.5 -0.3125,2 -0.4063,4.5 0.5,6.5 0.3126,1.5937 1,4 1.4062,5.5 0.5,5.5 0,5.625 -0.9062,8.0938 -1.5938,8 -2.2188,6.5 -3.6874,6 -3.6876,4.4062 -4.5,4.7813 -4.125,3.5 -6.5,4.0937 -4.6874,1.7188 -0.5,0.1875 -5.6876,2.4062 -4,1.5938 -0.625,0.3125 -4.0937,1.5 -3.5,2.5937 -1.7813,1 -2,1.6875 -5.3124,4.9063 -3.6876,3 -4.625,6.9062 -1.375,3.3125 -1,3.375 -0.5,5.125 -0.625,5.5 0.7188,4.5 1,2.5 1.4062,2.0937 0.875,0.7813 3,2.125 2.5,2.0937 3,1.4063 2.625,3 3.5,3.7813 1.7813,4.2187 1,4.0937 0,9 0.094,6.0938 1.125,5.5 3.0938,9.5 1.6875,4.6875 1.4063,3.9063 0.8124,1.8124 1.2813,4.2813 -0.4063,7.9063 -1,4.5937 -2,4.5 -2.5,6.125 -1,5 -0.375,3.2813 0,1.0937 0.5938,4.625 0.4062,2 2.0938,9.0937 3.1875,11.5938 3.9063,11.5938 0.3124,0.9062 3.0938,7.5 1.5938,10.5938 0.5,4.5937 0.5,4.8125 -0.8126,4.5938 -0.375,2.9062 -2.125,6.8125 -2.5,4.5937 -4.1874,4.5 -1.9063,1.5938 -2.5,1.9062 -1.6875,1.4063 -2.5,1.6875 -3.4062,1.4062 -2.8126,0.7813 -5.375,0.4063 -0.7187,0 -7.1875,0.9062 -2.5938,-0.5 -7.125,-1.1875 -6.6874,-2.2187 -6.0938,-2 -5.5938,-1.6876 -3.8124,-0.8124 -1.5,-0.2813 -5.6876,0 -4,0.5937 -2.8124,1 -1.1876,0.5938 -4.2187,3.4062 -5.5937,4.5938 -3.5938,3.0938 -2.4062,1.9062 -0.3126,0.3125 -2.875,3.2813 -1.3124,2.5937 -0.5938,1.625 -1.5,4.0937 -0.5938,4.7813 -0.2187,2.4063 0,2.7187 -0.1875,6.5937 0.4062,7.5 -0.625,3 -0.5937,5 -0.5,3.0938 -2.0937,7.5 -2,5 -2,4.9062 -1,5.1876 -1,7.0937 -0.5,5.5 -0.9063,6.625 -1,8.5 -0.9063,5.2813 -1.6874,7 -1.9063,4.3124 -1.7813,3.1876 -1.125,4.5 -1.0937,4 -1,6 -0.5,2.8124 -0.7813,2.1876 -1.5,5.4062 -0.125,0.5938 -3.1874,4.5 -3.0938,3 -4.5,3.2187 -3.8125,1.5937 -2.7813,1.5 -1.625,0.5 -5.5937,1 -4.5937,1.0938 -6.6876,1.5 -6.125,1.5 -1.375,0.3125 -3.2187,0.2813 -5.5937,0.5937 -4.0938,0.5 -2.5938,-0.094 -5.125,-1.5938 -2.5937,-0.5 -3.5,-1.0938 -2.0937,-0.5 -2.9063,-0.4062 -1.2813,-0.1875 -4,0.875 -2.625,0.7187 -1.0937,0.5 -2.5937,1 -2.5,1 -4.0938,1.5 -7.8125,3.5 -3.7813,1 -11.7187,3.1876 -12.5,3.2187 -6.5,1.5 -5.1875,1.375 -4.5938,1.4063 -6.2187,1.8124 -4.0937,2.0938 -3.4063,1.6875 -1.6875,0.8125 -1,0.5 -4.0938,2.0938 -8.8124,2.8124 -0.6876,0.1876 -10.5,3.0937 -8,1.125 -9.3124,0.7813 -7.1876,-0.094 -1.3124,-0.3125 -5.8126,-1.375 -8.1874,-3.7187 -2.6876,-1.2813 -2.2187,-1.3125 -3.5937,-3 -4.0938,-4 -2.0938,-3.5 -0.3124,3 -0.1876,1.5 -0.9062,5.5 1.2812,9.3125 -0.1874,1.2813 -0.8126,2.3124 -0.7812,1.4063 -1.8125,3.375 1.2187,6 2.375,10.125 -1.5,11.5 -2.5,18.0937 1.125,7.0938 12.7813,14.1875 2456.8438,0 0.062,-0.1875 1.5,-3.5938 1,-2.9062 0.5,-0.6875 2,-2.4063 1.6875,-1.8124 0.8125,-0.5938 1.0937,-0.5938 2,-0.5937 1.9063,-0.125 1.1875,0.2187 1.5,0.1876 2.125,0.5937 1.6875,0.2187 1.4062,0.1876 3,0.5 3.5938,-0.5938 1.5937,-0.5 2,-1.1875 1.5,-1 0.8125,-0.8125 1.1875,-1.5938 2.0937,-2.5 0.4063,-3.2187 -0.5937,-2.7813 -1.4063,-2.8124 -1.1875,-1.6876 -0.9062,-2.3124 0.4062,-4 0.5,-3 2.5,-7.0938 2,-4.0938 0.5,-0.8124 1.5938,-3.6876 0.8124,-1.2187 0.6876,-1.2813 0.9062,-2.2187 0.5938,-1.7813 0.6874,-1.0937 0.9063,-1.4063 1.5937,-2.9062 0.9063,-1.6875 2,-2.5 0.9063,-1.2187 1.6874,-2.4063 2.2188,-3.7813 0.6875,-1 1.0937,-1.7187 2,-2.5937 2.625,-2.5 2,-2.5 0.5938,-1.5 0.5,-1.2813 0.4062,-0.8125 0.5,-2 1,-1.5 1.5938,-2 -0.094,-2.0938 0,-1.5 0.5,-2.5 1,-2 -0.5,-2.5 -0.5,-1.5 -0.5,-2.7187 0.875,-2.875 1.625,-3 0.375,-4 0,-3 -1.1874,-4.5 -1.5,-3.5 -2.0938,-3 -0.4062,-0.5 -1.6876,-2 -1.2187,-1.5 -0.1875,-0.625 0,-2.5 0.094,-1 0.4062,-2 0.4062,-3 0,-4.5937 -0.125,-5.5 0.3126,-1.7813 0.5,-1.7187 0.1874,-1.4063 0.5,-1.5937 1.625,-2.5938 2,-2.5 1.5,-1.5 1,-1.4062 0.5,-0.5938 1.5938,-3.0938 1,-2.5937 0.4062,-0.5 1.5938,-1.9063 1.5,-2.2187 2.6875,-0.375 2.5,-0.625 2,0 1.0937,-0.094 2.2188,-0.5 2.2812,-1.4063 1.125,-1.5937 0.375,-1.9063 -0.5,-2.5 -2.0937,-5.0937 -1.5,-2 -1.5937,-2.5 -1.0938,-2 0,-1.5 1,-2.0938 1.5938,-2.4062 0.4062,-1.7813 -0.094,-0.8125 -0.9062,-2.4062 -1,-2.5 -0.7188,-6.0938 1.125,-7 1,-2.5938 0.6876,-1.9062 1.0937,-2.3125 0.7187,-0.375 1.2813,-1 1.0937,-1 1.2188,-2 -0.094,-2 -1,-2.5 -0.5,-2.5 0,-0.8125 0.1876,-0.8125 2,-3.5937 1.5,-1.5 1.8124,-2.9063 1,-3 0.5,-2 0.375,-0.7813 1.125,-2.3124 1.5938,-3.5 1.5938,-2.6876 1.9062,-1.4062 2.0938,-0.1875 0.5937,0 1.5937,0.2813 0.8126,0.4062 8.8124,4 10.0938,5.0938 9.1875,4.9062 13.7187,7.0938 3.2813,1.7187 6.9063,3 6.5,2.375 3.3124,1 6,1.9063 7.375,2.5 4.5,1.9062 4.2188,1.8125 0.5938,0.2813 4.4062,2.8124 2.1875,2.1876 1.5,2.2187 3.2187,5 5.2813,7.375 2,2.8125 6.3125,10.5 6.6875,11.5938 12.5,23 17.5937,41.7187 53.2188,17.375 19.6875,6.625 28.5937,9.2813 14.8126,4.9062 10.4062,3.4062 11,4.2813 5.0938,0.4063 1.1874,0.2187 1.9063,0.2813 4.0937,-1.5 0.4063,-0.2813 1.5,-1.125 2,-1.5 2.2187,-1.6875 0.6876,-0.5 1.8124,-1.0938 1.375,-0.5937 1.125,-0.2187 3.5,-1 3.1876,0 1.5937,-0.4063 1.7187,-0.2813 0.6876,-0.4062 0.5,-1 0,-1.5 -1,-3.5 -0.1876,-0.8125 -0.4062,-1.6875 0.5938,-3.5 0.5937,-0.8125 1.3125,-1.2813 1.5,-1.2187 1.5938,-1.1875 2.0937,-1.5 2,-1.5938 3.5,-3.5937 4.5937,-5.625 1.5,-2 3.625,-3.5937 2.5938,-1 2.9062,-0.5938 1.6876,-0.4062 1.5,-1.0938 0.9062,-1.5 0.094,-3 0,-0.5938 0.3124,-2.4062 0.5,-3 1.0938,-2.5 0.5938,-1.0938 0.3124,-0.5937 1,-1.4063 3.7813,-2.0937 0.9063,-0.7187 1.0937,-0.7813 1.5,-1 1.4063,-1.125 2.0937,-2.375 2.0937,-2.625 0.4063,-1 0.3125,-0.6875 0.2812,-0.8125 1.5,-3.0937 1.625,-2.5 2.5,-3.5 2.1876,-2.6876 2,-2.0937 0.4062,-0.4063 1.5,-2.4062 1,-3.5 0,-1.0938 -0.4062,-2.0937 -1.0938,-3.4063 -0.5,-2.5937 -0.094,-3.625 1,-4 1.5,-6.5 2,-5.5937 2.875,-6.5938 0.5,-0.9062 2.5,-5.1876 4.2188,-7.8124 5.5,-10.1876 8.5938,-15.5937 4.5937,-9.125 0.2187,-0.5 2.2813,-3.5937 1.5937,-2.9063 0.9063,-1.5937 0.8125,-2.1876 0.7812,-2.7187 1,-3.0937 1.5,-4.5 0.9063,-5.1876 0.5,-6 0.5,-3 0.5,-3.4062 0.9063,-3.6875 1,-3 2.5,-3.5 2.5,-5.625 6.5937,-14.1875 3,-7.5938 3.5937,-6 2.5,-4.5937 1,-1.4063 1.3126,-1.5937 0.6874,-0.7187 1.125,-0.7813 2.7813,-1.625 2.2187,-0.375 0.7813,-0.125 1.8125,-0.094 1.5938,0 1.5,1.0937 0.9062,1.125 0.6875,0.875 1.5,1 1.7187,0.8125 2.6876,-0.5 1.5,-0.5938 2.5937,-2 3.3125,-1.9062 1.5,-6.5 1,-2.5 1.5938,-3.8125 0.9062,-4.2813 0.5,-4.8124 1,-4 -0.094,-4 -1,-3.7813 -1.125,-1.7187 -1,-1.7813 -0.5937,-4 -1,-2.7187 0,-3.5 1,-4.5938 0.5,-4 0.9063,-4.9062 0.094,-0.7813 0.8125,-2.9063 1.0938,-4.9062 1.8124,-6.6875 1.1876,-3.625 1.3124,-4 4.6876,-9.375 6.3124,-8.4063 4.875,-8.3124 2.125,-4.5 0.5,-1.4063 1.375,-3.1875 1.5,-4 1,-5.4062 0.5,-3.1876 -0.5937,-2.5 -1.0937,-3.3124 -0.4063,-2.6876 -0.094,-2.5 0.5937,-1.0937 0.9063,-1.3125 1.5,-1.5 6.6874,-2.5938 4.625,-0.094 0.5,0 3.5938,0.375 2.0938,0.5 2.5937,-0.5937 1.5,-2 1.5,-3.5 0.5,-6.5938 -0.094,-3.5 0,-3 0.5,-3.5 0.3124,-0.9063 1,-2.0937 1.0938,-1.8125 0.5938,-0.7813 2,-2.5937 3.0937,-2.125 2.3125,-0.875 1.7812,-1 2,-2.125 1,-2.5 0.5,-2.5 0.5,-1.5938 0.5,-1.9062 1.5,-3.0938 1.4063,-2.0937 0.7187,-0.9063 1.5,-2.5 -0.125,-3 -0.5,-0.6875 -0.7812,-1.4062 -0.2188,-0.5938 0,-1.4062 1.125,-3.0938 2.5,-2.4062 40.7813,34.1875 59.8125,50.2187 13.0938,11 2.9062,-7.0937 2.5,-9.5 2.5,-5.4063 1.5,-3 4.0938,-7.5937 1.1874,-2.4063 3.3126,-6.2187 4,-7.5938 4.9062,-8 4.6875,-6.6875 1.0937,-2 3,-6.0937 4.7188,-11.5 5.4062,-11.7188 2.375,-9.0937 3.125,-9 0.7813,-1.5938 2.7187,-5 3,-6.0937 4,-6.125 3.5,-6 5.1876,-7.0938 1.1874,-1.4062 2.7188,-2.6875 2.4062,-1.9063 2.2813,-1.6875 3.0937,-2 3.625,-1.5 1.875,-1.125 -2673.1562,0 -0.34375,2.625 -1.09375,6 -1.59375,4 -3.5,5.4063 -1.5,2.1875 -1.90625,2.3125 -3.78125,3.5937 -0.40625,0.2813 -4.09375,3.8125 -1.71875,1.5 -2.90625,2.5937 -3.375,2.3125 -1.71875,1.1875 -5.1875,4.2188 -0.40625,0.375 -5.1875,2 -2.90625,-0.375 -5.09375,-0.625 -8.125,-3.6875 -5.5,-3.5938 -2,-1.5937 -6.78125,-6 -1.09375,-1.625 -2,-2.875 -1.5,-3 -0.21875,-1.7188 0,-1.5 0.71875,-2.7812 2,-3.625 1.5,-3 1.09375,-1.0938 3,-2.9062 3.5,-3.5938 0.75,-0.8125 -183.5,0 z"
     id="rect10"
     inkscape:connector-curvature="0" />
  <path
	 style="fill:#9FAEC0"
	 stroke="#9FAEC0"
	 stroke-width="10"
	 transform="translate(0, 25)"
     d="m 57.5937,2537.625 0.7187,0.8125 2.5,3 2.5938,7.9062 0.6875,8.2813 -1.7813,5.5 -5.3124,14.625 0.4062,9.375 0.1875,1.125 1.0937,5.0937 3,12.5 -0.7812,14.0938 -3.9062,9.5 -1,1.1875 -2.9063,2.9063 -0.5937,0.5 -4.1876,1.9062 -1.125,0.4062 -13.2812,0.4063 -4.5,6.7813 -0.5,4.3124 0,3 1,4 1.4062,1.5938 2.375,2.1875 5,4.5 2.3126,4.2187 -0.4063,8 -0.2813,1 -2.7187,9.5938 -3.2813,11.1875 -2.5,7.5 -1.4062,5.625 -0.4062,0.6875 -3.3126,4.5 -5.6874,2.6875 -1.0938,0 -13.5938,-0.6875 -4.9062,1.8125 -1.4062,6.5 2.3124,6.6875 1.2813,4 -0.2813,6 -0.4062,8.0938 0.094,0.5937 1.4062,1.125 6.0938,2.7813 4.9062,2.2187 2.6875,7.0937 2.7187,6.6876 5.375,1.5937 8.4063,2.4063 0.9063,0.3124 7.9062,9 2.4062,3.2813 0.6876,1.4063 0.8124,2.8124 0.094,0.6876 0,10.2187 1.6875,4 2,2.0937 4.8125,4.2813 1.1875,1.125 7.5937,2.375 1,1.5 4.5,7.125 1,0.375 5.2188,2.125 1.5938,0.875 0.4062,4.625 0.5938,2.5 0.4062,1 4.4062,7.5 0.1876,4.2813 0.094,1.3124 3.5937,6.7813 0.625,0.9063 0.6876,4.7187 1.1874,8 0.625,0.7813 3.375,4.3124 4,5.1876 0.7188,5.8124 0.4062,4.5938 5.0938,7.5 1,1.4062 0.2812,1.0938 -0.375,1.3125 -2.125,3.375 1,1.625 7.3126,-0.5 1,-0.125 7,3.3125 0.6874,0.4062 1.8126,0.9063 6.5937,0.7813 3.7187,3.5 0.1876,3.3124 0,3 1.5937,3 6.3125,-0.2187 3.4062,-0.094 2.0938,0.3124 1.1875,0.5938 4.0937,3.3125 0.4063,0.5937 0,1.9063 -0.2813,1.5937 -0.125,1 -1.375,1.2813 -0.8124,0.625 -9.0938,2.6875 -2.4062,0.6875 -3.3126,3.9063 0.7188,5.5937 7,4.3125 2.1875,4.3125 -0.5937,1 -7.0938,6.2813 -3.4062,3.0937 -5.8126,2 -4.375,1.4063 -0.125,1 0,0.7187 3.625,2.2813 0.5,0.3124 1,3 -1.2187,1.5 -3.5,0.1876 -4.5937,0.3124 -0.9063,0.5 -0.4063,4.0938 5.125,2.9062 1.875,0.9063 10.4063,1.5937 0.3125,0.5938 0.1875,4.4062 -5.9063,4.7813 1.4063,1.5 1,0.2187 2.5937,0.5938 2.625,0.094 3.5,3.2187 0.2813,7.875 0.094,1.8125 0.3126,1 1.8124,0.5 0.5938,0 0.6875,-1 0.5,-1.5938 0.9063,-4 0.5,-2 0.5,-2.3124 3.5,-0.7813 1.1874,2 1.5,2 1.5,0.5 2.125,0.5 2.5938,0.5 2.0938,1.1875 12.4062,9.0938 0.5938,1.2187 0.3124,0.5 1.0938,2 2.0938,4 1,1 0.4062,0.6875 1.5,1.1875 5.1875,3.9063 2.2187,2.2187 0.2813,0.5 0.8125,1.5 0.5,2.5 0,5.5937 0.5938,3.5 0.6874,0.9063 4,2.6875 2.625,1.8125 -4.125,2.5937 -8.0937,4.0938 4.3125,5.0938 1.5,1.7187 -1,4.7813 -0.5,2 -0.4062,2 1.1874,1.4062 1.3126,1.3125 3.8124,2.875 0.5,0.8125 5.1876,8.6875 4.0937,6.8125 -2.6875,16.9062 0.9062,2.2813 0.5,0.3125 3,1.0938 7.5,-6.7813 3.2813,-0.7187 1.2187,1.5 0.2813,0.5 3.2187,5.5 4.5,7.8124 5.1876,1.4063 3.6874,5.0937 4.7188,2.5938 3.9062,1.9062 5.375,5.9063 6.7188,1.7813 0.5938,1.0937 1.5,6.8125 0.6874,3 5.5,1 2.2188,0.3125 3.9062,2.6875 -0.625,3 -3.2812,1.5 -2.7188,1.3125 -0.5,0.1875 -0.1874,0.8125 0.3124,1.7813 10.5,0.3124 4.875,0.094 0.1876,0.094 1830.0625,0 1.1562,-1 3.5938,-2.5 3,-0.5 2.625,0 2.5,-0.094 1.375,-1 0.5,-2 -0.5,-2.5 -1.5938,-1.5 -2.9062,-1.9062 -1.5,-3.5 -0.5,-1.0938 -0.2813,-1.5 -0.5937,-4 0.1875,-2.0938 0.5,-2.4062 1.5937,-3.5 3.7188,-5.1875 4.875,-4.9063 4.2187,-4.3124 2.5938,-3.0938 2.4062,-3.8125 2,-5 3.0938,-4.1875 2.5,-2.9062 2.5,-1.5 2.5937,-1.0938 1.0938,-0.9062 1.4062,-0.7813 2.0938,-1.625 2,-1.5 1.625,-2.5937 0.2812,-1.9063 -1,-2.7813 0,-2.8124 0.2188,-2.5938 1.2812,-2.6875 3.5938,-6 1.9062,-3.4063 1,-2.5 0.5,-1 1,-1.5 1.5938,-3.3124 1.625,-2.5 2.5,-3.5938 5.875,-5.9062 3.8125,-3.1876 2.5,-1.5 3.0937,-0.9062 0.5,-0.094 4.0938,0 1.5,-0.5937 1.125,-0.8125 0.6875,-0.6875 1,-0.7187 0.8125,-0.7813 2.0937,-2.5 2.5,-3.625 2.1875,-2.0937 2.5,-2 2.5,-1.5938 0.4063,-0.4062 1.1875,-1.5 3.5,-5.0938 4.5,-7.5938 3.125,-3.0937 4.0937,-4 3.5,-3 0.6875,-0.7187 2.3125,-1.5 2.5938,-2 1.5,-2.4063 3,-5 3.0937,-4.0937 3.5,-3.5 1.5938,-2 0.9062,-0.7813 1.8125,-1.8125 3.9063,-3.5938 2.875,-2.2187 4.125,-2.5937 5.5,-4.5938 1.5937,-1.0938 4.5,-4.5937 1.5,-1.625 2.0938,-2.375 2.0937,-2.2187 1.0938,-1.5 2,-2.1876 1.125,-1.3124 3.5,-4.0938 3.5937,-3 4.0938,-3.5938 3.1875,-2.9062 1.9062,-1.6875 4.2188,-4.125 4.5,-4.0937 4.0937,-3.5 1.5,-1.5 3.5,-2.5938 1.0938,-2.5 0.9062,-2 0.5938,-3.5938 0.9062,-4 1.0938,-2.5 1.4062,-2.0937 1.5938,-1.5 2,-2 0.8125,-1.5 1.1875,-2.125 2.5,-4.0937 2.5,-3 1.0937,-2 0.9063,-1.5938 2.1875,-3.3125 1.8125,-4.2813 0.1875,-0.5 1.3125,-3.5 2,-6.5937 3.9062,-12.625 1.5,-4.5 0.9063,-2.5 1.375,-3.2813 0.2187,-1 0.7813,-1.5937 2,-4.625 1,-2.375 0.8125,-1.8125 1.1875,-2.8125 2.2187,-4.7813 2.4063,-3.8124 3.5,-4 2.0937,-2.9063 0.5,-0.5 5.0938,-5.1875 4,-5.0938 1.5,-3 1.0937,-2.5937 0.4063,-2.4063 -2.0938,-1.5937 -0.5,-0.125 -2.0937,-0.6875 -2,-1 -1.3125,-0.9062 -1.1875,-1.1876 -2.4063,-3.8124 -0.2187,-0.6876 -0.5938,-4.5937 -0.094,-1.125 -0.094,-2.6875 -0.5,-4.0938 -0.094,-2.5937 0.2813,-1.4063 0.7187,-1 1.0938,-0.9062 4.1875,-1.8125 2.9062,-1.375 1.5,-2.125 1,-2.5 1,-3.5 1.4063,-3.0937 1.5937,-2.5 1.3125,-1.2813 1.1875,-1.3125 1.4063,-1.4062 0.9062,-1.0938 0.5,-2.5938 0.1875,-0.8124 0,-1.5938 -0.094,-1.5 -0.094,-1.1875 0,-1.9063 1.0938,-1.8124 0.4062,-0.6876 1.0938,-3.0937 -1.0938,-2 -1.125,-1.4063 -1,-2.5937 0.5,-1.5 -0.094,-2.5 -1,-2.5 -0.5,-3 1,-2.5 1.5,-2.125 5.5938,-3 4.125,-1.0937 3,-2 2.5937,-2.0938 1,-1.5 1.9063,-5.0938 2.0937,-3 1.5,-2.0937 2.5,-2.125 2.6875,-1.2813 2.7188,-1.2187 0.6875,-0.5 1.6875,-1 2,-1.375 1.4062,-1.2187 2,-2 3.8125,-5.4063 3.5,-5.0937 2,-4 1.4063,-2.1876 0.1875,-0.4062 1.6875,-1.6875 2.5,-2.125 1.625,-1 2,-2 1,-1.5 0.875,-1.1875 0.625,-0.9062 2.5,-2.5 1.0937,-0.5 0.7813,-0.2813 1.4062,-0.5 1.2188,-0.5 3.5937,-0.5 1.5,-0.5 1.5,-1.625 1,-2.5 1,-1.0937 1.2813,-0.7813 0.9062,-0.5 2.0938,0 3,-1.125 0.7187,-0.1875 1.9063,-0.8125 2,-1 1.875,-1.5937 0.5,-3.0938 1.5,-3 2.125,-2 3.0937,-0.5938 2.5,-1 3.0938,-1.5 3.5937,-2.0937 4.5938,-2.5 2,-2.625 1,-4.5 -1.0938,-4 -1.0937,-5.5937 -2.5938,-5.5 -2.0937,-4.5 -0.5,-0.5938 -2,-2.3125 -2.2188,-2.0937 -0.9062,-0.9063 -0.6875,-0.7813 -1.0938,-1.7187 -2.5937,-3 -2.125,-3.5 0,-2.6875 0.2187,-1.9062 0.4063,-1.4063 0.875,-2.0937 1.4062,-1.9063 1.3125,-1.5937 2.5938,-3.0938 2,-3 1.9062,-2.1875 1.4063,-1.4063 1.7812,-1.7187 4.5938,-3.875 4.7187,-3.125 0.4063,-0.375 2.6875,-2.625 3.5,-3.6875 3.4062,-6.9062 0.5313,-1.4063 -2456.8438,0 z"
     id="rect12"
     inkscape:connector-curvature="0" />
  <path
	 style="fill:#9FAEC0"
	 stroke="#9FAEC0"
	 stroke-width="10"
     d="m 279.375,3172.0313 0.9374,0.5 0.375,0.4062 0.625,1.0938 0.094,1.9062 -0.2188,0.5 -1.5,1.0938 -6.0937,3 -1.6875,4.2187 -0.4062,0.7813 -0.8126,2.0937 -0.5937,0.4063 -2.0937,1.9062 -4.0938,3.6875 -0.5,1.4063 -0.5,2.8124 3.5,2.5 0.5938,0.5 7.1874,5.1876 0.7188,0.7187 1.5,10.5 0.5938,2.5 0.1874,0.5937 0.9063,1 2,2.5 3.5,10.7813 3.5937,1.625 2.7188,1.5 2.5938,3.1875 0.5,0.8125 -2.3126,5.7813 -1.6874,4.3124 2.0937,4 2.5937,4.5 -0.2812,0.4063 -5.8125,8.5937 5.0937,-1 1.4063,2.4063 4.0937,7 2.4063,-0.4063 0.9063,-1.9062 0.5,-2 3.0937,-3 1.4063,0.094 3.1874,4.9062 2.5,3.9062 5.3126,5.0938 0.8124,0.6875 10.1876,6.2187 2.9062,0 4.0938,-0.5 2.5,-1.5 3.0937,-1.5937 1.7187,0 3.7813,0.875 2.9063,3.5 0.4062,0.5 0.5,0.625 2.5938,1.5937 4,2.4063 0.4062,2.1875 0.7812,3.9062 3.4063,5.1876 2.2187,3.5 -0.9062,5.3124 -0.4062,2.2813 0.4062,1.7187 0.5,1.9063 1.4062,2.0937 0.7813,0.9063 1.5,1.0937 1.8125,1 1.9062,0.7813 3,0.2187 2,-1.0937 1.2813,-0.8125 3.5,-0.3125 4,0.625 3.2187,-0.8125 1.875,-1.1875 1.4063,-2.625 -0.2813,-3.5937 -1.3124,-3.5938 -0.5,-0.8125 -1.5938,-2.5 -0.8125,-1.2813 0.3125,-5 1.5,-2.8124 2.5938,-1.9063 3,-0.5937 3.0937,0.4062 2.5937,1 1.125,2 0.375,2.5 -1.375,2.5938 -1,1.8124 -0.5,2.5938 1.7813,3.0938 1.4063,2.0937 0.9062,2.2187 0,2.1876 -3.5,4.3124 -0.9062,1.1876 -0.9063,1.5 0.094,1.8124 0.125,0.5938 2.375,2.1875 2.8126,0 3.5937,-1.0937 2.5937,0 1.4063,0.5937 0.094,2 -0.2812,1 -1,1.7187 -1.5938,3.0938 -0.9062,2.5938 -0.094,1.5 0.5,1 0.375,0.5 0.9063,0.5 3.8125,-0.7813 0.5938,-0.2187 2.4062,-0.4063 2.0938,1.4063 0,5.5937 -0.9063,3 -0.9063,6.3125 1.4063,1.6875 0.5,0.625 2.5937,1 0.9063,0 1.7187,-0.3125 6.0938,-3.3125 2.7812,-0.6875 1.625,0 0.6876,0.094 1.0937,0.9062 1.5937,1.6875 1.8126,1.7187 0.6874,0.7813 1.625,3 2,5.4063 1.0938,6.0937 -0.2188,1.4063 -0.2812,1.0937 -1.0938,2.5 -5.7187,2 -0.5937,0.125 -2.5938,0 -5.7188,2.1875 -1.0937,1.9062 1,1 1.4063,1.1876 2.5,1.2187 2.3124,2.0937 1.0938,2 0.4062,2.5 0.2813,3.5938 2.4063,4 0.5,0.4062 1.5,0.5938 1.5,0.3125 4.6874,-0.9063 3.5,-5.3124 1.125,-1.2813 2,-1 3.0938,0 4.0938,-1.125 1.5,0.5 1.4062,1.625 0.6875,4 0.094,0.5937 1.3126,0.6876 0.6874,0.094 1.125,-0.1875 0.875,-0.3125 2.125,-1 3.0938,-1.5 7.0938,-0.5 1,0.125 4.4062,0.6875 2.1875,1.5938 0.7187,0.5 2.5938,3.5 1.5,2 3.1875,4.4062 0.5,2.5938 0,1.5 0.2187,1.3124 0.5,1.2813 0.2813,0.9063 1.5,0.5937 3.2187,1.2187 4.5938,0.1876 1.9062,1.7187 1,2 1.1876,1.7813 1.1874,0.9062 2,1.0938 1.625,-0.4063 0.5938,-0.5937 0.2812,-0.5 0,-2.5938 -0.094,-2.9062 -1.0937,-6.0938 -0.5,-2.5 0,-1.5 1.1874,-1.5 2.625,0.094 2,1.5937 0.875,2.625 1.625,2.5937 1.5938,2.5 5.5938,1.4063 2.9062,-1.2187 1.2812,-0.5938 3.625,0.1875 1.1876,0.9063 0.6874,0.8124 0.5,1.9063 2.125,2.0937 0.68755,-0.2187 3.09375,-0.6875 1.3125,-0.6875 0.78125,-0.8125 1.8125,-2.3125 2.90625,-3.7813 3.5,-0.2187 1.78125,1 2.5,1.5 1,-0.6875 2.125,-2.0938 0.5,-0.3124 1.5,-0.5 2.59375,-0.5 1.5,-0.4063 4.28125,-2.7813 3.625,-0.9062 2.59375,0.1875 1.59375,0.5 1.40625,1.2187 0.40625,0.5938 0.5,2 -0.125,2 -0.59375,1.4062 -2.1875,4.0938 4.5,-0.5 3.09375,0 1.40625,1.0938 0.59375,0.4062 1.09375,1 0.59375,1.5 1,2 0.71875,0.5 1,0.3125 1.28125,-0.4063 0.71875,-0.4062 1.5,-0.8125 1.59375,0.5 1.3125,1.3125 -0.5,1.5 -0.90625,4 0.1875,1.3125 0.3125,1.6875 0.5,1.4062 0.78125,0.4063 0.71875,0.2813 1.09375,1.9062 0,2.5 -1,1.5938 0.5,1.5 2.59375,0 1.90625,-1 1.6875,-2.5938 1,-1 2.5,-0.5 1.90625,1.3125 1,2.2813 0,1.5 -0.40625,1.5 -1.875,0.8124 -3.8125,2.7813 -2.5,1 -2.5,1.7187 -1.40625,1.2813 -1.1875,2.2187 -1.3125,2.2813 -0.90625,0.4063 -3.875,0.9062 -0.5,0.094 -0.90625,0.5937 0.0937,1.5 0.90625,2.3125 0.59375,3 -1.5,2.1875 -0.40625,0.625 -2.6875,0.375 -1.5,0.125 -2.5,-0.7187 -1.09375,-0.2813 -2.625,0.094 -2.5,0.5 -2.1875,1.0938 -0.90625,0.5 -3.09375,1.8125 -1.09375,0.6875 -1.90625,1 -2.6875,1.3125 -4,1.0937 -3.625,1.5 -3.09375,2.6876 -2,2.5 -1.28125,3.5937 -0.125,5 2.125,6.5 2.6875,5 2.09375,3 1.90625,2 2.1875,0 2.90625,0.125 3.71875,1.875 1.6875,1.125 1,0.6875 0.90625,1.4062 0.6875,1.1876 1,3 1.59375,1.5 2.5,-0.094 2.625,-0.5 3.59375,0.4062 1.40625,0.9063 1,0.2813 8.09375,4.5 1.6875,1 3.09375,1 2.625,1.5 1.09375,1.4062 0.1875,1.9062 -0.28125,1.1876 -0.625,3.0937 -0.375,1.9063 -0.40625,5.0937 0.5,2.2187 1.40625,4.5 2.59375,3.5 3.09375,2.5 1.3125,1.5938 0.5,0.6875 1.28125,1.7187 0.59375,3 -1,1.4063 -1.5,1.0937 -0.375,0.4063 -1.625,1.6875 -0.5,2 -0.0937,2.5 -1.78125,8.4062 -1,4 -0.5,4 -0.5,4.0938 -0.40625,2.1875 2,5.8125 0.59375,1.6875 0,2 0.5,1.8125 0.6875,2.6875 1.40625,2.625 0.71875,2.875 0.875,1.8125 2.21875,2.6875 1.40625,1.4063 1.78125,2.2187 0.59375,1 0.71875,1.7813 1.78125,1.7187 0.5,0.375 4.625,3 3.1875,4.4063 0.6875,1 3.125,3 1.59375,3 1.5,2.3124 1.09375,1.6876 1.3125,1.3124 2.1875,1.6876 2.3125,1.5937 1.375,0.8125 4.125,0 2.59375,-1 2.5,0.094 2.59375,1.9062 1.09375,2 1.21875,1.6875 0.875,1.3125 1.40625,2.4062 2.71875,1.5938 2,2 1,1.5 0.59375,3 -0.5,2 -0.40625,1.6875 -0.0937,3.3125 1.09375,2 1.59375,2 3,0.4062 3.09375,1 0.71875,1 0.28125,0.5938 0.125,2.5938 -0.40625,5.3124 0.59375,4.5938 0.5,2 1.09375,1.3125 0.90625,0.7813 2.5,0.5 1.59375,0.3124 1,0.1876 1.21875,0.2187 1.5,0.5937 2.59375,1 1.5,0.5938 1.90625,1.0938 1.1875,0.7187 0.5,0.5 3,2.6875 2.6875,1.8125 5.21875,0.875 4.40625,-1.2813 3.1875,-1.8124 0.6875,-0.4063 3.40625,-1.6875 4.59375,-0.5 3.625,-0.5938 3.09375,1 5.09375,0.9063 5.6875,2.5 2.3125,1.375 0.8125,0.625 2.59375,2 2.40625,1.375 1.59375,0.5 3,0.4063 2.28125,-0.4063 2.90625,0 2,1 1.09375,1.5 1.5,3 1.71875,1.2187 0.90625,0.7813 0.875,0.9063 1.21875,1.0937 1.90625,2.8125 0.875,1.5 2.125,5.0938 3.28125,15 0.0937,2.5 0.625,2 0.375,0.5 0.71875,0.5937 2,0.125 2.09375,-0.125 5.5,0 1.5,0.3125 1.6875,0.3125 1,0.375 2,1.3125 3.125,3.4062 2.5,3.7813 1.28125,1.9063 4.5,4.8124 3.59375,3.0938 2.21875,1.9062 4.59375,4.4063 3.59375,2.375 2.59375,1.625 3.125,1.5937 0.5,0.2813 2.6875,3.5 1.40625,2.7187 2.1875,2.6876 3,0.5937 102.59375,-4.875 5.3125,-4.125 0.8125,-0.875 2.59375,-2.125 3.5,-3 4.09375,-3.0937 4.59375,-2.0938 4.09375,-1.5 6.125,-3.0938 5.59375,-2.0937 5.59375,-3.625 3,-2 2.6875,-3.2813 2,-4.0937 1.40625,-4.3125 0.5,-4.8125 1.59375,-4 2.8125,-3.2813 1.1875,-0.8124 1.40625,0.8124 2.3125,2.1876 3,2.5 3.5,0.5937 1.1875,-0.5 2,-0.5937 3.0938,-1.0938 1.9062,-1.8125 2.7188,-2.1875 3,-1.5 2.5937,-0.094 2,-1 2.0938,-2.5 2.5,-2.5 1.9062,-1.5937 1.1875,-1 4.5,-3.625 3.3125,-1.5937 2.0938,-0.9063 2.5937,-0.5 2,-0.5937 2.0938,0.5 1.625,0.2187 2.1875,0.2813 4.4062,-0.094 3.0938,-1 3,-0.5938 3.4062,-3.4062 1.9063,-1.6875 1.2812,-1.5 2.9063,-5.125 3,-7.0937 1.0937,-3 2,-4.5 1.5,-4 2,-3.7813 0.9063,-3.625 1.0937,-3.7813 1.4063,-2.8124 1.9062,-2.4063 1.6875,-1.875 3.5,-2.125 1.0938,-0.375 1.5,-0.3125 2.5,-0.5938 1.625,-0.4062 4.5937,-1.5938 3.0938,-1.5 3,-5.5937 3,-6.625 1.0937,-2.375 1.5,-0.625 2,1 21.4063,24.625 18.5937,21.2813 57.9063,51.2187 4.4062,3.875 13.5938,11.9063 7.5937,-2.5938 0.7188,-0.4062 5.5,-3.1876 4,-2.5 1.5,-1.0937 9.0937,-6.2187 2,-1.1876 6.2813,-3.7187 7,-4.2813 8.125,-4.0937 8.875,-4.3125 13.3125,-4.6875 9.8125,-3.125 9.875,-4.1875 15.3125,-4.5938 9.8125,-2.5937 11.5,-2 10.2812,-2.125 6.2188,-0.7813 6.0937,-0.8124 11.4063,-2.4063 0.875,-0.1875 8.7187,-1.5938 15.4063,-4.7187 4.875,-1.375 12,-3.7187 6.125,-2.0938 3,0.5 2.5937,1.5 1.0938,1.5 1,1.5 0,2 1.1875,2.4062 0.625,0.5938 0.5,0.3125 1.5,0.094 6.0937,0.4063 3.1875,-0.4063 4.9063,-1 2.5937,-0.8124 6.7188,-2.5 8.5937,-3.1876 4.0938,-1.7187 12.3125,-6.0937 8.5937,-4.0938 11.2813,-7.0938 6.125,-5.2187 5,-5 4.1875,-4.0937 1.5,-1.2813 2.5,-2.2187 2.8125,-2.1876 2.2812,-1.9062 5.5938,-3.5938 1.7187,-1.0937 3.2813,-2.625 4.125,-2 2.5,-2.5937 1,-2 -2.4063,-4.2813 -15.3125,-19.7187 -2.7812,-2.9063 -4,-4.5 -3.2188,-4.5 -0.5937,-3.375 1.5,-4.5 2.5937,-4.2187 12,-18.7813 -1.0937,-4 -0.5,-3 0,-3.4063 2.5937,-4.5 0.5,-1 4.5938,-7.2187 3.9062,2.9063 4.0938,2.4062 5.7187,0 4.5938,0.9062 4.1875,3 6.7187,5.9063 7.7813,6 5.2187,5.875 4.1875,5.5 2.5,3.4063 1.5938,2.0937 1.625,1 2,0.5 2.0937,0.4063 3.5938,0 3,1 2.6875,1.5 3.625,4.9062 3.1875,6.5 4.3125,10.0938 7.0937,-2.0938 8.6875,-3.0938 2.0938,-0.9062 7.4062,-3.0938 10.3125,-4.0937 5.1875,-2.8125 4.5,-2.3125 12.8125,-7 0.4063,-0.1875 18.375,-10.6875 12.8125,-6.7187 15.8125,-9.1876 13.6875,-9.2187 7.5937,-5.1875 5.0938,-3.5938 3.8125,-2.7187 4,-2.0937 4.6875,-2.5 2.3125,-1.4063 1.9062,-1.1875 3.9063,-2.5 7.6875,-5.5938 8.0937,-6.5937 6.5938,-5.125 5.3125,-3.6875 9.6875,-5 5.625,-2.5938 8.1875,-2.5 8.6875,-1.8124 11.2187,-3.0938 2.2813,-0.5 2.8125,-0.5938 3.5937,-0.5937 2.5938,1 2.5,1.375 2.125,3.125 1.5937,3.5 2.6875,7 2,7.875 0,7.5 -0.5,4.5 -0.4062,4.625 0.5,3 1.625,2.5 1.1875,1.875 0.3125,0.625 1.5937,2 2.0938,2.5 2.5,1.5 2.5937,4 3.5938,1.5 3.125,0 2.0937,-0.625 4.5938,-2 3.5,-1.0937 5.5,-1.5938 4.3125,-1.9062 3.5,-3.0938 2.0937,-1.8125 2,-1.7813 5.0938,-4 8.4062,-7.8124 8.6875,-6.5938 11.5,-6.5 13.3125,-6.5938 6.1875,-3 4.5,-2.0937 1.9063,-1 3.3125,-2 1.0937,-1.125 0.7813,-1 1.625,-2.5 -0.125,-3.5937 1.5,-3 4.625,-3.5 3.5937,-1.5938 3.0938,-1.5 7.0937,-2.0938 12.8125,-4.2187 9.6875,-3.5937 5.0938,-2.5938 5.2187,-3.4062 0.2813,-0.2813 2.3125,-2.2187 3.4062,-3.2813 4.5938,-6.4063 4.5937,-7.5937 6.3125,-12.9063 -5,-3 -6.0937,-3.0937 -10.9063,12.5 -23.7187,-8.9063 18.625,-10.5937 -11.8125,-22.625 26.4062,-14.6875 11.5938,-6.0938 6.8125,-3.5937 12.2812,-8.125 11.7188,-9.7813 10,-9.0937 6.0937,-6.625 4.0938,-6.2813 2.9062,-4.3124 -38.4062,-23 -11,-10 -26.8125,-34.7813 5,-1.5 2.7187,-1.125 1.7813,-0.5 2.7187,-1.2813 5.5,-3.5 4.0938,-3.5937 1.8125,-2.125 1.5,-2.1875 1.5937,-2.0938 1.6875,-2.8124 3,-4.5 2,-3.0938 1.3125,-2.0938 0.5938,-1.0937 0.9062,-1.5 2,-1.5 2.5938,-1 3.0937,-1.5 2,-2.625 1,-2.5 0,-2.5 -2.0937,-3.5 -1.5938,-1.5937 -2,-2.9063 -2,-2.375 -1.0937,-1.625 0.5,-2.375 0.5937,-1.4063 0.9063,-1.8124 2,-4.5 2.5,-7.0938 4.6875,-6.9062 2.8125,-5.1876 4.5937,-5.0937 5.5313,-4.7187 -1830.0625,0 z"
     id="rect14"
     inkscape:connector-curvature="0" />
</svg>
