<?xml version="1.0" encoding="UTF-8" standalone="no"?>
<svg
   xmlns:dc="http://purl.org/dc/elements/1.1/"
   xmlns:cc="http://creativecommons.org/ns#"
   xmlns:rdf="http://www.w3.org/1999/02/22-rdf-syntax-ns#"
   xmlns:svg="http://www.w3.org/2000/svg"
   xmlns="http://www.w3.org/2000/svg"
   xmlns:sodipodi="http://sodipodi.sourceforge.net/DTD/sodipodi-0.dtd"
   xmlns:inkscape="http://www.inkscape.org/namespaces/inkscape"
   width="4743.0312"
   height="5085.8125"
   viewBox="0 0 4743.0312 5085.8125"
   id="svg2"
   version="1.1"
   inkscape:version="0.48.1 "
   sodipodi:docname="AJAX.svg">
  <metadata
     id="metadata20">
    <rdf:RDF>
      <cc:Work
         rdf:about="">
        <dc:format>image/svg+xml</dc:format>
        <dc:type
           rdf:resource="http://purl.org/dc/dcmitype/StillImage" />
      </cc:Work>
    </rdf:RDF>
  </metadata>
  <defs
     id="defs18" />
  <sodipodi:namedview
     pagecolor="#ffffff"
     bordercolor="#666666"
     borderopacity="1"
     objecttolerance="10"
     gridtolerance="10"
     guidetolerance="10"
     inkscape:pageopacity="0"
     inkscape:pageshadow="2"
     inkscape:window-width="1280"
     inkscape:window-height="1004"
     id="namedview16"
     showgrid="false"
     fit-margin-top="0"
     fit-margin-left="0"
     fit-margin-right="0"
     fit-margin-bottom="0"
     inkscape:zoom="0.097357373"
     inkscape:cx="3354.9141"
     inkscape:cy="2446.5508"
     inkscape:window-x="-8"
     inkscape:window-y="-8"
     inkscape:window-maximized="1"
     inkscape:current-layer="svg2" />
  <path
	 style="fill:#9FAEC0"
	 stroke="#9FAEC0"
	 stroke-width="10"
	 transform="translate(0, 125)"
     d="m 1687.625,0 -1,1.5 -0.5,7.6875 2,8.2188 2.5,1 2.0937,-0.5 1,-2.0938 1,-4.625 -2.5937,-7.5938 -1.5,-3.5937 -3,0 z M 1924.2187,3.4063 1911.625,8 l -4,3.0937 -4.0937,4.5938 -3,4.625 -4.5,21 1.5937,20.375 -0.5,3 -0.5,8.7188 -2,5.5937 -4.5,5.1875 -2,17.3125 1.5,-1 5.5937,-6.6875 5,-1 9.5938,-1.625 4.5938,-2 3.5,-4.5938 4.5,-8.1874 4.625,-2 3,-1.0938 3,-3 2,-3.625 0.5,-2.5938 2.0937,-4.0937 -2.0937,-6.5937 1,-7.7188 2.5,-7.5938 1.5,-6.6874 4,-6.5938 0,-5.125 0.5,-7.1875 -1,-1 0.5,-1 0.5,-3.0937 -0.5,-2 -1.5,-2 -2.625,1 -4,0.5 -4.5938,0 -3,-0.5 -4.5938,-1 z m -127.4062,1.4062 -1.5,0.5 -1,1.5938 -1,3.5 0,8.6874 0.5,1.5 2,0 2,-4.5937 0.5,-4.5937 0.5,-4 -2,-2.5938 z m -47.5,21.5938 -5,3.0937 -2.0938,1.5 -2.5,6.0937 -4.5,1.0938 -4.5937,0.5 -3.5,-0.5 -6.5937,0.5 -1.5,3.125 -3.5,7.0938 0.5,12.2812 1,2.5 4.0937,1.625 4.5,1 3.0937,-9.2188 2,-2.5937 1.5,-4.0937 0.5,-6.5938 6,-4.125 5.5938,-3.0938 5,-5.0937 2,-3.5937 -2,-1.5 z m 3.5938,15.7812 -2.5,2 -1,3.125 -1.5,5.0938 1,4.5937 2,2 1.5,0.5937 2.625,-0.094 2,-1.5 1,-8.6875 1,-3.5 -2.625,-3.125 -1.5,-0.5 -2,0 z m 60.7187,0.3125 -2.5,2.0937 -2.5937,3.0938 -2.5,5.625 0.5,1.5 2.5937,3.5938 1,5.0937 1,10.6875 1.0937,7.625 2,5.0938 1,2.5937 3.0938,2.5 2.5,1.5937 2.5,-3.0937 3.5,-6.6875 2.0938,-5.625 -0.094,-3 -1.5,-3.5938 -5.0938,-7.6874 -5,-4 -2.0937,-2.5938 -1.5,-1.5 -1,-4.125 2,-4.0938 2,-3 -1,-1 -2,-1.0937 z m -150.7187,6.5937 -1,1.5 -8.5938,6.7188 -1.5,6.5938 2,10.6874 1.5938,8.2188 4.5,1.5 5.125,2.5 1.5,1.5938 4.0937,2.5 3,0 1.5,-1 -0.5,-7.7188 4,-5.5938 1,-4.0937 0,-2 -1.5,-3.0937 0.5,-1 -3.5,-5.0938 -6.0937,-7.7188 -2.625,-4.5 -3.5,0 z m 49.625,28.9063 -1.5,1.5937 -2.5,4.0938 -1.5,6.625 -4.125,8.1875 0.125,5.0937 1.5,2 7.0937,1 3.5,-1 5.5937,-6.1874 4,-2.5 3,-3.0938 2.5,-3.125 4.5938,-1.5 0,-3.0938 -2,-1.5 -2.0938,-0.5 -5,-3.5937 -6.0937,-1 -1,-1 -3,0 -3.0937,-0.5 z m 63.6874,0.4063 -6.5,1 -2.5,4.0937 0,3.0937 1.5,2 1.5,5.5938 1.5,4.125 2.0938,2.5 8.5938,-3.625 4.5,-8.0938 -6.0938,-8.6874 -4.5938,-2 z m -245.8124,3.0937 -0.5,3.5937 0,4.0938 -2.5,3.125 -5.0938,2 -2,2.0938 -5.5,-1.0938 -13.6875,4.1875 -5,4 -0.5,3.0937 0.5,3.0938 1,5.125 5.5937,2 2.5,3.5938 2,4.5937 1,1.5 2.5938,0 7.5938,-1.5937 6.5,2.0937 4.625,-0.094 4.5,0.5 2.0937,-1.5 0,-5.0938 -1.5937,-5.125 -1.5,-4.5938 -0.5,-6.0937 5.5,-3.0937 2.5937,-3 0,-1.5938 -4.0937,-1.5 -0.5,-10.7188 -3,-3.5937 -2.625,0 z m 45.625,14.1875 -1,1.625 0,2 0.5,2.5 3,1.5938 7.0937,4 3.0937,5.0937 3,0 3.5,-4.5937 1,-4.0938 -3,-3 -1.5,0.5 -4.5937,1.5 -2,0 -2.5,-0.5 -2.5937,-1.5 -1,-3.625 -1.5,-1 -1.5,-0.5 z m 65.1874,12.125 -3,2.0938 -1.5,4 -5,2.5937 -0.5,1.5 0.5,1.5937 3.5,2.5 3,0 4.0938,-2 1,-4.5937 3,-3.5937 -1,-3.0938 -4.0938,-1 z m 117.4063,1.6875 -2,0.094 -7.0937,2.5 -10.125,7.2188 -4.5,7.1875 -2.5,5.5937 -3.0938,1 -1,4.0938 1,2.5 2.5938,2.125 4,1.5 7.125,-5.625 6.0937,-6.1875 5,-4.5937 4.5937,-3.5938 4,-6.625 -1,-3.0938 0.5,-2 -2.0937,-2.0937 -1.5,0 z m 81.5,14.0937 -8.5937,5.0938 -10.125,3.625 -21.6876,3.6875 -10.6874,3.5937 -5,3 -6.625,3.5938 -2.5,1.625 -4,1 -3.5938,0 -2,0.5 -3,1.5938 -2.5938,2 -4,5.5937 -4,5.6875 -3.0937,4.625 -1.5,3 -1,4.5938 0,5.5937 12.1875,10.1875 5.0938,-0.5 5,-2.0938 4.625,-2.5 2,-2.0937 2.5,-2 3,-6.1875 1,-1 3.5937,0 1,0.5 4.5937,5.5938 5,0.5 6.0938,-2.5938 4,-5.125 3.0938,-1 3,-1.5 4,1 4.125,3.5 3.5,2.625 2.0937,3.5 -1,6.6875 0.5,1 1,0.5 2.5,0 3.0937,-1.5 2.5,-1.5937 -1,-4.0938 -3.5937,-2.5 -1.5,-10.2188 1,-3.5937 4.5,-5.0937 4.0937,0 2.5,1.5 3.5,-1 1.5,-6.0938 2.5938,-6.2188 2,-4.0937 2.5,-2 4,-5.5937 2,-2.0938 0,-1.5 -9.5938,-9.2188 -8.5937,-2.5 z m -160.9063,3 -5,4.0938 -2.5,2.625 -4.0937,4 -5,5.6875 -1,2.5 3.5,7.1875 3.0937,4 1,8.7188 5.5938,2.5 2,4.5937 3.0938,7.1875 4.5,4 3.625,0.5 3,-1.5 15.6874,-3.0938 4,0 7.0938,1 2,-3.5937 -1,-4.5937 -0.5,-5.0938 -1,-5.625 -1.0938,-5.0938 -3.5,-3.5937 -2,-2 -3.0937,-4.0937 -3,-4.5 -0.5,-3.0938 -1.0937,-2.625 -1,-2.5 -5.625,-2 -4.5,0 -3,-0.5 -3.0938,0 -0.5,-1 -1,-2.5938 -2.5,-1.5 -2.5938,0 z m -93,0.2188 -3.0937,1.0938 -3.5,1.5 -2,1.5 -1.5937,1 -1,1.0937 -1.5,5.5937 -0.5,2 -2,2.0938 -8.125,3.125 -5.5,1.5 -1.5938,0.5 -3,3.0938 -3,4.5937 -5.5938,5.5937 -2.5,0.5 -3.5937,0 -7,-1 -1,-0.5 -1.0937,-2.5 -1,-1.0937 -5,-1.5 -1.125,0 -7,-2.5 -3.5938,-4.0937 -2.5,-0.5 -2.5,0 -3.0938,1.5937 -4,7.5937 -0.5,0 -2.5,6.7188 -3.5937,5.0938 -7.5937,7.5937 -6.5,0.5937 -2.125,-0.5 -1,0.5 -4.5,2 -3,2.0938 -2.0938,1 -4,3.625 -2,1 -3.0938,1.5 -2.5,3.0938 -1.5,4.5937 -1.5,8.1875 -1.5,4 -5.0937,3.625 -1,2.5938 -0.5,0.5 -5,2 -7.0937,2.5937 -2.625,-0.5 -5.5,-4.0937 -8.0938,-1.5 -3.0938,1 -3.5,4.0937 -1,1.5937 1,1 -1,6.0938 -0.5,8.7188 -1.5,2 -3,2.5937 -5.0937,1.5 -8.0937,2.0937 -5.625,-1 -4.5,-1.5937 -2.5,-3 2.5,-7.1875 0,-3.5 -2.0938,-3.625 -2.5,-0.5 -2,1 -2.5,2.625 -2.5938,6.0938 -0.5,7.0937 -1.5,1.5937 -9.5937,2 -4.5,10.8126 -3.0937,1.5 -8.625,-2.5938 -12.5938,-9.625 -2.0938,-3.5938 0.5,-2.5 3.0938,-3.0937 1,-2.5937 1,-3 0.5,-2.5938 1.5,-2 7.5938,-5.125 3.5,-3.5938 0.5,-1.5 0.5,-2.0937 -1,-2 -1,-0.5 -2,-0.5 -1.5,0 -1.5,1 -2.5938,4.0937 -3.5,5.0938 -5.0938,5.625 -8.5937,5.5938 -7.5,1.0937 -2.5937,1 -2.5,1.5 -3,3.5937 -4.625,6.5938 -4,4.125 -7.0938,11.2812 -1.5,0.5 -2,1 -2.5938,1.5 -8.0937,4.0938 -9.5937,-0.5 -1.5,0.5 -2.5,2.625 -1.5,0.5 -5.625,0 -6.5938,1.5938 -15.1875,7.5937 -10.0937,6.1875 -5.5,5.125 -4.625,6.0938 -2,3.5937 -3.5,5.0937 -3.0938,2.5 -3,1.5938 -6.0938,1 -2,0.5 -1,1.5 -1.5,1.625 -1.5937,2 -0.5,1 -0.5,3.0938 -1,1.5 -1,1.5937 -0.5,0.5 -1,0 -1,-0.5 -1.5,-1.0937 -1.0937,-0.5 -1.5,0 -2.5,3.5937 -1,0 -0.5,-0.5 -0.5,-1 0.5,-1.5937 1.5,-1.5 1.5,-0.5 6.5937,-0.5 0,-1 0.5,-3.5938 -0.5,0 -7.0937,-4.125 -2,-2 -2.125,-0.5 -1.5,0 -5.5,5.125 -10.6876,9.1875 -4.5,1 -16.1874,7.1875 -13.7188,4.625 -9.5938,1 -2,3.0938 -2.5,-1.5938 -1.5937,0 -4,3.5938 -15.7187,6.6874 -5.0938,1.5 -15.6875,-1 -9.5937,-0.5 -7.125,-1 -3.5,-1 -2.5,0.5 -6.5938,2.5 -9.5938,2.0938 -8.5937,3.625 -3.0937,3.5 -8.625,2.0938 -12.0938,8.1874 -6.5938,2 -13.6874,5.5938 -12.125,3.125 -6.5938,2 -16.1875,4.5938 -10.0937,3.0937 -6.625,2 -3,2.0937 -5.5938,2 -11.1875,4.5938 -2.5,1.625 -6.0937,2.5 -8.125,4.0938 -4,2 -5.0938,2.0937 -10.0938,2 -15.1874,1.0937 -3,0 -11.7188,-0.5 -3,-0.5 -3.5938,-1.0937 -2,0.5 -1,0.5937 -3,7.0938 -1,0.5 -1.0937,0 -0.5,-0.5 1,-6.0938 -0.5,-1 -10.5937,0 -8.625,1.5 -19.1876,4.5938 -13.6874,4.625 -7.625,1 -7.5938,0 -8.5938,-4.125 -21.3124,-15.7812 -10.5938,-8.5938 -4,-2.125 -2.5938,0 -1.5,1.625 0,1.5 3.5,1.5 3.0938,2.0938 5.5938,4.5937 4.5,3.5 9.125,7.1875 3.5937,3 -0.5,1 -1.0937,0.5 -3,-1 -0.5,0 -1.5,1.625 -2,0.5 -1.625,0 -2.5,-2.625 -1,-0.5 -1,0 -5.0938,1.5 -1.5,0.5 -1,-1 -15.1875,-17.7812 -20.2187,-21.9063 -28.375,-31.5937 -2.9063,-9.2188 -0.5937,0.125 -7.625,0.375 -7.5938,3 -9.2812,5.5 -5.7188,4.8125 -0.4062,0.3125 -2,4.875 -1.2813,4.9062 -0.3125,3.3126 -0.9062,2.4062 -1.6876,4.5938 -2,2.6874 -3.3124,0.9063 -0.375,0.094 -2.5,-1.5 -3,-1.1874 -4.7188,-1.0938 -4.2812,-0.8125 -4.625,0.8125 -2.5938,1.0938 -2.0938,1.2812 -5.1874,3.3125 -3.625,4.0937 -0.875,0.9063 -3.5,4.9063 -0.625,3 0.625,3.9062 3.0937,2.875 4.5937,0.2188 0.4063,0 4,1 2.5937,0.9062 2.5938,1.875 0.3125,0.3125 1,2 -0.2187,3.5937 -1.0938,3.3126 -0.5938,0.6874 -2.6874,2.9063 -2.625,2 -4.6876,3.8125 -5.3124,4.875 -2.5938,2.5 -1.6875,2.9062 -0.2187,3.9063 0.8124,4.5 -0.8124,4.1875 -2.5,3.125 -3.375,1.375 -3.2188,-0.094 -5,-0.6874 -6.5938,-0.8126 -5.0937,0.3126 -4.5,-0.2188 -3.5937,-0.1875 -2.9063,-2.0937 -2.0937,-1.4063 -0.4063,-0.3125 -3,-0.094 -3.5937,0.4063 -2.5,0.9063 -2.625,-0.094 -3.0938,-1.9062 -0.4062,-0.2188 -1.6876,-2.5938 -2,-3.5937 -2.0937,-4 -1.2187,-3 -2,-1.0937 -0.1876,5.0937 -2.8124,77.4063 -2.5938,83.6874 -1.7812,54.4063 -1.625,57.5937 -2.2813,81.5938 -1.6875,56.0625 1745.375,0 -72.1875,-20.3437 -3,-2.8126 0.094,-2.4062 0,-5 0.094,-0.5 0.8125,-3.5938 -0.2187,-4.5937 -0.094,-3.0937 -0.1875,-1.8126 -2,-3.5937 -0.7187,-1.3125 -1.375,-2.6875 -2,-3.0937 -0.9063,-1.5 -0.7187,-1 -1.375,-2.5938 -1.625,-4.2188 -0.094,-2.6874 -0.5938,-3 -0.8124,-2.5 -0.375,-1.0938 -1.125,-4 -1.1876,-3 -1.5,-2.5 -2.1874,-3.5 -0.9063,-1.4062 -1.2187,-2.0938 -2.875,-5.4062 -1.4063,-3.7188 -2.5937,-4.5938 -1,-5.0937 0,-3.4063 -0.2188,-4.5 0,-1.5937 -0.094,-2 -0.1874,-4.3125 -1.625,-4.2812 -1.5938,-2.5 -1.6875,-3.5 -0.4063,-0.3126 -2.4062,-2.0937 -2.5,-1.5937 -2.0938,-2 -0.5937,-1.0938 -1.4063,-2.4062 0.4063,-2.5938 0.4063,-2.4062 -0.125,-2.5 -0.375,-1.4063 -0.4063,-0.8125 -1,-2.5 -1.5,-2 -0.9063,-0.6875 -1.0937,-0.9063 -2.0937,-0.5 -2,-2.5937 -1,-3 -0.3126,-1.4063 -0.1874,-1.5937 -1.5,-4.0937 -2.625,-2.5 -5.0938,-7.0938 -0.7812,-1.125 -0.5,-1.1875 -2.7188,-4.5 -2.1875,-4.5 -0.9063,-3 -0.094,-1.8125 0,-2.2812 -1.5,-4 -1.5,-3.0938 -3.0937,-0.5 -1.7188,-0.625 -2.2812,-0.875 -3.125,-0.5 -2.5938,-0.625 -2.9062,0.625 -0.5938,0.094 -2,0.5 -2.5,0.5 -1.4062,0.1874 -1.5938,0.3126 -4.0938,0.9062 -5.0937,0.094 -4,-1 -1.3125,-0.2188 -1.2812,-0.5 -2.125,-0.875 -1,-1.125 -0.875,-1.2812 -0.2188,-1.2188 -0.2812,-1.375 0.5,-2 -1,-2.125 -0.5,-1.5 0.5,-1.5938 0.875,-1.5 -0.094,-2.0937 -0.9062,-1.3125 -1.5,-0.094 -2.0938,0.5938 -1.5,0.5 -2.5,-0.094 -2.5,0.5938 -2.1875,0.3125 -1.3125,0.1875 -4.6875,1 -3.4063,0.625 -3.5937,1 -1.3125,0 -1.1875,-0.2188 -2.0937,-0.9062 -1,-1.0938 -0.5,-1.4062 -0.5,-3.5 1.5937,-3.2812 1.5,-4 1.4063,-2.7188 -0.125,-3.5938 -0.094,-3 -0.4062,-2.0937 -0.375,-1.6875 -2,-2.625 -2.125,-2.5 -0.7813,-0.875 -2.4063,-2.2188 -2.5937,-2.4062 -2.3125,-2.0938 -2.2812,-0.7812 -2.5,0.094 -1.3126,0.094 -4,2.5937 -3.3124,5.3126 -1.7813,2.9062 -1.5,3.0938 -1.5,1.5 -2,1.1874 -2.3125,-0.2812 -2.2812,-1 -2.5,-0.2188 -1,-0.094 -4.4063,0.5937 -4.8125,0.8126 -3.5,1.1874 -3,1.9063 -3.0938,0.094 -2.5,-1.5937 -2.9062,-3.6875 -3.6875,-4.9062 -4.8125,-7.0938 -3.1875,-4.7188 -2.2187,-3.5 -2.875,-7.4062 -0.4063,0.125 -6.3125,4.2812 -4.5938,1 -6,2.0938 -6.5937,-2.5 -6.0937,-2 -4.625,-1.5938 -4,-3.5 -4.5938,-3.0937 -1,-0.5 -2.5938,-1.5 -6,-3 -4.5937,-4.5937 -3.5937,-2.5 -4.5,-3.0938 -2.625,-3.5 -2,0 -2.5,1 -3.5938,1 -4.5,-0.5 -8.0938,0.5938 -1,5.5937 -6.0937,3 -6.0937,-2.5 -1.5,-1 -17.3126,-10.5937 -9.5937,-9.2188 -13.7187,-11.1875 -10.1876,-9.0937 -8.5937,-7.5938 -4,-2.625 -3.0937,-3 -8.625,-6.5938 -1.5,0 0,1 6.125,6.0938 0,1 -3.125,3.625 -1.5,1.5 -1,0 -3,-5.625 0.5,-3 -0.5938,-1.5938 -1.5,-1 -2,-1 -1.5,0.5 -1,0.5 -1,1.0938 -1.0938,0 0,-3.5938 1,-0.5 3.0938,0.5 2,-1.5937 0.5,-1 -1,-2 -3.0938,-2 -12.0937,-11.6875 -9.7187,-9.2188 -12.6876,-11.6874 -18.6874,-16.2188 -14.8126,-17.2812 -1.5,-0.5 -1,0.5 0,1.5 4.0938,4.5937 6.0938,8.5937 4,4.5938 9.2187,6.125 12.0937,11.6875 1.0938,2.5 6.5938,3.5937 3,3 0.5,0.5938 -1,1 -1.5,0.5 -3.5938,-1.5 -4.5,-4.0938 -5.0938,-2.5 -4.5937,-1.5937 -6.5937,-2 -6.5,-1 -8.7188,-0.5 -1.5,0 -1.5,1.0937 -7.0938,4.5938 -3.5,2 -0.5,1 0,2.125 0.5,0.5 1,0 10.0938,-3.125 9.0938,-0.5 4.625,-0.5938 14.1874,2 4.5938,2.5938 15.2188,6.125 1.5,1 0,1 -3.625,0.5 -6.5938,-1.5 -4.5,-2.5 -2,0 -1.5938,1 -1,4.0938 -1,2.5 -1.5,0 -6.5937,-5 -3.5,-1.5938 -13.7187,2.5938 -4,1.5 -3.0938,2.5937 -5.5,7.6875 -8.0938,7.625 -5.0937,3.0938 -8.5937,5.5937 -12.625,4.5937 -3.5938,0.5938 -11.0938,1.5 -2.5,4.625 -12.6874,4.0938 -10.125,6.6874 -10.0938,3.5938 -4.0938,3.5 -8.0937,6.2188 -6,4.5937 -6.0937,3.5937 -2,1.5 -2,1 -1.625,0.5 -3.5,0.5 -6.0938,-2 -18.1875,-5.5 -1,-1.0937 0.5,-5.0937 -1.0937,-1.5 -2,-2 -0.5,-1.5 0.5,-1.5938 1,-2 3.5937,-2.625 3.5,-2.5 8.0937,-11.7812 8.5938,-10.7188 0.5,-3.0938 0,-6.0937 1.5,-5.0937 1,-3 0.5,-7.2188 1.5,-15.7812 1.5,-3.5 2.5,-2.0938 5.0938,-1 13.625,-6.2188 14.1874,-12.1874 4,-4.5938 5.5938,-8.2188 0,-3.0937 -5.5938,-11.6875 -2.5937,-4 -3,-6.2188 -3.0937,-7.0937 -2.5,-6.0937 -3.125,-7.5938 -2.5,-7.2188 -2,-4.0937 0,-4.5 2,-7.1875 4,-3.125 6.125,-2 3.5,-2.5938 2.5,-4.0937 1.5,-4 1.0937,-3.0937 -0.5937,-2.5938 2.0937,-6.125 1.5,-2 2,-0.5 2,0 3.5937,0.5 3,1 5.0938,-2.0938 3.5,-4.0937 1.5,-5.0937 3.5,-10.2188 1.5,-2.5 3.5938,-3.0938 4,-1.5 4.125,-3.5937 5,-5.5937 3.5,-5.7188 2.0937,-5.5938 2,-3 3.5,-5.6874 0,-5.0938 -0.5,-1.5 0,-1.5 1,-3.625 0.5,-4.0938 2.5,-4.0937 3.5,-4.5937 4.0937,-7.5938 1.5,-8.7188 0,-2 -0.5,-2.0937 -2.0937,-2 0.5,-2.0937 10.1875,2.0937 3.5,-2.0937 3,-4.0938 0.5,-3 0,-4.625 -7.5938,-12.2812 -1,-1 -3.0937,-1.5 -9.0937,-1.5 -1.5,-0.5 -1,-1 0,-5.0938 -0.5,-6.7188 -2.625,-7.0937 -0.5,-2 -2.5,-3.0937 -1,-1.5 -4.0938,-3.5938 -2,-1.5 -2,-0.5 -2.0938,0 -1.5,0.5 -1.5,0 -4,6.0938 -1.0937,1.0937 -3,0 -5.5937,-2.5937 -1.5,-0.5 -2,0.5 -1,-1 1.5,-2 2,-7.7188 0,-2.5 -1,-4.5938 -1.5,-5.0937 -1.625,-2.0937 -0.5,-0.5 -7.0938,-2.5 -6,-2.5 -7.5938,-2.5938 -2,-0.5 z M 1467.3125,149 l -3.5,0.5 -0.5,0.5937 -1.0938,0.5 1.0938,2.5 2,0.5 2.5,0.5 2,-2 -1.5,-2.5937 -1,-0.5 z m 434.2188,51.5 -2.5,1 -6.125,3.5937 -2.5,2 -0.5,0.5 -3.5,1.0938 -4.5938,2.5 -4,1.125 -3.0938,0.5 -3.5,0.5 -2,0 -2,1 -4.0937,4.0938 -4,4.5937 -7.5937,3.5937 0.5,2.0938 5.5937,2 7.0937,3 5,-0.5 5.0938,-2 3.5,-2.0938 4.5938,-1.5 3,-6.6874 6.125,-3.0938 6.5,-7.125 3.5937,-3.0938 1.5,-5.5937 -0.5937,-1 -0.5,-0.5 -1,0 z m -173,3.5 -13.7188,4.0937 -4,2.0938 -2,1.5 -0.5,3.125 1,4.5938 8.0938,2.5 5,-0.5 4.125,-2.0938 5,-1.5 3.0937,-5.125 0.5,-4.5938 -0.5,-2.5937 -2.5937,-1 -3.5,-0.5 z m 44.5937,23.9063 -2.5937,1.5 -2,2.5937 -8.625,9.1875 -6,7.625 -4,5.6875 -5.0938,4.0937 -6.0938,6.0938 -7.5,6.125 -11.0937,6.6875 -9.2187,4.0937 -12.0938,6.7188 -6.5,6.0938 -4.5938,3.5937 -0.5,9.1875 -2.5,1 -2,1.5 -7.0937,2.125 -5.5937,0 -3.5,1 -10.625,8.1875 -12.6876,1.5937 -3,2 -1.5,3.0938 1,4.125 4.0938,5.5938 2,4.5937 -1,4 -3,5.5937 -0.5,3.0938 1,4.125 -0.5,3.5938 2,1.5 5.0938,-0.5 9.625,-2.0938 7.5937,-5.125 4.5,-4.5938 5.0937,-5.5937 1.5,-0.5937 7.5938,-6.5938 4,-4.625 3.5,-3.0938 4.0938,-3 4,-0.094 4.625,1.0937 6.5937,1 7.5937,-0.5937 5,-1 5.0938,-2.5937 6.5,-0.5 5.5938,-1.5 4.125,-4.5938 1,-4.625 -0.625,-2.5938 -1.5,0 -6.0938,-2 -5,0.5 -1.5,-0.5 -2.0938,-7.0937 -0.5,-11.8125 1.5,-2.5 7.0938,-2.5938 11.0938,-4.0937 12.625,-4.5937 15.1874,-7.2188 11.6876,-1.5938 9.125,-1 6.5,-2.5937 2,-1.5 2.0937,-2.0937 2,-2.5 -1,-3.0938 -3.5937,-2 -1,-0.5 -5.625,-5.625 -3,-2.5 -3.0938,-6.1875 -4,-5.5937 -2.5938,-4 -5.5,-1 -7.5937,-0.5 z m -89.0937,0.1874 -4.5,2.5938 -3.625,4.125 -3.5,6.5938 -2.5,4.0937 -1.5,5.5937 -2,4.5938 -2.5938,4.625 -1,3.5938 -1.5,9.1874 0.5,1 2.0938,1 4.5,-1 4.125,-3.0937 8.5,-7.1875 4.0937,-5.625 6,-11.1875 3.0937,-6.1875 -0.094,-5.125 -1.5,-3.5 -1.5,-1.5 -2.5,-2.0938 -4.5937,-0.5 z m -50.3126,157.2188 -4.5,0.5 -4.5937,1.5938 -0.5,0.5 0.5,1 1.5,0 12.6875,2 4.0938,2.0937 9.125,6 5.5937,5.0937 -0.5937,-4.5937 -1.5,-2 -2.5,-3 -4.125,-4.5937 -4.5,-2 -3.0938,-0.5938 -3.5,-1 -4.0938,-1 z"
     id="rect4"
     inkscape:connector-curvature="0" />
  <path
	 style="fill:#9FAEC0"
	 stroke="#9FAEC0"
	 stroke-width="10"
	 transform="translate(0, 100)"
     d="m 483.4375,845.25 -1.0312,33.8437 -1.6876,48.9063 -2.0937,66.8125 -2.7187,82.7813 -0.5938,15.5 -9.9062,2.4062 -9.1876,1.5938 -6.4062,3.0937 -5.0938,4.125 -3.6874,3.375 -1.7188,4 -2.1875,4.5 -0.094,3 -0.8126,4.4063 -2.1874,3.5 0,0.5937 -0.3126,2.5 1.1876,2.7188 1.3124,3.5937 -0.5937,3 -2.0937,4.8125 -2.3126,2.6875 -2.1874,3.5 -1.625,3 -1,1 -0.5938,0.8125 -0.5,0.5938 -2.1875,2 -2.7187,1.2812 -2.375,-0.5937 -3.2188,-0.094 -0.7812,0 -3,-1.1875 -5,-1.7188 -5.5,-2.7812 -3,-0.125 -3.2188,-2 -1.6875,-2.2813 -3.0937,-1.9062 -4.4063,-2 -3.7187,-0.5938 -3.2813,-0.7187 -3.5937,0.9062 -3.125,0.8125 -3.2813,1.7813 -4.2187,2.625 -3.875,2.7812 -2.2188,1.9063 -1.0938,3 -0.6874,3.0937 -0.5,2.7188 -0.2188,1.7812 -2.0938,2 -2.0937,0.9063 -2.0937,1.4062 -1.125,2.5 -0.094,2.5 -1,2.5938 -1.6875,1.4062 -1.5937,1.5 -2.4063,1.7813 -1.3125,2.125 -0.7812,1.7812 -0.125,0.5938 0.3124,2.5 0.3126,1.7187 0,1 -1.125,2 -1.5938,1 -2.0938,1.4063 -2.0937,1 -3.0937,0.6875 -0.4063,-0.094 -3.0937,-0.4063 -5,-1.8125 -2.5,0.4063 -2.625,-0.094 -2.5,-1.9062 -0.375,-0.2813 -1.9063,-2.625 -2,-1.5937 -3.5937,0 -2.5,-0.1875 -2.5,-1.7188 -2,-0.875 -0.4063,-0.2187 -2.5937,-0.094 -4.125,0.3125 -2.875,0.6875 -0.625,0.3125 -3,1.375 -2.7813,1.3125 -3.7187,3.4063 -2.5938,2.4062 -1.7812,2.1875 -1.5,2.8125 -1.625,3 -1.1876,2.5 0.4063,3 -0.094,3.0938 0.875,3.0937 -0.1876,3 -1.5937,2 -1,0.5 -0.5,0.094 -1.5937,0.094 -7.5,0 -4.125,1.4063 -0.5,0.094 -4.1876,1.625 -5.9062,3 -3.0938,2 -3.5,0.5 -3.5,-0.125 -3.6874,0.7187 -0.3126,0.2813 -2.1874,1.4062 -0.5,0.3125 -3,2 -2.8126,1.9063 -2.5937,1.375 -2.5937,0.9062 -3,0.4063 -2.7188,0.5 -3.0938,-0.5 -2,0.5 -0.4062,0.1875 -2.1875,0.3125 -2,2.5 -0.5937,2 0.094,1.5 -1.2187,1.5 -2.0938,0.4062 -1.5,0 -2.7812,0.1875 -2.5,-0.5 -2.625,1 -2.7813,1.4063 -5.3125,3.6875 -5,3.125 -2.2812,2.2812 -0.125,1.5 -0.5938,2 -0.094,2.0938 -0.5937,2.5 -2.2187,1.625 -2.2813,1.0937 -3.0937,2.0938 -2.8126,0.8125 -2.3124,1.2812 -2.875,2.0938 -2.125,1.4062 -2.5938,1 -2.5938,0.8125 -2,1.5 -0.5937,0.5 -2.4063,2.2813 -5.6874,5.7187 -0.3126,0.4063 -4.4062,5.2812 -4.2812,6.4063 -2.625,6 -1,4.5937 -1.7813,7 -1.3125,7.3125 -1.1875,3.2813 -0.8125,2.3125 -3,4.0937 -3.0938,2.4063 -4.1874,2.9062 -4.2188,2.4063 -3.2812,2.875 -1.3126,2.125 0.3126,6 2,6.0937 1.5,4.0938 2,4.0937 -0.4063,3.7188 -1.2187,3.5 -2.875,4 -2.625,3 -2.5,1.6875 -0.5,0.4062 -3.1876,2.5938 -1.5937,2.5 -3.4063,7 -0.5937,3.5 -0.7187,4.5937 -1.2813,6 -1.7187,4.5 -1.5938,4.0938 -1.6875,3.8125 -3.0937,4 -2.2188,2.3125 -2.2812,2.1875 -2.7188,2.4062 -2.0938,1.9063 -0.3124,0.375 -2.2813,2.125 -2.3125,2.375 -1.6875,2.125 -0.4063,0.5 -2,2.2812 -5.0937,4.3125 -5.5,3.9063 -3.2187,1.5 -2.375,1.1875 -4.625,2 -4.7813,2.3125 -4.2187,2.375 -3.0938,0.8125 -2.6875,0.4062 -3,1.1875 -0.4063,0.3125 -2.0937,1.6875 -1.5937,2.5938 -1.5,6.125 -1.7188,6 -0.6875,5.0937 0.2813,4 -0.5938,3.5938 -2.1875,3.4062 -0.8125,6.0938 -0.6875,5.5937 -1.3125,6.8125 -0.7812,4.7813 -0.2188,4.625 -1.7812,3.7812 -0.2188,0.5938 -0.9062,3.625 -1.6876,4 -1,3 -0.2187,1.3437 0,88.5 2.2187,2.75 0.4063,0.2813 3,1.9062 3.5,0.7188 3.5937,0.5 0.5,0.094 3.5938,0.5 4.5,-0.094 4,0.6875 5.5,1.8125 5.5938,1.7812 4.2187,1.9063 4.6875,2 4,0.5 3.7188,-0.1875 4.5937,-1.3125 4.9063,-2 3.375,-2.1875 3.625,-0.9063 5.0937,-1.3125 3.5937,0.2188 0.5938,0 3.5,0.1875 0.5938,0.3125 3.3124,1.875 4.1876,2.4062 4.2187,3.5 4.5,2.8125 3.5,3.2813 0.4063,0.4062 4.1874,3.7188 2.8126,2.7812 2.7812,2.9063 0.4062,0.5 2.4063,2.8125 1.9063,3.6875 0.875,3.5937 0.625,3.2188 -0.2188,2.875 -0.7812,3 -0.2188,0.625 -0.5,2.375 -1,3.4062 0.1875,3.7813 3841.0625,0 -0.031,-1.2813 -0.625,-3 -0.6875,-4.0937 -1.4062,-1.5 -1.2813,-1.4063 -2.7187,-3 -3.0938,-2.4062 -5.1875,-2.2813 -1.625,-1.4062 -2.875,-2.5 -1.7181,-1.6876 -1.0937,-1.3125 -0.094,-2 0.4062,-2.0937 0.875,-2.5 1.5,-1.5938 3,-0.125 1.5,-0.094 2.625,-0.094 3.5938,0.9063 3.0937,0.7812 3.5,2.125 3.5938,0.875 1.5,0.625 1.0937,0.375 3.5,-1 2.125,-1.5 1.875,-2.0937 1.3125,-5.0938 -0.094,-3.4062 -0.094,-2.6875 -0.125,-2.5938 0.4062,-1.125 1,-2.875 0.5,-3.625 2.7188,-4.1875 0.7812,-0.9062 0.5938,-3.2813 0.9062,-3.3125 0,-3.5 0.094,-0.8125 0.4061,-2.7813 -0.5,-3.5938 -1.1875,-4.2187 -1.5937,-2.5 -2.125,-2 -2.5938,-2 -2.5,-0.9063 -2.2812,-2.0937 -2.125,-1.9063 -1.5938,-3 -1.5,-2.2812 -1.1875,-2 -1.5,-2 -1.4062,-2.3125 -0.9063,-2.6875 -0.6875,-1.9063 -2.5,-3 -1.5937,-2.5937 -2.2188,-3.4063 -2.5937,-0.9062 -2.8125,-1.7813 -0.5,-0.3125 -1.875,-2.3125 -1.2188,-2.5 -0.5937,-3 0.4062,-2.5937 0.4063,-3.5 0.1875,-1.4063 0.094,-1.2812 1.5937,-1.9063 1.3125,-0.9062 0.8125,-0.5938 1.2813,-0.8125 2.5,-1.0937 2.5,-0.094 2.5937,-0.5938 2.9063,-1.5938 3,-1.7187 1.5938,-1.6875 2.5,-1.5938 3.125,-0.5 2.5,-0.7187 2.2812,-1 3.2188,-2 1.0937,-2.5 -0.094,-2.0938 -1.125,-3.0937 -3.5938,-4.0938 -0.7812,-0.625 -4,-3.6875 -4.8125,-5.0937 -1.5938,-1.0938 -2,-1.4062 -2.0937,-1.7188 -1.5,-1.7812 0.5,-2.0938 0.2812,-1.5 0.2188,-1.125 0,-2 -1.125,-2 -2,-2.5 -2.5,-1.5 -4.0938,-1 -2.4062,-0.875 -1.6875,-0.625 -4.1875,-1.0937 -0.625,-0.094 -2.5,-0.8125 -3.875,-2 -2.8125,-1.375 -0.5,-0.3125 -2.1875,-2.5 -0.5,0.094 -1.7188,-2.5 -2.5,-2 -3.0937,-2 -4.4063,-5.7813 -1.1875,-3.8125 -0.5937,-3.5 -1.125,-3.3125 -0.875,-3.375 -2.125,-3 -3.0938,-2.5 -3.5937,-3 -3,-0.9062 -3.0938,-0.3125 -1.8125,-0.2813 -1.1875,0 -2.5,1 -2.5937,0.5938 -2.5,-0.5 -2.125,-0.9063 -3.0938,-2.4062 -1.5937,-0.5 -0.9063,-0.1875 -2.5937,0.5 -1.9063,-0.5 -0.5,-0.094 -1.6875,-0.4063 -2,0.1875 -1.5,1.5 -1,0.5 -2.0937,-0.5937 -2,-0.6875 -3.125,-1.3125 -2.5938,-0.5 -4.5,1.6875 -4.4062,0.4062 -5.6875,-0.4062 -3.5938,-0.094 -3.9062,-1.4063 -2.5938,-1.5 -2.5,-1.875 -1.5937,-1.125 -2.5,-2.0937 -3.125,-1.5 -3.5,-2 -2.5938,-1 -2.6875,-1.5938 -0.9062,-1.4062 1,-2.5 1,-1 1,-1.0938 1.5937,-2.5 0.9063,-3.0937 -1,-2.3125 -1.1875,-4.0938 -1.125,-2.4062 -1.2813,-2.2813 -3.0937,-3.125 -2.5,-1.5 -1.5,0.5 -3.125,1.125 -2.5,2.5 -1.5,0.5938 -1.5,0.5 -2.7813,1.4062 -4.5937,1.1875 -7.5,1.8125 -1.3125,0.2813 -1.5938,0.5 -4.5,1.5 -3.5937,2.2187 -4.5,1.6875 -0.9063,0.4063 -3.0937,1.2812 -2.625,0.125 -1,0 -3.5938,1.0938 -4,-0.5 -1.2812,-0.4063 -1.8125,-0.8125 -3.5938,-2.2812 -2.0937,-1.5 -4.5,-2 -3.5,-1 -3.4063,-1.5938 -3,-1 -3.3125,-2.4062 -2.6875,-3.2188 -1.5,-2.6875 -2.0937,-2.5 -3.7188,-2.3125 -3.5937,-2 -2.8125,-1.375 -3,-2.125 -0.5938,-0.5937 -2.5,-2.9063 -2.1875,-2.6875 -1.4062,-2.3125 -0.5,-3.5937 1.0937,-3.2813 1.9063,-2.625 2,-2.6875 2.5,-2.5937 5.3125,-5.2188 2.7812,-3 0.3125,-0.375 2.2813,-1.9062 2.4062,-2.2188 1,-2.6875 1.5,-2.5937 1.3125,-1.9063 2.4063,-3.1875 1.875,-2.625 2.5,-2.0937 2,-2.4063 2,-2.5 1.9062,-2.1875 1.5938,-2.5 2.7187,-2.0937 3.5,-1.7188 2.4063,-3.5937 0.5,-2.5 0.2812,-0.9063 -1.5,-1.5 -2.0937,-1.5937 -2.5938,-1.9063 -3.3125,-1 -2.5937,-1.375 -0.5938,-0.2187 -2.8125,-1.0938 -6.1875,-3.8125 -1.0937,-3 -1.5,-3.0937 -0.5,-1.4063 -0.3125,-2.0937 -1.4063,-6.5938 0.4063,-3.5 0.094,-3.0937 1,-2.5938 0.2187,-0.5 0.5,-0.5 1.875,-2.625 1,-2.0937 2,-1.5 0.9063,-1.0938 -0.5938,-1.5 -1.5,-1.5 -5.1875,-3 -3.125,-0.8125 -3.0937,-1.3751 -1.9062,-0.4062 -1.6875,-0.5 -3.1875,-0.3125 -3.625,-1 -2,-1.5 -2.5938,-1.9063 -0.9062,-1.1875 -1.0938,-1.4062 -3.1875,-2.6875 -2.5937,-2.5 -2.125,-1.4063 -2.7813,-1.5 -3.5937,-2 -1.625,-0.4062 -2.5,-0.5938 -3,-0.5937 -3.5938,-0.9063 -3.5937,-2 -2.5,-2.5 -2.3125,-2.6875 -3.0938,-2.5 -2.5,-0.4062 -3.2812,-1 -2.625,-0.9063 -2.875,-0.8125 -1.3125,-0.5 -1.4063,-0.2812 -1.0937,1.1875 -0.4063,0.4062 -2.6875,3.5 -1.8125,2.0938 -2.5937,1.5937 -3.5,0 -2.6875,-1.5937 -3.125,-0.9063 -3.5938,-0.5 -2.5,0 -2.2812,-0.5 -3.625,-1.375 -0.375,-0.3125 -1.4063,-1 -2.0937,-1.9062 -2.2188,-3.5 -1.5937,-3.0938 -1.6875,-1.9062 -2.5,-1.4063 -3.125,-0.875 -1,0 -1.2813,0.2813 -2.5937,1.5937 -2.5,1 -3.125,2.625 -3.375,2.5 -3.125,2.5938 -5.5,1.5 -5.5938,-0.9063 -4.0937,-1.5 -5.1875,-4.5937 -2.625,-1.5 -3.0938,-1.5 -3.5937,0.094 -1.9063,0.6875 -0.9062,1.3125 -1,0.6875 -1.5938,0.7187 -2,0.5938 -1.5,-1.0938 -1,-1.9062 -1.5,-2.5 -1,-1.5938 -0.4062,-0.9062 -1.2813,-3.0938 -2.5,-2.8125 -1.5937,-3 -4.2188,-2.4062 -4.9062,-2.875 -3.5,-2 -3.0938,-2.5 -2.0937,-0.9062 -2.5,-1.3125 -3.0938,-1.9063 -2.5937,-1.5 -2.625,-2.5 -2.5938,0.2188 -2,0.094 -1.7812,1.8125 -2,2.5937 -2,3 -2.125,2.5 -3.5,1.0938 -4.5938,0.5937 -3.1875,-0.094 -0.8125,0 -2.5937,0.6875 -2.5,0.9063 -2,0.094 -2.0938,-0.5 -2,-1 -1.5937,-2.5 -0.5,-0.5938 -1,-1 -3,-1.5937 -3.125,-1.9063 -3.0938,-0.4062 -2.5,-1.0938 -0.5,0 -2,-0.9062 -1.1875,-0.6875 -2.0937,-1.5938 -0.4063,-0.4062 -1.7187,-2 -2.6875,-3 -2.5938,-3 -2.5937,-1.9063 -2.625,-0.9062 -1.2813,0.125 -1.2187,0.1875 -1.5,1.5937 -1.5,1.4063 -2,2.6875 -1.5,2.5 -2,2 -2,0.625 -3.5938,0.5 -1.0937,-0.3125 -0.6875,-0.4063 -3.625,-2.4062 -2.6875,-2 -2.5938,-2.5 -1.5,-3.5 -1.0937,-3.5938 0,-2.5 -1,-3.0937 -0.625,-2.4063 -1.5,-1.9062 -2.1875,-2.875 -2,-1.4063 -4.0938,-1 -4.0937,-0.4062 -3.5,1.1875 -1.5,0.5 -2,0.7187 -5,1.6875 -4.5,2.5938 -1.625,0 -2.5,-0.1875 -3,0.094 -2.5,-0.9063 -4.0938,-0.5 -3.5937,0.2188 -1.5,0.2812 -2,0.625 -3,1.375 -1.5,1.7188 -2.5938,3 -2.5,2.1875 -2.5,0 -2.5,-1.0938 -3.5937,-4.5 -2.7188,-3.6874 -2.5937,-2.9062 -2.0938,0 -1.8125,0.5937 -1.4062,2.1875 -1.1875,2 -1.6875,6.2188 -0.4063,1.5937 -0.3125,2.6875 0,4.125 -0.4062,3.0938 -0.5,4 0,3 -0.375,1 -0.8125,1.5 -2.4063,2.0937 -4.0937,1.6875 -3.4063,0.4063 -1.7812,0.3125 -1.8125,0.094 -5.8125,0.094 -3.2813,-0.9063 -3.5937,-1 -2.2188,-1.0937 -0.7812,-0.5 -2.125,0.5937 -3.0938,0.5 -3.0937,-0.5 -1.4063,-0.8749 -1,-1.125 0.2188,-0.6875 0.2812,-1.3125 1,-2.5 0.5,-2.5937 -0.5,-2 -2.0937,-2 -2,-3.0938 -0.5938,-2.4062 -0.4062,-1.6875 -1.5938,-2 -1.5,-2 -1.0937,-1 -1.5,-1 -3,-1.5938 -1.125,-0.4062 -5.0938,-1.9063 -3.0937,-0.8125 -1.9063,-0.2812 -3.5937,-0.094 -4.5938,1.1875 -3.5937,1.1875 -1.125,0.8125 -1.7813,1.3125 -3.5,0.6875 -2.0937,0.094 -1,-1.5 -0.125,-2.0937 0.9062,-2 2,-2.0938 -0.5,-0.9062 -0.7812,-1.0938 -1.5,-2.0937 -2.625,-1.9063 -2.5,-1.9062 -1.375,-0.3125 -2.2188,-0.2813 -3.5937,0 -3.8125,1.5 -3.7813,2.0938 -2.5,2.5937 -1.9062,1.5 -3.9063,1.4063 -1.2812,0.094 -0.4063,-0.094 -1.9062,-0.9063 -0.5938,-2 -1.7187,-1.4062 -1.875,-0.094 -1.4063,2.7187 -1.4062,2.0938 -0.4063,1.9062 -1.5,0.1875 -1.5937,0.094 -2,0.094 -1.9063,-0.875 -0.5937,-1.125 -0.6875,-1.5 -0.125,-2.5 1.4062,-3.0937 0.5,-1.5938 0.9063,-2 0,-2.0937 -1.1875,-2 -1.3125,-0.8125 -1.0938,0.3125 -1.5937,1.0937 -1.5,0.5938 -1.125,-1.4063 -1.5,-1 -1.5938,-0.5 -1.7812,0.9063 -2,2 -0.5,2 -0.4063,3 0,2.5937 -1.5937,1.5 -2,0.125 -2,0 -1.5,-1 -1.625,-1.5 -2,-1.8125 -1.6875,-0.8125 -1.4063,-0.375 -3.0937,-0.5 -2.5,-0.125 -3.5,0.125 -3.5938,-2 -4.2187,-2.2187 -0.375,-0.4063 -3.3125,-3.5 -2.8125,-4.5 -64,-36.6875 -42.7813,-24.5 -75.9062,-43.0937 -112.0938,-31.9063 -28.2187,-8.0937 -84.5938,-23.00005 -39.6875,-10.81255 -66.5,-18.1874 -15.2187,-4.0937 -38.5938,-10.4062 -118.6875,-31.8126 -17.8125,-4.7812 -130.5,-35.625 -50.5,-14.0938 -22.5,-6.3437 -1745.375,0 z"
     id="rect6"
     inkscape:connector-curvature="0" />
  <path
	 style="fill:#9FAEC0"
	 stroke="#9FAEC0"
	 stroke-width="10"
	 transform="translate(0, 75)"
     d="m 116.5,1693.375 0.031,0.4375 -0.125,2.5938 -0.094,2.5 1.4062,2.5937 2.5938,2.5938 2,2.5 5.0938,5.5937 4.8124,6.2188 3.3126,5.7812 2.2812,5.625 1.8125,6.1875 0.6875,2.5938 1.8125,3.5937 3.2813,5.625 0.3124,0.5 2.8126,4.375 4.1874,4.7188 3.6876,2.6875 3.4062,2.0937 0.5938,0.3125 5,1.8125 0.5,0.5 2.125,2.2813 3.1874,2.3125 2.4063,4.2812 2.4063,3.625 0.7812,3 0.3125,4.5938 0.1875,2.6875 -0.1875,1.9062 -0.5,4.5938 -0.5,3.5 -0.9063,3.2187 -0.3124,1.2813 -0.1876,4.0937 0.3126,4.125 0.5937,2.5938 0.2813,1.5 -0.1876,5 -0.6874,3.5937 -1.125,3 -1.6876,3.5 -1.4062,1.6875 -2.9062,3.5 -1,0.9063 -5.5938,5.2187 -4.5938,5 -2.6874,2.7813 -1,1.4062 -2.9063,3.5 -1.3125,3.0938 -1.2812,1.3125 -1.625,2 -4.6876,3.2812 -2.5937,1.9063 -3.7187,3.4062 -2.7813,2 -1.8125,3.3125 -1.5,3 -0.5938,4.0938 0.4063,3.5937 1.1875,4 0.5,3.5 0.4062,2.3125 -0.4062,3.7813 0,3.0937 -2.0938,4.5 -1.8124,4.125 -0.2813,0.375 -5,7.625 -3.4063,4.375 -1.5,2 -3.4062,3 -0.4062,0.3125 -4.0938,3.4063 -3.5,3.2812 -3.4062,2 -4.1876,3.4063 -3.5937,2.3125 -3.2187,1.5 -2.875,1.4062 -2.8126,0.875 -2.5937,2.4063 -1.2187,3.5 -0.5938,3 0.8125,5.7187 2.1875,6.1875 2.4062,5.0938 0.8126,4.0937 -1,3.4063 -0.9063,4.7187 -2.2187,4.6875 -1.1876,4.3125 0.1876,6.5938 0.8124,5.0937 0.094,4.5938 1,5.5937 0.094,3.2188 1,4.5937 -0.094,4.5 -0.6875,3 -1.5937,3.5 -2.2188,3.1875 -0.5,1 -1.7812,3.125 -0.2188,0.5 -1.4062,2.5938 -1.1876,3.5 -0.5,4 -0.5,8.6875 0.6876,4.5937 0.5,0.7188 2.4062,4 2.4062,3.5937 2.6876,2.5 2.2187,3.3125 0.7813,3.5938 0.4062,3.4062 0,3.6875 -1,4.0938 0.5,5.0937 0,4 -1,3.625 -0.5938,4 -0.094,3 0.2813,5.0938 1.7187,7.1875 1.1875,5 1,6.0937 0.7188,4.3125 -0.7188,4 -0.9062,1.6875 -1.0938,2.2188 -1.7812,2.5937 -0.3126,0.3125 -3.4062,3 -2.7812,2 -3.5,2.875 -0.4063,0.4063 -2.3125,2.5 -5.2812,4.8125 -4.4063,4.0937 -4.9063,4.3125 -3.5,2 -1.9062,1.5938 -1.1875,0.9062 -2.5937,1.5938 -2.625,2 -0.5,0.5 -2.1876,2.2812 -1.5937,2.5 -0.5937,2.5 -0.7188,3.625 -0.4062,2.2813 0,5.5937 0.8124,3.4063 1.5,4 2.4063,3.5937 1.9063,2.125 3.5,3.1875 3.375,3.6875 3.3124,2.8125 3.6876,2.8125 0.3124,0.2813 2.5938,3 1.8125,2.2187 1.4063,3.6875 1.375,3.0938 0.3124,3.0937 -0.1874,4.625 -1.7188,9.6875 -2,9.4063 -0.4062,2 -0.094,0.7812 -1.1875,9.8125 0.094,10.1875 0.094,2.4063 0.9062,3.5 1.5,4.7187 0.4063,1.2813 0.1875,0.5 3.5938,7.7187 3.5,7.5938 1.3124,5 0.094,0.5937 0.094,4.5938 -1,12.3125 0,0.7812 -0.7813,13.9063 -1.4063,8.5937 -2,5.9063 -3,4.0937 -3.1874,2.3125 -2,0.6875 -0.5,0.3125 -2.4063,1.3125 -1.9063,1.5 -1.6874,3 0.375,3.5 0.4062,2 1.2188,3.0938 1.5937,4.5 0.6875,2 0.3125,0.5937 2.1875,5.4063 1.5938,4 0,0.6875 0.2187,4.2187 -0.3125,4.875 -1.4062,5.4063 -0.875,1.8125 -2.3126,5.5937 -0.1874,2.6875 0.875,4.125 1.3124,3.5938 0.3126,4.2812 0,4.625 -1,4.5 -0.5,3.5938 -1.7188,4.6875 -0.5,0.8125 -2.9062,5.1875 -2.6876,5.4062 -2.8124,4 -1.375,3.1875 -0.125,0.625 -0.7813,3.6875 -1.2187,3 -0.6876,6.9063 -2.5937,8.0937 -4.2187,5.5 -3.6876,4.4063 -3.3124,3.9062 -2.1876,4 -2.1874,4.875 -1.3126,6.625 -0.8124,6.5 -0.25,1.6563 3860.8749,0 0.6875,-1.5625 1.5,-2 3.5,-7.0938 2,-6.625 -0.5937,-6.5937 2.5,-5.0938 3.5,-7.5937 1.5,-5.5938 1.5,-4.125 1,-4.5937 4.5,-6.0938 17.1874,-13.8125 6.0938,-0.094 1.5,-1.5 0.5,-3 1.5,-4.0937 2,-4.0938 4.625,-9.0937 0.375,-4.625 2.5,-4.5938 3.625,-4.5937 0.375,-6.0938 0.5,-0.5 2.125,0 1,0.5 1.5,2 0.5,1 0.5937,0 0.5,-0.5 -0.5937,-4 1.5,-2.0937 0.5,-1.5 0,-3.125 5.0937,-1 0,-1 -2.0937,-2 0,-7.5938 -1.625,-2.5937 -5.5938,-8.5938 -2.0937,-7 -1.5938,-5.0937 0.4063,-8.125 0.5,-5.0938 1.5,-3.5937 3,-3 2.5937,-1.5938 0.5,-4.5 3.5,-3.5937 2.5,-2.125 1,-3.5 2,-3.5938 2,-2 4.5938,-1.5937 10.6875,-4.0938 11.125,-4.7187 12.1875,-3.5938 6.0937,-1.5937 6.0938,-1.0938 10.125,-1.5937 8.6875,-4.625 12.6875,-1.0938 17.2187,-2.6875 8.1875,-0.5937 8.0938,0 3.625,0.5 6.0937,2.5 4,-4.125 1,-1.0938 -1,-3.5 1,-0.5 3.5937,1.5 4.5938,-1.0937 0.4062,-2 -6.0937,0 -1,-1.5 0.5,-2 1,-0.5 7.6875,-0.094 3.5,2.5 1.5,-2 3,-9.7188 -0.094,-8.5937 1.5,-13.1875 -1.0938,-6.5939 -1.0938,-7.625 0.7813,-23.875 1,-8.625 2.5,-7.5937 3.5,-7.6875 2.9062,-10.7188 1.5,-3 3.5938,-2.5937 1.5,-1 4,-3.0938 4.0937,-2 1.5,-0.094 1.625,0.5 0.5,2.5938 1.5,0.5 0.5,-1.5938 -1,-3 -1.625,-2.5 -2.5,-2.5 -2.0937,-0.5 -4.0938,0 -3,-1 -4.5937,-3.5 -5.2188,-6 -14.1875,-5 -19.9062,-1.4063 -0.6875,-1.0937 -0.8125,-1.4063 -1.5937,-3 -1.5,-2.5937 -3.5938,-3 -2.5937,-2.5 -1.5,-4 -0.7188,-2 -0.1875,-1 1,-2 -0.2187,-2.7188 -0.094,-2.875 -1.0938,-2 -2.0937,-1.4062 -1.2188,-1.5938 -0.5937,-0.625 -0.9063,-1.5 -0.6875,-1.0937 -2,-3.5 -3.9063,-3.2813 -3.4062,-2.8125 -4.5,-0.4062 -2.7813,-1.5938 -3,-1.5937 -0.7187,-0.5 -1.5,-1.4063 -1.6875,-2.5 -2.5938,-1.4062 -2,-1.5938 -3.0937,-2.5 -2.7188,-2.5937 -2.5937,-2.5 -2.4063,-3 -2.5,-1 -3.0937,-2.4063 -1.5938,-2.5937 -0.5,-4.5 -0.2187,-2.7188 -0.2813,-2.875 -1.0937,-5.625 -1,-4 -0.125,-3.0937 0.4062,-2.9063 0.3125,-1.5 1.9063,-3 2.5,-3.1875 2.375,-2.1875 2.125,-2.5 2,-2.5 0,-3.125 -1.125,-2.0937 0,-4.5 0.5,-3 1.3125,-2.0938 0.6875,-1 0.5,-2.5 -1.0938,-2.0937 -0.5,-3.0938 -0.094,-2.625 1.5937,-1.375 3.5938,-1.4062 2.5,-1.7188 2,-1.5 0.5,-3.0937 -0.5,-3 -0.094,-3.5938 0.5,-4.5 0.3125,-3 0.1875,-2.0937 -0.094,-3.5938 0.3125,-1.125 0.6875,-2.875 1,-2.625 3.0937,-6.7812 3.4063,-9 1.0937,-2.5 2.9063,-6.5938 1.4062,-5.7187 0.7813,-1.1875 2.5,-3.9063 2.9062,-4.1875 3.8125,-5.2187 3.5,-4.5938 0.4063,-0.4062 2.7812,-2.4063 3.5938,-3.1875 1.4062,-3.5937 1,-3.4063 0.4063,-4.5937 1.6875,-3.8125 0.9062,-1.5 2,-3.1875 2.4063,-2.2188 1.0937,-3.5937 1,-3.5 0,-4.0938 -0.5937,-3 -1.1875,-3.5 -1.625,-3 -1.7813,-3.1875 -1,-2.2187 0.4063,-2.7813 -0.625,-2.8125 -0.5938,-2.5937 -1.0937,-3 -1.3125,-1.2188 -2.0938,-1 -4,-2.0937 -2.0937,-1.5 -2.5938,-3 -1.5937,-2.2813 -2.125,-2 -1.875,-2.2187 -0.5,-0.5938 -1.125,-1.5 -2.5,-1.5 -3.5938,-0.9062 -2.5,-0.5 -3.4062,1.2187 -2,0.875 -0.6875,0.5 -2.5,2 -3.0938,2.625 -3,2.2813 -1.0937,0.9062 -3.4063,2.5938 -3.0937,2.5937 -1,0.8125 -3.5,4.5938 -2,2.5937 -1.5,4 -2.5,4.125 -1.5,2.5938 -1.2188,0.1875 -1.2812,0.3125 -3.8125,1.6875 -0.8125,0.4062 -2,1.5 -2.5938,2 -2.5,3.3125 -0.9062,1.375 -3.5938,0 -1.0937,-0.1875 -2,-0.3125 -1.5,-0.5 -1.1875,-0.5 -1.5,-0.5 -2.5,0.7188 -1.5,1 -2.4063,0.4062 -2.0937,0 -1.5,-0.2187 -2.625,-0.7813 -1.5938,-1 -1.5,-1 -3.0937,-0.9062 -2.0938,-0.4063 -2.5,0.5938 -1.5937,0.094 -1.3125,0.2188 -2.5,1 -2.5938,1 -2.5,0.5937 -2.0937,-0.4062 -3.9063,-0.5938 -1.0937,0 -1,1 -1.5,1.0938 -1.125,-0.094 -1.5938,-0.9062 -0.9062,-0.2813 -1.0938,-0.2187 -1,0.5937 -1.5,1 -2,2.5 -1.5,3 -1.2812,2.3125 -3,1.6875 -2.7188,0.8125 -0.2812,-0.6875 -1.125,-1.5 -0.5938,-2.5 -0.5937,-2 -1.5938,-2.5 -2.5,-1.5 -3.0937,-1.5 -2,-2.125 -0.4063,-0.5937 -1,-2.0938 -1.7187,-4 -0.094,-2.4062 -1,-2.0938 -2.0938,-1.4062 -0.9062,0 -1.0938,0.094 -0.5,0.9063 -0.5,3.0937 1.0938,1.4063 1,1.5937 0.5,2.5 -0.5,1.125 -1.4063,1.6875 -0.7812,0.9063 -1.5,1.5 -2.9063,1 -2.1875,-0.7188 -1.5,-1.5 -1.4062,-1.2812 0,-1.5 0.1875,-1.2188 -0.094,-2 1,-3.0937 1.9062,-3.4063 2.5,-2.5 3,-2.6875 0.5,-0.5937 1.0938,-1.4063 -0.094,-2.5 -0.9062,-2.5 0.4062,-2.0937 0.5,-2.5 2.5,-2.5938 2.5,-2 3.6875,-3.7187 1.9063,-1.5 1.5,-2.5 -0.5938,-2 -1,-2.5938 0.6875,-3.9062 1.0938,-1.5 2.9062,-2.6875 1.9063,-2.5938 0.9062,-3.125 -0.5937,-3.5 -1.125,-2.5 -0.5938,-1.5937 -0.7812,-1.5 -2,-3.5 -2.2188,-3.5 -0.9062,-3.5938 -1.0938,-3.5 0,-1.5937 0.2188,-1.3125 0.2812,-3.5 1.5,-3.2813 1.5,-3.125 3.3125,-3.5 5.2813,-5.7812 2,-1.3125 3,-2.1875 2.7187,-2.5 2.6874,-2.5938 6.4063,-6.4062 3.8125,-3.5938 2.5937,-1.7187 3,-3.1875 1.7813,-2.5938 0.8125,-1.8125 0.4062,-1.1875 0.5,-3.7187 0.4063,-3.9063 2,-3 1.5,-2.5937 1.0937,-1.0938 1.1875,-0.8125 2,-0.5 2,-1.5937 2.5,-1.1875 2.5,-1 2,-1.0938 0.9063,-1.625 0,-0.5937 -0.094,-3 -1.0938,-2 -2.125,-2 -0.6875,-1.1875 -1.1875,-1.7188 -4,-3.5 -0.4062,-0.375 -2.2188,-3.125 -2.0937,-3.5937 -0.5938,-1.4063 -0.6875,-2.375 -1.7187,-3.5 -0.6875,-5.3125 -1,-4.0937 0,-4.0938 -0.5,-3 -0.062,-3.4375 -3841.0626,0 z m 4615.2187,98.8125 -8.1874,0.125 -2,1.5938 -1,3 1.0937,3.5937 1,3.5 0.094,5.0938 -0.5,3.5 -0.5,1.5937 -1.5,5.625 2.0938,-0.5 3,-0.625 2,-1 1,-1 2,-1.5937 6.2188,1 3,-0.094 1.5,-0.5 1.5,-1.5 0.5,-3.5938 -1.125,-5.5937 -1,-3 -1.5938,-3.5 -1.5,-2.625 -2.0938,-1 -1.5,-1.5 -2.5,-1 z m -87.9062,10.5 -3,0.125 -1.5,0 -1.5,1.5 -2,2.0938 -1.0938,0.5 -2,3.5 -1.9062,7.1875 -2.9062,16.3125 -1,5 -1.5,4.0937 0.625,4.5938 3.0937,8.0937 0.5,3.5 1.5937,1 1.5,2.125 0.5938,3 0.5,3.5 0,2.0938 2.5938,5 0,2.0937 -3.5,-0.5 -2.0938,-1 -1,-2.5 -1.0938,-2.0937 -1,0.094 -1,1 -1.4062,10.6875 0.094,6.625 1.5,1 2.125,2.5 2.5,2 1.5,0.5 2.5937,1 2,0 3,-4.625 0.5,-5.0938 1.5,-0.5937 2.0937,2.0937 1.4063,-7.1875 0,-3 8.0937,-2.5937 1.5,1.5 2.5938,2.5 1.5938,5.5937 1.5,1.5 1.625,3.5 2,2.5 1.5937,2.0938 2.5,1.5 3,-4.0938 4.0937,0.4063 2.0938,1 7.0938,2.5 3.625,1 1.5,2 1,0 1.5,-0.5 3.5937,-3.125 1,-2.5938 1,-2 -0.094,-2.5 -1.5,-3.0937 -3.125,-7 1.5,-2.5938 2,-3.0937 0.4062,-6.125 1,-1 0,-1 0.5,-3.5938 1.5,-1.5 3,-1 1.5,-2.5937 5.0938,-0.094 0.5,-1.5 1,-7.0938 1.5,-3.625 3.4062,-13.1875 0,-3.0937 -1.5938,-1.5 -5.0937,-3.5 -2,1.0937 -0.5,2.5 -1.5,0.5 -3.0937,-3.5 1,-3.0937 1.5,-1.5 -0.5,-1.5 -4.7187,-5.0938 -1,-0.4062 -2,-0.5 -3.5938,-0.5 -3.5,-1 -3.0937,0 -2.5,-0.4063 -2.0937,1.5 -4,3.0938 -4,1 -3.625,0.5937 -4.0938,-0.5 -5.5938,0.625 -2.5,0 -2,0.5 -3.0937,1.5938 -1.5,2.5 -0.4063,3.0937 -1.5,2.5 -0.5,0 -2.0937,0.094 -0.5,-1.0937 0,-3 0.4063,-5.5938 0,-3 -0.5,-2.5937 -0.625,-4.625 -2.5938,-3.5 z m 12.0938,93.9063 -2,3.5 -2,0.094 -4.0938,-2 -1,1.5 2.5938,3 1,0.5 1,3.625 2.125,6.0938 3.0937,2.5 2.5937,3 3,1.5 2.5938,2.5 1,1 1.5938,0.5 1,3 2.125,6.0937 -0.5,4.0938 1.0937,4 1.5,0 1,-0.5 1.5,-3.5938 -0.5,-4 -1.0937,-6.0937 -1.125,-2.5 -4.0938,-4.0938 -2,-2.5 -1,-0.5 -1.5938,-7.625 -5.1874,-6.5 -1.625,-6.0937 -1,-0.5 z m -27.6876,24.5937 -2.5,3.125 0.5,5.5938 1.5938,2.5 3.0938,1.5 2.5,1.5 3.625,-0.5938 0.375,-4.5 0,-2.625 -5.0938,-4.5 -4.0938,-2 z m -48.5937,18.7188 -2,2.0937 -2.5937,3.5938 -0.4063,7.0937 -1,2 -1,0 -4.0937,-1.5 -1.5,0.125 -2.5,1 -5.125,2.0938 -2.5938,-0.5 -2.5,-1.5 -3.0938,-4.5938 -0.5937,-4.5 -1.5,-1.5 -2,-1.5 -3.0937,0.5 -3.5,2.5938 -1.5,3.5 -0.4063,8.1875 -0.5,3.5 -1.5,10.2187 -1.9063,10.6875 0.5938,4 1.5,3.5938 0,2 -0.5,1 -2,1.0937 -3,-0.5 -3.5938,-0.5 -3.5937,-2 -1,-0.5 -1,-2 -3.5937,-1 -2,-0.5 -3.625,0.625 -3,1.5 -1,2 -0.875,12.1875 -3.125,3.5938 -1.375,4.0937 -1,7.125 -0.5,4.5938 -3,7.0937 2.0937,7.5938 0.5937,4.0937 0,5 1.0938,6.625 0.094,9.1875 -0.5,1 -1,0 -7.1876,-2.5 -2.5,1.0938 -3,1 -4.0937,-0.5 -2,1.0937 -1,3 -1,3.125 -2,0.5 -2.5937,-1.5 -2.5,0 -2.125,0.5938 -2.5,2.5 -3.5,3.5937 -2,3.5938 -1.5,4 0.5,5.0937 1.125,5.125 0.094,8.5938 0,6.0937 -2.5,2.0938 -3.5,-0.5 -3.0937,-1.5 -3.625,-6.0938 -3.5938,-4.5 -2.5938,-2 -3.5,-1 -8.1874,-1.5 -7.125,0.094 -1,-1 1,-2.5 0.4062,-5.5937 -0.5,-1 -4.5938,1 -4.5,2.0937 -3.0937,3.0938 -0.9063,2 0,2 2.5,1.5 0.5938,2.625 -3.5938,2 -1,5.0937 -1.4062,7.5938 0,5.5937 0.5938,5.0938 0,6.625 3.125,4.5 -1,1.0937 -3.5,0.5 -2.625,-2.5 -2,0 -7.5938,4.5938 0.5,1.5 2.5938,1 -2,7.6875 -1,7.125 -0.375,9.5937 1.5937,6.5938 -0.9063,9.1875 -2,7.125 -2.5,4.0937 -2.0937,1 -4,0 -2,0.5938 -2,5.5937 -1,6.0938 -1.5,4 0.5937,7.125 1,5.0937 -0.4062,4.5938 -1,2 -6.0938,0.094 -2.5937,-3.5937 -1,-2.5 -1.5937,-1 -3,0 -1.5,1.5937 -1.5,3 -0.5,4.5938 -3,3.625 -3.625,2.5 -4,2.5937 1,4.0938 -2,4.5 -3,4.0937 -2.5,7.0938 -3,6.2187 -2.5,0.5 -3,0.5 -1.0938,1.5938 -0.4062,2.5 -1.5,8.0937 -2,4.0938 -8.5938,10.2187 -0.5,1.5938 -1.4062,5.5 -1.5,5.5937 -0.5,4.0938 -3,8.125 -0.875,4.0937 -3.5,8.1875 -2,5.5938 -2.5,7.125 -2,4.5937 -2,3 -3.125,2.0938 -1,1.5 -1,2.5937 -0.875,3.5 -2,4.0938 0,8.625 -1.5,2.0937 -5,7.5938 -0.5,4.0937 0.094,4 3,4.0938 5.6875,3 2.5,2.5 6.7188,8.5 -0.5,2.125 -0.4063,10.0937 0.5937,10.1875 2.0938,10.5938 0.094,5.125 -0.5,1.5 -1,4.5937 0,5.5938 1.125,3 3.0937,7.5937 2,2.5 3.5937,2 8.6876,3.5 8.2187,4.5 2.5,-0.5937 3.0937,-2.5 1.5,2.5 0.5,4 4.1876,5.5937 3.625,4 7.5937,6 6.1875,5.0938 4.5938,4 1.5,0 3.625,-3.5938 -0.125,-4.0937 2,-2.5 5.125,-2.5938 3,-3.5937 3.0937,-2 3.5,-1.125 1.5,-1 1.5,-6.5938 1.5,-9.1875 1.9063,-6.5937 2.5,-8.625 2.5,-5.0938 4.0937,-3.5937 2.5,-1.5 8.5937,-5.1875 5,-4.125 2.0938,-1.5 6.5938,-2.5938 2.5,-2.0937 4.5,-5.5938 2,-1 6.625,-2.0937 4.5937,-2.625 1,-1.5 0,-3.0938 -1.0937,-3.5 0.5,-7.5937 -5.7188,-5.5 -2,-4.0938 -2.0938,-6.0937 1,-4.5 3.5,-5.125 7.5,-8.1875 7.5938,-5.6875 9.5938,-4.625 4.125,-2.5938 0.5,-3.5 -0.125,-3.0937 -1,-4.5 -0.5,-1.5938 -3.0938,-1.5 -6.1875,-5 -2.5,-4.5 -0.5937,-9.0937 0.7812,-14.8125 2.0938,-2.5 2.4052,-7.6874 5.0938,-8.125 3.9062,-10.6875 6,-11.1875 4.5938,-4.125 9.125,-4.1875 4,-2.5 2,-9.6875 1.5,-4.625 0.875,-6.5937 1.5,-4.0938 3,-5.0937 1,-3 -0.5,-6.0938 0.4062,-5.625 0.5,-7.5937 0.9062,-7.5938 1.5,-2.0937 2.5,-2 4.0938,0.4062 4.0938,0.5 4.125,1.5 2,0.5 0.5,0.5 0.5937,4.0938 0.5,2 1.5,1.5 1.0937,2 0.5,4.5937 0.5,0.5 1,0 4.5938,-4.5937 3.5,-0.5938 0,-1 -1.0938,-8.125 1.5,-5.0937 -0.5,-1 -3,0.5 -1.0937,-0.5 -1,-6.5938 -1.0937,-1 -4.5,-0.4062 -2.625,-2.5 -2.0938,-4.0938 0,-2 0.5,-2.5937 1.5,-2 2.5,-3.0938 4.5938,-0.5 3,0.5 2.125,2.5 3.0937,4 4.0937,2.5 2,2.5 1.0938,4.0938 1,1 2.5,-1 1.5,-5.5938 2,-2.125 0.5,-5.5937 3.5,-0.5 2.5938,4.5 0,-8.0938 -3.0938,-1 -0.094,-6.5937 3,-6.0938 0,-2 -1.5937,-4.625 -0.5,-3 -1,-1.5 -4.0937,-3.5937 0.5,-1 -2.125,-2 -3.5,0 -8.1876,-3.4063 -1.5,-1 -0.094,-5.0937 -1.5,-4.0938 -2.5937,-4 -1.625,-3 -0.5,-2.5937 2,-3 -1.0933,-6.0938 1.5,-3.125 3.0938,-1.5 3,-1.0937 3.125,1.5 11.7812,17.2187 2.0938,3.5 2,2.5 5.125,-2 3.5937,-1.625 4,-4.5937 1.4063,-5.5938 -5.125,-2.5 0,-3 -5.0938,-2.5 -1.0938,-6.0937 -1.5,-6.0938 -1.0937,-6.125 1.5,-6.0937 1.9063,-12.1875 2,-5.5938 -1.625,-5.5 -0.5938,-4.625 0,-3.0937 -0.5,-1.5 -0.094,-5 1,-1.5938 3.0938,-0.5 1.5,-0.5 0,-2.5937 -4.1875,-10.5938 -3.0937,-4.5 0.5,-1.625 -1.625,-5 -2.5,-4.0937 -3.5938,-3.5 -0.5938,-2 1,-2.5938 2.0938,-2 2,1.5 1.5938,6.5938 2,2 3.2187,8.5937 1,1 4.5,-4.0937 1,-0.5 3.0937,1 2.5938,3.5 4.0938,2 5.125,2 1,2.5 2.0937,9.0937 2.0937,3.625 5.5938,-0.125 0.5,-4.5937 2,-0.5 3,0.5 2.0938,1 1.5,0 1,-2.5938 -0.5,-3.5 3,-5.5937 -0.5936,-1.5938 -2,-1 -1.5938,-3 -1.5,-2 0,-3 1,-1.625 7.0938,-3.0937 1,-1.5 0.4062,-3.0938 -1,-2.5 -4.5937,-2.5 -2.0937,-2.5 -1,-5.0937 -0.125,-6.0938 1,-3.5 9,-12.8125 0,-4.5937 -7.2813,-14.0938 -3,-2.125 -5.5937,-1.375 -3.625,-1.5 -2,-0.5 -2.0938,0.5 -2,2.5938 -2.5,1 -3.5938,-0.5 -4.0937,-4.5 -3,0 z m -247.2187,104.7812 -2.5,2 -1.5,3.125 -1,4.0938 -3,3.5 -4,2.5937 -3.0938,0.5938 -2,-2.0938 -0.094,-3 -1,-1 -2,-0.5 -4.5937,5.0938 -3.5,1.5937 -0.5,1.5 0.5,4.625 0.094,3.5 -1,5.5938 1.0938,4.0937 0.5,4 6.0938,2 12.8124,7 16.9063,11 1,0.5 0.5,-1 -4.0937,-7.0937 -0.625,-1.5 -1.5,-1.5 -1,-2 0.4061,-3.0938 1.5,-10.625 0.4062,-5.5937 0,-4.0938 -1,-2 -1.0937,-5.5937 -1,-3 1.9063,-6.5938 0,-3.625 -0.5,-2 -1.5,-0.5 -1.625,0 z m 62,49.2188 -2.5938,1.5 0.5938,2.5937 1.5,1.5 2.625,-0.5 1,-1.5937 0.5,-1 -1.125,-1.5 -1.5,-0.5 -1,-0.5 z m -33,69.7812 -3.5,1.625 0,3.5 2.125,1.5 1.5,0 2,-1 1,-3.625 -1.625,-1.5 -1.5,-0.5 z m -205.5938,35.8125 -2.0938,1.5 1.0938,3.5 2.5,1 1,-0.5 1,-2 0,-1.5 -0.5,-1.0937 -3,-0.9063 z m 175.9062,2 -1,1.0938 0.094,2.5 1.5,1 1,1 1.5,-0.5 2.0938,-1.5 0.9062,-3.0938 -0.5,-0.5 -5.5938,0 z m -115.8125,16.6875 -0.5,1.625 1.125,2 0,1 1,1 4.0938,0 2,-2.125 0,-2 -0.5938,-1 -2.5,-0.5 -4.625,0 z m 49.9063,184.3125 -2.5938,1.5938 -3,3.5 -1,4.0937 -2.5,2.125 -5.5937,4.0938 -6.5,6.0937 -4.5937,3.0938 -1.5001,4.5937 -2,2.5 -1.5,0 -1.5,0.5 -1.5,2.125 -1,6.0938 -3.5,2.5 -2.125,0.5937 -3,-1 -4.5937,-2.5 -1.0938,-1 0,-1.5 1.5,-3.0937 -0.5,-1 -1.5,-1 -3.0937,-1.5 -3.5938,-3.5 -2,-0.5 -1.5,1 -0.5,1.5 1.5,5.0937 4.6875,5.5 0,2.0938 -2,3 -3.5937,3.5937 -2.5,1 -1.5,-0.5 -6.7188,-1.375 -1.5,-1.5 -0.5,-2.625 -1.0937,-1.5 -1,0 -1,1.125 -0.4063,9.0938 -3.5937,4.0937 -0.4063,3.5 -2,8.6875 -1,2 -3.5,2.625 -5.5937,6.0938 -1,0.5 -1,-2 1.4062,-8.0938 -0.5,-0.5 -3,5.5938 -2,0.5 -1,-0.5 0.4063,-4.0938 2.5,-7.125 1.5,-7.0937 0,-1 6.5937,-1.5938 0.5,-1 0,-2 -2.5937,-2 -4.0938,-1.5 -15.3125,-0.4062 -2.5,1.5 -6,5.7187 -14.6875,8.6875 -2.125,1 -4,4.5938 -3.5,5.0937 -3.5,7.2188 -5.0937,5.0937 -5,7.5938 -4,11.2187 -1.5,3.5938 -2,2.5 -5.0938,2.5937 -4.9999,6.5938 -1.5,6.0937 -4,7.125 -4.5625,5.6563 278.4374,0 3.0313,-5.875 -0.094,-6.0938 -1.125,-7.0937 0,-3.5 1,-3.0938 2.5,-3.625 -0.5,-2 -4.5938,-4 -9.7812,-8.5 -16.3126,-10.5 -4.0937,-4.5937 -3.5937,-1.5 -9.7188,-2.9063 -6.1875,-6.5937 -2,-1 -3.0937,-0.4063 -5.2188,-10.6875 -4.5938,-9.5937 -4.1874,-9.5938 -3.125,-6 -7.6876,-13.625 -2.5937,-2.0937 -7.5937,-0.9063 -2.125,-1.5 -1,0 -2,0.5 -2,1.625 -1.5,1.5 -0.5938,-1 0,-2 2,-3.625 0.5,-2.5937 1.5,-1.5 2.5938,0.5 6.625,0.5 4.0937,0.4062 0,-1 -2.5937,-3.5 -0.5,-2 -2.125,-1 -8.0938,-0.5 z"
     id="rect8"
     inkscape:connector-curvature="0" />
  <path
	 style="fill:#9FAEC0"
	 stroke="#9FAEC0"
	 stroke-width="10"
	 transform="translate(0, 50)"
     d="m 22.6563,2541.4688 -0.4376,2.9375 0.8126,4.5937 0.5,1 2.375,3.0938 0.5,0.5 4.2187,3.3125 4.5937,3.7812 7.5,4.4063 0.4063,0.3125 6.0937,3 4.9063,3.1875 3.5,3.2187 3.4063,3.1875 3,1.1875 4.5937,2.4063 4.4063,1.5 3.5,2.2187 2.375,1.7813 1,0.9062 0.3124,0.3125 2.5938,2.875 2.4062,3.125 3,3.1875 4.0938,2.8125 4.9062,4.375 3.9063,3.9063 3.7813,4.2187 4.125,4.5938 3.0937,3.4062 3,3.5938 0.1875,0.5 2.3125,3 0.2813,0.5 2.9062,4 2.9062,4.0937 0.3126,0.5 2.5937,3.6875 3,3.9063 3.7813,3.5 5.4062,4.3125 10.4062,8.0937 8.9063,8.4063 4.1875,4.7812 2.4062,3.4063 1.5938,4.5 1.7188,3.5 -1.125,4.0937 -0.094,0.5 -0.6875,2.5 -0.5937,3.5 0.375,3.125 1.3124,3.5938 2,1.0937 4.3126,2.0938 2.875,0.9062 4.125,0.9063 0.375,0.2812 2.625,1.8125 3.1874,2.3125 0.4063,0.1875 3.5937,2 3,1.6875 3,0.125 1.4063,0.2813 1.1875,0 3.5938,0.5 2.9062,1.5937 2.2188,2 2.5,3 1.5937,2.625 2.4063,2.875 0.875,3.125 0.3124,0.375 1.5938,2.7188 1.5,1.5937 0.4062,0.4063 1,1.1875 0.4063,2.5937 0.094,2.8125 0,4.0938 0.5,3.5 0.5,2 1.5,2.5937 2.5938,0 3.4062,-1 3.1876,-1 2.5,-0.7812 0.625,-0.2188 3,-1.0937 2.5937,-0.9063 0.5,-0.094 1.5,0.4063 0.5,0.3125 1.5,1.0937 2,2.0938 2.4063,2.0937 3,1.7188 2,0.7812 3.5937,0.4063 3.5,-0.4063 2.0937,-0.9062 3.0938,0.2187 3,0.094 2.5,0.5938 3.5938,1.2187 2.5,0.5938 3.4062,0.4062 3.2188,-0.125 2,0 3.5,0.125 3.1874,-0.3125 3.9063,-0.1875 4.0937,-0.5 3.4063,0.5938 5.1875,0.9062 10.3125,1.875 5,1.625 0.5,0.1875 6.0937,3.5 0.4063,0.1875 4.6875,2.3125 5.5938,1.5 4.8124,-0.094 2.8126,0.094 4.875,-0.6875 4.625,-0.9062 4.5937,0.1875 5,2.3125 6.4063,2.0937 10.6874,4.5938 6.9063,4.4062 6.4063,4.4063 0.375,0.2812 3.625,2.625 0.5,0 3.2812,4.5938 0.3125,0.5 2.5937,4.0937 2,3.4063 1,5.0937 1,4.5938 0.8126,4.2187 0,1.0938 0.7812,5.0937 0.4062,4.5938 1.3126,5.2187 0.6874,6.5938 1.8126,5.5937 3.0937,5.3125 0.1875,0.5 3.0938,5.375 6.2187,5.625 7.0937,4.5 6.1876,4.6875 5.5,5.9063 4.125,5.9062 0.5,0.5938 2.5,2.9062 3.5937,4.2813 0.2813,0.3125 5.8124,6.2812 8.1876,6.625 6.7187,4.7813 5,2 0.5,0.094 6.5937,1.3125 0.5,0.094 7.0938,1.3125 6.7188,1.2813 10.375,3.5 9.9062,3.8125 11.2188,3.6875 11.2812,5.5 6.2188,1.8125 4.5937,0.6875 5,1.125 0.9063,0.2812 3.6874,1.5 4.5,1.2188 0.5,0.094 4.5,1.2813 4.1876,2.625 1.8124,2.0937 2.4063,1.5938 2.5937,0.8125 2.9063,1.0937 4.0937,1 4,1.5 3.0938,2 4.4062,3.0938 2.9063,3.1875 0.4063,0.625 3.1874,4.2812 0.4063,0.3125 4.2813,3.6875 4.3124,3.0938 6.5938,3 5.7188,2.625 5.875,2.375 4.4062,3.8125 3.5,2.5937 0.4062,0.2188 3.5,2 3.5938,1.1875 3.5,1.1875 0.5938,0.2188 3.9062,1.5 3.5,0.5937 2.3125,0.9063 3.5,3.0937 3.6875,3.1875 0.4062,0.4062 2.9063,5.0938 1.5937,2.625 1.1876,2.0938 1.9062,5.0937 2.8125,4.1875 3.5,2.3125 0.5,0.4063 3,2.0937 0.5,0.3125 4.7813,3.875 2.625,2.8125 3,5.6875 0.1874,0.5 2.3126,6.7188 1.6874,3.6874 0.1876,0.5 0.9062,3 0.094,4.0938 -0.375,3 -2.2188,1.7188 -0.4062,0.5 -1.6876,2 -2.5937,2.5937 -1.4063,2.4063 -0.5,2 0.5,3.5937 0,3.5 1.5938,3.5937 4.5,3.5 6.5938,4.2188 4.125,2.875 2.2812,1.9062 2,2.0938 0.3125,3.125 0.5937,2 -1.0937,4 1.5,3.375 2.5,4.9062 2.4063,3.7188 2,2.5938 1.0937,3.5 0,0.5937 -0.3125,3.0937 -1.2812,2.9063 -1.7188,3.1875 -1.7812,4.625 0,3.1875 -0.125,3.5 0.8124,4.5937 1.3126,4.7188 2.875,4.5938 2.4062,4.1874 3.2188,5.5 1,2.5938 1.875,3.8125 1.625,2.5937 0.2812,0.5 2.4062,3 0.5,0.7188 2.5,3 4.0938,2.5938 0.9062,0.5937 2.6876,1.5 1,0.5937 2.125,1 0.5,0.5938 2.875,2.8125 4.625,4.5 0.375,0.5 4.2187,6.0937 3.5937,6.0938 4.3126,4.4062 3.875,4.2188 5.7187,6.0938 0.4063,0.2812 6.6874,4.8125 2.9063,2 2.5937,1.3125 6,3.7812 4.1876,2.4063 4.125,1 4.0937,1.5 6,5 4.6875,3.5937 4.8125,2.3126 6.5,2.7812 3.5,0.5 4.0937,0.8125 0.5,0.1875 5.5,1.625 1.6876,0.5 2.8124,2.6875 3.1876,3.8125 1.4062,2.6875 1,3.6875 0.7188,3.9062 0.5,3.9063 1.0937,3.5 1.5,4.0937 2.1875,2.3126 3.5,2.6874 3.0938,2.8126 2.9062,2.2812 5.5938,3 5.125,3.125 4.0937,1.5938 1.0937,0.6874 3.5,2.2188 1.8126,3.0938 1.7812,3 2.5938,3.7812 2.9062,3.125 3.7188,4.1875 2.6874,2.3125 1.0938,1 4.5,3.875 4.2188,3 3.2812,3.4062 2.0938,1.9063 0.4062,0.4063 3.5938,1.7812 3.625,1.9062 0.375,0.3126 3.2187,1.9062 2.2813,1.2812 2.8124,3.2188 2.5938,2.5938 2.4062,3.6874 1.5938,2.3126 1.5,2 1.7188,2.4062 0.2812,0.5 2.0938,1.6875 1.625,1.5 0.5,0.3125 3.375,1.875 4,1.7188 4.5,2.1874 4.9062,2 3.7188,-0.094 4.5937,0.8125 1.9063,0.375 2.5937,0.7188 8.0937,1.1874 3.0938,1.0938 0.5,0.125 4.0938,0.1875 0.5,0.094 4.625,0.2188 0.5,0 3.5,0.094 0.5,0 4.0937,0.6874 0.5,0.094 4.6875,1.625 4.3125,2.1875 2.5,1.6875 2.4063,1.3125 0.062,0.094 3054.5938,0 1.125,-4.5937 4.5,-14.1875 7,-10.2188 7.0938,-9.1874 4.5,-6.5938 1.5,-9.125 -2.0938,-8.0938 0.4063,-14.1874 2.5,-10.5938 -1.0938,-4.125 2,-7.5938 0.5,-4.5937 7.5938,-7.5937 6,-5.5938 7.0937,-5.2188 3.0938,-3 8.125,-4.0937 7.5937,-3.5937 9.0938,-4.2188 10.6875,-5.0938 9.125,-6.6874 6.5937,-2 2,-7.7188 7.0938,-7.0938 7.5937,-8.6874 4,-6.5938 4.5,-7.625 4.0938,-6.0939 2.9062,-13.6874 2,-6.5938 0.4063,-11.7188 0.5,-4.5 0,-2.5937 -0.5938,-6.5937 -2.5937,-11.5938 -1.625,-8.625 -3.6875,-8.0938 -4.0938,-12.0937 -5.2187,-10.0937 -6.6875,-13.0938 -5.3125,-17.2188 -2.5937,-10.0942 -1.0938,-14.6875 1.4063,-13.125 3.5,-6.1875 3,-5.5 -1.5,-4.5937 2.4062,-11.2188 5.5938,-9.0938 3.5,-9.6874 0.9062,-5.0938 0.5,-9.125 -0.625,-10.0937 1.4063,-10.1875 2,-9.0938 3,-12.2187 3.4062,-10.0938 0.5,-10.6875 -0.094,-9.125 1.4063,-8.5937 -0.5,-4.5938 6.5,-14.6875 5.375,-30 1.9062,-14.7187 4,-13.1875 2.4062,-9.2188 0,-7.0937 1.4063,-9.5938 5.5,-10.6875 4.5937,-8.125 4.4064,-11.1875 3,-10.6875 2.5,-8.625 3,-4.5937 0.4063,-8.5938 6.0937,-5.1875 6.0937,-5.125 3,-5.0937 6.5,-10.1875 4.0938,-2.5 3,-5.0938 6,-8.7187 1.5,-7.0938 2.5,-3.5937 4,-8.0938 3.5,-10.2187 2.4062,-11.6875 1.0938,-1.5 7.5,-14.3125 2.5,-6.0938 6,-9.0937 3,-10.7188 3.5,-7.6875 1.4062,-10.0937 0.5,-6.5938 1.4063,-6.125 0.5,-5.5937 1,-3.5 2.5,-7.6875 4.5,-9.0938 1.4687,-2.8437 -278.4375,0 -2.0313,2.5312 -6,8.6875 -6,10.2188 -10.5937,18.7812 -9.625,10.2188 -1.375,5.0937 1.0937,11.6875 2.5938,14.125 -2.5,8.6875 -6,9.6875 -4.5,5.625 -3.5938,5.0938 -5.5,7.0937 -3,6.5938 -0.5,5.5937 -2,4.125 -3.5,5.0938 -2,3 -4.0937,4.0937 -2,2.0938 -7.125,2.5937 -7.5938,-0.5 -11.1875,1.125 -5.5937,1.5938 -3.625,2.5 -6.5,6.1875 -15.6875,12.3125 -2.5938,0.5 -2.5,-0.5 -3.0937,-1 -1.5,-0.5 -2,0.5 -6.625,5.6875 -3.5,6.0937 -5.5938,4.125 -2,2.5 -1.5,7.0938 -4.5,5.0937 -3.5937,6.0938 -5.5,5.0937 -4.5938,2.625 -6.0937,4.0938 0,1 1.0937,1 1.5,0 3.5,-2 3.5938,0.5 1.5,0.4062 -0.9063,4.5938 -0.5,3.0937 0,2 -2,4.0938 -2,2.5 -5.0937,8.7187 -5.5,11.1875 -2,1.5 -3,7.5938 -2.5,3.5937 -4.5938,3.125 -8.0937,1.5 -12.8125,-0.4062 -11.6875,-1.9063 -9.2188,-3.5 -9.6875,-6 -5.5937,-1.5 -2.125,-1 -1,-2 -1,-0.5 -1,0.5 -1.5,4.0938 -2.0938,1.5 -3,0 -0.5,-0.5 4,-3.5 0.5,-0.5938 0,-1 -0.5,-1 -2.5937,-2 0,-2.5 -0.5,-1 -2.5,-2 -5.6875,-5.5937 0,-1 0.5,-1 1,0 4.0937,1.5 1.5,-0.5 1.5938,-1.0938 1,-1 0,-1 -2.0938,-1.5 -2,-2.5 -4.0937,-3 -4.125,-2 -1,1 -0.5,3 -1.5938,1.0938 -2,-0.5 -2,-1.5 -0.094,-4.0938 0.5,-2.5 0.5,-1.125 5.5938,-4.5937 2,-0.5 7.7187,2.5 2.5,-1 1.5,0 0.5938,2 1.5,1.5 1,-1 0.5,-1.5938 -1,-1.5 -0.5,-2.5 -1.0938,0 1,-7.5937 -2.125,-5.5938 0,-2.5 0.5,-1.5 1.5,-1 0,-3.125 0.4063,-13.1875 -0.5938,-10.5937 0.5,-5.0938 0.5,-1.5 1,0 0.5938,1 1,1 2.5937,12.0938 0,1.5937 0.5,0.5 1.625,0 5.5938,2.5 9.1875,8 3.0937,6.5938 1,3.5 1.625,2 1.0938,7.5937 1,-0.5 0.4062,-5.5937 0.5,-5.0938 -0.5,-1 -1.5,-1.5 -10.3125,-13.0937 -5.0937,-5.5 -5.2188,-1.5 -0.5,-1 -3.5938,-12.0938 -2.5937,-9.2187 -0.5,-0.5 -2.5938,-0.4063 -0.5,-1.0937 3.5,-7.5938 0,-1 -0.5,-3 0,-1 0.5,-0.094 2.5,1 0.5,0 0.5,-0.5 0.5,-12.5937 0.4063,-7.125 -0.5,-4.0938 0.5,-0.5 0.5,0 4.5937,3.5 0.5,0 0.5,-0.5 0.5,-1.5 0,-1.0937 -0.5,-0.5 -4.5937,-2.5 -1,-1.5 -0.625,-1.5 1,-1 0.625,-0.5 2.5,0.5 3.0937,2 1.5,0 1,-3.0938 0.5,-0.5 1.5,0 1.5938,3.5 1,0 1,-1 0,-5.5937 -0.5938,-5 -1.0937,-9.2188 -0.5,-10.0937 -2.125,-3 -2.0938,-2 1.5938,-2.0938 4.625,2.5 0.375,-8.0938 -2.0938,-3.5 5.5938,-7.2187 3,-2.5 2.5,-5.0938 0.5,-3.5937 2.5,-6.0938 3,-4.625 6.125,-6.0937 2,-3 1.5,-3.5938 5.0937,-3.5937 5.5938,-0.5 1.5,-1.0938 -0.5,-3.5 -1.0938,-0.5 -1,-1.5 1,-1.5 3.5938,-3.125 5.3125,-12.2187 -3860.875,0 z"
     id="rect10"
     inkscape:connector-curvature="0" />
  <path
	 style="fill:#9FAEC0"
	 stroke="#9FAEC0"
	 stroke-width="10"
	 transform="translate(0, 25)"
     d="m 1041.0937,3389.5937 0.3126,0.5 2.125,2.5938 1,1.3125 1.5,1.0937 3,0.5938 2.5,0.625 3.6874,0.5938 0.4063,0.1874 2.0937,1.2188 3.4063,0.375 2.7813,0.125 5.625,1 5.7812,2.5 5.9062,2.5 4.5938,2.5 4.0938,3.0938 0.8124,0.6874 2.1876,1.8126 2.625,3.5 1.6874,2.1874 0.5,1.2188 1.4063,3.6875 2,4.0937 2.5937,2.7188 2,2.5938 2.0938,3.1874 0.3125,0.4063 3.1875,4.1875 2.0938,3 2.8124,3.2188 3,3.2812 3,1.8125 0.5,0.5 3.5,2.9063 3,2.5 2.0938,4 2.7188,3.0937 2,1.6875 0.375,0.4062 2.2187,1.4063 2.1875,2.8125 2,3.1875 2.8125,4.0937 1.5,4.5938 4.5937,12.125 2.1876,5.375 3.625,4.4062 2.0937,3.0938 1,0.8125 3,3.8125 1.9063,2.6875 1.7812,3.3125 3.0938,2.875 3,2.625 2.9062,2.6875 3,3.0937 2.4062,3.2188 0.6876,3 1.5,3 1.125,4 1.5,4.0938 2.0937,3.9062 1.6875,4.1875 0.3125,0.5 1.1875,2.0937 1.4062,2.4063 3.5,4.8125 2.1876,2.6875 0.3124,0.4063 2.5938,3.2812 2.7188,3 4,4 3.5937,6.125 2.5937,4.5 1.3126,4.5938 0.7812,5.0937 0.4062,3.5937 1,5.5 1.0938,4.5 1.7188,4.4063 1.375,8 1.9062,4.1875 0.5,3.2188 1.2188,5.4062 0,2.5938 2.7812,3.5937 1.9062,2.5937 1.5,1.7188 0.4063,0.5 2.0937,2.5938 0.4063,0.4062 2.0937,2.2812 1.6876,3.5 0.9062,3.5938 0.2188,1.4062 -0.125,1 -0.094,0.5938 -0.1875,2.625 -1.3125,4 -1.0938,3.5 -0.5937,4.5 -0.3125,1.5938 -0.4062,1.9062 -0.094,3.5 -0.7812,5.5938 -1.8126,9.1874 -1.5,7.0938 -2,5.625 -1,3 -1,1.0938 -0.9062,1 -2.5938,3.5937 -1.3124,2.8125 -0.5938,3 -0.6875,5.0938 -0.7187,4.5 -0.375,3 -0.5,3.1874 -0.3126,9.9063 -1.4062,10.5937 -1.6875,5 -1.0937,4.9063 0,13.6875 1.0937,3 2.0937,1.8125 1.4063,1.5937 1.6875,1.3126 1.4062,2.2812 0.1876,0.625 0.625,1.875 0.094,0.625 -0.4063,2 -0.5,2.5938 -0.8124,2.0937 -1.875,3.8125 -0.7188,4 -0.094,3 0.4063,3.0938 -0.2187,3.5 0.3124,6.0937 2.0938,5.6875 3.3125,6.3125 4.2813,6.4063 4.4062,4.5937 4.7188,4.5937 3.6874,4.4063 0.6876,0.8125 2.4062,3.6875 1.4062,3.0937 0.8126,4.0938 -0.625,7 -1,7.625 -2.2813,7 -1.7187,4.375 -2.0938,4.7188 -1,4.0937 0,9.0937 1,3.5938 1.8125,4.125 1.6875,3.875 2.3125,4.125 1.5937,3.375 0.1876,0.5 2.625,2.2188 2,1.6874 2.375,3.2188 2.3124,2.5938 1,3.0937 0,3 -0.8124,5 -1.2813,7.0937 -0.9063,11.2188 -0.4062,9.875 -0.1875,0.625 -1.2187,6.375 -1.6876,4.5 -1.0937,3 -0.7187,1.125 -1.5,2.375 -2.2813,4.4062 -0.5,5.0938 0.1875,3.5 0.9062,4.625 1.5,4.5 3,3.5938 3.0938,3.5 6.2188,8.5937 4.5937,7.5937 0.4063,1.5 1.6874,5.4063 2.6876,10.3125 1.4062,10.5938 -0.5,7.5 -1,5.5937 -1.5938,4.5937 -2,6.5 -2,4.9063 -2.6874,2.9063 -1.9063,3.4062 -1,3 1,3.5 1,4.0938 2.1875,4.2812 4,3.8125 4,1.0937 4.7188,0.5938 3.875,0.7188 4.2187,2.0937 5.1875,4 6.5938,3.6875 3.625,-0.875 7,2.2812 7.7812,4 9.7188,6.3126 9.375,8 10,8.9062 6.8124,5.875 5.3126,7.8125 4.2812,8.8125 0.5,1.1875 6.4062,15.3125 0.8126,5.875 0.2812,4.7188 2.4062,6.1874 2.9063,3.5938 4.5,1.7188 0.7813,1.4062 1.125,1.7812 0.031,0.094 2559.5625,0 0,-4.1875 -0.094,-6.0937 1.5,-9.0938 2.5,-10.625 3,-8.0938 3,-8.5937 4.5,-11.6875 2,-7.625 -0.125,-5.5938 2,-6 0,-8.5937 2.5,-12.1875 0.4062,-12.625 2.4063,-14.1875 2.5,-13.6875 0.5,-1.5 2,-5.125 2,-3 2.5937,0.5 1.5,-1.0938 -0.5,-2 -1.5937,-2.5 1,-4.5 1.5,-5.0937 7.0942,-11.1877 7,-12.2188 9.0938,-13.1874 11.625,-19.8126 7.5937,-16.6874 8,-21.9063 3,-10.5937 -0.2187,-21.2188 -1.0938,-14.1875 0.3125,-24.3125 0,-1.5 -0.094,-11.0938 1.5,-15.1874 4,-7.5938 4.5,-8.125 3,-6.0938 3.0938,-6.0937 7.5,-14.1875 4.5937,-8.7188 3,-2.5 8.5,-16.7812 9.5937,-17.3125 6,-13.6875 5.0938,-9.625 2,-5.5938 3.5,-10.5937 0.9062,-8.0937 0.9063,-15.2188 -5.8125,-33.875 0.4062,-7.625 3.5,-9.0938 -1.0937,-10.5937 4.0937,-4.0937 2.5,-1.5 -0.5,-2.5938 -5.5937,-3 -2.0938,-3.5 -3.0937,-9.125 -5.7188,-8 -0.5937,-7.0938 -5.0938,-7.0937 -3.7187,-9 -2.6875,-28.9063 0.4062,-14.5937 -1.0937,-8.0937 -1.625,-6.5938 -3.0938,-8.625 -1.5937,-8.0938 0.5,-6.5 1.4062,-7.5937 2.5,-7.6875 2,-12.125 2.5,-12.1875 1.9063,-15.6875 0.5,-4 1.875,-6.625 2.125,-5.5938 8,-12.6874 3.5,-11.7188 0.875,-11.6875 1,-10.5937 1.9062,-10.0938 3.875,-15.7188 -3054.5938,0 z"
     id="rect12"
     inkscape:connector-curvature="0" />
  <path
	 style="fill:#9FAEC0"
	 stroke="#9FAEC0"
	 stroke-width="10"
     d="m 1379.0625,4237.6875 0.8438,3.9062 -1,5.5 -1.375,2.5 -2.9063,3.5938 -4.5937,4.2188 -10.125,11.2812 -8.5,9.7188 -10.6876,11.5937 -8.8124,10 -0.2813,0.5 -3.7187,5.1875 -3,6.125 -3.7813,6.875 -2.8125,6.7188 -2.4062,8.2812 -4.5,10.4062 -1.6876,4.5938 -1.8124,4.9062 -3.2813,6.2188 -4.2187,3.6875 -0.5,0.1875 -5.1876,2 -3.4062,1.5 -0.7812,0.4062 -2.8126,1.9063 -2,2.5 -1.6874,3.9063 -0.7188,4.5 -0.2812,7.5937 0.6874,5.6875 0.3126,10.625 0.2812,6.5938 -0.094,12 -1.5,11.5937 0,1.5 0.094,7.3125 -0.5,8.5 0.4062,8 0.6876,8.5938 0.625,10.0937 3,13.8125 3.0937,11.0938 4.0937,13.5 2.6876,9.1874 0.7187,2.5938 1.0937,3.5 0.094,4.5 -0.5,6.125 -1.5,6 1.5938,4.0938 0.5,1 3.125,5 1.1874,1.7812 3.1876,7.7188 0.625,10.1874 -0.3126,8 0.094,5.5938 0.094,2.5 1.125,11.7188 -0.8126,11.0937 0,7.0937 2.5938,6 3.0938,4.8126 5,4.7812 7.5,4.3125 6.9062,4.8125 6.9062,6.875 3.8126,8.2188 0.2812,1.0937 1.9062,7 2,9.0937 1.5938,6 1.2188,4.9063 1.375,4.0937 2.5,2.0938 1,0.7188 1.9062,1.5 2.2188,2.9062 1.6874,2.7812 -0.094,3.7188 -0.5,5.0938 -0.094,8.7812 0.094,12.4062 1,11.4063 2.1875,9.6875 1.5938,9.7188 1.3124,6.0937 0.5938,4 1.5938,4.1875 1.4062,3.125 1.7188,2.7812 0.6874,2.8126 -0.1874,3.1874 -1.125,3.3126 -0.375,1.7812 0.094,0.625 0.4063,1.875 1.5937,2.5 2.0937,1.5 0.4063,0.2188 1.5937,0.9062 1,2 0,1.5 0.5,2 2.0938,3.5 2,1.5938 2.0938,0.5 1.5,0.4062 2.5,0.094 2.125,-0.094 3.0937,0.5 2.5,1.5938 1.4063,1.9062 0.375,3 -0.094,2.5 1.4062,3.0938 1.5,1.5937 0.5,0.5 2.5938,2 3.5938,2.5 8.7187,5 7.6875,4.5937 6.3125,5.2188 5,4.2812 3.2813,4.7188 5.4062,4.375 4.5938,3 6.125,3.625 4.7812,2.875 4.9062,1.625 5.6876,1 2.5,0 4.125,-0.5 4.5937,-0.125 4.0937,1.5 4.5938,2.625 5,2.375 3.5,1.7188 6.5938,2.6874 2,1 4.9062,2.2188 10.8125,2.0938 8.0937,2.2812 21.5,7.125 16.4063,3.5 11.1875,2.5 11.8125,3.375 13.7813,2.625 10.3124,2.875 5.5938,1.8125 8.2188,1.3125 7.5,1.7812 5.5937,1.8126 6.7813,2.9062 6.8124,2.5938 6,5 3.3126,5 1.375,2 3.9062,7.2812 2.2188,5.3125 2.0937,5.5937 1.0937,6 0.8126,5.0938 1.375,5.125 2.625,5.1875 3.875,9.9063 4.8124,10.0937 1.9063,6 2.0937,7.3125 2.5,5.7812 3.8126,5 5.875,5.8126 4.2187,3.2812 3.5937,5.125 2,5 1.5938,6 2.3125,8.375 0.2813,5.625 -1.6876,5 -4.4062,5.875 4.5938,-0.094 0.5,0 12.3124,0.5 158.5,2.3126 2.5938,0.1874 161,0 128.9062,-0.5 25.8126,0.094 35,0.5 19.1875,1.125 14.0937,0.7812 26,-0.094 42.0938,0 30,-0.094 28.7187,-0.094 100.1875,0.094 91.9063,1.5937 66.5937,1.1875 28.4063,0.5 41.6875,0.7188 1,0 30.7187,-0.2188 37.7813,0.3125 39.5,0.094 29.625,0.094 66.1875,0.3125 88.1875,0.6875 55,0.3125 34,0.1875 13.9062,0.125 148.75,0 28.5625,-1.2188 26.4063,-1 37,-1.4062 102,-1.1875 78,-0.9063 88.875,-1.9062 85.9058,-1.8749 2.2188,0 14.6875,-0.3125 49.5937,-0.4063 42.4063,-0.9062 57.3125,-1 90.0937,-1.5 67.9063,-1.0938 -1.625,-3.4062 -1.5,-6 -2.0938,-8.0938 -2.6875,-12.0937 -1.5937,-13.0937 -0.625,-11.0938 0.4062,-14.7188 0,-9 -0.5937,-7.5937 -0.094,-9.0937 0,-6.0938 -2.5938,-5.5 -1,-4 -0.625,-5.125 -0.5,-5.5 -1.0937,-6.5938 0.5,-5 -0.094,-7.0937 1,-5.5937 2,-8.5938 3,-13.625 3,-12.1875 1.4062,-7.5 2,-7.5937 0.5,-2.0938 4,-11.125 2,-7.5938 1,-5 4.5938,-8.6874 0.4062,-6 1.5,-6.0938 4.0938,-9.625 -0.094,-3.0938 -1.5,-5 -0.094,-4 -2.625,-16.6874 1.5,-5 -0.094,-7.0938 4.5,-11.2188 7.0938,-10.0937 4.625,-3.5937 0,-2.5 -2.625,-4.5 -5.6875,-6.0938 -9.1875,-4.9062 -7.2188,-5.5 -5.0937,-5.0938 -8.3125,-10 -7.6875,-9.5 -7.1875,-10.125 -3.7188,-9.5 -0.5,-2.5938 -2.5937,-5 -4.0938,-5.5 -2.5937,-6.0937 -1.125,-4 -4.0938,-8.0937 -1.5937,-4.5 -1,-4.5 -1.5938,-5.0938 -2.0937,-11.625 0.875,-7.5938 1.5,-3.5 4.625,-4.5937 0,-4 -0.5,-2 -3.7188,-6.0937 -1,-6 1.4063,-14.7188 -0.094,-17.6875 -1.5938,-8.5 -1.625,-4.5937 -2.5,-4 -2.0937,-3 -5.1875,-7.0938 -5.0938,-5.5 -14.4062,-14 -1.5938,-6.125 -1,-1 -3.625,-1 -1.5937,-3 -4.0938,-6.5 -5.0937,-3 -2.0938,-1.5 -0.5,-1.5 1.5,-6.0938 2.5,-8.5937 1.5,-4.0937 2.5,-6.5 6.5938,-10.2188 7.5937,-10.1875 10.0938,-11.0937 1,-4.5938 -4.0938,-3 -2.6875,-16.2188 -2.125,-6 -4.0937,-5.5 -4.5938,-4 -2.0937,-4.0937 -4.5938,-7 -5.7187,-6.5 -2,-4.5937 -0.094,-6.5 0.5,-5.0938 2,-6.125 2,-4 2.5,-5.0938 3,-7.5937 2.5,-6.0937 2,-7.5938 0.5,-5 -1.5938,-4.625 -1.5,-5 -1.5937,-6.5938 -3.125,-4 -2.5938,-4 -1,-1 -1.5937,-2.5937 -1,-4 0,-5.5 -0.094,-5.0937 -1,-5.5938 -2.5937,-2.5 -2.625,-5.5 -1.5938,-5.5 -1.5,-5.625 -1.0937,-5 -1.5938,-7.0938 0,-5.4062 -2559.5625,0 z"
     id="rect14"
     inkscape:connector-curvature="0" />
</svg>
