<?xml version="1.0" encoding="UTF-8" standalone="no"?>
<svg
   xmlns:dc="http://purl.org/dc/elements/1.1/"
   xmlns:cc="http://creativecommons.org/ns#"
   xmlns:rdf="http://www.w3.org/1999/02/22-rdf-syntax-ns#"
   xmlns:svg="http://www.w3.org/2000/svg"
   xmlns="http://www.w3.org/2000/svg"
   xmlns:sodipodi="http://sodipodi.sourceforge.net/DTD/sodipodi-0.dtd"
   xmlns:inkscape="http://www.inkscape.org/namespaces/inkscape"
   width="5882.9062"
   height="4499.8438"
   viewBox="0 0 5882.9062 4499.8438"
   id="svg2"
   version="1.1"
   inkscape:version="0.48.1 "
   sodipodi:docname="AJAX.svg">
  <metadata
     id="metadata20">
    <rdf:RDF>
      <cc:Work
         rdf:about="">
        <dc:format>image/svg+xml</dc:format>
        <dc:type
           rdf:resource="http://purl.org/dc/dcmitype/StillImage" />
      </cc:Work>
    </rdf:RDF>
  </metadata>
  <defs
     id="defs18" />
  <sodipodi:namedview
     pagecolor="#ffffff"
     bordercolor="#666666"
     borderopacity="1"
     objecttolerance="10"
     gridtolerance="10"
     guidetolerance="10"
     inkscape:pageopacity="0"
     inkscape:pageshadow="2"
     inkscape:window-width="1280"
     inkscape:window-height="1004"
     id="namedview16"
     showgrid="false"
     fit-margin-top="0"
     fit-margin-left="0"
     fit-margin-right="0"
     fit-margin-bottom="0"
     inkscape:zoom="0.068842059"
     inkscape:cx="2999.7557"
     inkscape:cy="146.44182"
     inkscape:window-x="-8"
     inkscape:window-y="-8"
     inkscape:window-maximized="1"
     inkscape:current-layer="svg2" />
  <path
	 style="fill:#9FAEC0"
	 stroke="#9FAEC0"
	 stroke-width="10"
	 transform="translate(0, 125)"
     d="m 5584.3125,0 -11.2188,0.3437 -18,0.4063 -56.4062,2.1874 -81.5,3.625 -81.6875,3.5938 -59.5,2.4062 -11.4063,0.5 -5.0937,0.094 -24.6875,0.9062 -16.3125,0.5 -31.0938,1.0938 -8.2187,0.2812 -47.875,1.3126 -25.9063,0.6874 -7.8125,0.3126 -8.5,0.4062 -5.5937,0.1875 -26.5,0.8125 -2.5,0 -13.8125,0.5938 -7,0.094 -9.1875,0.2187 -9.1875,0.094 -103.4062,3.4062 -1.9063,0.094 -36.0937,0.9062 -109.9063,2.5 -9,0.1876 -6.8125,0.1874 -16.2812,0.5 -12.5,0.4063 -3.2188,0.094 -236.6875,6 -70.3125,1.5 -13.5,0.2188 -2.7812,0.094 -49.4063,1.1874 -107.9063,2.4063 -17.7812,0.4063 -2.4062,1.0937 -8.0938,4 -53.3125,1.8125 -12.6875,0.094 -15.9062,0.1874 -3.3126,0 -79.5937,0.8126 -96.8125,2 -2.2812,0 -327.0938,4.8124 -49.4062,0.5938 -47.4063,0.5938 -146.0937,1.5937 -8.2188,0.3125 -181.0938,-2.5938 -51.7812,0.1876 -215.2188,0.4062 -60,0.4062 -160.7812,-0.2187 -36.625,0.094 -11.6875,-0.094 -42.6875,-0.094 -28.9062,-0.1876 -48,-0.4062 -31.5,-0.3125 -1.9063,0 -15.4063,-0.094 -80.4062,-0.3126 -15.1875,-0.094 -3.0937,-0.4063 -0.4063,-0.094 -8.6875,-0.1875 -22.4062,-0.2188 -52.4063,0 -25.5,-0.375 -15.8125,-0.125 -16.1875,-0.094 -36.0937,-0.094 -16.3126,-0.094 -2.5937,0 -15.8125,-0.3125 -16.1875,-0.2813 -15.8125,-0.125 -16.2812,-0.094 -11.7188,-0.094 -20.875,0 -16.7188,-0.1876 -11.6874,-0.125 -25.9063,-0.375 -21,-0.4062 -20.3125,-0.4062 -15.7812,0 -61.0938,-0.3126 -32.5,-0.5 -16.3125,-0.2812 -15.6875,-0.2188 -16.3125,-0.2812 -15.8125,-0.3125 -18.2812,0 -12.8126,-0.094 -36.0937,-1 -28,-0.3126 -5.3125,-0.375 -52.0938,-3.5 -13.1874,-0.7187 -2.5938,-0.1875 -8.8125,0 -3.3125,-0.094 -4.0938,0 -16.2812,-0.2187 -1.125,0 -11.5938,-0.2813 -19.9062,-0.3124 -39.6875,-0.6876 -14.1875,-0.2187 -9.125,-0.1875 -56,-1 -13.5938,-0.2188 -33.6874,-0.6874 -2,0 -13.8126,-0.3126 -51.2812,-1.2812 -110.4062,-2 -25,-0.3125 -55.9063,-1.2813 -43.8125,-0.9062 -115.375,-2.8125 -105.4062,-2.5 -0.4063,0 -53.5937,7.2187 -134.7188,-7.5 -24.1875,5 -22.1875,-0.8124 -118.5,-4.5 L 442.5937,23.3422 389,11.4359 383.6875,11.2485 369.4063,10.8422 179,5.4359 l -8.6875,-0.2812 -16.7188,369.78125 -3.5,210.90625 -6.4687,167.21875 5577.2187,0 -8.0625,-174.71875 -3.5,-72.40625 -1.7187,-36 -20.875,-455.37505 -0.5938,-14.5624 -101.7812,0 z"
     id="rect4"
     inkscape:connector-curvature="0" />
  <path
	 style="fill:#9FAEC0"
	 stroke="#9FAEC0"
	 stroke-width="10"
	 transform="translate(0, 100)"
     d="M 143.625,753.06245 140,847.3437 l -0.5937,16.5 -3.9063,102 -1,27.59375 -2.9063,86.12495 -1.5937,49.0938 -0.1875,3.2812 -4.2188,114.9063 -6.2812,171.7187 -3.4062,86 -0.063,1.5313 5638.9688,0 -0.4063,-8.9375 -1.3125,-27.4063 -2.0937,-46.5937 -0.5938,-13.0938 -0.7187,-14 -0.7813,-21.5 -0.4062,-10.9062 -1.6875,-38.2188 -2.625,-55.0937 -0.125,-2.4063 -0.7813,-21.875 -0.7187,-16.2187 -1.5,-30.9063 -0.6875,-15.6875 -3.5,-74.6875 -0.2188,-5.3125 -0.6875,-16.1875 -3.9062,-88.62495 -0.2813,-7.09375 -0.4062,-10.09375 -1.3125,-28.40625 -0.1875,-5.28125 -0.2188,-2.8125 -0.375,-8.59375 -1.5,-32.90625 -6.9375,-150.1875 -5577.2187,0 z"
     id="rect6"
     inkscape:connector-curvature="0" />
  <path
	 style="fill:#9FAEC0"
	 stroke="#9FAEC0"
	 stroke-width="10"
	 transform="translate(0, 75)"
     d="m 115.8437,1506.0937 -3.4374,87.9687 -0.4063,15.6875 -0.094,5.5938 -2,49 -0.3126,6.3125 0.8126,0.7812 -8,206.8125 -1.5938,35.5 -4.2188,92.9063 -1.1874,30.9062 -1.2188,28.7813 -0.094,3.5 -2.5,63.7187 -1.1874,35.2813 -1.3126,35.5 -0.094,1.9062 -2.25,52.875 5702.5938,0 -1.9375,-45.5625 -0.094,-1.625 -0.625,0 -6.2813,-139.375 -2.9062,-76.9062 -0.6875,-16.2188 -4.3125,-94.5 -4.6875,-102.0937 -1.7188,-36.5 -1.9062,-34.7813 -0.5,-15.7187 -0.375,-10.5938 -0.5,-6.0937 -1.125,-23.3125 -3.375,-70.7813 -0.3125,-7.4062 -3.1875,-71.5625 -5638.9688,0 z"
     id="rect8"
     inkscape:connector-curvature="0" />
  <path
	 style="fill:#9FAEC0"
	 stroke="#9FAEC0"
	 stroke-width="10"
	 transform="translate(0, 50)"
     d="m 86.75,2259.1249 -2.0625,49.125 -3.5,88.0001 -0.2812,6.5 -1.0938,25.8124 -1.3125,32.2813 -3,59.5937 -1.6875,32.8126 -2.9062,60.0937 -2,43.9063 -4.3126,109 -0.5,0.1874 -3.0937,74 0.3125,9.125 -0.8125,14.1876 -5.4063,147.3124 -0.031,1.0938 5767.125,0 -15.875,-367.2188 -15.7188,-355.9999 -1.25,-29.8125 -5702.5937,0 z"
     id="rect10"
     inkscape:connector-curvature="0" />
  <path
	 style="fill:#9FAEC0"
	 stroke="#9FAEC0"
	 stroke-width="10"
	 transform="translate(0, 25)"
     d="m 55.0625,3012.1562 -0.6562,17.0938 -2.7188,73.1874 -1.6875,45.4063 -1.4063,33.4063 -2,45.3124 -3.5,98.875 -0.4062,9.7188 0,1 -2.875,71 -3.2188,82.1875 -1.2812,32.3125 -1.3125,30.6875 -3.1875,81.2187 -4.9062,131.6563 5829.0624,0 -4.5625,-104.1563 -0.094,-3.2187 -14.5,-330.4063 -0.2188,-5 -4.0937,-94.7812 -9.3125,-215.5 -5767.125,0 z"
     id="rect12"
     inkscape:connector-curvature="0" />
  <path
	 style="fill:#9FAEC0"
	 stroke="#9FAEC0"
	 stroke-width="10"
     d="m 25.9063,3765.2187 -1.5,39.8437 -1.7188,43.6876 -3.6875,97.3124 -1.1875,31.1876 -0.625,16.1874 -0.5938,15.625 -0.5937,17.0938 -1.1875,32.7812 -0.625,16.125 -0.5938,15.5938 -2.9062,77.0938 -0.375,9.8124 L 0,4449.3437 l 192,7.3125 35.3125,1.4062 112.1875,4.2813 16.4063,0.5937 15.9062,0.625 16.6875,0.5938 0.1875,0 4.125,0.094 4.0938,0.1874 7.0937,0.3126 15.0937,0.5 0.8126,0 31.7812,1.1874 12.3125,0.4063 0.9063,0.094 3.1874,0.125 178.7188,6.2813 3.375,0.094 45.8125,0.3126 19.3125,0.1874 28.875,0.5 87,1.5 7.4062,0.125 40.7188,0.6876 48.875,1.0937 47,1.2187 63.5,1.5 68.625,1.5938 33.875,0.5938 16.4062,0.4062 11.7188,0.2812 10.1875,0.3126 14.4063,0.3124 29.6874,0.7813 2.0938,0.094 67.125,1.2188 3.0938,0 28.7812,0.5 1.9062,0 22.0938,0.2812 174.3125,1.625 13.0937,0.094 0.7188,0 19,0.5 65.5,2 13.1875,0.4062 18.0937,0.2813 27,1 64,0.8125 34.8126,0.5938 16.4062,0.1874 123.2812,1.625 16.4063,0.1876 79.5,0.5 16.4063,0.1874 52.2812,0.8126 161.4062,2.0937 96.9063,0 37.3125,-0.1875 31.7812,-0.094 151.5938,-1 29.2188,-0.3124 42.5937,0 23,0 6.6875,0.094 23.625,0.094 32.6875,0 24.0937,0.125 90.7188,0 60.5,-0.125 64,0.2188 12.7812,-0.094 3.5938,0 12.3125,-0.125 31.3125,-0.094 36.875,-0.4063 15.8125,-0.1874 23.0937,-0.1876 20,-0.3124 21.5,-0.1876 10.2188,0 64.0938,-0.5 79.4062,-0.625 92.1875,-1.375 20,-0.3124 116.3125,-0.6876 229.5,-2 7.6875,-0.4062 8.1875,-0.094 24.125,-0.4062 48.0938,-0.094 25.5937,-0.625 6.6875,-0.094 57.9062,0 23.0938,-0.094 16.9062,-0.4063 4.5938,-0.094 0.4062,0.1874 3.5938,1.5 3.7188,1.7188 95.7812,-1.0938 5.625,0 0.5938,-0.125 91.6874,-0.6874 15.9063,-0.094 6.5,-0.094 26.8125,-0.4062 4,0 23.0938,-1.4062 20.5,-1.1876 28.0937,-1.5 10.3125,-0.3124 22,-0.1876 16.375,-0.3124 153.7188,-3.5 6.5937,-0.1876 15.9063,-0.4062 126.5937,-3 36.8125,-0.8125 102.5,-2.5 55.1875,-1.4063 11.0937,-1 139.2188,-3.5937 141.5937,-4.6875 3.2813,-0.094 87.8125,-3 3.5,-0.125 108,-8.1874 14.9062,-1.0938 15.9063,-1.2188 26.0937,-2 17,0.3126 4,0.094 34.2813,0.5937 6.2187,-0.1874 61.5,-2.1876 12.5938,-0.4062 279.6875,-10.4062 73.2187,-2.9063 -0.8125,-24.2813 -17.0937,-412.2187 -8.1875,-189.1875 -1.8438,-42.4375 -5829.0624,0 z"
     id="rect14"
     inkscape:connector-curvature="0" />
</svg>
